<svg width="585" height="466" viewBox="0 0 585 466" fill="none" xmlns="http://www.w3.org/2000/svg">
<path d="M211.635 465.395L0 0H584.5L375.976 465.395H211.635Z" fill="url(#paint0_linear_311_9456)"/>
<path d="M210.21 465.395C210.21 465.395 291.445 415.998 374.551 465.395H210.21Z" fill="#192542"/>
<path d="M466.386 334.63C496.189 324.268 511.949 291.707 501.586 261.904C491.224 232.101 458.663 216.342 428.86 226.704C399.058 237.066 383.298 269.627 393.66 299.43C404.023 329.233 436.583 344.993 466.386 334.63Z" fill="#263238"/>
<path d="M483.184 316.124C505.496 293.812 505.496 257.637 483.184 235.326C460.873 213.014 424.698 213.014 402.386 235.326C380.074 257.638 380.074 293.813 402.386 316.125C424.697 338.436 460.872 338.436 483.184 316.124Z" fill="#455A64"/>
<path d="M456.732 315.194C479.356 307.055 491.264 282.573 483.328 260.511C475.391 238.449 450.617 227.162 427.992 235.301C405.368 243.439 393.46 267.922 401.397 289.983C409.333 312.045 434.107 323.332 456.732 315.194Z" fill="#6A7B83"/>
<path d="M456.656 315.026C434.434 323.02 409.99 311.817 401.429 289.967C401.558 290.36 401.679 290.754 401.82 291.145C409.955 313.759 434.882 325.496 457.496 317.361C480.11 309.226 491.847 284.299 483.712 261.685C483.571 261.293 483.413 260.913 483.262 260.528C490.583 282.823 478.878 307.031 456.656 315.026Z" fill="#6A7B83"/>
<path d="M428.035 235.469C450.257 227.475 474.701 238.678 483.262 260.528C483.133 260.135 483.012 259.742 482.871 259.35C474.736 236.736 449.809 224.999 427.195 233.134C404.581 241.269 392.844 266.196 400.979 288.81C401.12 289.202 401.278 289.582 401.429 289.967C394.108 267.672 405.813 243.463 428.035 235.469Z" fill="#263238"/>
<path d="M467.885 279.223C465.816 273.473 461.731 270.732 457.15 270.667C459.396 267.789 460.129 263.743 458.492 259.194C456.457 253.538 451.863 250.661 445.421 251.463L442.91 244.484L436.465 246.803L438.799 253.29L435.14 254.606L432.806 248.119L426.361 250.438L428.695 256.925L422.824 259.037L418.735 260.508L421.054 266.953L425.143 265.482L436.418 296.824L431.898 298.45L434.217 304.895L438.737 303.269L444.608 301.157L447.322 308.703L453.767 306.384L451.053 298.838L454.712 297.522L457.427 305.068L463.872 302.749L461.069 294.958C467.971 291.322 470.241 285.773 467.885 279.223ZM433.312 262.543L442.037 259.404C446.88 257.662 450.351 258.697 451.829 262.804C453.284 266.848 451.267 269.857 446.424 271.599L436.524 275.161L432.137 262.966L433.312 262.543ZM454.712 290.242L444.157 294.039L443.413 294.307L438.821 281.543L450.121 277.478C455.394 275.581 458.95 276.514 460.542 280.937C462.132 285.361 459.985 288.345 454.712 290.242Z" fill="#263238"/>
<path d="M464.754 280.349C462.685 274.599 458.6 271.858 454.019 271.793C456.265 268.915 456.998 264.869 455.361 260.32C453.326 254.664 448.732 251.787 442.29 252.589L439.779 245.61L433.334 247.928L435.668 254.415L432.009 255.731L429.675 249.244L423.23 251.563L425.564 258.05L419.693 260.162L415.604 261.633L417.923 268.078L422.012 266.607L433.287 297.949L428.767 299.575L431.086 306.02L435.606 304.394L441.477 302.282L444.192 309.828L450.637 307.509L447.922 299.963L451.581 298.647L454.296 306.193L460.741 303.874L457.938 296.083C464.84 292.448 467.11 286.9 464.754 280.349ZM430.181 263.669L438.906 260.53C443.749 258.788 447.22 259.823 448.698 263.93C450.153 267.974 448.136 270.983 443.293 272.725L433.392 276.287L429.005 264.092L430.181 263.669ZM451.581 291.368L441.026 295.165L440.282 295.433L435.69 282.669L446.989 278.604C452.262 276.707 455.818 277.64 457.41 282.063C459.001 286.487 456.854 289.472 451.581 291.368Z" fill="#455A64"/>
<path d="M429.675 249.245C429.766 249.497 427.307 250.634 423.449 252.171L423.838 251.345C424.575 253.189 425.417 255.394 426.294 257.788L426.56 258.514L425.827 258.78C425.272 258.981 424.687 259.194 424.093 259.41C421.044 260.507 418.196 261.479 415.823 262.242L416.213 261.414C417.48 265.352 418.176 267.987 417.923 268.078C417.67 268.169 416.528 265.695 414.996 261.852L414.765 261.272L415.386 261.024C417.701 260.101 420.516 259.036 423.565 257.939C424.16 257.727 424.747 257.518 425.303 257.32L424.836 258.312C423.987 255.908 423.232 253.672 422.625 251.781L422.421 251.146L423.014 250.955C426.965 249.684 429.584 248.993 429.675 249.245Z" fill="#6A7B83"/>
<path d="M441.175 245.237C441.321 245.643 439.695 246.6 437.543 247.374C435.39 248.148 433.527 248.447 433.381 248.041C433.235 247.635 434.861 246.678 437.014 245.904C439.166 245.13 441.029 244.831 441.175 245.237Z" fill="#6A7B83"/>
<path d="M432.787 297.617C432.381 297.763 429.577 291.002 426.525 282.519C423.472 274.032 421.327 267.036 421.733 266.89C422.139 266.744 424.942 273.503 427.995 281.99C431.048 290.474 433.193 297.471 432.787 297.617Z" fill="#6A7B83"/>
<path d="M446.577 271.609C446.723 272.015 444.058 273.346 440.624 274.581C437.189 275.817 434.288 276.489 434.142 276.083C433.996 275.677 436.661 274.347 440.095 273.111C443.529 271.875 446.431 271.203 446.577 271.609Z" fill="#6A7B83"/>
<path d="M453.703 290.66C453.849 291.066 451.184 292.397 447.75 293.632C444.316 294.868 441.414 295.54 441.268 295.134C441.122 294.728 443.787 293.398 447.221 292.162C450.654 290.926 453.557 290.254 453.703 290.66Z" fill="#6A7B83"/>
<path d="M145.239 403.108C167.489 403.108 185.527 385.07 185.527 362.82C185.527 340.57 167.489 322.532 145.239 322.532C122.988 322.532 104.951 340.57 104.951 362.82C104.951 385.07 122.988 403.108 145.239 403.108Z" fill="#263238"/>
<path d="M153.733 397.559C175.577 393.32 189.848 372.177 185.609 350.334C181.371 328.49 160.227 314.219 138.384 318.458C116.54 322.696 102.269 343.84 106.508 365.683C110.747 387.527 131.89 401.798 153.733 397.559Z" fill="#455A64"/>
<path d="M171.511 374.855C180.822 361.194 177.014 342.38 163.004 332.831C148.995 323.282 130.09 326.616 120.779 340.277C111.468 353.938 115.277 372.753 129.286 382.302C143.295 391.85 162.2 388.516 171.511 374.855Z" fill="#6A7B83"/>
<path d="M129.371 382.18C115.61 372.802 111.889 354.209 120.82 340.279C120.649 340.515 120.474 340.747 120.309 340.989C110.766 354.993 114.382 374.082 128.386 383.625C142.39 393.168 161.479 389.552 171.022 375.548C171.187 375.306 171.339 375.058 171.497 374.812C161.797 388.221 143.132 391.558 129.371 382.18Z" fill="#6A7B83"/>
<path d="M162.945 332.913C176.706 342.291 180.427 360.884 171.496 374.814C171.667 374.578 171.842 374.346 172.007 374.103C181.55 360.099 177.934 341.01 163.93 331.467C149.926 321.924 130.837 325.54 121.294 339.544C121.129 339.786 120.977 340.034 120.82 340.28C130.518 326.872 149.183 323.534 162.945 332.913Z" fill="#263238"/>
<path d="M154.458 373.772C156.885 370.211 156.759 366.745 154.9 364.102C157.473 364.193 160.086 362.937 162.006 360.12C164.393 356.617 164.134 352.804 161.01 349.458L163.955 345.136L159.964 342.416L157.226 346.433L154.96 344.889L157.698 340.872L153.707 338.152L150.969 342.169L147.333 339.691L144.801 337.965L142.081 341.956L144.613 343.682L131.386 363.091L128.587 361.183L125.867 365.174L128.666 367.081L132.302 369.559L129.118 374.232L133.109 376.952L136.293 372.279L138.559 373.823L135.375 378.496L139.366 381.216L142.654 376.391C147.587 378.829 151.694 377.829 154.458 373.772ZM149.672 347.131L155.075 350.813C158.074 352.857 158.92 355.267 157.187 357.811C155.48 360.315 152.928 360.409 149.929 358.366L143.798 354.188L148.945 346.636L149.672 347.131ZM142.715 370.812L136.179 366.358L135.718 366.044L141.104 358.14L148.101 362.909C151.366 365.134 152.306 367.551 150.439 370.29C148.573 373.028 145.981 373.038 142.715 370.812Z" fill="#263238"/>
<path d="M152.52 372.451C154.947 368.89 154.821 365.424 152.962 362.781C155.535 362.872 158.148 361.616 160.067 358.799C162.454 355.296 162.195 351.483 159.071 348.137L162.016 343.815L158.025 341.095L155.287 345.112L153.021 343.568L155.759 339.551L151.768 336.831L149.03 340.848L145.394 338.37L142.862 336.644L140.142 340.635L142.674 342.361L129.447 361.77L126.648 359.862L123.928 363.853L126.727 365.761L130.363 368.239L127.179 372.912L131.17 375.632L134.354 370.959L136.62 372.503L133.436 377.176L137.427 379.896L140.715 375.071C145.648 377.508 149.755 376.507 152.52 372.451ZM147.733 345.809L153.136 349.491C156.135 351.535 156.981 353.945 155.248 356.489C153.541 358.993 150.989 359.087 147.99 357.044L141.859 352.866L147.006 345.314L147.733 345.809ZM140.776 369.491L134.24 365.037L133.779 364.723L139.166 356.819L146.163 361.588C149.428 363.813 150.368 366.23 148.501 368.969C146.634 371.707 144.042 371.716 140.776 369.491Z" fill="#455A64"/>
<path d="M155.759 339.551C155.608 339.773 153.902 338.897 151.404 337.365L152.301 337.195C151.57 338.39 150.671 339.791 149.671 341.285L149.241 341.927L148.593 341.489C148.248 341.256 147.884 341.01 147.515 340.761C145.627 339.474 143.901 338.239 142.498 337.179L143.397 337.009C141.639 339.339 140.365 340.787 140.142 340.636C139.92 340.484 140.802 338.769 142.327 336.281L142.649 335.757L143.226 336.111C144.725 337.03 146.507 338.184 148.395 339.471C148.762 339.723 149.124 339.972 149.467 340.208L148.389 340.412C149.414 338.935 150.389 337.586 151.234 336.468L151.642 335.929L152.132 336.298C154.471 338.062 155.91 339.329 155.759 339.551Z" fill="#6A7B83"/>
<path d="M162.807 344.457C162.564 344.814 161.286 344.366 159.954 343.458C158.621 342.549 157.738 341.524 157.98 341.168C158.223 340.812 159.5 341.259 160.833 342.167C162.166 343.075 163.05 344.1 162.807 344.457Z" fill="#6A7B83"/>
<path d="M129.431 361.348C129.074 361.105 131.688 356.648 135.269 351.394C138.851 346.138 142.042 342.076 142.399 342.319C142.755 342.562 140.142 347.018 136.56 352.273C132.979 357.528 129.787 361.591 129.431 361.348Z" fill="#6A7B83"/>
<path d="M149.987 358.456C149.744 358.813 147.823 357.927 145.697 356.478C143.57 355.029 142.044 353.565 142.287 353.208C142.53 352.852 144.451 353.737 146.577 355.186C148.703 356.636 150.229 358.1 149.987 358.456Z" fill="#6A7B83"/>
<path d="M142.059 370.409C141.816 370.766 139.895 369.88 137.769 368.431C135.642 366.982 134.116 365.518 134.359 365.161C134.602 364.805 136.522 365.69 138.649 367.14C140.775 368.589 142.302 370.052 142.059 370.409Z" fill="#6A7B83"/>
<path d="M343.093 70.6532C350.205 54.9033 343.201 36.3708 327.452 29.2596C311.702 22.1485 293.169 29.1516 286.058 44.9015C278.947 60.6514 285.95 79.1839 301.7 86.2951C317.45 93.4062 335.982 86.4031 343.093 70.6532Z" fill="#263238"/>
<path d="M338.531 73.9391C349.546 60.6241 347.682 40.9009 334.367 29.886C321.052 18.8711 301.328 20.7357 290.313 34.0507C279.298 47.3657 281.163 67.0889 294.478 78.1039C307.793 89.1188 327.516 87.2541 338.531 73.9391Z" fill="#455A64"/>
<path d="M336.526 62.5834C341.345 50.682 335.357 37.0278 323.152 32.086C310.947 27.1442 297.146 32.7862 292.327 44.6876C287.509 56.5891 293.496 70.2432 305.701 75.185C317.906 80.1268 331.707 74.4849 336.526 62.5834Z" fill="#6A7B83"/>
<path d="M305.73 75.089C293.741 70.236 287.856 56.736 292.342 44.693C292.251 44.901 292.157 45.105 292.071 45.317C287.133 57.517 293.019 71.411 305.22 76.35C317.42 81.288 331.314 75.402 336.253 63.201C336.339 62.99 336.413 62.777 336.492 62.565C331.337 74.337 317.719 79.942 305.73 75.089Z" fill="#6A7B83"/>
<path d="M323.104 32.168C335.093 37.021 340.978 50.521 336.492 62.564C336.583 62.357 336.677 62.152 336.763 61.941C341.702 49.741 335.815 35.847 323.614 30.908C311.414 25.969 297.52 31.856 292.581 44.057C292.495 44.268 292.421 44.481 292.342 44.693C297.497 32.92 311.115 27.315 323.104 32.168Z" fill="#263238"/>
<path d="M323.388 64.578C324.644 61.476 323.977 58.865 322.131 57.166C324.099 56.812 325.875 55.428 326.869 52.974C328.104 49.922 327.28 47.071 324.358 45.045L325.882 41.28L322.405 39.872L320.988 43.372L319.014 42.573L320.431 39.073L316.954 37.665L315.537 41.165L312.369 39.883L310.163 38.99L308.756 42.467L310.962 43.36L304.117 60.269L301.678 59.282L300.27 62.759L302.709 63.746L305.877 65.028L304.229 69.099L307.706 70.507L309.354 66.436L311.328 67.235L309.68 71.306L313.157 72.714L314.859 68.511C319.005 69.547 321.958 68.112 323.388 64.578ZM315.37 45.144L320.077 47.05C322.69 48.107 323.729 49.798 322.832 52.014C321.949 54.196 320.027 54.687 317.414 53.63L312.073 51.468L314.736 44.888L315.37 45.144ZM313.988 64.264L308.293 61.959L307.891 61.796L310.678 54.91L316.774 57.378C319.619 58.53 320.73 60.209 319.764 62.595C318.799 64.982 316.833 65.416 313.988 64.264Z" fill="#263238"/>
<path d="M321.699 63.894C322.955 60.792 322.288 58.181 320.442 56.482C322.41 56.128 324.186 54.744 325.18 52.29C326.415 49.238 325.591 46.387 322.668 44.361L324.192 40.596L320.715 39.188L319.298 42.688L317.324 41.889L318.741 38.389L315.264 36.981L313.847 40.481L310.679 39.199L308.473 38.306L307.065 41.783L309.271 42.676L302.426 59.585L299.987 58.598L298.579 62.075L301.018 63.062L304.185 64.344L302.537 68.415L306.014 69.823L307.662 65.752L309.636 66.551L307.988 70.622L311.465 72.03L313.167 67.827C317.316 68.864 320.269 67.428 321.699 63.894ZM313.681 44.46L318.388 46.366C321.001 47.424 322.04 49.114 321.143 51.33C320.26 53.512 318.338 54.003 315.725 52.946L310.384 50.784L313.047 44.204L313.681 44.46ZM312.298 63.581L306.603 61.276L306.201 61.113L308.988 54.227L315.084 56.695C317.929 57.847 319.04 59.526 318.074 61.912C317.11 64.298 315.143 64.732 312.298 63.581Z" fill="#455A64"/>
<path d="M318.742 38.389C318.641 38.638 317.183 38.303 315.023 37.58L315.864 37.224C315.52 38.257 315.078 39.472 314.568 40.772L314.286 41.49L313.557 41.2C313.256 41.08 312.94 40.954 312.618 40.826C310.973 40.16 309.464 39.496 308.231 38.905L309.073 38.548C308.093 40.594 307.315 41.883 307.066 41.782C306.817 41.681 307.155 40.214 307.874 38.062L308.066 37.488L308.716 37.705C310.012 38.138 311.559 38.711 313.203 39.377C313.523 39.509 313.838 39.638 314.137 39.761L313.127 40.189C313.665 38.9 314.192 37.72 314.664 36.738L314.96 36.121L315.504 36.381C317.561 37.367 318.842 38.14 318.742 38.389Z" fill="#6A7B83"/>
<path d="M324.899 40.953C324.737 41.353 323.665 41.296 322.503 40.826C321.342 40.356 320.532 39.651 320.694 39.251C320.856 38.851 321.928 38.908 323.09 39.378C324.251 39.848 325.061 40.553 324.899 40.953Z" fill="#6A7B83"/>
<path d="M302.346 59.267C301.946 59.105 303.124 55.263 304.977 50.685C306.83 46.106 308.657 42.527 309.057 42.689C309.457 42.851 308.279 46.693 306.426 51.271C304.573 55.849 302.746 59.429 302.346 59.267Z" fill="#6A7B83"/>
<path d="M317.473 53.689C317.311 54.089 315.678 53.805 313.826 53.055C311.973 52.305 310.603 51.373 310.765 50.973C310.927 50.573 312.56 50.857 314.413 51.607C316.264 52.357 317.635 53.289 317.473 53.689Z" fill="#6A7B83"/>
<path d="M313.423 64.066C313.261 64.466 311.628 64.182 309.776 63.432C307.923 62.682 306.553 61.75 306.715 61.35C306.877 60.95 308.51 61.234 310.363 61.984C312.214 62.734 313.585 63.666 313.423 64.066Z" fill="#6A7B83"/>
<path d="M476.53 41.529C476.53 41.529 449.107 30.617 388.181 91.544C388.181 91.544 324.779 146.054 358.669 168.952C387.51 188.438 425.571 160.534 445.665 142.263C456.221 132.665 468.277 118.295 476.036 106.323C489.947 84.862 498.23 56.512 476.53 41.529Z" fill="#39D24E"/>
<path opacity="0.4" d="M476.53 41.529C476.53 41.529 449.107 30.617 388.181 91.544C388.181 91.544 324.779 146.054 358.669 168.952C387.51 188.438 425.571 160.534 445.665 142.263C456.221 132.665 468.277 118.295 476.036 106.323C489.947 84.862 498.23 56.512 476.53 41.529Z" fill="black"/>
<path d="M474.45 40.755C474.45 40.755 440.416 21.926 379.489 82.852C379.489 82.852 320.591 145.641 356.453 165.307C381.045 178.793 416.879 151.842 436.973 133.571C447.529 123.973 461.73 108.966 469.489 96.994C483.4 75.533 491.082 51.339 474.45 40.755Z" fill="#39D24E"/>
<path opacity="0.2" d="M433.342 121.896C459.956 95.2822 473.112 65.2895 462.728 54.9051C452.343 44.5208 422.351 57.6772 395.737 84.2908C369.123 110.904 355.967 140.897 366.351 151.281C376.736 161.666 406.728 148.509 433.342 121.896Z" fill="white"/>
<path d="M449.641 73.071L441.076 81.636L438.871 79.431L447.182 71.12L442.857 66.795L433.953 75.699L430.561 72.307L385.362 117.506L387.652 119.796L378.457 128.41L383.497 133.45L392.486 124.461L393.885 125.86L385.151 134.595L389.942 139.386L400.203 129.125C400.203 129.125 403.934 133.026 416.824 122.002C426.648 113.6 424.626 105.474 424.626 105.474C424.626 105.474 429.545 106.059 436.838 100.293C444.131 94.526 445.573 85.792 445.573 85.792L453.968 77.397L449.641 73.071ZM412.372 116.293C405.086 122.517 399.016 114.322 399.016 114.322L410.247 103.091C410.247 103.091 419.658 110.069 412.372 116.293ZM430.133 97.318C423.15 103.091 419.172 94.889 419.172 94.889L428.827 85.234C428.827 85.234 438.161 90.681 430.133 97.318Z" fill="#39D24E"/>
<path opacity="0.4" d="M449.641 73.071L441.076 81.636L438.871 79.431L447.182 71.12L442.857 66.795L433.953 75.699L430.561 72.307L385.362 117.506L387.652 119.796L378.457 128.41L383.497 133.45L392.486 124.461L393.885 125.86L385.151 134.595L389.942 139.386L400.203 129.125C400.203 129.125 403.934 133.026 416.824 122.002C426.648 113.6 424.626 105.474 424.626 105.474C424.626 105.474 429.545 106.059 436.838 100.293C444.131 94.526 445.573 85.792 445.573 85.792L453.968 77.397L449.641 73.071ZM412.372 116.293C405.086 122.517 399.016 114.322 399.016 114.322L410.247 103.091C410.247 103.091 419.658 110.069 412.372 116.293ZM430.133 97.318C423.15 103.091 419.172 94.889 419.172 94.889L428.827 85.234C428.827 85.234 438.161 90.681 430.133 97.318Z" fill="black"/>
<path d="M445.013 70.688L436.448 79.253L434.243 77.048L442.554 68.737L438.229 64.412L429.325 73.316L425.933 69.924L380.734 115.123L383.024 117.413L373.829 126.027L378.869 131.066L387.858 122.077L389.257 123.476L380.523 132.211L385.314 137.002L395.575 126.741C395.575 126.741 399.306 130.642 412.196 119.618C422.02 111.216 419.998 103.09 419.998 103.09C419.998 103.09 424.917 103.675 432.21 97.909C439.503 92.143 440.944 83.408 440.944 83.408L449.339 75.013L445.013 70.688ZM407.743 113.91C400.457 120.134 394.387 111.939 394.387 111.939L405.618 100.708C405.618 100.708 415.03 107.686 407.743 113.91ZM425.504 94.935C418.521 100.708 414.543 92.506 414.543 92.506L424.198 82.851C424.198 82.851 433.532 88.298 425.504 94.935Z" fill="#39D24E"/>
<path d="M470.527 39.343C470.501 39.497 467.879 38.957 463.09 38.735C458.315 38.516 451.315 38.81 443.015 40.918C438.871 41.969 434.418 43.465 429.805 45.465C425.201 47.482 420.447 50.021 415.669 53.054C406.08 59.093 396.497 67.151 386.886 76.068C367.534 93.727 354.295 114.141 348.541 130.227C345.695 138.286 345.115 145.345 345.905 150.045C345.994 150.634 346.078 151.19 346.158 151.714C346.287 152.226 346.407 152.705 346.52 153.151C346.632 153.596 346.735 154.008 346.83 154.386C346.938 154.758 347.078 155.083 347.179 155.381C347.606 156.566 347.809 157.205 347.76 157.229C347.711 157.252 347.413 156.658 346.885 155.494C346.759 155.201 346.594 154.881 346.46 154.511C346.341 154.133 346.212 153.722 346.073 153.278C345.937 152.831 345.779 152.351 345.634 151.832C345.531 151.302 345.421 150.739 345.305 150.143C344.309 145.371 344.735 138.109 347.496 129.873C353.07 113.446 366.302 92.746 385.827 74.923C395.467 65.979 405.159 57.881 414.904 51.837C419.759 48.802 424.601 46.271 429.295 44.276C433.996 42.299 438.534 40.843 442.754 39.846C451.208 37.846 458.318 37.72 463.128 38.129C464.336 38.203 465.402 38.348 466.324 38.482C467.248 38.595 468.023 38.732 468.645 38.873C469.89 39.13 470.537 39.291 470.527 39.343Z" fill="#2DB540"/>
<path opacity="0.4" d="M364.984 149.59C364.984 149.59 346.898 127.548 392.315 81.036C437.732 34.524 462.732 54.902 462.732 54.902C462.732 54.902 442.022 38.087 394.387 85.473C352.917 126.727 364.984 149.59 364.984 149.59Z" fill="black"/>
<path d="M439.231 64.413C439.307 64.498 438.428 65.434 436.779 67.048C435.13 68.662 432.712 70.952 429.71 73.746L429.273 74.153L428.877 73.681C428.031 72.674 427.12 71.589 426.164 70.451L427.113 70.501C422.52 75.182 416.873 80.856 410.746 86.936C402.759 94.86 395.468 101.97 390.135 107.062C387.469 109.608 385.292 111.649 383.763 113.034C382.234 114.419 381.353 115.149 381.277 115.072C381.201 114.995 381.938 114.12 383.335 112.602C384.732 111.084 386.79 108.924 389.357 106.278C394.49 100.986 401.659 93.751 409.645 85.827C415.773 79.748 421.492 74.146 426.209 69.59L426.726 69.091L427.159 69.64C428.08 70.807 428.957 71.919 429.772 72.952L428.939 72.887C432.036 70.199 434.571 68.038 436.35 66.57C438.129 65.102 439.154 64.328 439.231 64.413Z" fill="#2DB540"/>
<path d="M426.712 94.447C426.86 94.591 426.672 95.087 426.104 95.681C425.543 96.272 424.573 96.922 423.366 97.279C422.158 97.633 420.991 97.613 420.198 97.42C419.399 97.229 418.972 96.914 419.018 96.713C419.127 96.28 420.915 96.398 422.924 95.78C424.947 95.21 426.385 94.142 426.712 94.447Z" fill="#2DB540"/>
<path d="M405.52 115.53C405.641 115.701 405.46 116.084 404.969 116.488C404.484 116.891 403.674 117.284 402.715 117.419C401.755 117.552 400.868 117.396 400.291 117.141C399.708 116.886 399.429 116.568 399.498 116.371C399.66 115.959 400.978 116.103 402.498 115.872C404.023 115.678 405.251 115.178 405.52 115.53Z" fill="#2DB540"/>
<path d="M444.509 111.521C444.828 111.783 441.397 116.373 436.147 121.06C430.911 125.766 425.973 128.672 425.747 128.326C425.492 127.955 429.958 124.522 435.104 119.896C440.265 115.291 444.168 111.227 444.509 111.521Z" fill="#2DB540"/>
<path d="M388.097 174.999C388.089 175.004 387.999 174.918 387.843 174.737C387.623 174.473 387.409 174.217 387.199 173.967C386.663 173.309 385.937 172.388 385.155 171.356C383.589 169.291 382.394 167.559 382.508 167.471C382.621 167.383 384.001 168.974 385.57 171.042C387.131 173.102 388.309 174.889 388.097 174.999Z" fill="#263238"/>
<path d="M373.359 174.999C373.35 174.997 373.276 174.939 373.148 174.794C372.963 174.579 372.787 174.375 372.622 174.183C372.186 173.66 371.598 172.924 370.967 172.096C369.705 170.441 368.756 169.04 368.87 168.951C368.983 168.863 370.116 170.122 371.382 171.781C372.638 173.433 373.573 174.891 373.359 174.999Z" fill="#263238"/>
<path d="M400.195 171.858C400.079 171.944 398.609 170.159 396.911 167.872C395.213 165.584 393.93 163.661 394.045 163.575C394.161 163.489 395.63 165.274 397.329 167.562C399.028 169.848 400.311 171.772 400.195 171.858Z" fill="#263238"/>
<path d="M411.375 166.934C411.26 167.02 409.691 165.102 407.872 162.652C406.052 160.201 404.671 158.145 404.787 158.059C404.902 157.973 406.471 159.89 408.291 162.342C410.11 164.792 411.491 166.849 411.375 166.934Z" fill="#263238"/>
<path d="M422.925 159.618C422.809 159.704 421.241 157.786 419.422 155.336C417.602 152.885 416.221 150.829 416.337 150.743C416.452 150.657 418.021 152.574 419.841 155.026C421.659 157.476 423.04 159.533 422.925 159.618Z" fill="#263238"/>
<path d="M433.294 151.871C433.178 151.957 431.61 150.039 429.791 147.589C427.971 145.138 426.59 143.082 426.706 142.996C426.821 142.91 428.39 144.827 430.209 147.279C432.029 149.728 433.41 151.785 433.294 151.871Z" fill="#263238"/>
<path d="M443.664 144.123C443.549 144.209 441.98 142.291 440.161 139.841C438.341 137.39 436.96 135.334 437.076 135.248C437.191 135.162 438.76 137.079 440.58 139.531C442.398 141.981 443.78 144.037 443.664 144.123Z" fill="#263238"/>
<path d="M452.705 134.585C452.589 134.671 451.021 132.753 449.202 130.303C447.382 127.852 446.001 125.796 446.117 125.71C446.233 125.624 447.801 127.541 449.621 129.993C451.439 132.443 452.82 134.499 452.705 134.585Z" fill="#263238"/>
<path d="M461.561 124.799C461.445 124.885 459.877 122.967 458.058 120.517C456.238 118.066 454.857 116.01 454.973 115.924C455.088 115.838 456.657 117.755 458.477 120.207C460.295 122.657 461.677 124.713 461.561 124.799Z" fill="#263238"/>
<path d="M470.251 114.754C470.135 114.84 468.567 112.922 466.748 110.472C464.928 108.021 463.547 105.965 463.663 105.879C463.778 105.793 465.347 107.71 467.167 110.162C468.985 112.612 470.366 114.669 470.251 114.754Z" fill="#263238"/>
<path d="M477.745 104.074C477.63 104.16 476.061 102.242 474.242 99.792C472.422 97.341 471.041 95.285 471.157 95.199C471.272 95.113 472.841 97.03 474.66 99.482C476.479 101.932 477.86 103.988 477.745 104.074Z" fill="#263238"/>
<path d="M484.333 91.727C484.217 91.813 482.649 89.895 480.83 87.445C479.01 84.994 477.629 82.938 477.745 82.852C477.861 82.766 479.429 84.683 481.249 87.135C483.067 89.585 484.449 91.641 484.333 91.727Z" fill="#263238"/>
<path d="M488.097 78.418C487.982 78.504 486.573 76.802 484.951 74.617C483.329 72.431 482.107 70.591 482.223 70.505C482.338 70.419 483.747 72.121 485.369 74.306C486.991 76.491 488.212 78.332 488.097 78.418Z" fill="#263238"/>
<path d="M489.772 65.226C489.657 65.312 488.249 63.611 486.628 61.427C485.007 59.243 483.786 57.403 483.902 57.317C484.017 57.231 485.425 58.932 487.047 61.116C488.667 63.301 489.888 65.141 489.772 65.226Z" fill="#263238"/>
<path d="M210.943 113.852C231.476 93.3189 231.476 60.0274 210.943 39.4938C190.409 18.9602 157.118 18.9602 136.584 39.4938C116.051 60.0274 116.051 93.3189 136.584 113.852C157.118 134.386 190.409 134.386 210.943 113.852Z" fill="#39D24E"/>
<path opacity="0.2" d="M210.943 113.852C231.476 93.3189 231.476 60.0274 210.943 39.4938C190.409 18.9602 157.118 18.9602 136.584 39.4938C116.051 60.0274 116.051 93.3189 136.584 113.852C157.118 134.386 190.409 134.386 210.943 113.852Z" fill="white"/>
<path d="M185.073 25.32C185.199 25.25 185.989 26.434 186.838 27.964C187.687 29.494 188.274 30.791 188.148 30.861C188.022 30.931 187.232 29.747 186.383 28.217C185.534 26.687 184.947 25.39 185.073 25.32Z" fill="#263238"/>
<path d="M193.694 28.182C193.82 28.112 194.582 29.244 195.395 30.71C196.209 32.177 196.767 33.422 196.641 33.491C196.515 33.561 195.754 32.429 194.939 30.962C194.126 29.497 193.568 28.252 193.694 28.182Z" fill="#263238"/>
<path d="M201.579 32.071C201.705 32.001 202.467 33.133 203.281 34.599C204.095 36.066 204.653 37.311 204.527 37.381C204.401 37.451 203.64 36.319 202.825 34.852C202.012 33.386 201.454 32.141 201.579 32.071Z" fill="#263238"/>
<path d="M175.943 24.099C176.069 24.029 176.859 25.213 177.708 26.743C178.557 28.273 179.144 29.57 179.018 29.64C178.892 29.71 178.102 28.526 177.252 26.996C176.404 25.465 175.817 24.168 175.943 24.099Z" fill="#263238"/>
<path d="M167.459 24.469C167.585 24.399 168.375 25.583 169.224 27.113C170.073 28.643 170.66 29.94 170.534 30.01C170.408 30.08 169.618 28.896 168.768 27.366C167.92 25.836 167.333 24.539 167.459 24.469Z" fill="#263238"/>
<path d="M159.115 26.323C159.24 26.252 160.028 27.406 160.874 28.899C161.72 30.393 162.305 31.661 162.18 31.732C162.055 31.803 161.268 30.649 160.421 29.155C159.574 27.662 158.99 26.393 159.115 26.323Z" fill="#263238"/>
<path d="M151.45 28.897C151.576 28.827 152.366 30.011 153.215 31.541C154.065 33.071 154.651 34.368 154.525 34.438C154.399 34.508 153.609 33.324 152.759 31.794C151.911 30.264 151.324 28.967 151.45 28.897Z" fill="#263238"/>
<path d="M144.116 33.085C144.242 33.015 145.032 34.199 145.881 35.729C146.73 37.259 147.317 38.556 147.191 38.626C147.065 38.696 146.275 37.512 145.426 35.982C144.577 34.452 143.991 33.155 144.116 33.085Z" fill="#263238"/>
<path d="M137.726 38.243C137.852 38.173 138.642 39.357 139.491 40.887C140.341 42.417 140.927 43.714 140.801 43.784C140.675 43.854 139.885 42.67 139.035 41.14C138.187 39.61 137.6 38.313 137.726 38.243Z" fill="#263238"/>
<path d="M132.665 43.664C132.791 43.594 133.581 44.778 134.43 46.308C135.28 47.838 135.866 49.135 135.74 49.205C135.614 49.275 134.824 48.091 133.974 46.561C133.126 45.03 132.54 43.734 132.665 43.664Z" fill="#263238"/>
<path d="M128.365 50.569C128.491 50.499 129.306 51.728 130.186 53.313C131.066 54.899 131.678 56.24 131.552 56.31C131.426 56.38 130.611 55.151 129.731 53.566C128.851 51.981 128.239 50.639 128.365 50.569Z" fill="#263238"/>
<path d="M124.726 57.988C124.852 57.918 125.665 59.143 126.543 60.724C127.421 62.305 128.03 63.644 127.905 63.713C127.779 63.783 126.966 62.558 126.088 60.976C125.21 59.396 124.6 58.058 124.726 57.988Z" fill="#263238"/>
<path d="M122.272 65.966C122.405 65.894 123.188 67.133 124.201 68.62C125.233 70.108 125.928 71.428 125.8 71.502C125.679 71.572 124.805 70.404 123.769 68.911C122.739 67.399 122.151 66.029 122.272 65.966Z" fill="#263238"/>
<path d="M121.21 74.884C121.336 74.814 122.233 76.19 123.214 77.957C124.195 79.725 124.888 81.213 124.763 81.283C124.637 81.353 123.74 79.977 122.759 78.209C121.778 76.443 121.084 74.954 121.21 74.884Z" fill="#263238"/>
<path d="M122.174 86.852C122.299 86.78 123.274 88.24 124.352 90.111C125.43 91.983 126.203 93.558 126.079 93.63C125.955 93.702 124.98 92.243 123.901 90.371C122.822 88.499 122.049 86.924 122.174 86.852Z" fill="#263238"/>
<path d="M191.57 132.715C219.529 124.875 235.838 95.8535 227.997 67.8946C220.157 39.9357 191.136 23.6266 163.177 31.4672C135.218 39.3078 118.909 68.3289 126.749 96.2878C134.59 124.247 163.611 140.556 191.57 132.715Z" fill="#39D24E"/>
<path opacity="0.2" d="M180.438 120.495C202.485 118.607 218.866 99.6488 217.026 78.1498C215.185 56.6508 195.82 40.7525 173.773 42.6399C151.726 44.5273 135.346 63.4857 137.186 84.9847C139.027 106.484 158.391 122.382 180.438 120.495Z" fill="white"/>
<path d="M180.42 120.323C158.765 122.177 139.675 106.431 137.229 84.974C137.251 85.354 137.265 85.733 137.298 86.114C139.185 108.151 158.578 124.485 180.615 122.599C202.652 120.712 218.986 101.319 217.1 79.282C217.067 78.9 217.017 78.525 216.974 78.147C218.211 99.707 202.075 118.469 180.42 120.323Z" fill="#2DB540"/>
<path opacity="0.3" d="M173.782 42.797C195.437 40.943 214.527 56.689 216.973 78.146C216.951 77.766 216.937 77.387 216.904 77.006C215.017 54.969 195.624 38.635 173.587 40.521C151.55 42.408 135.216 61.801 137.102 83.838C137.135 84.22 137.185 84.595 137.228 84.973C135.991 63.413 152.127 44.651 173.782 42.797Z" fill="black"/>
<path d="M195.533 88.441C195.053 82.838 192.068 79.434 188.009 78.292C190.688 76.264 192.296 72.839 191.916 68.405C191.444 62.893 188.039 59.248 182.119 58.438L181.537 51.637L175.256 52.175L175.797 58.496L172.232 58.801L171.691 52.48L165.411 53.018L165.952 59.34L160.231 59.83L156.246 60.171L156.784 66.452L160.769 66.111L163.384 96.653L158.979 97.03L159.517 103.311L163.922 102.934L169.643 102.444L170.273 109.797L176.554 109.259L175.924 101.906L179.489 101.601L180.119 108.954L186.4 108.416L185.75 100.824C192.749 99.222 196.08 94.824 195.533 88.441ZM168.73 65.429L177.233 64.701C181.952 64.297 184.795 66.039 185.138 70.041C185.475 73.982 182.97 76.181 178.251 76.585L168.603 77.411L167.585 65.527L168.73 65.429ZM181.211 95.126L170.925 96.007L170.2 96.069L169.135 83.631L180.146 82.688C185.285 82.248 188.227 83.919 188.596 88.229C188.965 92.539 186.35 94.686 181.211 95.126Z" fill="#39D24E"/>
<path opacity="0.3" d="M195.533 88.441C195.053 82.838 192.068 79.434 188.009 78.292C190.688 76.264 192.296 72.839 191.916 68.405C191.444 62.893 188.039 59.248 182.119 58.438L181.537 51.637L175.256 52.175L175.797 58.496L172.232 58.801L171.691 52.48L165.411 53.018L165.952 59.34L160.231 59.83L156.246 60.171L156.784 66.452L160.769 66.111L163.384 96.653L158.979 97.03L159.517 103.311L163.922 102.934L169.643 102.444L170.273 109.797L176.554 109.259L175.924 101.906L179.489 101.601L180.119 108.954L186.4 108.416L185.75 100.824C192.749 99.222 196.08 94.824 195.533 88.441ZM168.73 65.429L177.233 64.701C181.952 64.297 184.795 66.039 185.138 70.041C185.475 73.982 182.97 76.181 178.251 76.585L168.603 77.411L167.585 65.527L168.73 65.429ZM181.211 95.126L170.925 96.007L170.2 96.069L169.135 83.631L180.146 82.688C185.285 82.248 188.227 83.919 188.596 88.229C188.965 92.539 186.35 94.686 181.211 95.126Z" fill="black"/>
<path d="M195.824 91.398C195.344 85.795 192.359 82.391 188.3 81.249C190.978 79.221 192.587 75.796 192.207 71.362C191.735 65.85 188.33 62.205 182.41 61.395L181.828 54.594L175.547 55.132L176.088 61.453L172.523 61.758L171.982 55.436L165.701 55.974L166.242 62.295L160.521 62.785L156.536 63.126L157.074 69.406L161.059 69.065L163.674 99.607L159.269 99.984L159.807 106.265L164.212 105.888L169.933 105.398L170.563 112.751L176.844 112.213L176.214 104.86L179.779 104.555L180.409 111.908L186.69 111.37L186.04 103.778C193.039 102.178 196.37 97.781 195.824 91.398ZM169.021 68.385L177.524 67.657C182.243 67.253 185.086 68.995 185.429 72.997C185.766 76.938 183.261 79.137 178.542 79.541L168.894 80.367L167.877 68.483L169.021 68.385ZM181.502 98.082L171.216 98.963L170.491 99.025L169.426 86.587L180.437 85.644C185.576 85.204 188.518 86.875 188.887 91.185C189.256 95.496 186.64 97.642 181.502 98.082Z" fill="#39D24E"/>
<path d="M163.309 99.195C162.879 99.232 161.957 92.558 161.249 84.291C160.541 76.021 160.316 69.289 160.745 69.252C161.175 69.215 162.097 75.887 162.805 84.158C163.513 92.424 163.739 99.158 163.309 99.195Z" fill="#2DB540"/>
<path d="M181.725 79.325C181.762 79.755 179.079 80.336 175.733 80.622C172.386 80.909 169.644 80.792 169.607 80.362C169.57 79.932 172.253 79.352 175.599 79.065C178.946 78.779 181.688 78.895 181.725 79.325Z" fill="#2DB540"/>
<path d="M183.556 97.954C183.593 98.384 180.91 98.965 177.564 99.251C174.217 99.537 171.475 99.421 171.438 98.991C171.401 98.561 174.084 97.981 177.43 97.694C180.777 97.408 183.52 97.524 183.556 97.954Z" fill="#2DB540"/>
<path d="M359.403 396.715C393.397 362.721 393.397 307.606 359.403 273.612C325.409 239.618 270.294 239.618 236.3 273.612C202.306 307.606 202.306 362.721 236.3 396.715C270.294 430.709 325.409 430.709 359.403 396.715Z" fill="#39D24E"/>
<path opacity="0.4" d="M359.403 396.715C393.397 362.721 393.397 307.606 359.403 273.612C325.409 239.618 270.294 239.618 236.3 273.612C202.306 307.606 202.306 362.721 236.3 396.715C270.294 430.709 325.409 430.709 359.403 396.715Z" fill="black"/>
<path d="M354.108 387.564C388.102 353.57 388.102 298.454 354.108 264.46C320.114 230.466 264.998 230.466 231.004 264.46C197.01 298.454 197.01 353.57 231.004 387.564C264.998 421.558 320.114 421.558 354.108 387.564Z" fill="#39D24E"/>
<path opacity="0.2" d="M298.319 389.526C334.778 385.983 361.535 354.29 358.08 318.737C354.626 283.183 322.269 257.233 285.81 260.776C249.35 264.318 222.594 296.011 226.048 331.565C229.502 367.118 261.859 393.068 298.319 389.526Z" fill="white"/>
<path d="M298.314 389.248C262.501 392.73 230.599 367.026 226.142 331.552C226.185 332.181 226.216 332.807 226.277 333.438C229.82 369.882 262.236 396.554 298.68 393.011C335.124 389.468 361.796 357.052 358.253 320.608C358.192 319.977 358.101 319.356 358.023 318.731C360.482 354.4 334.127 385.766 298.314 389.248Z" fill="#2DB540"/>
<path opacity="0.3" d="M285.85 261.035C321.663 257.553 353.565 283.257 358.022 318.731C357.979 318.102 357.948 317.476 357.887 316.845C354.344 280.401 321.928 253.729 285.484 257.272C249.04 260.815 222.368 293.231 225.911 329.675C225.972 330.306 226.063 330.927 226.141 331.552C223.683 295.883 250.037 264.517 285.85 261.035Z" fill="black"/>
<path d="M328.31 340.58C327.409 331.313 322.403 325.735 315.661 323.923C320.057 320.515 322.654 314.814 321.941 307.482C321.055 298.367 315.348 292.397 305.533 291.169L304.44 279.922L294.053 280.932L295.069 291.387L289.173 291.96L288.157 281.506L277.77 282.516L278.786 292.97L269.324 293.89L262.734 294.531L263.744 304.918L270.334 304.277L275.244 354.787L267.959 355.495L268.969 365.882L276.253 365.174L285.715 364.255L286.897 376.415L297.284 375.405L296.102 363.245L301.998 362.672L303.18 374.832L313.567 373.822L312.346 361.266C323.905 358.48 329.336 351.136 328.31 340.58ZM283.501 302.995L297.563 301.628C305.368 300.869 310.107 303.698 310.75 310.318C311.384 316.835 307.278 320.524 299.473 321.282L283.518 322.833L281.607 303.179L283.501 302.995ZM304.728 351.918L287.717 353.572L286.518 353.689L284.518 333.119L302.728 331.349C311.226 330.523 316.129 333.233 316.822 340.361C317.515 347.489 313.226 351.092 304.728 351.918Z" fill="#39D24E"/>
<path opacity="0.3" d="M328.31 340.58C327.409 331.313 322.403 325.735 315.661 323.923C320.057 320.515 322.654 314.814 321.941 307.482C321.055 298.367 315.348 292.397 305.533 291.169L304.44 279.922L294.053 280.932L295.069 291.387L289.173 291.96L288.157 281.506L277.77 282.516L278.786 292.97L269.324 293.89L262.734 294.531L263.744 304.918L270.334 304.277L275.244 354.787L267.959 355.495L268.969 365.882L276.253 365.174L285.715 364.255L286.897 376.415L297.284 375.405L296.102 363.245L301.998 362.672L303.18 374.832L313.567 373.822L312.346 361.266C323.905 358.48 329.336 351.136 328.31 340.58ZM283.501 302.995L297.563 301.628C305.368 300.869 310.107 303.698 310.75 310.318C311.384 316.835 307.278 320.524 299.473 321.282L283.518 322.833L281.607 303.179L283.501 302.995ZM304.728 351.918L287.717 353.572L286.518 353.689L284.518 333.119L302.728 331.349C311.226 330.523 316.129 333.233 316.822 340.361C317.515 347.489 313.226 351.092 304.728 351.918Z" fill="black"/>
<path d="M323.264 341.07C322.363 331.803 317.357 326.225 310.615 324.413C315.01 321.005 317.608 315.304 316.895 307.972C316.009 298.857 310.302 292.887 300.487 291.659L299.394 280.412L289.007 281.422L290.023 291.876L284.127 292.449L283.111 281.995L272.724 283.005L273.74 293.459L264.278 294.379L257.688 295.02L258.698 305.407L265.288 304.766L270.198 355.276L262.913 355.984L263.923 366.371L271.208 365.663V365.664L280.67 364.744L281.852 376.904L292.239 375.894L291.057 363.734L296.953 363.161L298.135 375.321L308.522 374.311L307.301 361.755C318.859 358.97 324.29 351.627 323.264 341.07ZM278.455 303.485L292.517 302.118C300.322 301.359 305.061 304.188 305.704 310.808C306.338 317.325 302.232 321.014 294.427 321.772L278.472 323.323L276.561 303.669L278.455 303.485ZM299.682 352.409L282.671 354.063L281.471 354.18L279.471 333.61L297.681 331.84C306.179 331.014 311.082 333.724 311.775 340.852C312.469 347.979 308.18 351.583 299.682 352.409Z" fill="#39D24E"/>
<path d="M371.239 288.553C371.215 288.565 371.082 288.363 370.847 287.958C370.612 287.536 370.277 286.933 369.84 286.148C369.414 285.344 368.878 284.356 368.176 283.226C367.491 282.087 366.735 280.755 365.754 279.335C363.908 276.423 361.364 273.045 358.163 269.352C354.944 265.676 350.956 261.756 346.09 257.997C341.228 254.243 335.5 250.63 328.938 247.61C322.359 244.648 314.977 242.204 306.963 240.905C302.964 240.244 298.819 239.804 294.573 239.75C290.333 239.674 285.988 239.841 281.618 240.452C277.251 241.05 272.831 241.907 268.467 243.22C264.103 244.526 259.775 246.173 255.538 248.159C251.327 250.202 247.321 252.529 243.558 255.099C239.79 257.665 236.34 260.56 233.127 263.578C229.901 266.59 227.036 269.862 224.426 273.206C221.796 276.54 219.529 280.039 217.525 283.563C213.49 290.609 210.743 297.886 208.905 304.863C207.122 311.863 206.325 318.588 206.183 324.73C206.042 330.877 206.578 336.443 207.409 341.258C208.265 346.069 209.288 350.172 210.389 353.439C210.875 355.095 211.435 356.521 211.889 357.77C212.325 359.026 212.756 360.065 213.112 360.901C213.447 361.734 213.704 362.374 213.884 362.823C214.05 363.26 214.124 363.49 214.099 363.501C214.075 363.513 213.953 363.306 213.739 362.89C213.525 362.455 213.22 361.835 212.823 361.027C212.418 360.208 211.94 359.185 211.456 357.94C210.954 356.703 210.346 355.284 209.812 353.632C208.615 350.372 207.495 346.258 206.549 341.413C205.627 336.564 205.006 330.941 205.078 324.714C205.151 318.493 205.894 311.665 207.649 304.547C209.46 297.452 212.205 290.041 216.271 282.858C218.291 279.265 220.582 275.698 223.245 272.296C225.888 268.885 228.795 265.546 232.071 262.473C235.334 259.393 238.842 256.44 242.675 253.823C246.502 251.202 250.58 248.831 254.865 246.752C259.177 244.731 263.585 243.056 268.029 241.732C272.474 240.401 276.975 239.535 281.422 238.937C285.871 238.326 290.294 238.168 294.608 238.261C298.926 238.332 303.141 238.797 307.203 239.488C315.344 240.848 322.829 243.379 329.482 246.437C336.118 249.553 341.891 253.272 346.772 257.131C351.657 260.994 355.636 265.016 358.824 268.784C361.994 272.569 364.487 276.029 366.267 279.011C367.215 280.466 367.935 281.831 368.58 283C369.243 284.16 369.737 285.176 370.119 286.006C370.497 286.823 370.787 287.45 370.99 287.89C371.179 288.316 371.263 288.541 371.239 288.553Z" fill="#2DB540"/>
<path d="M283.111 281.995C283.137 282.262 279.068 282.895 272.787 283.647L273.367 282.942C273.728 285.945 274.122 289.519 274.513 293.384L274.591 294.154L273.816 294.231C272.922 294.32 271.977 294.413 271.019 294.508C266.105 294.986 261.538 295.38 257.752 295.663L258.333 294.957C258.803 301.24 258.967 305.38 258.699 305.406C258.431 305.432 257.795 301.338 257.046 295.082L256.971 294.454L257.628 294.375C261.398 293.923 265.956 293.431 270.869 292.953C271.827 292.862 272.772 292.772 273.667 292.687L272.97 293.534C272.609 289.666 272.307 286.083 272.083 283.067L272.034 282.409L272.663 282.362C278.97 281.89 283.085 281.728 283.111 281.995Z" fill="#2DB540"/>
<path d="M301.596 280.383C301.638 280.813 298.86 281.434 295.392 281.771C291.923 282.108 289.078 282.034 289.036 281.604C288.994 281.175 291.772 280.553 295.241 280.216C298.708 279.879 301.554 279.953 301.596 280.383Z" fill="#2DB540"/>
<path d="M269.587 354.597C269.157 354.639 267.732 343.587 266.403 329.914C265.073 316.237 264.344 305.119 264.774 305.077C265.203 305.035 266.629 316.085 267.958 329.762C269.286 343.435 270.016 354.555 269.587 354.597Z" fill="#2DB540"/>
<path d="M299.695 321.353C299.737 321.783 295.284 322.567 289.751 323.105C284.216 323.643 279.697 323.731 279.655 323.302C279.613 322.873 284.065 322.089 289.6 321.551C295.133 321.012 299.653 320.924 299.695 321.353Z" fill="#2DB540"/>
<path d="M303.081 352.157C303.123 352.587 298.67 353.371 293.137 353.909C287.602 354.447 283.083 354.535 283.041 354.106C282.999 353.677 287.451 352.893 292.986 352.354C298.519 351.816 303.039 351.728 303.081 352.157Z" fill="#2DB540"/>
<path d="M280.112 420.39C279.987 420.461 278.722 418.479 277.288 415.963C275.853 413.446 274.791 411.349 274.916 411.277C275.041 411.206 276.305 413.188 277.741 415.705C279.175 418.221 280.237 420.319 280.112 420.39Z" fill="#263238"/>
<path d="M265.787 415.816C265.662 415.887 264.446 413.989 263.07 411.578C261.694 409.166 260.681 407.153 260.806 407.082C260.931 407.011 262.147 408.908 263.523 411.32C264.898 413.732 265.912 415.745 265.787 415.816Z" fill="#263238"/>
<path d="M252.659 409.529C252.534 409.6 251.318 407.703 249.943 405.291C248.567 402.879 247.554 400.866 247.679 400.795C247.804 400.724 249.02 402.621 250.396 405.033C251.77 407.444 252.784 409.457 252.659 409.529Z" fill="#263238"/>
<path d="M295.25 422.238C295.125 422.309 293.86 420.327 292.425 417.811C290.99 415.294 289.928 413.196 290.053 413.125C290.178 413.054 291.442 415.036 292.878 417.553C294.313 420.069 295.375 422.167 295.25 422.238Z" fill="#263238"/>
<path d="M309.287 421.463C309.162 421.534 307.897 419.552 306.463 417.036C305.028 414.519 303.966 412.421 304.091 412.35C304.216 412.279 305.48 414.261 306.916 416.778C308.35 419.294 309.412 421.392 309.287 421.463Z" fill="#263238"/>
<path d="M323.086 418.452C322.961 418.523 321.696 416.541 320.261 414.025C318.826 411.508 317.764 409.411 317.889 409.339C318.014 409.268 319.278 411.25 320.714 413.767C322.149 416.283 323.211 418.381 323.086 418.452Z" fill="#263238"/>
<path d="M335.705 413.828C335.58 413.899 334.315 411.917 332.881 409.401C331.446 406.884 330.384 404.786 330.509 404.715C330.634 404.644 331.898 406.626 333.334 409.143C334.767 411.659 335.83 413.757 335.705 413.828Z" fill="#263238"/>
<path d="M347.765 406.756C347.64 406.827 346.375 404.845 344.941 402.329C343.506 399.812 342.444 397.714 342.569 397.643C342.694 397.572 343.958 399.554 345.394 402.071C346.828 404.587 347.89 406.685 347.765 406.756Z" fill="#263238"/>
<path d="M358.246 398.096C358.121 398.167 356.856 396.185 355.422 393.669C353.987 391.152 352.925 389.054 353.05 388.983C353.175 388.912 354.439 390.894 355.875 393.411C357.309 395.927 358.371 398.025 358.246 398.096Z" fill="#263238"/>
<path d="M366.52 389.026C366.395 389.097 365.13 387.115 363.695 384.599C362.26 382.082 361.198 379.984 361.323 379.913C361.448 379.842 362.712 381.824 364.148 384.341C365.583 386.857 366.645 388.954 366.52 389.026Z" fill="#263238"/>
<path d="M374.058 378.478C373.933 378.549 372.668 376.567 371.233 374.051C369.798 371.534 368.736 369.436 368.861 369.365C368.986 369.294 370.25 371.276 371.686 373.793C373.12 376.309 374.183 378.406 374.058 378.478Z" fill="#263238"/>
<path d="M380.175 366.538C380.05 366.609 378.785 364.627 377.351 362.111C375.916 359.594 374.854 357.496 374.979 357.425C375.104 357.354 376.368 359.336 377.804 361.853C379.238 364.368 380.3 366.466 380.175 366.538Z" fill="#263238"/>
<path d="M384.104 353.138C383.979 353.209 382.714 351.227 381.28 348.711C379.845 346.194 378.783 344.097 378.908 344.025C379.033 343.954 380.297 345.936 381.733 348.453C383.167 350.969 384.229 353.066 384.104 353.138Z" fill="#263238"/>
<path d="M385.914 338.922C385.789 338.993 384.274 336.571 382.529 333.512C380.784 330.453 379.472 327.915 379.597 327.844C379.722 327.773 381.237 330.194 382.982 333.254C384.726 336.313 386.039 338.85 385.914 338.922Z" fill="#263238"/>
<path d="M383.957 318.893C383.832 318.964 382.316 316.542 380.572 313.483C378.827 310.424 377.515 307.886 377.64 307.815C377.765 307.744 379.28 310.166 381.025 313.225C382.769 316.284 384.082 318.822 383.957 318.893Z" fill="#263238"/>
<g opacity="0.2">
<path d="M236.37 297.572C263.144 294.945 287.783 292.527 307.036 290.638C310.849 294.62 314.381 298.308 317.504 301.57L317.572 301.641L317.668 301.631C326.775 300.688 334.058 299.933 339.091 299.412C341.574 299.143 343.501 298.934 344.834 298.789C345.468 298.714 345.96 298.656 346.317 298.614C346.434 298.599 346.522 298.586 346.598 298.574C346.621 298.66 346.634 298.746 346.672 298.831C346.92 299.424 347.621 299.905 348.385 299.823C349.151 299.756 349.746 299.149 349.876 298.519C350.026 297.881 349.767 297.288 349.425 296.973C349.082 296.646 348.693 296.557 348.449 296.559C348.198 296.561 348.074 296.628 348.078 296.664C348.066 296.762 348.648 296.704 349.113 297.263C349.332 297.529 349.464 297.958 349.338 298.381C349.223 298.8 348.825 299.179 348.327 299.223C347.83 299.275 347.366 298.98 347.173 298.592C346.968 298.202 347.014 297.756 347.178 297.452C347.526 296.814 348.108 296.759 348.078 296.665C348.076 296.629 347.94 296.587 347.694 296.633C347.453 296.679 347.09 296.84 346.816 297.228C346.585 297.542 346.466 298.038 346.588 298.542C346.512 298.545 346.424 298.55 346.31 298.558C345.952 298.587 345.458 298.627 344.822 298.678C343.486 298.798 341.556 298.972 339.069 299.196C334.049 299.673 326.793 300.363 317.725 301.225C314.612 297.942 311.096 294.234 307.298 290.228L307.219 290.144L307.104 290.155C287.831 292.011 263.143 294.389 236.312 296.972C227.106 297.871 218.162 298.744 209.604 299.58C209.54 299.78 209.474 299.98 209.411 300.181C218.045 299.345 227.074 298.472 236.37 297.572Z" fill="white"/>
<path d="M347.277 280.943C351.323 285.071 355.091 288.917 358.433 292.327L358.52 292.415L358.64 292.403C364.028 291.842 368.651 291.361 372.269 290.985C372.223 290.881 372.179 290.777 372.133 290.673C368.554 290.997 364.004 291.408 358.713 291.886C355.382 288.451 351.631 284.584 347.601 280.429L347.502 280.327L347.36 280.341C344.488 280.618 341.512 280.906 338.466 281.2C325.645 282.481 314.039 283.64 305.566 284.487C301.403 284.932 298.014 285.294 295.6 285.552C294.468 285.686 293.567 285.792 292.893 285.872C292.275 285.952 291.951 286.004 291.953 286.024C291.955 286.045 292.283 286.033 292.905 285.993C293.581 285.941 294.486 285.872 295.623 285.786C298.041 285.574 301.437 285.277 305.607 284.912C314.084 284.111 325.697 283.013 338.525 281.801C341.521 281.506 344.448 281.219 347.277 280.943Z" fill="white"/>
<path d="M275.927 320.333C278.468 321.389 280.761 322.342 282.849 323.209L282.892 323.227L282.937 323.223C287.903 322.766 291.845 322.404 294.588 322.151C295.908 322.018 296.938 321.915 297.678 321.841C297.754 321.832 297.815 321.825 297.884 321.817C297.948 322.276 298.357 322.61 298.823 322.565C299.301 322.519 299.65 322.094 299.604 321.616C299.558 321.138 299.133 320.789 298.655 320.835C298.197 320.88 297.866 321.275 297.88 321.728C297.81 321.732 297.747 321.735 297.67 321.739C296.929 321.79 295.896 321.861 294.572 321.952C291.835 322.163 287.903 322.467 282.954 322.849C280.87 321.961 278.583 320.987 276.048 319.906L275.997 319.884L275.941 319.889C263.08 321.118 245.567 322.792 226.305 324.633C220.282 325.222 214.43 325.793 208.92 326.332C207.775 325.774 206.644 325.223 205.523 324.677C205.52 324.886 205.514 325.095 205.512 325.304C206.577 325.829 207.65 326.357 208.737 326.893L208.811 326.93L208.894 326.922C214.429 326.387 220.309 325.818 226.363 325.233C245.59 323.332 263.075 321.604 275.927 320.333Z" fill="white"/>
<path d="M282.287 315.896C280.055 315.21 277.874 314.539 275.754 313.888L275.697 313.871L275.639 313.877C274.214 314.024 272.819 314.167 271.451 314.308C271.222 311.63 271.004 309.073 270.798 306.654L270.775 306.388L270.512 306.417C262.622 307.291 256.039 308.021 251.369 308.539C249.102 308.808 247.303 309.021 246.015 309.174C245.798 309.203 245.613 309.227 245.428 309.252C245.346 308.814 244.953 308.499 244.501 308.543C244.023 308.59 243.674 309.014 243.72 309.492C243.766 309.97 244.191 310.319 244.669 310.273C245.128 310.228 245.46 309.832 245.445 309.377C245.63 309.363 245.815 309.348 246.032 309.331C247.323 309.213 249.128 309.047 251.401 308.838C256.023 308.378 262.523 307.731 270.302 306.957C270.496 309.388 270.7 311.949 270.915 314.637L270.938 314.922L271.224 314.894C272.663 314.752 274.136 314.606 275.638 314.457C277.757 315.114 279.936 315.79 282.167 316.482L282.224 316.5L282.284 316.494C284.933 316.238 287.65 315.975 290.416 315.707C304.594 314.297 317.487 313.015 327.052 312.064C329.605 313.462 331.895 314.717 333.848 315.786L333.896 315.812L333.947 315.806C336.863 315.489 339.181 315.237 340.826 315.058C341.584 314.966 342.186 314.893 342.643 314.837C342.677 314.832 342.702 314.829 342.733 314.824C342.736 314.831 342.736 314.838 342.739 314.844C342.988 315.437 343.688 315.918 344.452 315.836C345.218 315.769 345.813 315.162 345.943 314.532C346.093 313.894 345.834 313.301 345.492 312.986C345.149 312.659 344.76 312.57 344.516 312.572C344.265 312.574 344.141 312.641 344.145 312.677C344.133 312.775 344.715 312.717 345.18 313.276C345.399 313.542 345.531 313.971 345.405 314.394C345.29 314.813 344.892 315.192 344.394 315.236C343.897 315.288 343.433 314.993 343.24 314.604C343.035 314.214 343.081 313.768 343.245 313.464C343.593 312.826 344.175 312.771 344.145 312.677C344.142 312.641 344.007 312.599 343.761 312.645C343.52 312.691 343.157 312.852 342.883 313.24C342.624 313.593 342.498 314.174 342.709 314.74C342.682 314.742 342.662 314.742 342.634 314.744C342.175 314.778 341.57 314.822 340.808 314.877C339.17 315.017 336.864 315.215 333.968 315.463C332.024 314.365 329.746 313.079 327.206 311.644L327.147 311.611L327.078 311.618C317.502 312.528 304.575 313.755 290.359 315.106C287.613 315.376 284.917 315.639 282.287 315.896Z" fill="white"/>
<path d="M243.896 381.559C243.552 381.232 243.164 381.143 242.92 381.145C242.669 381.147 242.545 381.214 242.549 381.25C242.537 381.348 243.119 381.29 243.584 381.849C243.803 382.115 243.935 382.544 243.809 382.967C243.694 383.386 243.296 383.765 242.798 383.809C242.301 383.861 241.837 383.566 241.644 383.178C241.439 382.788 241.485 382.342 241.649 382.038C241.997 381.4 242.579 381.345 242.549 381.251C242.547 381.215 242.412 381.173 242.165 381.219C241.925 381.265 241.561 381.426 241.287 381.814C241.012 382.188 240.873 382.82 241.143 383.417C241.391 384.01 242.092 384.491 242.856 384.409C243.622 384.342 244.217 383.735 244.347 383.105C244.352 383.082 244.349 383.06 244.353 383.036C244.423 383.035 244.505 383.032 244.614 383.027C244.959 383.005 245.386 382.978 245.909 382.944C247.107 382.847 248.745 382.714 250.784 382.548C255.03 382.163 260.936 381.626 267.885 380.995L268.04 380.981L268.108 380.838C269.637 377.598 271.292 374.092 273.03 370.408L273.065 370.334L273.057 370.252C272.904 368.668 272.747 367.051 272.588 365.411C271.888 358.359 271.23 351.733 270.667 346.06L270.654 345.934L270.55 345.866C267.485 343.857 264.713 342.041 262.364 340.501L262.301 340.46L262.23 340.468C258.884 340.833 256.176 341.128 254.231 341.339C253.342 341.448 252.629 341.536 252.079 341.603C251.968 341.618 251.874 341.632 251.788 341.644C251.74 341.234 251.552 340.876 251.314 340.657C250.971 340.33 250.583 340.241 250.338 340.243C250.087 340.245 249.963 340.312 249.967 340.348C249.955 340.446 250.537 340.388 251.002 340.947C251.221 341.213 251.353 341.642 251.227 342.065C251.112 342.484 250.714 342.863 250.216 342.907C249.719 342.959 249.255 342.664 249.062 342.275C248.857 341.885 248.903 341.439 249.067 341.135C249.415 340.497 249.998 340.442 249.967 340.348C249.965 340.312 249.83 340.27 249.583 340.316C249.343 340.362 248.979 340.523 248.705 340.91C248.43 341.284 248.291 341.916 248.561 342.513C248.809 343.106 249.51 343.587 250.274 343.505C251.04 343.438 251.635 342.831 251.765 342.201C251.803 342.041 251.814 341.883 251.805 341.733C251.89 341.729 251.982 341.724 252.091 341.718C252.643 341.678 253.36 341.627 254.253 341.563C256.187 341.398 258.877 341.168 262.195 340.884C264.487 342.424 267.18 344.235 270.154 346.234C270.692 351.883 271.32 358.465 271.987 365.469C272.145 367.081 272.3 368.67 272.452 370.229C270.766 373.84 269.161 377.278 267.674 380.464C260.803 381.176 254.959 381.782 250.751 382.218C248.718 382.448 247.085 382.633 245.891 382.769C245.371 382.837 244.946 382.893 244.604 382.937C244.502 382.952 244.424 382.965 244.357 382.977C244.447 382.389 244.215 381.852 243.896 381.559Z" fill="white"/>
<path d="M335.212 356.495C335.669 356.451 335.999 356.057 335.987 355.605C335.996 355.604 336.003 355.604 336.013 355.604C336.646 355.556 337.489 355.493 338.546 355.413C340.809 355.216 343.986 354.939 347.906 354.598L347.969 354.593L348.02 354.551C350.826 352.231 354.127 349.503 357.812 346.457C363.778 345.886 370.508 345.242 377.627 344.561C377.672 344.355 377.72 344.149 377.763 343.943C370.541 344.656 363.716 345.33 357.677 345.927L357.593 345.935L357.53 345.988C353.869 349.075 350.591 351.838 347.8 354.19C343.918 354.607 340.769 354.945 338.524 355.186C337.471 355.312 336.632 355.412 336.001 355.487C335.991 355.488 335.985 355.489 335.976 355.49C335.901 355.044 335.501 354.721 335.044 354.766C334.566 354.812 334.217 355.237 334.263 355.715C334.31 356.191 334.735 356.541 335.212 356.495Z" fill="white"/>
<path d="M290.02 412.693C290.005 412.389 289.981 412.001 289.949 411.536C289.842 410.186 289.702 408.406 289.532 406.255C289.153 401.798 288.589 395.645 287.929 388.853C287.719 386.727 287.515 384.665 287.322 382.705L287.31 382.583L287.217 382.508C283.233 379.283 279.759 376.47 277.18 374.382C276.987 372.757 276.829 371.424 276.707 370.401C276.617 369.718 276.549 369.273 276.505 369.076C276.609 369.107 276.72 369.121 276.835 369.11C277.313 369.064 277.662 368.639 277.616 368.161C277.57 367.683 277.145 367.334 276.667 367.38C276.189 367.426 275.84 367.851 275.886 368.329C275.919 368.669 276.148 368.938 276.448 369.051C276.44 369.238 276.459 369.703 276.505 370.421C276.584 371.467 276.687 372.829 276.814 374.499L276.82 374.575L276.882 374.627C279.413 376.743 282.832 379.602 286.753 382.881C286.937 384.807 287.131 386.827 287.33 388.912C287.99 395.704 288.622 401.851 289.109 406.297C289.357 408.441 289.562 410.215 289.717 411.56C289.776 412.023 289.827 412.408 289.871 412.709C289.662 412.749 289.479 412.851 289.353 413.007C289.806 413.023 290.261 413.034 290.716 413.043C290.553 412.826 290.304 412.691 290.02 412.693Z" fill="white"/>
<path d="M249.585 284.331C249.631 284.809 250.056 285.158 250.534 285.112C251.012 285.066 251.361 284.641 251.315 284.163C251.269 283.685 250.844 283.336 250.366 283.382C249.888 283.428 249.538 283.853 249.585 284.331Z" fill="white"/>
<path d="M318.672 363.349C319.382 363.274 319.956 363.214 320.409 363.166C320.53 363.152 320.626 363.139 320.711 363.127C320.705 363.185 320.688 363.239 320.693 363.299C320.74 363.777 321.165 364.126 321.642 364.08C322.12 364.033 322.469 363.609 322.423 363.131C322.377 362.653 321.952 362.304 321.474 362.35C321.082 362.388 320.79 362.685 320.718 363.053C320.63 363.054 320.529 363.056 320.4 363.06C319.945 363.081 319.368 363.109 318.655 363.142C317.066 363.241 314.875 363.379 312.17 363.548C306.649 363.943 299.061 364.485 290.412 365.103C290.115 362.674 289.808 360.168 289.494 357.599C289.406 356.888 289.32 356.184 289.237 355.52C291.989 352.496 294.626 349.6 297.038 346.95L297.123 346.857L297.11 346.733C296.827 343.938 296.559 341.3 296.318 338.92L296.307 338.816L296.228 338.752C295.319 338.013 294.445 337.303 293.621 336.633L293.546 336.572L293.453 336.582C289.347 337.023 285.984 337.384 283.57 337.644C282.451 337.778 281.554 337.886 280.873 337.968C280.749 337.984 280.645 337.999 280.545 338.013C280.506 337.586 280.309 337.213 280.064 336.987C279.72 336.66 279.332 336.571 279.088 336.573C278.837 336.575 278.713 336.642 278.717 336.678C278.705 336.776 279.287 336.718 279.752 337.277C279.92 337.481 280.034 337.779 280.023 338.097C279.969 338.109 279.934 338.119 279.935 338.126C279.936 338.132 279.967 338.135 280.017 338.137C280.011 338.222 280.003 338.308 279.977 338.395C279.862 338.814 279.464 339.193 278.966 339.237C278.469 339.289 278.005 338.994 277.812 338.606C277.607 338.216 277.654 337.77 277.818 337.466C278.166 336.828 278.748 336.773 278.718 336.679C278.715 336.643 278.581 336.601 278.334 336.647C278.093 336.693 277.73 336.854 277.456 337.242C277.181 337.616 277.042 338.248 277.312 338.845C277.56 339.438 278.261 339.919 279.025 339.837C279.791 339.77 280.386 339.163 280.516 338.533C280.549 338.392 280.556 338.254 280.552 338.12C280.654 338.115 280.76 338.109 280.887 338.101C281.571 338.05 282.472 337.983 283.596 337.899C285.995 337.69 289.333 337.4 293.403 337.046C294.174 337.688 294.988 338.366 295.833 339.07C296.049 341.39 296.287 343.952 296.54 346.664C294.114 349.312 291.466 352.201 288.7 355.219L288.606 355.321L288.623 355.459C288.709 356.162 288.802 356.916 288.895 357.675C289.225 360.341 289.548 362.943 289.859 365.456L289.894 365.737L290.175 365.714C298.936 365.005 306.621 364.383 312.198 363.932C314.9 363.688 317.086 363.492 318.672 363.349Z" fill="white"/>
<path d="M305.68 360.595C305.209 354.911 304.714 348.934 304.211 342.863C304.141 342.024 304.072 341.187 304.003 340.354L303.993 340.231L303.9 340.15C301.074 337.718 298.279 335.311 295.525 332.941L295.428 332.857L295.3 332.87C276.669 334.693 259.154 336.408 243.558 337.934L243.491 337.941L243.436 337.978C231.463 346.015 220.868 353.127 212.015 359.07C212.067 359.196 212.117 359.324 212.169 359.45C221.042 353.538 231.667 346.459 243.675 338.458C259.22 336.957 276.67 335.272 295.229 333.48C297.92 335.798 300.651 338.15 303.411 340.527C303.477 341.32 303.543 342.115 303.609 342.913C304.122 349.089 304.628 355.171 305.108 360.943L305.133 361.242L305.432 361.216C331.425 358.952 355.14 356.886 374.587 355.192C374.641 355.041 374.694 354.89 374.748 354.738C355.335 356.384 331.649 358.392 305.68 360.595Z" fill="white"/>
<path d="M304.439 328.455C304.632 330.174 304.903 332.588 305.243 335.617L305.251 335.691L305.312 335.739C309.118 338.688 314.165 342.598 320.035 347.146L320.12 347.212L320.229 347.202C326.164 346.633 332.788 345.998 339.764 345.329C352.932 344.014 364.852 342.824 373.55 341.956C375.247 341.775 376.813 341.608 378.247 341.455C378.268 341.34 378.285 341.225 378.305 341.11C376.844 341.238 375.245 341.379 373.508 341.531C364.805 342.354 352.879 343.482 339.705 344.728C332.772 345.411 326.188 346.06 320.282 346.642C314.433 342.204 309.401 338.385 305.591 335.494C305.185 332.51 304.862 330.128 304.63 328.429C304.513 327.643 304.419 327.018 304.348 326.539C304.279 326.111 304.234 325.891 304.218 325.893C304.201 325.895 304.212 326.12 304.249 326.552C304.298 327.035 304.36 327.665 304.439 328.455Z" fill="white"/>
<path d="M321.046 305.933L320.966 305.939L320.901 305.985C319.141 307.224 317.446 308.417 315.825 309.558C309.362 310.231 303.855 310.804 299.878 311.217C297.975 311.435 296.443 311.61 295.312 311.74C294.875 311.798 294.517 311.846 294.21 311.887C294.147 311.511 293.973 311.183 293.751 310.978C293.408 310.651 293.019 310.562 292.775 310.564C292.524 310.566 292.4 310.633 292.404 310.669C292.392 310.767 292.974 310.709 293.439 311.268C293.587 311.448 293.687 311.703 293.703 311.979C293.698 311.982 293.688 311.985 293.689 311.987C293.689 311.989 293.699 311.99 293.705 311.992C293.711 312.121 293.704 312.253 293.664 312.386C293.549 312.805 293.151 313.184 292.653 313.228C292.156 313.28 291.692 312.985 291.499 312.597C291.294 312.207 291.34 311.761 291.504 311.457C291.852 310.819 292.435 310.764 292.404 310.67C292.401 310.634 292.266 310.592 292.02 310.638C291.779 310.684 291.416 310.845 291.142 311.233C290.867 311.607 290.728 312.239 290.998 312.836C291.246 313.429 291.947 313.91 292.711 313.828C293.477 313.761 294.072 313.154 294.202 312.524C294.246 312.337 294.247 312.158 294.229 311.985C294.537 311.966 294.894 311.944 295.33 311.917C296.465 311.826 298.003 311.703 299.912 311.55C303.91 311.189 309.449 310.688 315.953 310.1L316.024 310.094L316.085 310.052C317.709 308.922 319.41 307.739 321.173 306.512C323.893 306.3 326.732 306.078 329.652 305.85C339.856 305.009 349.092 304.247 355.868 303.689C359.165 303.388 361.859 303.143 363.809 302.965C364.649 302.876 365.33 302.805 365.872 302.748C365.962 303.176 366.349 303.482 366.794 303.439C367.272 303.393 367.621 302.968 367.575 302.49C367.529 302.012 367.104 301.662 366.626 301.709C366.16 301.754 365.823 302.16 365.849 302.623C365.306 302.652 364.627 302.688 363.791 302.732C361.838 302.863 359.139 303.044 355.835 303.265C349.056 303.778 339.815 304.477 329.606 305.25C326.655 305.485 323.788 305.714 321.046 305.933Z" fill="white"/>
<path d="M277.72 393.096C277.483 390.683 277.252 388.336 277.031 386.09L277.017 385.946L276.895 385.87C274.992 384.682 273.175 383.548 271.472 382.485L271.392 382.435L271.301 382.445C266.237 382.982 261.946 383.437 258.823 383.768C257.37 383.941 256.191 384.081 255.294 384.187C255.141 384.207 255.015 384.225 254.889 384.242C254.809 383.802 254.414 383.485 253.961 383.53C253.483 383.576 253.134 384.001 253.18 384.479C253.227 384.957 253.651 385.307 254.129 385.26C254.582 385.216 254.908 384.829 254.903 384.382C255.03 384.375 255.157 384.368 255.311 384.358C256.212 384.29 257.396 384.2 258.855 384.09C261.964 383.815 266.229 383.438 271.261 382.993C272.898 384.031 274.64 385.135 276.462 386.29C276.674 388.495 276.895 390.792 277.122 393.155C277.842 400.259 278.502 406.778 279.033 412.024C279.185 412.048 279.338 412.067 279.49 412.09C278.998 406.821 278.386 400.254 277.72 393.096Z" fill="white"/>
<path d="M286.113 407.659L286.192 407.562L286.18 407.438C285.263 398.131 284.4 389.373 283.644 381.699L283.633 381.588L283.548 381.518C280.807 379.278 278.26 377.197 275.92 375.285C275.239 368.718 274.682 363.348 274.29 359.564C274.084 357.725 273.922 356.275 273.806 355.236C273.749 354.785 273.703 354.425 273.666 354.137C273.726 354.144 273.784 354.162 273.847 354.155C274.325 354.108 274.674 353.684 274.628 353.206C274.582 352.728 274.157 352.379 273.679 352.425C273.201 352.471 272.852 352.896 272.898 353.374C272.936 353.764 273.23 354.056 273.595 354.129C273.615 354.421 273.64 354.789 273.671 355.248C273.757 356.29 273.877 357.744 274.03 359.588C274.376 363.395 274.866 368.805 275.467 375.425L275.476 375.52L275.551 375.582C277.873 377.506 280.404 379.603 283.124 381.857C283.854 389.472 284.686 398.149 285.57 407.369C285.293 407.706 285.013 408.046 284.731 408.389C283.612 409.75 282.506 411.095 281.462 412.364C281.698 412.394 281.934 412.42 282.171 412.448C283.144 411.266 284.162 410.029 285.197 408.772C285.503 408.4 285.811 408.026 286.113 407.659Z" fill="white"/>
<path d="M365.919 369.202C354.755 370.265 339.406 371.725 322.453 373.339C319.209 373.656 316.023 373.967 312.927 374.269L312.722 374.289L312.668 374.487C311.609 378.402 310.589 382.173 309.62 385.752L309.606 385.803L309.611 385.854C310.591 395.563 311.455 404.112 312.134 410.839C312.258 410.81 312.382 410.779 312.506 410.75C311.879 404.039 311.083 395.521 310.179 385.852C311.136 382.351 312.143 378.665 313.188 374.842C316.221 374.548 319.336 374.247 322.511 373.939C339.458 372.257 354.8 370.734 365.96 369.626C366.666 369.552 367.354 369.48 368.025 369.41C368.105 369.271 368.183 369.131 368.262 368.991C367.502 369.06 366.725 369.13 365.919 369.202Z" fill="white"/>
<path d="M311.189 334.261L311.202 334.397L311.314 334.477C312.325 335.195 313.354 335.926 314.394 336.665C317.395 338.791 320.304 340.853 323.025 342.781L323.115 342.844L323.223 342.833C332.105 341.927 339.821 341.14 345.394 340.571C348.096 340.272 350.275 340.031 351.848 339.857C352.431 339.784 352.916 339.723 353.32 339.672C353.395 340.118 353.795 340.44 354.252 340.396C354.73 340.349 355.079 339.925 355.033 339.447C354.986 338.969 354.562 338.62 354.084 338.666C353.627 338.71 353.297 339.104 353.309 339.556C352.903 339.584 352.415 339.618 351.829 339.658C350.252 339.79 348.067 339.974 345.358 340.201C339.803 340.714 332.119 341.424 323.275 342.242C320.583 340.327 317.708 338.282 314.743 336.172C313.74 335.461 312.749 334.758 311.773 334.065C311.106 327.373 310.485 321.15 309.951 315.789L309.926 315.534L309.673 315.56C303.904 316.165 299.095 316.67 295.654 317.031C294.018 317.219 292.709 317.37 291.745 317.481C291.552 317.507 291.378 317.53 291.216 317.552C291.144 317.435 291.061 317.331 290.971 317.249C290.628 316.922 290.239 316.833 289.995 316.835C289.744 316.837 289.62 316.904 289.624 316.94C289.612 317.038 290.194 316.98 290.659 317.539C290.679 317.563 290.693 317.594 290.711 317.62C290.486 317.655 290.368 317.679 290.369 317.692C290.37 317.705 290.492 317.707 290.726 317.697C290.736 317.696 290.749 317.696 290.759 317.695C290.912 317.958 290.988 318.306 290.884 318.656C290.769 319.075 290.371 319.454 289.873 319.498C289.376 319.55 288.912 319.255 288.719 318.866C288.514 318.476 288.561 318.03 288.724 317.726C289.072 317.088 289.655 317.033 289.624 316.939C289.622 316.903 289.487 316.861 289.24 316.907C289 316.953 288.636 317.114 288.362 317.502C288.087 317.876 287.948 318.508 288.218 319.105C288.467 319.698 289.167 320.179 289.932 320.097C290.698 320.03 291.293 319.423 291.423 318.793C291.522 318.372 291.434 317.978 291.27 317.663C291.422 317.654 291.581 317.644 291.76 317.633C292.728 317.556 294.041 317.452 295.683 317.322C299.078 317.018 303.807 316.595 309.469 316.088C309.974 321.436 310.559 327.616 311.189 334.261Z" fill="white"/>
<path d="M377.829 322.259C375.18 320.078 372.411 317.798 369.587 315.472L369.491 315.393L369.367 315.405C369.137 315.427 368.887 315.452 368.637 315.476C355.557 316.764 343.334 317.967 333.025 318.982C331.034 317.855 329.146 316.786 327.348 315.768L327.282 315.73L327.207 315.738C324.559 316.006 322.12 316.253 319.857 316.482L319.77 316.491L319.716 316.557C316.736 320.225 314.259 323.274 312.341 325.636L312.305 325.68L312.311 325.734C312.571 328.124 312.772 329.973 312.913 331.267C312.986 331.863 313.043 332.331 313.086 332.685C313.129 333.003 313.156 333.164 313.168 333.162C313.18 333.161 313.176 332.998 313.157 332.678C313.131 332.323 313.097 331.852 313.053 331.253C312.943 329.966 312.786 328.131 312.583 325.764C314.514 323.447 316.998 320.466 319.981 316.887C322.201 316.68 324.588 316.458 327.177 316.216C328.972 317.246 330.853 318.327 332.841 319.468L332.911 319.508L332.993 319.5C343.321 318.509 355.578 317.333 368.694 316.074C368.902 316.054 369.104 316.034 369.3 316.015C372.125 318.337 374.897 320.617 377.545 322.794L377.64 322.873L377.762 322.861C378.359 322.801 378.948 322.743 379.54 322.684C379.532 322.489 379.529 322.294 379.52 322.098C378.958 322.152 378.397 322.205 377.829 322.259Z" fill="white"/>
<path d="M264.467 249.045L264.564 249.125L264.595 249.15C267.598 251.617 270.519 254.017 273.306 256.307C274.16 264.801 274.925 272.413 275.538 278.51L275.55 278.632L275.658 278.685C278.861 280.261 281.572 281.595 283.745 282.665L283.785 282.685L283.827 282.68C285.949 282.443 287.613 282.258 288.803 282.125C289.333 282.058 289.756 282.004 290.09 281.961C290.379 281.92 290.526 281.892 290.525 281.878C290.524 281.864 290.374 281.865 290.082 281.881C289.746 281.904 289.32 281.932 288.787 281.968C287.602 282.066 285.948 282.203 283.842 282.378C281.717 281.291 279.075 279.94 275.963 278.348C275.389 272.238 274.674 264.624 273.877 256.129L273.866 256.008L273.772 255.93C270.98 253.63 268.052 251.217 265.043 248.737C264.869 246.996 264.698 245.277 264.529 243.582C264.341 243.646 264.156 243.713 263.969 243.778C264.129 245.468 264.291 247.183 264.456 248.919L264.467 249.045Z" fill="white"/>
<path d="M278.877 255.506L278.803 255.596L278.815 255.71C279.442 261.706 279.978 266.832 280.367 270.551C280.571 272.309 280.736 273.731 280.859 274.793C280.983 275.777 281.065 276.306 281.096 276.303C281.127 276.3 281.106 275.765 281.038 274.775C280.954 273.709 280.842 272.282 280.704 270.518C280.372 266.818 279.914 261.726 279.379 255.772C281.879 252.745 284.612 249.435 287.481 245.961C288.972 244.146 290.427 242.374 291.83 240.665L291.908 240.57L291.896 240.449C291.845 239.948 291.795 239.463 291.744 238.97C291.552 238.972 291.36 238.972 291.168 238.975C291.211 239.444 291.253 239.907 291.297 240.384C289.914 242.062 288.483 243.798 287.015 245.579C284.133 249.095 281.386 252.446 278.877 255.506Z" fill="white"/>
<path d="M288.845 255.151C288.942 254.995 289.003 254.814 288.984 254.616C288.938 254.138 288.513 253.789 288.035 253.835C287.557 253.881 287.208 254.306 287.254 254.784C287.3 255.262 287.725 255.611 288.203 255.565C288.4 255.546 288.566 255.451 288.701 255.326C288.935 255.545 289.234 255.816 289.591 256.133C290.539 256.974 291.893 258.138 293.492 259.482C293.609 260.75 293.734 262.107 293.865 263.527C294.172 266.682 294.483 269.535 294.738 271.598C294.993 273.661 295.193 274.932 295.276 274.924C295.359 274.916 295.309 273.63 295.163 271.557C295.016 269.484 294.772 266.624 294.465 263.469C294.316 262.009 294.173 260.613 294.04 259.315L294.028 259.197L293.939 259.125C292.272 257.782 290.837 256.651 289.809 255.868C289.428 255.579 289.105 255.338 288.845 255.151Z" fill="white"/>
<path d="M299.094 277.623L299.103 277.719L299.171 277.789C300.647 279.325 302.154 280.894 303.695 282.497L303.791 282.597L303.929 282.584C312.252 281.779 321.15 280.919 330.389 280.026C335.063 279.57 339.65 279.123 344.034 278.696L344.164 278.683L344.242 278.58C347.838 273.849 351.308 269.285 354.6 264.956C354.468 264.823 354.339 264.687 354.207 264.555C350.915 268.864 347.445 273.408 343.848 278.117C339.503 278.538 334.96 278.978 330.332 279.427C321.145 280.325 312.296 281.19 304.013 282C302.525 280.459 301.068 278.951 299.64 277.472C298.081 261.889 296.752 248.613 295.809 239.192C295.803 239.133 295.797 239.078 295.791 239.02C295.678 239.016 295.565 239.009 295.452 239.006C295.459 239.08 295.465 239.15 295.472 239.225C296.363 248.671 297.619 261.989 299.094 277.623Z" fill="white"/>
<path d="M310.167 287.045C308.609 287.173 306.488 287.348 303.889 287.562C298.562 288.055 291.312 288.726 283.172 289.48C283.085 288.581 282.994 287.642 282.902 286.687L282.881 286.468L282.866 286.312L282.73 286.235C279.898 284.633 277.168 283.088 274.64 281.658L274.559 281.612L274.469 281.621C267.802 282.312 262.038 282.91 257.846 283.345C255.853 283.574 254.238 283.759 253.037 283.897C252.526 283.966 252.104 284.022 251.755 284.069C251.464 284.114 251.314 284.145 251.315 284.162C251.317 284.179 251.47 284.181 251.764 284.168C252.115 284.147 252.541 284.121 253.055 284.09C254.26 283.994 255.881 283.865 257.88 283.705C262.058 283.326 267.797 282.805 274.432 282.203C276.893 283.604 279.545 285.115 282.294 286.681L282.3 286.745C282.403 287.803 282.506 288.85 282.602 289.835L282.631 290.135L282.93 290.105C291.186 289.264 298.539 288.515 303.927 287.967C306.518 287.677 308.633 287.44 310.187 287.266C310.869 287.178 311.427 287.106 311.876 287.048C312.261 286.992 312.461 286.953 312.459 286.934C312.457 286.915 312.253 286.915 311.864 286.934C311.414 286.963 310.853 287 310.167 287.045Z" fill="white"/>
<path d="M234.234 261.392C236.148 263.299 238.013 265.158 239.767 266.905L239.865 267.003L240.002 266.989C245.668 266.411 250.776 265.89 254.959 265.463C255.311 268.681 255.601 271.325 255.812 273.253C255.902 273.974 255.977 274.578 256.039 275.083C255.996 275.102 255.962 275.122 255.964 275.138C255.961 275.162 255.995 275.177 256.052 275.193C256.062 275.273 256.072 275.357 256.082 275.432C256.151 275.93 256.197 276.19 256.219 276.188C256.24 276.186 256.236 275.921 256.208 275.419C256.204 275.361 256.199 275.294 256.195 275.232C256.405 275.29 256.722 275.403 256.999 275.736C257.218 276.002 257.35 276.431 257.224 276.854C257.109 277.272 256.711 277.652 256.213 277.696C255.716 277.748 255.252 277.453 255.059 277.065C254.854 276.675 254.9 276.229 255.064 275.925C255.412 275.287 255.994 275.232 255.964 275.138C255.961 275.101 255.826 275.06 255.58 275.106C255.34 275.152 254.976 275.313 254.702 275.701C254.427 276.075 254.288 276.707 254.558 277.304C254.807 277.897 255.507 278.378 256.271 278.296C257.037 278.23 257.632 277.622 257.762 276.992C257.912 276.354 257.653 275.761 257.312 275.446C256.969 275.119 256.58 275.03 256.336 275.032C256.268 275.033 256.233 275.045 256.183 275.054C256.147 274.549 256.105 273.946 256.055 273.229C255.887 271.252 255.656 268.527 255.373 265.2L255.354 264.982L255.133 265.003C250.942 265.39 245.795 265.866 240.084 266.394C238.37 264.678 236.551 262.859 234.685 260.991C234.534 261.126 234.382 261.258 234.234 261.392Z" fill="white"/>
</g>
<path d="M83.188 205.9C83.188 205.9 96.738 194.981 141.664 218.703C141.664 218.703 186.868 238.38 171.76 257.177C158.902 273.174 132.604 264.076 118.105 257.28C110.488 253.71 101.196 247.712 94.741 242.318C83.17 232.647 73.57 218.117 83.188 205.9Z" fill="#39D24E"/>
<path opacity="0.4" d="M83.188 205.9C83.188 205.9 96.738 194.981 141.664 218.703C141.664 218.703 186.868 238.38 171.76 257.177C158.902 273.174 132.604 264.076 118.105 257.28C110.488 253.71 101.196 247.712 94.741 242.318C83.17 232.647 73.57 218.117 83.188 205.9Z" fill="black"/>
<path d="M84.2248 205.102C84.2248 205.102 100.122 188.572 145.048 212.294C145.048 212.294 189.155 237.419 172.374 254.738C160.866 266.615 135.988 257.667 121.489 250.87C113.872 247.3 103.26 241.316 96.8048 235.922C85.2348 226.252 76.6968 213.959 84.2248 205.102Z" fill="#39D24E"/>
<path opacity="0.2" d="M136.143 215.931C155.768 226.293 168.399 240.901 164.355 248.559C160.312 256.217 141.125 254.024 121.5 243.661C101.875 233.299 89.2442 218.691 93.2872 211.033C97.3322 203.376 116.519 205.568 136.143 215.931Z" fill="white"/>
<path d="M153.365 239.246L147.296 235.757C147.296 235.757 145.133 231.006 140.095 228.844C135.057 226.682 132.347 227.771 132.347 227.771C132.347 227.771 132.249 222.834 125.366 219.561C116.334 215.266 114.81 218.06 114.81 218.06L107.392 213.796L105.401 217.26L111.716 220.89L111.134 221.902L104.636 218.166L102.542 221.809L109.1 225.299L108.149 226.954L140.825 245.737L142.235 243.285L148.672 246.985L150.469 243.858L144.461 240.404L145.377 238.81L151.367 242.253L153.365 239.246ZM124.529 231.338L116.41 226.671C116.41 226.671 118.606 221.073 123.71 223.496C128.814 225.919 124.529 231.338 124.529 231.338ZM137.85 238.647L130.87 234.635C130.87 234.635 131.874 229.355 136.736 231.568C142.327 234.112 137.85 238.647 137.85 238.647Z" fill="#39D24E"/>
<path opacity="0.4" d="M153.365 239.246L147.296 235.757C147.296 235.757 145.133 231.006 140.095 228.844C135.057 226.682 132.347 227.771 132.347 227.771C132.347 227.771 132.249 222.834 125.366 219.561C116.334 215.266 114.81 218.06 114.81 218.06L107.392 213.796L105.401 217.26L111.716 220.89L111.134 221.902L104.636 218.166L102.542 221.809L109.1 225.299L108.149 226.954L140.825 245.737L142.235 243.285L148.672 246.985L150.469 243.858L144.461 240.404L145.377 238.81L151.367 242.253L153.365 239.246ZM124.529 231.338L116.41 226.671C116.41 226.671 118.606 221.073 123.71 223.496C128.814 225.919 124.529 231.338 124.529 231.338ZM137.85 238.647L130.87 234.635C130.87 234.635 131.874 229.355 136.736 231.568C142.327 234.112 137.85 238.647 137.85 238.647Z" fill="black"/>
<path d="M154.861 236.602L148.792 233.113C148.792 233.113 146.629 228.362 141.591 226.201C136.553 224.039 133.843 225.128 133.843 225.128C133.843 225.128 133.745 220.192 126.862 216.918C117.83 212.623 116.306 215.417 116.306 215.417L108.888 211.153L106.897 214.617L113.212 218.247L112.63 219.258L106.132 215.522L104.038 219.165L110.596 222.655L109.645 224.31L142.321 243.093L143.731 240.641L150.168 244.341L151.965 241.214L145.957 237.76L146.873 236.166L153.065 239.725L154.861 236.602ZM126.024 228.694L117.905 224.027C117.905 224.027 120.101 218.429 125.205 220.852C130.31 223.276 126.024 228.694 126.024 228.694ZM139.346 236.004L132.366 231.992C132.366 231.992 133.37 226.712 138.232 228.925C143.822 231.469 139.346 236.004 139.346 236.004Z" fill="#39D24E"/>
<path d="M86.1898 203.624C86.1648 203.576 86.4908 203.354 87.1408 202.973C87.4628 202.776 87.8718 202.554 88.3708 202.319C88.8638 202.073 89.4368 201.797 90.1038 201.535C92.7388 200.428 96.7768 199.222 101.911 198.847C104.473 198.659 107.298 198.677 110.306 198.963C113.313 199.26 116.499 199.837 119.777 200.697C126.35 202.398 133.243 205.275 140.237 208.639C154.382 215.305 165.454 224.72 171.438 233.083C174.42 237.282 175.906 241.349 176.139 244.237C176.172 244.595 176.204 244.935 176.234 245.255C176.23 245.573 176.227 245.873 176.224 246.153C176.223 246.708 176.197 247.175 176.121 247.549C176.005 248.298 175.919 248.682 175.865 248.674C175.701 248.66 175.991 247.08 175.537 244.322C175.128 241.563 173.555 237.737 170.543 233.731C164.488 225.748 153.493 216.607 139.561 210.048C132.602 206.7 125.825 203.83 119.403 202.087C116.198 201.205 113.095 200.595 110.167 200.25C107.236 199.916 104.481 199.835 101.976 199.949C96.9558 200.175 92.9728 201.188 90.3168 202.103C87.6538 203.023 86.2518 203.745 86.1898 203.624Z" fill="#2DB540"/>
<path opacity="0.4" d="M164.834 247.368C164.834 247.368 171.188 231.803 137.507 213.503C103.827 195.203 93.2891 211.033 93.2891 211.033C93.2891 211.033 102.031 197.956 137.112 216.363C167.654 232.388 164.834 247.368 164.834 247.368Z" fill="black"/>
<path d="M156.234 265.705C156.039 265.662 156.348 264.43 156.869 262.998C157.393 261.56 157.938 260.441 158.073 260.491C158.208 260.542 157.881 261.741 157.359 263.176C156.837 264.612 156.318 265.733 156.234 265.705Z" fill="#263238"/>
<path d="M164.537 263.14C164.34 263.103 164.571 262.094 164.991 260.946C165.415 259.79 165.88 258.9 166.014 258.952C166.149 259.003 165.903 259.974 165.48 261.126C165.059 262.279 164.621 263.169 164.537 263.14Z" fill="#263238"/>
<path d="M148.872 266.04C148.736 265.992 149.079 264.669 149.638 263.085C150.197 261.501 150.759 260.255 150.895 260.303C151.031 260.351 150.688 261.674 150.129 263.258C149.57 264.843 149.007 266.088 148.872 266.04Z" fill="#263238"/>
<path d="M141.716 265.212C141.58 265.164 141.956 263.749 142.554 262.052C143.153 260.354 143.748 259.017 143.883 259.065C144.018 259.113 143.643 260.527 143.045 262.225C142.447 263.923 141.852 265.26 141.716 265.212Z" fill="#263238"/>
<path d="M133.937 263.1C133.801 263.052 134.177 261.637 134.775 259.94C135.374 258.242 135.969 256.905 136.104 256.953C136.24 257.001 135.864 258.415 135.266 260.113C134.668 261.811 134.072 263.148 133.937 263.1Z" fill="#263238"/>
<path d="M126.747 260.54C126.611 260.492 126.987 259.077 127.585 257.38C128.184 255.682 128.779 254.345 128.914 254.393C129.05 254.441 128.674 255.855 128.076 257.553C127.477 259.25 126.882 260.588 126.747 260.54Z" fill="#263238"/>
<path d="M119.556 257.98C119.42 257.932 119.796 256.517 120.394 254.82C120.993 253.122 121.588 251.785 121.723 251.833C121.859 251.881 121.483 253.295 120.885 254.993C120.287 256.69 119.692 258.027 119.556 257.98Z" fill="#263238"/>
<path d="M112.803 254.179C112.667 254.131 113.043 252.716 113.641 251.019C114.24 249.321 114.835 247.984 114.97 248.032C115.106 248.08 114.73 249.494 114.132 251.192C113.534 252.89 112.939 254.227 112.803 254.179Z" fill="#263238"/>
<path d="M106.111 250.207C105.975 250.159 106.351 248.744 106.949 247.047C107.548 245.349 108.143 244.012 108.278 244.06C108.414 244.108 108.038 245.522 107.44 247.22C106.842 248.918 106.247 250.255 106.111 250.207Z" fill="#263238"/>
<path d="M99.4678 246.061C99.3318 246.013 99.7078 244.598 100.306 242.901C100.905 241.203 101.5 239.866 101.635 239.914C101.771 239.962 101.395 241.376 100.797 243.074C100.198 244.771 99.6028 246.108 99.4678 246.061Z" fill="#263238"/>
<path d="M93.3872 241.347C93.2512 241.299 93.6272 239.884 94.2252 238.187C94.8242 236.489 95.4192 235.152 95.5542 235.2C95.6902 235.248 95.3142 236.662 94.7162 238.36C94.1182 240.058 93.5232 241.395 93.3872 241.347Z" fill="#263238"/>
<path d="M87.5268 235.538C87.3908 235.49 87.7668 234.075 88.3648 232.378C88.9638 230.68 89.5588 229.343 89.6938 229.391C89.8298 229.439 89.4538 230.853 88.8558 232.551C88.2578 234.249 87.6618 235.586 87.5268 235.538Z" fill="#263238"/>
<path d="M83.0911 228.695C82.9551 228.647 83.2781 227.382 83.8121 225.868C84.3461 224.354 84.8881 223.167 85.0241 223.214C85.1601 223.262 84.8371 224.527 84.3031 226.041C83.7691 227.555 83.2261 228.743 83.0911 228.695Z" fill="#263238"/>
<path d="M79.8509 221.555C79.7149 221.507 80.0379 220.242 80.5709 218.73C81.1039 217.217 81.6469 216.03 81.7819 216.078C81.9179 216.126 81.5949 217.39 81.0619 218.903C80.5289 220.415 79.9869 221.603 79.8509 221.555Z" fill="#263238"/>
<path d="M123.757 220.772C123.572 221.17 122.819 221.217 122.015 221.298C121.208 221.352 120.458 221.431 120.21 221.07C120.1 220.89 120.181 220.601 120.477 220.32C120.768 220.041 121.281 219.793 121.884 219.742C122.487 219.692 123.034 219.851 123.368 220.077C123.707 220.304 123.836 220.576 123.757 220.772Z" fill="#2DB540"/>
<path d="M138.042 229.019C137.784 229.375 136.971 229.232 136.072 229.175C135.175 229.086 134.35 229.096 134.153 228.703C134.069 228.51 134.209 228.225 134.578 227.981C134.942 227.738 135.539 227.564 136.199 227.617C136.858 227.671 137.42 227.939 137.74 228.237C138.064 228.538 138.157 228.841 138.042 229.019Z" fill="#2DB540"/>
<path d="M127.708 217.35C127.653 217.443 127.348 217.392 126.849 217.222C126.248 216.998 125.566 216.744 124.793 216.455C123.93 216.15 122.903 215.793 121.752 215.563C120.612 215.333 119.316 215.181 118.106 215.456C117.846 215.509 117.598 215.588 117.375 215.684C117.164 215.761 116.906 215.922 116.839 215.973L116.358 216.341L115.924 216.084C111.738 213.603 108.697 211.487 108.889 211.153C109.081 210.819 112.44 212.381 116.69 214.75L115.775 214.861C116.148 214.537 116.415 214.411 116.755 214.256C117.08 214.111 117.417 214.004 117.758 213.932C119.354 213.58 120.837 213.832 122.088 214.163C123.35 214.502 124.398 214.995 125.246 215.447C126.087 215.914 126.733 216.339 127.143 216.689C127.561 217.028 127.762 217.257 127.708 217.35Z" fill="#2DB540"/>
<defs>
<linearGradient id="paint0_linear_311_9456" x1="292.25" y1="0" x2="292.25" y2="465.395" gradientUnits="userSpaceOnUse">
<stop offset="0.09" stop-color="#324B86" stop-opacity="0"/>
<stop offset="1" stop-color="#0C1220"/>
</linearGradient>
</defs>
</svg>
