<svg width="100" height="100" viewBox="0 0 100 100" fill="none" xmlns="http://www.w3.org/2000/svg">
<path fill-rule="evenodd" clip-rule="evenodd" d="M28.674 27.5721C28.9156 27.6896 29.1228 27.8674 29.2756 28.0884C29.4284 28.3093 29.5217 28.5659 29.5464 28.8334C29.5711 29.1009 29.5265 29.3703 29.4167 29.6155C29.307 29.8607 29.1359 30.0735 28.9199 30.2333L22.6074 35.5057C22.2894 35.7648 21.8822 35.8882 21.4738 35.8492C21.0655 35.8102 20.6889 35.612 20.4257 35.2974C20.1625 34.9828 20.0337 34.5772 20.0674 34.1684C20.101 33.7596 20.2943 33.3805 20.6055 33.1131L23.3463 30.8239C20.5413 31.1686 17.7848 31.8322 15.1303 32.802C10.9754 34.3209 7.1627 36.5581 3.84199 39.3637C3.52569 39.6253 3.11897 39.7517 2.7101 39.7153C2.30123 39.6789 1.9232 39.4828 1.65803 39.1695C1.39287 38.8561 1.26197 38.4508 1.29374 38.0416C1.32551 37.6323 1.51739 37.2521 1.82774 36.9834C5.4592 33.9135 9.60251 31.5065 14.0682 29.8725C16.7742 28.8832 19.5783 28.1866 22.4326 27.7944L19.1387 26.045C18.377 25.6405 18.0873 24.695 18.4916 23.9331C18.8959 23.1711 19.8416 22.8815 20.6033 23.286L28.674 27.5721ZM94.3291 93.1602C94.1397 93.5277 93.8121 93.8049 93.4184 93.9308C93.0246 94.0567 92.597 94.0211 92.2295 93.8317C91.862 93.6423 91.5848 93.3147 91.4589 92.921C91.333 92.5272 91.3686 92.0995 91.558 91.7321L93.3127 88.3375C93.1184 88.4278 92.9225 88.5159 92.7254 88.602C90.8736 89.4114 88.901 90.0391 86.8256 90.4581C83.0459 91.2211 79.2928 91.212 75.7297 90.5395C72.0535 89.8443 68.5465 88.4445 65.402 86.4172C65.2296 86.3066 65.0808 86.1632 64.9639 85.995C64.847 85.8269 64.7644 85.6374 64.7207 85.4373C64.6771 85.2373 64.6733 85.0305 64.7096 84.829C64.7458 84.6275 64.8214 84.4351 64.932 84.2627C65.0426 84.0904 65.1861 83.9416 65.3542 83.8247C65.5224 83.7078 65.7119 83.6252 65.9119 83.5815C66.112 83.5379 66.3187 83.5341 66.5202 83.5703C66.7218 83.6066 66.9142 83.6822 67.0865 83.7928C69.8727 85.5881 72.9996 86.852 76.3035 87.4756C79.4922 88.0774 82.8451 88.0868 86.2152 87.4063C88.2995 86.9858 90.3243 86.3108 92.2439 85.3965L88.7408 85.0789C88.3307 85.0404 87.9526 84.8409 87.6893 84.5241C87.426 84.2073 87.299 83.799 87.3362 83.3888C87.3733 82.9786 87.5715 82.5998 87.8874 82.3354C88.2033 82.071 88.6111 81.9426 89.0215 81.9784L97.201 82.7198C97.472 82.7262 97.7367 82.8031 97.969 82.9429C98.2013 83.0827 98.3931 83.2805 98.5257 83.5171C98.6582 83.7536 98.7269 84.0205 98.7249 84.2916C98.7229 84.5627 98.6503 84.8286 98.5143 85.0631L94.3291 93.1602ZM90.5147 13.8838C90.8496 14.1196 91.0784 14.4778 91.1514 14.8809C91.2245 15.284 91.136 15.6996 90.9051 16.038C90.6742 16.3763 90.3194 16.6103 89.9174 16.6892C89.5154 16.7681 89.0985 16.6856 88.7568 16.4596L85.5121 14.252C85.6936 14.8245 85.8573 15.4025 86.0029 15.9852C87.0793 20.2995 87.1692 24.8011 86.2658 29.1549C85.8579 31.1267 85.2479 33.0512 84.4453 34.8979C84.3636 35.0855 84.2457 35.2551 84.0984 35.3971C83.951 35.5391 83.7772 35.6507 83.5868 35.7255C83.3964 35.8003 83.193 35.8368 82.9885 35.8331C82.7839 35.8293 82.5821 35.7853 82.3945 35.7036C82.207 35.6218 82.0374 35.5039 81.8954 35.3566C81.7534 35.2093 81.6418 35.0355 81.567 34.845C81.4922 34.6546 81.4556 34.4513 81.4593 34.2467C81.4631 34.0422 81.5071 33.8403 81.5889 33.6528C82.3051 32.0064 82.8497 30.2905 83.2141 28.5325C83.5705 26.811 83.7578 25.012 83.7578 23.1528C83.7578 20.935 83.4865 18.7877 82.9756 16.7422C82.8425 16.2096 82.6929 15.6812 82.527 15.1579L81.8211 18.4577C81.7786 18.658 81.6971 18.8481 81.5811 19.017C81.4652 19.1858 81.3171 19.3302 81.1454 19.4419C80.9737 19.5535 80.7816 19.6303 80.5802 19.6677C80.3789 19.7051 80.1721 19.7025 79.9717 19.66C79.7713 19.6175 79.5812 19.536 79.4124 19.4201C79.2435 19.3041 79.0991 19.1561 78.9875 18.9843C78.8758 18.8126 78.7991 18.6205 78.7617 18.4192C78.7242 18.2178 78.7268 18.011 78.7693 17.8106L80.509 9.677C80.5514 9.47811 80.6323 9.28942 80.7471 9.12153C80.9802 8.78 81.3394 8.54504 81.7458 8.46835C82.1521 8.39165 82.5723 8.47949 82.9139 8.71255L90.5147 13.8838ZM81.0943 52.3969C76.5447 52.3969 72.8572 56.0844 72.8572 60.6342C72.8572 65.1838 76.5447 68.8713 81.0943 68.8713C85.6439 68.8713 89.3316 65.1838 89.3316 60.6342C89.3316 56.0844 85.6441 52.3969 81.0943 52.3969ZM84.5691 46.0756C86.1097 46.4426 87.5818 47.0529 88.9301 47.8836L91.7639 46.625L95.1037 49.9649L93.8455 52.7977C94.6764 54.1463 95.2868 55.6188 95.6537 57.1598L98.5449 58.2725V62.9957L95.6531 64.1088C95.2862 65.6494 94.6759 67.1215 93.8451 68.4698L95.1037 71.3036L91.7639 74.6434L88.9311 73.3852C87.5825 74.2161 86.1099 74.8265 84.5689 75.1934L83.4561 78.0844H78.7328L77.6197 75.1926C76.0792 74.8257 74.607 74.2154 73.2588 73.3846L70.425 74.6432L67.0852 71.3034L68.3434 68.4706C67.5125 67.1219 66.9021 65.6494 66.5352 64.1084L63.6441 62.9955V58.2723L66.5357 57.1592C66.9027 55.6186 67.513 54.1464 68.3438 52.7981L67.0854 49.9647L70.4252 46.6248L73.259 47.8834C74.6073 47.0528 76.0794 46.4424 77.6199 46.0754L78.733 43.1836H83.4563L84.5691 46.0756Z" fill="white"/>
<path fill-rule="evenodd" clip-rule="evenodd" d="M33.2313 46.0188C35.5548 46.5723 37.7752 47.4929 39.8088 48.7457L44.083 46.8475L49.1205 51.8848L47.2229 56.1576C48.476 58.1918 49.3967 60.4128 49.9502 62.7369L54.3107 64.4155V71.5395L49.949 73.2184C49.3955 75.5419 48.4749 77.7623 47.2221 79.7959L49.1203 84.0699L44.0828 89.1076L39.81 87.21C37.7759 88.4632 35.5548 89.3839 33.2307 89.9373L31.5523 94.2981H24.4285L22.7496 89.9363C20.426 89.3829 18.2056 88.4623 16.1721 87.2094L11.8979 89.1076L6.86035 84.0701L8.75801 79.7973C7.50482 77.7632 6.58414 75.5422 6.03066 73.218L1.66992 71.5395V64.4155L6.03125 62.7367C6.58464 60.413 7.50519 58.1924 8.7582 56.1586L6.86016 51.8848L11.8977 46.8473L16.1719 48.7455C18.2055 47.4927 20.4259 46.5721 22.7494 46.0186L24.4283 41.6569H31.5523L33.2313 46.0188ZM28 82C35.732 82 42 75.732 42 68C42 60.268 35.732 54 28 54C20.268 54 14 60.268 14 68C14 75.732 20.268 82 28 82Z" fill="#39D24E"/>
<path fill-rule="evenodd" clip-rule="evenodd" d="M60.8723 8.59395C62.4128 8.96087 63.885 9.57121 65.2332 10.402L68.067 9.14336L71.4068 12.4832L70.1486 15.316C70.9796 16.6646 71.59 18.1372 71.9568 19.6781L74.8478 20.791V25.5143L71.9561 26.6273C71.5891 28.1679 70.9788 29.64 70.1482 30.9883L71.4068 33.8221L68.067 37.1619L65.2342 35.9035C63.8856 36.7345 62.413 37.3449 60.8721 37.7117L59.7592 40.6029H55.0359L53.9229 37.7111C52.3823 37.3442 50.9102 36.7339 49.5619 35.9031L46.7281 37.1617L43.3883 33.8219L44.6465 30.9891C43.8156 29.6404 43.2052 28.1679 42.8383 26.627L39.9473 25.5143V20.791L42.8389 19.6779C43.2058 18.1373 43.8161 16.665 44.6469 15.3166L43.3885 12.4832L46.7283 9.14336L49.5621 10.402C50.9104 9.57137 52.3826 8.96104 53.923 8.59395L55.0361 5.70215H59.7594L60.8723 8.59395ZM57.5 32C62.1944 32 66 28.1944 66 23.5C66 18.8056 62.1944 15 57.5 15C52.8056 15 49 18.8056 49 23.5C49 28.1944 52.8056 32 57.5 32Z" fill="#39D24E"/>
</svg>
