<svg width="94" height="94" viewBox="0 0 94 94" fill="none" xmlns="http://www.w3.org/2000/svg">
<path d="M46.875 93.875C72.7634 93.875 93.75 72.8884 93.75 47C93.75 21.1117 72.7634 0.125 46.875 0.125C20.9867 0.125 0 21.1117 0 47C0 72.8884 20.9867 93.875 46.875 93.875Z" fill="#39D24E"/>
<path d="M79.0289 12.8938C86.9441 21.2872 91.7977 32.5997 91.7977 45.0469C91.7977 70.9352 70.8109 91.9219 44.9227 91.9219C32.4754 91.9219 21.1629 87.0684 12.7695 79.1532C21.3168 88.2165 33.4348 93.875 46.8758 93.875C72.7641 93.875 93.7508 72.8883 93.7508 47C93.7508 33.559 88.0922 21.4411 79.0289 12.8938Z" fill="#39D24E"/>
<path d="M46.875 86.0625C68.4486 86.0625 85.9375 68.5736 85.9375 47C85.9375 25.4264 68.4486 7.9375 46.875 7.9375C25.3014 7.9375 7.8125 25.4264 7.8125 47C7.8125 68.5736 25.3014 86.0625 46.875 86.0625Z" fill="#131A2C"/>
<path d="M17.6938 70.0446C17.4586 70.0446 17.2266 69.9391 17.0727 69.7379C12.0367 63.1528 9.375 55.2903 9.375 47.0001C9.375 46.1075 9.40703 45.204 9.46992 44.3149C9.48533 44.1085 9.58173 43.9165 9.7381 43.7808C9.89447 43.6452 10.0981 43.5768 10.3047 43.5907C10.4071 43.5979 10.507 43.6252 10.5988 43.6711C10.6906 43.717 10.7725 43.7805 10.8397 43.858C10.907 43.9355 10.9583 44.0256 10.9908 44.1229C11.0232 44.2203 11.0362 44.3231 11.0289 44.4254C10.9681 45.2823 10.9377 46.141 10.9375 47.0001C10.9375 54.9442 13.4883 62.4786 18.3141 68.7887C18.4024 68.9045 18.4567 69.0426 18.4707 69.1876C18.4848 69.3325 18.458 69.4785 18.3935 69.6091C18.329 69.7397 18.2293 69.8496 18.1057 69.9266C17.9821 70.0035 17.8394 70.0444 17.6938 70.0446ZM10.6043 42.0477C10.4913 42.0479 10.3796 42.0235 10.277 41.9763C10.1743 41.9291 10.0831 41.8602 10.0097 41.7743C9.93624 41.6885 9.88228 41.5877 9.85154 41.479C9.82081 41.3703 9.81401 41.2562 9.83164 41.1446L9.88398 40.8215C9.90089 40.7204 9.93755 40.6235 9.99189 40.5365C10.0462 40.4495 10.1172 40.374 10.2007 40.3144C10.2842 40.2548 10.3786 40.2122 10.4785 40.1891C10.5785 40.166 10.682 40.1628 10.7832 40.1797C10.8844 40.1966 10.9813 40.2333 11.0683 40.2876C11.1553 40.342 11.2307 40.4129 11.2903 40.4964C11.3499 40.5799 11.3925 40.6744 11.4156 40.7743C11.4387 40.8743 11.4419 40.9778 11.425 41.079L11.375 41.3876C11.3462 41.5713 11.2527 41.7388 11.1114 41.8598C10.9701 41.9808 10.7903 42.0474 10.6043 42.0477Z" fill="#131A2C"/>
<path d="M72.4738 17.4945C78.427 24.3504 82.0309 33.3011 82.0309 43.0937C82.0309 64.6672 64.5422 82.1562 42.9684 82.1562C33.1758 82.1562 24.225 78.5523 17.3691 72.5992C24.5312 80.8469 35.0938 86.0625 46.8746 86.0625C68.4484 86.0625 85.9371 68.5734 85.9371 47C85.9371 35.2191 80.7215 24.6566 72.4738 17.4945Z" fill="#131A2C"/>
<path d="M73.5016 18.4211C80.0043 25.3981 83.9852 34.7571 83.9852 45.0469C83.9852 66.6204 66.4965 84.1094 44.9227 84.1094C34.6328 84.1094 25.2738 80.1286 18.2969 73.6258C25.4277 81.2762 35.5922 86.0625 46.8758 86.0625C68.4496 86.0625 85.9383 68.5735 85.9383 47C85.9383 35.7165 81.152 25.552 73.5016 18.4211Z" fill="#131A2C"/>
<path d="M35.3 57.5152C34.9811 57.5152 34.667 57.4367 34.3856 57.2867L17.6836 48.4156C17.3704 48.2493 17.1084 48.0009 16.9257 47.697C16.743 47.3931 16.6465 47.0452 16.6465 46.6906C16.6465 46.336 16.743 45.9881 16.9257 45.6842C17.1084 45.3803 17.3704 45.1319 17.6836 44.9656L34.3856 36.0945C34.8425 35.857 35.3747 35.8095 35.8665 35.9625C36.3582 36.1155 36.7697 36.4564 37.0113 36.9112C37.2528 37.366 37.305 37.8979 37.1565 38.3909C37.0079 38.884 36.6706 39.2985 36.218 39.5441L22.7637 46.6906L36.218 53.8367C36.6033 54.0411 36.9091 54.3686 37.0867 54.767C37.2642 55.1654 37.3033 55.6118 37.1977 56.035C37.0921 56.4582 36.8479 56.8339 36.5039 57.1021C36.16 57.3704 35.7362 57.5158 35.3 57.5152ZM59.3207 57.5152C58.8845 57.5158 58.4607 57.3704 58.1168 57.1021C57.7728 56.8339 57.5286 56.4582 57.423 56.035C57.3174 55.6118 57.3565 55.1654 57.534 54.767C57.7116 54.3686 58.0174 54.0411 58.4027 53.8367L71.8574 46.6906L58.4027 39.5445C57.9452 39.3015 57.603 38.8866 57.4514 38.3913C57.2998 37.8959 57.3511 37.3606 57.5942 36.9031C57.8372 36.4456 58.252 36.1034 58.7474 35.9518C59.2427 35.8001 59.7781 35.8515 60.2356 36.0945L76.9379 44.9656C77.2511 45.1319 77.5131 45.3803 77.6958 45.6842C77.8785 45.9881 77.975 46.336 77.975 46.6906C77.975 47.0452 77.8785 47.3931 77.6958 47.697C77.5131 48.0009 77.2511 48.2493 76.9379 48.4156L60.2356 57.2867C59.9539 57.4367 59.6398 57.5152 59.3207 57.5152ZM41.9957 62.4441C41.6786 62.4441 41.3664 62.3669 41.0858 62.2191C40.8053 62.0714 40.5649 61.8575 40.3855 61.5961C40.2061 61.3347 40.093 61.0335 40.0561 60.7186C40.0192 60.4037 40.0594 60.0845 40.1734 59.7887L50.8023 32.1894C50.8945 31.9501 51.033 31.7312 51.2097 31.5454C51.3865 31.3595 51.5981 31.2103 51.8326 31.1062C52.067 31.0021 52.3196 30.9453 52.576 30.9388C52.8324 30.9324 53.0876 30.9765 53.327 31.0687C53.5663 31.1609 53.7852 31.2993 53.971 31.4761C54.1569 31.6529 54.3061 31.8645 54.4102 32.0989C54.5142 32.3334 54.5711 32.586 54.5775 32.8424C54.584 33.0988 54.5398 33.354 54.4477 33.5933L43.8188 61.1926C43.6769 61.5609 43.4267 61.8776 43.1013 62.101C42.7759 62.3245 42.3904 62.4441 41.9957 62.4441Z" fill="white"/>
<path d="M11.4141 30.6016L78.8031 69.5086C80.3515 67.3164 81.6695 64.9701 82.7359 62.5071L15.5207 23.7004C13.9183 25.8536 12.5421 28.1662 11.4141 30.6016Z" fill="#39D24E"/>
</svg>
