<?xml version="1.0" encoding="utf-8"?><svg xmlns="http://www.w3.org/2000/svg" xmlns:xlink="http://www.w3.org/1999/xlink"><symbol viewBox="0 0 16 9" id="accordion-arrow" xmlns="http://www.w3.org/2000/svg">
    <path d="M7.31783 8.13318C7.70196 8.49144 8.2978 8.49144 8.68193 8.13318L14.8038 2.42367C15.4677 1.80451 15.0295 0.692364 14.1217 0.692364H1.87802C0.970217 0.692364 0.532087 1.80451 1.19597 2.42367L7.31783 8.13318Z"/>
</symbol><symbol viewBox="0 0 12 12" id="arrow-down" xmlns="http://www.w3.org/2000/svg">
    <path d="M2.30454 3.5L1.5 4.30454L6 8.80453L10.5 4.30454L9.69545 3.5L6 7.19543L2.30454 3.5Z"/>
</symbol><symbol viewBox="0 0 60 60" id="bitcoin" xmlns="http://www.w3.org/2000/svg">
    <path d="M36.7226 25.6746C35.7925 29.3949 30.0021 27.5047 28.202 26.9947L29.8521 20.4542C31.7122 20.9943 37.6827 21.7743 36.7226 25.6746ZM27.3919 30.3549L25.5918 37.5855C27.812 38.1555 34.6825 40.3457 35.7025 36.2654C36.7826 32.0051 29.6121 30.895 27.3919 30.3549ZM59.1042 37.2554C55.0839 53.3366 38.8228 63.1173 22.7416 59.097C6.66048 55.0767 -3.11122 38.8155 0.900068 22.7344C1.85306 18.9124 3.54965 15.3156 5.89293 12.1494C8.23621 8.98313 11.1803 6.30955 14.557 4.28129C17.9337 2.25304 21.6769 0.909865 25.5728 0.328471C29.4686 -0.252923 33.4409 -0.0611406 37.2626 0.892864C53.3138 4.91315 63.0945 21.1743 59.1042 37.2554ZM36.6326 18.1441L37.9827 12.7437L34.6825 11.9936L33.3624 17.184C32.4923 16.974 31.6222 16.764 30.7222 16.584L32.0423 11.2736L28.772 10.4935L27.4219 15.8639C26.7019 15.6839 25.9818 15.5339 25.3218 15.3539L20.7915 14.2138L19.8914 17.7241C19.8914 17.7241 22.3516 18.2941 22.2916 18.3241C23.6417 18.6541 23.8817 19.4942 23.8217 20.2442L20.1314 35.0353C19.9814 35.4553 19.5014 35.9953 18.6313 35.8453C18.6613 35.8753 16.2312 35.2453 16.2312 35.2453L14.611 38.9956L18.8713 40.0756C19.6814 40.2856 20.4615 40.4957 21.2415 40.6757L19.8614 46.1361L23.1616 46.9761L24.5117 41.5457C25.4118 41.7858 26.2819 41.9958 27.1219 42.2358L25.7718 47.6062L29.0721 48.4462L30.4522 42.9858C36.0026 44.0359 40.2629 43.6159 42.003 38.5455C43.5031 34.4952 42.003 32.0951 39.0028 30.565C41.1629 29.9949 42.783 28.6448 43.2331 25.7046C43.8331 21.7143 40.7729 19.5842 36.6326 18.1441Z"/>
</symbol><symbol viewBox="0 0 30 30" id="crunchbase" xmlns="http://www.w3.org/2000/svg">
    <g clip-path="url(#adclip0_118_5694)">
        <path d="M27.0019 0H2.99813C2.20404 0.00345368 1.44346 0.320436 0.881946 0.881946C0.320436 1.44346 0.00345368 2.20404 0 2.99813V27.0019C0.00345368 27.796 0.320436 28.5565 0.881946 29.1181C1.44346 29.6796 2.20404 29.9965 2.99813 30H27.0019C27.796 29.9965 28.5565 29.6796 29.1181 29.1181C29.6796 28.5565 29.9965 27.796 30 27.0019V2.99813C29.9965 2.20404 29.6796 1.44346 29.1181 0.881946C28.5565 0.320436 27.796 0.00345368 27.0019 0V0ZM8.80875 18.0806C9.1236 18.2244 9.46368 18.3046 9.80957 18.3169C10.1555 18.3291 10.5004 18.2731 10.8246 18.152C11.1488 18.0309 11.446 17.8471 11.6992 17.6111C11.9523 17.3751 12.1565 17.0915 12.3 16.7766H14.3756C13.0819 22.0744 5.28375 21.1369 5.28375 15.6825C5.28375 10.2234 13.0819 9.28594 14.3756 14.5884H12.3C11.5378 12.9141 9.33656 12.5128 8.03719 13.8169C6.73312 15.1153 7.13344 17.3175 8.80875 18.0797V18.0806ZM22.9884 19.1353C22.5956 19.4752 22.1459 19.7431 21.66 19.9266C20.9681 20.1942 20.2216 20.2904 19.4844 20.2072C18.7472 20.1239 18.0411 19.8636 17.4262 19.4484V19.9266H15.5363V6.71344H17.4113V11.85C18.0808 11.3973 18.8564 11.1263 19.6622 11.0634H19.9988C24.2663 11.0541 26.2294 16.3659 22.9875 19.1344L22.9884 19.1353ZM22.71 15.6788C22.7166 16.0282 22.6535 16.3755 22.5243 16.7002C22.3951 17.025 22.2025 17.3208 21.9577 17.5702C21.7129 17.8197 21.4209 18.0179 21.0986 18.1531C20.7763 18.2884 20.4303 18.3581 20.0808 18.3581C19.7313 18.3581 19.3853 18.2884 19.063 18.1531C18.7407 18.0179 18.4486 17.8197 18.2038 17.5702C17.959 17.3208 17.7664 17.025 17.6373 16.7002C17.5081 16.3755 17.445 16.0282 17.4516 15.6788C17.5247 12.2513 22.6322 12.2513 22.71 15.6788Z"/>
    </g>
    <defs>
        <clipPath id="adclip0_118_5694">
            <rect width="30" height="30"/>
        </clipPath>
    </defs>
</symbol><symbol viewBox="0 0 30 30" id="discord" xmlns="http://www.w3.org/2000/svg">
    <g clip-path="url(#aeclip0_118_5700)">
        <path d="M25.3962 5.61497C23.4837 4.75247 21.4337 4.11497 19.29 3.75247C19.2709 3.7488 19.2511 3.75116 19.2334 3.75923C19.2157 3.76729 19.201 3.78065 19.1912 3.79747C18.9287 4.25872 18.6362 4.85997 18.4312 5.33497C16.1576 4.99526 13.8461 4.99526 11.5725 5.33497C11.3442 4.80854 11.0867 4.29525 10.8012 3.79747C10.7916 3.78045 10.7769 3.76678 10.7593 3.75829C10.7416 3.74981 10.7218 3.7469 10.7025 3.74997C8.55999 4.11247 6.50999 4.74997 4.59624 5.61372C4.57978 5.62062 4.56582 5.6324 4.55624 5.64747C0.66624 11.3662 -0.40001 16.9437 0.12374 22.4512C0.125198 22.4647 0.129385 22.4778 0.136047 22.4896C0.142708 22.5014 0.151705 22.5117 0.16249 22.52C2.43298 24.173 4.96541 25.4322 7.65374 26.245C7.67248 26.2507 7.69253 26.2507 7.71126 26.2449C7.72999 26.2391 7.74654 26.2278 7.75874 26.2125C8.33723 25.4388 8.84986 24.618 9.29124 23.7587C9.29737 23.747 9.3009 23.734 9.30159 23.7208C9.30229 23.7076 9.30013 23.6944 9.29527 23.682C9.29042 23.6697 9.28296 23.6586 9.27343 23.6494C9.26389 23.6402 9.25249 23.6331 9.23999 23.6287C8.4325 23.3246 7.6501 22.9577 6.89999 22.5312C6.88651 22.5235 6.87515 22.5126 6.86694 22.4994C6.85872 22.4863 6.8539 22.4713 6.85291 22.4558C6.85192 22.4403 6.85478 22.4248 6.86126 22.4107C6.86773 22.3966 6.8776 22.3843 6.88999 22.375C7.04749 22.2587 7.20499 22.1375 7.35499 22.0162C7.36849 22.0053 7.38476 21.9984 7.40197 21.9962C7.41919 21.994 7.43667 21.9966 7.45249 22.0037C12.3612 24.2087 17.6775 24.2087 22.5287 22.0037C22.5446 21.9961 22.5623 21.9932 22.5797 21.9952C22.5972 21.9972 22.6137 22.004 22.6275 22.015C22.7775 22.1375 22.9337 22.2587 23.0925 22.375C23.105 22.3841 23.115 22.3962 23.1217 22.4102C23.1284 22.4242 23.1315 22.4396 23.1308 22.4551C23.13 22.4706 23.1254 22.4856 23.1175 22.4989C23.1095 22.5122 23.0983 22.5233 23.085 22.5312C22.3375 22.9612 21.56 23.325 20.7437 23.6275C20.7312 23.632 20.7198 23.6392 20.7102 23.6485C20.7007 23.6578 20.6933 23.6691 20.6884 23.6815C20.6836 23.6939 20.6814 23.7072 20.6821 23.7205C20.6828 23.7339 20.6864 23.7469 20.6925 23.7587C21.1425 24.6175 21.6575 25.435 22.2237 26.2112C22.2355 26.2271 22.2519 26.2391 22.2707 26.2453C22.2895 26.2516 22.3098 26.2519 22.3287 26.2462C25.0217 25.4358 27.5582 24.1759 29.8312 22.52C29.8423 22.5122 29.8516 22.5022 29.8585 22.4905C29.8654 22.4789 29.8698 22.4659 29.8712 22.4525C30.4962 16.085 28.8237 10.5525 25.435 5.64997C25.4267 5.63404 25.4129 5.62162 25.3962 5.61497ZM10.025 19.0975C8.54749 19.0975 7.32874 17.7612 7.32874 16.1225C7.32874 14.4825 8.52374 13.1475 10.025 13.1475C11.5375 13.1475 12.745 14.4937 12.7212 16.1225C12.7212 17.7625 11.5262 19.0975 10.025 19.0975ZM19.9937 19.0975C18.515 19.0975 17.2975 17.7612 17.2975 16.1225C17.2975 14.4825 18.4912 13.1475 19.9937 13.1475C21.5062 13.1475 22.7137 14.4937 22.69 16.1225C22.69 17.7625 21.5075 19.0975 19.9937 19.0975Z"/>
    </g>
    <defs>
        <clipPath id="aeclip0_118_5700">
            <rect width="30" height="30"/>
        </clipPath>
    </defs>
</symbol><symbol viewBox="0 0 60 60" id="dogecoin" xmlns="http://www.w3.org/2000/svg">
    <g clip-path="url(#afclip0_115_5472)">
        <path d="M30.72 19.77H26.4325V28.22H33.175V31.7575H26.4325V40.2075H30.93C32.085 40.2075 40.415 40.3375 40.4025 30.375C40.39 20.415 32.3225 19.77 30.72 19.77ZM30 0C13.4325 0 0 13.4325 0 30C0 46.5675 13.4325 60 30 60C46.5675 60 60 46.5675 60 30C60 13.4325 46.5675 0 30 0ZM31.18 46.2025H20.315V31.7575H16.485V28.22H20.315V13.7775H29.64C31.845 13.7775 46.4575 13.32 46.4575 30.2625C46.455 47.4825 31.18 46.2025 31.18 46.2025Z"/>
    </g>
    <defs>
        <clipPath id="afclip0_115_5472">
            <rect width="60" height="60"/>
        </clipPath>
    </defs>
</symbol><symbol viewBox="0 0 60 60" id="ephirium" xmlns="http://www.w3.org/2000/svg">
    <g clip-path="url(#ahclip0_115_5464)">
        <path d="M41.56 34.8L48.355 41.59L29.9725 59.9725L11.59 41.5925L18.3825 34.8L29.9725 46.45L41.56 34.8ZM53.1525 23.21L60 30L53.2125 36.79L46.42 30L53.1525 23.21ZM29.9725 23.21L36.7625 29.94L29.97 36.7325L23.18 30L29.9725 23.21ZM6.79 23.21L13.525 30L6.795 36.73L0 30L6.79 23.21ZM29.975 0.0300293L48.35 18.35L41.5575 25.1375L29.975 13.55L18.385 25.2L11.5925 18.41L29.975 0.0300293Z"/>
    </g>
    <defs>
        <clipPath id="ahclip0_115_5464">
            <rect width="60" height="60"/>
        </clipPath>
    </defs>
</symbol><symbol viewBox="0 0 37 60" id="ephirium-2" xmlns="http://www.w3.org/2000/svg">
    <path d="M18.2927 0L0 30.7317L18.2927 41.7073L36.5854 30.7317L18.2927 0ZM0 34.3902L18.2927 60L36.5854 34.3902L18.2927 45.3659L0 34.3902Z"/>
</symbol><symbol viewBox="0 0 21 16" id="explore-products-arrow" xmlns="http://www.w3.org/2000/svg">
    <path d="M20.7071 8.70711C21.0976 8.31658 21.0976 7.68342 20.7071 7.29289L14.3431 0.928932C13.9526 0.538408 13.3195 0.538408 12.9289 0.928932C12.5384 1.31946 12.5384 1.95262 12.9289 2.34315L18.5858 8L12.9289 13.6569C12.5384 14.0474 12.5384 14.6805 12.9289 15.0711C13.3195 15.4616 13.9526 15.4616 14.3431 15.0711L20.7071 8.70711ZM0 9H20V7H0V9Z"/>
</symbol><symbol viewBox="0 0 30 30" id="github" xmlns="http://www.w3.org/2000/svg">
    <g clip-path="url(#ajclip0_118_5702)">
        <mask id="ajmask0_118_5702" style="mask-type:luminance" maskUnits="userSpaceOnUse" x="0" y="0" width="30" height="30">
            <path d="M0 0H30V30H0V0Z"/>
        </mask>
        <g mask="url(#ajmask0_118_5702)">
            <path fill-rule="evenodd" clip-rule="evenodd" d="M15 0C6.7125 0 0 6.7125 0 15C0 21.6375 4.29375 27.2437 10.2563 29.2313C11.0063 29.3625 11.2875 28.9125 11.2875 28.5188C11.2875 28.1625 11.2688 26.9813 11.2688 25.725C7.5 26.4188 6.525 24.8062 6.225 23.9625C6.05625 23.5312 5.325 22.2 4.6875 21.8438C4.1625 21.5625 3.4125 20.8687 4.66875 20.85C5.85 20.8313 6.69375 21.9375 6.975 22.3875C8.325 24.6562 10.4812 24.0187 11.3438 23.625C11.475 22.65 11.8688 21.9937 12.3 21.6187C8.9625 21.2437 5.475 19.95 5.475 14.2125C5.475 12.5813 6.05625 11.2313 7.0125 10.1813C6.8625 9.80625 6.3375 8.26875 7.1625 6.20625C7.1625 6.20625 8.41875 5.8125 11.2875 7.74375C12.4875 7.40625 13.7625 7.2375 15.0375 7.2375C16.3125 7.2375 17.5875 7.40625 18.7875 7.74375C21.6562 5.79375 22.9125 6.20625 22.9125 6.20625C23.7375 8.26875 23.2125 9.80625 23.0625 10.1813C24.0188 11.2313 24.6 12.5625 24.6 14.2125C24.6 19.9688 21.0938 21.2437 17.7563 21.6187C18.3 22.0875 18.7688 22.9875 18.7688 24.3937C18.7688 26.4 18.75 28.0125 18.75 28.5188C18.75 28.9125 19.0312 29.3813 19.7812 29.2313C22.759 28.2259 25.3465 26.3121 27.1796 23.7592C29.0127 21.2063 29.9991 18.1429 30 15C30 6.7125 23.2875 0 15 0Z"/>
        </g>
    </g>
    <defs>
        <clipPath id="ajclip0_118_5702">
            <rect width="30" height="30"/>
        </clipPath>
    </defs>
</symbol><symbol viewBox="0 0 60 60" id="lightning" xmlns="http://www.w3.org/2000/svg">
    <path d="M1.5 30.1071C1.5 14.3076 14.3076 1.5 30.1071 1.5C45.9066 1.5 58.7143 14.3076 58.7143 30.1071C58.7143 45.9066 45.9066 58.7143 30.1071 58.7143C14.3076 58.7143 1.5 45.9066 1.5 30.1071Z"/>
    <path d="M34.5416 11.0357C32.8361 15.463 31.1305 20.2309 29.0838 24.9987C29.0838 24.9987 29.0838 25.6798 29.766 25.6798H43.7517C43.7517 25.6798 43.7517 26.0204 44.0929 26.361L23.626 49.1786C23.2848 48.838 23.2848 48.4974 23.2848 48.1569L30.4483 32.8316V31.4694H16.1214V30.1071L33.5183 11.0357H34.5416Z"/>
</symbol><symbol viewBox="0 0 30 30" id="linkedIn" xmlns="http://www.w3.org/2000/svg">
    <path d="M16.25 26.25H11.25V11.25H16.25V13.75C17.3158 12.3941 18.932 11.5857 20.6562 11.5462C23.757 11.5635 26.259 14.0867 26.25 17.1875V26.25H21.25V17.8125C21.05 16.4158 19.8522 15.3795 18.4412 15.3825C17.8241 15.402 17.2416 15.6722 16.828 16.1308C16.4145 16.5893 16.2058 17.1966 16.25 17.8125V26.25ZM8.75 26.25H3.75V11.25H8.75V26.25ZM6.25 8.75C4.86929 8.75 3.75 7.63071 3.75 6.25C3.75 4.86929 4.86929 3.75 6.25 3.75C7.63071 3.75 8.75 4.86929 8.75 6.25C8.75 6.91304 8.48661 7.54893 8.01777 8.01777C7.54893 8.48661 6.91304 8.75 6.25 8.75Z"/>
</symbol><symbol viewBox="0 0 60 60" id="litecoin" xmlns="http://www.w3.org/2000/svg">
    <g clip-path="url(#amclip0_115_5479)">
        <path d="M30 0C24.0666 0 18.2664 1.75947 13.3329 5.05591C8.39943 8.35235 4.55426 13.0377 2.28363 18.5195C0.0129986 24.0013 -0.581102 30.0333 0.576455 35.8527C1.73401 41.6721 4.59123 47.0176 8.78681 51.2132C12.9824 55.4088 18.3279 58.266 24.1473 59.4236C29.9667 60.5811 35.9987 59.987 41.4805 57.7164C46.9623 55.4458 51.6477 51.6006 54.9441 46.6671C58.2405 41.7336 60 35.9334 60 30C60 22.0435 56.8393 14.4129 51.2132 8.7868C45.5871 3.16071 37.9565 0 30 0ZM29.345 9.195H35.805C35.9372 9.19517 36.0675 9.22587 36.1858 9.28472C36.3041 9.34356 36.4072 9.42896 36.4871 9.53424C36.567 9.63952 36.6214 9.76183 36.6462 9.89163C36.671 10.0214 36.6655 10.1552 36.63 10.2825L31.555 27.5775L36.3175 26.1225L35.2975 29.585L30.4875 30.985L27.3675 41.52H44.0575C44.1898 41.5207 44.3201 41.552 44.4383 41.6115C44.5564 41.6709 44.6593 41.7569 44.7387 41.8627C44.8181 41.9685 44.8719 42.0913 44.896 42.2213C44.9201 42.3514 44.9138 42.4853 44.8775 42.6125L43.4225 47.6125C43.3529 47.8504 43.208 48.0593 43.0098 48.208C42.8115 48.3567 42.5704 48.4372 42.3225 48.4375H16.8325L21.14 33.8825L16.375 35.3325L17.425 31.93L22.2 30.48L28.255 10.03C28.3214 9.79087 28.464 9.57994 28.6612 9.42924C28.8584 9.27854 29.0993 9.19629 29.3475 9.195"/>
    </g>
    <defs>
        <clipPath id="amclip0_115_5479">
            <rect width="60" height="60"/>
        </clipPath>
    </defs>
</symbol><symbol viewBox="0 0 30 30" id="medium" xmlns="http://www.w3.org/2000/svg">
    <path d="M5.465 9.08C5.48032 8.92783 5.4598 8.77419 5.40511 8.63137C5.35041 8.48855 5.26304 8.36051 5.15 8.2575L2.815 5.42375V5H10.0625L15.665 17.3812L20.59 5H27.5V5.42375L25.5037 7.35C25.4192 7.41531 25.3539 7.50237 25.3149 7.60188C25.276 7.70139 25.2648 7.80962 25.2825 7.915V22.0825C25.2648 22.1879 25.276 22.2961 25.3149 22.3956C25.3539 22.4951 25.4192 22.5822 25.5037 22.6475L27.4537 24.575V25H17.6488V24.5762L19.6687 22.6012C19.8675 22.4012 19.8675 22.3425 19.8675 22.0375V10.585L14.2525 24.9525H13.495L6.9575 10.585V20.215C6.90375 20.6188 7.0375 21.0275 7.32 21.32L9.94625 24.53V24.9525H2.5V24.53L5.125 21.32C5.26389 21.1751 5.36697 20.9997 5.426 20.8078C5.48504 20.6159 5.49839 20.4129 5.465 20.215V9.08Z"/>
</symbol><symbol viewBox="0 0 60 60" id="nav-api" xmlns="http://www.w3.org/2000/svg">
    <path d="M11.25 45H23.586C23.2331 46.7546 22.1797 48.5529 20.3662 50.3662C20.1914 50.541 20.0724 50.7637 20.0242 51.0062C19.976 51.2486 20.0007 51.4999 20.0953 51.7283C20.1899 51.9567 20.3501 52.1519 20.5556 52.2893C20.7612 52.4266 21.0028 52.5 21.25 52.5H38.75C38.9972 52.5 39.2389 52.4266 39.4444 52.2893C39.65 52.1519 39.8102 51.9567 39.9047 51.7283C39.9993 51.4999 40.0241 51.2486 39.9759 51.0062C39.9277 50.7637 39.8086 50.541 39.6338 50.3662C37.8205 48.5529 36.767 46.7546 36.4141 45H48.75C50.1902 44.9984 51.5857 44.5001 52.7013 43.5893C53.8168 42.6784 54.5841 41.4107 54.8737 40H5.12634C5.41597 41.4107 6.18326 42.6784 7.2988 43.5893C8.41434 44.5001 9.80987 44.9984 11.25 45ZM33.75 17.5H31.25V22.5H33.75C34.4131 22.5 35.049 22.2366 35.5178 21.7678C35.9866 21.2989 36.25 20.663 36.25 20C36.25 19.337 35.9866 18.7011 35.5178 18.2322C35.049 17.7634 34.4131 17.5 33.75 17.5Z"/>
    <path d="M48.75 7.5H11.25C9.59293 7.50174 8.00423 8.16078 6.8325 9.3325C5.66078 10.5042 5.00174 12.0929 5 13.75V37.5H55V13.75C54.9983 12.0929 54.3392 10.5042 53.1675 9.3325C51.9958 8.16078 50.4071 7.50174 48.75 7.5ZM26.25 28.75C26.25 29.0815 26.1183 29.3995 25.8839 29.6339C25.6495 29.8683 25.3315 30 25 30C24.6685 30 24.3505 29.8683 24.1161 29.6339C23.8817 29.3995 23.75 29.0815 23.75 28.75V25H18.75V28.75C18.75 29.0815 18.6183 29.3995 18.3839 29.6339C18.1495 29.8683 17.8315 30 17.5 30C17.1685 30 16.8505 29.8683 16.6161 29.6339C16.3817 29.3995 16.25 29.0815 16.25 28.75V20C16.25 18.6739 16.7768 17.4021 17.7145 16.4645C18.6521 15.5268 19.9239 15 21.25 15C22.5761 15 23.8479 15.5268 24.7855 16.4645C25.7232 17.4021 26.25 18.6739 26.25 20V28.75ZM33.75 25H31.25V28.75C31.25 29.0815 31.1183 29.3995 30.8839 29.6339C30.6495 29.8683 30.3315 30 30 30C29.6685 30 29.3505 29.8683 29.1161 29.6339C28.8817 29.3995 28.75 29.0815 28.75 28.75V16.25C28.7499 16.0858 28.7822 15.9232 28.8449 15.7715C28.9077 15.6198 28.9998 15.482 29.1159 15.3659C29.232 15.2498 29.3698 15.1577 29.5215 15.095C29.6732 15.0322 29.8358 14.9999 30 15H33.75C35.0761 15 36.3479 15.5268 37.2855 16.4645C38.2232 17.4021 38.75 18.6739 38.75 20C38.75 21.3261 38.2232 22.5979 37.2855 23.5355C36.3479 24.4732 35.0761 25 33.75 25ZM43.75 28.75C43.75 29.0815 43.6183 29.3995 43.3839 29.6339C43.1495 29.8683 42.8315 30 42.5 30C42.1685 30 41.8505 29.8683 41.6161 29.6339C41.3817 29.3995 41.25 29.0815 41.25 28.75V16.25C41.25 15.9185 41.3817 15.6005 41.6161 15.3661C41.8505 15.1317 42.1685 15 42.5 15C42.8315 15 43.1495 15.1317 43.3839 15.3661C43.6183 15.6005 43.75 15.9185 43.75 16.25V28.75Z"/>
    <path d="M21.25 17.5C20.5872 17.5007 19.9517 17.7643 19.483 18.233C19.0143 18.7017 18.7507 19.3372 18.75 20V22.5H23.75V20C23.7493 19.3372 23.4857 18.7017 23.017 18.233C22.5483 17.7643 21.9128 17.5007 21.25 17.5Z"/>
</symbol><symbol viewBox="0 0 70 70" id="nav-bankomat" xmlns="http://www.w3.org/2000/svg">
    <path d="M60.6348 12.248H9.36523C8.42119 12.248 7.65625 13.013 7.65625 13.957V25.5781C7.65625 26.5222 8.42119 27.2871 9.36523 27.2871H19.9391V53.6485C19.9391 55.5346 21.473 57.0686 23.3591 57.0686H46.6409C48.527 57.0686 50.0609 55.5346 50.0609 53.6485V27.2871H60.6348C61.5788 27.2871 62.3438 26.5222 62.3438 25.5781V13.957C62.3438 13.013 61.5788 12.248 60.6348 12.248ZM32.1275 47.406C32.1275 49.2619 30.6229 50.7672 28.7663 50.7672C26.9104 50.7672 25.4051 49.2619 25.4051 47.406C25.4051 46.3546 25.8877 45.4167 26.6431 44.8008C25.8877 44.1842 25.4051 43.2463 25.4051 42.1956C25.4051 40.339 26.9104 38.8344 28.7663 38.8344C30.6229 38.8344 32.1275 40.339 32.1275 42.1956C32.1275 43.2463 31.6456 44.1842 30.8902 44.8008C31.6456 45.4167 32.1275 46.3546 32.1275 47.406ZM27.7867 21.4766V25.1816H25.7359V21.4766H27.7867ZM31.7974 29.8923H29.7466V21.4766H31.7974V29.8923ZM37.9449 21.4766H43.2216V55.0178H37.9449V21.4766ZM58.9258 23.8691H50.0609V21.4766H53.1152V18.0586H16.8848V21.4766H19.9391V23.8691H11.0742V15.666H58.9258V23.8691Z"/>
</symbol><symbol viewBox="0 0 60 60" id="nav-basket" xmlns="http://www.w3.org/2000/svg">
    <path d="M25.7463 29.6732H4.54028C2.7761 29.6732 1.34326 28.2403 1.34326 26.4762C1.34291 26.0562 1.42536 25.6403 1.5859 25.2523C1.74644 24.8643 1.98192 24.5117 2.27886 24.2147C2.5758 23.9178 2.92838 23.6823 3.31642 23.5218C3.70445 23.3612 4.12034 23.2788 4.54028 23.2792H22.191L25.7463 29.6732ZM58.6567 26.4762C58.6567 28.2538 57.206 29.6732 55.4597 29.6732H34.5492C34.938 28.9365 35.1382 28.115 35.132 27.2821C35.1257 26.4492 34.9132 25.6308 34.5134 24.9L33.6089 23.2792H55.4597C57.2239 23.2792 58.6567 24.712 58.6567 26.4762ZM32.9462 25.7687L23.6865 9.11199C22.8439 7.56273 20.8692 7.01109 19.3343 7.86721C17.794 8.71796 17.2388 10.6702 18.0985 12.2194L27.3492 28.8672C28.1525 30.3932 30.1513 30.986 31.6925 30.1299C33.2149 29.3311 33.8077 27.3323 32.9462 25.7687ZM30.3403 27.2678C30.1556 27.4192 29.9188 27.4916 29.6811 27.4695C29.4434 27.4474 29.224 27.3324 29.0704 27.1496C28.9952 27.06 28.9385 26.9563 28.9036 26.8446C28.8687 26.7329 28.8563 26.6154 28.8671 26.4989C28.8779 26.3824 28.9118 26.2691 28.9667 26.1658C29.0215 26.0624 29.0964 25.971 29.1868 25.8968L29.2065 25.8815C29.2973 25.805 29.4024 25.7472 29.5157 25.7116C29.629 25.676 29.7483 25.6633 29.8665 25.6743C29.9848 25.6852 30.0997 25.7195 30.2045 25.7753C30.3094 25.8311 30.4021 25.9071 30.4773 25.9991C30.5524 26.091 30.6086 26.1969 30.6424 26.3108C30.6763 26.4246 30.6871 26.544 30.6744 26.6621C30.6616 26.7802 30.6255 26.8945 30.5682 26.9985C30.5108 27.1025 30.4333 27.194 30.3403 27.2678ZM32.9462 31.4642C32.12 32.0189 31.1474 32.315 30.1522 32.315C29.1571 32.315 28.1844 32.0189 27.3582 31.4642H5.74923L9.84177 50.3418C10.1373 51.6135 11.2836 52.5359 12.5731 52.5359H47.4268C48.7164 52.5359 49.8627 51.6135 50.1582 50.3329L54.2507 31.4642H32.9462ZM15.8704 49.0021L13.4077 35.1081L15.1701 34.7947L17.6337 48.6896L15.8704 49.0021ZM22.4839 48.9251L21.2516 35.0302L23.0355 34.8726L24.2686 48.7666L22.4839 48.9251ZM30.8955 48.8463H29.1045V34.9514H30.8955V48.8463ZM37.5152 48.9251L35.7313 48.7666L36.9627 34.8726L38.7465 35.0302L37.5152 48.9251ZM44.1286 49.0021L42.3654 48.6887L44.8289 34.7947L46.5931 35.1081L44.1286 49.0021Z"/>
</symbol><symbol viewBox="0 0 60 60" id="nav-blog" xmlns="http://www.w3.org/2000/svg">
    <path d="M52.5 7.5H17.5C16 7.5 15 8.5 15 10V17.5H7.5C6 17.5 5 18.5 5 20V45C5 49.25 8.25 52.5 12.5 52.5H45C50.5 52.5 55 48 55 42.5V10C55 8.5 54 7.5 52.5 7.5ZM15 45C15 46.5 14 47.5 12.5 47.5C11 47.5 10 46.5 10 45V22.5H15V45ZM30 42.5H27.5C26 42.5 25 41.5 25 40C25 38.5 26 37.5 27.5 37.5H30C31.5 37.5 32.5 38.5 32.5 40C32.5 41.5 31.5 42.5 30 42.5ZM30 32.5H27.5C26 32.5 25 31.5 25 30C25 28.5 26 27.5 27.5 27.5H30C31.5 27.5 32.5 28.5 32.5 30C32.5 31.5 31.5 32.5 30 32.5ZM42.5 42.5H40C38.5 42.5 37.5 41.5 37.5 40C37.5 38.5 38.5 37.5 40 37.5H42.5C44 37.5 45 38.5 45 40C45 41.5 44 42.5 42.5 42.5ZM42.5 32.5H40C38.5 32.5 37.5 31.5 37.5 30C37.5 28.5 38.5 27.5 40 27.5H42.5C44 27.5 45 28.5 45 30C45 31.5 44 32.5 42.5 32.5ZM42.5 22.5H27.5C26 22.5 25 21.5 25 20C25 18.5 26 17.5 27.5 17.5H42.5C44 17.5 45 18.5 45 20C45 21.5 44 22.5 42.5 22.5Z"/>
</symbol><symbol viewBox="0 0 70 70" id="nav-btob" xmlns="http://www.w3.org/2000/svg">
    <path d="M65.1568 21.8853L58.6004 28.4416L52.0434 21.8853H57.2332V19.6882C57.2332 16.61 54.7292 14.106 51.651 14.106H45.0209V11.3716H51.651C56.2366 11.3716 59.9676 15.1026 59.9676 19.6882V21.8853H65.1568ZM58.891 37.126C55.7854 34.0204 51.6565 32.3101 47.2644 32.3101C42.8723 32.3101 38.7434 34.0204 35.6378 37.126C32.533 40.2315 30.8226 44.3605 30.8226 48.7519C30.8226 53.1439 32.533 57.2729 35.6378 60.3784C38.7434 63.484 42.8723 65.1943 47.2644 65.1943C51.6565 65.1943 55.7854 63.484 58.891 60.3784C61.9965 57.2729 63.7069 53.1439 63.7069 48.7519C63.7069 44.3605 61.9965 40.2315 58.891 37.126ZM53.9349 45.461C53.9349 46.7783 53.3416 47.9596 52.4084 48.7525C53.3416 49.5441 53.9349 50.7254 53.9349 52.0427V52.1247C53.9349 54.505 51.999 56.4409 49.6187 56.4409H49.0766V58.4288H47.0258V56.4409H45.3975V58.3755H43.3467V56.4409H41.6193V54.3901H43.3467V43.1143H41.6193V41.0635H43.3467V39.0756H45.3975V41.0635H47.0258V39.0756H49.0766V41.0635H49.6187C51.999 41.0635 53.9349 42.9994 53.9349 45.3797V45.461ZM22.7357 37.6899C27.1278 37.6899 31.2567 35.9796 34.3623 32.874C37.4671 29.7685 39.1775 25.6395 39.1775 21.2481C39.1775 16.8561 37.4671 12.7271 34.3623 9.62158C31.2567 6.51602 27.1278 4.80566 22.7357 4.80566C18.3436 4.80566 14.2147 6.51602 11.1091 9.62158C8.00356 12.7271 6.29321 16.8561 6.29321 21.2481C6.29321 25.6395 8.00356 29.7685 11.1091 32.874C14.2147 35.9796 18.3436 37.6899 22.7357 37.6899ZM18.3956 14.8449C19.2371 14.0328 20.3541 13.5857 21.5394 13.5857H21.7103V11.5979H23.7611V13.5857H23.932C26.2453 13.5857 28.1279 15.4178 28.1279 17.6702H26.0771C26.0771 16.5491 25.1146 15.6365 23.932 15.6365H21.5394C20.8879 15.6365 20.2768 15.8799 19.8195 16.3208C19.3717 16.7528 19.1256 17.3243 19.1256 17.9293C19.1256 19.1939 20.2084 20.2221 21.5394 20.2221H23.932C25.1173 20.2221 26.2336 20.6698 27.0758 21.4819C27.9276 22.3036 28.3965 23.3987 28.3965 24.5663C28.3965 26.9609 26.3936 28.9099 23.932 28.9099H23.7611V30.8978H21.7103V28.9099H21.5394C19.2254 28.9099 17.3435 27.0771 17.3435 24.8247H19.3943C19.3943 25.9465 20.3561 26.8591 21.5394 26.8591H23.932C25.2629 26.8591 26.3458 25.8303 26.3458 24.5663C26.3458 23.9606 26.099 23.3892 25.6519 22.9578C25.1946 22.5162 24.5834 22.2729 23.932 22.2729H21.5394C19.0778 22.2729 17.0749 20.3246 17.0749 17.9293C17.0749 16.7624 17.5438 15.6673 18.3956 14.8449ZM21.0711 55.894H27.7013V58.6284H21.0711C16.4856 58.6284 12.7545 54.8974 12.7545 50.3118V48.1147H7.56538L14.1217 41.5584L20.6788 48.1147H15.4889V50.3118C15.4889 53.39 17.9929 55.894 21.0711 55.894Z"/>
    <path d="M51.8841 45.3797V45.461C51.8841 46.7106 50.8683 47.7265 49.6187 47.7265H45.3975V43.1143H49.6187C50.8683 43.1143 51.8841 44.1301 51.8841 45.3797ZM51.8841 52.0427V52.1247C51.8841 53.3736 50.8683 54.3901 49.6187 54.3901H45.3975V49.7772H49.6187C50.8683 49.7772 51.8841 50.7937 51.8841 52.0427Z"/>
</symbol><symbol viewBox="0 0 60 60" id="nav-career" xmlns="http://www.w3.org/2000/svg">
    <path d="M55.8926 48.3633V28.0313C55.6172 28.3008 55.3184 28.5586 55.0137 28.793C54.7324 29.0098 54.4395 29.209 54.1348 29.3965C53.1328 30.0059 52.0195 30.4219 50.8535 30.6036C49.2832 30.8438 47.6602 30.75 46.0723 30.75H34.8457C34.8047 30.75 34.7637 30.75 34.7227 30.7442V31.4707C34.7227 31.5586 34.7285 31.6407 34.7227 31.7286C34.6992 32.2032 34.3477 32.5547 33.873 32.5782C33.0352 32.6192 32.1855 32.5782 31.3418 32.5782H27.252C26.8945 32.5782 26.5371 32.584 26.1797 32.5782C25.6465 32.5664 25.2773 32.209 25.2715 31.67C25.2656 31.3653 25.2656 31.0547 25.2656 30.75C25.2305 30.7559 25.1895 30.7559 25.1543 30.7559H25.0781C23.4844 30.7793 21.8848 30.7559 20.291 30.7559H13.1719C11.4141 30.7559 9.61523 30.8672 7.91602 30.3223C7.20703 30.0938 6.51562 29.7832 5.86523 29.4024C5.56055 29.2207 5.26758 29.0274 4.98633 28.8164C4.67578 28.5821 4.38281 28.3301 4.10742 28.0606V50.2207C4.10742 50.3848 4.10156 50.5489 4.11328 50.7129C4.23047 52.2598 5.49023 53.4551 7.04297 53.4786C7.42383 53.4844 7.79883 53.4786 8.17969 53.4786H52.8867C54.5977 53.4727 55.8867 52.125 55.8926 50.4317V48.3633ZM55.8809 18.9668V16.9512C55.7695 15.4161 54.5156 14.209 52.957 14.1856H40.084V9.80863C40.084 8.91801 39.832 8.07426 39.1875 7.42973C38.584 6.82035 37.7695 6.5391 36.9199 6.53324H23.4023C23.2559 6.53324 23.1094 6.52738 22.9688 6.53324C21.2871 6.5684 19.9629 7.89848 19.9219 9.58012C19.8867 11.1094 19.9043 12.6504 19.916 14.1856H7.13086C6.3457 14.1856 5.61328 14.4551 5.0332 14.9942C4.4707 15.5215 4.17188 16.2422 4.125 16.9981V21.0645C4.125 21.2403 4.125 21.4102 4.13672 21.586C4.14258 21.709 4.1543 21.8262 4.16602 21.9493C4.16602 21.9668 4.17187 21.9844 4.17187 22.002C4.20117 22.1719 4.22461 22.3418 4.25977 22.5059C4.34766 22.9161 4.47656 23.3204 4.62305 23.7129C4.62305 23.7188 4.62305 23.7188 4.62891 23.7246C4.62891 23.7305 4.62891 23.7305 4.63477 23.7364C4.64063 23.7481 4.64063 23.7539 4.64648 23.7657C4.68164 23.8477 4.72266 23.9297 4.76367 24.0118C4.83984 24.1641 4.91602 24.3106 4.99805 24.4571C5.00977 24.4805 5.02148 24.5039 5.03906 24.5215C5.15039 24.709 5.26758 24.8965 5.39648 25.0723C5.44922 25.1485 5.50781 25.2129 5.55469 25.2891L5.53711 25.2539C5.54883 25.2715 5.55469 25.2832 5.56641 25.295C5.66602 25.418 5.77148 25.5411 5.88281 25.6582C6.05273 25.8399 6.23438 26.0157 6.42188 26.1856C6.49805 26.2559 6.57422 26.3204 6.65625 26.3848C6.66797 26.3965 6.68555 26.4082 6.70313 26.42C6.80273 26.4844 6.84375 26.5079 6.84961 26.5137C6.84375 26.5137 6.81445 26.4903 6.77344 26.4668C6.89648 26.5489 7.01367 26.6426 7.13672 26.7246C7.46484 26.9356 7.80469 27.1231 8.15625 27.2871C8.49609 27.3926 8.31445 27.3516 8.20312 27.3106C8.21484 27.3164 8.2207 27.3164 8.23242 27.3223C8.33203 27.3575 8.42578 27.3985 8.52539 27.4278C8.71289 27.4922 8.90039 27.5508 9.08789 27.6036C9.29297 27.6563 9.49805 27.7032 9.70898 27.7442L9.91992 27.7793C9.96094 27.7852 10.002 27.7852 10.0371 27.7911C10.5586 27.8379 11.0859 27.8262 11.6074 27.8262H25.1719C25.2129 27.8262 25.2539 27.8262 25.2949 27.8321V26.42C25.2949 26.0098 25.2363 25.5704 25.5703 25.2657C25.8574 25.002 26.2324 25.043 26.5898 25.043H33.8965C34.3535 25.0664 34.6758 25.3829 34.7344 25.8223C34.7402 25.8457 34.7402 25.8692 34.7402 25.8926V27.8379C34.7812 27.8321 34.8223 27.8321 34.8633 27.8321H34.9395C36.4922 27.8028 38.0449 27.8321 39.5918 27.8321H49.248C49.5 27.8321 49.7461 27.8204 49.998 27.7969C50.0449 27.7911 50.0977 27.7852 50.1445 27.7793C50.2031 27.7676 50.2676 27.7618 50.3262 27.75C50.5312 27.709 50.7422 27.668 50.9473 27.6094C51.1523 27.5567 51.3516 27.4922 51.5508 27.4219C51.6445 27.3868 51.7324 27.3516 51.8262 27.3164C52.1895 27.1465 52.5352 26.9649 52.8691 26.7481C52.9805 26.6778 53.0859 26.6075 53.1914 26.5313C53.2207 26.5079 53.3144 26.4375 53.3555 26.4082L53.3613 26.4024C53.3672 26.3965 53.3789 26.3907 53.3789 26.3848C53.4609 26.3204 53.5371 26.25 53.6133 26.1856C53.8008 26.0215 53.9766 25.8457 54.1523 25.6582C54.2637 25.5411 54.3691 25.4239 54.4687 25.295C54.4746 25.2832 54.4863 25.2774 54.4922 25.2657C54.5391 25.1895 54.6035 25.1133 54.6562 25.043C54.7676 24.8848 54.873 24.7207 54.9668 24.5567C54.9844 24.5215 55.0078 24.4864 55.0254 24.4571C55.1133 24.2989 55.2012 24.1407 55.2773 23.9766C55.3125 23.9004 55.3535 23.8184 55.3887 23.7422C55.5352 23.3555 55.6641 22.9629 55.752 22.5528C55.7812 22.4239 55.8047 22.2891 55.8281 22.1602V22.1309C55.8281 22.125 55.8281 22.1192 55.834 22.1133C55.8398 22.0547 55.8516 21.9786 55.8574 21.9317C55.8691 21.8262 55.875 21.7149 55.8809 21.6094L55.8984 21.0997V19.9395C55.8867 19.5938 55.8809 19.2832 55.8809 18.9668ZM37.1719 9.60356C37.1719 9.60942 37.1719 9.61528 37.1777 9.61528V9.62113C37.1836 9.65043 37.1895 9.66801 37.1777 9.63871C37.1719 9.64457 37.1602 9.63285 37.1543 9.62113C37.1836 11.1446 37.1719 12.668 37.1602 14.1914H22.8457V9.62699C22.8281 9.65043 22.8164 9.65629 22.8105 9.65043C22.7988 9.66801 22.7988 9.63285 22.8047 9.59184C22.7754 9.62699 22.7578 9.63285 22.8047 9.58012C22.8047 9.55668 22.8105 9.5391 22.8164 9.51567C22.8223 9.50395 22.8223 9.48637 22.8281 9.47465C22.7871 9.47465 22.7988 9.46293 22.834 9.45707C22.8398 9.42777 22.8516 9.41606 22.8516 9.45121C22.8633 9.45121 22.875 9.44535 22.8926 9.44535V9.43363V9.43949C22.916 9.43363 22.9336 9.43363 22.957 9.42777C22.9805 9.40434 22.9922 9.39848 22.998 9.39262L22.9629 9.42777C23.0098 9.42192 23.0449 9.42192 23.0273 9.43363C23.0332 9.43949 23.0273 9.45121 23.0039 9.46879H36.5098C36.6855 9.46879 36.8555 9.46293 37.0312 9.46879C37.0195 9.46293 37.0137 9.46293 37.0078 9.45707C36.9668 9.43363 36.9785 9.42778 37.0078 9.42192C36.9902 9.4102 36.9961 9.4102 37.0137 9.42192H37.0371C37.0137 9.40434 37.002 9.39262 36.9961 9.38676C36.9961 9.38676 37.0137 9.39848 37.043 9.42192C37.0664 9.42192 37.0898 9.42777 37.1133 9.42777C37.125 9.42777 37.1309 9.43363 37.1426 9.43363C37.1426 9.42192 37.1426 9.41606 37.1484 9.41606C37.1484 9.41606 37.1543 9.42192 37.1543 9.43363C37.207 9.44535 37.2305 9.45707 37.1543 9.46293V9.49223C37.1719 9.49809 37.1836 9.50395 37.1895 9.50395C37.1836 9.50395 37.166 9.50395 37.1543 9.49809V9.50395C37.1602 9.50981 37.1719 9.51567 37.1836 9.52738C37.1777 9.52738 37.1719 9.52152 37.1602 9.51567C37.1602 9.52738 37.166 9.53324 37.166 9.54496C37.1836 9.5684 37.207 9.59184 37.2246 9.60356C37.207 9.59184 37.1895 9.57426 37.1719 9.56254V9.60356Z"/>
</symbol><symbol viewBox="0 0 60 60" id="nav-contact" xmlns="http://www.w3.org/2000/svg">
    <path d="M31.2501 8.75C27.5499 8.75004 23.9069 9.66259 20.6437 11.4068C17.3805 13.1511 14.5978 15.6732 12.5421 18.7498C10.4865 21.8263 9.22125 25.3624 8.85859 29.0447C8.49592 32.727 9.04699 36.4419 10.463 39.8604C11.879 43.2789 14.1162 46.2954 16.9764 48.6427C19.8366 50.9901 23.2316 52.5958 26.8607 53.3177C30.4897 54.0395 34.2408 53.8553 37.7816 52.7812C41.3224 51.7071 44.5437 49.7764 47.1601 47.16C47.6155 46.6885 47.8674 46.057 47.8617 45.4015C47.856 44.746 47.5931 44.119 47.1296 43.6555C46.6661 43.1919 46.039 42.929 45.3836 42.9233C44.7281 42.9176 44.0966 43.1696 43.6251 43.625C40.7623 46.488 36.9955 48.2698 32.9663 48.6669C28.9371 49.064 24.8949 48.0517 21.5284 45.8025C18.1619 43.5534 15.6794 40.2065 14.5039 36.3322C13.3284 32.4579 13.5326 28.2959 15.0818 24.5553C16.6309 20.8147 19.4291 17.7269 22.9996 15.8182C26.5701 13.9094 30.692 13.2977 34.663 14.0873C38.6339 14.8769 42.2083 17.0189 44.777 20.1484C47.3457 23.278 48.7498 27.2013 48.7501 31.25C48.7501 32.2446 48.355 33.1984 47.6517 33.9017C46.9484 34.6049 45.9946 35 45.0001 35C44.0055 35 43.0517 34.6049 42.3484 33.9017C41.6451 33.1984 41.2501 32.2446 41.2501 31.25C41.2501 29.2722 40.6636 27.3388 39.5648 25.6943C38.4659 24.0498 36.9042 22.7681 35.0769 22.0112C33.2496 21.2543 31.239 21.0563 29.2992 21.4422C27.3593 21.828 25.5775 22.7804 24.179 24.1789C22.7805 25.5775 21.8281 27.3593 21.4422 29.2991C21.0563 31.2389 21.2544 33.2496 22.0113 35.0768C22.7681 36.9041 24.0499 38.4659 25.6944 39.5647C27.3388 40.6635 29.2722 41.25 31.2501 41.25C32.731 41.261 34.1949 40.9333 35.5298 40.2921C36.8648 39.6508 38.0355 38.7129 38.9526 37.55C40.1868 38.7415 41.7446 39.543 43.4316 39.8546C45.1185 40.1662 46.8599 39.9739 48.4383 39.3019C50.0167 38.6299 51.3622 37.5079 52.3068 36.076C53.2515 34.644 53.7535 32.9655 53.7501 31.25C53.7517 28.2948 53.1708 25.3682 52.0407 22.6377C50.9105 19.9071 49.2533 17.4261 47.1636 15.3364C45.074 13.2468 42.5929 11.5895 39.8624 10.4594C37.1318 9.32922 34.2053 8.74836 31.2501 8.75ZM31.2501 36.2025C30.5946 36.2128 29.9437 36.0921 29.3355 35.8475C28.7273 35.6029 28.1741 35.2392 27.7084 34.7779C27.2426 34.3166 26.8737 33.7669 26.6233 33.1611C26.3729 32.5553 26.246 31.9055 26.2501 31.25C26.2501 29.9239 26.7768 28.6522 27.7145 27.7145C28.6522 26.7768 29.924 26.25 31.2501 26.25C32.5761 26.25 33.8479 26.7768 34.7856 27.7145C35.7233 28.6522 36.2501 29.9239 36.2501 31.25C36.2541 31.9055 36.1272 32.5553 35.8768 33.1611C35.6264 33.7669 35.2575 34.3166 34.7917 34.7779C34.326 35.2392 33.7728 35.6029 33.1646 35.8475C32.5564 36.0921 31.9055 36.2128 31.2501 36.2025Z"/>
</symbol><symbol viewBox="0 0 60 60" id="nav-docs" xmlns="http://www.w3.org/2000/svg">
    <path d="M29.685 54.95C29.785 54.99 29.895 55 30.005 55C30.115 55 30.215 54.98 30.325 54.95C40.955 51.38 48.375 40.13 48.375 27.6V10.93C48.375 10.62 48.235 10.33 47.985 10.14C47.745 9.94995 47.425 9.88995 47.125 9.95996C47.015 9.98999 36.275 12.61 30.805 5.39996C30.615 5.14996 30.315 5 30.005 5C29.695 5 29.395 5.14996 29.205 5.39996C23.725 12.61 12.975 9.98999 12.875 9.95996C12.575 9.88995 12.255 9.94995 12.015 10.14C11.765 10.33 11.625 10.62 11.625 10.93V27.6C11.625 33.78 13.345 39.66 16.605 44.62C19.895 49.61 24.415 53.18 29.685 54.95ZM29.995 20.63C33.175 20.63 35.755 23.21 35.755 26.38C35.755 28.26 34.835 29.99 33.315 31.06L34.185 35.17C34.255 35.46 34.175 35.77 33.985 36.01C33.795 36.24 33.515 36.38 33.215 36.38H26.785C26.485 36.38 26.195 36.24 26.005 36.01C25.815 35.77 25.745 35.46 25.805 35.17L26.685 31.06C25.165 29.99 24.245 28.26 24.245 26.38C24.245 23.21 26.825 20.63 29.995 20.63Z"/>
</symbol><symbol viewBox="0 0 60 60" id="nav-link" xmlns="http://www.w3.org/2000/svg">
    <g clip-path="url(#awclip0_201_101)">
        <path d="M25.5801 25.5775C27.8479 23.3098 30.9006 22.0005 34.1067 21.9205C37.3127 21.8405 40.4269 22.9958 42.8051 25.1475L43.2576 25.5775L50.3276 32.65C52.6302 34.9566 53.9408 38.0714 53.98 41.3304C54.0193 44.5894 52.7841 47.7349 50.5377 50.0963C48.2913 52.4578 45.2115 53.8485 41.9546 53.972C38.6977 54.0955 35.5213 52.942 33.1026 50.7575L32.6526 50.3275L27.3476 45.0225C26.8992 44.5726 26.6389 43.9689 26.6195 43.334C26.6001 42.6991 26.8231 42.0807 27.2432 41.6043C27.6633 41.1278 28.249 40.8292 28.8813 40.769C29.5136 40.7087 30.1451 40.8914 30.6476 41.2799L30.8826 41.4874L36.1876 46.7924C37.5628 48.1757 39.4227 48.9687 41.3729 49.0034C43.3231 49.0381 45.21 48.3117 46.6335 46.9783C48.0571 45.6448 48.9051 43.8093 48.9978 41.861C49.0905 39.9128 48.4206 38.005 47.1301 36.5424L46.7926 36.1849L39.7226 29.115C39.0261 28.4184 38.1993 27.8658 37.2893 27.4888C36.3792 27.1118 35.4039 26.9178 34.4188 26.9178C33.4338 26.9178 32.4584 27.1118 31.5484 27.4888C30.6384 27.8658 29.8115 28.4184 29.1151 29.115C28.646 29.5837 28.0099 29.8469 27.3467 29.8467C26.6835 29.8465 26.0476 29.5828 25.5788 29.1137C25.1101 28.6446 24.8468 28.0085 24.8471 27.3453C24.8473 26.6821 25.111 26.0462 25.5801 25.5775ZM9.67008 9.66745C11.9379 7.39978 14.9906 6.09052 18.1967 6.01049C21.4027 5.93045 24.5169 7.08576 26.8951 9.23745L27.3476 9.66745L32.6501 14.975C33.0985 15.4248 33.3588 16.0285 33.3782 16.6634C33.3975 17.2983 33.1745 17.9167 32.7545 18.3931C32.3344 18.8696 31.7487 19.1682 31.1164 19.2284C30.4841 19.2887 29.8526 19.106 29.3501 18.7175L29.1151 18.51L23.8126 13.2075C22.435 11.8388 20.5803 11.0579 18.6387 11.0289C16.697 10.9999 14.8198 11.7251 13.402 13.0519C11.9841 14.3788 11.1362 16.2038 11.0365 18.1431C10.9369 20.0824 11.5932 21.9847 12.8676 23.45L13.2051 23.81L20.2776 30.8825C21.684 32.2885 23.5914 33.0784 25.5801 33.0784C27.5688 33.0784 29.4761 32.2885 30.8826 30.8825C31.1147 30.6502 31.3903 30.4659 31.6936 30.3401C31.9969 30.2144 32.3221 30.1496 32.6504 30.1494C32.9788 30.1493 33.304 30.2139 33.6074 30.3394C33.9108 30.465 34.1866 30.6491 34.4188 30.8812C34.6511 31.1133 34.8354 31.3889 34.9612 31.6922C35.0869 31.9956 35.1517 32.3207 35.1518 32.6491C35.152 32.9774 35.0874 33.3026 34.9618 33.606C34.8363 33.9095 34.6522 34.1852 34.4201 34.4174C32.1523 36.6851 29.0996 37.9944 25.8935 38.0744C22.6874 38.1544 19.5732 36.9991 17.1951 34.8475L16.7401 34.4174L9.67008 27.3449C7.3267 25.0009 6.01025 21.822 6.01025 18.5075C6.01025 15.1929 7.3267 12.0115 9.67008 9.66745Z"/>
    </g>
    <defs>
        <clipPath id="awclip0_201_101">
            <rect width="60" height="60"/>
        </clipPath>
    </defs>
</symbol><symbol viewBox="0 0 60 60" id="nav-plugins" xmlns="http://www.w3.org/2000/svg">
    <path d="M31.1459 11.46V18.252H29.9459C28.5779 18.252 27.4619 19.356 27.4619 20.724C27.4619 22.092 28.5779 23.196 29.9459 23.196H31.1459V28.368H34.5059C35.0459 26.268 36.9659 24.696 39.2339 24.696C41.5019 24.696 43.4219 26.268 43.9619 28.368H48.5099V24.432C50.5379 24.432 52.1819 22.788 52.1819 20.76C52.1819 18.732 50.5379 17.076 48.5099 17.076V11.46H44.0939C44.0352 11.58 44.4292 16.788 39.2219 16.788C34.0284 16.788 34.3966 11.58 34.338 11.46H31.1459Z"/>
    <path d="M20.6581 7.752C18.6301 7.752 16.9861 9.396 16.9741 11.424H11.3701V15.852C11.4901 15.9095 16.8061 15.338 16.8061 20.724C16.8061 26.0786 11.4902 25.5504 11.3701 25.608V30.024H16.9741C16.9741 32.0422 18.6274 33.696 20.6581 33.696C22.6861 33.696 24.3301 32.052 24.3301 30.024H29.9221C29.9249 29.3657 29.9476 24.0727 29.9461 24.396C27.9181 24.396 26.2621 22.752 26.2621 20.724C26.2621 18.696 27.9181 17.052 29.9461 17.052V11.424H24.3301C24.3301 9.396 22.6861 7.752 20.6581 7.752Z"/>
    <path d="M29.9461 30.024H29.9221V30.048H29.9461V30.024Z"/>
    <path d="M15.7741 48.168C16.4863 45.393 17.1704 43.212 20.6461 43.212C25.5366 43.212 25.4669 48.0479 25.5301 48.168H29.9461V42.552C31.9741 42.552 33.6181 40.908 33.6181 38.868C33.6181 36.85 31.9746 35.196 29.9461 35.196V31.224H25.3861C24.8461 33.336 22.9261 34.896 20.6581 34.896C18.315 34.896 16.4469 33.2804 15.9181 31.224H11.3461V35.196C9.31807 35.196 7.67407 36.84 7.67407 38.868C7.67407 40.896 9.31807 42.54 11.3461 42.552V48.168H15.7741Z"/>
    <path d="M42.906 48.168H48.522V43.752C48.402 43.6933 43.194 44.0617 43.194 38.868C43.194 33.6605 48.402 34.0547 48.522 33.996V29.568H42.906C42.906 27.54 41.262 25.896 39.234 25.896C37.206 25.896 35.562 27.54 35.562 29.568H31.146V34.14C33.1504 34.6483 34.818 36.51 34.818 38.868C34.818 41.148 33.258 43.068 31.146 43.596V48.168H35.562C35.562 50.196 37.206 51.84 39.234 51.84C41.2128 51.84 42.906 50.2349 42.906 48.168Z"/>
    <path d="M50.706 43.248C51.366 43.248 51.906 42.72 51.906 42.048V40.692L58.782 39.984V37.764L51.906 37.056V35.688C51.906 35.028 51.366 34.488 50.706 34.488H49.698V35.196C49.578 35.2097 44.394 34.567 44.394 38.868C44.394 43.3483 49.4885 42.4871 49.698 42.552V43.248H50.706ZM17.466 51.924H18.834L19.542 58.8H21.762L22.47 51.924H23.826C24.498 51.924 25.026 51.384 25.026 50.724V49.716H24.33V48.096C24.33 46.0148 22.6378 44.412 20.646 44.412C18.618 44.412 16.974 46.0561 16.974 48.096V49.716H16.266V50.724C16.266 51.384 16.806 51.924 17.466 51.924ZM9.30602 16.344C8.63402 16.344 8.10602 16.884 8.10602 17.544V18.912L1.21802 19.62V21.84L8.10602 22.548V23.904C8.10602 24.576 8.63402 25.104 9.30602 25.104H10.302V24.408C10.4241 24.394 15.606 25.0478 15.606 20.724C15.606 16.2617 10.5027 17.1142 10.302 17.052V16.344H9.30602ZM43.602 10.284V9.288C43.602 8.616 43.062 8.088 42.402 8.088H41.034L40.326 1.2H38.106L37.398 8.088H36.042C35.37 8.088 34.842 8.616 34.842 9.288V10.284H35.538C35.5521 10.406 34.8984 15.588 39.2219 15.588C43.6842 15.588 42.8317 10.4845 42.8939 10.284H43.602Z"/>
</symbol><symbol viewBox="0 0 60 60" id="nav-security" xmlns="http://www.w3.org/2000/svg">
    <path d="M29.685 54.95C29.785 54.99 29.895 55 30.005 55C30.115 55 30.215 54.98 30.325 54.95C40.955 51.38 48.375 40.13 48.375 27.6V10.93C48.375 10.62 48.235 10.33 47.985 10.14C47.745 9.94995 47.425 9.88995 47.125 9.95996C47.015 9.98999 36.275 12.61 30.805 5.39996C30.615 5.14996 30.315 5 30.005 5C29.695 5 29.395 5.14996 29.205 5.39996C23.725 12.61 12.975 9.98999 12.875 9.95996C12.575 9.88995 12.255 9.94995 12.015 10.14C11.765 10.33 11.625 10.62 11.625 10.93V27.6C11.625 33.78 13.345 39.66 16.605 44.62C19.895 49.61 24.415 53.18 29.685 54.95ZM29.995 20.63C33.175 20.63 35.755 23.21 35.755 26.38C35.755 28.26 34.835 29.99 33.315 31.06L34.185 35.17C34.255 35.46 34.175 35.77 33.985 36.01C33.795 36.24 33.515 36.38 33.215 36.38H26.785C26.485 36.38 26.195 36.24 26.005 36.01C25.815 35.77 25.745 35.46 25.805 35.17L26.685 31.06C25.165 29.99 24.245 28.26 24.245 26.38C24.245 23.21 26.825 20.63 29.995 20.63Z"/>
</symbol><symbol viewBox="0 0 70 70" id="nav-terminal" xmlns="http://www.w3.org/2000/svg">
    <path d="M56.5476 22.519H46.5186V16.2313C46.5186 14.616 45.204 13.3015 43.5887 13.3015H40.708V8.50537C40.708 7.56133 39.9431 6.79639 38.999 6.79639H18.4912C17.5472 6.79639 16.7822 7.56133 16.7822 8.50537V13.3015H13.9016C12.2862 13.3015 10.9717 14.616 10.9717 16.2313V59.5903C10.9717 61.2057 12.2862 62.5202 13.9016 62.5202H43.5887C45.204 62.5202 46.5186 61.2057 46.5186 59.5903V52.5972H56.5476C58.2921 52.5972 59.7119 51.1773 59.7119 49.4328V25.6834C59.7119 23.9382 58.2921 22.519 56.5476 22.519ZM36.2646 50.5382V47.1202H39.6826V50.5382H36.2646ZM39.6826 53.8194V57.2374H36.2646V53.8194H39.6826ZM36.2646 43.839V40.421H39.6826V43.839H36.2646ZM17.8076 35.8491V25.5952H39.6826V35.8491H17.8076ZM27.0361 50.5382V47.1202H30.4541V50.5382H27.0361ZM30.4541 53.8194V57.2374H27.0361V53.8194H30.4541ZM27.0361 43.839V40.421H30.4541V43.839H27.0361ZM17.8076 50.5382V47.1202H21.2256V50.5382H17.8076ZM21.2256 53.8194V57.2374H17.8076V53.8194H21.2256ZM17.8076 43.839V40.421H21.2256V43.839H17.8076ZM20.2002 10.2144H37.29V17.7339H40.3662V19.7847H17.124V17.7339H20.2002V10.2144ZM56.2939 49.1792H46.5186V25.937H50.238V44.0522H53.656V25.937H56.2939V49.1792Z"/>
</symbol><symbol viewBox="0 0 66 66" id="nav-wallet" xmlns="http://www.w3.org/2000/svg">
    <path d="M54.2231 26.5444V19.7724C54.2231 18.1933 52.938 16.9081 51.3582 16.9081H51.0005V13.4895C51.0005 11.4263 49.3208 9.74731 47.2571 9.74731H12.3318C9.84975 9.74731 7.7692 11.6049 7.49334 14.067C7.47272 14.2494 7.4624 14.4343 7.4624 14.6167C7.4624 14.7005 7.46434 14.783 7.46885 14.8655C7.46885 14.8662 7.46885 14.8668 7.46885 14.8668C7.46434 14.9023 7.4624 14.9377 7.4624 14.9745V47.3112C7.4624 51.4917 10.8629 54.8929 15.0434 54.8929H51.3582C52.938 54.8929 54.2231 53.6077 54.2231 52.0286V45.2565C56.8206 45.0122 58.8605 42.8189 58.8605 40.1589V31.642C58.8605 28.9821 56.8206 26.7887 54.2231 26.5444ZM10.6851 14.6167C10.6851 14.5555 10.6883 14.4924 10.6954 14.4279C10.7888 13.5971 11.492 12.97 12.3318 12.97H47.2571C47.5439 12.97 47.7778 13.2033 47.7778 13.4895V16.2635H12.3318C11.4237 16.2635 10.6851 15.5249 10.6851 14.6167ZM17.0208 44.6764H14.4427V27.1245H17.0208V44.6764ZM55.6379 40.1589C55.6379 40.748 55.3691 41.2746 54.947 41.6226C54.9005 41.6613 54.8516 41.698 54.8013 41.7322C54.6498 41.8347 54.4829 41.9152 54.3044 41.9706C54.2773 41.9797 54.2489 41.9874 54.2212 41.9945C54.0678 42.0351 53.9067 42.0564 53.7404 42.0564H42.8523C42.4598 42.0564 42.0763 42.0196 41.7044 41.9494C41.6516 41.9391 41.5987 41.9288 41.5459 41.9172C41.4054 41.8869 41.2668 41.8514 41.1301 41.8121C40.9484 41.7592 40.7698 41.698 40.5952 41.6291C40.5681 41.6187 40.5417 41.6078 40.5153 41.5968C40.4953 41.5891 40.4759 41.5807 40.456 41.5723C40.2832 41.4995 40.115 41.4189 39.9506 41.3306C39.8959 41.301 39.8417 41.2713 39.7882 41.2404C39.6806 41.1792 39.5755 41.1141 39.4718 41.0458C39.3686 40.9781 39.2674 40.9072 39.1688 40.8331C39.1095 40.7886 39.0509 40.7435 38.9935 40.6971C38.9362 40.6507 38.8794 40.603 38.8234 40.5546C38.7866 40.5224 38.7492 40.4895 38.7131 40.4566C37.4744 39.3307 36.6964 37.7058 36.6964 35.8998C36.6964 34.2002 37.3854 32.6617 38.4992 31.5479C38.5514 31.4957 38.6049 31.4442 38.6584 31.3939C38.7125 31.3436 38.7673 31.294 38.8234 31.2457C38.8981 31.1812 38.9742 31.1187 39.0515 31.0574C39.1289 30.9962 39.2081 30.9376 39.2887 30.8802C39.4092 30.7945 39.533 30.7133 39.66 30.6359C39.745 30.5844 39.8308 30.5347 39.9178 30.4877C40.1111 30.3826 40.3103 30.2879 40.5153 30.2041H40.5159C40.5881 30.1738 40.6616 30.1454 40.7357 30.1184C41.3957 29.8767 42.1085 29.7445 42.8523 29.7445H53.7404C53.9067 29.7445 54.0678 29.7658 54.2212 29.8064C54.2438 29.8122 54.2657 29.8187 54.2882 29.8251C54.3321 29.838 54.3759 29.8528 54.4191 29.8696C54.4404 29.878 54.4616 29.8863 54.4829 29.8954C54.6234 29.9547 54.7549 30.0314 54.8754 30.1216C54.9121 30.1487 54.9476 30.177 54.9818 30.2073C55.0159 30.2376 55.0494 30.2685 55.0817 30.3008C55.4252 30.6437 55.6379 31.118 55.6379 31.642V40.1589Z"/>
    <path d="M42.5261 38.2942C43.8482 38.2942 44.9199 37.2224 44.9199 35.9004C44.9199 34.5783 43.8482 33.5066 42.5261 33.5066C41.2041 33.5066 40.1323 34.5783 40.1323 35.9004C40.1323 37.2224 41.2041 38.2942 42.5261 38.2942Z"/>
</symbol><symbol viewBox="0 0 60 60" id="polygon" xmlns="http://www.w3.org/2000/svg">
    <g clip-path="url(#bbclip0_115_5481)">
        <path d="M30 0C13.4306 0 0 13.4306 0 30C0 46.5694 13.4306 60 30 60C46.5694 60 60 46.5694 60 30C60 13.4306 46.5694 0 30 0ZM20.67 12.5353C21.2552 12.4383 21.8561 12.5375 22.3791 12.8175L30.7509 17.6845C31.1362 17.8858 31.4575 18.1909 31.6782 18.5654C31.8989 18.9399 32.0103 19.3687 31.9997 19.8033V23.0822L28.0955 25.4095V22.0266C28.0814 21.5944 27.9574 21.1731 27.7351 20.8022C27.5128 20.4314 27.1996 20.1234 26.8252 19.9073L22.275 17.3672C21.8844 17.158 21.4482 17.0486 21.0052 17.0486C20.5621 17.0486 20.1259 17.158 19.7353 17.3672L15.1852 19.9069C14.7961 20.1055 14.4706 20.4094 14.2459 20.784C14.0212 21.1586 13.9063 21.5889 13.9144 22.0256V27.3108C13.9284 27.7429 14.0525 28.1643 14.2747 28.5351C14.497 28.9059 14.8102 29.2139 15.1847 29.43L19.7353 32.078C20.1262 32.2863 20.5623 32.3952 21.0052 32.3952C21.4481 32.3952 21.8841 32.2863 22.275 32.078L28.0003 28.6903L31.9997 26.4675L37.725 23.0817C38.1159 22.8734 38.5519 22.7645 38.9948 22.7645C39.4377 22.7645 39.8738 22.8734 40.2647 23.0817L48.7298 27.9459C49.1189 28.144 49.4444 28.4476 49.6692 28.8219C49.8939 29.1963 50.0087 29.6263 50.0006 30.0628V39.9066C49.987 40.3369 49.8642 40.7567 49.6438 41.1266C49.4234 41.4965 49.1126 41.8043 48.7406 42.0211L40.2759 46.8891C39.885 47.0982 39.4485 47.2077 39.0052 47.2077C38.5618 47.2077 38.1253 47.0982 37.7344 46.8891L29.2692 42.0234C28.8804 41.8247 28.5552 41.5207 28.3308 41.1461C28.1065 40.7714 27.9919 40.3413 28.0003 39.9047V36.5203L31.8 34.2994V37.6978C31.8143 38.1294 31.9385 38.5503 32.1607 38.9205C32.383 39.2908 32.6961 39.5982 33.0703 39.8137L37.6209 42.3534C38.0115 42.5626 38.4477 42.6721 38.8908 42.6721C39.3338 42.6721 39.7701 42.5626 40.1606 42.3534L44.7108 39.7097C45.0993 39.5113 45.4242 39.2077 45.6486 38.8336C45.8729 38.4595 45.9876 38.0299 45.9797 37.5938V32.408C45.9659 31.976 45.8421 31.5548 45.6201 31.184C45.398 30.8133 45.0851 30.5053 44.7108 30.2892L40.1606 27.75C39.7698 27.5417 39.3337 27.4328 38.8908 27.4328C38.4479 27.4328 38.0118 27.5417 37.6209 27.75L31.9153 31.0205L28.0003 33.3478L22.275 36.6291C21.8841 36.8374 21.4481 36.9463 21.0052 36.9463C20.5623 36.9463 20.1262 36.8374 19.7353 36.6291L11.2702 31.7503C10.8826 31.5528 10.5582 31.2507 10.3336 30.8782C10.109 30.5057 9.99319 30.0777 9.99938 29.6428V19.8028C9.97727 19.35 10.0982 18.9017 10.345 18.5214C10.5919 18.1412 10.9521 17.8482 11.3747 17.6841L19.8394 12.8175C20.0989 12.6786 20.3795 12.5833 20.67 12.5353Z"/>
    </g>
    <defs>
        <clipPath id="bbclip0_115_5481">
            <rect width="60" height="60"/>
        </clipPath>
    </defs>
</symbol><symbol viewBox="0 0 30 30" id="reddit" xmlns="http://www.w3.org/2000/svg">
    <path d="M28.4286 14.6984C28.4286 12.992 27.0396 11.6042 25.3341 11.6042C24.5952 11.6042 23.904 11.8745 23.3463 12.3473C23.3283 12.3584 23.3097 12.3689 23.292 12.3803C21.2799 11.093 18.6117 10.271 15.6603 10.1594L17.4219 5.14997L21.8187 6.20117C21.8223 7.59107 22.953 8.72117 24.3447 8.72117C25.7373 8.72117 26.8713 7.58807 26.8713 6.19487C26.8713 4.80107 25.7373 3.66797 24.3447 3.66797C23.286 3.66797 22.3815 4.32257 22.0065 5.24597L16.7973 4.00097L14.634 10.148C11.5563 10.2059 8.76722 11.0387 6.68012 12.3692C6.11822 11.8817 5.41712 11.6039 4.66472 11.6039C2.95862 11.6039 1.57172 12.992 1.57172 14.6981C1.57172 15.7535 2.11622 16.7285 2.99852 17.2961C2.94218 17.6052 2.91277 17.9187 2.91062 18.233C2.91062 22.6988 8.32352 26.3321 14.9763 26.3321C21.6303 26.3321 27.0435 22.6988 27.0435 18.233C27.0419 17.9277 27.0146 17.6231 26.9619 17.3225C27.8679 16.7591 28.4286 15.77 28.4286 14.6984ZM19.0794 18.7043C18.8298 18.7043 18.5826 18.6551 18.3519 18.5596C18.1213 18.464 17.9117 18.324 17.7353 18.1474C17.5588 17.9708 17.4188 17.7612 17.3234 17.5305C17.228 17.2998 17.179 17.0525 17.1792 16.8029C17.1793 16.4268 17.2908 16.0593 17.4998 15.7467C17.7088 15.434 18.0058 15.1904 18.3532 15.0466C18.7007 14.9028 19.0829 14.8652 19.4517 14.9387C19.8205 15.0122 20.1592 15.1933 20.425 15.4593C20.6908 15.7253 20.8718 16.0641 20.945 16.4329C21.0182 16.8018 20.9805 17.184 20.8364 17.5314C20.6924 17.8787 20.4486 18.1756 20.1358 18.3843C19.8231 18.5931 19.4554 18.7044 19.0794 18.7043ZM19.4577 21.9461C19.4007 22.0043 18.0378 23.3924 14.955 23.3924C11.8551 23.3924 10.6161 21.9857 10.5642 21.9251C10.4808 21.827 10.4395 21.6999 10.4495 21.5716C10.4595 21.4432 10.52 21.3241 10.6176 21.2402C10.7153 21.1573 10.8417 21.116 10.9695 21.1254C11.0973 21.1347 11.2163 21.1938 11.301 21.29C11.3286 21.3212 12.363 22.4213 14.955 22.4213C17.5902 22.4213 18.7467 21.2819 18.759 21.2708C18.8494 21.1818 18.9709 21.1316 19.0978 21.131C19.2246 21.1304 19.3466 21.1794 19.4378 21.2676C19.529 21.3557 19.5821 21.476 19.5858 21.6028C19.5896 21.7295 19.5436 21.8527 19.4577 21.9461ZM9.24272 16.8029C9.23835 16.5504 9.28432 16.2996 9.37794 16.0651C9.47157 15.8306 9.61096 15.6171 9.788 15.4371C9.96503 15.257 10.1762 15.1141 10.4091 15.0165C10.6419 14.919 10.8919 14.8688 11.1444 14.8689C11.3969 14.869 11.6469 14.9194 11.8797 15.0172C12.1125 15.115 12.3235 15.2582 12.5003 15.4384C12.6772 15.6186 12.8164 15.8322 12.9098 16.0668C13.0032 16.3014 13.0489 16.5522 13.0443 16.8047C13.0352 17.3029 12.8309 17.7777 12.4752 18.1268C12.1195 18.4759 11.641 18.6713 11.1426 18.6711C10.6443 18.6709 10.1659 18.475 9.8106 18.1255C9.45526 17.7761 9.25133 17.3011 9.24272 16.8029Z"/>
</symbol><symbol viewBox="0 0 48 48" id="slide-arrow-left" xmlns="http://www.w3.org/2000/svg">
    <path d="M28 14L18 24L28 34" stroke-width="2" stroke-linecap="round" stroke-linejoin="round"/>
</symbol><symbol viewBox="0 0 48 48" id="slide-arrow-right" xmlns="http://www.w3.org/2000/svg">
    <path d="M20 14L30 24L20 34" stroke-width="2" stroke-linecap="round" stroke-linejoin="round"/>
</symbol><symbol viewBox="0 0 30 30" id="telegram" xmlns="http://www.w3.org/2000/svg">
    <path d="M25.8312 4.64627L3.66875 13.1925C2.15625 13.8 2.165 14.6438 3.39125 15.02L9.08125 16.795L22.2462 8.48877C22.8687 8.11002 23.4375 8.31377 22.97 8.72877L12.3037 18.355H12.3012L12.3037 18.3563L11.9112 24.2213C12.4862 24.2213 12.74 23.9575 13.0625 23.6463L15.8262 20.9588L21.575 25.205C22.635 25.7888 23.3962 25.4888 23.66 24.2238L27.4337 6.43877C27.82 4.89002 26.8425 4.18877 25.8312 4.64627Z"/>
</symbol><symbol viewBox="0 0 60 60" id="tron-trx" xmlns="http://www.w3.org/2000/svg">
    <g clip-path="url(#bgclip0_115_5483)">
        <path d="M57.7031 18.075C54.8906 15.4781 51 11.5125 47.8313 8.7L47.6437 8.56875C47.3318 8.31823 46.98 8.12176 46.6031 7.9875C38.9625 6.5625 3.40313 -0.0843723 2.70938 2.72953e-06C2.51498 0.0272278 2.32917 0.0977077 2.16562 0.206253L1.9875 0.346878C1.76817 0.569628 1.60158 0.838731 1.5 1.13438L1.45312 1.25625V1.92188V2.025C5.45625 13.1719 21.2625 49.6875 24.375 58.2563C24.5625 58.8375 24.9188 59.9438 25.5844 60H25.7344C26.0906 60 27.6094 57.9938 27.6094 57.9938C27.6094 57.9938 54.7594 25.0688 57.5063 21.5625C57.8618 21.1306 58.1757 20.666 58.4438 20.175C58.5122 19.7908 58.4799 19.3954 58.3501 19.0274C58.2203 18.6594 57.9974 18.3313 57.7031 18.075ZM34.575 21.9094L46.1625 12.3L52.9594 18.5625L34.575 21.9094ZM30.075 21.2813L10.125 4.93125L42.4031 10.8844L30.075 21.2813ZM31.875 25.5656L52.2938 22.275L28.95 50.4L31.875 25.5656ZM7.41562 6.5625L28.4062 24.375L25.3687 50.4188L7.41562 6.5625Z"/>
    </g>
    <defs>
        <clipPath id="bgclip0_115_5483">
            <rect width="60" height="60"/>
        </clipPath>
    </defs>
</symbol><symbol viewBox="0 0 92 55" id="trusted-slide-decor" xmlns="http://www.w3.org/2000/svg">
    <path d="M35.6 54.2H0.600001L23 0.599996H46L35.6 54.2ZM81 54.2H46.2L68.6 0.599996H91.4L81 54.2Z"/>
</symbol><symbol viewBox="0 0 30 30" id="twitter" xmlns="http://www.w3.org/2000/svg">
    <path d="M24.9938 8.35999C26.1143 7.6901 26.9527 6.63528 27.3525 5.39249C26.2996 6.01724 25.1476 6.45733 23.9463 6.69374C22.2807 4.9319 19.6419 4.50314 17.5043 5.64706C15.3666 6.79097 14.2594 9.22435 14.8013 11.5875C10.4883 11.371 6.46998 9.33363 3.74627 5.98249C2.32482 8.43426 3.05121 11.5685 5.40627 13.145C4.55466 13.1176 3.72193 12.887 2.97752 12.4725C2.97752 12.495 2.97752 12.5175 2.97752 12.54C2.97801 15.0939 4.77798 17.2938 7.28127 17.8C6.49135 18.0149 5.66278 18.0465 4.85877 17.8925C5.56277 20.0766 7.57571 21.5728 9.87002 21.6175C7.96981 23.1089 5.62311 23.9177 3.20752 23.9137C2.77936 23.9144 2.35153 23.8897 1.92627 23.84C4.37926 25.4163 7.23423 26.2529 10.15 26.25C14.2066 26.2778 18.1051 24.6786 20.9734 21.81C23.8418 18.9414 25.4407 15.0428 25.4125 10.9862C25.4125 10.7537 25.4071 10.5225 25.3963 10.2925C26.4468 9.53324 27.3535 8.59267 28.0738 7.51499C27.095 7.94881 26.0569 8.23364 24.9938 8.35999Z"/>
</symbol><symbol viewBox="0 0 60 60" id="usdt" xmlns="http://www.w3.org/2000/svg">
    <g clip-path="url(#bjclip0_115_5486)">
        <path fill-rule="evenodd" clip-rule="evenodd" d="M30 60C13.4306 60 0 46.5694 0 30C0 13.4306 13.4306 0 30 0C46.5694 0 60 13.4306 60 30C60 46.5694 46.5694 60 30 60ZM33.6038 25.8619V21.4256H43.755V14.6606H16.1156V21.4256H26.2669V25.86C18.0169 26.2388 11.8125 27.8737 11.8125 29.8312C11.8125 31.7887 18.0169 33.4219 26.2669 33.8025V48.0188H33.6038V33.7987C41.8406 33.42 48.03 31.7869 48.03 29.8312C48.03 27.8756 41.8406 26.2425 33.6038 25.8619ZM33.6038 32.5931V32.5894C33.3975 32.6044 32.3344 32.6681 29.9625 32.6681C28.0687 32.6681 26.7356 32.6119 26.2669 32.5894V32.595C18.9769 32.2744 13.5356 31.005 13.5356 29.4862C13.5356 27.9694 18.9769 26.7 26.2669 26.3738V31.3312C26.7431 31.365 28.1081 31.4456 29.9944 31.4456C32.2575 31.4456 33.3919 31.3519 33.6038 31.3331V26.3775C40.8788 26.7019 46.3069 27.9713 46.3069 29.4862C46.3069 31.005 40.8788 32.2706 33.6038 32.5931Z"/>
    </g>
    <defs>
        <clipPath id="bjclip0_115_5486">
            <rect width="60" height="60"/>
        </clipPath>
    </defs>
</symbol></svg>