<svg width="162" height="48" viewBox="0 0 162 48" fill="none" xmlns="http://www.w3.org/2000/svg">
<path d="M160.925 42.3332C160.925 42.9373 160.806 43.5355 160.575 44.0936C160.343 44.6517 160.004 45.1587 159.576 45.5856C159.149 46.0126 158.641 46.3511 158.083 46.5819C157.525 46.8126 156.926 46.9311 156.322 46.9304H5.67765C4.45667 46.9317 3.28518 46.4481 2.4208 45.586C1.55643 44.7239 1.06995 43.5538 1.06836 42.3332V5.6715C1.06995 4.4503 1.55623 3.27963 2.42044 2.41656C3.28464 1.55349 4.45612 1.06855 5.67765 1.06824H156.321C156.925 1.06824 157.524 1.18731 158.082 1.41866C158.641 1.65001 159.149 1.98911 159.576 2.41658C160.003 2.84404 160.343 3.35151 160.574 3.91C160.805 4.46849 160.924 5.06705 160.924 5.6715L160.925 42.3332Z" fill="white"/>
<path d="M156.322 48H5.67787C4.17376 47.9997 2.73121 47.4029 1.66675 46.3405C0.602289 45.2781 0.0028619 43.8369 0 42.3332L0 5.67276C0.0022251 4.16831 0.601256 2.72617 1.66568 1.6627C2.73011 0.599227 4.17302 0.00126981 5.67787 0L156.321 0C157.825 0.00190342 159.268 0.600064 160.332 1.6634C161.397 2.72673 161.996 4.1685 161.999 5.67276V42.3332C162.001 45.4589 159.45 48 156.322 48Z" fill="white"/>
<path d="M160.925 42.3332C160.925 42.9373 160.806 43.5355 160.575 44.0936C160.343 44.6517 160.004 45.1587 159.576 45.5856C159.149 46.0126 158.641 46.3511 158.083 46.5819C157.525 46.8126 156.926 46.9311 156.322 46.9304H5.67765C4.45667 46.9317 3.28518 46.4481 2.4208 45.586C1.55643 44.7239 1.06995 43.5538 1.06836 42.3332V5.6715C1.06995 4.4503 1.55623 3.27963 2.42044 2.41656C3.28464 1.55349 4.45612 1.06855 5.67765 1.06824H156.321C156.925 1.06824 157.524 1.18731 158.082 1.41866C158.641 1.65001 159.149 1.98911 159.576 2.41658C160.003 2.84404 160.343 3.35151 160.574 3.91C160.805 4.46849 160.924 5.06705 160.924 5.6715L160.925 42.3332Z" fill="black"/>
<path d="M36.172 23.7473C36.1372 19.8786 39.3405 17.9965 39.487 17.9089C37.6728 15.2645 34.8609 14.9032 33.8727 14.8744C31.5111 14.626 29.2202 16.2872 28.0172 16.2872C26.7901 16.2872 24.9375 14.8984 22.9408 14.9393C20.3714 14.9789 17.9677 16.4661 16.6494 18.7755C13.9288 23.4844 15.9579 30.4043 18.5645 34.2106C19.8684 36.0759 21.392 38.156 23.3863 38.0828C25.3373 38.0036 26.0661 36.8405 28.4206 36.8405C30.7534 36.8405 31.4378 38.0828 33.4717 38.036C35.5656 38.0036 36.884 36.1635 38.1422 34.2826C39.649 32.1472 40.2542 30.0418 40.2782 29.9338C40.2302 29.917 36.2128 28.383 36.172 23.7473ZM32.3299 12.3706C33.3793 11.0586 34.0972 9.2737 33.8979 7.4624C32.3791 7.52962 30.4797 8.51269 29.3859 9.79584C28.4182 10.9266 27.5537 12.7799 27.777 14.5227C29.4832 14.65 31.2349 13.6621 32.3299 12.3706Z" fill="white"/>
<path d="M156.322 0H75.6328L107.237 48H156.322C157.827 47.9987 159.269 47.4011 160.334 46.3382C161.398 45.2752 161.997 43.8337 162 42.3296V5.67276C161.998 4.16841 161.399 2.72645 160.334 1.66305C159.27 0.599646 157.827 0.00158674 156.322 0Z" fill="url(#paint0_linear_544_4654)"/>
<path d="M64.4326 37.8152H61.706L60.2124 33.1231H55.0208L53.598 37.8152H50.9434L56.0881 21.8412H59.265L64.4326 37.8152ZM59.7621 31.1546L58.4114 26.9834C58.2685 26.5573 57.9996 25.5538 57.6058 23.9742H57.5577C57.3992 24.6536 57.1459 25.657 56.7989 26.9834L55.471 31.1546H59.7621ZM77.6374 31.9144C77.6374 33.8733 77.1055 35.4217 76.0405 36.5584C75.0872 37.5703 73.9021 38.0757 72.489 38.0757C70.963 38.0757 69.8656 37.5319 69.1992 36.442V42.4857H66.6394V30.0827C66.6394 28.8523 66.607 27.5908 66.5446 26.2968H68.7958L68.9387 28.1225H68.9867C69.8404 26.747 71.1359 26.0592 72.8744 26.0592C74.2335 26.0592 75.3681 26.5957 76.2758 27.67C77.1823 28.7467 77.6374 30.1607 77.6374 31.9144ZM75.0296 32.008C75.0296 30.8869 74.7774 29.9626 74.2708 29.234C73.7173 28.4766 72.974 28.0973 72.0423 28.0973C71.4108 28.0973 70.8369 28.3086 70.3242 28.7251C69.8103 29.1452 69.4742 29.6938 69.3169 30.3731C69.2467 30.6272 69.2068 30.8887 69.198 31.1522V33.0739C69.198 33.9105 69.455 34.6175 69.9688 35.1961C70.4827 35.7722 71.1503 36.0615 71.9715 36.0615C72.9356 36.0615 73.686 35.6882 74.2227 34.9476C74.7606 34.2046 75.0296 33.2251 75.0296 32.008ZM90.8889 31.9144C90.8889 33.8733 90.357 35.4217 89.2921 36.5584C88.3375 37.5703 87.1537 38.0757 85.7393 38.0757C84.2133 38.0757 83.1159 37.5319 82.4496 36.442V42.4857H79.8898V30.0827C79.8898 28.8523 79.8574 27.5908 79.7949 26.2968H82.0461L82.189 28.1225H82.2371C83.0895 26.747 84.385 26.0592 86.1247 26.0592C87.4827 26.0592 88.6173 26.5957 89.5274 27.67C90.4327 28.7467 90.8889 30.1607 90.8889 31.9144ZM88.2799 32.008C88.2799 30.8869 88.0266 29.9626 87.5199 29.234C86.9664 28.4766 86.2256 28.0973 85.2939 28.0973C84.6624 28.0973 84.0884 28.3086 83.5734 28.7251C83.0595 29.1452 82.7245 29.6938 82.5672 30.3731C82.4892 30.69 82.4472 30.9481 82.4472 31.1522V33.0739C82.4472 33.9105 82.7053 34.6175 83.2168 35.1961C83.7307 35.771 84.3982 36.0615 85.2219 36.0615C86.1872 36.0615 86.9376 35.6882 87.4731 34.9476C88.011 34.2046 88.2799 33.2251 88.2799 32.008ZM105.705 33.3344C105.705 34.6943 105.229 35.7998 104.285 36.6533C103.245 37.5847 101.793 38.0517 99.9322 38.0517C98.2129 38.0517 96.8345 37.7204 95.7948 37.0566L96.3867 34.9236C97.5093 35.5886 98.7424 35.9199 100.085 35.9199C101.05 35.9199 101.8 35.7014 102.336 35.2681C102.873 34.8336 103.144 34.2526 103.144 33.5276C103.144 32.8782 102.919 32.3345 102.479 31.8916C102.036 31.4498 101.303 31.0381 100.274 30.66C97.4769 29.6169 96.0769 28.0913 96.0769 26.0844C96.0769 24.7736 96.5716 23.7005 97.5585 22.8615C98.5454 22.0237 99.8542 21.6047 101.482 21.6047C102.936 21.6047 104.148 21.858 105.109 22.3633L104.467 24.4495C103.562 23.9598 102.54 23.7149 101.397 23.7149C100.494 23.7149 99.7857 23.937 99.279 24.3787C98.8528 24.7736 98.6367 25.2549 98.6367 25.8263C98.6367 26.4565 98.8828 26.9798 99.3727 27.3903C99.7977 27.7684 100.573 28.1801 101.695 28.6219C103.071 29.1764 104.082 29.8222 104.729 30.564C105.381 31.3058 105.705 32.2313 105.705 33.3344ZM114.19 28.2174H111.368V33.8097C111.368 35.2321 111.865 35.9415 112.862 35.9415C113.319 35.9415 113.699 35.9031 113.999 35.8226L114.07 37.766C113.566 37.9544 112.902 38.0493 112.079 38.0493C111.068 38.0493 110.278 37.7408 109.708 37.1238C109.14 36.5068 108.854 35.4733 108.854 34.0185V28.2126H107.173V26.292H108.854V24.183L111.368 23.4244V26.292H114.19V28.2174ZM126.895 31.9612C126.895 33.7317 126.388 35.1853 125.378 36.322C124.32 37.4923 122.913 38.0757 121.158 38.0757C119.466 38.0757 118.12 37.5151 117.116 36.3952C116.112 35.2729 115.61 33.8589 115.61 32.1532C115.61 30.3683 116.129 28.9063 117.163 27.7696C118.199 26.6317 119.594 26.0628 121.348 26.0628C123.039 26.0628 124.397 26.6245 125.424 27.7456C126.406 28.8331 126.895 30.2375 126.895 31.9612ZM124.242 32.02C124.242 30.9649 124.014 30.0599 123.556 29.3025C123.019 28.3878 122.251 27.9305 121.256 27.9305C120.23 27.9305 119.444 28.3878 118.908 29.3025C118.45 30.0599 118.222 30.9805 118.222 32.068C118.222 33.1243 118.45 34.0318 118.908 34.7868C119.462 35.7014 120.234 36.1587 121.234 36.1587C122.213 36.1587 122.98 35.6918 123.535 34.764C124.005 33.9885 124.242 33.0775 124.242 32.02ZM135.219 28.5474C134.953 28.4994 134.683 28.4757 134.412 28.4766C133.512 28.4766 132.816 28.8151 132.326 29.4969C131.901 30.0971 131.687 30.8557 131.687 31.7715V37.8152H129.127V29.9242C129.129 28.7151 129.105 27.5061 129.053 26.298H131.282L131.376 28.5018H131.447C131.718 27.7444 132.143 27.1335 132.727 26.6761C133.261 26.2765 133.91 26.0601 134.577 26.0592C134.813 26.0592 135.027 26.076 135.217 26.106L135.219 28.5474ZM146.667 31.5111C146.674 31.9001 146.643 32.2888 146.574 32.6718H138.894C138.923 33.8097 139.295 34.6811 140.009 35.2813C140.656 35.8166 141.493 36.0855 142.52 36.0855C143.657 36.0855 144.695 35.9055 145.628 35.5418L146.029 37.3171C144.938 37.7924 143.651 38.0288 142.166 38.0288C140.38 38.0288 138.977 37.5031 137.957 36.454C136.939 35.4037 136.428 33.9921 136.428 32.2241C136.428 30.4884 136.903 29.042 137.852 27.8885C138.846 26.6569 140.19 26.0412 141.88 26.0412C143.541 26.0412 144.798 26.6569 145.652 27.8885C146.328 28.8643 146.667 30.0743 146.667 31.5111ZM144.227 30.8473C144.245 30.0875 144.076 29.4333 143.729 28.8799C143.286 28.1669 142.604 27.8116 141.691 27.8116C140.854 27.8116 140.172 28.1585 139.653 28.8547C139.227 29.4081 138.974 30.0731 138.896 30.8449L144.227 30.8473Z" fill="white"/>
<path d="M54.282 16.1936C53.57 16.1936 52.9541 16.1588 52.4414 16.1V8.37706C53.1584 8.26633 53.883 8.21175 54.6086 8.21382C57.5442 8.21382 58.8961 9.65782 58.8961 12.0117C58.8961 14.7268 57.2992 16.1936 54.282 16.1936ZM54.7118 9.20409C54.3156 9.20409 53.9782 9.2281 53.6985 9.28571V15.1565C53.8498 15.1805 54.1403 15.1913 54.5485 15.1913C56.472 15.1913 57.567 14.0966 57.567 12.0465C57.567 10.2184 56.5764 9.20409 54.7118 9.20409ZM63.1092 16.2524C61.4547 16.2524 60.3825 15.0173 60.3825 13.3404C60.3825 11.5927 61.4775 10.3468 63.2028 10.3468C64.8333 10.3468 65.9295 11.5231 65.9295 13.248C65.9295 15.0173 64.7997 16.2524 63.1092 16.2524ZM63.1572 11.2663C62.2483 11.2663 61.666 12.1161 61.666 13.3044C61.666 14.4699 62.2603 15.3198 63.1452 15.3198C64.0301 15.3198 64.6244 14.4111 64.6244 13.2804C64.6244 12.1281 64.0421 11.2663 63.1572 11.2663ZM75.3642 10.4632L73.5932 16.124H72.4394L71.7058 13.6657C71.5234 13.0644 71.3715 12.4543 71.2508 11.8376H71.2267C71.1343 12.4546 70.959 13.0728 70.7729 13.6657L69.9925 16.124H68.8267L67.1601 10.4632H68.4532L69.0944 13.1544C69.2457 13.7954 69.3729 14.4003 69.4786 14.9717H69.5026C69.5951 14.4951 69.7463 13.8998 69.9685 13.1664L70.7729 10.4644H71.7983L72.5679 13.1088C72.754 13.7497 72.9053 14.3787 73.0229 14.9729H73.0565C73.1382 14.3907 73.2666 13.7725 73.4407 13.1088L74.1287 10.4644L75.3642 10.4632ZM81.8837 16.124H80.6254V12.8735C80.6254 11.8724 80.2412 11.3707 79.4836 11.3707C78.738 11.3707 78.2253 12.0117 78.2253 12.7571V16.124H76.967V12.0813C76.967 11.5807 76.955 11.0442 76.9202 10.462H78.0272L78.0861 11.3359H78.1209C78.4594 10.7309 79.1462 10.3468 79.9158 10.3468C81.1045 10.3468 81.8849 11.2555 81.8849 12.7343L81.8837 16.124ZM85.3536 16.124H84.0941V7.86572H85.3536V16.124ZM89.9412 16.2524C88.288 16.2524 87.2146 15.0173 87.2146 13.3404C87.2146 11.5927 88.3096 10.3468 90.0337 10.3468C91.6654 10.3468 92.7604 11.5231 92.7604 13.248C92.7616 15.0173 91.6306 16.2524 89.9412 16.2524ZM89.9881 11.2663C89.0792 11.2663 88.4969 12.1161 88.4969 13.3044C88.4969 14.4699 89.0924 15.3198 89.9749 15.3198C90.8609 15.3198 91.4541 14.4111 91.4541 13.2804C91.4553 12.1281 90.8741 11.2663 89.9881 11.2663ZM97.7214 16.124L97.6302 15.4722H97.5966C97.2124 15.9968 96.6517 16.2524 95.9409 16.2524C94.9263 16.2524 94.2059 15.5418 94.2059 14.5864C94.2059 13.1892 95.4174 12.4666 97.5149 12.4666V12.3622C97.5149 11.6168 97.1199 11.2435 96.3395 11.2435C95.7812 11.2435 95.2913 11.3839 94.8603 11.6636L94.6046 10.8365C95.128 10.51 95.7812 10.3468 96.5484 10.3468C98.0276 10.3468 98.7744 11.127 98.7744 12.6886V14.7736C98.7744 15.345 98.7996 15.7879 98.8561 16.1252L97.7214 16.124ZM97.5486 13.3044C96.151 13.3044 95.4498 13.6429 95.4498 14.4459C95.4498 15.0401 95.8112 15.3306 96.3131 15.3306C96.953 15.3306 97.5486 14.842 97.5486 14.1783V13.3044ZM104.885 16.124L104.826 15.2153H104.791C104.429 15.9019 103.822 16.2524 102.973 16.2524C101.608 16.2524 100.597 15.0521 100.597 13.3632C100.597 11.5927 101.645 10.3456 103.076 10.3456C103.834 10.3456 104.371 10.6013 104.673 11.115H104.698V7.86572H105.958V14.5984C105.958 15.1457 105.971 15.6583 106.005 16.124H104.885ZM104.698 12.7931C104.698 12.0009 104.174 11.3251 103.373 11.3251C102.44 11.3251 101.87 12.1521 101.87 13.3164C101.87 14.4579 102.462 15.2394 103.348 15.2394C104.139 15.2394 104.698 14.5516 104.698 13.7365V12.7931ZM113.943 16.2524C112.29 16.2524 111.218 15.0173 111.218 13.3404C111.218 11.5927 112.313 10.3468 114.037 10.3468C115.669 10.3468 116.764 11.5231 116.764 13.248C116.765 15.0173 115.635 16.2524 113.943 16.2524ZM113.99 11.2663C113.083 11.2663 112.5 12.1161 112.5 13.3044C112.5 14.4699 113.095 15.3198 113.978 15.3198C114.864 15.3198 115.457 14.4111 115.457 13.2804C115.46 12.1281 114.878 11.2663 113.99 11.2663ZM123.531 16.124H122.271V12.8735C122.271 11.8724 121.887 11.3707 121.129 11.3707C120.384 11.3707 119.872 12.0117 119.872 12.7571V16.124H118.613V12.0813C118.613 11.5807 118.601 11.0442 118.566 10.462H119.673L119.732 11.3359H119.767C120.104 10.7309 120.792 10.3456 121.56 10.3456C122.749 10.3456 123.531 11.2543 123.531 12.7331V16.124ZM131.996 11.4067H130.612V14.1555C130.612 14.8552 130.855 15.2045 131.344 15.2045C131.567 15.2045 131.753 15.1805 131.903 15.1457L131.938 16.1012C131.694 16.1948 131.367 16.2416 130.961 16.2416C129.97 16.2416 129.377 15.6943 129.377 14.2611V11.4067H128.55V10.4632H129.377V9.42615L130.612 9.05285V10.462H131.996V11.4067ZM138.658 16.124H137.4V12.8975C137.4 11.8844 137.017 11.3719 136.259 11.3719C135.607 11.3719 134.999 11.8148 134.999 12.7115V16.124H133.742V7.86572H134.999V11.2663H135.024C135.421 10.6493 135.994 10.3456 136.727 10.3456C137.925 10.3456 138.658 11.2771 138.658 12.7571V16.124ZM145.482 13.5961H141.706C141.73 14.668 142.44 15.273 143.49 15.273C144.048 15.273 144.562 15.1793 145.016 15.0053L145.212 15.8791C144.676 16.112 144.046 16.2284 143.312 16.2284C141.541 16.2284 140.493 15.1097 140.493 13.3752C140.493 11.6396 141.567 10.3348 143.171 10.3348C144.618 10.3348 145.525 11.4067 145.525 13.0259C145.533 13.217 145.519 13.4084 145.482 13.5961ZM144.328 12.6995C144.328 11.8256 143.888 11.2086 143.083 11.2086C142.36 11.2086 141.789 11.8376 141.707 12.6995H144.328Z" fill="white"/>
<defs>
<linearGradient id="paint0_linear_544_4654" x1="118.815" y1="48.1274" x2="118.815" y2="-124.984" gradientUnits="userSpaceOnUse">
<stop stop-color="#1A1A1A" stop-opacity="0.1"/>
<stop offset="0.123" stop-color="#212121" stop-opacity="0.151"/>
<stop offset="0.308" stop-color="#353535" stop-opacity="0.227"/>
<stop offset="0.532" stop-color="#575757" stop-opacity="0.318"/>
<stop offset="0.783" stop-color="#858585" stop-opacity="0.421"/>
<stop offset="1" stop-color="#B3B3B3" stop-opacity="0.51"/>
</linearGradient>
</defs>
</svg>
