<svg width="40" height="40" viewBox="0 0 40 40" fill="none" xmlns="http://www.w3.org/2000/svg">
<path fill-rule="evenodd" clip-rule="evenodd" d="M20.0007 36.6666C29.2057 36.6666 36.6673 29.2049 36.6673 19.9999C36.6673 10.7949 29.2057 3.33325 20.0007 3.33325C10.7957 3.33325 3.33398 10.7949 3.33398 19.9999C3.33398 29.2049 10.7957 36.6666 20.0007 36.6666ZM11.2507 19.9999C11.2507 19.5749 11.2807 19.1583 11.339 18.7499H16.6673C16.9988 18.7499 17.3168 18.6182 17.5512 18.3838C17.7856 18.1494 17.9173 17.8314 17.9173 17.4999C17.9173 17.1684 17.7856 16.8505 17.5512 16.616C17.3168 16.3816 16.9988 16.2499 16.6673 16.2499H12.0923C12.61 15.1575 13.3484 14.1842 14.2611 13.3913C15.1737 12.5985 16.2407 12.0034 17.3948 11.6436C18.5489 11.2837 19.7651 11.1669 20.9665 11.3005C22.168 11.4342 23.3288 11.8153 24.3757 12.4199C24.5179 12.5033 24.6752 12.5577 24.8385 12.58C25.0018 12.6024 25.168 12.5922 25.3273 12.55C25.4867 12.5079 25.6362 12.4347 25.7671 12.3345C25.8981 12.2344 26.0079 12.1093 26.0904 11.9666C26.1728 11.8238 26.2262 11.6662 26.2474 11.5027C26.2687 11.3392 26.2574 11.1731 26.2142 11.0141C26.171 10.855 26.0967 10.706 25.9957 10.5757C25.8947 10.4454 25.769 10.3364 25.6257 10.2549C24.195 9.42979 22.6003 8.92963 20.9546 8.78992C19.309 8.65022 17.6528 8.8744 16.1035 9.44655C14.5542 10.0187 13.1498 10.9248 11.99 12.1006C10.8301 13.2764 9.94328 14.693 9.39232 16.2499H8.33398C8.00246 16.2499 7.68452 16.3816 7.4501 16.616C7.21568 16.8505 7.08398 17.1684 7.08398 17.4999C7.08398 17.8314 7.21568 18.1494 7.4501 18.3838C7.68452 18.6182 8.00246 18.7499 8.33398 18.7499H8.81898C8.7271 19.5807 8.7271 20.4191 8.81898 21.2499H8.33398C8.00246 21.2499 7.68452 21.3816 7.4501 21.616C7.21568 21.8505 7.08398 22.1684 7.08398 22.4999C7.08398 22.8314 7.21568 23.1494 7.4501 23.3838C7.68452 23.6182 8.00246 23.7499 8.33398 23.7499H9.39065C9.94169 25.3072 10.8288 26.7241 11.9889 27.9C13.1491 29.0759 14.5538 29.9821 16.1035 30.5541C17.6532 31.1261 19.3098 31.35 20.9558 31.2099C22.6017 31.0698 24.1966 30.569 25.6273 29.7433C25.7734 29.6632 25.902 29.5547 26.0055 29.4242C26.1091 29.2938 26.1855 29.1439 26.2303 28.9835C26.2751 28.823 26.2874 28.6553 26.2665 28.49C26.2456 28.3247 26.1918 28.1653 26.1084 28.0212C26.025 27.877 25.9136 27.7509 25.7807 27.6504C25.6479 27.5499 25.4963 27.4769 25.3349 27.4358C25.1735 27.3947 25.0055 27.3863 24.8407 27.411C24.676 27.4358 24.5179 27.4932 24.3757 27.5799C23.3288 28.1845 22.168 28.5657 20.9665 28.6993C19.7651 28.8329 18.5489 28.7161 17.3948 28.3563C16.2407 27.9964 15.1737 27.4013 14.2611 26.6085C13.3484 25.8157 12.61 24.8424 12.0923 23.7499H16.6673C16.9988 23.7499 17.3168 23.6182 17.5512 23.3838C17.7856 23.1494 17.9173 22.8314 17.9173 22.4999C17.9173 22.1684 17.7856 21.8505 17.5512 21.616C17.3168 21.3816 16.9988 21.2499 16.6673 21.2499H11.339C11.28 20.8359 11.2504 20.4182 11.2507 19.9999Z" fill="#67728B"/>
</svg>
