<svg width="538" height="566" viewBox="0 0 538 566" fill="none" xmlns="http://www.w3.org/2000/svg">
<path d="M375.96 110.285C372.961 132.065 352.641 147.025 330.575 143.703C308.507 140.379 293.048 120.029 296.047 98.2499C299.044 76.4714 319.363 61.5098 341.431 64.8342C363.497 68.1561 378.957 88.506 375.96 110.285Z" fill="#455A64"/>
<path d="M366.45 108.854C364.165 125.45 348.681 136.851 331.864 134.318C315.048 131.786 303.267 116.278 305.551 99.6813C307.837 83.0845 323.321 71.6831 340.137 74.2157C356.953 76.7496 368.735 92.2567 366.45 108.854Z" fill="#6A7B83"/>
<path d="M366.595 107.783C366.41 107.762 366.462 106.424 366.29 104.049C366.105 101.686 365.642 98.2391 364.056 94.3132C363.264 92.3578 362.198 90.2926 360.788 88.2489C359.363 86.2202 357.619 84.1967 355.494 82.3901C354.436 81.4827 353.297 80.6142 352.063 79.8377C350.834 79.0549 349.533 78.3217 348.146 77.7119C346.764 77.0975 345.321 76.5469 343.813 76.1361C342.307 75.7228 340.752 75.4103 339.161 75.2108C337.568 75.0322 335.985 74.9714 334.431 75.0209C332.873 75.0686 331.352 75.2672 329.875 75.5406C328.395 75.8111 326.973 76.2205 325.611 76.6954C324.245 77.1631 322.953 77.7441 321.732 78.3799C319.283 79.6444 317.159 81.209 315.348 82.8528C313.548 84.5147 312.077 86.2791 310.896 88.0001C308.532 91.4566 307.363 94.709 306.689 96.9698C306.028 99.245 305.799 100.563 305.614 100.539C305.476 100.525 305.394 99.1667 305.798 96.7528C306.214 94.3584 307.181 90.8694 309.492 87.0986C310.647 85.2216 312.128 83.2862 313.986 81.4529C315.856 79.6371 318.08 77.9039 320.679 76.4927C321.975 75.7833 323.351 75.1349 324.812 74.6087C326.27 74.0754 327.796 73.6164 329.388 73.3074C330.979 72.9949 332.621 72.77 334.301 72.7097C335.979 72.6471 337.687 72.71 339.405 72.9031C341.12 73.1172 342.799 73.4578 344.422 73.9131C346.046 74.366 347.601 74.9719 349.087 75.6488C350.575 76.3226 351.968 77.1291 353.277 77.9923C354.592 78.8484 355.801 79.804 356.916 80.7986C359.155 82.785 360.964 84.9968 362.409 87.2065C363.837 89.4287 364.88 91.6658 365.616 93.7661C367.084 97.9858 367.3 101.614 367.207 104.048C367.095 106.495 366.731 107.801 366.595 107.783Z" fill="#455A64"/>
<g clip-path="url(#clip0_542_4010)">
<path d="M339.88 117.777L338.989 121.612C338.95 121.808 338.849 121.96 338.688 122.07C338.527 122.179 338.351 122.224 338.162 122.203L338.041 122.171C337.969 122.172 337.879 122.16 337.773 122.135C337.668 122.11 337.534 122.086 337.374 122.062C337.213 122.037 337.036 122 336.843 121.951C336.649 121.902 336.444 121.847 336.229 121.787C336.013 121.727 335.775 121.656 335.516 121.574C335.256 121.493 334.994 121.406 334.731 121.313C334.467 121.221 334.188 121.112 333.895 120.988C333.602 120.863 333.316 120.733 333.036 120.597C329.6 118.926 327.051 116.519 325.39 113.376C323.729 110.233 323.206 106.833 323.821 103.177L321.728 102.159C321.537 102.066 321.405 101.917 321.332 101.712C321.258 101.506 321.267 101.309 321.357 101.12L322.538 98.6609C322.629 98.4723 322.777 98.343 322.983 98.273C323.189 98.203 323.387 98.2144 323.578 98.3073L325.032 99.0142C325.4 98.173 325.773 97.4148 326.151 96.7399L324.675 96.0222C324.47 95.9222 324.332 95.7748 324.263 95.58C324.193 95.3851 324.207 95.1861 324.305 94.983L325.496 92.502C325.594 92.2989 325.74 92.1642 325.935 92.0979C326.13 92.0316 326.33 92.0484 326.536 92.1484L328.695 93.1981C331.142 90.6298 334.107 89.0473 337.592 88.4506C341.076 87.8539 344.463 88.3554 347.752 89.955C349.25 90.6833 350.595 91.5429 351.786 92.5336C351.926 92.6556 352.021 92.8359 352.07 93.0742C352.081 93.2767 352.02 93.4615 351.885 93.6287L349.276 96.6284C349.141 96.7955 348.97 96.887 348.764 96.9028C348.557 96.9185 348.372 96.851 348.209 96.7001L348.131 96.6355C348.079 96.5924 348.004 96.5332 347.904 96.4579L347.555 96.1943L347.096 95.8771L346.554 95.5333L345.942 95.1683L345.302 94.8305C343.452 93.9307 341.569 93.5881 339.655 93.8025C337.74 94.0169 336.025 94.7581 334.511 96.026L344.821 101.039C345.056 101.153 345.197 101.33 345.246 101.568C345.309 101.814 345.27 102.027 345.128 102.209L343.408 104.433C343.154 104.774 342.828 104.849 342.431 104.656L331.681 99.4285C331.379 99.9439 331.013 100.706 330.583 101.714L340.695 106.63C340.915 106.737 341.057 106.914 341.121 107.159C341.169 107.398 341.119 107.615 340.97 107.811L339.271 109.991C339.165 110.137 339.02 110.232 338.836 110.276C338.651 110.321 338.478 110.304 338.317 110.225L329.791 106.08C329.681 108.12 330.132 109.999 331.146 111.718C332.159 113.437 333.598 114.75 335.464 115.656C335.728 115.785 335.997 115.903 336.272 116.009C336.547 116.116 336.805 116.21 337.047 116.292C337.288 116.374 337.521 116.446 337.744 116.51C337.967 116.574 338.164 116.625 338.336 116.664C338.507 116.703 338.659 116.736 338.79 116.764L339.086 116.827L339.217 116.837C339.443 116.858 339.627 116.965 339.769 117.159C339.896 117.347 339.933 117.553 339.88 117.777Z" fill="#455A64"/>
</g>
<path d="M147.013 178.649C144.767 194.952 129.556 206.153 113.036 203.665C96.5158 201.177 84.9434 185.943 87.1879 169.638C89.431 153.333 104.643 142.134 121.164 144.622C137.683 147.11 149.256 162.344 147.013 178.649Z" fill="#455A64"/>
<path d="M139.892 177.577C138.182 190.001 126.59 198.536 114 196.64C101.412 194.744 92.5917 183.135 94.3023 170.71C96.0129 158.286 107.605 149.75 120.194 151.646C132.783 153.543 141.603 165.152 139.892 177.577Z" fill="#6A7B83"/>
<path d="M140.003 176.776C139.864 176.76 139.904 175.757 139.775 173.981C139.637 172.211 139.289 169.632 138.102 166.693C137.509 165.229 136.711 163.683 135.654 162.153C134.588 160.634 133.281 159.12 131.691 157.767C130.899 157.088 130.046 156.438 129.123 155.856C128.203 155.27 127.229 154.721 126.19 154.263C125.156 153.803 124.076 153.392 122.947 153.083C121.82 152.774 120.655 152.539 119.464 152.39C118.272 152.257 117.086 152.212 115.922 152.248C114.756 152.283 113.617 152.433 112.511 152.637C111.403 152.839 110.34 153.146 109.32 153.502C108.297 153.852 107.331 154.288 106.416 154.763C104.582 155.709 102.992 156.88 101.636 158.112C100.289 159.356 99.187 160.678 98.3033 161.966C96.5338 164.554 95.6579 166.987 95.154 168.681C94.6592 170.384 94.4881 171.37 94.3488 171.352C94.2462 171.342 94.1845 170.325 94.4866 168.518C94.7976 166.726 95.5214 164.114 97.2515 161.291C98.1171 159.886 99.2254 158.437 100.616 157.065C102.016 155.705 103.681 154.408 105.627 153.351C106.598 152.82 107.628 152.334 108.722 151.941C109.813 151.542 110.956 151.198 112.148 150.967C113.338 150.734 114.567 150.565 115.825 150.52C117.08 150.474 118.36 150.521 119.646 150.666C120.93 150.826 122.186 151.08 123.401 151.422C124.618 151.761 125.782 152.214 126.893 152.721C128.007 153.226 129.05 153.829 130.031 154.475C131.016 155.116 131.92 155.832 132.755 156.577C134.431 158.063 135.786 159.719 136.867 161.374C137.936 163.037 138.717 164.712 139.267 166.285C140.366 169.445 140.528 172.162 140.458 173.983C140.377 175.812 140.105 176.789 140.003 176.776Z" fill="#455A64"/>
<path d="M117.816 188.007L117.332 191.952L113.772 191.467L114.244 187.631C110.744 186.94 107.496 185.39 105.724 183.609L108.209 179.579C109.83 181.124 112.276 182.423 114.81 183.017L115.533 177.136C111.698 175.65 107.443 173.747 108.061 168.711C108.52 164.978 111.656 162.147 117.359 162.278L117.84 158.369L121.401 158.852L120.929 162.691C123.573 163.265 126.087 164.322 127.893 165.82L125.581 169.91C123.891 168.643 122.112 167.792 120.358 167.338L119.623 173.325C123.462 174.777 127.646 176.671 127.037 181.634C126.584 185.296 123.489 188.097 117.816 188.007ZM116.169 171.96L116.783 166.96C114.844 167.126 113.971 168.046 113.827 169.208C113.676 170.44 114.662 171.254 116.169 171.96ZM121.251 181.278C121.401 180.045 120.452 179.236 118.985 178.499L118.389 183.358C120.216 183.214 121.112 182.404 121.251 181.278Z" fill="#455A64"/>
<path d="M392.682 333.089L337.466 522.681C334.444 533.055 323.476 538.91 312.969 535.757L34.01 452.05C23.5017 448.897 17.4338 437.93 20.4551 427.556L75.6717 237.964C78.6934 227.588 89.6611 221.735 100.168 224.888L379.127 308.595C389.634 311.748 395.704 322.713 392.682 333.089Z" fill="#39D24E"/>
<path d="M392.685 333.126C392.685 333.126 392.73 332.89 392.834 332.43C392.923 331.968 393.142 331.293 393.222 330.362C393.482 328.534 393.606 325.684 392.572 322.166C392.033 320.425 391.227 318.518 389.949 316.643C388.664 314.78 386.938 312.941 384.719 311.417C384.171 311.027 383.56 310.709 382.969 310.341C382.354 310.012 381.698 309.734 381.047 309.419C380.365 309.179 379.671 308.935 378.965 308.687C378.245 308.471 377.512 308.253 376.768 308.031C373.789 307.141 370.619 306.194 367.259 305.191C340.387 297.148 301.513 285.512 253.477 271.134C229.459 263.937 203.153 256.052 174.912 247.589C160.792 243.356 146.188 238.977 131.145 234.467C123.624 232.212 115.992 229.924 108.257 227.604C106.324 227.024 104.383 226.442 102.437 225.858C100.479 225.294 98.5627 224.622 96.5506 224.443C94.5496 224.238 92.5168 224.301 90.5336 224.687C88.5601 225.105 86.6507 225.812 84.883 226.786C83.1014 227.743 81.5263 229.054 80.1522 230.53C78.7809 232.013 77.6254 233.716 76.8244 235.587C75.9989 237.437 75.5038 239.459 74.9098 241.451C74.3292 243.445 73.7478 245.446 73.164 247.451C70.8291 255.475 68.4683 263.592 66.0817 271.794C61.3078 288.199 56.4336 304.949 51.4716 322.001C41.5451 356.105 31.2675 391.415 20.7398 427.579C19.4472 432.044 19.8413 436.957 21.8414 441.174C23.8036 445.404 27.3391 448.903 31.6065 450.781C33.723 451.722 36.034 452.288 38.2783 452.99C40.5334 453.667 42.7841 454.342 45.0304 455.017C49.5242 456.366 54.0026 457.71 58.4633 459.05C76.3093 464.408 93.8943 469.689 111.173 474.876C145.729 485.255 179.063 495.266 210.815 504.803C242.567 514.344 272.739 523.41 300.976 531.894C304.507 532.955 308.006 534.007 311.474 535.05C313.212 535.587 314.921 536.06 316.687 536.25C318.444 536.4 320.221 536.421 321.939 536.095C322.811 536.002 323.638 535.716 324.483 535.523C325.289 535.211 326.133 534.988 326.895 534.583C328.483 533.902 329.901 532.918 331.226 531.863C333.813 529.665 335.829 526.839 336.905 523.682C340.78 510.807 344.327 498.348 347.807 486.512C361.646 439.121 372.844 400.77 380.586 374.261C384.467 361.016 387.481 350.731 389.526 343.751C390.553 340.269 391.337 337.613 391.866 335.821C392.399 334.036 392.685 333.126 392.685 333.126C392.685 333.126 392.438 334.048 391.927 335.84C391.411 337.636 390.647 340.297 389.644 343.787C387.623 350.774 384.646 361.07 380.811 374.329C373.113 400.851 361.975 439.22 348.213 486.633C344.743 498.484 341.219 510.911 337.339 523.839C336.241 527.069 334.181 529.966 331.533 532.218C330.178 533.301 328.725 534.309 327.102 535.007C326.322 535.421 325.459 535.651 324.633 535.97C323.767 536.171 322.921 536.462 322.028 536.56C320.268 536.894 318.448 536.875 316.648 536.722C314.846 536.531 313.065 536.039 311.345 535.508C307.877 534.468 304.376 533.418 300.845 532.361C272.603 523.893 242.426 514.844 210.669 505.321C178.912 495.795 145.577 485.794 111.017 475.427C93.7381 470.241 76.1519 464.965 58.3053 459.609C53.8432 458.27 49.3658 456.926 44.8717 455.578C42.6254 454.904 40.3736 454.228 38.1196 453.551C35.8768 452.849 33.5805 452.293 31.373 451.314C26.9765 449.379 23.332 445.773 21.3116 441.417C19.2506 437.075 18.8435 432.006 20.1769 427.41C30.7078 391.247 40.9898 355.938 50.9196 321.835C55.8859 304.785 60.7648 288.035 65.5428 271.632C67.9319 263.43 70.2967 255.315 72.6338 247.292C73.2179 245.286 73.8011 243.286 74.3818 241.292C74.9758 239.309 75.4682 237.283 76.3247 235.36C77.1493 233.437 78.3379 231.684 79.7485 230.16C81.161 228.642 82.7816 227.297 84.6135 226.314C86.4304 225.314 88.3928 224.588 90.4212 224.16C92.4586 223.764 94.5487 223.699 96.6057 223.911L98.1417 224.132L99.6479 224.497C100.653 224.739 101.607 225.068 102.587 225.35C104.533 225.934 106.474 226.517 108.407 227.098C116.142 229.422 123.771 231.714 131.291 233.974C146.331 238.494 160.932 242.881 175.049 247.124C203.284 255.611 229.583 263.518 253.595 270.737C301.608 285.19 340.465 296.887 367.325 304.973C370.682 305.985 373.85 306.94 376.826 307.838C377.57 308.063 378.302 308.284 379.021 308.501C379.733 308.754 380.433 309.003 381.12 309.247C381.777 309.567 382.437 309.849 383.056 310.184C383.653 310.556 384.269 310.879 384.819 311.275C387.054 312.821 388.786 314.683 390.073 316.563C391.353 318.458 392.155 320.381 392.688 322.135C393.709 325.68 393.563 328.542 393.283 330.372C393.192 331.305 392.963 331.979 392.865 332.439C392.75 332.896 392.685 333.126 392.685 333.126Z" fill="#263238"/>
<path d="M382.924 323.401C382.969 323.247 384.464 323.556 386.264 324.091C388.063 324.626 389.485 325.184 389.44 325.337C389.395 325.49 387.9 325.182 386.1 324.647C384.301 324.114 382.879 323.555 382.924 323.401Z" fill="#263238"/>
<path d="M356.36 315.536C356.405 315.382 359.416 316.14 363.083 317.228C366.752 318.317 369.689 319.324 369.644 319.477C369.599 319.63 366.589 318.873 362.92 317.784C359.252 316.698 356.314 315.69 356.36 315.536Z" fill="#263238"/>
<path d="M329.799 307.671C329.844 307.517 332.855 308.275 336.522 309.363C340.192 310.452 343.128 311.459 343.083 311.612C343.038 311.765 340.028 311.008 336.359 309.919C332.69 308.832 329.754 307.825 329.799 307.671Z" fill="#263238"/>
<path d="M303.235 299.806C303.28 299.652 306.291 300.41 309.959 301.498C313.628 302.587 316.565 303.594 316.52 303.747C316.475 303.9 313.465 303.143 309.796 302.054C306.127 300.967 303.189 299.96 303.235 299.806Z" fill="#263238"/>
<path d="M276.67 291.941C276.715 291.787 279.726 292.545 283.394 293.633C287.063 294.721 289.999 295.728 289.955 295.881C289.91 296.034 286.899 295.277 283.23 294.189C279.563 293.102 276.625 292.095 276.67 291.941Z" fill="#263238"/>
<path d="M250.11 284.076C250.155 283.922 253.166 284.68 256.833 285.768C260.502 286.856 263.439 287.863 263.394 288.016C263.349 288.169 260.339 287.412 256.67 286.324C253.001 285.237 250.064 284.23 250.11 284.076Z" fill="#263238"/>
<path d="M223.545 276.21C223.59 276.056 226.601 276.815 230.269 277.902C233.938 278.991 236.874 279.998 236.83 280.151C236.785 280.304 233.774 279.547 230.105 278.458C226.438 277.372 223.5 276.364 223.545 276.21Z" fill="#263238"/>
<path d="M196.983 268.345C197.028 268.191 200.039 268.95 203.707 270.038C207.376 271.126 210.313 272.133 210.268 272.286C210.223 272.439 207.213 271.682 203.544 270.594C199.875 269.507 196.937 268.499 196.983 268.345Z" fill="#263238"/>
<path d="M170.42 260.48C170.465 260.326 173.476 261.085 177.145 262.173C180.814 263.261 183.751 264.268 183.706 264.421C183.661 264.574 180.65 263.817 176.981 262.729C173.312 261.641 170.375 260.634 170.42 260.48Z" fill="#263238"/>
<path d="M143.858 252.615C143.903 252.461 146.914 253.219 150.581 254.307C154.25 255.395 157.187 256.403 157.142 256.555C157.097 256.708 154.087 255.952 150.418 254.863C146.75 253.776 143.812 252.769 143.858 252.615Z" fill="#263238"/>
<path d="M117.295 244.75C117.34 244.596 120.351 245.354 124.019 246.442C127.688 247.53 130.624 248.538 130.58 248.691C130.535 248.843 127.524 248.087 123.855 246.998C120.188 245.911 117.25 244.904 117.295 244.75Z" fill="#263238"/>
<path d="M95.5748 245.365C95.4175 245.318 96.1342 242.382 97.1743 238.809C97.9072 238.418 97.379 238.701 97.5436 238.614L97.5458 238.614L97.5512 238.616L97.5622 238.619L97.5829 238.625L97.6256 238.638L97.7097 238.663L97.878 238.714L98.211 238.815C98.4303 238.882 98.646 238.949 98.861 239.015C99.2779 239.146 99.685 239.274 100.087 239.401C100.798 239.636 101.484 239.865 102.153 240.087C103.325 240.494 104.038 240.784 104.015 240.862C103.993 240.939 103.239 240.789 102.037 240.484C101.358 240.301 100.659 240.113 99.936 239.918C99.5312 239.803 99.121 239.685 98.7009 239.565C98.4853 239.502 98.2683 239.439 98.0483 239.374L97.7147 239.275L97.5465 239.224L97.4623 239.199L97.4197 239.186L97.3989 239.18L97.388 239.177L97.3826 239.175L97.3804 239.174C97.5424 239.087 97.0124 239.369 97.7439 238.979C96.7036 242.553 95.7322 245.413 95.5748 245.365Z" fill="#263238"/>
<path d="M88.3722 269.745C88.213 269.698 88.8893 266.936 89.8812 263.577C90.8735 260.216 91.8071 257.531 91.9652 257.578C92.1244 257.625 91.4485 260.386 90.4562 263.746C89.4653 267.106 88.5314 269.792 88.3722 269.745Z" fill="#263238"/>
<path d="M81.1652 294.086C81.006 294.039 81.6822 291.277 82.6742 287.918C83.6665 284.557 84.6001 281.872 84.7582 281.919C84.9174 281.966 84.2414 284.727 83.2492 288.087C82.258 291.448 81.3244 294.133 81.1652 294.086Z" fill="#263238"/>
<path d="M73.9562 318.428C73.797 318.381 74.4733 315.619 75.4652 312.26C76.4575 308.899 77.3911 306.214 77.5492 306.261C77.7084 306.308 77.0325 309.069 76.0402 312.429C75.0493 315.789 74.1154 318.475 73.9562 318.428Z" fill="#263238"/>
<path d="M66.7511 342.769C66.5919 342.722 67.2682 339.96 68.2601 336.601C69.2524 333.24 70.186 330.555 70.3441 330.602C70.5033 330.649 69.8274 333.41 68.8351 336.77C67.8439 340.131 66.9103 342.816 66.7511 342.769Z" fill="#263238"/>
<path d="M59.5421 367.111C59.3829 367.064 60.0589 364.303 61.0512 360.943C62.0434 357.582 62.977 354.897 63.1351 354.944C63.2944 354.991 62.6184 357.752 61.6261 361.112C60.6352 364.472 59.7014 367.158 59.5421 367.111Z" fill="#263238"/>
<path d="M52.337 391.452C52.1778 391.405 52.8541 388.643 53.8461 385.284C54.8384 381.923 55.7719 379.238 55.9301 379.285C56.0893 379.332 55.4133 382.093 54.421 385.453C53.4298 388.814 52.4963 391.499 52.337 391.452Z" fill="#263238"/>
<path d="M45.1281 415.794C44.9688 415.747 45.6451 412.985 46.6371 409.626C47.6294 406.265 48.563 403.58 48.7211 403.627C48.8803 403.674 48.2043 406.435 47.212 409.795C46.2212 413.155 45.2873 415.841 45.1281 415.794Z" fill="#263238"/>
<path d="M46.1476 436.408C46.1024 436.563 43.131 435.807 39.5098 434.72C39.104 433.987 39.3983 434.515 39.3071 434.35L39.3081 434.347L39.3096 434.342L39.3128 434.331L39.3187 434.31L39.331 434.268L39.3552 434.185L39.4035 434.019L39.5004 433.691C39.5645 433.474 39.6289 433.261 39.6918 433.049C39.8175 432.638 39.9404 432.236 40.0617 431.84C40.2884 431.138 40.5081 430.461 40.7215 429.801C41.1138 428.645 41.3954 427.943 41.4741 427.967C41.5528 427.99 41.4132 428.735 41.1236 429.922C40.9496 430.593 40.7713 431.283 40.5862 431.997C40.4758 432.397 40.3638 432.802 40.2491 433.216C40.1883 433.429 40.1284 433.643 40.0664 433.861L39.9717 434.19L39.9234 434.356L39.8992 434.439L39.887 434.481L39.881 434.502L39.8779 434.512L39.8763 434.518L39.8753 434.521C39.785 434.358 40.0772 434.889 39.6722 434.157C43.2945 435.245 46.1928 436.252 46.1476 436.408Z" fill="#263238"/>
<path d="M72.2839 444.161C72.2386 444.315 69.2711 443.57 65.6561 442.498C62.0399 441.425 59.1467 440.431 59.1917 440.278C59.2366 440.125 62.2034 440.869 65.8195 441.941C69.4349 443.013 72.3292 444.007 72.2839 444.161Z" fill="#263238"/>
<path d="M98.4607 451.913C98.4155 452.067 95.4479 451.321 91.8329 450.249C88.2168 449.176 85.3225 448.182 85.3675 448.029C85.4124 447.876 88.3803 448.62 91.9964 449.693C95.6117 450.764 98.506 451.759 98.4607 451.913Z" fill="#263238"/>
<path d="M124.637 459.664C124.592 459.818 121.625 459.073 118.01 458C114.393 456.928 111.5 455.933 111.545 455.78C111.59 455.627 114.557 456.371 118.173 457.444C121.788 458.515 124.683 459.51 124.637 459.664Z" fill="#263238"/>
<path d="M150.817 467.415C150.772 467.569 147.804 466.824 144.189 465.751C140.573 464.679 137.68 463.684 137.725 463.532C137.77 463.379 140.737 464.123 144.353 465.195C147.968 466.267 150.862 467.261 150.817 467.415Z" fill="#263238"/>
<path d="M176.994 475.166C176.949 475.32 173.981 474.575 170.366 473.503C166.75 472.43 163.856 471.435 163.901 471.282C163.946 471.129 166.912 471.873 170.53 472.946C174.145 474.018 177.039 475.012 176.994 475.166Z" fill="#263238"/>
<path d="M203.174 482.918C203.128 483.072 200.161 482.326 196.546 481.254C192.93 480.181 190.035 479.187 190.08 479.034C190.125 478.881 193.092 479.625 196.709 480.698C200.325 481.769 203.219 482.764 203.174 482.918Z" fill="#263238"/>
<path d="M229.352 490.669C229.307 490.823 226.339 490.078 222.724 489.005C219.108 487.932 216.215 486.938 216.26 486.785C216.305 486.632 219.272 487.376 222.888 488.449C226.503 489.52 229.398 490.515 229.352 490.669Z" fill="#263238"/>
<path d="M255.531 498.42C255.486 498.574 252.518 497.829 248.903 496.757C245.287 495.684 242.393 494.689 242.438 494.536C242.483 494.383 245.451 495.128 249.067 496.2C252.682 497.272 255.576 498.266 255.531 498.42Z" fill="#263238"/>
<path d="M281.709 506.172C281.664 506.326 278.696 505.58 275.081 504.508C271.465 503.435 268.571 502.44 268.616 502.287C268.66 502.135 271.627 502.879 275.244 503.952C278.86 505.023 281.754 506.018 281.709 506.172Z" fill="#263238"/>
<path d="M307.887 513.922C307.841 514.076 304.874 513.331 301.259 512.259C297.643 511.186 294.748 510.191 294.793 510.038C294.838 509.886 297.805 510.63 301.422 511.703C305.038 512.774 307.932 513.768 307.887 513.922Z" fill="#263238"/>
<path d="M327.49 519.726C327.445 519.88 325.95 519.571 324.151 519.036C322.352 518.502 320.93 517.943 320.975 517.79C321.02 517.637 322.515 517.945 324.314 518.48C326.114 519.014 327.536 519.572 327.49 519.726Z" fill="#263238"/>
<g opacity="0.3">
<path d="M153.998 378.777C153.998 378.777 150.929 389.54 145.741 395.053C140.554 400.564 138.719 402.732 131.076 403.162C123.433 403.593 32.9845 386.859 32.9845 386.859L41.5206 357.626L153.998 378.777Z" fill="black"/>
</g>
<g opacity="0.3">
<path d="M164.727 336.978C164.727 336.978 168.927 326.337 142.273 313.962C111.787 299.808 64.7031 279.551 64.7031 279.551L58.6459 300.256L164.727 336.978Z" fill="black"/>
</g>
<path d="M42.0312 367.014L132.829 394.249C141.446 396.834 150.441 392.035 152.918 383.531L164.603 343.418C167.081 334.913 162.103 325.923 153.486 323.338L62.688 296.102C54.0706 293.518 45.0775 298.317 42.5999 306.822L30.9149 346.935C28.4362 355.44 33.4137 364.429 42.0312 367.014Z" fill="#39D24E"/>
<path d="M42.0318 367.009C42.0318 367.009 41.7158 366.918 41.1051 366.711C40.4894 366.522 39.5999 366.145 38.499 365.534C37.3859 364.941 36.1206 363.998 34.8162 362.698C33.5271 361.386 32.2537 359.63 31.3583 357.414C30.4832 355.209 29.9086 352.535 30.246 349.659C30.3583 348.215 30.8162 346.766 31.2336 345.284C31.6637 343.795 32.1092 342.249 32.5719 340.648C34.4248 334.242 36.5334 326.95 38.8632 318.89C40.0427 314.861 41.2246 310.636 42.5561 306.239C43.9679 301.832 47.5163 297.874 52.2946 296.179C54.6545 295.316 57.2762 294.942 59.8849 295.28C61.1849 295.424 62.4917 295.768 63.738 296.152C64.9984 296.529 66.2675 296.909 67.5454 297.291C72.66 298.82 77.9236 300.396 83.3216 302.011C104.913 308.481 128.647 315.593 153.561 323.059C155.137 323.565 156.65 324.253 158.035 325.152C159.397 326.08 160.627 327.182 161.688 328.426C162.719 329.695 163.564 331.095 164.215 332.573C164.849 334.061 165.233 335.632 165.432 337.214C165.612 338.803 165.511 340.397 165.256 341.952C164.924 343.507 164.456 344.962 164.033 346.44C163.173 349.388 162.321 352.312 161.476 355.211C159.786 361.007 158.125 366.701 156.498 372.277C155.685 375.065 154.879 377.824 154.083 380.551C153.66 381.915 153.346 383.271 152.84 384.619C152.636 385.305 152.276 385.926 151.992 386.574C151.632 387.183 151.302 387.813 150.878 388.376C147.639 393.028 141.945 395.551 136.549 395.159C135.871 395.16 135.209 394.994 134.542 394.919C133.887 394.78 133.233 394.612 132.593 394.441C131.333 394.062 130.084 393.686 128.844 393.313C126.364 392.567 123.924 391.831 121.525 391.109C111.929 388.218 102.99 385.523 94.8277 383.063C78.5208 378.13 65.3227 374.138 56.1825 371.372C51.635 369.984 48.0998 368.903 45.6845 368.166C44.4976 367.797 43.5881 367.513 42.9589 367.318C42.3411 367.123 42.0318 367.009 42.0318 367.009C42.0318 367.009 42.3524 367.084 42.9722 367.26C43.6052 367.443 44.5204 367.707 45.7141 368.052C48.1375 368.766 51.6821 369.809 56.2429 371.153C65.3945 373.875 78.6113 377.807 94.94 382.665C103.109 385.104 112.053 387.775 121.657 390.642C124.058 391.36 126.499 392.089 128.981 392.831C131.478 393.515 133.946 394.541 136.57 394.642C141.794 395.014 147.303 392.561 150.427 388.059C152.095 385.861 152.751 383.119 153.547 380.39C154.341 377.661 155.142 374.901 155.954 372.113C157.576 366.535 159.232 360.84 160.918 355.042C161.761 352.144 162.613 349.219 163.471 346.27C163.892 344.796 164.365 343.313 164.679 341.837C164.923 340.337 165.021 338.8 164.847 337.268C164.654 335.743 164.284 334.227 163.673 332.791C163.044 331.366 162.228 330.016 161.236 328.792C160.211 327.593 159.026 326.531 157.714 325.636C156.379 324.771 154.92 324.109 153.399 323.617C128.491 316.137 104.76 309.009 83.1726 302.526C77.7771 300.903 72.5153 299.321 67.4033 297.783C66.125 297.398 64.8565 297.016 63.5978 296.638C62.3335 296.245 61.1051 295.921 59.8341 295.776C57.307 295.443 54.7643 295.802 52.4727 296.634C47.8314 298.269 44.3775 302.102 42.9917 306.384C41.6577 310.748 40.4567 314.989 39.2657 319.009C36.9043 327.06 34.7674 334.344 32.8894 340.742C32.4191 342.341 31.9659 343.884 31.5293 345.371C31.1008 346.863 30.646 348.274 30.5279 349.692C30.1783 352.516 30.7265 355.151 31.573 357.332C32.44 359.523 33.6811 361.269 34.9435 362.578C36.2213 363.876 37.4643 364.826 38.5596 365.432C39.6428 366.055 40.5207 366.447 41.1275 366.655C41.7257 366.88 42.0318 367.009 42.0318 367.009Z" fill="#263238"/>
<path d="M113.583 380.864C128.045 385.206 143.137 377.155 147.292 362.88C151.447 348.606 143.091 333.514 128.629 329.171C114.167 324.829 99.0752 332.881 94.9204 347.155C90.7655 361.43 99.1212 376.521 113.583 380.864Z" fill="#263238"/>
<path d="M121.483 378.131C121.458 377.97 124.395 378.25 128.706 376.77C130.847 376.041 133.277 374.811 135.6 372.953C137.921 371.107 140.086 368.579 141.577 365.508C143.022 362.415 143.62 359.137 143.592 356.169C143.571 353.193 142.996 350.527 142.213 348.4C140.649 344.114 138.585 342.005 138.724 341.923C138.74 341.91 138.864 342.038 139.088 342.296C139.299 342.56 139.658 342.92 140.017 343.457C140.791 344.492 141.765 346.109 142.607 348.262C143.455 350.409 144.088 353.124 144.14 356.171C144.199 359.209 143.603 362.58 142.114 365.765C140.58 368.927 138.341 371.511 135.946 373.378C133.549 375.255 131.044 376.471 128.845 377.163C126.645 377.862 124.776 378.123 123.486 378.171C122.844 378.228 122.338 378.177 122 378.178C121.66 378.167 121.483 378.151 121.483 378.131Z" fill="#FAFAFA"/>
<path d="M398.998 205.018C395.5 222.952 377.92 234.441 359.731 230.681C341.542 226.92 329.633 209.333 333.13 191.399C336.627 173.465 354.207 161.976 372.396 165.737C390.585 169.498 402.495 187.084 398.998 205.018Z" fill="#39D24E"/>
<g opacity="0.3">
<path d="M391.325 202.5C391.172 202.474 391.277 201.366 391.244 199.388C391.199 197.42 390.973 194.539 389.837 191.21C389.268 189.552 388.477 187.791 387.401 186.031C386.31 184.283 384.954 182.526 383.272 180.931C382.435 180.13 381.529 179.358 380.539 178.657C379.553 177.952 378.507 177.285 377.382 176.716C376.262 176.144 375.089 175.621 373.855 175.212C372.622 174.801 371.344 174.471 370.032 174.233C368.716 174.013 367.404 173.89 366.11 173.861C364.813 173.829 363.54 173.925 362.3 174.085C361.057 174.242 359.857 174.517 358.704 174.849C357.547 175.176 356.447 175.599 355.403 176.071C353.309 177.009 351.472 178.21 349.89 179.492C348.317 180.789 347.013 182.186 345.952 183.56C343.828 186.32 342.705 188.965 342.042 190.81C341.386 192.667 341.136 193.75 340.983 193.721C340.87 193.704 340.865 192.573 341.311 190.589C341.767 188.621 342.733 185.771 344.827 182.748C345.874 181.244 347.195 179.705 348.823 178.269C350.46 176.847 352.389 175.511 354.614 174.457C355.724 173.927 356.897 173.452 358.136 173.082C359.372 172.705 360.662 172.394 362 172.211C363.335 172.024 364.711 171.912 366.109 171.938C367.506 171.962 368.924 172.092 370.341 172.33C371.756 172.586 373.135 172.944 374.464 173.395C375.793 173.845 377.057 174.417 378.26 175.046C379.465 175.673 380.586 176.405 381.634 177.18C382.688 177.95 383.647 178.797 384.528 179.673C386.297 181.423 387.698 183.339 388.797 185.238C389.881 187.146 390.644 189.049 391.158 190.825C392.183 194.392 392.195 197.413 392.005 199.427C391.8 201.454 391.437 202.521 391.325 202.5Z" fill="black"/>
</g>
<g opacity="0.3">
<path d="M366.003 213.62L365.222 217.963L361.298 217.21L362.059 212.985C358.216 212.008 354.705 210.092 352.847 208.011L355.856 203.694C357.56 205.506 360.196 207.093 362.974 207.906L364.139 201.431C359.971 199.551 355.363 197.184 356.362 191.639C357.102 187.53 360.759 184.581 367.084 185.072L367.86 180.768L371.784 181.52L371.023 185.747C373.924 186.544 376.649 187.867 378.562 189.638L375.742 194.031C373.943 192.523 372.022 191.473 370.101 190.863L368.914 197.455C373.088 199.297 377.618 201.65 376.634 207.115C375.907 211.147 372.297 214.064 366.003 213.62ZM365.165 195.733L366.156 190.228C363.993 190.294 362.966 191.261 362.735 192.541C362.491 193.897 363.536 194.86 365.165 195.733ZM370.232 206.37C370.476 205.013 369.472 204.059 367.889 203.153L366.925 208.503C368.964 208.453 370.009 207.61 370.232 206.37Z" fill="black"/>
</g>
<path d="M340.945 193.21C340.952 193.211 340.949 193.281 340.936 193.416C340.92 193.573 340.898 193.768 340.872 194.012C340.84 194.283 340.801 194.604 340.756 194.979C340.71 195.36 340.637 195.798 340.644 196.3C340.518 198.287 340.622 201.22 341.594 204.672C342.054 206.404 342.845 208.216 343.827 210.082C344.105 210.532 344.388 210.989 344.675 211.453C344.822 211.682 344.954 211.925 345.117 212.15C345.285 212.371 345.453 212.594 345.623 212.819C345.971 213.262 346.291 213.738 346.674 214.173C347.066 214.6 347.463 215.034 347.865 215.473C349.55 217.148 351.49 218.765 353.771 220.013C356.046 221.259 358.573 222.221 361.26 222.805C363.961 223.319 366.656 223.42 369.222 223.16C371.793 222.901 374.188 222.167 376.367 221.278C376.901 221.03 377.429 220.785 377.951 220.543C378.466 220.291 378.938 219.976 379.424 219.703C379.665 219.562 379.903 219.422 380.14 219.283C380.374 219.138 380.586 218.967 380.807 218.812C381.246 218.495 381.676 218.183 382.1 217.877C383.7 216.536 385.105 215.172 386.171 213.751C388.35 210.941 389.534 208.27 390.155 206.384C390.348 205.923 390.442 205.49 390.542 205.119C390.639 204.755 390.722 204.443 390.792 204.18C390.858 203.945 390.912 203.756 390.955 203.604C390.993 203.474 391.016 203.409 391.023 203.41C391.03 203.411 391.02 203.48 390.994 203.613C390.962 203.767 390.921 203.959 390.87 204.199C390.809 204.465 390.738 204.782 390.655 205.151C390.567 205.526 390.483 205.966 390.301 206.433C389.721 208.345 388.568 211.059 386.393 213.922C385.328 215.37 383.92 216.763 382.307 218.131C381.88 218.444 381.445 218.763 381.005 219.087C380.781 219.245 380.567 219.42 380.331 219.567C380.092 219.71 379.851 219.853 379.608 219.997C379.118 220.277 378.64 220.598 378.118 220.857C377.591 221.105 377.057 221.355 376.516 221.61C374.311 222.52 371.882 223.272 369.271 223.541C366.667 223.811 363.929 223.71 361.187 223.188C358.459 222.596 355.892 221.616 353.586 220.345C351.273 219.074 349.307 217.427 347.606 215.72C347.201 215.274 346.799 214.832 346.404 214.396C346.019 213.953 345.695 213.469 345.346 213.018C345.175 212.789 345.005 212.562 344.837 212.337C344.674 212.108 344.541 211.862 344.392 211.628C344.104 211.156 343.821 210.691 343.543 210.234C342.56 208.337 341.774 206.498 341.327 204.742C340.379 201.243 340.318 198.282 340.492 196.287C340.497 195.783 340.582 195.344 340.641 194.962C340.701 194.589 340.752 194.268 340.795 193.998C340.837 193.756 340.871 193.562 340.898 193.407C340.922 193.275 340.938 193.208 340.945 193.21Z" fill="#263238"/>
<path d="M455.63 384.577C444.9 396.325 426.435 397.053 414.386 386.203C402.337 375.353 401.268 357.034 411.998 345.287C422.727 333.539 441.193 332.811 453.241 343.662C465.29 354.511 466.359 372.83 455.63 384.577Z" fill="#39D24E"/>
<g opacity="0.3">
<path d="M450.917 379.308C450.813 379.221 451.392 378.445 452.261 376.962C453.115 375.481 454.245 373.242 454.887 370.265C455.206 368.781 455.403 367.123 455.383 365.338C455.346 363.555 455.114 361.65 454.562 359.718C454.29 358.752 453.954 357.777 453.521 356.817C453.094 355.856 452.603 354.896 452.01 353.974C451.421 353.053 450.769 352.143 450.02 351.291C449.274 350.438 448.456 349.626 447.571 348.867C446.675 348.12 445.737 347.446 444.773 346.85C443.806 346.252 442.8 345.757 441.789 345.326C440.779 344.891 439.747 344.563 438.724 344.298C437.701 344.027 436.678 343.852 435.675 343.74C433.669 343.507 431.738 343.583 429.962 343.833C428.187 344.098 426.571 344.556 425.148 345.107C422.296 346.214 420.253 347.679 418.919 348.755C417.585 349.844 416.908 350.536 416.804 350.448C416.726 350.385 417.232 349.543 418.466 348.268C419.699 347.009 421.715 345.321 424.664 344.006C426.135 343.354 427.828 342.797 429.708 342.454C431.588 342.125 433.649 341.988 435.807 342.194C436.886 342.293 437.988 342.461 439.092 342.736C440.196 343.005 441.312 343.346 442.407 343.803C443.502 344.257 444.592 344.784 445.638 345.424C446.684 346.063 447.698 346.787 448.663 347.593C449.618 348.412 450.498 349.29 451.3 350.214C452.102 351.138 452.8 352.125 453.426 353.125C454.055 354.126 454.572 355.167 455.014 356.208C455.463 357.246 455.807 358.303 456.078 359.343C456.626 361.427 456.82 363.472 456.794 365.37C456.751 367.269 456.471 369.02 456.057 370.567C455.223 373.671 453.868 375.919 452.816 377.33C451.748 378.743 450.992 379.374 450.917 379.308Z" fill="black"/>
</g>
<g opacity="0.3">
<path d="M426.832 376.335L424.287 379.205L421.667 376.911L424.144 374.119C421.685 371.694 419.898 368.721 419.435 366.358L423.649 364.492C424.119 366.587 425.392 368.929 427.122 370.761L430.917 366.481C428.619 363.244 426.21 359.451 429.461 355.787C431.87 353.07 435.956 352.505 440.506 355.668L443.029 352.823L445.651 355.117L443.174 357.911C445.004 359.784 446.463 361.971 447.109 364.128L443.002 366.135C442.324 364.222 441.347 362.593 440.173 361.292L436.309 365.649C438.628 368.861 440.985 372.608 437.781 376.22C435.417 378.886 431.38 379.449 426.832 376.335ZM434.256 362.715L437.482 359.076C435.821 358.167 434.611 358.43 433.861 359.275C433.066 360.172 433.42 361.348 434.256 362.715ZM433.288 372.836C434.083 371.938 433.754 370.787 432.969 369.415L429.833 372.952C431.394 373.817 432.56 373.656 433.288 372.836Z" fill="black"/>
</g>
<path d="M417.137 350.078C417.185 350.118 416.548 350.85 415.555 352.268C414.577 353.694 413.347 355.92 412.539 358.906C412.111 360.392 411.899 362.083 411.804 363.898C411.808 365.716 411.926 367.672 412.433 369.667C412.952 371.648 413.687 373.699 414.844 375.628C415.998 377.552 417.466 379.378 419.226 380.997C421.028 382.569 423.008 383.834 425.054 384.777C427.105 385.723 429.235 386.24 431.273 386.549C433.323 386.846 435.295 386.763 437.116 386.579C438.924 386.299 440.596 385.916 442.041 385.342C444.95 384.237 447.053 382.794 448.381 381.682C449.7 380.556 450.367 379.852 450.412 379.895C450.427 379.909 450.271 380.091 449.958 380.43C449.631 380.752 449.208 381.295 448.533 381.856C447.239 383.033 445.143 384.552 442.197 385.728C440.734 386.338 439.035 386.754 437.19 387.06C435.331 387.269 433.314 387.373 431.211 387.083C429.121 386.783 426.931 386.262 424.823 385.299C422.72 384.34 420.682 383.043 418.834 381.428C417.028 379.768 415.521 377.889 414.344 375.91C413.164 373.927 412.419 371.818 411.903 369.784C411.398 367.736 411.295 365.733 411.315 363.875C411.432 362.021 411.675 360.299 412.136 358.792C413.012 355.762 414.32 353.536 415.366 352.135C415.858 351.411 416.358 350.938 416.649 350.581C416.954 350.237 417.121 350.064 417.137 350.078Z" fill="#263238"/>
<path d="M298.853 195.285C294.247 228.748 263.026 251.733 229.119 246.628C195.211 241.519 171.456 210.251 176.062 176.788C180.667 143.326 211.887 120.339 245.795 125.448C279.703 130.554 303.459 161.824 298.853 195.285Z" fill="#39D24E"/>
<g opacity="0.3">
<path d="M284.468 191.439C284.183 191.407 284.264 189.351 284 185.701C283.715 182.07 283.003 176.776 280.567 170.742C279.349 167.738 277.711 164.565 275.545 161.424C273.354 158.307 270.675 155.198 267.41 152.422C265.785 151.03 264.035 149.694 262.139 148.501C260.25 147.298 258.251 146.171 256.121 145.234C253.997 144.29 251.779 143.444 249.463 142.813C247.149 142.178 244.759 141.698 242.315 141.391C239.867 141.117 237.435 141.023 235.046 141.099C232.653 141.172 230.315 141.478 228.046 141.898C225.772 142.313 223.587 142.942 221.494 143.672C219.395 144.391 217.41 145.283 215.535 146.26C211.771 148.203 208.508 150.605 205.726 153.133C202.96 155.686 200.699 158.397 198.884 161.041C195.253 166.352 193.456 171.349 192.421 174.823C191.405 178.319 191.055 180.344 190.769 180.307C190.558 180.286 190.432 178.199 191.052 174.49C191.691 170.811 193.176 165.451 196.727 159.657C198.502 156.774 200.778 153.8 203.632 150.983C206.505 148.193 209.923 145.53 213.917 143.36C215.907 142.27 218.022 141.274 220.267 140.466C222.506 139.646 224.852 138.941 227.299 138.466C229.742 137.986 232.265 137.641 234.846 137.548C237.425 137.452 240.05 137.549 242.689 137.845C245.324 138.174 247.903 138.698 250.397 139.397C252.895 140.094 255.283 141.024 257.565 142.064C259.852 143.1 261.993 144.339 264.004 145.665C266.025 146.98 267.883 148.449 269.595 149.977C273.036 153.029 275.815 156.428 278.036 159.823C280.23 163.237 281.833 166.675 282.963 169.902C285.219 176.385 285.55 181.962 285.408 185.7C285.238 189.461 284.679 191.466 284.468 191.439Z" fill="black"/>
</g>
<path d="M190.632 179.312C190.645 179.314 190.648 179.443 190.639 179.694C190.624 179.988 190.607 180.352 190.584 180.802C190.552 181.307 190.515 181.905 190.472 182.598C190.427 183.307 190.338 184.123 190.402 185.049C190.376 188.73 190.872 194.137 193.02 200.41C194.046 203.561 195.692 206.824 197.694 210.171C198.253 210.973 198.82 211.789 199.397 212.616C199.692 213.025 199.961 213.459 200.283 213.858C200.615 214.251 200.949 214.645 201.286 215.043C201.972 215.825 202.611 216.671 203.361 217.437C204.127 218.187 204.902 218.947 205.689 219.717C208.966 222.639 212.707 225.429 217.038 227.502C221.357 229.571 226.115 231.094 231.124 231.902C236.155 232.577 241.131 232.494 245.83 231.755C250.543 231.019 254.879 229.421 258.804 227.563C259.764 227.051 260.711 226.546 261.645 226.047C262.568 225.53 263.408 224.903 264.275 224.349C264.704 224.065 265.13 223.783 265.553 223.503C265.968 223.213 266.342 222.874 266.733 222.566C267.507 221.938 268.269 221.319 269.019 220.71C271.831 218.075 274.279 215.416 276.099 212.685C279.828 207.279 281.738 202.228 282.69 198.685C282.998 197.815 283.128 197.005 283.273 196.311C283.416 195.631 283.539 195.047 283.641 194.552C283.74 194.114 283.819 193.758 283.883 193.472C283.942 193.229 283.979 193.106 283.991 193.107C284.004 193.109 283.994 193.237 283.96 193.483C283.916 193.774 283.861 194.134 283.793 194.579C283.709 195.08 283.611 195.671 283.496 196.359C283.373 197.062 283.265 197.881 282.977 198.764C282.107 202.353 280.262 207.484 276.547 212.992C274.733 215.774 272.279 218.489 269.448 221.181C268.693 221.803 267.924 222.436 267.144 223.078C266.749 223.392 266.371 223.737 265.952 224.035C265.525 224.322 265.094 224.612 264.662 224.902C263.786 225.47 262.938 226.11 262.003 226.641C261.058 227.151 260.098 227.669 259.126 228.193C255.153 230.098 250.752 231.734 245.965 232.492C241.191 233.254 236.132 233.344 231.02 232.655C225.93 231.836 221.094 230.284 216.71 228.17C212.314 226.054 208.52 223.208 205.208 220.227C204.414 219.442 203.63 218.667 202.856 217.903C202.098 217.123 201.454 216.262 200.763 215.464C200.424 215.059 200.087 214.657 199.755 214.257C199.43 213.85 199.16 213.409 198.863 212.992C198.284 212.149 197.714 211.319 197.153 210.502C195.145 207.097 193.509 203.778 192.505 200.58C190.398 194.212 189.985 188.747 190.102 185.045C190.059 184.114 190.172 183.295 190.242 182.585C190.314 181.892 190.376 181.294 190.429 180.789C190.483 180.342 190.525 179.98 190.559 179.688C190.596 179.436 190.618 179.311 190.632 179.312Z" fill="#263238"/>
<g clip-path="url(#clip1_542_4010)">
<path d="M253.772 202.182L255.833 207.94C255.946 208.228 255.945 208.512 255.832 208.79C255.719 209.068 255.535 209.273 255.278 209.405L255.099 209.464C255.007 209.526 254.885 209.584 254.73 209.641C254.576 209.697 254.387 209.777 254.164 209.879C253.941 209.982 253.686 210.082 253.4 210.18C253.114 210.277 252.81 210.377 252.487 210.479C252.164 210.581 251.805 210.688 251.409 210.799C251.012 210.91 250.609 211.015 250.199 211.115C249.789 211.215 249.346 211.306 248.872 211.389C248.397 211.472 247.927 211.541 247.461 211.598C241.726 212.292 236.502 211.281 231.79 208.564C227.077 205.848 223.59 201.844 221.328 196.551L217.836 196.974C217.517 197.013 217.226 196.928 216.962 196.721C216.699 196.514 216.546 196.249 216.504 195.927L215.953 191.724C215.911 191.402 215.991 191.109 216.193 190.845C216.395 190.581 216.655 190.43 216.974 190.392L219.4 190.098C219.166 188.691 219.008 187.388 218.926 186.189L216.463 186.487C216.12 186.528 215.823 186.451 215.573 186.254C215.324 186.058 215.176 185.786 215.13 185.439L214.575 181.199C214.53 180.852 214.603 180.554 214.794 180.304C214.986 180.054 215.253 179.909 215.596 179.867L219.199 179.431C220.159 174.026 222.594 169.474 226.505 165.777C230.415 162.08 235.115 159.899 240.605 159.235C243.105 158.932 245.52 158.929 247.849 159.227C248.128 159.269 248.398 159.425 248.657 159.696C248.84 159.951 248.916 160.244 248.884 160.575L248.078 166.679C248.047 167.011 247.907 167.273 247.658 167.467C247.41 167.661 247.12 167.727 246.788 167.667L246.636 167.647C246.535 167.634 246.39 167.62 246.201 167.605L245.541 167.553L244.697 167.523L243.726 167.527L242.648 167.563L241.558 167.657C238.47 168.031 235.805 169.16 233.562 171.043C231.318 172.927 229.766 175.331 228.904 178.256L246.109 176.173C246.501 176.126 246.827 176.238 247.087 176.508C247.371 176.776 247.499 177.088 247.471 177.444L247.144 181.791C247.105 182.45 246.755 182.82 246.094 182.9L228.153 185.072C228.2 185.998 228.37 187.299 228.665 188.977L245.539 186.934C245.906 186.889 246.232 187.001 246.516 187.269C246.776 187.54 246.893 187.866 246.868 188.246L246.531 192.518C246.518 192.797 246.413 193.043 246.217 193.255C246.021 193.468 245.788 193.591 245.518 193.623L231.291 195.345C232.847 198.104 234.981 200.182 237.691 201.579C240.401 202.976 243.312 203.486 246.424 203.109C246.866 203.056 247.304 202.984 247.741 202.893C248.177 202.803 248.582 202.71 248.955 202.614C249.328 202.519 249.683 202.419 250.018 202.316C250.353 202.212 250.645 202.114 250.894 202.021C251.143 201.927 251.363 201.844 251.552 201.771L251.979 201.606L252.153 201.509C252.455 201.347 252.777 201.333 253.118 201.468C253.435 201.606 253.653 201.844 253.772 202.182Z" fill="#289337"/>
</g>
<defs>
<clipPath id="clip0_542_4010">
<rect width="25.0171" height="34.0876" fill="white" transform="matrix(0.901734 0.438449 -0.431708 0.89892 330.701 81.6642)"/>
</clipPath>
<clipPath id="clip1_542_4010">
<rect width="38.1305" height="52.5193" fill="white" transform="matrix(0.987276 -0.119508 0.130546 0.99702 212.15 162.679)"/>
</clipPath>
</defs>
</svg>
