<svg width="294" height="208" viewBox="0 0 294 208" fill="none" xmlns="http://www.w3.org/2000/svg">
<path d="M288.822 207.368H5.20487C2.41399 207.368 0.151855 205.106 0.151855 202.315V5.20499C0.151855 2.41411 2.41399 0.151978 5.20487 0.151978H288.822C291.613 0.151978 293.875 2.41411 293.875 5.20499V202.316C293.875 205.106 291.613 207.368 288.822 207.368Z" fill="#FAFAFA"/>
<path d="M21.7038 207.533H5.64551C2.54634 207.533 0.034668 205.021 0.034668 201.923V5.97522C0.034668 2.87663 2.54692 0.36438 5.64551 0.36438H21.7038C24.8024 0.36438 27.3147 2.87663 27.3147 5.97522V201.922C27.3147 205.021 24.8024 207.533 21.7038 207.533Z" fill="#39D24E"/>
<path d="M25.8506 89.6684H4.88292C3.98598 89.6684 3.2583 90.3955 3.2583 91.293V107.829C3.2583 108.726 3.98539 109.453 4.88292 109.453H27.5799C28.5437 109.453 29.2958 108.619 29.1958 107.66L31.2398 89.5602L25.8506 89.6684Z" fill="#FAFAFA"/>
<path d="M257.146 19.6945C257.123 19.7032 257.199 19.659 257.289 19.609C257.379 19.5543 257.505 19.4589 257.626 19.299C257.884 18.9808 258.069 18.4236 258.089 17.6761C258.125 17.3038 258.165 16.8879 258.314 16.4546C258.452 16.0311 258.752 15.5501 259.276 15.3564C259.778 15.1848 260.395 15.1953 260.885 15.5664C261.359 15.9491 261.55 16.5494 261.645 17.1177C261.687 17.376 261.704 17.6331 261.712 17.8855C261.714 18.1519 261.712 18.3474 261.797 18.5579C261.952 18.9674 262.263 19.3211 262.58 19.5811L262.893 19.8376L262.495 19.8364C260.886 19.8312 259.497 19.7678 258.569 19.7347C257.94 19.7166 257.53 19.705 257.146 19.6945C257.571 19.684 258.026 19.6724 258.724 19.6544C259.689 19.6212 260.975 19.5578 262.496 19.5526L262.411 19.8079C262.045 19.5136 261.714 19.1507 261.519 18.6609C261.416 18.423 261.412 18.1188 261.411 17.8931C261.403 17.6511 261.387 17.4062 261.346 17.1642C261.259 16.6291 261.077 16.1003 260.701 15.7979C260.329 15.5018 259.791 15.4803 259.374 15.617C258.952 15.7647 258.691 16.1486 258.55 16.5389C258.403 16.9316 258.35 17.3329 258.301 17.6976C258.26 18.0612 258.221 18.4137 258.109 18.7004C258.005 18.9878 257.863 19.2164 257.716 19.374C257.57 19.5346 257.421 19.623 257.315 19.6625C257.257 19.6835 257.224 19.6934 257.2 19.6875C257.171 19.6881 257.15 19.6939 257.146 19.6945Z" fill="#263238"/>
<path d="M261.348 17.2813C261.982 17.2813 262.496 16.7669 262.496 16.1325C262.496 15.498 261.982 14.9836 261.348 14.9836C260.713 14.9836 260.199 15.498 260.199 16.1325C260.199 16.7669 260.713 17.2813 261.348 17.2813Z" fill="#39D24E"/>
<path fill-rule="evenodd" clip-rule="evenodd" d="M259.104 20.4246H260.682C260.682 20.4246 260.705 21.2558 259.821 21.2279C258.937 21.1999 259.104 20.4246 259.104 20.4246Z" fill="#263238"/>
<path fill-rule="evenodd" clip-rule="evenodd" d="M278.353 24.4381H271.435C269.985 24.4381 268.809 23.2626 268.809 21.8124V14.894C268.809 13.4439 269.985 12.2683 271.435 12.2683H278.353C279.803 12.2683 280.979 13.4439 280.979 14.894V21.8124C280.979 23.2626 279.803 24.4381 278.353 24.4381Z" fill="#39D24E"/>
<path d="M17.7329 44.6401C17.6805 44.6401 17.6282 44.6215 17.5869 44.5837L13.6751 41.0431L9.76275 44.5837C9.67376 44.6646 9.53531 44.6587 9.45504 44.5686C9.37419 44.4796 9.38059 44.3412 9.47017 44.2609L13.5285 40.5876C13.6117 40.512 13.7379 40.512 13.8211 40.5876L17.8794 44.2609C17.969 44.3417 17.9754 44.4796 17.8946 44.5686C17.8515 44.6163 17.7922 44.6401 17.7329 44.6401Z" fill="#FAFAFA"/>
<path d="M16.6207 47.7398H10.7289C10.6085 47.7398 10.5107 47.642 10.5107 47.5216V43.422C10.5107 43.3016 10.6085 43.2039 10.7289 43.2039C10.8493 43.2039 10.947 43.3016 10.947 43.422V47.3035H16.4025V43.422C16.4025 43.3016 16.5003 43.2039 16.6207 43.2039C16.7411 43.2039 16.8388 43.3016 16.8388 43.422V47.5216C16.8388 47.642 16.7411 47.7398 16.6207 47.7398Z" fill="#FAFAFA"/>
<path d="M17.3349 73.1409H9.65563C9.53522 73.1409 9.4375 73.0432 9.4375 72.9228V68.0245C9.4375 67.4172 9.93192 66.9222 10.5392 66.9222H12.5361C13.0375 66.9222 13.4871 67.2212 13.6808 67.6836L14.0246 68.5021H16.4513C17.0586 68.5021 17.5536 68.9965 17.5536 69.6043V72.9228C17.553 73.0432 17.4553 73.1409 17.3349 73.1409ZM9.87376 72.7047H17.1168V69.6043C17.1168 69.2373 16.8178 68.9383 16.4508 68.9383H13.8792C13.7913 68.9383 13.7122 68.8854 13.6779 68.8045L13.2783 67.8523C13.1527 67.5522 12.8612 67.3585 12.5361 67.3585H10.5392C10.1722 67.3585 9.87376 67.6575 9.87376 68.0245V72.7047Z" fill="#FAFAFA"/>
<path d="M11.3239 163.105C11.2035 163.105 11.0843 163.068 10.9825 162.994C10.8051 162.865 10.7161 162.65 10.7498 162.433L11.0709 160.391C11.0779 160.347 11.0628 160.3 11.0308 160.267L9.57078 158.803C9.41605 158.648 9.36196 158.422 9.42943 158.213C9.49749 158.005 9.67373 157.854 9.8907 157.819L11.9312 157.493C11.9772 157.486 12.0161 157.458 12.0371 157.417L12.9776 155.576C13.1766 155.186 13.8129 155.185 14.0125 155.576L14.953 157.416C14.974 157.457 15.0135 157.486 15.0589 157.493L17.1 157.819C17.3164 157.854 17.4932 158.004 17.5607 158.213C17.6281 158.422 17.574 158.648 17.4193 158.803L15.9599 160.267C15.9267 160.3 15.9116 160.346 15.9192 160.391L16.2403 162.433C16.2746 162.65 16.185 162.865 16.0082 162.994C15.8302 163.123 15.5987 163.14 15.4032 163.041L13.5611 162.105C13.5198 162.085 13.4709 162.085 13.4302 162.105L11.5874 163.041C11.5037 163.084 11.4135 163.105 11.3239 163.105ZM13.4953 161.654C13.5855 161.654 13.6762 161.674 13.7588 161.716L15.601 162.652C15.672 162.688 15.7301 162.656 15.7517 162.64C15.7732 162.625 15.822 162.58 15.8098 162.501L15.4887 160.459C15.4597 160.276 15.5207 160.089 15.6522 159.959L17.111 158.496C17.1675 158.439 17.1547 158.374 17.1465 158.348C17.1384 158.323 17.1105 158.263 17.0319 158.25L14.9908 157.924C14.8082 157.895 14.6488 157.78 14.565 157.615L13.6251 155.775C13.5884 155.704 13.5227 155.696 13.4965 155.696C13.4697 155.696 13.404 155.704 13.3674 155.775L12.4268 157.616C12.343 157.78 12.1837 157.896 12.001 157.924L9.9605 158.25C9.88139 158.263 9.85347 158.323 9.84533 158.348C9.83718 158.374 9.82381 158.439 9.88081 158.496L11.3408 159.959C11.4711 160.089 11.5322 160.277 11.5037 160.459L11.1826 162.501C11.1704 162.58 11.2192 162.625 11.2408 162.64C11.2623 162.656 11.3199 162.688 11.3914 162.652L13.2336 161.716C13.3144 161.674 13.4046 161.654 13.4953 161.654Z" fill="#FAFAFA"/>
<path d="M17.8081 132.445H9.18297C9.06257 132.445 8.96484 132.348 8.96484 132.227V126.789C8.96484 126.669 9.06257 126.571 9.18297 126.571H17.8081C17.9285 126.571 18.0262 126.669 18.0262 126.789V132.227C18.0262 132.348 17.9285 132.445 17.8081 132.445ZM9.4011 132.009H17.5899V127.007H9.4011V132.009Z" fill="#FAFAFA"/>
<path d="M13.6006 130.917C13.5489 130.917 13.4977 130.899 13.4558 130.862L9.03798 126.953C8.94782 126.872 8.9391 126.734 9.01937 126.645C9.09964 126.555 9.23691 126.547 9.32707 126.626L13.5966 130.404L17.659 126.63C17.7468 126.547 17.8853 126.552 17.9673 126.641C18.0493 126.729 18.0441 126.868 17.9556 126.949L13.7484 130.859C13.7071 130.897 13.6542 130.917 13.6006 130.917Z" fill="#FAFAFA"/>
<path d="M9.3067 132.208C9.25086 132.208 9.19502 132.187 9.15256 132.144C9.06764 132.059 9.06764 131.92 9.15256 131.836L11.7765 129.212C11.8614 129.126 11.9999 129.126 12.0848 129.212C12.1697 129.297 12.1697 129.436 12.0848 129.52L9.46085 132.144C9.41839 132.187 9.36313 132.208 9.3067 132.208Z" fill="#FAFAFA"/>
<path d="M17.8644 132.389C17.8085 132.389 17.7527 132.368 17.7102 132.325L14.906 129.521C14.8211 129.436 14.8211 129.297 14.906 129.212C14.9909 129.127 15.1293 129.127 15.2143 129.212L18.0185 132.017C18.1034 132.102 18.1034 132.241 18.0185 132.325C17.9761 132.368 17.9202 132.389 17.8644 132.389Z" fill="#FAFAFA"/>
<path d="M14.3124 97.5546H13.0356V98.8313H14.3124V97.5546Z" fill="#39D24E"/>
<path d="M16.7137 97.5546H15.4375V98.8313H16.7137V97.5546Z" fill="#39D24E"/>
<path d="M11.9115 97.5546H10.6348V98.8313H11.9115V97.5546Z" fill="#39D24E"/>
<path d="M16.7143 99.5603H15.4375V100.837H16.7143V99.5603Z" fill="#39D24E"/>
<path d="M14.3124 99.5603H13.0356V100.837H14.3124V99.5603Z" fill="#39D24E"/>
<path d="M11.9115 99.5603H10.6348V100.837H11.9115V99.5603Z" fill="#39D24E"/>
<path d="M18.198 103.012H9.15123C9.03083 103.012 8.93311 102.914 8.93311 102.794V95.3558C8.93311 95.2354 9.03083 95.1377 9.15123 95.1377H18.198C18.3184 95.1377 18.4162 95.2354 18.4162 95.3558V102.794C18.4162 102.914 18.3184 103.012 18.198 103.012ZM9.36936 102.576H17.9799V95.574H9.36936V102.576Z" fill="#39D24E"/>
<path d="M11.5975 96.4705C11.4771 96.4705 11.3794 96.3727 11.3794 96.2523V93.8535C11.3794 93.7331 11.4771 93.6354 11.5975 93.6354C11.7179 93.6354 11.8157 93.7331 11.8157 93.8535V96.2523C11.8157 96.3727 11.7179 96.4705 11.5975 96.4705Z" fill="#39D24E"/>
<path d="M15.5287 96.4705C15.4083 96.4705 15.3105 96.3727 15.3105 96.2523V93.8535C15.3105 93.7331 15.4083 93.6354 15.5287 93.6354C15.6491 93.6354 15.7468 93.7331 15.7468 93.8535V96.2523C15.7468 96.3727 15.6491 96.4705 15.5287 96.4705Z" fill="#39D24E"/>
<path d="M106.301 25.9132C110.78 22.4022 114.738 18.0862 119.878 15.6426C128.716 11.4417 139.146 13.5718 148.58 16.1736C158.012 18.7755 167.977 21.7851 177.39 19.1117C186.112 16.6338 193.056 8.96669 194.994 0.151978H33.0791C35.2336 18.0536 48.7303 32.8154 66.668 35.918C67.0414 35.9826 67.416 36.0431 67.7906 36.0984C81.2924 38.1063 95.5569 34.3336 106.301 25.9132Z" fill="#39D24E"/>
<path d="M216.184 16.7578C220.743 20.8964 227.39 22.0219 233.507 21.3146C237.622 20.8388 241.806 19.526 244.779 16.6414C248.149 13.3713 249.535 8.29497 248.629 3.68694C248.388 2.46309 247.991 1.27939 247.469 0.1521H213.755C210.023 5.03119 211.633 12.6261 216.184 16.7578Z" fill="#39D24E"/>
<g opacity="0.8">
<path d="M106.301 25.9132C110.78 22.4022 114.738 18.0862 119.878 15.6426C128.716 11.4417 139.146 13.5718 148.58 16.1736C158.012 18.7755 167.977 21.7851 177.39 19.1117C186.112 16.6338 193.056 8.96669 194.994 0.151978H33.0791C35.2336 18.0536 48.7303 32.8154 66.668 35.918C67.0414 35.9826 67.416 36.0431 67.7906 36.0984C81.2924 38.1063 95.5569 34.3336 106.301 25.9132Z" fill="white"/>
<path d="M216.184 16.7578C220.743 20.8964 227.39 22.0219 233.507 21.3146C237.622 20.8388 241.806 19.526 244.779 16.6414C248.149 13.3713 249.535 8.29497 248.629 3.68694C248.388 2.46309 247.991 1.27939 247.469 0.1521H213.755C210.023 5.03119 211.633 12.6261 216.184 16.7578Z" fill="white"/>
</g>
<path d="M249.543 17.323C249.542 17.305 249.633 17.2718 249.807 17.2887C249.976 17.3073 250.236 17.3917 250.453 17.6336C250.67 17.868 250.812 18.2834 250.682 18.7086C250.563 19.128 250.134 19.5101 249.615 19.5223C249.094 19.5427 248.642 19.1919 248.496 18.7784C248.337 18.3631 248.456 17.9384 248.655 17.6912C248.856 17.4347 249.111 17.3347 249.278 17.3056C249.449 17.2794 249.543 17.3062 249.543 17.323C249.563 17.3765 249.134 17.3637 248.83 17.8157C248.688 18.0315 248.622 18.3648 248.755 18.6748C248.877 18.982 249.222 19.2344 249.604 19.2193C249.99 19.2088 250.311 18.936 250.417 18.6213C250.528 18.3037 250.444 17.9745 250.287 17.7686C249.952 17.3387 249.527 17.3748 249.543 17.323Z" fill="#263238"/>
<path d="M249.827 16.0184C249.818 16.0312 249.733 15.8584 249.58 15.4948L249.631 15.5257C249.366 15.5699 249.052 15.6222 248.689 15.6821L248.755 15.6129C248.743 15.7909 248.73 15.984 248.717 16.1888L248.714 16.2406L248.662 16.2627C248.49 16.3383 248.316 16.4406 248.152 16.5727L248.106 16.6093L248.049 16.5843C247.883 16.5116 247.705 16.4337 247.521 16.3528L247.651 16.3197C247.471 16.5628 247.28 16.8187 247.082 17.0863L247.079 16.9374C247.195 17.0741 247.323 17.223 247.454 17.376L247.502 17.433L247.473 17.5045C247.405 17.6744 247.352 17.8704 247.329 18.0746L247.32 18.1519L247.245 18.1804C247.077 18.2444 246.894 18.3148 246.706 18.3864L246.793 18.2415C246.835 18.5393 246.881 18.8593 246.927 19.1867L246.8 19.0652C246.979 19.0803 247.176 19.0966 247.375 19.1129L247.461 19.1198L247.495 19.2007C247.566 19.3694 247.666 19.5445 247.791 19.7038L247.846 19.7731L247.809 19.8545C247.735 20.0191 247.653 20.1989 247.571 20.3803L247.526 20.2006C247.767 20.3832 248.026 20.5787 248.287 20.777L248.099 20.7817C248.238 20.6642 248.389 20.538 248.541 20.4106L248.611 20.3518L248.696 20.3867C248.867 20.4571 249.06 20.5106 249.258 20.5351L249.381 20.6322L249.382 20.6339L249.383 20.6363L249.384 20.6403L249.387 20.6491L249.394 20.6659L249.406 20.7003L249.432 20.7683L249.483 20.9038L249.583 21.1732L249.422 21.076C249.742 21.033 250.057 20.9905 250.368 20.9486L250.239 21.0842C250.256 20.8905 250.274 20.6991 250.291 20.5095L250.299 20.4193L250.382 20.385C250.565 20.31 250.734 20.2105 250.887 20.093L250.958 20.0383L251.038 20.0755C251.215 20.157 251.39 20.2372 251.562 20.3169L251.388 20.3611C251.586 20.1035 251.78 19.851 251.97 19.6044L251.974 19.7783C251.849 19.6276 251.727 19.4793 251.606 19.3333L251.553 19.2693L251.585 19.1943C251.663 19.0099 251.714 18.8185 251.739 18.6283L251.75 18.5486L251.823 18.5219C252.009 18.4544 252.189 18.3887 252.365 18.3247L252.285 18.4596C252.243 18.1281 252.204 17.8134 252.166 17.5121L252.271 17.6121C252.07 17.5918 251.881 17.5726 251.697 17.5546L251.63 17.5476L251.606 17.4877C251.527 17.2911 251.427 17.1195 251.314 16.9694L251.277 16.9199L251.302 16.867C251.392 16.6797 251.472 16.5093 251.55 16.3458L251.578 16.454C251.297 16.2301 251.051 16.0341 250.831 15.8584L250.916 15.8566C250.744 15.991 250.596 16.1074 250.462 16.2126L250.437 16.2318L250.412 16.2208C250.032 16.0562 249.822 16.041 249.827 16.0184C249.833 16.0125 249.876 16.0056 249.984 16.0184C250.088 16.0306 250.245 16.0579 250.447 16.1324L250.397 16.1399C250.524 16.0259 250.665 15.9003 250.827 15.7549L250.866 15.72L250.911 15.7531C251.139 15.9189 251.393 16.1033 251.684 16.3144L251.741 16.3557L251.711 16.4232C251.639 16.589 251.563 16.7623 251.481 16.9525L251.468 16.8501C251.596 17.0095 251.712 17.1933 251.804 17.4074L251.713 17.3411C251.897 17.355 252.087 17.3696 252.289 17.3847L252.38 17.3917L252.393 17.4848C252.438 17.7849 252.483 18.099 252.532 18.4294L252.546 18.5277L252.451 18.5643C252.276 18.6318 252.097 18.7005 251.912 18.7708L251.997 18.6644C251.972 18.8779 251.917 19.0931 251.833 19.3019L251.812 19.1629C251.934 19.3071 252.058 19.4537 252.185 19.6026L252.257 19.687L252.189 19.7766C252.002 20.0249 251.81 20.2791 251.615 20.5391L251.546 20.631L251.44 20.5833C251.267 20.5054 251.092 20.4263 250.914 20.346L251.065 20.3286C250.893 20.4629 250.701 20.5769 250.494 20.6636L250.585 20.5397C250.569 20.7293 250.552 20.9207 250.535 21.1144L250.525 21.2337L250.406 21.2499C250.095 21.2924 249.78 21.336 249.459 21.3797L249.34 21.3959L249.297 21.2825L249.196 21.0132L249.146 20.8777L249.12 20.8096L249.107 20.7753L249.101 20.7584L249.098 20.7497L249.096 20.7456L249.096 20.7433L249.095 20.7421L249.218 20.8387C248.992 20.8108 248.772 20.7503 248.578 20.6694L248.732 20.6456C248.58 20.7724 248.429 20.8986 248.29 21.0155L248.197 21.0929L248.102 21.0202C247.841 20.8207 247.583 20.6241 247.343 20.4403L247.248 20.3681L247.298 20.2605C247.381 20.0796 247.464 19.9005 247.539 19.7364L247.557 19.8871C247.416 19.7056 247.304 19.5067 247.226 19.3147L247.346 19.4025C247.147 19.3839 246.951 19.3659 246.771 19.349L246.659 19.3386L246.644 19.2275C246.602 18.8994 246.56 18.5789 246.521 18.2805L246.507 18.1723L246.608 18.1357C246.796 18.067 246.981 17.9995 247.15 17.9379L247.066 18.0443C247.097 17.8163 247.159 17.5982 247.239 17.4109L247.259 17.5389C247.131 17.3835 247.006 17.2317 246.892 17.0927L246.831 17.0177L246.889 16.9432C247.094 16.6803 247.29 16.429 247.476 16.1905L247.53 16.1213L247.607 16.158C247.789 16.244 247.965 16.3272 248.129 16.4052L248.027 16.4174C248.21 16.2789 248.402 16.1748 248.591 16.1004L248.537 16.1748C248.559 15.9712 248.58 15.7787 248.6 15.6013L248.607 15.5379L248.666 15.5315C249.032 15.4931 249.348 15.4594 249.616 15.4314L249.657 15.4274L249.669 15.4629C249.78 15.8037 249.836 16.0056 249.827 16.0184Z" fill="#263238"/>
<path d="M13.6742 23.3644C10.9269 23.3644 8.69971 21.1371 8.69971 18.3899C8.69971 15.6426 10.9269 13.4154 13.6742 13.4154C16.4214 13.4154 18.6487 15.6426 18.6487 18.3899C18.6487 21.1371 16.4214 23.3644 13.6742 23.3644Z" fill="white"/>
</svg>
