<svg width="504" height="455" viewBox="0 0 504 455" fill="none" xmlns="http://www.w3.org/2000/svg">
<path d="M487.587 420.924C487.587 424.799 380.603 427.939 248.634 427.939C116.664 427.939 9.68066 424.798 9.68066 420.924C9.68066 417.049 116.663 413.909 248.634 413.909C380.604 413.909 487.587 417.049 487.587 420.924Z" fill="#020407"/>
<path d="M102.158 313.45H73.0765C68.4548 313.45 64.707 309.703 64.707 305.08V57.8549C64.707 52.1018 69.3711 47.4377 75.1243 47.4377H102.158V313.45Z" fill="#263238"/>
<path d="M213.666 308.858L201.768 369.821H219.034L232.805 309.369L213.666 308.858Z" fill="#263238"/>
<path d="M195.992 369.1H187.251V377.841H195.992V369.1Z" fill="#263238"/>
<path opacity="0.5" d="M102.158 313.45H73.0765C68.4548 313.45 64.707 309.703 64.707 305.08V57.8549C64.707 52.1018 69.3711 47.4377 75.1243 47.4377H102.158V313.45Z" fill="white"/>
<path opacity="0.5" d="M213.666 308.858L201.768 369.821H219.034L232.805 309.369L213.666 308.858Z" fill="white"/>
<path opacity="0.5" d="M195.992 369.1H187.251V377.841H195.992V369.1Z" fill="white"/>
<path d="M322.073 377.842H211.194L226.95 285.461H300.735L322.073 377.842Z" fill="#263238"/>
<path opacity="0.7" d="M322.073 377.842H211.194L226.95 285.461H300.735L322.073 377.842Z" fill="white"/>
<path opacity="0.1" d="M307.163 313.45H222.139L219.034 331.651L309.639 324.167L307.163 313.45Z" fill="black"/>
<path d="M337.269 369.1H193.55V377.841H337.269V369.1Z" fill="#263238"/>
<g opacity="0.7">
<path d="M337.269 369.1H193.55V377.841H337.269V369.1Z" fill="white"/>
</g>
<path d="M82.8084 47.4377H90.4275H434.677H442.297C447.377 47.4377 451.496 51.6236 451.496 56.7865V304.102C451.496 309.265 447.377 313.451 442.297 313.451H434.677H90.4275H82.8084C77.7279 313.451 73.6084 309.265 73.6084 304.102V56.7865C73.6084 51.6236 77.7268 47.4377 82.8084 47.4377Z" fill="#263238"/>
<g opacity="0.7">
<path d="M82.8084 47.4377H90.4275H434.677H442.297C447.377 47.4377 451.496 51.6236 451.496 56.7865V304.102C451.496 309.265 447.377 313.451 442.297 313.451H434.677H90.4275H82.8084C77.7279 313.451 73.6084 309.265 73.6084 304.102V56.7865C73.6084 51.6236 77.7268 47.4377 82.8084 47.4377Z" fill="white"/>
</g>
<path d="M441.447 56.592H82.0283V295.075H441.447V56.592Z" fill="#39D24E"/>
<path opacity="0.9" d="M441.447 56.592H82.0283V295.075H441.447V56.592Z" fill="white"/>
<path d="M441.451 56.592H82.0283V75.7345H441.451V56.592Z" fill="#39D24E"/>
<path opacity="0.5" d="M436.666 66.1638C436.666 68.4107 434.845 70.2308 432.599 70.2308C430.352 70.2308 428.532 68.4095 428.532 66.1638C428.532 63.917 430.353 62.0969 432.599 62.0969C434.846 62.0969 436.666 63.917 436.666 66.1638Z" fill="white"/>
<path opacity="0.5" d="M425.107 66.1638C425.107 68.4107 423.286 70.2308 421.041 70.2308C418.794 70.2308 416.974 68.4095 416.974 66.1638C416.974 63.917 418.795 62.0969 421.041 62.0969C423.286 62.0969 425.107 63.917 425.107 66.1638Z" fill="white"/>
<path opacity="0.5" d="M413.547 66.1638C413.547 68.4107 411.726 70.2308 409.48 70.2308C407.233 70.2308 405.413 68.4095 405.413 66.1638C405.413 63.917 407.234 62.0969 409.48 62.0969C411.726 62.0969 413.547 63.917 413.547 66.1638Z" fill="white"/>
<path d="M148.671 215.386C147.497 217.173 146.709 219.135 146.288 221.16L143.064 221.463V227.707L146.289 228.011C146.709 230.035 147.499 231.998 148.672 233.785L146.613 236.272L151.028 240.687L153.515 238.627C155.302 239.8 157.265 240.589 159.289 241.01L159.593 244.235H165.837L166.141 241.012C168.165 240.591 170.128 239.802 171.915 238.629L174.402 240.688L178.817 236.273L176.758 233.786C177.93 231.999 178.72 230.037 179.139 228.012L182.363 227.708V221.464L179.139 221.16C178.72 219.136 177.93 217.173 176.756 215.387L178.816 212.9L174.401 208.485L171.914 210.545C170.127 209.371 168.164 208.581 166.14 208.162L165.836 204.938H159.592L159.288 208.162C157.264 208.581 155.301 209.371 153.514 210.545L151.027 208.485L146.612 212.9L148.671 215.386ZM168.459 218.84C171.631 222.012 171.632 227.158 168.459 230.33C165.286 233.504 160.141 233.502 156.967 230.33C153.794 227.157 153.794 222.012 156.967 218.839C160.141 215.666 165.286 215.666 168.459 218.84Z" fill="#39D24E"/>
<path opacity="0.4" d="M148.671 215.386C147.497 217.173 146.709 219.135 146.288 221.16L143.064 221.463V227.707L146.289 228.011C146.709 230.035 147.499 231.998 148.672 233.785L146.613 236.272L151.028 240.687L153.515 238.627C155.302 239.8 157.265 240.589 159.289 241.01L159.593 244.235H165.837L166.141 241.012C168.165 240.591 170.128 239.802 171.915 238.629L174.402 240.688L178.817 236.273L176.758 233.786C177.93 231.999 178.72 230.037 179.139 228.012L182.363 227.708V221.464L179.139 221.16C178.72 219.136 177.93 217.173 176.756 215.387L178.816 212.9L174.401 208.485L171.914 210.545C170.127 209.371 168.164 208.581 166.14 208.162L165.836 204.938H159.592L159.288 208.162C157.264 208.581 155.301 209.371 153.514 210.545L151.027 208.485L146.612 212.9L148.671 215.386ZM168.459 218.84C171.631 222.012 171.632 227.158 168.459 230.33C165.286 233.504 160.141 233.502 156.967 230.33C153.794 227.157 153.794 222.012 156.967 218.839C160.141 215.666 165.286 215.666 168.459 218.84Z" fill="white"/>
<path d="M332.989 138.981C331.902 140.636 331.171 142.454 330.782 144.329L327.796 144.61V150.393L330.783 150.675C331.172 152.548 331.903 154.367 332.99 156.022L331.083 158.326L335.172 162.415L337.476 160.508C339.132 161.595 340.95 162.326 342.823 162.715L343.105 165.702H348.888L349.169 162.716C351.044 162.327 352.862 161.596 354.517 160.51L356.821 162.417L360.911 158.327L359.004 156.023C360.091 154.367 360.822 152.55 361.211 150.676L364.197 150.394V144.611L361.211 144.33C360.822 142.456 360.091 140.638 359.004 138.983L360.911 136.679L356.821 132.59L354.517 134.497C352.862 133.411 351.044 132.679 349.17 132.291L348.889 129.305H343.106L342.825 132.291C340.95 132.679 339.132 133.411 337.478 134.497L335.174 132.59L331.084 136.68L332.989 138.981ZM351.317 142.179C354.255 145.118 354.255 149.883 351.317 152.822C348.378 155.761 343.612 155.761 340.673 152.822C337.734 149.883 337.734 145.118 340.673 142.178C343.613 139.24 348.378 139.24 351.317 142.179Z" fill="#39D24E"/>
<path opacity="0.4" d="M332.989 138.981C331.902 140.636 331.171 142.454 330.782 144.329L327.796 144.61V150.393L330.783 150.675C331.172 152.548 331.903 154.367 332.99 156.022L331.083 158.326L335.172 162.415L337.476 160.508C339.132 161.595 340.95 162.326 342.823 162.715L343.105 165.702H348.888L349.169 162.716C351.044 162.327 352.862 161.596 354.517 160.51L356.821 162.417L360.911 158.327L359.004 156.023C360.091 154.367 360.822 152.55 361.211 150.676L364.197 150.394V144.611L361.211 144.33C360.822 142.456 360.091 140.638 359.004 138.983L360.911 136.679L356.821 132.59L354.517 134.497C352.862 133.411 351.044 132.679 349.17 132.291L348.889 129.305H343.106L342.825 132.291C340.95 132.679 339.132 133.411 337.478 134.497L335.174 132.59L331.084 136.68L332.989 138.981ZM351.317 142.179C354.255 145.118 354.255 149.883 351.317 152.822C348.378 155.761 343.612 155.761 340.673 152.822C337.734 149.883 337.734 145.118 340.673 142.178C343.613 139.24 348.378 139.24 351.317 142.179Z" fill="white"/>
<path d="M325.829 106.974C325.127 108.043 324.654 109.218 324.403 110.43L322.473 110.612V114.349L324.403 114.531C324.654 115.743 325.127 116.917 325.828 117.987L324.596 119.475L327.239 122.118L328.727 120.886C329.797 121.588 330.971 122.061 332.183 122.313L332.365 124.242H336.102L336.284 122.313C337.496 122.061 338.671 121.588 339.74 120.886L341.229 122.118L343.871 119.475L342.639 117.987C343.341 116.917 343.814 115.743 344.065 114.531L345.994 114.349V110.612L344.065 110.43C343.813 109.218 343.34 108.043 342.638 106.974L343.87 105.485L341.227 102.843L339.739 104.075C338.669 103.372 337.495 102.9 336.283 102.648L336.101 100.718H332.364L332.182 102.648C330.97 102.9 329.795 103.372 328.727 104.075L327.239 102.843L324.596 105.485L325.829 106.974ZM337.673 109.041C339.572 110.94 339.572 114.02 337.673 115.919C335.774 117.818 332.694 117.818 330.795 115.919C328.896 114.02 328.896 110.94 330.795 109.041C332.694 107.142 335.774 107.142 337.673 109.041Z" fill="#39D24E"/>
<path opacity="0.7" d="M325.829 106.974C325.127 108.043 324.654 109.218 324.403 110.43L322.473 110.612V114.349L324.403 114.531C324.654 115.743 325.127 116.917 325.828 117.987L324.596 119.475L327.239 122.118L328.727 120.886C329.797 121.588 330.971 122.061 332.183 122.313L332.365 124.242H336.102L336.284 122.313C337.496 122.061 338.671 121.588 339.74 120.886L341.229 122.118L343.871 119.475L342.639 117.987C343.341 116.917 343.814 115.743 344.065 114.531L345.994 114.349V110.612L344.065 110.43C343.813 109.218 343.34 108.043 342.638 106.974L343.87 105.485L341.227 102.843L339.739 104.075C338.669 103.372 337.495 102.9 336.283 102.648L336.101 100.718H332.364L332.182 102.648C330.97 102.9 329.795 103.372 328.727 104.075L327.239 102.843L324.596 105.485L325.829 106.974ZM337.673 109.041C339.572 110.94 339.572 114.02 337.673 115.919C335.774 117.818 332.694 117.818 330.795 115.919C328.896 114.02 328.896 110.94 330.795 109.041C332.694 107.142 335.774 107.142 337.673 109.041Z" fill="white"/>
<path d="M169.494 252.857C168.792 253.926 168.319 255.101 168.068 256.313L166.138 256.495V260.232L168.068 260.414C168.319 261.625 168.792 262.8 169.494 263.87L168.262 265.358L170.905 268.001L172.393 266.769C173.463 267.471 174.638 267.944 175.849 268.194L176.031 270.124H179.768L179.95 268.194C181.162 267.943 182.337 267.47 183.406 266.768L184.895 268L187.537 265.357L186.305 263.869C187.008 262.799 187.48 261.624 187.731 260.413L189.661 260.231V256.493L187.731 256.311C187.479 255.1 187.007 253.925 186.304 252.855L187.536 251.367L184.894 248.724L183.405 249.957C182.336 249.254 181.161 248.782 179.949 248.53L179.767 246.6H176.03L175.848 248.53C174.636 248.782 173.462 249.254 172.392 249.955L170.904 248.723L168.261 251.366L169.494 252.857ZM181.338 254.924C183.237 256.823 183.237 259.903 181.338 261.802C179.439 263.701 176.359 263.701 174.46 261.802C172.561 259.903 172.561 256.823 174.46 254.924C176.359 253.024 179.438 253.024 181.338 254.924Z" fill="#39D24E"/>
<path opacity="0.7" d="M169.494 252.857C168.792 253.926 168.319 255.101 168.068 256.313L166.138 256.495V260.232L168.068 260.414C168.319 261.625 168.792 262.8 169.494 263.87L168.262 265.358L170.905 268.001L172.393 266.769C173.463 267.471 174.638 267.944 175.849 268.194L176.031 270.124H179.768L179.95 268.194C181.162 267.943 182.337 267.47 183.406 266.768L184.895 268L187.537 265.357L186.305 263.869C187.008 262.799 187.48 261.624 187.731 260.413L189.661 260.231V256.493L187.731 256.311C187.479 255.1 187.007 253.925 186.304 252.855L187.536 251.367L184.894 248.724L183.405 249.957C182.336 249.254 181.161 248.782 179.949 248.53L179.767 246.6H176.03L175.848 248.53C174.636 248.782 173.462 249.254 172.392 249.955L170.904 248.723L168.261 251.366L169.494 252.857ZM181.338 254.924C183.237 256.823 183.237 259.903 181.338 261.802C179.439 263.701 176.359 263.701 174.46 261.802C172.561 259.903 172.561 256.823 174.46 254.924C176.359 253.024 179.438 253.024 181.338 254.924Z" fill="white"/>
<path d="M195.228 144.991C190.158 152.712 186.75 161.191 184.932 169.939L171 171.251L170.999 198.229L184.933 199.543C186.747 208.287 190.158 216.768 195.228 224.49L186.33 235.238L205.407 254.315L216.155 245.417C223.876 250.486 232.356 253.897 241.102 255.712L242.414 269.645L269.393 269.644L270.707 255.714C279.454 253.898 287.933 250.487 295.654 245.418L306.402 254.316L325.479 235.239L316.581 224.491C321.65 216.77 325.059 208.29 326.875 199.544L340.805 198.231L340.808 171.252L326.876 169.938C325.06 161.194 321.649 152.713 316.58 144.992L325.478 134.244L306.401 115.167L295.653 124.065C287.931 118.995 279.45 115.583 270.705 113.768L269.392 99.8363L242.413 99.8374L241.101 113.768C232.355 115.583 223.875 118.993 216.155 124.063L205.407 115.165L186.329 134.243L195.228 144.991ZM286.881 153.763C303.987 170.87 303.988 198.608 286.881 215.715C269.772 232.824 242.033 232.822 224.927 215.715C207.819 198.607 207.82 170.872 224.928 153.762C242.036 136.657 269.772 136.655 286.881 153.763Z" fill="#39D24E"/>
<path d="M243.003 188.594H233.273L231.418 193.084H226.448L235.789 172.128H240.579L249.949 193.084H244.86L243.003 188.594ZM241.476 184.912L238.153 176.888L234.829 184.912H241.476Z" fill="#39D24E"/>
<path d="M266.038 173.056C267.405 173.675 268.458 174.553 269.198 175.69C269.936 176.827 270.305 178.175 270.305 179.732C270.305 181.27 269.936 182.612 269.198 183.759C268.459 184.906 267.407 185.785 266.038 186.394C264.672 187.002 263.059 187.306 261.204 187.306H256.982V193.085H252.132V172.129H261.204C263.06 172.128 264.672 172.438 266.038 173.056ZM264.258 182.412C265.017 181.783 265.395 180.891 265.395 179.733C265.395 178.556 265.017 177.652 264.258 177.024C263.5 176.395 262.391 176.08 260.936 176.08H256.984V183.355H260.936C262.391 183.355 263.5 183.041 264.258 182.412Z" fill="#39D24E"/>
<path d="M273.749 172.128H278.598V193.084H273.749V172.128Z" fill="#39D24E"/>
<path d="M216.15 190.291C215.86 190.291 215.611 190.072 215.581 189.778C214.363 177.819 217.846 166.372 225.39 157.544C225.594 157.303 225.957 157.275 226.196 157.481C226.436 157.686 226.465 158.048 226.259 158.288C218.921 166.876 215.533 178.018 216.719 189.662C216.751 189.977 216.522 190.257 216.208 190.289C216.188 190.29 216.168 190.291 216.15 190.291Z" fill="#39D24E"/>
<path d="M218.08 199.328C217.833 199.328 217.604 199.165 217.531 198.917C217.063 197.321 216.679 195.689 216.388 194.062C216.332 193.752 216.539 193.454 216.85 193.398C217.164 193.345 217.458 193.55 217.514 193.86C217.797 195.446 218.173 197.04 218.629 198.594C218.718 198.898 218.545 199.216 218.241 199.304C218.186 199.32 218.133 199.328 218.08 199.328Z" fill="#39D24E"/>
<path d="M113.807 124.983V182.255H162.713" stroke="#39D24E" stroke-miterlimit="10" stroke-linecap="round" stroke-linejoin="round"/>
<path d="M113.806 127.914C115.425 127.914 116.737 126.601 116.737 124.983C116.737 123.364 115.425 122.052 113.806 122.052C112.187 122.052 110.875 123.364 110.875 124.983C110.875 126.601 112.187 127.914 113.806 127.914Z" fill="#39D24E"/>
<path d="M412.241 230.448C413.86 230.448 415.172 229.136 415.172 227.517C415.172 225.898 413.86 224.586 412.241 224.586C410.623 224.586 409.311 225.898 409.311 227.517C409.311 229.136 410.623 230.448 412.241 230.448Z" fill="#39D24E"/>
<path d="M412.242 227.086V249.795H340.614V218.443H329.875" stroke="#39D24E" stroke-miterlimit="10"/>
<path d="M503.402 258.363H378.832V377.842H503.402V258.363Z" fill="#39D24E"/>
<path opacity="0.4" d="M503.402 258.363H378.832V377.842H503.402V258.363Z" fill="white"/>
<path opacity="0.4" d="M503.391 258.363H418.483V377.842H503.391V258.363Z" fill="white"/>
<path d="M499.147 264.472H422.728V279.264H499.147V264.472Z" fill="#39D24E"/>
<path d="M499.147 282.97H422.728V297.762H499.147V282.97Z" fill="#39D24E"/>
<path d="M499.147 301.456H422.728V316.248H499.147V301.456Z" fill="#39D24E"/>
<path d="M499.147 319.956H422.728V334.748H499.147V319.956Z" fill="#39D24E"/>
<path d="M499.147 338.454H422.728V353.246H499.147V338.454Z" fill="#39D24E"/>
<path d="M499.147 356.951H422.728V371.743H499.147V356.951Z" fill="#39D24E"/>
<path d="M414.044 264.472H383.282V279.264H414.044V264.472Z" fill="#39D24E"/>
<path d="M414.044 282.97H383.282V297.762H414.044V282.97Z" fill="#39D24E"/>
<path d="M414.044 301.456H383.282V316.248H414.044V301.456Z" fill="#39D24E"/>
<path d="M414.044 319.956H383.282V334.748H414.044V319.956Z" fill="#39D24E"/>
<path d="M414.044 338.454H383.282V353.246H414.044V338.454Z" fill="#39D24E"/>
<path d="M414.044 356.951H383.282V371.743H414.044V356.951Z" fill="#39D24E"/>
<path opacity="0.3" d="M495.406 266.392H493.621V277.341H495.406V266.392Z" fill="white"/>
<path opacity="0.3" d="M491.974 266.392H490.189V277.341H491.974V266.392Z" fill="white"/>
<path opacity="0.3" d="M488.541 266.392H486.757V277.341H488.541V266.392Z" fill="white"/>
<path opacity="0.3" d="M485.11 266.392H483.325V277.341H485.11V266.392Z" fill="white"/>
<path opacity="0.3" d="M481.677 266.392H479.893V277.341H481.677V266.392Z" fill="white"/>
<path opacity="0.3" d="M495.406 284.892H493.621V295.829H495.406V284.892Z" fill="white"/>
<path opacity="0.3" d="M491.974 284.892H490.189V295.829H491.974V284.892Z" fill="white"/>
<path opacity="0.3" d="M488.541 284.892H486.757V295.829H488.541V284.892Z" fill="white"/>
<path opacity="0.3" d="M485.11 284.892H483.325V295.829H485.11V284.892Z" fill="white"/>
<path opacity="0.3" d="M481.677 284.892H479.893V295.829H481.677V284.892Z" fill="white"/>
<path opacity="0.3" d="M495.406 303.389H493.621V314.326H495.406V303.389Z" fill="white"/>
<path opacity="0.3" d="M491.974 303.389H490.189V314.326H491.974V303.389Z" fill="white"/>
<path opacity="0.3" d="M488.541 303.389H486.757V314.326H488.541V303.389Z" fill="white"/>
<path opacity="0.3" d="M485.11 303.389H483.325V314.326H485.11V303.389Z" fill="white"/>
<path opacity="0.3" d="M481.677 303.389H479.893V314.326H481.677V303.389Z" fill="white"/>
<path opacity="0.3" d="M495.406 321.889H493.621V332.837H495.406V321.889Z" fill="white"/>
<path opacity="0.3" d="M491.974 321.889H490.189V332.837H491.974V321.889Z" fill="white"/>
<path opacity="0.3" d="M488.541 321.889H486.757V332.837H488.541V321.889Z" fill="white"/>
<path opacity="0.3" d="M485.11 321.889H483.325V332.837H485.11V321.889Z" fill="white"/>
<path opacity="0.3" d="M481.677 321.889H479.893V332.837H481.677V321.889Z" fill="white"/>
<path opacity="0.3" d="M495.406 340.386H493.621V351.323H495.406V340.386Z" fill="white"/>
<path opacity="0.3" d="M491.974 340.386H490.189V351.323H491.974V340.386Z" fill="white"/>
<path opacity="0.3" d="M488.541 340.386H486.757V351.323H488.541V340.386Z" fill="white"/>
<path opacity="0.3" d="M485.11 340.386H483.325V351.323H485.11V340.386Z" fill="white"/>
<path opacity="0.3" d="M481.677 340.386H479.893V351.323H481.677V340.386Z" fill="white"/>
<path opacity="0.3" d="M495.406 358.873H493.621V369.822H495.406V358.873Z" fill="white"/>
<path opacity="0.3" d="M491.974 358.873H490.189V369.822H491.974V358.873Z" fill="white"/>
<path opacity="0.3" d="M488.541 358.873H486.757V369.822H488.541V358.873Z" fill="white"/>
<path opacity="0.3" d="M485.11 358.873H483.325V369.822H485.11V358.873Z" fill="white"/>
<path opacity="0.3" d="M481.677 358.873H479.893V369.822H481.677V358.873Z" fill="white"/>
<path opacity="0.2" d="M431.616 271.861C431.616 272.865 430.802 273.68 429.797 273.68C428.793 273.68 427.979 272.865 427.979 271.861C427.979 270.856 428.793 270.042 429.797 270.042C430.802 270.042 431.616 270.856 431.616 271.861Z" fill="white"/>
<path opacity="0.2" d="M443.056 271.861C443.056 272.865 442.241 273.68 441.237 273.68C440.232 273.68 439.418 272.865 439.418 271.861C439.418 270.856 440.232 270.042 441.237 270.042C442.241 270.042 443.056 270.856 443.056 271.861Z" fill="white"/>
<path opacity="0.4" d="M454.496 271.861C454.496 272.865 453.682 273.68 452.677 273.68C451.673 273.68 450.858 272.865 450.858 271.861C450.858 270.856 451.673 270.042 452.677 270.042C453.682 270.042 454.496 270.856 454.496 271.861Z" fill="white"/>
<path opacity="0.4" d="M431.616 290.36C431.616 291.365 430.802 292.179 429.797 292.179C428.793 292.179 427.979 291.365 427.979 290.36C427.979 289.356 428.793 288.541 429.797 288.541C430.802 288.541 431.616 289.355 431.616 290.36Z" fill="white"/>
<path opacity="0.2" d="M443.056 290.36C443.056 291.365 442.241 292.179 441.237 292.179C440.232 292.179 439.418 291.365 439.418 290.36C439.418 289.356 440.232 288.541 441.237 288.541C442.241 288.541 443.056 289.355 443.056 290.36Z" fill="white"/>
<path opacity="0.4" d="M454.496 290.36C454.496 291.365 453.682 292.179 452.677 292.179C451.673 292.179 450.858 291.365 450.858 290.36C450.858 289.356 451.673 288.541 452.677 288.541C453.682 288.541 454.496 289.355 454.496 290.36Z" fill="white"/>
<path opacity="0.2" d="M431.616 308.858C431.616 309.862 430.802 310.677 429.797 310.677C428.793 310.677 427.979 309.862 427.979 308.858C427.979 307.853 428.793 307.039 429.797 307.039C430.802 307.039 431.616 307.853 431.616 308.858Z" fill="white"/>
<path opacity="0.4" d="M443.056 308.858C443.056 309.862 442.241 310.677 441.237 310.677C440.232 310.677 439.418 309.862 439.418 308.858C439.418 307.853 440.232 307.039 441.237 307.039C442.241 307.039 443.056 307.853 443.056 308.858Z" fill="white"/>
<path opacity="0.2" d="M454.496 308.858C454.496 309.862 453.682 310.677 452.677 310.677C451.673 310.677 450.858 309.862 450.858 308.858C450.858 307.853 451.673 307.039 452.677 307.039C453.682 307.039 454.496 307.853 454.496 308.858Z" fill="white"/>
<path opacity="0.4" d="M431.616 327.357C431.616 328.362 430.802 329.176 429.797 329.176C428.793 329.176 427.979 328.362 427.979 327.357C427.979 326.353 428.793 325.538 429.797 325.538C430.802 325.538 431.616 326.352 431.616 327.357Z" fill="white"/>
<path opacity="0.2" d="M443.056 327.357C443.056 328.362 442.241 329.176 441.237 329.176C440.232 329.176 439.418 328.362 439.418 327.357C439.418 326.353 440.232 325.538 441.237 325.538C442.241 325.538 443.056 326.352 443.056 327.357Z" fill="white"/>
<path opacity="0.2" d="M454.496 327.357C454.496 328.362 453.682 329.176 452.677 329.176C451.673 329.176 450.858 328.362 450.858 327.357C450.858 326.353 451.673 325.538 452.677 325.538C453.682 325.538 454.496 326.352 454.496 327.357Z" fill="white"/>
<path opacity="0.2" d="M431.616 345.855C431.616 346.859 430.802 347.674 429.797 347.674C428.793 347.674 427.979 346.859 427.979 345.855C427.979 344.85 428.793 344.036 429.797 344.036C430.802 344.036 431.616 344.85 431.616 345.855Z" fill="white"/>
<path opacity="0.4" d="M443.056 345.855C443.056 346.859 442.241 347.674 441.237 347.674C440.232 347.674 439.418 346.859 439.418 345.855C439.418 344.85 440.232 344.036 441.237 344.036C442.241 344.036 443.056 344.85 443.056 345.855Z" fill="white"/>
<path opacity="0.4" d="M454.496 345.855C454.496 346.859 453.682 347.674 452.677 347.674C451.673 347.674 450.858 346.859 450.858 345.855C450.858 344.85 451.673 344.036 452.677 344.036C453.682 344.036 454.496 344.85 454.496 345.855Z" fill="white"/>
<path opacity="0.4" d="M431.616 364.353C431.616 365.358 430.802 366.172 429.797 366.172C428.793 366.172 427.979 365.358 427.979 364.353C427.979 363.349 428.793 362.534 429.797 362.534C430.802 362.535 431.616 363.349 431.616 364.353Z" fill="white"/>
<path opacity="0.2" d="M443.056 364.353C443.056 365.358 442.241 366.172 441.237 366.172C440.232 366.172 439.418 365.358 439.418 364.353C439.418 363.349 440.232 362.534 441.237 362.534C442.241 362.535 443.056 363.349 443.056 364.353Z" fill="white"/>
<path opacity="0.4" d="M454.496 364.353C454.496 365.358 453.682 366.172 452.677 366.172C451.673 366.172 450.858 365.358 450.858 364.353C450.858 363.349 451.673 362.534 452.677 362.534C453.682 362.535 454.496 363.349 454.496 364.353Z" fill="white"/>
<path opacity="0.3" d="M418.483 258.363H378.832V377.842H418.483V258.363Z" fill="black"/>
<path d="M493.412 216.354H377.632C374.514 216.354 371.985 213.826 371.985 210.707V115.145C371.985 112.027 374.514 109.498 377.632 109.498H493.412C496.53 109.498 499.059 112.027 499.059 115.145V210.707C499.059 213.826 496.53 216.354 493.412 216.354Z" fill="#39D24E"/>
<path opacity="0.5" d="M493.412 216.354H377.632C374.514 216.354 371.985 213.826 371.985 210.707V115.145C371.985 112.027 374.514 109.498 377.632 109.498H493.412C496.53 109.498 499.059 112.027 499.059 115.145V210.707C499.059 213.826 496.53 216.354 493.412 216.354Z" fill="white"/>
<path d="M499.059 128.131H371.985V114.791C371.985 111.868 374.356 109.497 377.279 109.497H493.859C496.731 109.497 499.06 111.825 499.06 114.698V128.131H499.059Z" fill="#39D24E"/>
<path opacity="0.5" d="M491.883 120.173C491.883 122.42 490.062 124.241 487.816 124.241C485.569 124.241 483.749 122.42 483.749 120.173C483.749 117.926 485.57 116.106 487.816 116.106C490.062 116.106 491.883 117.926 491.883 120.173Z" fill="white"/>
<path opacity="0.5" d="M480.323 120.173C480.323 122.42 478.502 124.241 476.256 124.241C474.01 124.241 472.189 122.42 472.189 120.173C472.189 117.926 474.011 116.106 476.256 116.106C478.502 116.106 480.323 117.926 480.323 120.173Z" fill="white"/>
<path opacity="0.5" d="M468.763 120.173C468.763 122.42 466.942 124.241 464.696 124.241C462.449 124.241 460.629 122.42 460.629 120.173C460.629 117.926 462.45 116.106 464.696 116.106C466.942 116.106 468.763 117.926 468.763 120.173Z" fill="white"/>
<path opacity="0.6" d="M465.761 143.708H400.583V147.5H465.761V143.708Z" fill="white"/>
<path opacity="0.6" d="M448.235 151.914H401.598V155.706H448.235V151.914Z" fill="#263238"/>
<path d="M483.373 143.708H470.551V147.5H483.373V143.708Z" fill="#39D24E"/>
<path d="M396.057 143.708H383.235V147.5H396.057V143.708Z" fill="#39D24E"/>
<path d="M465.761 161.029H400.583V164.821H465.761V161.029Z" fill="#39D24E"/>
<path opacity="0.6" d="M483.373 161.029H470.551V164.821H483.373V161.029Z" fill="white"/>
<path d="M396.057 161.029H383.235V164.821H396.057V161.029Z" fill="#39D24E"/>
<path d="M465.761 197.142H400.583V200.934H465.761V197.142Z" fill="#39D24E"/>
<path opacity="0.6" d="M483.373 197.142H470.551V200.934H483.373V197.142Z" fill="white"/>
<path d="M465.761 170.161H400.583V173.954H465.761V170.161Z" fill="#39D24E"/>
<path opacity="0.6" d="M483.373 170.161H470.551V173.954H483.373V170.161Z" fill="#263238"/>
<path opacity="0.6" d="M396.057 170.161H383.235V173.954H396.057V170.161Z" fill="#263238"/>
<path d="M484.319 152.062H453.34V155.855H484.319V152.062Z" fill="#39D24E"/>
<path opacity="0.6" d="M447.219 178.125H400.583V181.917H447.219V178.125Z" fill="white"/>
<path d="M483.305 178.275H452.325V182.067H483.305V178.275Z" fill="#39D24E"/>
<path opacity="0.6" d="M423.901 186.371H400.583V190.163H423.901V186.371Z" fill="#263238"/>
<path d="M148.712 106.979H32.931C29.8124 106.979 27.2842 104.451 27.2842 101.333V5.77203C27.2842 2.65349 29.8124 0.125244 32.931 0.125244H148.711C151.829 0.125244 154.357 2.65349 154.357 5.77203V101.334C154.359 104.452 151.83 106.979 148.712 106.979Z" fill="#39D24E"/>
<path opacity="0.5" d="M148.712 106.979H32.931C29.8124 106.979 27.2842 104.451 27.2842 101.333V5.77203C27.2842 2.65349 29.8124 0.125244 32.931 0.125244H148.711C151.829 0.125244 154.357 2.65349 154.357 5.77203V101.334C154.359 104.452 151.83 106.979 148.712 106.979Z" fill="white"/>
<path d="M154.359 18.7576H27.2842V5.41853C27.2842 2.49561 29.6546 0.125244 32.5775 0.125244H149.158C152.029 0.125244 154.359 2.45328 154.359 5.32587V18.7576Z" fill="#39D24E"/>
<path opacity="0.5" d="M147.182 10.8C147.182 13.0468 145.36 14.8669 143.115 14.8669C140.868 14.8669 139.048 13.0456 139.048 10.8C139.048 8.55314 140.869 6.73303 143.115 6.73303C145.36 6.73303 147.182 8.55314 147.182 10.8Z" fill="white"/>
<path opacity="0.5" d="M135.622 10.8C135.622 13.0468 133.801 14.8669 131.555 14.8669C129.308 14.8669 127.488 13.0456 127.488 10.8C127.488 8.55314 129.31 6.73303 131.555 6.73303C133.801 6.73303 135.622 8.55314 135.622 10.8Z" fill="white"/>
<path opacity="0.5" d="M124.062 10.8C124.062 13.0468 122.24 14.8669 119.995 14.8669C117.748 14.8669 115.928 13.0456 115.928 10.8C115.928 8.55314 117.749 6.73303 119.995 6.73303C122.241 6.73303 124.062 8.55314 124.062 10.8Z" fill="white"/>
<path d="M130.873 59.691C126.652 54.0408 118.02 51.2803 112.265 55.3587C110.848 47.2649 104.986 40.0943 97.3362 37.097C89.6851 34.0997 80.5137 35.3787 73.9746 40.3563C67.4366 45.3327 63.7598 53.8337 64.6121 62.0065C59.0625 60.7423 52.9513 62.0785 49.3397 67.8191C44.6584 75.2631 50.7262 82.6397 50.7262 82.6397L83.3325 82.8261V70.8759H79.1649C78.4259 70.8759 78.0472 69.9893 78.5586 69.455L83.3577 64.4455L88.9118 58.6488C89.2424 58.3033 89.7938 58.3033 90.1244 58.6488L95.6786 64.4455L100.478 69.455C100.989 69.9893 100.61 70.8759 99.8713 70.8759H95.7037V82.897L130.405 83.0961C135.351 77.4127 135.092 65.3424 130.873 59.691Z" fill="white"/>
<path d="M81.9919 381.025C81.9919 381.025 181.658 357.674 186.399 378.433C193.166 408.067 121.256 428.001 82.954 426.78C44.6518 425.561 81.9919 381.025 81.9919 381.025Z" fill="#263238"/>
<path opacity="0.2" d="M81.9919 381.025C81.9919 381.025 181.658 357.674 186.399 378.433C193.166 408.067 121.256 428.001 82.954 426.78C44.6518 425.561 81.9919 381.025 81.9919 381.025Z" fill="black"/>
<path opacity="0.7" d="M153.697 384.839L106.891 414.584L113.138 423.461C113.138 423.461 109.847 428.337 103.584 413.359L132.542 394.216C132.542 394.216 123.478 393.307 123.706 391.889C124.09 389.562 144.003 385.135 153.084 383.141C153.553 382.972 154.07 383.214 154.238 383.683C154.408 384.154 154.165 384.671 153.697 384.839Z" fill="black"/>
<path opacity="0.7" d="M105.194 411.233L113.313 424.389C103.301 426.138 93.1315 426.938 82.9545 426.78C79.6083 426.76 76.2953 426.159 73.1733 425.008L70.3213 419.793L76.4623 407.438L105.194 411.233Z" fill="black"/>
<path d="M120.689 406.002L99.8701 419.205L103.602 429.308L128.045 418.325L120.689 406.002Z" fill="#B97964"/>
<path d="M88.4121 422.588L90.4553 429.855C90.4553 429.855 91.9894 430.179 92.4676 431.707C92.7364 432.566 92.1038 434.935 92.1038 434.935L97.5756 454.96C97.6042 454.952 98.9484 454.59 99.4815 454.205C100.131 453.736 100.659 453.256 101.081 452.768C102.559 451.06 102.722 448.585 102.777 446.752C102.87 443.679 104.635 434.703 104.635 434.703C104.635 434.703 105.309 432.365 107.778 430.305C109.155 429.156 109.791 427.706 109.663 426.808C109.403 424.976 108.088 424.288 106.375 424.494L104.386 424.737C102.964 423.678 102.528 421.887 103.428 420.162C103.428 420.162 104.604 415.8 102.776 416.533C101.733 416.952 97.1363 419.003 93.4572 420.514C92.6003 420.868 91.7881 421.2 91.0765 421.491V421.494C89.4966 422.141 88.4121 422.588 88.4121 422.588Z" fill="#263238"/>
<path d="M103.867 439.489C103.923 439.377 103.894 439.236 103.8 439.15C103.37 438.755 102.84 438.472 102.239 438.346C101.924 438.28 101.778 438.788 102.099 438.855C102.632 438.966 103.1 439.214 103.476 439.559C103.602 439.674 103.79 439.646 103.865 439.495C103.866 439.492 103.867 439.491 103.867 439.489Z" fill="#39D24E"/>
<path d="M104.277 437.717C104.333 437.605 104.303 437.464 104.209 437.377C103.779 436.982 103.249 436.698 102.65 436.573C102.334 436.506 102.189 437.014 102.508 437.082C103.041 437.193 103.509 437.441 103.885 437.785C104.011 437.901 104.199 437.872 104.274 437.721L104.277 437.717Z" fill="#39D24E"/>
<path d="M104.616 435.912C104.672 435.799 104.643 435.659 104.549 435.573C104.119 435.178 103.589 434.894 102.989 434.769C102.673 434.702 102.527 435.21 102.848 435.278C103.381 435.389 103.849 435.636 104.225 435.981C104.351 436.097 104.539 436.068 104.614 435.917C104.615 435.915 104.616 435.912 104.616 435.912Z" fill="#39D24E"/>
<path opacity="0.2" d="M91.0776 421.491V421.494C89.4978 422.142 88.4121 422.59 88.4121 422.59L90.4553 429.856C90.4553 429.856 91.9894 430.18 92.4676 431.708C92.7364 432.568 92.1038 434.936 92.1038 434.936L97.5756 454.961C97.6042 454.953 98.9484 454.591 99.4815 454.206C99.78 453.991 100.045 453.773 100.295 453.553L91.4735 421.33C91.3442 421.382 91.2012 421.44 91.0776 421.491Z" fill="white"/>
<path d="M104.334 435.789C105.012 435.539 105.694 435.287 106.406 435.159C107.117 435.031 107.867 435.032 108.545 435.279C108.861 435.394 109.188 435.6 109.257 435.93C109.329 436.275 109.08 436.612 108.793 436.818C108.241 437.212 107.512 437.309 106.844 437.182C106.178 437.055 104.887 436.185 104.334 435.789Z" stroke="#39D24E" stroke-width="0.25" stroke-miterlimit="10"/>
<path d="M104.311 435.705C104.877 435.255 105.447 434.803 105.926 434.262C106.406 433.721 106.794 433.08 106.935 432.372C107.002 432.043 106.995 431.656 106.75 431.426C106.492 431.185 106.076 431.222 105.751 431.361C105.127 431.627 104.666 432.2 104.427 432.836C104.188 433.471 104.261 435.027 104.311 435.705Z" stroke="#39D24E" stroke-width="0.25" stroke-miterlimit="10"/>
<path d="M123.169 317.61C123.169 317.61 126.81 350.015 127.782 351.753C131.071 357.632 152.863 367.712 152.863 367.712L163.973 365.385L171.935 372.034L166.685 376.146L160.525 373.819C157.164 374.418 153.756 374.717 150.342 374.711C144.602 374.711 116.926 367.696 112.307 359.98C107.688 352.263 105.565 316.532 105.565 316.532L123.169 317.61Z" fill="#B97964"/>
<path d="M105.095 330.348C105.095 330.348 96.5563 301.89 107.196 293.989C117.834 286.089 126.295 325.216 126.295 325.216L105.095 330.348Z" fill="#39D24E"/>
<path opacity="0.3" d="M105.095 330.348C105.095 330.348 96.5563 301.89 107.196 293.989C117.834 286.089 126.295 325.216 126.295 325.216L105.095 330.348Z" fill="white"/>
<path d="M111.834 382.4L111.751 344.681L110.694 292.741L88.654 288.201L69.2586 287.345L47.1897 297.444L46.6749 310.116C46.6749 310.116 49.1986 368.307 49.0567 370.061C48.8828 372.211 42.624 385.708 42.624 385.708C70.5056 392.063 112.273 384.324 111.834 382.4Z" fill="#39D24E"/>
<path opacity="0.3" d="M111.834 382.4L111.751 344.681L110.694 292.741L88.654 288.201L69.2586 287.345L47.1897 297.444L46.6749 310.116C46.6749 310.116 49.1986 368.307 49.0567 370.061C48.8828 372.211 42.624 385.708 42.624 385.708C70.5056 392.063 112.273 384.324 111.834 382.4Z" fill="white"/>
<path d="M80.2544 295.705C80.2544 295.705 85.6655 300.524 88.4351 294.296L89.8777 295.419C89.8777 295.419 89.7381 300.051 87.1127 301.601C87.7499 304.172 98.7346 341.582 100.7 360.437L97.697 368.083L89.7198 361.786C89.7198 361.786 85.8474 329.437 84.5227 301.955C81.3286 300.873 78.8015 298.477 77.6289 295.419L80.2544 295.705Z" fill="#39D24E"/>
<path opacity="0.2" d="M87.2344 296.334L91.9248 299.981L92.6913 289.033L91.2018 288.715L89.9628 296.094L87.7332 294.798L87.2344 296.334Z" fill="black"/>
<path opacity="0.2" d="M64.6381 289.461C64.5592 289.497 75.6811 303.059 75.6811 303.059L79.4563 300.184L82.0521 297.985L82.7259 297.157L68.0049 286.931C68.0049 286.931 66.0315 288.945 65.8279 288.945C65.6242 288.946 64.6381 289.461 64.6381 289.461Z" fill="black"/>
<path d="M65.4297 289.23L70.8088 284.428L85.5309 298.211L81.6802 296.847L76.0712 301.157L65.4297 289.23Z" fill="#39D24E"/>
<path d="M85.5306 298.211C85.2046 297.588 86.709 285.066 86.709 285.066L91.9244 288.633C91.6476 288.576 91.4657 298.983 91.2964 298.983C91.1271 298.983 87.8404 295.428 87.8404 295.428L85.5306 298.211Z" fill="#39D24E"/>
<path opacity="0.2" d="M111.437 328.813L110.297 304.488L115.738 327.771L111.437 328.813Z" fill="black"/>
<path opacity="0.2" d="M64.2569 332.357C64.9433 332.223 68.4188 331.083 68.4188 331.083L60.6934 309.592L71.2994 333.368L64.9239 335.905L64.2569 332.357Z" fill="black"/>
<path opacity="0.3" d="M65.4297 289.23L70.8088 284.428L85.5309 298.211L81.6802 296.847L76.0712 301.157L65.4297 289.23Z" fill="white"/>
<path opacity="0.3" d="M85.5306 298.211C85.2046 297.588 86.709 285.066 86.709 285.066L91.9244 288.633C91.6476 288.576 91.4657 298.983 91.2964 298.983C91.1271 298.983 87.8404 295.428 87.8404 295.428L85.5306 298.211Z" fill="white"/>
<path opacity="0.3" d="M93.8799 318.325L96.3498 330.461L103.544 333.068L108.412 328.824L107.522 317.363L93.8799 318.325Z" fill="white"/>
<path d="M86.4061 297.157L84.1284 297.713C84.1216 297.711 84.0415 297.857 84.0964 297.765C84.1284 297.713 82.8506 302.081 82.8506 302.081C83.219 302.406 84.443 304.522 84.5849 304.488C84.7267 304.453 87.7503 304.172 87.7503 304.172L88.8474 300.97C88.8474 300.97 86.3878 297.131 86.4061 297.157Z" fill="#39D24E"/>
<path opacity="0.2" d="M86.4061 297.157L84.1284 297.713C84.1216 297.711 84.0415 297.857 84.0964 297.765C84.1284 297.713 82.8506 302.081 82.8506 302.081C83.219 302.406 84.443 304.522 84.5849 304.488C84.7267 304.453 87.7503 304.172 87.7503 304.172L88.8474 300.97C88.8474 300.97 86.3878 297.131 86.4061 297.157Z" fill="black"/>
<path d="M61.271 314.533C61.271 314.533 66.6776 350.509 69.8007 353.872C75.078 359.554 101.218 374.633 101.218 374.633L114.266 370.058C115.18 369.759 116.191 369.922 116.938 370.493L125.859 377.302L125.007 378.021C124.639 378.331 124.106 378.394 123.673 378.177L122.286 377.487L123.836 379.007L123.346 379.421C122.857 379.833 122.18 379.98 121.553 379.812L117.564 378.742L121.245 381.193C120.424 381.885 119.28 382.126 118.23 381.827L112.394 380.163C108.414 381.074 104.36 381.655 100.278 381.899C93.4072 382.322 60.9576 370.984 54.9093 362.683C48.8609 354.382 42.625 319.913 42.625 319.913L61.271 314.533Z" fill="#B97964"/>
<path d="M44.0045 338.466C44.0045 338.466 35.9187 305.86 46.5568 297.96C57.1948 290.06 67.7322 331.308 67.7322 331.308L44.0045 338.466Z" fill="#39D24E"/>
<path opacity="0.3" d="M44.0045 338.466C44.0045 338.466 35.9187 305.86 46.5568 297.96C57.1948 290.06 67.7322 331.308 67.7322 331.308L44.0045 338.466Z" fill="white"/>
<path d="M113.633 254.13C114.983 254.001 116.143 252.78 116.202 251.424C116.262 250.069 115.215 248.751 113.881 248.503L107.573 247.87C107.873 251.92 108.174 255.968 108.474 260.018C109.694 260.333 111.009 260.397 112.201 259.987C113.393 259.579 114.442 258.649 114.801 257.441C115.161 256.234 114.714 254.777 113.633 254.13Z" fill="#263238"/>
<path d="M89.5293 277.484L75.9752 260.429C75.9752 260.429 75.9695 260.443 75.9661 260.488C75.9626 262.1 75.9123 263.943 75.7796 265.909C75.7739 265.922 74.3244 265.212 74.3187 265.226C73.7387 274.087 70.2346 289.204 70.3971 290.511L84.6399 297.588L87.2356 294.995L87.7344 289.229C86.3021 285.62 87.652 281.412 89.5293 277.484Z" fill="#B97964"/>
<path opacity="0.2" d="M87.5009 283.236L78.9277 276.46C78.7138 279.909 80.5167 285.326 87.391 288.142C86.9838 286.069 87.1199 284.599 87.5009 283.236Z" fill="black"/>
<path d="M78.869 251.973C76.0639 263.451 75.0068 268.963 78.9273 276.461C84.8246 287.74 99.2287 287.836 105.423 277.397C110.999 268.001 114.651 250.81 104.964 243.003C95.4204 235.312 81.6752 240.496 78.869 251.973Z" fill="#B97964"/>
<path d="M81.2918 236.394C84.765 230.668 93.8564 229.74 97.2163 234.26C97.7185 234.935 92.2868 235.098 92.908 235.069L89.7243 244.11C89.1019 243.754 87.5472 244.127 86.2236 245.992C86.2236 245.992 84.1758 258.43 77.7306 261.909C71.4019 253.177 72.125 236.412 81.2918 236.394Z" fill="#263238"/>
<path d="M71.5059 259.98C71.5059 263.16 72.9839 266.031 74.8738 267.835C77.7166 270.547 81.0159 268.451 81.7984 264.802C82.5031 261.519 81.8739 256.153 78.2646 254.821C74.7079 253.51 71.5059 256.346 71.5059 259.98Z" fill="#B97964"/>
<path d="M94.4096 261.59C94.0515 262.743 94.3753 263.861 95.1314 264.087C95.8876 264.314 96.7914 263.564 97.1495 262.411C97.5075 261.259 97.1838 260.141 96.4276 259.914C95.6714 259.687 94.7677 260.438 94.4096 261.59Z" fill="#263238"/>
<path d="M105.713 265.263C105.355 266.415 105.679 267.534 106.435 267.761C107.192 267.987 108.095 267.237 108.454 266.085C108.812 264.932 108.489 263.814 107.732 263.587C106.975 263.361 106.071 264.111 105.713 265.263Z" fill="#263238"/>
<path d="M101.733 262.184C101.733 262.184 103.166 267.436 103.821 270.554C103.978 271.3 103.421 272.028 102.659 272.05C100.998 272.094 99.4385 271.164 99.4385 271.164L101.733 262.184Z" fill="#A24E3F"/>
<path d="M93.2053 254.677C93.3574 254.802 93.5714 254.845 93.7704 254.769C96.1374 253.877 97.8385 255.075 97.8557 255.086C98.1085 255.268 98.4631 255.213 98.6485 254.963C98.8326 254.712 98.7766 254.36 98.526 254.178C98.4368 254.113 96.3055 252.611 93.3689 253.719C93.076 253.83 92.9284 254.154 93.0383 254.445C93.0749 254.538 93.1332 254.616 93.2053 254.677Z" fill="#263238"/>
<path d="M111.713 260.02C111.819 260.004 111.922 259.959 112.008 259.881C112.241 259.673 112.264 259.315 112.058 259.081C109.992 256.75 107.425 257.14 107.308 257.143C107.001 257.192 106.787 257.481 106.832 257.79C106.877 258.097 107.161 258.308 107.467 258.262C107.574 258.241 109.555 257.966 111.214 259.837C111.342 259.985 111.532 260.047 111.713 260.02Z" fill="#263238"/>
<path d="M93.4602 273.512C93.8537 273.833 94.2758 274.119 94.7209 274.365C94.865 274.442 95.0435 274.404 95.143 274.274C95.2082 274.118 95.1476 273.939 95.0023 273.855C92.6994 272.618 91.1253 270.354 90.766 267.764C90.7477 267.603 90.6082 267.484 90.4457 267.488C90.2982 267.48 90.1723 267.594 90.1655 267.741C90.1643 267.764 90.1654 267.786 90.17 267.809C90.4412 270.081 91.6298 272.141 93.4602 273.512Z" fill="#263238"/>
<path d="M119.322 245.569C118.55 243.277 115.821 242.315 113.407 242.142C114.92 242.113 116.111 240.577 116.115 239.063C116.118 237.55 115.18 236.161 113.99 235.225C111.863 233.555 108.83 233.121 106.321 234.129C106.795 233.899 106.966 233.267 106.814 232.761C106.662 232.255 106.264 231.863 105.845 231.543C103.29 229.591 99.3343 229.787 96.9834 231.98C96.1632 229.202 92.9462 227.385 90.1434 228.115C87.4104 228.828 82.2601 229.376 81.4639 236.372C79.1462 234.724 75.5506 235.074 73.7179 237.288C71.7365 239.68 72.2501 243.715 74.7681 245.534C73.5188 245.008 71.9664 245.819 71.4516 247.074C70.938 248.328 71.3361 249.83 72.2078 250.867C73.0795 251.905 74.3539 252.534 75.657 252.905C76.8845 253.255 78.2126 253.398 79.4322 253.019C80.6517 252.64 81.7362 251.663 81.9798 250.41C82.1858 251.724 83.5666 252.699 84.889 252.559C86.2126 252.42 87.3269 251.273 87.5443 249.961C87.7605 248.649 87.1347 247.264 86.0754 246.458C87.5809 247.917 90.4923 247.343 91.332 245.422C92.4474 247.563 94.0387 249.585 96.2558 250.541C98.4729 251.498 101.395 251.094 102.813 249.14C103.534 249.979 104.268 250.831 105.201 251.427C106.133 252.023 107.308 252.335 108.362 251.997C109.415 251.66 110.244 250.546 110.02 249.462C111.763 250.915 114.215 251.669 116.36 250.934C118.504 250.199 120.046 247.719 119.322 245.569Z" fill="#263238"/>
<path d="M131.082 379.908H111.015H89.7207C89.7207 379.913 89.7207 379.917 89.7207 379.922C89.731 381.501 91.495 382.775 93.6595 382.768H114.934H127.105C127.124 382.768 127.143 382.768 127.162 382.768H127.165H161.034C163.182 382.753 164.909 381.475 164.899 379.908H131.082Z" fill="#263238"/>
<path d="M161.654 382.607H123.868C123.216 382.602 122.692 382.174 122.696 381.652C122.697 381.553 122.717 381.456 122.756 381.362L139.565 342.825C139.989 341.725 141.254 340.972 142.69 340.968H180.499C181.139 340.968 181.657 341.384 181.657 341.898C181.657 342.005 181.633 342.112 181.588 342.213L164.779 380.75C164.349 381.846 163.088 382.595 161.654 382.607Z" fill="#263238"/>
<path opacity="0.7" d="M180.502 340.966H142.692C141.257 340.972 139.991 341.724 139.567 342.824L123.392 379.908H111.015H89.7207C89.7207 379.913 89.7207 379.917 89.7207 379.922C89.731 381.501 91.495 382.775 93.6595 382.768H114.934H127.105C127.124 382.768 127.143 382.768 127.162 382.768H127.165H161.034C161.715 382.764 162.344 382.621 162.899 382.393C163.778 382.097 164.481 381.51 164.78 380.749L181.588 342.212C181.634 342.11 181.657 342.004 181.657 341.896C181.658 341.383 181.141 340.966 180.502 340.966Z" fill="white"/>
<path d="M157.795 361.483C156.978 363.333 155.323 364.603 154.089 364.344C152.855 364.085 152.527 362.4 153.318 360.546C154.111 358.692 155.785 357.45 157.019 357.709C158.254 357.967 158.622 359.585 157.795 361.483Z" fill="white"/>
<g opacity="0.3">
<path d="M139.566 342.824L123.391 379.908H125.142L142.691 340.966C141.256 340.972 139.991 341.724 139.566 342.824Z" fill="black"/>
</g>
<path d="M141.519 422.651L165.857 426.568L169.763 416.531L144.181 408.549L141.519 422.651Z" fill="#B97964"/>
<path d="M176.68 431.633L179.968 424.838C179.968 424.838 179.033 423.578 179.69 422.117C180.058 421.296 182.101 419.942 182.101 419.942L191.281 401.323C191.253 401.309 190.006 400.69 189.352 400.625C188.555 400.545 187.842 400.555 187.201 400.64C184.962 400.938 183.2 402.684 181.942 404.02C179.836 406.259 172.564 411.809 172.564 411.809C172.564 411.809 170.509 413.113 167.294 413.018C165.502 412.965 164.064 413.629 163.565 414.386C162.545 415.929 163.074 417.316 164.493 418.297L166.142 419.434C166.504 421.17 165.645 422.799 163.827 423.494C163.827 423.494 160.054 425.98 161.91 426.644C162.969 427.023 167.769 428.534 171.525 429.841C172.401 430.146 173.228 430.435 173.955 430.688L173.956 430.687C175.57 431.247 176.68 431.633 176.68 431.633Z" fill="#263238"/>
<path d="M176.312 408.733C176.196 408.78 176.125 408.905 176.138 409.032C176.199 409.613 176.407 410.176 176.773 410.668C176.967 410.928 177.411 410.643 177.216 410.381C176.891 409.944 176.705 409.448 176.651 408.942C176.633 408.772 176.474 408.668 176.317 408.731L176.312 408.733Z" fill="#39D24E"/>
<path d="M174.831 409.789C174.714 409.836 174.643 409.961 174.657 410.088C174.718 410.669 174.926 411.233 175.292 411.724C175.485 411.984 175.929 411.699 175.735 411.437C175.41 411 175.223 410.504 175.169 409.998C175.151 409.828 174.992 409.724 174.835 409.787C174.835 409.787 174.833 409.788 174.831 409.789Z" fill="#39D24E"/>
<path d="M173.381 410.915C173.264 410.962 173.193 411.087 173.207 411.214C173.267 411.795 173.476 412.359 173.842 412.85C174.035 413.109 174.48 412.824 174.284 412.562C173.96 412.125 173.773 411.631 173.719 411.123C173.701 410.954 173.542 410.85 173.385 410.913L173.381 410.915Z" fill="#39D24E"/>
<path opacity="0.2" d="M179.689 422.116C180.057 421.295 182.1 419.941 182.1 419.941L191.28 401.322C191.252 401.308 190.005 400.689 189.351 400.624C188.985 400.587 188.64 400.574 188.309 400.574L173.55 430.546C173.683 430.592 173.828 430.643 173.955 430.688L173.956 430.687C175.569 431.249 176.678 431.634 176.678 431.634L179.965 424.839C179.968 424.838 179.033 423.578 179.689 422.116Z" fill="white"/>
<path d="M173.511 411.193C172.837 410.931 172.16 410.667 171.542 410.292C170.924 409.916 170.365 409.419 170.02 408.783C169.86 408.488 169.752 408.116 169.919 407.824C170.094 407.517 170.502 407.43 170.853 407.467C171.529 407.538 172.139 407.949 172.554 408.486C172.97 409.024 173.359 410.531 173.511 411.193Z" stroke="#39D24E" stroke-width="0.25" stroke-miterlimit="10"/>
<path d="M173.471 411.272C172.749 411.233 172.023 411.193 171.306 411.281C170.588 411.368 169.872 411.591 169.297 412.027C169.029 412.23 168.777 412.524 168.808 412.859C168.841 413.21 169.178 413.458 169.513 413.57C170.158 413.785 170.882 413.662 171.483 413.344C172.084 413.026 173.059 411.813 173.471 411.272Z" stroke="#39D24E" stroke-width="0.25" stroke-miterlimit="10"/>
<path d="M50.0593 411.553C44.8095 403.194 32.9462 380.54 57.0228 376.126C81.0994 371.712 161.541 409.94 161.541 409.94L156.443 425.292L81.5719 413.489C81.5719 413.489 91.8164 427.166 79.3914 426.542C61.3162 424.754 56.977 420.43 50.0593 411.553Z" fill="#263238"/>
<path opacity="0.7" d="M83.3481 413.901L62.8076 407.438C62.8076 407.438 80.0397 417.98 86.3603 419.234L83.3481 413.901Z" fill="black"/>
<path d="M7.04218 218.843H48.908C52.6924 218.843 55.7606 221.911 55.7606 225.696V248.299C55.7606 252.083 52.6924 255.152 48.908 255.152H38.8923L38.8179 261.989L31.2767 255.152H7.04104C3.25668 255.152 0.188477 252.083 0.188477 248.299V225.696C0.188477 221.911 3.25668 218.843 7.04218 218.843Z" fill="#39D24E"/>
<path d="M22.8202 233.427L16.2194 236.51L22.8202 239.592V242.078L14 237.8V235.22L22.8202 230.941V233.427Z" fill="white"/>
<path d="M42.9093 235.22V237.8L34.0879 242.078V239.592L40.6888 236.51L34.0879 233.427V230.941L42.9093 235.22Z" fill="white"/>
<path d="M29.9968 229.21L25.6953 244.075H27.846L32.1463 229.21H29.9968Z" fill="white"/>
<path d="M39.2458 217.3H17.7421C17.5842 217.3 17.4561 217.172 17.4561 217.014C17.4561 216.856 17.5842 216.728 17.7421 216.728H39.2447C39.4026 216.728 39.5307 216.856 39.5307 217.014C39.5318 217.172 39.4037 217.3 39.2458 217.3Z" fill="#39D24E"/>
<path d="M45.1771 217.309H41.784C41.6262 217.309 41.498 217.181 41.498 217.023C41.498 216.865 41.6262 216.737 41.784 216.737H45.1771C45.335 216.737 45.4631 216.865 45.4631 217.023C45.4631 217.181 45.335 217.309 45.1771 217.309Z" fill="#39D24E"/>
</svg>
