<svg width="36" height="36" viewBox="0 0 36 36" fill="none" xmlns="http://www.w3.org/2000/svg">
<g clip-path="url(#clip0_541_2529)">
<path d="M18 36C27.9072 36 36 27.8928 36 18C36 8.0928 27.8928 0 18 0C8.0928 0 0 8.1072 0 18C0 27.9072 8.1072 36 18 36Z" fill="url(#paint0_linear_541_2529)"/>
<path d="M23.2135 21.888L28.3111 18.9504C28.5847 18.792 28.7431 18.504 28.7431 18.1872V12.312C28.7431 11.9952 28.5703 11.7072 28.3111 11.5488L23.2135 8.61123C22.9399 8.45283 22.6087 8.45283 22.3351 8.61123L17.2375 11.5488C16.9639 11.7072 16.8055 11.9952 16.8055 12.312V22.824L13.2343 24.8832L9.66311 22.824V18.7056L13.2343 16.6464L15.5959 18V15.2352L13.6807 14.1264C13.5511 14.0544 13.3927 14.0112 13.2487 14.0112C13.0903 14.0112 12.9463 14.0544 12.8167 14.1264L7.71911 17.064C7.44551 17.2224 7.28711 17.5104 7.28711 17.8272V23.7024C7.28711 24.0192 7.45991 24.3072 7.71911 24.4656L12.8167 27.4032C13.0903 27.5616 13.4215 27.5616 13.6951 27.4032L18.7927 24.4656C19.0663 24.3072 19.2247 24.0192 19.2247 23.7024V13.1904L19.2823 13.1472L22.7959 11.1168L26.3671 13.176V17.2944L22.7959 19.3536L20.4487 18V20.7648L22.3639 21.8736C22.6375 22.032 22.9687 22.032 23.2423 21.8736L23.2135 21.888Z" fill="white"/>
</g>
<defs>
<linearGradient id="paint0_linear_541_2529" x1="-6.58416" y1="2.92337" x2="30.539" y2="25.6898" gradientUnits="userSpaceOnUse">
<stop stop-color="#A229C5"/>
<stop offset="1" stop-color="#7B3FE4"/>
</linearGradient>
<clipPath id="clip0_541_2529">
<rect width="36" height="36" fill="white"/>
</clipPath>
</defs>
</svg>
