<svg width="604" height="504" viewBox="0 0 604 504" fill="none" xmlns="http://www.w3.org/2000/svg">
<path d="M297.299 204.662L300.055 208.073L38.4961 416.413L49.6375 430.206L51.1653 432.099L312.724 223.759L315.478 227.17L320.377 204.616L297.299 204.662Z" fill="#39D24E"/>
<path opacity="0.7" d="M297.299 204.662L300.055 208.073L38.4961 416.413L49.6375 430.206L51.1653 432.099L312.724 223.759L315.478 227.17L320.377 204.616L297.299 204.662Z" fill="white"/>
<path d="M0 430.984C0 426.228 3.85627 422.372 8.61152 422.372C9.4712 422.372 10.3014 422.501 11.0841 422.737C10.958 421.874 10.8909 420.992 10.8909 420.094C10.8909 410.024 19.0554 401.859 29.1259 401.859C30.2738 401.859 31.3955 401.971 32.4844 402.174C35.2878 397.585 40.3247 394.514 46.0951 394.514C54.8262 394.514 61.91 401.53 62.0393 410.23C62.1277 410.229 62.2145 410.217 62.3046 410.217C70.4183 410.217 76.9944 416.793 76.9944 424.907C76.9944 433.019 70.4183 439.597 62.3046 439.597H8.35771L8.36918 439.584C3.72528 439.454 0 435.659 0 430.984Z" fill="#39D24E"/>
<path opacity="0.8" d="M0 430.984C0 426.228 3.85627 422.372 8.61152 422.372C9.4712 422.372 10.3014 422.501 11.0841 422.737C10.958 421.874 10.8909 420.992 10.8909 420.094C10.8909 410.024 19.0554 401.859 29.1259 401.859C30.2738 401.859 31.3955 401.971 32.4844 402.174C35.2878 397.585 40.3247 394.514 46.0951 394.514C54.8262 394.514 61.91 401.53 62.0393 410.23C62.1277 410.229 62.2145 410.217 62.3046 410.217C70.4183 410.217 76.9944 416.793 76.9944 424.907C76.9944 433.019 70.4183 439.597 62.3046 439.597H8.35771L8.36918 439.584C3.72528 439.454 0 435.659 0 430.984Z" fill="white"/>
<path d="M548.295 336.644L554.827 344.732L433.25 442.94L459.664 475.642L463.29 480.131L584.866 381.922L591.4 390.01L603.016 336.536L548.295 336.644Z" fill="#39D24E"/>
<path opacity="0.5" d="M548.295 336.644L554.827 344.732L433.25 442.94L459.664 475.642L463.29 480.131L584.866 381.922L591.4 390.01L603.016 336.536L548.295 336.644Z" fill="white"/>
<path d="M482.564 439.406C477.658 431.579 468.98 426.356 459.06 426.356C448.976 426.356 440.173 431.753 435.316 439.799C434.041 439.442 432.701 439.238 431.313 439.238C423.104 439.238 416.448 445.893 416.448 454.103C416.448 454.109 416.449 454.116 416.449 454.123H408.612C404.53 454.123 401.189 457.463 401.189 461.545C401.189 465.627 404.53 468.968 408.612 468.968H435.657C440.581 476.703 449.21 481.85 459.06 481.85C466.826 481.85 473.838 478.65 478.875 473.509C479.343 473.546 479.813 473.581 480.291 473.581C489.774 473.581 497.462 465.893 497.462 456.41C497.462 447.699 490.971 440.522 482.564 439.406Z" fill="#39D24E"/>
<path opacity="0.8" d="M482.564 439.406C477.658 431.579 468.98 426.356 459.06 426.356C448.976 426.356 440.173 431.753 435.316 439.799C434.041 439.442 432.701 439.238 431.313 439.238C423.104 439.238 416.448 445.893 416.448 454.103C416.448 454.109 416.449 454.116 416.449 454.123H408.612C404.53 454.123 401.189 457.463 401.189 461.545C401.189 465.627 404.53 468.968 408.612 468.968H435.657C440.581 476.703 449.21 481.85 459.06 481.85C466.826 481.85 473.838 478.65 478.875 473.509C479.343 473.546 479.813 473.581 480.291 473.581C489.774 473.581 497.462 465.893 497.462 456.41C497.462 447.699 490.971 440.522 482.564 439.406Z" fill="white"/>
<path d="M300.033 107.138L297.672 104.651C297.037 103.981 296.105 103.683 295.199 103.857L291.667 104.535C290.513 104.756 289.634 105.697 289.491 106.863L287.682 121.664L293.161 123.765C299.83 120.864 299.485 112.052 299.485 112.052L300.444 110.299C301.007 109.269 300.842 107.991 300.033 107.138Z" fill="#FFB573"/>
<path d="M233.932 151.493C233.932 151.493 239.177 151.81 242.254 151.735C245.355 151.692 248.443 151.637 251.478 151.463C254.5 151.27 257.504 151.057 260.259 150.675C261.625 150.484 262.951 150.238 263.996 149.953C264.486 149.812 264.959 149.663 265.177 149.575C265.529 149.413 265.139 149.698 265.337 149.587C265.85 149.151 266.844 147.967 267.713 146.868C268.611 145.729 269.514 144.5 270.409 143.251C272.205 140.746 273.988 138.142 275.768 135.524L286.464 119.653L294.822 124.104C293.594 127.161 292.261 130.107 290.926 133.089C289.544 136.038 288.136 138.979 286.683 141.92C285.208 144.849 283.675 147.761 282.01 150.675C281.167 152.133 280.301 153.592 279.348 155.082C278.355 156.603 277.443 158.024 275.719 159.904C274.79 160.938 273.089 162.19 271.992 162.731C270.784 163.39 269.745 163.801 268.717 164.19C266.706 164.915 264.885 165.373 263.092 165.775C259.521 166.57 256.12 167.044 252.732 167.368C245.948 168.041 239.437 168.293 232.637 168.141L233.932 151.493Z" fill="#39D24E"/>
<path opacity="0.7" d="M294.816 124.111C293.588 127.156 292.261 130.104 290.935 133.084C289.543 136.032 288.135 138.979 286.678 141.926C285.204 144.841 283.681 147.756 282.011 150.671C281.176 152.128 280.308 153.585 279.342 155.075C278.359 156.598 277.442 158.023 275.723 159.906C274.789 160.938 273.086 162.182 271.989 162.723C270.778 163.394 269.746 163.803 268.714 164.196C266.7 164.917 264.883 165.375 263.098 165.768C259.528 166.571 256.122 167.045 252.733 167.373C251.275 167.52 249.834 167.635 248.41 167.75C243.153 168.126 237.979 168.257 232.641 168.143L232.903 164.704L233.934 151.489C233.934 151.489 239.174 151.817 242.253 151.735C245.364 151.686 248.442 151.637 251.488 151.457C254.501 151.277 257.514 151.064 260.265 150.671C261.624 150.491 262.95 150.245 263.998 149.95C264.49 149.819 264.965 149.672 265.177 149.574C265.538 149.41 265.145 149.705 265.341 149.59C265.849 149.148 266.848 147.969 267.716 146.872C268.616 145.725 269.517 144.497 270.401 143.253C272.202 140.747 273.987 138.144 275.772 135.524L286.465 119.657L294.816 124.111Z" fill="white"/>
<path opacity="0.1" d="M248.41 167.75C243.153 168.126 237.979 168.257 232.641 168.143L232.903 164.704L234.18 161.691C234.18 161.691 242.76 161.576 248.41 167.75Z" fill="black"/>
<path d="M146.354 445.242C146.354 445.242 131.53 435.044 132.439 428.193C132.529 427.52 132.134 426.925 131.422 426.817L118.856 424.916C118.27 424.828 117.643 425.095 117.295 425.583L109.871 435.987L113.207 437.194L114.996 435.938L115.838 438.145C133.94 444.694 141.833 447.332 145.824 447.499C146.926 446.089 146.354 445.242 146.354 445.242Z" fill="black"/>
<path d="M229.841 252.62C229.841 252.62 229.088 254.585 227.761 257.991C226.337 261.676 224.241 267.047 221.719 273.433C220.032 277.69 218.166 282.406 216.152 287.368C206.9 310.358 194.946 338.801 187.037 353.162C171.89 380.639 132.427 432.825 132.427 432.825L116.658 427.062C116.658 427.062 145.052 373.319 159.38 346.088C163.752 337.786 168.779 325.57 173.757 312.241C176.132 305.904 178.49 299.305 180.766 292.772C181.797 289.824 182.813 286.877 183.795 283.978C186.399 276.315 188.838 268.93 190.984 262.347C191.246 261.528 191.508 260.71 191.77 259.924C192.637 257.222 193.456 254.667 194.193 252.309C197.271 242.615 199.187 236.229 199.253 235.984C199.269 235.984 199.269 235.984 199.269 235.984L213.335 243.647L229.841 252.62Z" fill="#263238"/>
<path opacity="0.3" d="M227.759 257.991C226.335 261.675 224.239 267.046 221.717 273.433C220.031 277.69 218.164 282.406 216.15 287.368C203.279 289.955 190.179 291.707 180.764 292.771C181.795 289.824 182.811 286.876 183.793 283.978C186.397 276.315 188.836 268.93 190.982 262.347C191.244 261.528 191.506 260.709 191.768 259.923C192.635 257.222 193.454 254.667 194.191 252.309C203.656 253.603 216.313 255.535 227.759 257.991Z" fill="black"/>
<path d="M179.445 160.212C179.445 160.225 179.457 160.237 179.457 160.248C181.726 167.866 183.058 176.718 183.801 185.446C184.374 192.235 184.592 198.921 184.621 204.917C184.644 210.959 184.463 216.307 184.266 220.403C184.002 225.662 183.691 228.903 183.691 228.903L233.443 231.459C248.372 177.358 233.936 151.491 233.936 151.491C233.936 151.491 227.736 150.865 220.595 151.185C219.675 151.213 218.74 151.285 217.782 151.358C211.697 151.866 202.003 153.79 195.53 155.252C194.196 155.545 192.856 155.893 191.548 156.246C185.047 158.02 179.445 160.212 179.445 160.212Z" fill="#39D24E"/>
<path opacity="0.7" d="M233.442 231.464L183.695 228.91C183.695 228.91 184.006 225.667 184.268 220.395C184.334 218.855 184.399 217.103 184.465 215.204C184.563 212.142 184.628 208.67 184.628 204.92C184.612 203.103 184.579 201.22 184.53 199.287C184.53 198.976 184.514 198.665 184.514 198.354C184.432 195.292 184.284 192.115 184.072 188.889C183.973 187.743 183.891 186.597 183.793 185.451C183.728 184.55 183.646 183.633 183.564 182.733C183.318 180.44 183.056 178.148 182.729 175.888C182.647 175.266 182.549 174.643 182.45 174.037C182.303 173.006 182.139 172.007 181.959 170.992C181.288 167.258 180.469 163.623 179.47 160.234C179.47 160.234 179.454 160.217 179.438 160.217C179.438 160.217 185.054 158.023 191.555 156.238C192.848 155.894 194.191 155.55 195.518 155.256C202.002 153.798 211.696 151.866 217.771 151.358C218.737 151.293 219.67 151.211 220.604 151.195C227.727 150.867 233.933 151.489 233.933 151.489C233.933 151.489 248.376 177.345 233.442 231.464Z" fill="white"/>
<path d="M264.211 360.93C264.211 360.93 249.998 349.897 251.3 343.109C251.427 342.443 251.069 341.827 250.365 341.678L237.93 339.058C237.348 338.935 236.708 339.166 236.333 339.633L228.324 349.594L231.584 350.991L233.445 349.841L234.159 352.093C251.855 359.672 259.582 362.757 263.558 363.155C264.732 361.808 264.211 360.93 264.211 360.93Z" fill="black"/>
<path d="M207.484 273.729C208.23 273.768 208.646 273.77 208.646 273.77L268.29 282.441L234.338 338.765L251.339 345.236C251.339 345.236 312.815 278.953 299.081 263.839C287.786 251.409 232.44 243.847 232.44 243.847L234.256 230.873L183.064 220.794C161.179 268.699 200.157 273.28 207.484 273.729Z" fill="#263238"/>
<path d="M182.455 225.887L181.369 225.677L182.361 222.227L183.328 222.414L182.455 225.887Z" fill="#263238"/>
<path d="M222.725 233.68L200.869 229.45L201.722 225.98L223.488 230.202L222.725 233.68Z" fill="#263238"/>
<path d="M225.174 230.529L234.414 232.32L233.798 235.823L224.443 234.012L225.174 230.529Z" fill="#263238"/>
<path d="M185.014 222.741L200.041 225.656L199.154 229.119L184.176 226.221L185.014 222.741Z" fill="#263238"/>
<g opacity="0.2">
<path d="M182.455 225.887L181.369 225.677L182.361 222.227L183.328 222.414L182.455 225.887Z" fill="white"/>
<path d="M222.725 233.68L200.869 229.45L201.722 225.98L223.488 230.202L222.725 233.68Z" fill="white"/>
<path d="M225.174 230.529L234.414 232.32L233.798 235.823L224.443 234.012L225.174 230.529Z" fill="white"/>
<path d="M185.014 222.741L200.041 225.656L199.154 229.119L184.176 226.221L185.014 222.741Z" fill="white"/>
</g>
<path d="M216.658 229.563L216.165 231.675C216.087 232.011 215.759 232.227 215.42 232.167L209.948 231.196C209.578 231.13 209.34 230.763 209.432 230.4L209.98 228.207C210.064 227.873 210.395 227.662 210.734 227.727L216.149 228.777C216.511 228.849 216.743 229.204 216.658 229.563Z" stroke="white" stroke-width="0.5891" stroke-miterlimit="10"/>
<path d="M212.127 229.735L210.457 229.442" stroke="white" stroke-width="0.5891" stroke-miterlimit="10" stroke-linecap="round" stroke-linejoin="round"/>
<path d="M200.684 132.679L213.68 143.451C212.409 148.724 214.615 153.585 217.176 154.486C217.176 154.486 219.073 159.007 215.42 159.768C208.014 161.312 199.564 154.139 199.564 154.139C203.481 149.927 202.065 139.409 200.684 132.679Z" fill="#EBB376"/>
<path opacity="0.2" d="M205.98 137.074L213.672 143.444C213.367 144.692 213.131 145.956 213.053 147.183C210.167 146.819 206.183 143.731 205.854 140.724C205.689 139.223 205.74 137.779 205.98 137.074Z" fill="black"/>
<path d="M212.158 111.396C215.302 113.356 219.563 119.265 214.278 120.687C208.993 122.106 206.753 108.027 212.158 111.396Z" fill="#263238"/>
<path d="M195.929 131.592C201.427 138.843 204.278 143.372 210.664 144.669C220.27 146.623 227.255 136.839 224.025 128.067C221.117 120.169 212.615 109.638 203.243 111.636C194.008 113.608 190.43 124.341 195.929 131.592Z" fill="#FFB573"/>
<path d="M197.551 123.698L190.947 115.992C190.947 115.992 182.223 122.411 186.184 126.297C183.57 132.442 193.949 141.019 203.02 139.257C204.072 133.714 195.991 124.248 195.991 124.248C196.49 124.097 197.016 123.906 197.551 123.698Z" fill="#263238"/>
<path d="M197.204 139.837C199.104 141.381 201.538 141.892 203.535 141.638C206.536 141.257 206.885 138.265 205.085 136.027C203.466 134.011 199.952 131.781 197.402 133.29C194.892 134.781 195.031 138.072 197.204 139.837Z" fill="#FFB573"/>
<path d="M208.752 125.945C209.161 126.56 209.819 126.839 210.219 126.567C210.62 126.295 210.612 125.575 210.202 124.959C209.793 124.343 209.135 124.065 208.735 124.337C208.334 124.608 208.342 125.327 208.752 125.945Z" fill="#263238"/>
<path d="M215.678 121.233C216.087 121.849 216.746 122.127 217.145 121.856C217.546 121.584 217.538 120.863 217.129 120.248C216.719 119.632 216.061 119.354 215.662 119.625C215.261 119.897 215.267 120.618 215.678 121.233Z" fill="#263238"/>
<path d="M213.68 123.038C213.68 123.038 217.385 125.488 220.04 126.097C219.611 127.787 217.457 128.573 217.457 128.573L213.68 123.038Z" fill="#ED893E"/>
<path d="M217.929 133.912C218.199 133.766 218.471 133.596 218.746 133.394C218.842 133.324 218.865 133.186 218.795 133.09C218.725 132.992 218.587 132.972 218.494 133.041C215.861 134.955 213.319 134.005 213.295 133.995C213.183 133.951 213.057 134.01 213.015 134.121C212.972 134.234 213.026 134.361 213.137 134.405C213.239 134.444 215.432 135.263 217.929 133.912Z" fill="#263238"/>
<path d="M204.012 123.921C204.163 123.929 204.315 123.857 204.403 123.719C205.456 122.08 207.058 122.039 207.074 122.039C207.315 122.036 207.508 121.838 207.508 121.599C207.506 121.36 207.31 121.166 207.071 121.17C206.986 121.17 204.978 121.22 203.671 123.256C203.54 123.459 203.599 123.727 203.801 123.857C203.866 123.896 203.938 123.917 204.012 123.921Z" fill="#263238"/>
<path d="M215.758 115.643C215.783 115.564 215.786 115.478 215.762 115.391C215.696 115.158 215.456 115.022 215.226 115.086C212.914 115.727 212.315 117.636 212.277 117.718C212.207 117.947 212.334 118.193 212.564 118.266C212.791 118.338 213.034 118.214 213.106 117.986C213.127 117.906 213.607 116.442 215.464 115.928C215.609 115.887 215.716 115.776 215.758 115.643Z" fill="#263238"/>
<path d="M195.991 124.246C195.991 124.246 213.28 116.983 214.339 108.69C215.399 100.398 208.094 103.796 208.094 103.796C208.094 103.796 211.475 103.565 211.145 106.028C211.145 106.028 205.305 102.044 199.741 105.468C199.741 105.468 202.341 105.417 203.71 107.346C203.71 107.346 198.426 108.378 192.497 112.773C186.569 117.168 175.921 132.902 195.991 124.246Z" fill="#263238"/>
<path opacity="0.3" d="M232.443 243.847L204.264 240.611C204.264 240.611 215.42 238.779 233.062 239.425L232.443 243.847Z" fill="black"/>
<path opacity="0.1" d="M184.072 188.889C183.974 187.743 183.892 186.597 183.794 185.451C183.728 184.55 183.647 183.633 183.565 182.732C183.319 180.44 183.057 178.147 182.73 175.888C182.648 175.266 182.549 174.643 182.451 174.037C183.204 173.432 184.04 172.875 184.924 172.384C184.924 172.384 186.529 180.653 184.072 188.889Z" fill="black"/>
<path d="M137.111 229.119L132.215 240.611L142.818 243.233C142.818 243.233 147.37 235.681 142.926 229.922L137.111 229.119Z" fill="#EBB376"/>
<path d="M132.976 249.47L141.347 249.532L142.816 243.232L132.213 240.611L132.976 249.47Z" fill="#EBB376"/>
<path d="M184.789 168.166C185.518 175.372 183.058 178.302 183.058 178.302C183.058 178.302 176.079 182.687 173.051 184.934C170.477 186.874 167.954 188.844 165.562 190.817C164.379 191.809 163.238 192.813 162.192 193.807C161.157 194.79 160.187 195.813 159.575 196.605C159.301 196.922 159.026 197.436 158.733 197.894C158.435 198.376 158.124 199.096 157.802 199.679C157.161 201 156.526 202.397 155.923 203.864C154.713 206.789 153.569 209.84 152.48 212.934C150.212 219.09 148.099 225.437 145.925 231.677L136.254 229.378C137.238 222.584 138.566 215.962 140.099 209.255C140.908 205.919 141.803 202.579 142.832 199.181C143.343 197.486 143.924 195.759 144.579 193.987C144.97 193.055 145.285 192.215 145.774 191.218C146.29 190.208 146.765 189.219 147.476 188.172C148.786 186.214 150.071 184.737 151.365 183.312C152.658 181.904 153.957 180.606 155.265 179.353C157.869 176.853 160.541 174.575 163.248 172.382C168.668 167.976 174.111 163.951 179.942 160.062C179.942 160.062 184.129 161.644 184.789 168.166Z" fill="#39D24E"/>
<path opacity="0.7" d="M184.789 168.166C185.518 175.372 183.058 178.302 183.058 178.302C183.058 178.302 176.079 182.687 173.051 184.934C170.477 186.874 167.954 188.844 165.562 190.817C164.379 191.809 163.238 192.813 162.192 193.807C161.157 194.79 160.187 195.813 159.575 196.605C159.301 196.922 159.026 197.436 158.733 197.894C158.435 198.376 158.124 199.096 157.802 199.679C157.161 201 156.526 202.397 155.923 203.864C154.713 206.789 153.569 209.84 152.48 212.934C150.212 219.09 148.099 225.437 145.925 231.677L136.254 229.378C137.238 222.584 138.566 215.962 140.099 209.255C140.908 205.919 141.803 202.579 142.832 199.181C143.343 197.486 143.924 195.759 144.579 193.987C144.97 193.055 145.285 192.215 145.774 191.218C146.29 190.208 146.765 189.219 147.476 188.172C148.786 186.214 150.071 184.737 151.365 183.312C152.658 181.904 153.957 180.606 155.265 179.353C157.869 176.853 160.541 174.575 163.248 172.382C168.668 167.976 174.111 163.951 179.942 160.062C179.942 160.062 184.129 161.644 184.789 168.166Z" fill="white"/>
<path d="M206.775 158.504L210.417 164.224C210.417 164.224 197.721 179.61 173.426 184.686L171.805 189.631L176.971 190.984C176.971 190.984 203.212 184.193 213.682 164.511L219.09 158.486L212.716 156.346L206.775 158.504Z" fill="#39D24E"/>
<path d="M195.01 155.059L200.926 149.883L212.714 156.348L214.077 149.279L220.301 152.86L222.082 162.002L213.397 158.244L205.624 165.175L195.01 155.059Z" fill="#39D24E"/>
<path opacity="0.6" d="M195.01 155.059L200.926 149.883L212.714 156.348L214.077 149.279L220.301 152.86L222.082 162.002L213.397 158.244L205.624 165.175L195.01 155.059Z" fill="white"/>
<path d="M357.425 52.6426C357.425 52.6426 346.414 66.3008 335.24 65.166C324.066 64.0329 318.354 68.5671 318.354 68.5671L317.264 74.0183L323.255 73.2094C323.255 73.2094 323.255 68.8897 334.916 69.376C346.576 69.8623 355.32 59.8377 358.721 55.2937L357.425 52.6426Z" fill="#39D24E"/>
<path d="M436.523 29.9409L436.291 28.8667C436.173 28.441 436.237 28.3853 435.834 27.3242C435.194 25.6638 434.116 24.2965 433.165 23.4401C431.193 21.6782 429.571 21.0559 428.156 20.4975C425.354 19.5052 423.122 19.1925 420.913 18.9223C418.725 18.6734 416.652 18.5653 414.611 18.5113C410.535 18.3934 406.607 18.5964 402.713 18.8404C394.903 19.3562 387.392 20.2781 379.67 21.6127L382.48 37.7451C389.541 36.6202 396.903 35.5902 404.027 34.8517C407.6 34.4882 411.162 34.2655 414.579 34.1558C416.282 34.1116 417.959 34.1181 419.503 34.2131C420.589 34.277 421.663 34.3998 422.469 34.539C422.52 35.0941 422.541 35.7016 422.521 36.3467C422.418 39.1305 421.72 42.389 420.769 45.6362C418.847 52.1583 415.832 58.9325 412.711 65.2614L420.481 70.444C425.446 64.1659 429.531 57.6438 432.914 50.1409C434.53 46.3583 435.96 42.3661 436.608 37.6813C436.921 35.3331 437.033 32.7738 436.523 29.9409Z" fill="#39D24E"/>
<path opacity="0.7" d="M436.607 37.6845C436.083 41.549 435.002 44.9549 433.742 48.148C433.48 48.8194 433.201 49.4908 432.923 50.1458C429.533 57.6454 425.44 64.1626 420.478 70.4342L412.716 65.2598C415.828 58.9227 418.84 52.1599 420.773 45.6263C421.428 43.383 421.968 41.1232 422.263 39.0273C422.41 38.0939 422.492 37.1933 422.525 36.3418C422.541 35.7032 422.525 35.0973 422.476 34.5406C421.673 34.3932 420.593 34.2786 419.512 34.2131C417.956 34.1148 416.286 34.1148 414.583 34.1476C414.452 34.1476 414.337 34.1639 414.206 34.1639C410.899 34.2786 407.476 34.5078 404.021 34.8517C397.111 35.5722 390.004 36.5547 383.143 37.6518C382.914 37.6845 382.701 37.7173 382.488 37.75L379.672 21.6045C387.401 20.2781 394.9 19.3611 402.711 18.8371C406.608 18.5915 410.538 18.395 414.616 18.5096C416.663 18.5587 418.726 18.6734 420.92 18.919C423.131 19.1974 425.358 19.5085 428.158 20.491C429.566 21.0477 431.187 21.6699 433.168 23.4384C434.118 24.2899 435.199 25.6654 435.838 27.3193C436.231 28.3836 436.181 28.4328 436.296 28.8585L436.525 29.9392C437.033 32.7721 436.918 35.3265 436.607 37.6845Z" fill="white"/>
<path opacity="0.1" d="M414.206 34.1637C410.898 34.2784 407.476 34.5076 404.02 34.8515C397.11 35.572 390.004 36.5545 383.143 37.6516C385.648 31.4947 388.219 25.2722 388.219 25.2722C388.219 25.2722 399.681 26.3693 414.206 34.1637Z" fill="black"/>
<path opacity="0.1" d="M433.742 48.1481C433.48 48.8195 433.202 49.4908 432.923 50.1458C429.534 57.6455 425.44 64.1627 420.478 70.4343L412.717 65.2598C415.828 58.9228 418.841 52.16 420.773 45.6264C421.428 43.383 421.969 41.1233 422.263 39.0273C426.046 41.5654 429.91 44.5784 433.742 48.1481Z" fill="black"/>
<path d="M329.087 33.1844C329.534 33.751 329.596 34.4469 329.226 34.7384C328.856 35.0315 328.193 34.8088 327.746 34.2422C327.299 33.6757 327.237 32.9797 327.607 32.6883C327.977 32.3968 328.64 32.6179 329.087 33.1844Z" fill="#263238"/>
<path d="M328.676 28.403C328.742 28.3244 328.781 28.2213 328.776 28.1099C328.766 27.8758 328.568 27.6956 328.334 27.7055C325.992 27.8086 324.98 29.4805 324.936 29.5542C324.817 29.7556 324.884 30.016 325.085 30.1339C325.287 30.2518 325.547 30.183 325.665 29.9865C325.698 29.9308 326.503 28.6355 328.372 28.552C328.494 28.5471 328.603 28.4898 328.676 28.403Z" fill="#263238"/>
<path d="M345.393 24.4238C350.803 28.3227 361.163 34.4927 367.042 32.1544C367.042 32.1544 372.326 36.5527 367.25 47.6007C361.668 59.7492 358.551 50.635 358.551 50.635C360.015 43.2778 355.018 41.1867 349.866 40.219L345.393 24.4238Z" fill="#E9A161"/>
<path d="M347.021 17.0681C352.088 24.3582 355.422 28.3684 354.729 34.7104C353.688 44.252 342.59 47.8463 335.448 42.2166C329.019 37.1486 321.816 26.0776 326.435 17.9344C330.987 9.91233 341.955 9.77642 347.021 17.0681Z" fill="#E9A161"/>
<path d="M355.16 29.1005C354.4 33.2319 340.495 38.8845 334.184 29.9766C334.184 29.9766 326.265 29.9127 321.502 25.1395C316.738 20.3662 317.76 15.1885 322.029 12.372C325.792 9.8896 335.519 -8.39782 346.847 4.65292C359.144 4.15185 356.108 23.9441 355.16 29.1005Z" fill="#263238"/>
<path d="M331.665 10.4036C331.665 10.4036 324.362 10.0499 320.152 13.3969C315.942 16.7439 317.129 27.0109 318.749 28.9497C320.368 30.8869 322.096 30.8869 322.096 30.8869C322.096 30.8869 319.613 29.5998 319.613 27.7052C319.613 27.7052 320.693 30.2384 325.659 30.8869C325.659 30.8869 324.243 29.7554 324.465 28.3242C324.465 28.3242 327.156 31.8071 333.372 28.3242C339.584 24.8413 331.665 10.4036 331.665 10.4036Z" fill="#263238"/>
<path d="M337.878 28.4421C339.221 30.3415 339.745 32.7192 339.624 34.6449C339.444 37.5399 337.02 37.7675 335.114 35.9417C333.4 34.2977 331.426 30.8099 332.546 28.3946C333.653 26.0153 336.344 26.2708 337.878 28.4421Z" fill="#E9A161"/>
<path d="M352.417 52.6425C352.417 52.6425 351.056 36.1563 361.821 26.8979L374.639 28.072C374.639 28.072 367.252 46.0991 352.417 52.6425Z" fill="#39D24E"/>
<path opacity="0.6" d="M352.417 52.6425C352.417 52.6425 351.056 36.1563 361.821 26.8979L374.639 28.072C374.639 28.072 367.252 46.0991 352.417 52.6425Z" fill="white"/>
<path d="M389.374 89.7236C389.374 89.7236 369.988 70.6895 348.559 57.3653C348.559 57.3653 362.836 23.8525 380.909 20.8608C380.909 20.8608 427.633 34.971 441.189 73.2095L389.374 89.7236Z" fill="#39D24E"/>
<path d="M391.838 205.831L383.472 209.379L374.42 190.363L382.784 186.813L391.838 205.831Z" fill="#E9A161"/>
<path d="M441.189 73.2092L436.253 125.553C433.542 127.561 429.22 129.121 424.005 130.338C413.792 132.715 400.165 133.794 388.396 134.425C375.178 135.145 364.323 135.283 363.343 136.043C361.044 137.831 390.147 197.94 390.147 197.94L376.256 199.67C376.256 199.67 339.75 149.603 335.024 132.208C333.283 125.787 331.53 117.745 343.319 110.231C353.698 103.616 392.346 98.6508 392.346 98.6508L389.372 89.7216L441.189 73.2092Z" fill="#263238"/>
<path opacity="0.2" d="M424.006 130.338C413.793 132.716 400.166 133.795 388.397 134.425C386.804 115.109 396.524 96.5746 396.524 96.5746L410.346 93.0278L424.006 130.338Z" fill="black"/>
<path d="M513.646 198.122L515.126 207.087L494.51 211.406L493.031 202.441L513.646 198.122Z" fill="#E9A161"/>
<path d="M515.567 207.416C515.507 207.35 515.412 207.329 515.328 207.363C515.245 207.398 515.192 207.48 515.195 207.57C515.2 207.725 515.325 211.379 516.468 212.449C516.702 212.669 516.967 212.775 517.254 212.766C517.766 212.749 517.978 212.497 518.064 212.287C518.312 211.691 517.858 210.648 517.247 209.654C516.676 208.731 515.97 207.848 515.567 207.416ZM515.662 208.177C516.751 209.491 517.945 211.454 517.666 212.122C517.63 212.209 517.547 212.325 517.239 212.336C517.069 212.341 516.912 212.276 516.761 212.135C516.668 212.047 516.581 211.935 516.501 211.806C515.944 210.902 515.736 209.122 515.662 208.177Z" fill="#39D24E"/>
<path d="M515.491 207.363C515.421 207.334 515.339 207.344 515.278 207.39C515.195 207.453 513.24 208.945 513.038 210.427C512.978 210.879 513.081 211.285 513.349 211.637C513.711 212.109 514.055 212.097 514.283 212.004C515.244 211.606 515.779 208.726 515.622 207.534C515.617 207.503 515.607 207.475 515.593 207.449C515.568 207.413 515.534 207.381 515.491 207.363ZM513.464 210.486C513.597 209.513 514.674 208.469 515.221 207.996C515.236 209.301 514.694 211.367 514.117 211.606C514.07 211.626 513.927 211.685 513.692 211.375C513.665 211.341 513.641 211.305 513.618 211.269C513.476 211.036 513.425 210.779 513.464 210.486Z" fill="#39D24E"/>
<path d="M514.005 207.293L508.801 198.844C508.607 198.528 508.657 198.118 508.924 197.86L514.86 192.096C515.476 191.498 516.484 191.624 516.922 192.361C518.747 195.441 521.281 199.956 523.64 203.786C526.399 208.266 529.026 211.983 532.262 217.236C534.218 220.413 531.549 223.272 530.441 222.12C525.389 216.884 522.203 212.029 515.757 208.785C515.057 208.433 514.418 207.961 514.005 207.293Z" fill="#263238"/>
<path d="M441.19 73.2092C441.19 73.2092 457.835 116 429.752 132.604C429.752 132.604 429.395 182.048 436.493 187.843C445.131 194.894 508.394 198.482 508.394 198.482L507.844 214.192C507.844 214.192 440.117 219.734 419.613 212.379C395.602 203.764 390.256 90.4667 390.256 90.4667L441.19 73.2092Z" fill="#263238"/>
<path opacity="0.2" d="M421.945 99.478L432.055 96.4192C432.055 96.4192 433.445 105.117 433.426 109.773L428.738 113.799L424.302 112.386C424.302 112.386 423.09 103.089 421.945 99.478Z" fill="black"/>
<path d="M392.707 89.7576L394.016 93.9168L390.278 95.0761L388.961 90.9529L392.707 89.7576Z" fill="#263238"/>
<path d="M409.959 84.2229L411.367 88.5377L395.885 93.3371L394.518 89.1714L409.959 84.2229Z" fill="#263238"/>
<path d="M429.229 78.0481L430.634 82.5626L413.327 87.9237L411.953 83.5844L429.229 78.0481Z" fill="#263238"/>
<path d="M443.308 78.6259L432.65 81.9304L432.639 81.932L431.209 77.4093L441.789 74.0181L443.308 78.6259Z" fill="#263238"/>
<g opacity="0.2">
<path d="M392.707 89.7576L394.016 93.9168L390.278 95.0761L388.961 90.9529L392.707 89.7576Z" fill="white"/>
<path d="M409.959 84.2229L411.367 88.5377L395.885 93.3371L394.518 89.1714L409.959 84.2229Z" fill="white"/>
<path d="M429.229 78.0481L430.634 82.5626L413.327 87.9237L411.953 83.5844L429.229 78.0481Z" fill="white"/>
<path d="M443.308 78.6259L432.65 81.9304L432.639 81.932L431.209 77.4093L441.789 74.0181L443.308 78.6259Z" fill="white"/>
</g>
<path d="M380.904 206.723C380.99 206.703 381.058 206.631 381.069 206.543C381.082 206.454 381.038 206.368 380.959 206.323C380.823 206.25 377.606 204.516 376.103 204.963C375.795 205.054 375.569 205.23 375.433 205.482C375.189 205.932 375.3 206.243 375.438 206.423C375.827 206.938 376.957 207.072 378.123 207.044C379.211 207.019 380.327 206.852 380.904 206.723ZM380.198 206.422C378.515 206.7 376.219 206.741 375.782 206.165C375.724 206.089 375.667 205.958 375.813 205.688C375.895 205.537 376.029 205.436 376.227 205.377C376.351 205.341 376.491 205.321 376.641 205.318C377.702 205.292 379.345 206.009 380.198 206.422Z" fill="#39D24E"/>
<path d="M380.988 206.686C381.049 206.64 381.081 206.564 381.072 206.489C381.058 206.386 380.755 203.944 379.578 203.022C379.218 202.741 378.817 202.626 378.376 202.682C377.787 202.756 377.623 203.06 377.589 203.303C377.446 204.334 379.665 206.247 380.773 206.713C380.801 206.725 380.832 206.731 380.862 206.73C380.906 206.728 380.95 206.713 380.988 206.686ZM379.313 203.361C380.087 203.966 380.444 205.423 380.579 206.134C379.444 205.489 377.932 203.979 378.018 203.36C378.024 203.309 378.045 203.157 378.432 203.108C378.474 203.103 378.519 203.099 378.561 203.098C378.831 203.093 379.08 203.178 379.313 203.361Z" fill="#39D24E"/>
<path d="M381.797 205.439L391.717 205.205C392.088 205.197 392.416 205.446 392.504 205.808L394.49 213.84C394.697 214.672 394.079 215.48 393.221 215.487C389.642 215.512 384.466 215.423 379.968 215.53C374.708 215.654 370.172 216.049 364.005 216.194C360.277 216.283 359.152 212.536 360.704 212.158C367.775 210.435 373.573 210.131 379.624 206.199C380.284 205.772 381.014 205.457 381.797 205.439Z" fill="#263238"/>
<path opacity="0.7" d="M441.191 73.2178L389.381 89.7236C389.381 89.7236 380.244 80.7666 367.586 70.827C365.179 68.9439 362.657 67.0281 360.037 65.1286C356.353 62.4431 352.489 59.8068 348.559 57.3669C348.559 57.3669 362.837 23.8477 380.915 20.8674C380.915 20.8674 427.633 34.9662 441.191 73.2178Z" fill="white"/>
<path opacity="0.1" d="M367.586 70.827C365.179 68.9438 362.657 67.028 360.037 65.1285L361.052 62.0664C361.052 62.0664 365.408 65.7344 367.586 70.827Z" fill="black"/>
<path d="M292.724 105.017L289.153 105.869C288.262 106.082 287.586 106.809 287.44 107.713L286.633 112.686C286.463 113.735 287.044 114.762 288.031 115.157L290.642 116.198C290.642 116.198 298.177 121.635 304.549 118.124L301.796 110.835L296.409 105.961C295.412 105.058 294.033 104.706 292.724 105.017Z" fill="#E9A161"/>
<path d="M357.75 58.688C362.328 61.4357 362.728 67.1014 362.728 67.1014C362.728 67.1014 359.13 76.8624 357.042 81.7192C355.624 85.0154 354.152 88.3231 352.439 91.6128C350.669 94.9304 348.968 98.1824 346.078 101.775L345.515 102.455L344.843 103.177C344.439 103.632 343.839 104.174 343.256 104.677C343.009 104.909 342.556 105.227 342.174 105.494C341.802 105.749 341.285 106.093 341.134 106.15L339.749 106.869C337.946 107.778 336.258 108.487 334.563 109.185C331.198 110.563 327.867 111.762 324.527 112.91C317.826 115.152 311.16 117.2 304.317 118.924L301.068 110.167C307.207 107.022 313.464 104.043 319.572 100.973C322.631 99.4564 325.676 97.9303 328.601 96.391C330.042 95.6132 331.478 94.8174 332.718 94.0641L333.599 93.5074C333.836 93.3715 333.654 93.4354 333.638 93.4452C333.602 93.4501 333.525 93.5451 333.579 93.4648C333.63 93.3764 333.684 93.3486 333.833 93.1341L334.029 92.8885L334.265 92.5429C335.59 90.6173 337.091 87.6714 338.387 84.7829C339.685 81.8272 340.984 78.7783 342.179 75.6523C344.557 69.4266 346.841 62.934 348.97 56.6444C348.966 56.646 352.891 55.7733 357.75 58.688Z" fill="#39D24E"/>
<path opacity="0.7" d="M357.75 58.688C362.328 61.4357 362.728 67.1014 362.728 67.1014C362.728 67.1014 359.13 76.8624 357.042 81.7192C355.624 85.0154 354.152 88.3231 352.439 91.6128C350.669 94.9304 348.968 98.1824 346.078 101.775L345.515 102.455L344.843 103.177C344.439 103.632 343.839 104.174 343.256 104.677C343.009 104.909 342.556 105.227 342.174 105.494C341.802 105.749 341.285 106.093 341.134 106.15L339.749 106.869C337.946 107.778 336.258 108.487 334.563 109.185C331.198 110.563 327.867 111.762 324.527 112.91C317.826 115.152 311.16 117.2 304.317 118.924L301.068 110.167C307.207 107.022 313.464 104.043 319.572 100.973C322.631 99.4564 325.676 97.9303 328.601 96.391C330.042 95.6132 331.478 94.8174 332.718 94.0641L333.599 93.5074C333.836 93.3715 333.654 93.4354 333.638 93.4452C333.602 93.4501 333.525 93.5451 333.579 93.4648C333.63 93.3764 333.684 93.3486 333.833 93.1341L334.029 92.8885L334.265 92.5429C335.59 90.6173 337.091 87.6714 338.387 84.7829C339.685 81.8272 340.984 78.7783 342.179 75.6523C344.557 69.4266 346.841 62.934 348.97 56.6444C348.966 56.646 352.891 55.7733 357.75 58.688Z" fill="white"/>
<path d="M58.2852 493.198H334.828L481.182 374.976L487.599 382.921H523.646L560.369 213.882L524.306 213.954L524.323 213.882L351.339 214.226L371.991 239.791L58.2852 493.198Z" fill="#39D24E"/>
<path opacity="0.2" d="M58.2852 493.198H298.782L466.949 357.357L487.599 382.921L524.323 213.882L351.339 214.226L371.991 239.791L58.2852 493.198Z" fill="white"/>
<path d="M52.6547 483.442H251.214C251.121 482.602 251.065 481.749 251.065 480.884C251.065 468.134 261.401 457.8 274.149 457.8C274.432 457.8 274.707 457.833 274.989 457.843C277.882 450.08 285.339 444.54 294.11 444.54C305.389 444.54 314.532 453.684 314.532 464.963C314.532 464.979 314.531 464.994 314.531 465.009C324.531 465.475 332.543 473.455 333.064 483.442H333.992C339.637 483.442 344.256 488.059 344.256 493.705C344.256 499.35 339.638 503.968 333.992 503.968H52.6547C47.0103 503.968 42.3926 499.35 42.3926 493.705C42.3926 488.059 47.0103 483.442 52.6547 483.442Z" fill="#39D24E"/>
<path opacity="0.7" d="M52.6547 483.442H251.214C251.121 482.602 251.065 481.749 251.065 480.884C251.065 468.134 261.401 457.8 274.149 457.8C274.432 457.8 274.707 457.833 274.989 457.843C277.882 450.08 285.339 444.54 294.11 444.54C305.389 444.54 314.532 453.684 314.532 464.963C314.532 464.979 314.531 464.994 314.531 465.009C324.531 465.475 332.543 473.455 333.064 483.442H333.992C339.637 483.442 344.256 488.059 344.256 493.705C344.256 499.35 339.638 503.968 333.992 503.968H52.6547C47.0103 503.968 42.3926 499.35 42.3926 493.705C42.3926 488.059 47.0103 483.442 52.6547 483.442Z" fill="white"/>
</svg>
