<svg width="154" height="209" viewBox="0 0 154 209" fill="none" xmlns="http://www.w3.org/2000/svg">
<g clip-path="url(#clip0_213_1516)">
<path d="M129.465 312.552L23.0702 312.043C10.2713 311.983 -0.0559834 301.594 0.000228388 288.838L1.12363 23.0086C1.17984 10.2451 11.6071 -0.0557962 24.4127 0.000227442C24.4234 0.000227442 24.4342 0.000227442 24.4449 0.000227442L130.808 0.46242C143.604 0.522563 153.931 10.9059 153.878 23.6587L152.755 289.52C152.72 302.274 142.318 312.586 129.521 312.552C129.502 312.552 129.483 312.552 129.465 312.552Z" fill="#25314E"/>
<path d="M129.913 9.66924L109.317 9.57532L49.0621 9.29355H41.8125L23.7462 9.21529C14.7837 9.17162 7.48275 16.3781 7.43894 25.3105C7.43894 25.313 7.43894 25.3163 7.43894 25.3188L6.33951 284.823C6.30066 293.755 13.5346 301.028 22.4971 301.067L128.688 301.552C137.65 301.583 144.941 294.366 144.971 285.433C144.971 285.431 144.971 285.427 144.971 285.425L146.071 25.921C146.114 16.9886 138.884 9.71209 129.921 9.66842C129.918 9.66924 129.915 9.66924 129.913 9.66924Z" fill="#FAFAFA"/>
<path d="M130.871 33.7586C130.871 34.4894 130.277 35.0817 129.543 35.0817C128.81 35.0817 128.216 34.4894 128.216 33.7586C128.216 33.0278 128.81 32.4354 129.543 32.4354C129.546 32.4354 129.548 32.4354 129.551 32.4354C130.282 32.4404 130.871 33.0311 130.871 33.7586Z" fill="#25314E"/>
<path d="M130.855 38.5502C130.851 39.281 130.252 39.8701 129.52 39.8651C128.787 39.861 128.196 39.2645 128.201 38.5346C128.205 37.8071 128.798 37.2197 129.528 37.2197C130.262 37.2238 130.855 37.8178 130.855 38.5502Z" fill="#25314E"/>
<path d="M130.839 43.2867C130.843 44.0216 130.249 44.6214 129.512 44.6255C128.774 44.6296 128.173 44.0373 128.168 43.3024C128.164 42.5675 128.759 41.9677 129.496 41.9636C129.501 41.9636 129.507 41.9636 129.512 41.9636C130.243 41.9677 130.835 42.5576 130.839 43.2867Z" fill="#25314E"/>
<path d="M24.2627 69.9326H130.651C132.516 69.9326 134.027 71.4394 134.027 73.2973V138.106C134.027 139.965 132.515 141.471 130.651 141.471H24.2627C22.3978 141.471 20.8867 139.964 20.8867 138.106V73.2973C20.8867 71.4394 22.3987 69.9326 24.2627 69.9326Z" fill="#39D24E"/>
<path d="M39.5185 86.2717C39.5185 87.187 38.7886 87.7192 37.3907 87.7192H34.6504V82.4217H37.2411C38.5678 82.4217 39.2515 82.977 39.2515 83.7992C39.2614 84.2911 38.9861 84.745 38.5447 84.965C39.1374 85.1191 39.5416 85.662 39.5185 86.2717ZM35.8672 83.3453V84.5976H37.0923C37.6891 84.5976 38.019 84.3858 38.019 83.9714C38.019 83.557 37.6891 83.3453 37.0923 83.3453H35.8672ZM38.286 86.1464C38.286 85.7007 37.9404 85.489 37.3047 85.489H35.868V86.7957H37.3047C37.9404 86.7957 38.286 86.6004 38.286 86.1464Z" fill="white"/>
<path d="M43.9468 86.5847H41.4817L41.0105 87.7192H39.7466L42.1025 82.4217H43.3193L45.6745 87.7192H44.3865L43.9468 86.5847ZM43.5624 85.6538L42.7142 83.627L41.8744 85.6538H43.5624Z" fill="white"/>
<path d="M51.1314 82.4217V87.7192H50.1188L47.4727 84.5028V87.7192H46.2559V82.4217H47.2768L49.9146 85.6381V82.4217H51.1314Z" fill="white"/>
<path d="M54.3191 85.6381L53.6048 86.4207V87.7587H52.4194V82.4612H53.6445V84.9336L55.9996 82.4612H57.3661L55.1672 84.8084L57.5223 87.7431H56.0856L54.3191 85.6381Z" fill="white"/>
<path d="M38.522 108.284H37.5482V109.559H37.0456V108.284H34.2979V107.924L36.8811 104.7H37.4383L34.9492 107.83H37.0613V106.711H37.5482V107.83H38.522V108.284Z" fill="white"/>
<path d="M42.1018 108.167C42.1018 108.95 41.5132 109.607 40.3353 109.607C39.6905 109.629 39.0614 109.405 38.5762 108.981L38.8275 108.582C39.2358 108.961 39.7773 109.164 40.3353 109.146C41.1206 109.146 41.5918 108.77 41.5918 108.168C41.5918 107.566 41.176 107.205 40.2724 107.205H39.9269V106.838L41.2777 105.147H38.7812V104.702H41.9216V105.062L40.5477 106.791C41.5835 106.883 42.1018 107.392 42.1018 108.167Z" fill="white"/>
<path d="M46.0433 108.136C46.0433 108.957 45.4704 109.607 44.2767 109.607C43.6344 109.628 43.0086 109.404 42.5259 108.981L42.7772 108.582C43.1789 108.96 43.7162 109.164 44.2693 109.146C45.1017 109.146 45.5415 108.747 45.5415 108.152C45.5415 107.557 45.1488 107.143 43.908 107.143H42.8714L43.1227 104.702H45.792V105.147H43.5617L43.3889 106.713H44.0171C45.4861 106.696 46.0433 107.275 46.0433 108.136Z" fill="white"/>
<path d="M50.3464 108.112C50.3373 108.951 49.647 109.622 48.8063 109.613C48.765 109.612 48.7237 109.61 48.6823 109.606C47.387 109.606 46.6802 108.707 46.6802 107.173C46.6802 105.522 47.5829 104.661 48.9096 104.661C49.3114 104.643 49.7107 104.736 50.0636 104.927L49.8595 105.325C49.5743 105.16 49.2469 105.082 48.9171 105.099C47.8648 105.099 47.1894 105.772 47.1894 107.094C47.1894 107.204 47.1894 107.337 47.1894 107.486C47.4787 106.94 48.0632 106.616 48.6815 106.656C49.4899 106.552 50.2298 107.122 50.334 107.927C50.3422 107.989 50.3464 108.051 50.3464 108.112ZM49.852 108.112C49.852 107.47 49.3734 107.063 48.6269 107.063C48.0061 106.993 47.4465 107.437 47.3762 108.056C47.3737 108.077 47.3721 108.098 47.3704 108.119C47.3704 108.659 47.8176 109.168 48.6583 109.168C49.2436 109.237 49.7751 108.82 49.8446 108.236C49.8487 108.2 49.8512 108.164 49.852 108.127V108.112Z" fill="white"/>
<path d="M60.875 109.559L59.7127 108.034L58.543 109.559H57.9858L59.4383 107.689L58.0561 105.913H58.6133L59.7127 107.337L60.8121 105.913H61.3619L59.9797 107.666L61.4404 109.536L60.875 109.559Z" fill="white"/>
<path d="M64.5968 109.559L63.4114 108.034L62.2417 109.559H61.6846L63.137 107.689L61.7548 105.913H62.312L63.4114 107.337L64.5109 105.913H65.0523L63.7016 107.666L65.1623 109.536L64.5968 109.559Z" fill="white"/>
<path d="M68.3178 109.559L67.1556 108.034L65.9859 109.559H65.4287L66.8737 107.689L65.4915 105.913H66.0487L67.1556 107.337L68.255 105.913H68.7965L67.4143 107.666L68.8824 109.536L68.3178 109.559Z" fill="white"/>
<path d="M72.0484 109.559L70.8861 108.034L69.6924 109.559H69.1353L70.5877 107.689L69.2055 105.913H69.7627L70.8621 107.337L71.9616 105.913H72.5113L71.1374 107.666L72.5981 109.536L72.0484 109.559Z" fill="white"/>
<path d="M84.8774 109.559L83.7152 108.034L82.5454 109.559H81.9883L83.4333 107.665L82.0594 105.889H82.6165L83.716 107.313L84.8154 105.889H85.3966L83.9756 107.665L85.4437 109.535L84.8774 109.559Z" fill="white"/>
<path d="M88.5908 109.559L87.4285 108.034L86.2588 109.559H85.7017L87.1541 107.689L85.7719 105.913H86.3291L87.4285 107.337L88.528 105.913H89.0777L87.6955 107.666L89.1562 109.536L88.5908 109.559Z" fill="white"/>
<path d="M92.3125 109.559L91.1502 108.034L89.9805 109.559H89.4233L90.8915 107.665L89.5093 105.889H90.0665L91.1659 107.313L92.2653 105.889H92.8068L91.4172 107.665L92.8779 109.535L92.3125 109.559Z" fill="white"/>
<path d="M96.0341 109.559L94.8719 108.034L93.7022 109.559H93.145L94.59 107.689L93.2475 105.913H93.8047L94.9116 107.337L96.011 105.913H96.5525L95.1315 107.666L96.5996 109.536L96.0341 109.559Z" fill="white"/>
<path d="M107.568 104.7V109.559H107.066V105.146H105.912V104.7H107.568Z" fill="white"/>
<path d="M111.949 108.167C111.949 108.95 111.361 109.607 110.183 109.607C109.538 109.629 108.909 109.405 108.424 108.981L108.675 108.582C109.083 108.963 109.625 109.165 110.183 109.146C110.968 109.146 111.439 108.77 111.439 108.168C111.439 107.566 111.024 107.205 110.12 107.205H109.775V106.838L111.125 105.147H108.629V104.702H111.769V105.062L110.395 106.791C111.431 106.883 111.949 107.392 111.949 108.167Z" fill="white"/>
<path d="M116.802 108.284H115.821V109.559H115.326V108.284H112.57V107.924L115.154 104.7H115.711L113.222 107.83H115.334V106.711H115.821V107.83H116.802V108.284Z" fill="white"/>
<path d="M120.563 109.121V109.559H117.14V109.231L119.165 107.251C119.715 106.711 119.825 106.382 119.825 106.054C119.825 105.49 119.425 105.146 118.678 105.146C118.176 105.112 117.686 105.311 117.351 105.685L116.99 105.381C117.434 104.904 118.067 104.65 118.718 104.684C119.707 104.684 120.336 105.185 120.336 105.999C120.317 106.598 120.028 107.155 119.55 107.518L117.894 109.146L120.563 109.121Z" fill="white"/>
<path d="M31.793 119.647C31.7872 118.99 32.3171 118.453 32.9768 118.447C33.004 118.447 33.0305 118.448 33.0578 118.45C33.4199 118.437 33.7679 118.586 34.0076 118.857L33.662 119.177C33.5207 119.003 33.3066 118.901 33.0809 118.903C32.6693 118.902 32.3345 119.234 32.3336 119.644C32.3328 120.055 32.666 120.388 33.0776 120.39C33.0776 120.39 33.0801 120.39 33.0817 120.39C33.3074 120.392 33.5215 120.291 33.6629 120.116L34.0084 120.429C33.772 120.709 33.4174 120.863 33.0503 120.843C32.3923 120.878 31.8302 120.374 31.7955 119.718C31.793 119.695 31.793 119.671 31.793 119.647Z" fill="white"/>
<path d="M35.8602 120.312H34.7848L34.5732 120.804H34.0234L35.06 118.457H35.5941L36.6307 120.804H36.0735L35.8602 120.312ZM35.6949 119.905L35.3262 119.013L34.9575 119.905H35.6949Z" fill="white"/>
<path d="M38.3647 120.804L37.9092 120.163H37.4149V120.804H36.8809V118.456H37.886C38.506 118.456 38.8987 118.777 38.8987 119.293C38.9045 119.613 38.7152 119.905 38.4201 120.029L38.9384 120.772L38.3647 120.804ZM37.8538 118.927H37.414V119.71H37.8538C38.1837 119.71 38.3481 119.561 38.3481 119.303C38.349 119.044 38.1837 118.927 37.8538 118.927Z" fill="white"/>
<path d="M39.1416 120.578L39.3218 120.171C39.5516 120.332 39.8261 120.417 40.1071 120.414C40.4295 120.414 40.5543 120.312 40.5543 120.171C40.5543 119.733 39.2036 120.03 39.2036 119.169C39.2036 118.778 39.5252 118.449 40.1848 118.449C40.4601 118.447 40.7304 118.517 40.9701 118.653L40.8056 119.059C40.6089 118.948 40.3882 118.886 40.1617 118.879C39.8401 118.879 39.7145 118.997 39.7145 119.145C39.7145 119.568 41.0726 119.278 41.0726 120.123C41.0726 120.514 40.7428 120.843 40.0831 120.843C39.75 120.851 39.4227 120.758 39.1416 120.578Z" fill="white"/>
<path d="M44.5669 118.489V120.837H44.0254V119.89H42.9656V120.837H42.4316V118.489H42.9656V119.404H44.0254V118.489H44.5669Z" fill="white"/>
<path d="M44.9366 119.647C44.8977 118.947 45.4342 118.349 46.136 118.311C46.837 118.272 47.438 118.807 47.4768 119.506C47.5157 120.205 46.9792 120.804 46.2774 120.842C46.2542 120.844 46.2319 120.844 46.2088 120.844C45.5466 120.883 44.9779 120.379 44.939 119.719C44.9374 119.695 44.9366 119.671 44.9366 119.647ZM46.9387 119.647C46.9296 119.245 46.5965 118.926 46.1931 118.935C45.7897 118.943 45.4697 119.276 45.4788 119.678C45.4871 120.074 45.8111 120.39 46.2088 120.39C46.6031 120.39 46.9238 120.072 46.9238 119.679C46.9238 119.668 46.9238 119.658 46.923 119.647H46.9387Z" fill="white"/>
<path d="M47.8887 118.489H48.4301V120.367H49.5924V120.805H47.8887V118.489Z" fill="white"/>
<path d="M49.8989 118.489H50.9587C51.6093 118.489 52.1367 119.014 52.1367 119.663C52.1367 120.311 51.6093 120.837 50.9587 120.837H49.8989V118.489ZM50.9347 120.366C51.334 120.367 51.658 120.046 51.6589 119.648C51.6597 119.25 51.3365 118.927 50.938 118.926C50.9372 118.926 50.9364 118.926 50.9347 118.926H50.4404V120.366H50.9347Z" fill="white"/>
<path d="M54.4523 120.374V120.804H52.6543V118.457H54.4051V118.887H53.204V119.404H54.2795V119.826H53.204V120.359L54.4523 120.374Z" fill="white"/>
<path d="M56.3442 120.804L55.8887 120.163H55.3944V120.804H54.8604V118.456H55.8655C56.4855 118.456 56.8782 118.777 56.8782 119.293C56.884 119.613 56.6947 119.905 56.3996 120.029L56.9179 120.772L56.3442 120.804ZM55.8341 118.927H55.3944V119.71H55.8341C56.164 119.71 56.3285 119.561 56.3285 119.303C56.3285 119.045 56.1871 118.927 55.8573 118.927H55.8341Z" fill="white"/>
<path d="M32.507 126.572H64.518C65.2074 126.572 65.7662 127.129 65.7662 127.816V128.301C65.7662 128.988 65.2074 129.545 64.518 129.545H32.507C31.8176 129.545 31.2588 128.988 31.2588 128.301V127.816C31.2588 127.129 31.8176 126.572 32.507 126.572Z" fill="white"/>
<path d="M104.883 126.572H121.56C122.249 126.572 122.808 127.129 122.808 127.816V128.301C122.808 128.988 122.249 129.545 121.56 129.545H104.883C104.194 129.545 103.635 128.988 103.635 128.301V127.816C103.635 127.129 104.194 126.572 104.883 126.572Z" fill="white"/>
<g opacity="0.2">
<path d="M130.282 69.9326H24.6397C22.5698 69.9326 20.8909 71.6026 20.8867 73.6655V92.5554C27.5602 97.1955 36.731 98.0333 44.8652 96.3197C54.4518 94.3243 63.1357 89.4337 72.0626 85.4272C80.9896 81.4207 90.8126 78.2125 100.462 79.8636C109.577 81.4289 117.343 87.0708 125.587 91.257C128.29 92.6493 131.119 93.7863 134.035 94.653V73.6655C134.031 71.6026 132.352 69.9326 130.282 69.9326Z" fill="white"/>
</g>
<path d="M109.186 79.847H114.714C116.08 79.847 117.187 80.9502 117.187 82.3121V87.8214C117.187 89.1824 116.08 90.2864 114.714 90.2864H109.186C107.821 90.2864 106.713 89.1824 106.713 87.8214V82.3121C106.713 80.951 107.82 79.847 109.186 79.847Z" fill="white"/>
<path d="M29.7395 176.002C29.7395 177.612 28.4301 178.917 26.8148 178.917C25.1995 178.917 23.8901 177.612 23.8901 176.002C23.8901 174.392 25.1995 173.087 26.8148 173.087C28.4301 173.087 29.7395 174.392 29.7395 176.002Z" fill="#455A64"/>
<path d="M96.3485 177.888H38.0742C37.0285 177.888 36.1812 177.044 36.1812 176.002C36.1812 174.96 37.0285 174.115 38.0742 174.115H96.3485C97.3933 174.115 98.2415 174.96 98.2415 176.002C98.2415 177.044 97.3942 177.888 96.3485 177.888Z" fill="#E0E0E0"/>
<path d="M26.8143 192.932C28.4296 192.932 29.739 191.627 29.739 190.018C29.739 188.408 28.4296 187.103 26.8143 187.103C25.1991 187.103 23.8896 188.408 23.8896 190.018C23.8896 191.627 25.1991 192.932 26.8143 192.932Z" fill="#455A64"/>
<path d="M60.4473 191.904H38.0742C37.0285 191.904 36.1812 191.06 36.1812 190.018C36.1812 188.975 37.0285 188.131 38.0742 188.131H60.4473C61.493 188.131 62.3403 188.975 62.3403 190.018C62.3403 191.06 61.4922 191.904 60.4473 191.904Z" fill="#E0E0E0"/>
<path d="M109.631 177.352C110.322 177.352 111.012 177.352 111.702 177.352C111.973 177.352 112.231 177.116 112.219 176.837C112.207 176.558 111.992 176.322 111.702 176.322C111.012 176.322 110.321 176.322 109.631 176.322C109.361 176.322 109.102 176.559 109.114 176.837C109.127 177.116 109.342 177.352 109.631 177.352Z" fill="#E0E0E0"/>
<path d="M119.677 178.421C119.341 178.725 118.847 178.894 118.197 178.928V179.909H117.769V178.936C117.353 178.913 116.961 178.833 116.593 178.693C116.225 178.554 115.935 178.376 115.724 178.159L115.972 177.673C116.172 177.867 116.433 178.029 116.755 178.159C117.077 178.29 117.415 178.367 117.769 178.389V176.148C117.375 176.05 117.048 175.947 116.786 175.836C116.523 175.725 116.305 175.563 116.131 175.35C115.957 175.137 115.87 174.854 115.87 174.501C115.87 174.065 116.03 173.696 116.35 173.397C116.669 173.099 117.142 172.925 117.77 172.873V171.893H118.197V172.865C118.522 172.877 118.837 172.929 119.142 173.023C119.447 173.116 119.712 173.24 119.934 173.393L119.72 173.896C119.486 173.748 119.238 173.632 118.976 173.547C118.714 173.462 118.454 173.413 118.197 173.401V175.661C118.62 175.763 118.965 175.867 119.233 175.971C119.501 176.077 119.727 176.237 119.909 176.453C120.091 176.67 120.182 176.953 120.182 177.306C120.182 177.746 120.014 178.117 119.677 178.421ZM116.824 175.16C117.044 175.314 117.358 175.445 117.77 175.553V173.421C117.348 173.455 117.03 173.57 116.816 173.767C116.602 173.963 116.495 174.202 116.495 174.487C116.495 174.782 116.605 175.006 116.824 175.16ZM119.215 178.058C119.443 177.87 119.557 177.631 119.557 177.342C119.557 177.036 119.44 176.805 119.207 176.652C118.973 176.498 118.636 176.368 118.197 176.259V178.39C118.647 178.356 118.987 178.246 119.215 178.058Z" fill="#E0E0E0"/>
<path d="M124.939 178.421C124.603 178.725 124.109 178.894 123.459 178.928V179.909H123.031V178.936C122.615 178.913 122.222 178.833 121.855 178.693C121.487 178.554 121.197 178.376 120.986 178.159L121.234 177.673C121.434 177.867 121.696 178.029 122.017 178.159C122.34 178.29 122.677 178.367 123.031 178.389V176.148C122.637 176.05 122.31 175.947 122.048 175.836C121.786 175.725 121.567 175.563 121.393 175.35C121.219 175.137 121.133 174.854 121.133 174.501C121.133 174.065 121.292 173.696 121.612 173.397C121.931 173.099 122.404 172.925 123.032 172.873V171.893H123.46V172.865C123.785 172.877 124.099 172.929 124.405 173.023C124.71 173.116 124.975 173.24 125.197 173.393L124.983 173.896C124.749 173.748 124.501 173.632 124.239 173.547C123.977 173.462 123.717 173.413 123.46 173.401V175.661C123.883 175.763 124.228 175.867 124.496 175.971C124.764 176.077 124.99 176.237 125.172 176.453C125.354 176.67 125.445 176.953 125.445 177.306C125.444 177.746 125.275 178.117 124.939 178.421ZM122.086 175.16C122.306 175.314 122.621 175.445 123.031 175.553V173.421C122.609 173.455 122.291 173.57 122.077 173.767C121.863 173.963 121.757 174.202 121.757 174.487C121.757 174.782 121.867 175.006 122.086 175.16ZM124.476 178.058C124.705 177.87 124.819 177.631 124.819 177.342C124.819 177.036 124.701 176.805 124.468 176.652C124.234 176.498 123.898 176.368 123.458 176.259V178.39C123.909 178.356 124.249 178.246 124.476 178.058Z" fill="#E0E0E0"/>
<path d="M29.7395 203.253C29.7395 204.863 28.4301 206.168 26.8148 206.168C25.1995 206.168 23.8901 204.863 23.8901 203.253C23.8901 201.643 25.1995 200.338 26.8148 200.338C28.4301 200.337 29.7395 201.643 29.7395 203.253Z" fill="#39D24E"/>
<path d="M96.3485 205.139H38.0742C37.0285 205.139 36.1812 204.295 36.1812 203.252C36.1812 202.211 37.0285 201.366 38.0742 201.366H96.3485C97.3933 201.366 98.2415 202.21 98.2415 203.252C98.2415 204.295 97.3942 205.139 96.3485 205.139Z" fill="#E0E0E0"/>
<path d="M108.446 204.095C109.137 204.095 109.828 204.095 110.518 204.095C110.788 204.095 111.047 203.858 111.034 203.58C111.022 203.301 110.807 203.065 110.518 203.065C109.827 203.065 109.137 203.065 108.446 203.065C108.176 203.065 107.917 203.303 107.93 203.58C107.942 203.86 108.157 204.095 108.446 204.095Z" fill="#E0E0E0"/>
<path d="M109.999 204.613C109.999 203.925 109.999 203.237 109.999 202.549C109.999 202.279 109.761 202.021 109.482 202.034C109.202 202.046 108.965 202.26 108.965 202.549C108.965 203.237 108.965 203.925 108.965 204.613C108.965 204.883 109.203 205.141 109.482 205.128C109.762 205.115 109.999 204.902 109.999 204.613Z" fill="#E0E0E0"/>
<path d="M118.493 205.164C118.156 205.468 117.663 205.637 117.012 205.671V206.652H116.585V205.679C116.168 205.656 115.776 205.576 115.408 205.436C115.04 205.297 114.75 205.119 114.54 204.903L114.788 204.417C114.988 204.611 115.249 204.773 115.57 204.903C115.893 205.034 116.23 205.111 116.585 205.133V202.891C116.19 202.794 115.863 202.691 115.601 202.58C115.339 202.469 115.121 202.307 114.946 202.094C114.773 201.881 114.686 201.598 114.686 201.245C114.686 200.809 114.845 200.44 115.165 200.141C115.484 199.843 115.957 199.668 116.586 199.617V198.637H117.013V199.609C117.338 199.621 117.653 199.673 117.958 199.766C118.263 199.86 118.527 199.984 118.75 200.137L118.536 200.64C118.302 200.492 118.054 200.376 117.792 200.29C117.53 200.206 117.269 200.157 117.013 200.145V202.405C117.435 202.507 117.78 202.611 118.049 202.715C118.316 202.821 118.542 202.981 118.724 203.197C118.907 203.414 118.998 203.697 118.998 204.05C118.997 204.49 118.828 204.861 118.493 205.164ZM115.64 201.904C115.86 202.057 116.174 202.189 116.586 202.297V200.165C116.163 200.199 115.845 200.314 115.632 200.51C115.418 200.707 115.311 200.946 115.311 201.231C115.31 201.525 115.42 201.75 115.64 201.904ZM118.03 204.802C118.258 204.614 118.372 204.376 118.372 204.086C118.372 203.78 118.254 203.549 118.021 203.396C117.787 203.242 117.451 203.111 117.011 203.003V205.134C117.463 205.1 117.802 204.99 118.03 204.802Z" fill="#E0E0E0"/>
<path d="M123.753 205.164C123.417 205.468 122.923 205.637 122.273 205.671V206.652H121.845V205.679C121.429 205.656 121.037 205.576 120.669 205.436C120.301 205.297 120.011 205.119 119.8 204.903L120.048 204.417C120.248 204.611 120.51 204.773 120.831 204.903C121.154 205.034 121.491 205.111 121.845 205.133V202.891C121.451 202.794 121.124 202.691 120.862 202.58C120.6 202.469 120.381 202.307 120.207 202.094C120.033 201.881 119.947 201.598 119.947 201.245C119.947 200.809 120.106 200.44 120.426 200.141C120.745 199.843 121.218 199.668 121.846 199.617V198.637H122.274V199.609C122.599 199.621 122.913 199.673 123.219 199.766C123.524 199.86 123.788 199.984 124.011 200.137L123.797 200.64C123.563 200.492 123.315 200.376 123.053 200.29C122.791 200.206 122.531 200.157 122.274 200.145V202.405C122.697 202.507 123.042 202.611 123.31 202.715C123.578 202.821 123.804 202.981 123.986 203.197C124.168 203.414 124.259 203.697 124.259 204.05C124.258 204.49 124.089 204.861 123.753 205.164ZM120.901 201.904C121.12 202.057 121.435 202.189 121.845 202.297V200.165C121.423 200.199 121.105 200.314 120.891 200.51C120.678 200.707 120.571 200.946 120.571 201.231C120.571 201.525 120.681 201.75 120.901 201.904ZM123.29 204.802C123.519 204.614 123.633 204.376 123.633 204.086C123.633 203.78 123.515 203.549 123.282 203.396C123.048 203.242 122.712 203.111 122.272 203.003V205.134C122.723 205.1 123.063 204.99 123.29 204.802Z" fill="#E0E0E0"/>
<path d="M129.013 205.164C128.677 205.468 128.183 205.637 127.533 205.671V206.652H127.105V205.679C126.689 205.656 126.296 205.576 125.929 205.436C125.561 205.297 125.271 205.119 125.06 204.903L125.308 204.417C125.508 204.611 125.769 204.773 126.091 204.903C126.413 205.034 126.751 205.111 127.105 205.133V202.891C126.711 202.794 126.384 202.691 126.121 202.58C125.859 202.469 125.641 202.307 125.467 202.094C125.293 201.881 125.206 201.598 125.206 201.245C125.206 200.809 125.366 200.44 125.686 200.141C126.005 199.843 126.478 199.668 127.106 199.617V198.637H127.533V199.609C127.859 199.621 128.173 199.673 128.479 199.766C128.784 199.86 129.048 199.984 129.271 200.137L129.057 200.64C128.823 200.492 128.575 200.376 128.313 200.29C128.051 200.206 127.79 200.157 127.534 200.145V202.405C127.957 202.507 128.301 202.611 128.57 202.715C128.838 202.821 129.064 202.981 129.245 203.197C129.428 203.414 129.519 203.697 129.519 204.05C129.518 204.49 129.35 204.861 129.013 205.164ZM126.16 201.904C126.38 202.057 126.694 202.189 127.105 202.297V200.165C126.683 200.199 126.365 200.314 126.151 200.51C125.937 200.707 125.83 200.946 125.83 201.231C125.831 201.525 125.94 201.75 126.16 201.904ZM128.551 204.802C128.779 204.614 128.893 204.376 128.893 204.086C128.893 203.78 128.776 203.549 128.543 203.396C128.309 203.242 127.972 203.111 127.533 203.003V205.134C127.983 205.1 128.323 204.99 128.551 204.802Z" fill="#E0E0E0"/>
<path d="M109.631 190.057C110.322 190.057 111.012 190.057 111.702 190.057C111.973 190.057 112.231 189.82 112.219 189.542C112.207 189.263 111.992 189.027 111.702 189.027C111.012 189.027 110.321 189.027 109.631 189.027C109.361 189.027 109.102 189.264 109.114 189.542C109.127 189.821 109.342 190.057 109.631 190.057Z" fill="#E0E0E0"/>
<path d="M119.677 191.126C119.341 191.43 118.847 191.599 118.197 191.633V192.614H117.769V191.641C117.353 191.618 116.961 191.538 116.593 191.398C116.225 191.259 115.935 191.081 115.724 190.865L115.972 190.378C116.172 190.572 116.433 190.734 116.755 190.865C117.077 190.996 117.415 191.072 117.769 191.094V188.853C117.375 188.755 117.048 188.652 116.786 188.541C116.523 188.43 116.305 188.268 116.131 188.055C115.957 187.842 115.87 187.559 115.87 187.206C115.87 186.77 116.03 186.401 116.35 186.102C116.669 185.804 117.142 185.63 117.77 185.578V184.598H118.197V185.57C118.522 185.582 118.837 185.634 119.142 185.728C119.447 185.821 119.712 185.945 119.934 186.098L119.72 186.601C119.486 186.453 119.238 186.337 118.976 186.252C118.714 186.167 118.454 186.118 118.197 186.106V188.366C118.62 188.468 118.965 188.572 119.233 188.676C119.501 188.782 119.727 188.942 119.909 189.158C120.091 189.375 120.182 189.658 120.182 190.011C120.182 190.451 120.014 190.822 119.677 191.126ZM116.824 187.864C117.044 188.018 117.358 188.149 117.77 188.257V186.126C117.348 186.159 117.03 186.275 116.816 186.471C116.602 186.667 116.495 186.907 116.495 187.191C116.495 187.487 116.605 187.712 116.824 187.864ZM119.215 190.763C119.443 190.576 119.557 190.336 119.557 190.047C119.557 189.741 119.44 189.51 119.207 189.357C118.973 189.203 118.636 189.073 118.197 188.964V191.095C118.647 191.061 118.987 190.951 119.215 190.763Z" fill="#E0E0E0"/>
<path d="M82.4588 64.0023H22.8503C21.669 64.0023 20.7109 63.0483 20.7109 61.8701C20.7109 60.6928 21.6682 59.7379 22.8503 59.7379H82.4588C83.6401 59.7379 84.5982 60.6928 84.5982 61.8701C84.5973 63.0483 83.6401 64.0023 82.4588 64.0023Z" fill="#E0E0E0"/>
<path d="M109.807 41.7765H50.1989C49.0176 41.7765 48.0596 40.8225 48.0596 39.6443C48.0596 38.467 49.0168 37.5121 50.1989 37.5121H109.807C110.989 37.5121 111.947 38.467 111.947 39.6443C111.946 40.8225 110.989 41.7765 109.807 41.7765Z" fill="#E0E0E0"/>
<path d="M70.8329 157.365H24.9897C23.8919 157.365 23.0024 156.478 23.0024 155.384C23.0024 154.29 23.8919 153.404 24.9897 153.404H70.8329C71.9307 153.404 72.8202 154.29 72.8202 155.384C72.8194 156.477 71.9299 157.365 70.8329 157.365Z" fill="#39D24E"/>
<path d="M29.7506 49.9857C35.4231 49.9857 40.0216 45.4026 40.0216 39.749C40.0216 34.0954 35.4231 29.5123 29.7506 29.5123C24.078 29.5123 19.4795 34.0954 19.4795 39.749C19.4795 45.4026 24.078 49.9857 29.7506 49.9857Z" fill="#E0E0E0"/>
<path d="M29.7509 39.6443C31.0507 39.6443 32.1044 38.5942 32.1044 37.2988C32.1044 36.0033 31.0507 34.9532 29.7509 34.9532C28.4511 34.9532 27.3975 36.0033 27.3975 37.2988C27.3975 38.5942 28.4511 39.6443 29.7509 39.6443Z" fill="white"/>
<path d="M24.5049 44.5448H34.9975C34.9975 44.5448 34.1444 40.6075 29.6896 40.6075C25.6159 40.6083 24.5049 44.5448 24.5049 44.5448Z" fill="white"/>
</g>
<defs>
<clipPath id="clip0_213_1516">
<rect width="154" height="209" fill="white"/>
</clipPath>
</defs>
</svg>
