<svg width="227" height="240" viewBox="0 0 227 240" fill="none" xmlns="http://www.w3.org/2000/svg">
<path d="M135.24 94.8355C109.97 100.647 94.2209 125.878 100.033 151.149C105.845 176.419 131.076 192.168 156.346 186.356C181.616 180.544 197.365 155.313 191.553 130.043C185.741 104.772 160.51 89.0237 135.24 94.8355Z" fill="#3C4B6D"/>
<path opacity="0.1" fill-rule="evenodd" clip-rule="evenodd" d="M195.657 129.123C202.026 156.652 184.805 184.14 157.265 190.46C129.736 196.829 102.248 179.608 95.928 152.068C89.5595 124.539 106.732 97.062 134.32 90.731C161.849 84.3626 189.326 101.535 195.657 129.123ZM187.266 131.053C182.021 108.09 159.144 93.7921 136.24 99.074C113.287 104.367 98.989 127.244 104.271 150.149C109.553 173.053 132.431 187.351 155.335 182.069C178.25 176.835 192.548 153.958 187.266 131.053Z" fill="#3C4B6D"/>
<path fill-rule="evenodd" clip-rule="evenodd" d="M200.765 127.929C207.772 158.307 188.838 188.561 158.46 195.568C128.082 202.574 97.7788 183.651 90.8206 153.263C83.814 122.885 102.737 92.5816 133.115 85.5751C163.504 78.6168 193.759 97.5507 200.765 127.929ZM191.553 130.043C185.741 104.772 160.51 89.0236 135.24 94.8355C109.969 100.647 94.2208 125.878 100.033 151.149C105.845 176.419 131.076 192.168 156.346 186.356C181.616 180.544 197.365 155.313 191.553 130.043Z" fill="#25314E"/>
<path d="M133.938 157.855C132.347 156.183 131.381 153.002 134.674 151.859C137.399 150.893 140.724 152.38 143.554 153.014C145.87 153.543 148.283 153.527 150.794 152.964C153.498 152.359 155.523 151.212 156.869 149.524C158.183 147.844 158.602 145.942 158.127 143.817C157.636 141.628 156.646 140.227 155.157 139.614C153.628 138.976 151.27 139.014 148.083 139.728L146.007 140.193C140.792 141.361 136.59 141.169 133.403 139.618C130.177 138.042 128.102 135.193 127.179 131.073C126.278 127.049 126.914 123.627 129.089 120.807C131.224 117.963 134.706 116 139.535 114.918C141.498 114.478 143.57 114.369 145.749 114.591C150.301 114.991 157.711 116.831 157.515 121.388C157.205 128.608 147.961 121.297 145.094 120.722C143.405 120.424 141.53 120.506 139.469 120.967C137.087 121.501 135.296 122.561 134.097 124.148C132.937 125.76 132.576 127.548 133.016 129.512C133.441 131.411 134.488 132.614 136.157 133.119C137.857 133.617 141.2 133.375 146.187 132.394C151.527 131.333 155.652 131.559 158.56 133.071C161.468 134.583 163.405 137.496 164.371 141.81C165.294 145.93 164.681 149.533 162.532 152.617C160.383 155.702 157.023 157.756 152.451 158.78C151.003 159.104 149.341 159.307 147.466 159.389C143.607 159.594 138.054 160.838 134.739 158.487C134.424 158.287 134.157 158.077 133.938 157.855Z" fill="#25314E"/>
<path d="M153.388 169.98L153.292 170.001C151.746 170.347 150.118 169.191 149.707 167.356L137.054 110.859C136.643 109.024 137.611 107.235 139.157 106.889L139.253 106.868C140.798 106.522 142.437 107.726 142.848 109.561L155.502 166.058C155.913 167.893 154.933 169.634 153.388 169.98Z" fill="#25314E"/>
<path opacity="0.1" d="M57.7941 32.972C27.4161 39.9785 8.49311 70.2815 15.4888 100.611C22.4954 130.989 52.7609 149.971 83.1389 142.965C113.517 135.958 132.44 105.655 125.493 75.3148C118.486 44.9368 88.1722 25.9654 57.7941 32.972Z" fill="#3C4B6D"/>
<path d="M57.2902 39.7785C32.0199 45.5904 16.2712 70.8214 22.0831 96.0917C27.8949 121.362 53.126 137.111 78.3963 131.299C103.656 125.439 119.415 100.256 113.603 74.9856C107.792 49.7153 82.5605 33.9667 57.2902 39.7785Z" fill="#2DA53D"/>
<path opacity="0.1" fill-rule="evenodd" clip-rule="evenodd" d="M117.697 74.0181C124.076 101.595 106.904 129.072 79.3154 135.403C51.7864 141.772 24.2986 124.551 17.9785 97.011C11.61 69.482 28.8309 41.9942 56.3599 35.6258C83.8998 29.3056 111.377 46.4782 117.697 74.0181ZM109.365 75.9856C104.072 53.0331 81.1942 38.7351 58.29 44.017C35.3858 49.2989 21.0878 72.1767 26.3214 95.0917C31.6034 117.996 54.4811 132.294 77.3853 127.012C100.338 121.719 114.598 98.9007 109.365 75.9856Z" fill="#3C4B6D"/>
<path fill-rule="evenodd" clip-rule="evenodd" d="M122.815 72.8717C129.822 103.25 110.888 133.504 80.5102 140.511C50.1322 147.518 19.8291 128.595 12.8709 98.2057C5.86434 67.8277 24.7874 37.5246 55.1654 30.5181C85.5542 23.5599 115.857 42.4829 122.815 72.8717ZM113.603 74.9856C107.791 49.7153 82.5604 33.9667 57.2901 39.7785C32.0198 45.5904 16.2711 70.8214 22.083 96.0918C27.8949 121.362 53.1259 137.111 78.3962 131.299C103.656 125.439 119.415 100.256 113.603 74.9856Z" fill="#39D24E"/>
<path fill-rule="evenodd" clip-rule="evenodd" d="M90.3511 90.4875C90.8702 92.8053 90.7827 95.0562 90.0886 97.24C89.3623 99.4311 88.0935 101.389 86.2822 103.113C85.1854 104.102 83.9165 104.927 82.4756 105.588C81.0097 106.288 78.8603 106.956 76.0274 107.59L72.7546 108.374L71.7406 108.601C72.1765 110.396 72.6 112.212 73.011 114.047C73.3895 115.737 70.3474 116.418 69.9689 114.728C69.5651 112.925 69.1416 111.11 68.6985 109.282L66.7187 109.726C67.1618 111.553 67.5889 113.385 67.9999 115.22C68.3676 116.861 65.3846 117.58 64.9577 115.901C64.5468 114.066 64.1394 112.247 63.7357 110.444L55.5376 112.331C54.6362 112.533 53.9097 112.459 53.3581 112.109C52.7992 111.728 52.4189 111.086 52.217 110.185C51.9863 109.154 52.1013 108.385 52.562 107.876C53.0622 107.392 54.371 106.896 56.4884 106.388L57.7439 106.107L49.7857 71.4796L48.4819 71.7716C46.5254 72.2436 45.2106 72.3352 44.5374 72.0465C43.9036 71.7828 43.4714 71.1358 43.2406 70.1057C43.0066 69.2115 43.0769 68.4689 43.4516 67.8779C43.7942 67.2941 44.4 66.9049 45.2692 66.7102L53.2259 64.8775C52.8149 63.0425 52.3914 61.2273 51.9555 59.4318C51.577 57.7417 54.6083 57.0121 54.9868 58.7021C55.3978 60.5371 55.8212 62.3523 56.2572 64.1478L58.237 63.7044C57.801 61.9089 57.3776 60.0936 56.9666 58.2587C56.5881 56.5686 59.6302 55.8873 60.0087 57.5774C60.4125 59.3801 60.8199 61.199 61.2308 63.0339L63.2106 62.5905C68.6438 61.3398 73.0273 61.4399 76.361 62.8907C79.6947 64.3414 81.8122 67.0788 82.7134 71.1028C83.1998 73.1237 83.1779 74.988 82.6476 76.6956C82.1173 78.4033 81.1108 79.9472 79.6281 81.3273C82.6129 81.673 84.9832 82.5958 86.739 84.0957C88.4876 85.5634 89.6917 87.694 90.3511 90.4875ZM62.5228 68.5762C63.6076 73.269 64.6961 77.9779 65.7881 82.7028L67.0919 82.4108C70.7224 81.5639 73.277 80.3663 74.7558 78.8181C76.2668 77.2626 76.7358 75.2813 76.1629 72.8742C75.651 70.5885 74.4533 69.0143 72.5697 68.1515C70.7255 67.3137 68.3065 67.2301 65.3127 67.9006L62.5228 68.5762ZM57.56 69.7384C58.6126 74.4384 59.685 79.1509 60.777 83.8759L62.7568 83.4325C61.6648 78.7075 60.5763 73.9986 59.4915 69.3058L57.56 69.7384ZM67.5355 103.863C66.3281 98.6231 65.1207 93.3831 63.9133 88.143L61.9335 88.5864C63.1409 93.8265 64.3483 99.0666 65.5557 104.307L67.5355 103.863ZM83.7141 91.8726C83.0402 89.0147 81.6202 87.2029 79.4541 86.4372C77.288 85.6715 73.8425 85.8347 69.1175 86.9267L66.9446 87.4134C68.1592 92.6856 69.3702 97.9418 70.5776 103.182L72.3643 102.782C77.1858 101.668 80.4415 100.28 82.1312 98.6165C83.8137 96.9213 84.3413 94.6733 83.7141 91.8726Z" fill="#39D24E"/>
<path d="M31.935 159.098C33.2661 175.23 41.1052 189.854 53.9825 200.256C55.8313 201.718 57.825 203.148 59.8344 204.422C65.2128 207.832 71.0674 210.425 77.2211 212.089C82.9453 213.647 88.8452 214.405 94.8726 214.373L93.0934 225.674L92.5833 228.831L95.0596 226.755L114.591 210.261L115.866 209.164L114.399 208.276L92.3399 195.367L89.4655 193.627L90.6355 196.813L94.0107 205.996C83.3994 205.939 73.1483 202.961 64.2937 197.388C62.5206 196.264 60.8225 195.022 59.2101 193.71C48.1333 184.781 41.4194 172.238 40.2478 158.403L40.1331 157.211L38.9792 157.267L33.0117 157.792L32.5072 157.804L32.1966 158.228L31.8751 158.605L31.935 159.098Z" fill="#25314E"/>
<path d="M199.15 79.5076C197.819 63.3757 189.98 48.7521 177.102 38.3502C175.243 36.8397 173.26 35.4582 171.24 34.1359C165.872 30.7741 160.017 28.1807 153.864 26.5164C148.139 24.9586 142.191 24.2117 136.212 24.2324L137.943 12.9421L138.442 9.73699L136.025 11.8504L116.494 28.3443L115.219 29.4414L116.626 30.2925L138.697 43.25L141.608 44.9305L140.449 41.7925L137.026 32.6201C147.685 32.6668 157.936 35.6447 166.791 41.2174C168.516 42.3524 170.203 43.5465 171.864 44.848C182.951 53.8251 189.665 66.3681 190.837 80.203L190.903 81.4052L192.095 81.2905L198.025 80.8244L198.578 80.802L198.888 80.3775L199.21 80.0013L199.15 79.5076Z" fill="#39D24E"/>
</svg>
