<?xml version="1.0" encoding="utf-8"?><svg viewBox="0 0 92 70" xmlns="http://www.w3.org/2000/svg" xmlns:xlink="http://www.w3.org/1999/xlink"><style>:root>svg{display:none}:root>svg:target{display:block}</style><svg fill="none" viewBox="0 0 16 9" id="accordion-arrow" xmlns="http://www.w3.org/2000/svg">
    <path d="M7.318 8.133a1 1 0 0 0 1.364 0l6.122-5.71c.664-.618.226-1.73-.682-1.73H1.878c-.908 0-1.346 1.112-.682 1.73l6.122 5.71Z" fill="#39D24E"/>
</svg><svg fill="none" viewBox="0 0 12 12" id="arrow-down" xmlns="http://www.w3.org/2000/svg">
    <path d="m2.305 3.5-.805.805 4.5 4.5 4.5-4.5-.805-.805L6 7.195 2.305 3.5Z" fill="#fff"/>
</svg><svg fill="none" viewBox="0 0 60 60" id="bitcoin" xmlns="http://www.w3.org/2000/svg">
    <path d="M36.723 25.675c-.93 3.72-6.72 1.83-8.521 1.32l1.65-6.54c1.86.54 7.83 1.32 6.87 5.22Zm-9.331 4.68-1.8 7.23c2.22.57 9.09 2.76 10.11-1.32 1.08-4.26-6.09-5.37-8.31-5.91Zm31.712 6.9c-4.02 16.082-20.281 25.862-36.362 21.842C6.66 55.077-3.111 38.815.9 22.734A29.99 29.99 0 0 1 37.263.893c16.05 4.02 25.831 20.281 21.841 36.362Zm-22.471-19.11 1.35-5.401-3.3-.75-1.32 5.19c-.87-.21-1.74-.42-2.64-.6l1.32-5.31-3.271-.78-1.35 5.37c-.72-.18-1.44-.33-2.1-.51l-4.53-1.14-.9 3.51s2.46.57 2.4.6c1.35.33 1.59 1.17 1.53 1.92l-3.69 14.791c-.15.42-.63.96-1.5.81.03.03-2.4-.6-2.4-.6l-1.621 3.75 4.26 1.08c.81.21 1.59.42 2.37.6l-1.38 5.461 3.3.84 1.35-5.43c.9.24 1.77.45 2.61.69l-1.35 5.37 3.301.84 1.38-5.46c5.55 1.05 9.81.63 11.551-4.44 1.5-4.05 0-6.45-3-7.981 2.16-.57 3.78-1.92 4.23-4.86.6-3.99-2.46-6.12-6.6-7.56Z" fill="#A7BED3"/>
</svg><svg fill="none" viewBox="0 0 30 30" id="crunchbase" xmlns="http://www.w3.org/2000/svg">
    <g clip-path="url(#ada)">
        <path d="M27.002 0H2.998A3.011 3.011 0 0 0 0 2.998v24.004A3.011 3.011 0 0 0 2.998 30h24.004A3.012 3.012 0 0 0 30 27.002V2.998A3.011 3.011 0 0 0 27.002 0ZM8.809 18.08a2.634 2.634 0 0 0 3.491-1.303h2.076c-1.294 5.297-9.092 4.36-9.092-1.095 0-5.459 7.798-6.396 9.092-1.094H12.3c-.762-1.674-2.963-2.075-4.263-.771-1.304 1.298-.904 3.5.772 4.263Zm14.18 1.055c-.393.34-.843.608-1.329.792a4.601 4.601 0 0 1-4.234-.479v.479h-1.89V6.713h1.875v5.137a4.667 4.667 0 0 1 2.251-.787H20c4.267-.009 6.23 5.303 2.989 8.071v.001Zm-.279-3.456a2.629 2.629 0 1 1-5.258 0c.073-3.428 5.18-3.428 5.258 0Z" fill="#fff"/>
    </g>
    <defs>
        <clipPath id="ada">
            <path fill="#fff" d="M0 0h30v30H0z"/>
        </clipPath>
    </defs>
</svg><svg fill="none" viewBox="0 0 30 30" id="discord" xmlns="http://www.w3.org/2000/svg">
    <g clip-path="url(#aea)">
        <path d="M25.396 5.615a24.995 24.995 0 0 0-6.106-1.863.094.094 0 0 0-.099.045 17.021 17.021 0 0 0-.76 1.538 23.207 23.207 0 0 0-6.859 0 15.429 15.429 0 0 0-.77-1.538.096.096 0 0 0-.1-.047c-2.142.362-4.192 1-6.106 1.864a.087.087 0 0 0-.04.033C.666 11.367-.4 16.944.124 22.451a.1.1 0 0 0 .038.069 25.04 25.04 0 0 0 7.492 3.725.098.098 0 0 0 .105-.033A17.29 17.29 0 0 0 9.29 23.76a.092.092 0 0 0-.051-.13A16.497 16.497 0 0 1 6.9 22.53a.093.093 0 0 1-.01-.156c.157-.116.315-.238.465-.359a.094.094 0 0 1 .097-.012c4.91 2.205 10.225 2.205 15.077 0a.094.094 0 0 1 .099.011c.15.122.306.244.465.36a.093.093 0 0 1 .024.124.094.094 0 0 1-.032.032 15.43 15.43 0 0 1-2.341 1.097.094.094 0 0 0-.052.13c.45.86.965 1.677 1.532 2.453a.096.096 0 0 0 .105.035c2.693-.81 5.23-2.07 7.502-3.726a.095.095 0 0 0 .04-.067c.625-6.368-1.047-11.9-4.436-16.803a.075.075 0 0 0-.039-.035ZM10.025 19.097c-1.478 0-2.696-1.336-2.696-2.975 0-1.64 1.195-2.974 2.696-2.974 1.512 0 2.72 1.346 2.696 2.974 0 1.64-1.195 2.976-2.696 2.976Zm9.969 0c-1.479 0-2.697-1.336-2.697-2.975 0-1.64 1.194-2.974 2.697-2.974 1.512 0 2.72 1.346 2.696 2.974 0 1.64-1.183 2.976-2.696 2.976Z" fill="#fff"/>
    </g>
    <defs>
        <clipPath id="aea">
            <path fill="#fff" d="M0 0h30v30H0z"/>
        </clipPath>
    </defs>
</svg><svg fill="none" viewBox="0 0 60 60" id="dogecoin" xmlns="http://www.w3.org/2000/svg">
    <g clip-path="url(#afa)">
        <path d="M30.72 19.77h-4.287v8.45h6.742v3.538h-6.742v8.45h4.497c1.155 0 9.485.13 9.473-9.833-.013-9.96-8.08-10.605-9.683-10.605ZM30 0C13.432 0 0 13.432 0 30c0 16.568 13.432 30 30 30 16.568 0 30-13.432 30-30C60 13.432 46.568 0 30 0Zm1.18 46.203H20.315V31.757h-3.83V28.22h3.83V13.778h9.325c2.205 0 16.818-.458 16.818 16.484-.003 17.22-15.278 15.94-15.278 15.94Z" fill="#A7BED3"/>
    </g>
    <defs>
        <clipPath id="afa">
            <path fill="#fff" d="M0 0h60v60H0z"/>
        </clipPath>
    </defs>
</svg><svg fill="none" viewBox="0 0 60 60" id="ephirium" xmlns="http://www.w3.org/2000/svg">
    <g clip-path="url(#aha)">
        <path d="m41.56 34.8 6.795 6.79-18.382 18.382-18.383-18.38 6.793-6.792 11.59 11.65L41.56 34.8Zm11.593-11.59L60 30l-6.788 6.79L46.42 30l6.733-6.79Zm-23.18 0 6.79 6.73-6.793 6.793L23.18 30l6.793-6.79Zm-23.183 0L13.525 30l-6.73 6.73L0 30l6.79-6.79ZM29.975.03 48.35 18.35l-6.793 6.787L29.975 13.55 18.385 25.2l-6.793-6.79L29.975.03Z" fill="#A7BED3"/>
    </g>
    <defs>
        <clipPath id="aha">
            <path fill="#fff" d="M0 0h60v60H0z"/>
        </clipPath>
    </defs>
</svg><svg fill="none" viewBox="0 0 37 60" id="ephirium-2" xmlns="http://www.w3.org/2000/svg">
    <path d="M18.293 0 0 30.732l18.293 10.975 18.292-10.975L18.293 0ZM0 34.39 18.293 60l18.292-25.61-18.292 10.976L0 34.39Z" fill="#A7BED3"/>
</svg><svg fill="none" viewBox="0 0 21 16" id="explore-products-arrow" xmlns="http://www.w3.org/2000/svg">
    <path d="M20.707 8.707a1 1 0 0 0 0-1.414L14.343.929a1 1 0 1 0-1.414 1.414L18.586 8l-5.657 5.657a1 1 0 0 0 1.414 1.414l6.364-6.364ZM0 9h20V7H0v2Z" fill="#fff"/>
</svg><svg fill="none" viewBox="0 0 30 30" id="github" xmlns="http://www.w3.org/2000/svg">
    <g clip-path="url(#aja)">
        <mask id="ajb" style="mask-type:luminance" maskUnits="userSpaceOnUse" x="0" y="0" width="30" height="30">
            <path d="M0 0h30v30H0V0Z" fill="#fff"/>
        </mask>
        <g mask="url(#ajb)">
            <path fill-rule="evenodd" clip-rule="evenodd" d="M15 0C6.713 0 0 6.713 0 15c0 6.637 4.294 12.244 10.256 14.231.75.131 1.031-.319 1.031-.712 0-.356-.018-1.538-.018-2.794-3.769.694-4.744-.919-5.044-1.763-.169-.43-.9-1.762-1.537-2.118-.526-.282-1.275-.975-.02-.994 1.182-.019 2.026 1.087 2.307 1.537 1.35 2.27 3.506 1.632 4.369 1.238.131-.975.525-1.631.956-2.006-3.338-.375-6.825-1.669-6.825-7.406 0-1.632.581-2.982 1.538-4.032-.15-.375-.675-1.912.15-3.975 0 0 1.256-.394 4.124 1.538 1.2-.338 2.475-.506 3.75-.506s2.55.168 3.75.506c2.87-1.95 4.126-1.538 4.126-1.538.825 2.063.3 3.6.15 3.975.956 1.05 1.537 2.382 1.537 4.032 0 5.756-3.506 7.03-6.844 7.406.544.468 1.013 1.369 1.013 2.775 0 2.006-.019 3.619-.019 4.125 0 .394.281.862 1.031.712A15.025 15.025 0 0 0 30 15c0-8.287-6.712-15-15-15Z" fill="#fff"/>
        </g>
    </g>
    <defs>
        <clipPath id="aja">
            <path fill="#fff" d="M0 0h30v30H0z"/>
        </clipPath>
    </defs>
</svg><svg fill="none" viewBox="0 0 60 60" id="lightning" xmlns="http://www.w3.org/2000/svg">
    <path d="M1.5 30.107C1.5 14.307 14.308 1.5 30.107 1.5c15.8 0 28.607 12.808 28.607 28.607 0 15.8-12.807 28.607-28.607 28.607-15.8 0-28.607-12.807-28.607-28.607Z" fill="#A7BED3"/>
    <path d="M34.542 11.036c-1.706 4.427-3.412 9.195-5.458 13.963 0 0 0 .68.682.68h13.986s0 .341.34.682L23.627 49.179c-.341-.341-.341-.682-.341-1.022l7.163-15.325v-1.363H16.121v-1.362l17.397-19.071h1.024Z" fill="#0C1220"/>
</svg><svg fill="none" viewBox="0 0 30 30" id="linkedIn" xmlns="http://www.w3.org/2000/svg">
    <path d="M16.25 26.25h-5v-15h5v2.5a5.773 5.773 0 0 1 4.406-2.204 5.625 5.625 0 0 1 5.594 5.642v9.062h-5v-8.438a2.831 2.831 0 0 0-2.809-2.43 2.269 2.269 0 0 0-2.191 2.43v8.438Zm-7.5 0h-5v-15h5v15Zm-2.5-17.5a2.5 2.5 0 1 1 0-5 2.5 2.5 0 0 1 0 5Z" fill="#fff"/>
</svg><svg fill="none" viewBox="0 0 60 60" id="litecoin" xmlns="http://www.w3.org/2000/svg">
    <g clip-path="url(#ama)">
        <path d="M30 0a30 30 0 1 0 0 60 30 30 0 0 0 0-60Zm-.655 9.195h6.46a.857.857 0 0 1 .825 1.088l-5.075 17.295 4.763-1.456-1.02 3.463-4.81 1.4-3.12 10.535h16.69a.857.857 0 0 1 .82 1.092l-1.456 5a1.147 1.147 0 0 1-1.1.825h-25.49l4.308-14.554-4.765 1.45 1.05-3.403 4.775-1.45 6.055-20.45a1.14 1.14 0 0 1 1.093-.835" fill="#A7BED3"/>
    </g>
    <defs>
        <clipPath id="ama">
            <path fill="#fff" d="M0 0h60v60H0z"/>
        </clipPath>
    </defs>
</svg><svg fill="none" viewBox="0 0 30 30" id="medium" xmlns="http://www.w3.org/2000/svg">
    <path d="M5.465 9.08a.98.98 0 0 0-.315-.822L2.815 5.424V5h7.248l5.602 12.381L20.59 5h6.91v.424L25.504 7.35a.591.591 0 0 0-.222.565v14.168a.591.591 0 0 0 .222.565l1.95 1.927V25h-9.805v-.424l2.02-1.975c.198-.2.198-.258.198-.563V10.585l-5.615 14.367h-.757L6.958 10.585v9.63c-.054.404.08.813.362 1.105l2.626 3.21v.422H2.5v-.422l2.625-3.21a1.287 1.287 0 0 0 .34-1.105V9.08Z" fill="#fff"/>
</svg><svg fill="none" viewBox="0 0 60 60" id="nav-api" xmlns="http://www.w3.org/2000/svg">
    <path d="M11.25 45h12.336c-.353 1.755-1.406 3.553-3.22 5.366a1.25 1.25 0 0 0 .884 2.134h17.5a1.25 1.25 0 0 0 .884-2.134c-1.813-1.813-2.867-3.611-3.22-5.366H48.75a6.259 6.259 0 0 0 6.124-5H5.126a6.26 6.26 0 0 0 6.124 5Zm22.5-27.5h-2.5v5h2.5a2.5 2.5 0 1 0 0-5Z" fill="#39D24E"/>
    <path d="M48.75 7.5h-37.5A6.257 6.257 0 0 0 5 13.75V37.5h50V13.75a6.256 6.256 0 0 0-6.25-6.25Zm-22.5 21.25a1.25 1.25 0 0 1-2.5 0V25h-5v3.75a1.25 1.25 0 0 1-2.5 0V20a5 5 0 1 1 10 0v8.75Zm7.5-3.75h-2.5v3.75a1.25 1.25 0 0 1-2.5 0v-12.5A1.25 1.25 0 0 1 30 15h3.75a5 5 0 1 1 0 10Zm10 3.75a1.25 1.25 0 0 1-2.5 0v-12.5a1.25 1.25 0 0 1 2.5 0v12.5Z" fill="#39D24E"/>
    <path d="M21.25 17.5a2.503 2.503 0 0 0-2.5 2.5v2.5h5V20a2.503 2.503 0 0 0-2.5-2.5Z" fill="#39D24E"/>
</svg><svg fill="none" viewBox="0 0 70 70" id="nav-bankomat" xmlns="http://www.w3.org/2000/svg">
    <path d="M60.635 12.248H9.365c-.944 0-1.709.765-1.709 1.709v11.621c0 .944.765 1.71 1.71 1.71h10.573v26.36a3.424 3.424 0 0 0 3.42 3.42h23.282a3.424 3.424 0 0 0 3.42-3.42v-26.36h10.574c.944 0 1.709-.766 1.709-1.71V13.957c0-.944-.765-1.709-1.71-1.709ZM32.127 47.406a3.361 3.361 0 1 1-5.484-2.605 3.361 3.361 0 1 1 4.247 0 3.352 3.352 0 0 1 1.237 2.605Zm-4.34-25.93v3.706h-2.051v-3.705h2.05Zm4.01 8.416h-2.05v-8.415h2.05v8.415Zm6.148-8.415h5.277v33.54h-5.277v-33.54Zm20.98 2.392h-8.864v-2.392h3.054v-3.418h-36.23v3.418h3.054v2.392h-8.865v-8.203h47.852v8.203Z" fill="#39D24E"/>
</svg><svg fill="none" viewBox="0 0 60 60" id="nav-basket" xmlns="http://www.w3.org/2000/svg">
    <path d="M25.746 29.673H4.54a3.199 3.199 0 0 1-1.224-6.151c.388-.16.804-.243 1.224-.243h17.651l3.555 6.394Zm32.91-3.197a3.202 3.202 0 0 1-3.196 3.197H34.55a5.042 5.042 0 0 0-.037-4.773l-.904-1.62h21.85a3.199 3.199 0 0 1 3.198 3.196Zm-25.71-.707-9.26-16.657c-.842-1.55-2.817-2.1-4.352-1.245-1.54.851-2.095 2.803-1.235 4.352l9.25 16.648c.803 1.526 2.802 2.119 4.343 1.263 1.523-.799 2.116-2.798 1.254-4.361Zm-2.606 1.499a.907.907 0 0 1-1.436-.423.885.885 0 0 1 .283-.948l.02-.015a.898.898 0 0 1 1.435.429.895.895 0 0 1-.302.957Zm2.606 4.196a5.012 5.012 0 0 1-5.588 0H5.75l4.093 18.878c.295 1.272 1.442 2.194 2.731 2.194h34.854c1.29 0 2.436-.922 2.731-2.203l4.093-18.869H32.946ZM15.87 49.002l-2.462-13.894 1.762-.313 2.464 13.895-1.764.312Zm6.614-.077L21.252 35.03l1.784-.157 1.233 13.894-1.785.158Zm8.411-.079h-1.79V34.951h1.79v13.895Zm6.62.08-1.784-.16 1.232-13.893 1.783.157-1.23 13.895Zm6.614.076-1.764-.313 2.464-13.894 1.764.313-2.464 13.894Z" fill="#39D24E"/>
</svg><svg fill="none" viewBox="0 0 60 60" id="nav-blog" xmlns="http://www.w3.org/2000/svg">
    <path d="M52.5 7.5h-35C16 7.5 15 8.5 15 10v7.5H7.5C6 17.5 5 18.5 5 20v25c0 4.25 3.25 7.5 7.5 7.5H45c5.5 0 10-4.5 10-10V10c0-1.5-1-2.5-2.5-2.5ZM15 45c0 1.5-1 2.5-2.5 2.5S10 46.5 10 45V22.5h5V45Zm15-2.5h-2.5c-1.5 0-2.5-1-2.5-2.5s1-2.5 2.5-2.5H30c1.5 0 2.5 1 2.5 2.5s-1 2.5-2.5 2.5Zm0-10h-2.5c-1.5 0-2.5-1-2.5-2.5s1-2.5 2.5-2.5H30c1.5 0 2.5 1 2.5 2.5s-1 2.5-2.5 2.5Zm12.5 10H40c-1.5 0-2.5-1-2.5-2.5s1-2.5 2.5-2.5h2.5c1.5 0 2.5 1 2.5 2.5s-1 2.5-2.5 2.5Zm0-10H40c-1.5 0-2.5-1-2.5-2.5s1-2.5 2.5-2.5h2.5c1.5 0 2.5 1 2.5 2.5s-1 2.5-2.5 2.5Zm0-10h-15c-1.5 0-2.5-1-2.5-2.5s1-2.5 2.5-2.5h15c1.5 0 2.5 1 2.5 2.5s-1 2.5-2.5 2.5Z" fill="#39D24E"/>
</svg><svg fill="none" viewBox="0 0 70 70" id="nav-btob" xmlns="http://www.w3.org/2000/svg">
    <path d="M65.157 21.885 58.6 28.442l-6.557-6.557h5.19v-2.197a5.588 5.588 0 0 0-5.582-5.582h-6.63v-2.734h6.63c4.586 0 8.317 3.73 8.317 8.316v2.197h5.189ZM58.89 37.126a16.335 16.335 0 0 0-11.627-4.816c-4.392 0-8.52 1.71-11.626 4.816a16.337 16.337 0 0 0-4.815 11.626c0 4.392 1.71 8.52 4.815 11.626a16.335 16.335 0 0 0 11.626 4.816c4.392 0 8.521-1.71 11.627-4.816a16.335 16.335 0 0 0 4.816-11.626c0-4.392-1.71-8.52-4.816-11.626Zm-4.956 8.335a4.31 4.31 0 0 1-1.527 3.291 4.306 4.306 0 0 1 1.527 3.29v.083a4.32 4.32 0 0 1-4.316 4.316h-.542v1.988h-2.051V56.44h-1.629v1.934h-2.05v-1.934h-1.728v-2.05h1.728V43.113h-1.728v-2.05h1.728v-1.988h2.05v1.987h1.629v-1.987h2.05v1.987h.543a4.32 4.32 0 0 1 4.316 4.317v.081Zm-31.2-7.771c4.393 0 8.522-1.71 11.627-4.816a16.337 16.337 0 0 0 4.816-11.626c0-4.392-1.71-8.52-4.816-11.626a16.335 16.335 0 0 0-11.626-4.816c-4.392 0-8.521 1.71-11.627 4.816a16.335 16.335 0 0 0-4.816 11.626c0 4.392 1.71 8.52 4.816 11.626a16.335 16.335 0 0 0 11.627 4.816Zm-4.34-22.845a4.501 4.501 0 0 1 3.144-1.26h.171v-1.987h2.051v1.988h.171c2.313 0 4.196 1.832 4.196 4.084h-2.05c0-1.12-.963-2.034-2.146-2.034h-2.393c-.651 0-1.262.244-1.72.685a2.222 2.222 0 0 0-.693 1.608c0 1.265 1.082 2.293 2.413 2.293h2.393c1.185 0 2.302.448 3.144 1.26a4.255 4.255 0 0 1 1.32 3.084c0 2.395-2.002 4.344-4.464 4.344h-.17v1.988H21.71V28.91h-.17c-2.315 0-4.197-1.833-4.197-4.085h2.051c0 1.122.962 2.034 2.145 2.034h2.393c1.33 0 2.414-1.029 2.414-2.293 0-.605-.247-1.177-.694-1.608a2.46 2.46 0 0 0-1.72-.685h-2.393c-2.461 0-4.464-1.948-4.464-4.344 0-1.167.469-2.262 1.32-3.084Zm2.676 41.049h6.63v2.734h-6.63c-4.585 0-8.317-3.73-8.317-8.316v-2.197H7.566l6.557-6.557 6.557 6.557h-5.19v2.197a5.588 5.588 0 0 0 5.582 5.582Z" fill="#39D24E"/>
    <path d="M51.884 45.38v.081a2.267 2.267 0 0 1-2.265 2.266h-4.221v-4.613h4.22a2.267 2.267 0 0 1 2.266 2.266Zm0 6.663v.082a2.268 2.268 0 0 1-2.265 2.265h-4.221v-4.613h4.22a2.268 2.268 0 0 1 2.266 2.266Z" fill="#39D24E"/>
</svg><svg fill="none" viewBox="0 0 60 60" id="nav-career" xmlns="http://www.w3.org/2000/svg">
    <path d="M55.893 48.363V28.031a9.872 9.872 0 0 1-1.758 1.366 8.982 8.982 0 0 1-3.282 1.207c-1.57.24-3.193.146-4.78.146H34.845c-.041 0-.082 0-.123-.006v.727c0 .088.005.17 0 .258a.874.874 0 0 1-.85.85c-.838.04-1.688 0-2.531 0h-4.09c-.357 0-.715.005-1.072 0-.534-.013-.903-.37-.909-.909-.005-.305-.005-.615-.005-.92-.035.006-.076.006-.112.006h-.076c-1.594.023-3.193 0-4.787 0h-7.12c-1.757 0-3.556.111-5.255-.434a9.959 9.959 0 0 1-2.93-1.506 9.037 9.037 0 0 1-.879-.755v22.16c0 .164-.005.328.006.492a2.977 2.977 0 0 0 2.93 2.766c.38.005.756 0 1.137 0h44.707c1.71-.006 3-1.354 3.006-3.047v-2.069Zm-.012-29.396V16.95a2.972 2.972 0 0 0-2.924-2.765H40.084V9.809c0-.891-.252-1.735-.897-2.38-.603-.609-1.417-.89-2.267-.896H23.402c-.146 0-.293-.006-.433 0a3.098 3.098 0 0 0-3.047 3.047c-.035 1.53-.018 3.07-.006 4.606H7.131c-.785 0-1.518.27-2.098.808-.562.527-.861 1.248-.908 2.004v4.066c0 .176 0 .346.012.522.006.123.017.24.029.363 0 .018.006.035.006.053.03.17.053.34.088.504a8.663 8.663 0 0 0 .369 1.219c0 .005 0 .005.006.011.006.012.006.018.011.03.036.082.077.164.118.246.076.152.152.299.234.445.012.023.023.047.041.064.111.188.229.375.357.551.053.076.112.14.159.217l-.018-.035c.012.017.018.03.03.041.099.123.204.246.316.363.17.182.351.358.539.528.076.07.152.134.234.199.012.011.03.023.047.035.1.064.14.088.147.094-.006 0-.036-.024-.077-.047.123.082.24.176.364.258.328.21.668.398 1.02.562.34.106.157.065.046.024.012.005.018.005.03.011.099.036.193.076.292.106.188.064.375.123.563.176.205.052.41.1.621.14l.21.035c.042.006.083.006.118.012.522.047 1.049.035 1.57.035h13.565c.04 0 .082 0 .123.006V26.42c0-.41-.059-.85.275-1.154.287-.264.662-.223 1.02-.223h7.307c.456.023.779.34.837.78.006.023.006.046.006.07v1.945c.041-.006.082-.006.123-.006h.077c1.552-.03 3.105 0 4.652 0h9.656c.252 0 .498-.012.75-.035l.147-.018c.058-.011.123-.017.181-.029.205-.041.416-.082.621-.14.205-.053.405-.118.604-.188l.275-.106a8.52 8.52 0 0 0 1.365-.785l.164-.123.006-.006c.006-.006.018-.011.018-.017.082-.065.158-.135.234-.2.188-.163.364-.34.54-.527.11-.117.216-.234.316-.363.006-.012.017-.018.023-.03.047-.076.111-.152.164-.222.112-.158.217-.322.31-.486.018-.035.042-.07.06-.1a7.44 7.44 0 0 0 .251-.48c.035-.077.076-.159.112-.235a8.21 8.21 0 0 0 .363-1.19c.03-.128.053-.263.076-.392v-.03c0-.005 0-.01.006-.017.006-.058.018-.134.023-.181.012-.106.018-.217.024-.323l.017-.51v-1.16a28.229 28.229 0 0 1-.017-.972ZM37.17 9.604c0 .005 0 .011.007.011v.006c.006.03.012.047 0 .018-.006.006-.018-.006-.024-.018.03 1.524.018 3.047.006 4.57H22.846V9.627c-.018.023-.03.03-.035.023-.012.018-.012-.017-.006-.058-.03.035-.047.04 0-.012 0-.023.006-.04.011-.064.006-.012.006-.03.012-.041-.04 0-.03-.012.006-.018.006-.03.018-.04.018-.006.011 0 .023-.006.04-.006v-.011.005c.024-.005.042-.005.065-.011.023-.024.035-.03.041-.035l-.035.035c.047-.006.082-.006.064.006.006.005 0 .017-.023.035H36.51c.175 0 .346-.006.521 0-.011-.006-.017-.006-.023-.012-.041-.023-.03-.03 0-.035-.018-.012-.012-.012.006 0h.023c-.023-.018-.035-.03-.04-.035 0 0 .017.011.046.035.023 0 .047.006.07.006.012 0 .018.006.03.006 0-.012 0-.018.005-.018 0 0 .006.006.006.018.053.011.076.023 0 .029v.03c.018.005.03.01.035.01-.005 0-.023 0-.035-.005v.006c.006.006.018.012.03.023-.006 0-.012-.005-.024-.011 0 .011.006.017.006.029a.276.276 0 0 0 .059.059c-.018-.012-.035-.03-.053-.041v.04Z" fill="#39D24E"/>
</svg><svg fill="none" viewBox="0 0 60 60" id="nav-contact" xmlns="http://www.w3.org/2000/svg">
    <path d="M31.25 8.75a22.5 22.5 0 1 0 15.91 38.41 2.5 2.5 0 0 0-3.535-3.535A17.5 17.5 0 1 1 48.75 31.25a3.75 3.75 0 0 1-7.5 0 10 10 0 1 0-10 10 9.718 9.718 0 0 0 7.703-3.7 8.732 8.732 0 0 0 14.797-6.3 22.489 22.489 0 0 0-22.5-22.5Zm0 27.453a4.924 4.924 0 0 1-5-4.953 5 5 0 1 1 10 0 4.925 4.925 0 0 1-5 4.953Z" fill="#39D24E"/>
</svg><svg fill="none" viewBox="0 0 60 60" id="nav-docs" xmlns="http://www.w3.org/2000/svg">
    <path d="M29.685 54.95c.1.04.21.05.32.05.11 0 .21-.02.32-.05 10.63-3.57 18.05-14.82 18.05-27.35V10.93c0-.31-.14-.6-.39-.79-.24-.19-.56-.25-.86-.18-.11.03-10.85 2.65-16.32-4.56-.19-.25-.49-.4-.8-.4-.31 0-.61.15-.8.4-5.48 7.21-16.23 4.59-16.33 4.56-.3-.07-.62-.01-.86.18-.25.19-.39.48-.39.79V27.6c0 6.18 1.72 12.06 4.98 17.02 3.29 4.99 7.81 8.56 13.08 10.33Zm.31-34.32c3.18 0 5.76 2.58 5.76 5.75 0 1.88-.92 3.61-2.44 4.68l.87 4.11c.07.29-.01.6-.2.84-.19.23-.47.37-.77.37h-6.43c-.3 0-.59-.14-.78-.37-.19-.24-.26-.55-.2-.84l.88-4.11a5.714 5.714 0 0 1-2.44-4.68c0-3.17 2.58-5.75 5.75-5.75Z" fill="#39D24E"/>
</svg><svg fill="none" viewBox="0 0 60 60" id="nav-link" xmlns="http://www.w3.org/2000/svg">
    <g clip-path="url(#awa)">
        <path d="M25.58 25.578a12.5 12.5 0 0 1 17.225-.43l.453.43 7.07 7.072a12.5 12.5 0 0 1-17.225 18.108l-.45-.43-5.305-5.306a2.5 2.5 0 0 1 3.3-3.742l.235.207 5.305 5.305a7.5 7.5 0 0 0 10.942-10.25l-.337-.357-7.07-7.07a7.5 7.5 0 0 0-10.608 0 2.5 2.5 0 0 1-3.535-3.537ZM9.67 9.668a12.5 12.5 0 0 1 17.225-.43l.453.43 5.302 5.307a2.5 2.5 0 0 1-3.3 3.743l-.235-.208-5.302-5.303A7.5 7.5 0 0 0 12.868 23.45l.337.36 7.073 7.073a7.5 7.5 0 0 0 10.605 0 2.5 2.5 0 1 1 3.537 3.534 12.5 12.5 0 0 1-17.225.43l-.455-.43-7.07-7.072a12.5 12.5 0 0 1 0-17.678Z" fill="#39D24E"/>
    </g>
    <defs>
        <clipPath id="awa">
            <path fill="#fff" d="M0 0h60v60H0z"/>
        </clipPath>
    </defs>
</svg><svg fill="none" viewBox="0 0 60 60" id="nav-plugins" xmlns="http://www.w3.org/2000/svg">
    <path d="M31.146 11.46v6.792h-1.2a2.479 2.479 0 0 0-2.484 2.472 2.479 2.479 0 0 0 2.484 2.472h1.2v5.172h3.36c.54-2.1 2.46-3.672 4.728-3.672s4.188 1.572 4.728 3.672h4.548v-3.936a3.672 3.672 0 0 0 3.672-3.672 3.682 3.682 0 0 0-3.672-3.684V11.46h-4.416c-.059.12.335 5.328-4.872 5.328-5.194 0-4.825-5.208-4.884-5.328h-3.192Z" fill="#39D24E"/>
    <path d="M20.658 7.752a3.69 3.69 0 0 0-3.684 3.672H11.37v4.428c.12.057 5.436-.514 5.436 4.872 0 5.355-5.316 4.826-5.436 4.884v4.416h5.604c0 2.018 1.653 3.672 3.684 3.672a3.672 3.672 0 0 0 3.672-3.672h5.592l.024-5.628a3.682 3.682 0 0 1-3.684-3.672 3.682 3.682 0 0 1 3.684-3.672v-5.628H24.33a3.672 3.672 0 0 0-3.672-3.672ZM29.946 30.024h-.024v.024h.024v-.024Z" fill="#39D24E"/>
    <path d="M15.774 48.168c.712-2.775 1.396-4.956 4.872-4.956 4.89 0 4.82 4.836 4.884 4.956h4.416v-5.616a3.675 3.675 0 0 0 3.672-3.684 3.678 3.678 0 0 0-3.672-3.672v-3.972h-4.56a4.89 4.89 0 0 1-4.728 3.672 4.89 4.89 0 0 1-4.74-3.672h-4.572v3.972a3.672 3.672 0 0 0-3.672 3.672 3.69 3.69 0 0 0 3.672 3.684v5.616h4.428Z" fill="#39D24E"/>
    <path d="M42.906 48.168h5.616v-4.416c-.12-.059-5.328.31-5.328-4.884 0-5.208 5.208-4.813 5.328-4.872v-4.428h-5.616a3.672 3.672 0 1 0-7.344 0h-4.416v4.572c2.004.508 3.672 2.37 3.672 4.728 0 2.28-1.56 4.2-3.672 4.728v4.572h4.416a3.672 3.672 0 0 0 3.672 3.672c1.979 0 3.672-1.605 3.672-3.672Z" fill="#39D24E"/>
    <path d="M50.706 43.248c.66 0 1.2-.528 1.2-1.2v-1.356l6.876-.708v-2.22l-6.876-.708v-1.368c0-.66-.54-1.2-1.2-1.2h-1.008v.708c-.12.014-5.304-.629-5.304 3.672 0 4.48 5.095 3.62 5.304 3.684v.696h1.008Zm-33.24 8.676h1.368l.708 6.876h2.22l.708-6.876h1.356c.672 0 1.2-.54 1.2-1.2v-1.008h-.696v-1.62a3.681 3.681 0 0 0-3.684-3.684 3.675 3.675 0 0 0-3.672 3.684v1.62h-.708v1.008c0 .66.54 1.2 1.2 1.2Zm-8.16-35.58c-.672 0-1.2.54-1.2 1.2v1.368l-6.888.708v2.22l6.888.708v1.356c0 .672.528 1.2 1.2 1.2h.996v-.696c.122-.014 5.304.64 5.304-3.684 0-4.462-5.103-3.61-5.304-3.672v-.708h-.996Zm34.296-6.06v-.996c0-.672-.54-1.2-1.2-1.2h-1.368L40.326 1.2h-2.22l-.708 6.888h-1.356c-.672 0-1.2.528-1.2 1.2v.996h.696c.014.122-.64 5.304 3.684 5.304 4.462 0 3.61-5.103 3.672-5.304h.708Z" fill="#39D24E"/>
</svg><svg fill="none" viewBox="0 0 60 60" id="nav-security" xmlns="http://www.w3.org/2000/svg">
    <path d="M29.685 54.95c.1.04.21.05.32.05.11 0 .21-.02.32-.05 10.63-3.57 18.05-14.82 18.05-27.35V10.93c0-.31-.14-.6-.39-.79-.24-.19-.56-.25-.86-.18-.11.03-10.85 2.65-16.32-4.56-.19-.25-.49-.4-.8-.4-.31 0-.61.15-.8.4-5.48 7.21-16.23 4.59-16.33 4.56-.3-.07-.62-.01-.86.18-.25.19-.39.48-.39.79V27.6c0 6.18 1.72 12.06 4.98 17.02 3.29 4.99 7.81 8.56 13.08 10.33Zm.31-34.32c3.18 0 5.76 2.58 5.76 5.75 0 1.88-.92 3.61-2.44 4.68l.87 4.11c.07.29-.01.6-.2.84-.19.23-.47.37-.77.37h-6.43c-.3 0-.59-.14-.78-.37-.19-.24-.26-.55-.2-.84l.88-4.11a5.714 5.714 0 0 1-2.44-4.68c0-3.17 2.58-5.75 5.75-5.75Z" fill="#39D24E"/>
</svg><svg fill="none" viewBox="0 0 70 70" id="nav-terminal" xmlns="http://www.w3.org/2000/svg">
    <path d="M56.548 22.519h-10.03v-6.288a2.933 2.933 0 0 0-2.93-2.93h-2.88V8.506c0-.944-.765-1.709-1.709-1.709H18.491c-.944 0-1.709.765-1.709 1.71v4.796h-2.88a2.933 2.933 0 0 0-2.93 2.93V59.59a2.933 2.933 0 0 0 2.93 2.93h29.687a2.933 2.933 0 0 0 2.93-2.93v-6.993h10.029a3.168 3.168 0 0 0 3.164-3.164v-23.75a3.168 3.168 0 0 0-3.164-3.164Zm-20.283 28.02V47.12h3.418v3.418h-3.418Zm3.418 3.28v3.418h-3.418V53.82h3.418Zm-3.418-9.98v-3.418h3.418v3.418h-3.418Zm-18.457-7.99V25.595h21.875V35.85H17.808Zm9.228 14.69V47.12h3.418v3.418h-3.418Zm3.418 3.28v3.418h-3.418V53.82h3.418Zm-3.418-9.98v-3.418h3.418v3.418h-3.418Zm-9.228 6.7V47.12h3.418v3.418h-3.418Zm3.418 3.28v3.418h-3.418V53.82h3.418Zm-3.418-9.98v-3.418h3.418v3.418h-3.418ZM20.2 10.214h17.09v7.52h3.076v2.05H17.124v-2.05H20.2v-7.52ZM56.294 49.18h-9.775V25.937h3.719v18.115h3.418V25.937h2.638v23.242Z" fill="#39D24E"/>
</svg><svg fill="none" viewBox="0 0 66 66" id="nav-wallet" xmlns="http://www.w3.org/2000/svg">
    <path d="M54.223 26.544v-6.772a2.868 2.868 0 0 0-2.865-2.864h-.357V13.49a3.747 3.747 0 0 0-3.744-3.742H12.332a4.862 4.862 0 0 0-4.863 5.119.848.848 0 0 0-.007.109V47.31c0 4.18 3.4 7.582 7.581 7.582h36.315a2.868 2.868 0 0 0 2.865-2.864v-6.773a5.128 5.128 0 0 0 4.638-5.097v-8.517c0-2.66-2.04-4.853-4.638-5.098ZM10.685 14.617a1.643 1.643 0 0 1 1.647-1.647h34.925c.287 0 .52.233.52.52v2.774H12.333a1.648 1.648 0 0 1-1.647-1.647Zm6.336 30.06h-2.578V27.124h2.578v17.551Zm38.617-4.518a1.892 1.892 0 0 1-1.417 1.836c-.153.04-.314.061-.48.061H42.851c-.392 0-.776-.036-1.148-.107-.052-.01-.105-.02-.158-.032a6.35 6.35 0 0 1-.95-.288 3.024 3.024 0 0 1-.08-.032l-.06-.025a5.945 5.945 0 0 1-.984-.526 5.798 5.798 0 0 1-.649-.491 6.141 6.141 0 0 1-2.127-4.655 6.135 6.135 0 0 1 2.593-5.02 6.27 6.27 0 0 1 1.226-.676 6.143 6.143 0 0 1 2.336-.46h10.89c.166 0 .327.022.48.062l.067.02c.044.012.088.027.131.044l.064.025a1.868 1.868 0 0 1 .599.406c.343.343.556.817.556 1.341v8.517Z" fill="#39D24E"/>
    <path d="M42.526 38.294a2.394 2.394 0 1 0 0-4.787 2.394 2.394 0 0 0 0 4.787Z" fill="#39D24E"/>
</svg><svg fill="none" viewBox="0 0 60 60" id="polygon" xmlns="http://www.w3.org/2000/svg">
    <g clip-path="url(#bba)">
        <path d="M30 0C13.43 0 0 13.43 0 30s13.43 30 30 30 30-13.43 30-30S46.57 0 30 0Zm-9.33 12.535a2.69 2.69 0 0 1 1.71.283l8.37 4.867A2.327 2.327 0 0 1 32 19.802v3.28l-3.904 2.327v-3.383a2.543 2.543 0 0 0-1.27-2.12l-4.551-2.54a2.69 2.69 0 0 0-2.54 0l-4.55 2.54a2.331 2.331 0 0 0-1.27 2.119v5.285a2.542 2.542 0 0 0 1.27 2.119l4.55 2.648a2.7 2.7 0 0 0 2.54 0L28 28.69l4-2.223 5.725-3.385a2.7 2.7 0 0 1 2.54 0l8.465 4.864A2.328 2.328 0 0 1 50 30.063v9.844a2.54 2.54 0 0 1-1.26 2.114l-8.464 4.868a2.694 2.694 0 0 1-2.542 0l-8.465-4.866A2.33 2.33 0 0 1 28 39.905V36.52l3.8-2.22v3.398a2.54 2.54 0 0 0 1.27 2.116l4.55 2.54a2.69 2.69 0 0 0 2.54 0l4.55-2.644a2.329 2.329 0 0 0 1.27-2.116v-5.186a2.54 2.54 0 0 0-1.27-2.119l-4.55-2.539a2.7 2.7 0 0 0-2.54 0l-5.705 3.27L28 33.349l-5.725 3.281a2.7 2.7 0 0 1-2.54 0L11.27 31.75A2.328 2.328 0 0 1 10 29.643v-9.84a2.16 2.16 0 0 1 1.375-2.119l8.464-4.867c.26-.138.54-.234.831-.282Z" fill="#A7BED3"/>
    </g>
    <defs>
        <clipPath id="bba">
            <path fill="#fff" d="M0 0h60v60H0z"/>
        </clipPath>
    </defs>
</svg><svg fill="none" viewBox="0 0 30 30" id="reddit" xmlns="http://www.w3.org/2000/svg">
    <path d="M28.429 14.698a3.098 3.098 0 0 0-3.095-3.094c-.739 0-1.43.27-1.988.743l-.054.033c-2.012-1.287-4.68-2.109-7.632-2.22l1.762-5.01 4.397 1.051a2.529 2.529 0 0 0 2.526 2.52 2.53 2.53 0 0 0 2.526-2.526 2.53 2.53 0 0 0-2.526-2.527 2.526 2.526 0 0 0-2.338 1.578l-5.21-1.245-2.163 6.147c-3.078.058-5.867.89-7.954 2.221a3.058 3.058 0 0 0-2.015-.765 3.097 3.097 0 0 0-3.093 3.094c0 1.056.544 2.03 1.427 2.598-.057.31-.086.623-.088.937 0 4.466 5.413 8.1 12.065 8.1 6.654 0 12.068-3.634 12.068-8.1a5.438 5.438 0 0 0-.082-.91 3.095 3.095 0 0 0 1.467-2.625Zm-9.35 4.006a1.902 1.902 0 1 1 0-3.804 1.902 1.902 0 0 1 0 3.804Zm.379 3.242c-.057.058-1.42 1.446-4.503 1.446-3.1 0-4.339-1.406-4.39-1.467a.487.487 0 0 1 .405-.8c.127.01.246.069.331.165.028.031 1.062 1.131 3.654 1.131 2.635 0 3.792-1.14 3.804-1.15a.486.486 0 0 1 .699.675ZM9.243 16.803a1.901 1.901 0 1 1 3.801-.066 1.901 1.901 0 0 1-3.801.066Z" fill="#fff"/>
</svg><svg fill="none" viewBox="0 0 48 48" id="slide-arrow-left" xmlns="http://www.w3.org/2000/svg">
    <path d="M28 14 18 24l10 10" stroke="#fff" stroke-width="2" stroke-linecap="round" stroke-linejoin="round"/>
</svg><svg fill="none" viewBox="0 0 48 48" id="slide-arrow-right" xmlns="http://www.w3.org/2000/svg">
    <path d="m20 14 10 10-10 10" stroke="#fff" stroke-width="2" stroke-linecap="round" stroke-linejoin="round"/>
</svg><svg fill="none" viewBox="0 0 30 30" id="telegram" xmlns="http://www.w3.org/2000/svg">
    <path d="M25.831 4.646 3.67 13.193c-1.513.607-1.504 1.45-.278 1.827l5.69 1.775 13.165-8.306c.623-.379 1.192-.175.724.24l-10.666 9.626H12.3l.003.001-.393 5.865c.575 0 .829-.264 1.152-.575l2.763-2.687 5.749 4.246c1.06.584 1.821.284 2.085-.981l3.774-17.785c.386-1.549-.591-2.25-1.603-1.793Z" fill="#39D24E"/>
</svg><svg fill="none" viewBox="0 0 60 60" id="tron-trx" xmlns="http://www.w3.org/2000/svg">
    <g clip-path="url(#bga)">
        <path d="M57.703 18.075C54.891 15.478 51 11.512 47.831 8.7l-.187-.131a3.58 3.58 0 0 0-1.04-.582C38.961 6.563 3.403-.083 2.708 0c-.194.027-.38.098-.543.206l-.178.14a2.09 2.09 0 0 0-.488.788l-.047.122v.769c4.003 11.147 19.81 47.663 22.922 56.231.188.581.544 1.688 1.21 1.744h.15c.356 0 1.874-2.006 1.874-2.006s27.15-32.925 29.897-36.431c.356-.432.67-.897.938-1.388a2.26 2.26 0 0 0-.74-2.1Zm-23.128 3.834L46.162 12.3l6.797 6.262-18.384 3.347Zm-4.5-.628-19.95-16.35 32.278 5.953-12.328 10.397Zm1.8 4.285 20.419-3.291L28.95 50.4l2.925-24.834ZM7.415 6.563l20.991 17.812-3.037 26.044L7.416 6.563Z" fill="#A7BED3"/>
    </g>
    <defs>
        <clipPath id="bga">
            <path fill="#fff" d="M0 0h60v60H0z"/>
        </clipPath>
    </defs>
</svg><svg fill="none" viewBox="0 0 92 55" id="trusted-slide-decor" xmlns="http://www.w3.org/2000/svg">
    <path d="M35.6 54.2H.6L23 .6h23L35.6 54.2Zm45.4 0H46.2L68.6.6h22.8L81 54.2Z" fill="#39D24E"/>
</svg><svg fill="none" viewBox="0 0 30 30" id="twitter" xmlns="http://www.w3.org/2000/svg">
    <path d="M24.994 8.36a5.375 5.375 0 0 0 2.358-2.968 10.738 10.738 0 0 1-3.406 1.302 5.375 5.375 0 0 0-9.145 4.894A15.23 15.23 0 0 1 3.746 5.982a5.375 5.375 0 0 0 1.66 7.163 5.346 5.346 0 0 1-2.428-.672v.067c0 2.554 1.8 4.754 4.303 5.26a5.376 5.376 0 0 1-2.422.092 5.375 5.375 0 0 0 5.011 3.726 10.762 10.762 0 0 1-6.662 2.296c-.429 0-.856-.024-1.282-.074a15.184 15.184 0 0 0 8.224 2.41 15.159 15.159 0 0 0 15.263-15.264c0-.232-.006-.463-.017-.694 1.05-.759 1.957-1.7 2.678-2.777-.979.434-2.017.719-3.08.845Z" fill="#fff"/>
</svg><svg fill="none" viewBox="0 0 60 60" id="usdt" xmlns="http://www.w3.org/2000/svg">
    <g clip-path="url(#bja)">
        <path fill-rule="evenodd" clip-rule="evenodd" d="M30 60C13.43 60 0 46.57 0 30S13.43 0 30 0s30 13.43 30 30-13.43 30-30 30Zm3.604-34.138v-4.436h10.151V14.66h-27.64v6.765h10.152v4.434c-8.25.379-14.454 2.014-14.454 3.971 0 1.958 6.204 3.59 14.454 3.972v14.216h7.337v-14.22c8.237-.379 14.426-2.012 14.426-3.968 0-1.955-6.19-3.588-14.426-3.97Zm0 6.731v-.004c-.206.015-1.27.08-3.642.08-1.893 0-3.226-.057-3.695-.08v.006c-7.29-.32-12.731-1.59-12.731-3.109 0-1.517 5.44-2.786 12.73-3.112v4.957c.477.034 1.842.115 3.728.115 2.264 0 3.398-.094 3.61-.113v-4.955c7.275.324 12.703 1.593 12.703 3.108 0 1.519-5.428 2.785-12.703 3.107Z" fill="#A7BED3"/>
    </g>
    <defs>
        <clipPath id="bja">
            <path fill="#fff" d="M0 0h60v60H0z"/>
        </clipPath>
    </defs>
</svg></svg>