<?xml version="1.0" encoding="utf-8"?><svg viewBox="0 0 232 116" xmlns="http://www.w3.org/2000/svg" xmlns:xlink="http://www.w3.org/1999/xlink"><style>:root>svg{display:none}:root>svg:target{display:block}</style><svg fill="none" viewBox="0 0 16 9" id="accordion-arrow" xmlns="http://www.w3.org/2000/svg">
    <path d="M7.318 8.133a1 1 0 0 0 1.364 0l6.122-5.71c.664-.618.226-1.73-.682-1.73H1.878c-.908 0-1.346 1.112-.682 1.73l6.122 5.71Z" fill="#39D24E"/>
</svg><svg fill="none" viewBox="0 0 60 60" id="anonim" xmlns="http://www.w3.org/2000/svg">
    <path d="M52.5 45h-2.57a1.854 1.854 0 0 0-1.233-1.343 24.695 24.695 0 0 0-14.892 0A1.855 1.855 0 0 0 32.572 45H27.43a1.854 1.854 0 0 0-1.232-1.343 24.695 24.695 0 0 0-14.893 0A1.85 1.85 0 0 0 10.073 45H7.5a2.5 2.5 0 0 0 0 5H10v.502c0 3.083 2.275 5.68 5.41 6.183l4.582.73a6.553 6.553 0 0 0 5.316-1.477 6.18 6.18 0 0 0 2.192-4.703V50h5v1.235c0 1.8.797 3.513 2.193 4.703a6.556 6.556 0 0 0 5.315 1.477l4.582-.73c3.135-.5 5.41-3.1 5.41-6.183V50h2.5a2.5 2.5 0 0 0 0-5Zm-10-26.582v-3.58c0-2.383-1.2-4.56-3.212-5.83a6.82 6.82 0 0 0-6.638-.38l-.775.222A3.852 3.852 0 0 0 28.03 5h-3.655a6.887 6.887 0 0 0-6.875 6.887v6.53C7.18 20 0 23.465 0 27.5c0 5.523 13.432 10 30 10 16.568 0 30-4.477 30-10 0-4.035-7.18-7.5-17.5-9.082Z" fill="#39D24E"/>
</svg><svg fill="none" viewBox="0 0 12 12" id="arrow-down" xmlns="http://www.w3.org/2000/svg">
    <path d="m2.305 3.5-.805.805 4.5 4.5 4.5-4.5-.805-.805L6 7.195 2.305 3.5Z" fill="#fff"/>
</svg><svg fill="none" viewBox="0 0 60 60" id="basket" xmlns="http://www.w3.org/2000/svg">
    <path d="M25.747 29.673H4.54a3.199 3.199 0 0 1-1.224-6.151c.388-.16.804-.243 1.224-.243h17.65l3.556 6.394Zm32.91-3.197a3.202 3.202 0 0 1-3.197 3.197H34.55a5.042 5.042 0 0 0-.036-4.773l-.905-1.62H55.46a3.199 3.199 0 0 1 3.197 3.196Zm-25.71-.707-9.26-16.657c-.843-1.55-2.817-2.1-4.352-1.245-1.54.851-2.096 2.803-1.236 4.352l9.25 16.648c.804 1.526 2.803 2.119 4.344 1.263 1.522-.799 2.115-2.798 1.254-4.361Zm-2.606 1.499a.907.907 0 0 1-1.437-.423.885.885 0 0 1 .283-.948l.02-.015a.898.898 0 0 1 1.436.429.895.895 0 0 1-.302.957Zm2.606 4.196a5.012 5.012 0 0 1-5.588 0H5.749l4.093 18.878c.296 1.272 1.442 2.194 2.732 2.194h34.853c1.29 0 2.436-.922 2.732-2.203l4.092-18.869H32.947ZM15.87 49.002l-2.463-13.894 1.763-.313 2.463 13.895-1.763.312Zm6.613-.077L21.252 35.03l1.784-.157 1.233 13.894-1.785.158Zm8.412-.079h-1.791V34.951h1.791v13.895Zm6.62.08-1.784-.16 1.231-13.893 1.784.157-1.231 13.895Zm6.613.076-1.763-.313 2.463-13.894 1.765.313-2.465 13.894Z" fill="#39D24E"/>
</svg><svg fill="none" viewBox="0 0 60 60" id="bitcoin" xmlns="http://www.w3.org/2000/svg">
    <path d="M36.723 25.675c-.93 3.72-6.72 1.83-8.521 1.32l1.65-6.54c1.86.54 7.83 1.32 6.87 5.22Zm-9.331 4.68-1.8 7.23c2.22.57 9.09 2.76 10.11-1.32 1.08-4.26-6.09-5.37-8.31-5.91Zm31.712 6.9c-4.02 16.082-20.281 25.862-36.362 21.842C6.66 55.077-3.111 38.815.9 22.734A29.99 29.99 0 0 1 37.263.893c16.05 4.02 25.831 20.281 21.841 36.362Zm-22.471-19.11 1.35-5.401-3.3-.75-1.32 5.19c-.87-.21-1.74-.42-2.64-.6l1.32-5.31-3.271-.78-1.35 5.37c-.72-.18-1.44-.33-2.1-.51l-4.53-1.14-.9 3.51s2.46.57 2.4.6c1.35.33 1.59 1.17 1.53 1.92l-3.69 14.791c-.15.42-.63.96-1.5.81.03.03-2.4-.6-2.4-.6l-1.621 3.75 4.26 1.08c.81.21 1.59.42 2.37.6l-1.38 5.461 3.3.84 1.35-5.43c.9.24 1.77.45 2.61.69l-1.35 5.37 3.301.84 1.38-5.46c5.55 1.05 9.81.63 11.551-4.44 1.5-4.05 0-6.45-3-7.981 2.16-.57 3.78-1.92 4.23-4.86.6-3.99-2.46-6.12-6.6-7.56Z" fill="#A7BED3"/>
</svg><svg fill="none" viewBox="0 0 24 24" id="calendar" xmlns="http://www.w3.org/2000/svg">
    <g clip-path="url(#afa)">
        <mask id="afb" style="mask-type:luminance" maskUnits="userSpaceOnUse" x="0" y="0" width="24" height="24">
            <path d="M0 0h24v24H0V0Z" fill="#fff"/>
        </mask>
        <g mask="url(#afb)">
            <mask id="afc" style="mask-type:luminance" maskUnits="userSpaceOnUse" x="0" y="0" width="24" height="24">
                <path d="M0 0h24v24H0V0Z" fill="#fff"/>
            </mask>
            <g mask="url(#afc)" fill="#fff">
                <path d="M19.25 4.001h-2.5v-1.25c0-.41-.34-.75-.75-.75s-.75.34-.75.75v1.25H8.751v-1.25c0-.41-.34-.75-.75-.75s-.75.34-.75.75v1.25h-2.5c-.96 0-1.75.79-1.75 1.75V19.25c.001.96.79 1.75 1.75 1.75H19.25c.96 0 1.75-.79 1.75-1.75V5.751c0-.96-.79-1.75-1.75-1.75Zm-14.498 1.5h14.497c.14 0 .25.11.25.25v2.25H4.502V5.75c0-.14.11-.25.25-.25ZM19.249 19.5H4.752c-.14 0-.25-.11-.25-.25V9.5h14.997v9.748c0 .14-.11.25-.25.25Z"/>
                <path d="M8 12c-.55 0-.999.45-.999 1s.45 1 1 1h.01c.55 0 1-.45 1-1-.01-.55-.46-1-1.01-1Zm4 0c-.56 0-1 .45-1 1s.45 1 1 1 1-.45 1-1-.44-1-1-1Zm4 0c-.56 0-1 .45-1 1s.45 1 1 1 1-.45 1-1-.45-1-1-1Zm-8 3.5c-.55 0-.999.45-.999 1s.45 1 1 1h.01c.55 0 1-.45 1-1-.01-.55-.46-1-1.01-1Zm4 0c-.56 0-1 .45-1 1s.45 1 1 1 1-.45 1-1-.44-1-1-1Z"/>
            </g>
        </g>
    </g>
    <defs>
        <clipPath id="afa">
            <path fill="#fff" d="M0 0h24v24H0z"/>
        </clipPath>
    </defs>
</svg><svg fill="none" viewBox="0 0 24 24" id="check" xmlns="http://www.w3.org/2000/svg">
    <path fill-rule="evenodd" clip-rule="evenodd" d="M20.232 5.145a1.125 1.125 0 0 1 .122 1.587l-9 10.5a1.126 1.126 0 0 1-1.65.063l-5.25-5.25a1.125 1.125 0 0 1 1.591-1.59l4.392 4.39 8.21-9.577a1.125 1.125 0 0 1 1.585-.123Z" fill="#fff"/>
</svg><svg fill="none" viewBox="0 0 24 24" id="ci_check" xmlns="http://www.w3.org/2000/svg">
    <path d="m6 12 4.243 4.243 8.484-8.486" stroke="#fff" stroke-width="2" stroke-linecap="round" stroke-linejoin="round"/>
</svg><svg fill="none" viewBox="0 0 24 24" id="clock" xmlns="http://www.w3.org/2000/svg">
    <g clip-path="url(#aia)">
        <mask id="aib" style="mask-type:luminance" maskUnits="userSpaceOnUse" x="0" y="0" width="24" height="24">
            <path d="M0 0h24v24H0V0Z" fill="#fff"/>
        </mask>
        <g mask="url(#aib)">
            <mask id="aic" style="mask-type:luminance" maskUnits="userSpaceOnUse" x="0" y="0" width="24" height="24">
                <path d="M0 0h24v24H0V0Z" fill="#fff"/>
            </mask>
            <g mask="url(#aic)" fill="#fff">
                <path d="M19.071 4.928c-3.9-3.9-10.244-3.9-14.144 0A9.936 9.936 0 0 0 1.998 12a9.936 9.936 0 0 0 2.93 7.072 9.97 9.97 0 0 0 7.071 2.925 9.97 9.97 0 0 0 7.072-2.925A9.936 9.936 0 0 0 22.001 12a9.936 9.936 0 0 0-2.93-7.072ZM18.01 18.01c-3.314 3.313-8.706 3.314-12.02 0A8.443 8.443 0 0 1 3.5 12c0-2.27.885-4.404 2.49-6.01A8.472 8.472 0 0 1 12 3.506c2.176 0 4.352.829 6.009 2.486a8.443 8.443 0 0 1 2.49 6.01c0 2.27-.885 4.404-2.49 6.009Z"/>
                <path d="M12.752 11.691V7.792a.751.751 0 1 0-1.502 0v4.211c0 .211.087.401.227.538l4.243 4.243a.747.747 0 0 0 .531.22.751.751 0 0 0 .531-1.282l-4.03-4.03Z"/>
            </g>
        </g>
    </g>
    <defs>
        <clipPath id="aia">
            <path fill="#fff" d="M0 0h24v24H0z"/>
        </clipPath>
    </defs>
</svg><svg fill="none" viewBox="0 0 60 60" id="contacts-compliance" xmlns="http://www.w3.org/2000/svg">
    <path d="M56.637 34.7c.281-1.595 2.66-3.036 2.66-4.7 0-1.664-2.379-3.105-2.66-4.7-.282-1.628 1.453-3.796.902-5.32-.562-1.547-3.293-2.085-4.113-3.503-.82-1.418.07-4.055-.985-5.31-1.054-1.253-3.808-.831-5.062-1.886-1.254-1.054-1.313-3.832-2.73-4.664-1.407-.82-3.844.516-5.403-.047-1.523-.55-2.531-3.152-4.16-3.433C33.492.855 31.664 2.953 30 2.953c-1.664 0-3.504-2.086-5.086-1.816-1.629.28-2.637 2.882-4.16 3.433-1.547.563-3.985-.773-5.402.047-1.418.82-1.477 3.61-2.73 4.664-1.255 1.055-4.009.633-5.063 1.887-1.055 1.254-.164 3.89-.985 5.309-.82 1.406-3.55 1.945-4.113 3.503-.55 1.524 1.184 3.692.902 5.32-.281 1.595-2.66 3.036-2.66 4.7 0 1.664 2.379 3.105 2.66 4.7.282 1.628-1.453 3.796-.902 5.32.562 1.546 3.293 2.085 4.113 3.503.82 1.418-.07 4.055.985 5.309 1.054 1.254 3.808.832 5.062 1.887 1.254 1.054 1.313 3.832 2.73 4.664 1.407.82 3.844-.516 5.403.047 1.523.55 2.531 3.152 4.16 3.433 1.594.282 3.422-1.816 5.086-1.816 1.664 0 3.504 2.086 5.086 1.816 1.629-.281 2.637-2.883 4.16-3.433 1.547-.563 3.984.773 5.402-.047 1.418-.82 1.477-3.61 2.73-4.664 1.255-1.055 4.009-.633 5.063-1.887 1.055-1.254.164-3.89.985-5.309.82-1.406 3.55-1.945 4.113-3.504.55-1.523-1.184-3.69-.902-5.32ZM42.375 23.577 24.996 39.703a.945.945 0 0 1-1.242.035l-6.094-5.062a.933.933 0 0 1-.117-1.325l1.664-1.992a.933.933 0 0 1 1.324-.117l3.703 3.082L39.328 20.32a.941.941 0 0 1 1.324.047l1.77 1.899c.351.363.34.96-.047 1.312Z" fill="#39D24E"/>
</svg><svg fill="none" viewBox="0 0 60 60" id="contacts-press" xmlns="http://www.w3.org/2000/svg">
    <g clip-path="url(#aka)" fill="#39D24E">
        <path d="M40 20h12.5v12.5H40V20ZM5 57.5c2.758 0 5-2.24 5-5v-45H5c-2.76 0-5 2.242-5 5v40c0 1.928.752 3.67 1.95 5H5Z"/>
        <path d="M55 0H17.5c-2.76 0-5 2.243-5 5v47.5a7.495 7.495 0 0 1-6.25 7.373c.41.07.822.127 1.25.127H55a5 5 0 0 0 5-5V5c0-2.757-2.24-5-5-5ZM40 10h12.5a1.25 1.25 0 0 1 0 2.5H40a1.25 1.25 0 0 1 0-2.5Zm-7.5 40H20a1.25 1.25 0 0 1 0-2.5h12.5c.688 0 1.25.563 1.25 1.25 0 .688-.563 1.25-1.25 1.25Zm0-7.5H20a1.25 1.25 0 0 1 0-2.5h12.5c.688 0 1.25.563 1.25 1.25 0 .688-.563 1.25-1.25 1.25Zm0-7.5H20a1.25 1.25 0 0 1 0-2.5h12.5c.688 0 1.25.563 1.25 1.25 0 .688-.563 1.25-1.25 1.25Zm0-7.5H20a1.25 1.25 0 0 1 0-2.5h12.5a1.25 1.25 0 0 1 0 2.5Zm0-7.5H20a1.25 1.25 0 0 1 0-2.5h12.5a1.25 1.25 0 0 1 0 2.5Zm0-7.5H20a1.25 1.25 0 0 1 0-2.5h12.5a1.25 1.25 0 0 1 0 2.5Zm20 37.5H40c-.688 0-1.25-.563-1.25-1.25 0-.688.563-1.25 1.25-1.25h12.5c.688 0 1.25.563 1.25 1.25 0 .688-.563 1.25-1.25 1.25Zm0-7.5H40c-.688 0-1.25-.563-1.25-1.25 0-.688.563-1.25 1.25-1.25h12.5c.688 0 1.25.563 1.25 1.25 0 .688-.563 1.25-1.25 1.25Zm2.5-8.75c0 .688-.563 1.25-1.25 1.25h-15a1.253 1.253 0 0 1-1.25-1.25v-15a1.25 1.25 0 0 1 1.25-1.25h15A1.25 1.25 0 0 1 55 18.75v15Z"/>
    </g>
    <defs>
        <clipPath id="aka">
            <path fill="#fff" d="M0 0h60v60H0z"/>
        </clipPath>
    </defs>
</svg><svg fill="none" viewBox="0 0 60 60" id="contacts-sales" xmlns="http://www.w3.org/2000/svg">
    <path d="M48.38 44.772h.768a4.584 4.584 0 0 0 4.57-4.57V28.194a4.584 4.584 0 0 0-4.57-4.57h-.767a4.584 4.584 0 0 0-4.57 4.57v12.006a4.584 4.584 0 0 0 4.57 4.57Z" fill="#39D24E"/>
    <path d="M48.38 45.357c.405 0 .81.018 1.214-.023.72-.07 1.406-.27 2.039-.621a5.2 5.2 0 0 0 2.502-3.211c.152-.574.17-1.154.17-1.746V28.295c0-2.426-1.664-4.647-4.084-5.15-.54-.112-1.078-.118-1.623-.118-.592 0-1.178.053-1.746.235-1.325.422-2.479 1.383-3.088 2.642-.627 1.29-.54 2.643-.54 4.026v9.949c0 .715.065 1.424.323 2.098.498 1.295 1.482 2.373 2.76 2.93a5.182 5.182 0 0 0 2.074.45c.756.006.756-1.166 0-1.172-2.215-.017-3.979-1.833-3.984-4.037v-3.445c0-2.836-.024-5.666 0-8.502a4.03 4.03 0 0 1 1.306-2.947c.826-.756 1.852-1.037 2.947-1.037.493 0 .973-.006 1.453.117.551.14 1.073.393 1.518.744.95.762 1.5 1.904 1.512 3.123.023 2.783 0 5.56 0 8.344v3.58c0 .855-.235 1.658-.727 2.367a3.98 3.98 0 0 1-2.935 1.688c-.364.023-.727.011-1.09.011-.756-.006-.756 1.166 0 1.166Zm-37.523-.585h.768a4.584 4.584 0 0 0 4.57-4.57V28.194a4.584 4.584 0 0 0-4.57-4.57h-.768a4.584 4.584 0 0 0-4.57 4.57v12.006a4.584 4.584 0 0 0 4.57 4.57Z" fill="#39D24E"/>
    <path d="M10.858 45.357c.404 0 .808.018 1.213-.023.72-.07 1.406-.27 2.039-.621a5.2 5.2 0 0 0 2.502-3.211c.152-.574.17-1.154.17-1.746V28.295c0-2.426-1.665-4.647-4.084-5.15-.54-.112-1.079-.118-1.623-.118-.592 0-1.178.053-1.747.235-1.324.422-2.478 1.383-3.087 2.642-.627 1.29-.54 2.643-.54 4.026v9.949c0 .715.065 1.424.323 2.098.498 1.295 1.482 2.373 2.76 2.93a5.181 5.181 0 0 0 2.074.45c.756.006.756-1.166 0-1.172-2.215-.017-3.979-1.833-3.985-4.037v-3.445c0-2.836-.023-5.666 0-8.502a4.03 4.03 0 0 1 1.307-2.947c.826-.756 1.852-1.037 2.947-1.037.492 0 .973-.006 1.453.117.551.14 1.073.393 1.518.744.95.762 1.5 1.904 1.512 3.123.023 2.783 0 5.56 0 8.344v3.58c0 .855-.235 1.658-.727 2.367a3.98 3.98 0 0 1-2.935 1.688c-.364.023-.727.011-1.09.011-.756-.006-.756 1.166 0 1.166Z" fill="#39D24E"/>
    <path d="M9.217 40.201V26.35c0-1.284.03-2.56.205-3.838-.024.158-.041.31-.065.468.27-1.968.797-3.89 1.57-5.718l-.175.422a22.95 22.95 0 0 1 1.57-3.041c.293-.475.598-.932.926-1.383.082-.117.17-.229.252-.34.03-.041.065-.082.094-.123.187-.252-.281.357-.088.111.176-.222.351-.445.539-.656a22.687 22.687 0 0 1 2.97-2.924c.1-.082.2-.164.3-.24.1-.082.351-.264-.112.082.065-.047.123-.094.188-.14a22.812 22.812 0 0 1 4.77-2.748l-.423.175c1.828-.773 3.75-1.3 5.719-1.57-.158.023-.31.04-.469.064a22.58 22.58 0 0 1 6.03 0c-.159-.023-.311-.04-.47-.064 1.97.27 3.892.797 5.72 1.57l-.422-.176c1.049.446 2.068.973 3.04 1.57.475.294.932.598 1.383.926.118.082.229.17.34.252.041.03.082.065.123.094.252.188-.357-.281-.11-.088.222.176.444.352.655.54a22.682 22.682 0 0 1 3.164 3.269c.082.1.264.351-.082-.112.047.065.094.123.141.188a22.81 22.81 0 0 1 2.748 4.77l-.176-.422c.774 1.828 1.301 3.75 1.57 5.718-.023-.158-.04-.31-.064-.468.176 1.312.205 2.625.205 3.943v14.824c0 1.125.047 2.274-.1 3.393.024-.158.042-.31.065-.469a11.1 11.1 0 0 1-.726 2.666l.175-.422c-.27.645-.603 1.26-.99 1.84-.094.14-.193.275-.287.41-.217.305.258-.316.064-.082-.047.059-.093.123-.146.182a10.83 10.83 0 0 1-1.465 1.465c-.058.047-.117.1-.182.146-.24.193.346-.258.112-.088a10.911 10.911 0 0 1-2.28 1.3l.422-.175c-.855.352-1.746.598-2.666.727.158-.024.31-.041.469-.065-.95.13-1.91.1-2.865.1h-4.47c-.92 0-1.8.809-1.759 1.758.041.955.774 1.758 1.758 1.758h4.47c.563 0 1.132.011 1.694-.006 1.647-.041 3.217-.422 4.723-1.06 2.66-1.132 4.945-3.306 6.199-5.913a13.098 13.098 0 0 0 1.272-4.647c.035-.433.035-.867.035-1.3V25.512c-.006-2.877-.51-5.784-1.541-8.473a25.02 25.02 0 0 0-4.465-7.47 24.374 24.374 0 0 0-6.434-5.245c-2.46-1.383-5.185-2.355-7.98-2.789-3.024-.463-6.065-.404-9.065.24a23.994 23.994 0 0 0-7.775 3.205 24.661 24.661 0 0 0-6.258 5.72 24.368 24.368 0 0 0-3.973 7.564 24.308 24.308 0 0 0-1.113 7.33v14.584c0 .92.809 1.799 1.758 1.758.95-.018 1.758-.75 1.758-1.735Z" fill="#39D24E"/>
    <path d="M35.906 53.977a3.631 3.631 0 0 1-3.62 3.62h-3.938a3.6 3.6 0 0 1-2.555-1.06 3.642 3.642 0 0 1-1.06-2.572c0-1.992 1.628-3.633 3.62-3.633h3.932c.996 0 1.899.422 2.555 1.078a3.633 3.633 0 0 1 1.066 2.567Z" fill="#39D24E"/>
    <path d="M34.734 53.977c0 .082 0 .164-.006.246 0 .029-.006.052-.006.082-.012.129-.012.105.012-.077.023.012-.07.352-.083.387-.011.035-.087.363-.123.37.018-.047.041-.094.06-.135-.024.047-.042.093-.065.14-.036.07-.07.135-.112.205-.04.065-.076.13-.123.194-.011.023-.029.04-.04.064-.06.082-.06.082 0 .006.017-.018.029-.041.046-.059-.03.041-.064.077-.1.118-.052.058-.1.11-.152.17-.088.093-.187.175-.281.257-.188.164.17-.093.023-.023-.076.04-.146.1-.222.146a6.305 6.305 0 0 1-.34.182c-.24.123.252-.082-.006 0a1.637 1.637 0 0 0-.182.065c-.14.04-.275.07-.422.1-.228.052.077-.013.077-.007-.012.03-.288.024-.323.024-.175.005-.345 0-.521 0h-3.586c-.082 0-.158-.012-.24-.012a1.37 1.37 0 0 0 .076.012l-.182-.035c-.152-.03-.293-.077-.445-.124-.287-.088.21.118-.059-.017-.064-.035-.134-.065-.199-.106-.135-.076-.305-.158-.416-.27.182.177.065.054.03.018-.089-.082-.176-.158-.258-.246-.053-.052-.1-.111-.153-.17-.123-.129.147.229-.012-.011-.081-.13-.163-.252-.234-.387-.04-.076-.088-.158-.117-.246.1.281.006-.018-.012-.059-.053-.164-.134-.369-.129-.539-.005.252.012.094.006.03 0-.094-.011-.194-.011-.288 0-.04-.012-.386.023-.404a1.36 1.36 0 0 1-.023.152 1.51 1.51 0 0 1 .029-.158c.012-.053.023-.105.035-.152a2.45 2.45 0 0 1 .064-.223c.012-.035.094-.34.047-.152-.04.176.018-.035.035-.07.036-.07.07-.135.112-.206.023-.046.175-.328.21-.322-.029.041-.058.076-.087.117.03-.04.064-.076.1-.117.035-.04.064-.076.099-.111.106-.111.217-.211.334-.31.2-.176-.217.14.006 0 .064-.042.129-.089.193-.124.112-.064.223-.123.34-.181.223-.117-.187.047-.03.011.06-.011.124-.047.182-.064.153-.047.305-.082.457-.111.27-.059-.275.017.006 0 .053-.006.106-.006.159-.012.058 0 .123-.006.181-.006h3.973c.082 0 .158.006.24.012.135.011.123.011-.03-.006l.182.035c.153.035.405.059.528.158-.158-.123-.106-.053-.03-.011.106.052.217.105.317.17.064.04.129.081.187.123.246.17-.082-.094.082.064.13.123.258.252.381.38.205.212-.123-.198.035.048.047.076.1.146.147.228.047.076.088.158.129.24.04.077.176.247.03.053.093.123.122.375.157.527.012.065.112.334.018.06.03.087.012.245.012.357.005.615.533 1.2 1.171 1.171.627-.029 1.178-.515 1.172-1.171-.023-1.776-1.037-3.522-2.671-4.29a5.058 5.058 0 0 0-2.15-.503h-3.37c-1.008 0-1.963.105-2.865.603-1.377.756-2.25 2.162-2.432 3.703-.21 1.782.692 3.522 2.168 4.506.943.627 2.016.768 3.111.768h2.584c1.084 0 2.104-.053 3.094-.569 1.553-.814 2.514-2.484 2.531-4.224.006-.615-.545-1.201-1.172-1.172-.638.035-1.166.521-1.171 1.178Z" fill="#39D24E"/>
</svg><svg fill="none" viewBox="0 0 60 60" id="contacts-support" xmlns="http://www.w3.org/2000/svg">
    <path d="M32.015 3.281C17.39 3.375 5.484 15.375 5.437 30.001c0 4.687 1.219 9.14 3.375 12.937a16.336 16.336 0 0 1-2.437 3.89c-.657.703-1.407 1.406-2.297 2.016-.844.61-1.782 1.078-2.766 1.5-.328.14-.14.328.047.422.328.14.656.328 1.031.468.703.282 1.406.516 2.11.704 1.218.375 2.578.515 3.89.562 1.36.047 2.766-.094 4.125-.281 1.219-.235 2.39-.469 3.563-.844a26.685 26.685 0 0 0 16.125 5.39c14.765 0 26.718-11.952 26.718-26.718 0-14.86-12.093-26.86-26.906-26.766Zm.047 42.188c-1.5 0-2.766-1.266-2.766-2.766a2.77 2.77 0 0 1 2.766-2.765c1.547-.047 2.766 1.171 2.813 2.718 0 1.547-1.172 2.813-2.813 2.813Zm4.875-15.047c-.937.844-2.016 1.64-2.11 3.047a34.137 34.137 0 0 0-.14 3.094c.047.562-.187.75-.75.703-.656-.047-1.312 0-1.922 0H29.86c-.375 0-.563-.14-.563-.563-.046-2.015-.093-4.687.797-6.515 1.078-2.391 3.703-3.141 5.203-5.204 3.75-5.109-5.671-8.53-7.593-2.203-.282.938-.328.938-1.313.797-1.219-.14-2.437-.328-3.656-.469-.469-.046-.656-.234-.61-.703.75-7.968 12-10.265 17.438-5.484 1.64 1.406 2.719 3.516 2.719 5.672-.047 3.469-3.094 5.765-5.344 7.828Z" fill="#39D24E"/>
</svg><svg fill="none" viewBox="0 0 30 30" id="crunchbase" xmlns="http://www.w3.org/2000/svg">
    <g clip-path="url(#ana)">
        <path d="M27.002 0H2.998A3.011 3.011 0 0 0 0 2.998v24.004A3.011 3.011 0 0 0 2.998 30h24.004A3.012 3.012 0 0 0 30 27.002V2.998A3.011 3.011 0 0 0 27.002 0ZM8.809 18.08a2.634 2.634 0 0 0 3.491-1.303h2.076c-1.294 5.297-9.092 4.36-9.092-1.095 0-5.459 7.798-6.396 9.092-1.094H12.3c-.762-1.674-2.963-2.075-4.263-.771-1.304 1.298-.904 3.5.772 4.263Zm14.18 1.055c-.393.34-.843.608-1.329.792a4.601 4.601 0 0 1-4.234-.479v.479h-1.89V6.713h1.875v5.137a4.667 4.667 0 0 1 2.251-.787H20c4.267-.009 6.23 5.303 2.989 8.071v.001Zm-.279-3.456a2.629 2.629 0 1 1-5.258 0c.073-3.428 5.18-3.428 5.258 0Z" fill="#fff"/>
    </g>
    <defs>
        <clipPath id="ana">
            <path fill="#fff" d="M0 0h30v30H0z"/>
        </clipPath>
    </defs>
</svg><svg fill="none" viewBox="0 0 66 66" id="currency-exchange-rounded" xmlns="http://www.w3.org/2000/svg">
    <path d="M33.413 44.413c1.512 0 2.807-.355 3.885-1.065 1.078-.71 1.616-1.821 1.614-3.335 0-1.33-.56-2.407-1.682-3.232-1.122-.825-3.128-1.764-6.017-2.819-2.705-.962-4.687-2.108-5.946-3.437-1.26-1.33-1.89-3.07-1.892-5.225 0-1.88.654-3.586 1.96-5.12 1.308-1.535 3.084-2.532 5.328-2.992v-1.032c0-.641.24-1.202.723-1.683.482-.48 1.043-.721 1.683-.723.641 0 1.203.241 1.685.723.483.482.723 1.043.721 1.683v1.032c1.33.091 2.556.539 3.68 1.341a9.683 9.683 0 0 1 2.714 2.921c.32.504.343 1.043.069 1.617-.276.574-.734.974-1.376 1.202a2.665 2.665 0 0 1-1.787.069 2.736 2.736 0 0 1-1.444-1.032 5.256 5.256 0 0 0-1.719-1.339c-.687-.343-1.512-.515-2.474-.517-1.605 0-2.831.344-3.68 1.031-.849.688-1.272 1.627-1.27 2.819 0 1.192.527 2.131 1.58 2.819 1.055.687 2.957 1.49 5.707 2.406 3.3 1.192 5.5 2.59 6.6 4.194 1.1 1.604 1.65 3.368 1.65 5.294 0 1.329-.23 2.497-.688 3.506a8.081 8.081 0 0 1-1.823 2.58 9.063 9.063 0 0 1-2.645 1.715 16.262 16.262 0 0 1-3.232.998v1.032c0 .641-.24 1.203-.72 1.685-.48.483-1.042.723-1.686.721-.641 0-1.202-.24-1.683-.72-.48-.48-.721-1.043-.723-1.686v-1.169c-1.742-.367-3.231-1.054-4.469-2.063-1.237-1.008-2.223-2.291-2.956-3.85-.275-.641-.263-1.26.036-1.856a2.434 2.434 0 0 1 1.408-1.237 2.308 2.308 0 0 1 1.787.033 2.81 2.81 0 0 1 1.375 1.204c.642 1.192 1.456 2.074 2.442 2.646.987.572 2.075.859 3.265.86ZM33 63.25c-5.133 0-9.854-1.169-14.163-3.506C14.53 57.406 11 54.29 8.25 50.394V55c0 .78-.264 1.433-.792 1.96-.528.529-1.18.792-1.958.79-.78 0-1.432-.264-1.958-.792s-.79-1.18-.792-1.958V44c0-.78.264-1.432.792-1.958s1.18-.79 1.958-.792h11c.78 0 1.433.264 1.96.792.529.528.792 1.18.79 1.958 0 .78-.264 1.433-.792 1.96-.528.529-1.18.792-1.958.79h-4.056c2.2 3.3 5.1 5.958 8.698 7.975C24.741 56.742 28.694 57.75 33 57.75c6.462 0 12.02-2.154 16.673-6.462 4.653-4.309 7.3-9.603 7.94-15.882.091-.733.412-1.318.962-1.754.55-.437 1.192-.654 1.925-.652.78 0 1.444.241 1.994.723s.779 1.066.687 1.752c-.32 3.896-1.329 7.528-3.025 10.895-1.696 3.368-3.896 6.302-6.6 8.8-2.704 2.5-5.809 4.47-9.314 5.913-3.505 1.443-7.253 2.165-11.242 2.167Zm0-55c-6.462 0-12.02 2.154-16.67 6.463-4.652 4.308-7.299 9.602-7.942 15.88-.092.734-.413 1.319-.963 1.755-.55.437-1.192.654-1.925.652-.78 0-1.444-.24-1.994-.72s-.779-1.066-.687-1.755c.32-3.896 1.329-7.528 3.025-10.895 1.696-3.368 3.896-6.302 6.6-8.8 2.704-2.5 5.81-4.47 9.317-5.913C25.268 3.474 29.014 2.752 33 2.75c5.133 0 9.854 1.169 14.163 3.506C51.47 8.594 55 11.71 57.75 15.606V11c0-.78.264-1.432.792-1.958s1.18-.79 1.958-.792c.78 0 1.433.264 1.96.792.529.528.792 1.18.79 1.958v11c0 .78-.264 1.433-.792 1.96-.528.529-1.18.792-1.958.79h-11c-.78 0-1.432-.264-1.958-.792s-.79-1.18-.792-1.958c0-.78.264-1.432.792-1.958s1.18-.79 1.958-.792h4.056c-2.2-3.3-5.098-5.958-8.695-7.975C41.264 9.258 37.31 8.25 33 8.25Z" fill="#39D24E"/>
</svg><svg fill="none" viewBox="0 0 60 60" id="data-table" xmlns="http://www.w3.org/2000/svg">
    <path d="M10 22.308h40v-8.845c0-.385-.16-.738-.48-1.058-.322-.322-.674-.482-1.058-.482H11.538c-.383 0-.735.16-1.057.482-.32.32-.48.673-.48 1.058v8.845Zm0 12.885h40V24.808H10v10.385Zm1.537 12.885h36.925c.384 0 .736-.161 1.058-.483.32-.32.48-.672.48-1.057v-8.845H10v8.845c0 .385.16.737.48 1.057.322.322.674.483 1.057.483Zm2.888-28.943v-4.04h4.04v4.04h-4.04Zm0 12.885v-4.04h4.04v4.04h-4.04Zm0 12.885v-4.04h4.04v4.04h-4.04Z" fill="#39D24E"/>
</svg><svg fill="none" viewBox="0 0 30 30" id="discord" xmlns="http://www.w3.org/2000/svg">
    <g clip-path="url(#aqa)">
        <path d="M25.396 5.615a24.995 24.995 0 0 0-6.106-1.863.094.094 0 0 0-.099.045 17.021 17.021 0 0 0-.76 1.538 23.207 23.207 0 0 0-6.859 0 15.429 15.429 0 0 0-.77-1.538.096.096 0 0 0-.1-.047c-2.142.362-4.192 1-6.106 1.864a.087.087 0 0 0-.04.033C.666 11.367-.4 16.944.124 22.451a.1.1 0 0 0 .038.069 25.04 25.04 0 0 0 7.492 3.725.098.098 0 0 0 .105-.033A17.29 17.29 0 0 0 9.29 23.76a.092.092 0 0 0-.051-.13A16.497 16.497 0 0 1 6.9 22.53a.093.093 0 0 1-.01-.156c.157-.116.315-.238.465-.359a.094.094 0 0 1 .097-.012c4.91 2.205 10.225 2.205 15.077 0a.094.094 0 0 1 .099.011c.15.122.306.244.465.36a.093.093 0 0 1 .024.124.094.094 0 0 1-.032.032 15.43 15.43 0 0 1-2.341 1.097.094.094 0 0 0-.052.13c.45.86.965 1.677 1.532 2.453a.096.096 0 0 0 .105.035c2.693-.81 5.23-2.07 7.502-3.726a.095.095 0 0 0 .04-.067c.625-6.368-1.047-11.9-4.436-16.803a.075.075 0 0 0-.039-.035ZM10.025 19.097c-1.478 0-2.696-1.336-2.696-2.975 0-1.64 1.195-2.974 2.696-2.974 1.512 0 2.72 1.346 2.696 2.974 0 1.64-1.195 2.976-2.696 2.976Zm9.969 0c-1.479 0-2.697-1.336-2.697-2.975 0-1.64 1.194-2.974 2.697-2.974 1.512 0 2.72 1.346 2.696 2.974 0 1.64-1.183 2.976-2.696 2.976Z" fill="#fff"/>
    </g>
    <defs>
        <clipPath id="aqa">
            <path fill="#fff" d="M0 0h30v30H0z"/>
        </clipPath>
    </defs>
</svg><svg fill="none" viewBox="0 0 60 60" id="dogecoin" xmlns="http://www.w3.org/2000/svg">
    <g clip-path="url(#ara)">
        <path d="M30.72 19.77h-4.287v8.45h6.742v3.538h-6.742v8.45h4.497c1.155 0 9.485.13 9.473-9.833-.013-9.96-8.08-10.605-9.683-10.605ZM30 0C13.432 0 0 13.432 0 30c0 16.568 13.432 30 30 30 16.568 0 30-13.432 30-30C60 13.432 46.568 0 30 0Zm1.18 46.203H20.315V31.757h-3.83V28.22h3.83V13.778h9.325c2.205 0 16.818-.458 16.818 16.484-.003 17.22-15.278 15.94-15.278 15.94Z" fill="#A7BED3"/>
    </g>
    <defs>
        <clipPath id="ara">
            <path fill="#fff" d="M0 0h60v60H0z"/>
        </clipPath>
    </defs>
</svg><svg fill="none" viewBox="0 0 60 60" id="ephirium" xmlns="http://www.w3.org/2000/svg">
    <g clip-path="url(#ata)">
        <path d="m41.56 34.8 6.795 6.79-18.382 18.382-18.383-18.38 6.793-6.792 11.59 11.65L41.56 34.8Zm11.593-11.59L60 30l-6.788 6.79L46.42 30l6.733-6.79Zm-23.18 0 6.79 6.73-6.793 6.793L23.18 30l6.793-6.79Zm-23.183 0L13.525 30l-6.73 6.73L0 30l6.79-6.79ZM29.975.03 48.35 18.35l-6.793 6.787L29.975 13.55 18.385 25.2l-6.793-6.79L29.975.03Z" fill="#A7BED3"/>
    </g>
    <defs>
        <clipPath id="ata">
            <path fill="#fff" d="M0 0h60v60H0z"/>
        </clipPath>
    </defs>
</svg><svg fill="none" viewBox="0 0 37 60" id="ephirium-2" xmlns="http://www.w3.org/2000/svg">
    <path d="M18.293 0 0 30.732l18.293 10.975 18.292-10.975L18.293 0ZM0 34.39 18.293 60l18.292-25.61-18.292 10.976L0 34.39Z" fill="#A7BED3"/>
</svg><svg fill="none" viewBox="0 0 21 16" id="explore-products-arrow" xmlns="http://www.w3.org/2000/svg">
    <path d="M20.707 8.707a1 1 0 0 0 0-1.414L14.343.929a1 1 0 1 0-1.414 1.414L18.586 8l-5.657 5.657a1 1 0 0 0 1.414 1.414l6.364-6.364ZM0 9h20V7H0v2Z" fill="#fff"/>
</svg><svg fill="none" viewBox="0 0 60 60" id="flag" xmlns="http://www.w3.org/2000/svg">
    <path d="M11.25 6.313V5A1.25 1.25 0 0 0 10 3.75H5A1.25 1.25 0 0 0 3.75 5v50A1.25 1.25 0 0 0 5 56.25h5A1.25 1.25 0 0 0 11.25 55V6.312Zm44.275 1.3a1.25 1.25 0 0 0-1.325.174c-6.913 5.763-13.863 2.875-21.25-.187C26.712 5 20.275 2.338 13.75 5v34c5.95-2.987 11.962-.5 18.275 2.125 4.425 1.85 8.925 3.75 13.5 3.75A15.525 15.525 0 0 0 55.8 40.962a1.25 1.25 0 0 0 .45-.962V8.75a1.25 1.25 0 0 0-.725-1.138Z" fill="#39D24E"/>
</svg><svg fill="none" viewBox="0 0 30 30" id="github" xmlns="http://www.w3.org/2000/svg">
    <g clip-path="url(#awa)">
        <mask id="awb" style="mask-type:luminance" maskUnits="userSpaceOnUse" x="0" y="0" width="30" height="30">
            <path d="M0 0h30v30H0V0Z" fill="#fff"/>
        </mask>
        <g mask="url(#awb)">
            <path fill-rule="evenodd" clip-rule="evenodd" d="M15 0C6.713 0 0 6.713 0 15c0 6.637 4.294 12.244 10.256 14.231.75.131 1.031-.319 1.031-.712 0-.356-.018-1.538-.018-2.794-3.769.694-4.744-.919-5.044-1.763-.169-.43-.9-1.762-1.537-2.118-.526-.282-1.275-.975-.02-.994 1.182-.019 2.026 1.087 2.307 1.537 1.35 2.27 3.506 1.632 4.369 1.238.131-.975.525-1.631.956-2.006-3.338-.375-6.825-1.669-6.825-7.406 0-1.632.581-2.982 1.538-4.032-.15-.375-.675-1.912.15-3.975 0 0 1.256-.394 4.124 1.538 1.2-.338 2.475-.506 3.75-.506s2.55.168 3.75.506c2.87-1.95 4.126-1.538 4.126-1.538.825 2.063.3 3.6.15 3.975.956 1.05 1.537 2.382 1.537 4.032 0 5.756-3.506 7.03-6.844 7.406.544.468 1.013 1.369 1.013 2.775 0 2.006-.019 3.619-.019 4.125 0 .394.281.862 1.031.712A15.025 15.025 0 0 0 30 15c0-8.287-6.712-15-15-15Z" fill="#fff"/>
        </g>
    </g>
    <defs>
        <clipPath id="awa">
            <path fill="#fff" d="M0 0h30v30H0z"/>
        </clipPath>
    </defs>
</svg><svg fill="none" viewBox="0 0 10 10" id="gravity-heck" xmlns="http://www.w3.org/2000/svg">
    <path fill-rule="evenodd" clip-rule="evenodd" d="M8.43 2.144a.469.469 0 0 1 .051.661L4.731 7.18a.469.469 0 0 1-.687.026L1.856 5.02a.469.469 0 0 1 .663-.663l1.83 1.83 3.42-3.991a.469.469 0 0 1 .661-.051Z" fill="#fff"/>
</svg><svg fill="none" viewBox="0 0 68 68" id="guard" xmlns="http://www.w3.org/2000/svg">
    <path d="M31.112 9.227c-6.57 3.86-13.57 6.1-20.83 6.69 1 21.55 7.94 35.38 20.64 41.11.75-.4 1.48-.82 2.19-1.27-.43-1.49-.66-3.08-.66-4.71 0-9.33 7.46-16.96 16.73-17.22.44-1.46.84-2.98 1.19-4.57.73-3.72 1.16-6.29 1.36-8.31.19-1.67.34-3.41.45-5.2-7.95-.72-15.03-2.91-21.07-6.52Zm4.06 28.43c.09.44-.25.86-.7.86h-6.47c-.45 0-.79-.42-.7-.86l1.13-5.57a4.829 4.829 0 0 1-2.08-3.99c0-2.7 2.19-4.89 4.9-4.88 2.68 0 5.01 2.47 4.86 5.14-.08 1.55-.87 2.9-2.07 3.73l1.13 5.57Z" fill="#39D24E"/>
    <path d="M56.562 9.397c-1.78-.08-3.51-.23-5.18-.45-2.52-.3-5.24-.92-8.11-1.76-3.87-1.2-7.36-2.86-10.49-4.94-.97-.65-2.25-.68-3.23-.05-7.33 4.69-15.16 7.17-23.52 7.31a2.981 2.981 0 0 0-2.94 3.05c.65 27.43 9.54 44.7 26.9 51.5.75.3 1.61.26 2.33-.09 1.35-.66 2.66-1.37 3.94-2.15a16.578 16.578 0 0 1-2.47-4.13c-.77.47-1.56.91-2.37 1.33-.05.03-.09.05-.14.06-.11.04-.22.05-.32.05-.16 0-.32-.03-.46-.1-13.87-6-21.38-20.82-22.26-44.01-.02-.54.4-1 .94-1.03 7.48-.45 14.69-2.73 21.42-6.78.32-.19.72-.19 1.04.01 6.13 3.77 13.41 6 21.67 6.61.54.05.95.51.92 1.05a99.54 99.54 0 0 1-.51 6.29c-.21 2.07-.64 4.7-1.4 8.5-.32 1.46-.68 2.87-1.08 4.22 1.67.15 3.28.54 4.78 1.15.46-1.56.88-3.19 1.26-4.89 1.77-8.93 1.65-10.79 2.11-17.15.01-.18.01-.35.02-.53.06-1.63-1.22-3-2.85-3.07Z" fill="#39D24E"/>
    <path d="M49.682 35.817c-8.407 0-15.226 6.82-15.226 15.227 0 8.396 6.819 15.215 15.226 15.215 8.408 0 15.227-6.82 15.227-15.215 0-8.394-6.806-15.227-15.227-15.227Zm5.594 12.45-6.957 6.956a.997.997 0 0 1-1.414 0l-2.816-2.815a1 1 0 1 1 1.414-1.414l2.109 2.108 6.25-6.249a1 1 0 1 1 1.414 1.414Z" fill="#39D24E"/>
</svg><svg fill="none" viewBox="0 0 15 15" id="hero-check" xmlns="http://www.w3.org/2000/svg">
    <path fill-rule="evenodd" clip-rule="evenodd" d="M12.645 3.216a.702.702 0 0 1 .076.991L7.096 10.77a.705.705 0 0 1-1.031.04L2.783 7.527a.703.703 0 0 1 .995-.994l2.745 2.744 5.131-5.986a.703.703 0 0 1 .99-.076Z" fill="#0C1220"/>
</svg><svg fill="none" viewBox="0 0 48 48" id="iconamoon_check" xmlns="http://www.w3.org/2000/svg">
    <path d="M40 14 20 34 10 24" stroke="#fff" stroke-width="2" stroke-linecap="round" stroke-linejoin="round"/>
</svg><svg fill="none" viewBox="0 0 60 60" id="lightning" xmlns="http://www.w3.org/2000/svg">
    <path d="M1.5 30.107C1.5 14.307 14.308 1.5 30.107 1.5c15.8 0 28.607 12.808 28.607 28.607 0 15.8-12.807 28.607-28.607 28.607-15.8 0-28.607-12.807-28.607-28.607Z" fill="#A7BED3"/>
    <path d="M34.542 11.036c-1.706 4.427-3.412 9.195-5.458 13.963 0 0 0 .68.682.68h13.986s0 .341.34.682L23.627 49.179c-.341-.341-.341-.682-.341-1.022l7.163-15.325v-1.363H16.121v-1.362l17.397-19.071h1.024Z" fill="#0C1220"/>
</svg><svg fill="none" viewBox="0 0 30 30" id="linkedIn" xmlns="http://www.w3.org/2000/svg">
    <path d="M16.25 26.25h-5v-15h5v2.5a5.773 5.773 0 0 1 4.406-2.204 5.625 5.625 0 0 1 5.594 5.642v9.062h-5v-8.438a2.831 2.831 0 0 0-2.809-2.43 2.269 2.269 0 0 0-2.191 2.43v8.438Zm-7.5 0h-5v-15h5v15Zm-2.5-17.5a2.5 2.5 0 1 1 0-5 2.5 2.5 0 0 1 0 5Z" fill="#fff"/>
</svg><svg fill="none" viewBox="0 0 60 60" id="litecoin" xmlns="http://www.w3.org/2000/svg">
    <g clip-path="url(#bda)">
        <path d="M30 0a30 30 0 1 0 0 60 30 30 0 0 0 0-60Zm-.655 9.195h6.46a.857.857 0 0 1 .825 1.088l-5.075 17.295 4.763-1.456-1.02 3.463-4.81 1.4-3.12 10.535h16.69a.857.857 0 0 1 .82 1.092l-1.456 5a1.147 1.147 0 0 1-1.1.825h-25.49l4.308-14.554-4.765 1.45 1.05-3.403 4.775-1.45 6.055-20.45a1.14 1.14 0 0 1 1.093-.835" fill="#A7BED3"/>
    </g>
    <defs>
        <clipPath id="bda">
            <path fill="#fff" d="M0 0h60v60H0z"/>
        </clipPath>
    </defs>
</svg><svg fill="none" viewBox="0 0 232 66" id="magento" xmlns="http://www.w3.org/2000/svg">
    <path d="M28.543 0 0 16.48V49.4l8.142 4.717-.06-32.919L28.483 9.414l20.4 11.781v32.903l8.16-4.698V16.46L28.541 0h.002Zm43.033 16.7v32.444H74.4V20.858h.1c.178.517.357 1.055.536 1.593.14.459.318.936.497 1.432.18.499.359.957.538 1.376l9.494 23.863h2.67l9.39-23.885c.14-.458.323-.933.52-1.45.17-.466.342-.932.52-1.395.177-.499.335-1.015.494-1.534h.1v28.284h2.949V16.7h-4.263L87.022 45.022h-.1L75.714 16.7l-4.138.001Zm129.572 1.753v7.225h-3.542v2.309h3.542v17.115c0 1.514.398 2.59 1.214 3.246.816.637 1.912.974 3.264.974.88 0 1.754-.14 2.589-.417v-2.407h-.138c-.259.118-.557.2-.836.257a4.426 4.426 0 0 1-1.015.12c-.757 0-1.316-.16-1.693-.477-.377-.317-.578-.897-.578-1.753V27.987h4.359v-2.31h-4.359v-7.224h-2.807ZM24.423 21.195l-8.143 4.698.022 32.94L28.5 65.88l12.243-7.045V25.895l-8.16-4.696v32.919l-4.06 2.367-4.1-2.347V21.195Zm138.869 3.94c-1.631 0-3.105.318-4.419.936a9.722 9.722 0 0 0-3.362 2.588 12.558 12.558 0 0 0-2.154 3.9 14.89 14.89 0 0 0-.774 4.878c0 1.753.258 3.382.736 4.876a11.523 11.523 0 0 0 2.11 3.9 9.703 9.703 0 0 0 3.424 2.589c1.352.616 2.907.917 4.68.877 2.646 0 4.774-.698 6.385-2.092 1.613-1.374 2.668-3.244 3.187-5.571h-2.726c-.459 1.613-1.215 2.885-2.291 3.84-1.075.955-2.585 1.434-4.555 1.434-1.334 0-2.51-.26-3.506-.736a6.817 6.817 0 0 1-2.466-1.99 9.256 9.256 0 0 1-1.496-2.967 13.83 13.83 0 0 1-.576-3.703h17.873a22.56 22.56 0 0 0-.495-4.758 12 12 0 0 0-1.713-4.098 8.928 8.928 0 0 0-3.126-2.846c-1.274-.697-2.864-1.056-4.736-1.056Zm57.9 0c-1.691 0-3.206.318-4.56.936a9.692 9.692 0 0 0-3.422 2.588c-.935 1.095-1.651 2.407-2.15 3.9a15.385 15.385 0 0 0-.757 4.878c0 1.753.261 3.382.757 4.876.499 1.491 1.215 2.806 2.15 3.9a9.93 9.93 0 0 0 3.422 2.589c1.354.616 2.869.915 4.56.935 1.691 0 3.205-.32 4.539-.935a9.879 9.879 0 0 0 3.402-2.589 11.413 11.413 0 0 0 2.131-3.9c.497-1.494.736-3.123.736-4.876-.02-1.75-.259-3.384-.736-4.877a11.222 11.222 0 0 0-2.131-3.9 9.876 9.876 0 0 0-3.402-2.589c-1.334-.616-2.846-.935-4.539-.935Zm-82.44.022a10.007 10.007 0 0 0-3.884.776 9.33 9.33 0 0 0-3.203 2.27c-.917.995-1.654 2.229-2.193 3.702-.536 1.472-.813 3.143-.813 5.056 0 1.71.221 3.302.697 4.736a10.913 10.913 0 0 0 2.03 3.703 9.203 9.203 0 0 0 3.185 2.407c1.254.578 2.628.857 4.181.857 1.771 0 3.243-.34 4.396-1.037 1.154-.698 2.169-1.71 3.045-3.045h.141v3.725c0 2.09-.598 3.739-1.791 4.933-1.194 1.197-3.045 1.793-5.553 1.793-1.693 0-3.167-.277-4.379-.876-1.235-.598-1.97-1.573-2.212-2.927h-2.724c.2 1.751 1.093 3.205 2.665 4.38 1.573 1.154 3.824 1.73 6.748 1.69 3.443 0 6.05-.935 7.842-2.805 1.452-1.613 2.192-3.701 2.192-6.308V25.636h-2.788v3.64h-.141c-.776-1.255-1.751-2.27-2.946-3.007-1.194-.736-2.682-1.111-4.495-1.111Zm-22.254.019c-3.025 0-5.296.696-6.827 2.048-1.534 1.374-2.369 3.186-2.529 5.455h2.77c.217-3.481 2.407-5.214 6.586-5.214 1.813 0 3.203.379 4.178 1.154.975.776 1.456 1.969 1.456 3.562v.46c0 .598-.122 1.072-.341 1.43-.239.34-.596.62-1.093.84-.498.199-1.155.377-1.95.516-.798.14-1.775.277-2.929.397-1.253.14-2.507.359-3.741.636a9.86 9.86 0 0 0-3.067 1.197 5.9 5.9 0 0 0-2.088 2.111c-.517.876-.776 2.008-.776 3.4 0 1.075.2 2.03.598 2.846a6.038 6.038 0 0 0 1.613 2.052c.722.56 1.547.972 2.427 1.214 1.003.284 2.042.418 3.083.399 1.115 0 2.112-.122 2.989-.36a10.105 10.105 0 0 0 2.308-.956 7.463 7.463 0 0 0 1.712-1.314c.419-.437.834-.915 1.195-1.414h.119v.5c.06 1.155.377 1.99.996 2.529.598.536 1.41.797 2.446.797a5.512 5.512 0 0 0 1.135-.121c.263-.075.521-.161.776-.26v-2.047h-.138c-.217.058-.417.117-.576.137a3.887 3.887 0 0 1-.479.038c-.518-.02-.895-.199-1.154-.516-.26-.32-.399-.816-.399-1.512V32.438c0-2.566-.758-4.415-2.231-5.55-1.474-1.134-3.5-1.712-6.069-1.712Zm71.118 0c-1.873 0-3.444.377-4.738 1.152a9.69 9.69 0 0 0-3.105 2.93h-.102v-3.584h-2.804v23.47h2.804V34.256c.001-.92.198-1.828.577-2.666a6.552 6.552 0 0 1 1.577-2.11 7.314 7.314 0 0 1 2.307-1.374 7.95 7.95 0 0 1 2.807-.498c1.652 0 2.964.417 3.919 1.252.955.836 1.432 2.132 1.432 3.923v16.38h2.809v-16.66c0-2.368-.698-4.18-2.109-5.433-1.396-1.255-3.205-1.89-5.374-1.89v-.004Zm-24.324 2.269c1.194 0 2.249.217 3.125.636a6.03 6.03 0 0 1 2.187 1.753c.578.736 1.015 1.613 1.314 2.628.314 1.053.482 2.145.499 3.244h-14.886c.117-1.114.358-2.211.757-3.266a8.355 8.355 0 0 1 1.512-2.606 6.489 6.489 0 0 1 2.329-1.753c.895-.417 1.948-.636 3.163-.636Zm57.922.038c1.294 0 2.447.26 3.44.78a7.116 7.116 0 0 1 2.489 2.127c.657.915 1.156 1.972 1.495 3.187a15.3 15.3 0 0 1 0 7.703 9.587 9.587 0 0 1-1.495 3.18 6.788 6.788 0 0 1-2.489 2.132c-.955.519-2.106.776-3.44.776s-2.509-.258-3.484-.776a7.325 7.325 0 0 1-2.488-2.131 9.61 9.61 0 0 1-1.512-3.181 15.3 15.3 0 0 1 0-7.703 9.245 9.245 0 0 1 1.512-3.187 7.323 7.323 0 0 1 2.488-2.128c1.033-.518 2.19-.78 3.484-.78Zm-82.302.043c1.272 0 2.385.218 3.34.677a6.608 6.608 0 0 1 2.391 1.928c.636.816 1.113 1.813 1.412 2.967.299 1.155.457 2.429.457 3.824 0 2.806-.635 5.072-1.869 6.803-1.254 1.733-3.165 2.588-5.793 2.588-1.232 0-2.309-.218-3.224-.694a6.5 6.5 0 0 1-2.27-1.95 8.935 8.935 0 0 1-1.355-2.95 13.623 13.623 0 0 1-.457-3.699c0-2.885.64-5.174 1.934-6.905 1.294-1.731 3.105-2.589 5.434-2.589Zm-16.742 8.918v4.22a6.26 6.26 0 0 1-1.989 4.576 7.717 7.717 0 0 1-2.468 1.571c-.995.4-2.112.599-3.406.617a9.484 9.484 0 0 1-1.988-.2 4.51 4.51 0 0 1-1.653-.696 3.794 3.794 0 0 1-1.133-1.314c-.299-.556-.44-1.232-.44-2.048 0-.997.181-1.812.538-2.429a4.019 4.019 0 0 1 1.473-1.473c.617-.377 1.373-.636 2.21-.798.834-.157 1.769-.317 2.764-.476a41.784 41.784 0 0 0 3.346-.577 9.66 9.66 0 0 0 2.746-.973Z" fill="#A7BED3"/>
</svg><svg fill="none" viewBox="0 0 30 30" id="medium" xmlns="http://www.w3.org/2000/svg">
    <path d="M5.465 9.08a.98.98 0 0 0-.315-.822L2.815 5.424V5h7.248l5.602 12.381L20.59 5h6.91v.424L25.504 7.35a.591.591 0 0 0-.222.565v14.168a.591.591 0 0 0 .222.565l1.95 1.927V25h-9.805v-.424l2.02-1.975c.198-.2.198-.258.198-.563V10.585l-5.615 14.367h-.757L6.958 10.585v9.63c-.054.404.08.813.362 1.105l2.626 3.21v.422H2.5v-.422l2.625-3.21a1.287 1.287 0 0 0 .34-1.105V9.08Z" fill="#fff"/>
</svg><svg fill="none" viewBox="0 0 60 60" id="nav-api" xmlns="http://www.w3.org/2000/svg">
    <path d="M11.25 45h12.336c-.353 1.755-1.406 3.553-3.22 5.366a1.25 1.25 0 0 0 .884 2.134h17.5a1.25 1.25 0 0 0 .884-2.134c-1.813-1.813-2.867-3.611-3.22-5.366H48.75a6.259 6.259 0 0 0 6.124-5H5.126a6.26 6.26 0 0 0 6.124 5Zm22.5-27.5h-2.5v5h2.5a2.5 2.5 0 1 0 0-5Z" fill="#39D24E"/>
    <path d="M48.75 7.5h-37.5A6.257 6.257 0 0 0 5 13.75V37.5h50V13.75a6.256 6.256 0 0 0-6.25-6.25Zm-22.5 21.25a1.25 1.25 0 0 1-2.5 0V25h-5v3.75a1.25 1.25 0 0 1-2.5 0V20a5 5 0 1 1 10 0v8.75Zm7.5-3.75h-2.5v3.75a1.25 1.25 0 0 1-2.5 0v-12.5A1.25 1.25 0 0 1 30 15h3.75a5 5 0 1 1 0 10Zm10 3.75a1.25 1.25 0 0 1-2.5 0v-12.5a1.25 1.25 0 0 1 2.5 0v12.5Z" fill="#39D24E"/>
    <path d="M21.25 17.5a2.503 2.503 0 0 0-2.5 2.5v2.5h5V20a2.503 2.503 0 0 0-2.5-2.5Z" fill="#39D24E"/>
</svg><svg fill="none" viewBox="0 0 70 70" id="nav-bankomat" xmlns="http://www.w3.org/2000/svg">
    <path d="M60.635 12.248H9.365c-.944 0-1.709.765-1.709 1.709v11.621c0 .944.765 1.71 1.71 1.71h10.573v26.36a3.424 3.424 0 0 0 3.42 3.42h23.282a3.424 3.424 0 0 0 3.42-3.42v-26.36h10.574c.944 0 1.709-.766 1.709-1.71V13.957c0-.944-.765-1.709-1.71-1.709ZM32.127 47.406a3.361 3.361 0 1 1-5.484-2.605 3.361 3.361 0 1 1 4.247 0 3.352 3.352 0 0 1 1.237 2.605Zm-4.34-25.93v3.706h-2.051v-3.705h2.05Zm4.01 8.416h-2.05v-8.415h2.05v8.415Zm6.148-8.415h5.277v33.54h-5.277v-33.54Zm20.98 2.392h-8.864v-2.392h3.054v-3.418h-36.23v3.418h3.054v2.392h-8.865v-8.203h47.852v8.203Z" fill="#39D24E"/>
</svg><svg fill="none" viewBox="0 0 60 60" id="nav-basket" xmlns="http://www.w3.org/2000/svg">
    <path d="M25.746 29.673H4.54a3.199 3.199 0 0 1-1.224-6.151c.388-.16.804-.243 1.224-.243h17.651l3.555 6.394Zm32.91-3.197a3.202 3.202 0 0 1-3.196 3.197H34.55a5.042 5.042 0 0 0-.037-4.773l-.904-1.62h21.85a3.199 3.199 0 0 1 3.198 3.196Zm-25.71-.707-9.26-16.657c-.842-1.55-2.817-2.1-4.352-1.245-1.54.851-2.095 2.803-1.235 4.352l9.25 16.648c.803 1.526 2.802 2.119 4.343 1.263 1.523-.799 2.116-2.798 1.254-4.361Zm-2.606 1.499a.907.907 0 0 1-1.436-.423.885.885 0 0 1 .283-.948l.02-.015a.898.898 0 0 1 1.435.429.895.895 0 0 1-.302.957Zm2.606 4.196a5.012 5.012 0 0 1-5.588 0H5.75l4.093 18.878c.295 1.272 1.442 2.194 2.731 2.194h34.854c1.29 0 2.436-.922 2.731-2.203l4.093-18.869H32.946ZM15.87 49.002l-2.462-13.894 1.762-.313 2.464 13.895-1.764.312Zm6.614-.077L21.252 35.03l1.784-.157 1.233 13.894-1.785.158Zm8.411-.079h-1.79V34.951h1.79v13.895Zm6.62.08-1.784-.16 1.232-13.893 1.783.157-1.23 13.895Zm6.614.076-1.764-.313 2.464-13.894 1.764.313-2.464 13.894Z" fill="#39D24E"/>
</svg><svg fill="none" viewBox="0 0 60 60" id="nav-blog" xmlns="http://www.w3.org/2000/svg">
    <path d="M52.5 7.5h-35C16 7.5 15 8.5 15 10v7.5H7.5C6 17.5 5 18.5 5 20v25c0 4.25 3.25 7.5 7.5 7.5H45c5.5 0 10-4.5 10-10V10c0-1.5-1-2.5-2.5-2.5ZM15 45c0 1.5-1 2.5-2.5 2.5S10 46.5 10 45V22.5h5V45Zm15-2.5h-2.5c-1.5 0-2.5-1-2.5-2.5s1-2.5 2.5-2.5H30c1.5 0 2.5 1 2.5 2.5s-1 2.5-2.5 2.5Zm0-10h-2.5c-1.5 0-2.5-1-2.5-2.5s1-2.5 2.5-2.5H30c1.5 0 2.5 1 2.5 2.5s-1 2.5-2.5 2.5Zm12.5 10H40c-1.5 0-2.5-1-2.5-2.5s1-2.5 2.5-2.5h2.5c1.5 0 2.5 1 2.5 2.5s-1 2.5-2.5 2.5Zm0-10H40c-1.5 0-2.5-1-2.5-2.5s1-2.5 2.5-2.5h2.5c1.5 0 2.5 1 2.5 2.5s-1 2.5-2.5 2.5Zm0-10h-15c-1.5 0-2.5-1-2.5-2.5s1-2.5 2.5-2.5h15c1.5 0 2.5 1 2.5 2.5s-1 2.5-2.5 2.5Z" fill="#39D24E"/>
</svg><svg fill="none" viewBox="0 0 70 70" id="nav-btob" xmlns="http://www.w3.org/2000/svg">
    <path d="M65.157 21.885 58.6 28.442l-6.557-6.557h5.19v-2.197a5.588 5.588 0 0 0-5.582-5.582h-6.63v-2.734h6.63c4.586 0 8.317 3.73 8.317 8.316v2.197h5.189ZM58.89 37.126a16.335 16.335 0 0 0-11.627-4.816c-4.392 0-8.52 1.71-11.626 4.816a16.337 16.337 0 0 0-4.815 11.626c0 4.392 1.71 8.52 4.815 11.626a16.335 16.335 0 0 0 11.626 4.816c4.392 0 8.521-1.71 11.627-4.816a16.335 16.335 0 0 0 4.816-11.626c0-4.392-1.71-8.52-4.816-11.626Zm-4.956 8.335a4.31 4.31 0 0 1-1.527 3.291 4.306 4.306 0 0 1 1.527 3.29v.083a4.32 4.32 0 0 1-4.316 4.316h-.542v1.988h-2.051V56.44h-1.629v1.934h-2.05v-1.934h-1.728v-2.05h1.728V43.113h-1.728v-2.05h1.728v-1.988h2.05v1.987h1.629v-1.987h2.05v1.987h.543a4.32 4.32 0 0 1 4.316 4.317v.081Zm-31.2-7.771c4.393 0 8.522-1.71 11.627-4.816a16.337 16.337 0 0 0 4.816-11.626c0-4.392-1.71-8.52-4.816-11.626a16.335 16.335 0 0 0-11.626-4.816c-4.392 0-8.521 1.71-11.627 4.816a16.335 16.335 0 0 0-4.816 11.626c0 4.392 1.71 8.52 4.816 11.626a16.335 16.335 0 0 0 11.627 4.816Zm-4.34-22.845a4.501 4.501 0 0 1 3.144-1.26h.171v-1.987h2.051v1.988h.171c2.313 0 4.196 1.832 4.196 4.084h-2.05c0-1.12-.963-2.034-2.146-2.034h-2.393c-.651 0-1.262.244-1.72.685a2.222 2.222 0 0 0-.693 1.608c0 1.265 1.082 2.293 2.413 2.293h2.393c1.185 0 2.302.448 3.144 1.26a4.255 4.255 0 0 1 1.32 3.084c0 2.395-2.002 4.344-4.464 4.344h-.17v1.988H21.71V28.91h-.17c-2.315 0-4.197-1.833-4.197-4.085h2.051c0 1.122.962 2.034 2.145 2.034h2.393c1.33 0 2.414-1.029 2.414-2.293 0-.605-.247-1.177-.694-1.608a2.46 2.46 0 0 0-1.72-.685h-2.393c-2.461 0-4.464-1.948-4.464-4.344 0-1.167.469-2.262 1.32-3.084Zm2.676 41.049h6.63v2.734h-6.63c-4.585 0-8.317-3.73-8.317-8.316v-2.197H7.566l6.557-6.557 6.557 6.557h-5.19v2.197a5.588 5.588 0 0 0 5.582 5.582Z" fill="#39D24E"/>
    <path d="M51.884 45.38v.081a2.267 2.267 0 0 1-2.265 2.266h-4.221v-4.613h4.22a2.267 2.267 0 0 1 2.266 2.266Zm0 6.663v.082a2.268 2.268 0 0 1-2.265 2.265h-4.221v-4.613h4.22a2.268 2.268 0 0 1 2.266 2.266Z" fill="#39D24E"/>
</svg><svg fill="none" viewBox="0 0 60 60" id="nav-career" xmlns="http://www.w3.org/2000/svg">
    <path d="M55.893 48.363V28.031a9.872 9.872 0 0 1-1.758 1.366 8.982 8.982 0 0 1-3.282 1.207c-1.57.24-3.193.146-4.78.146H34.845c-.041 0-.082 0-.123-.006v.727c0 .088.005.17 0 .258a.874.874 0 0 1-.85.85c-.838.04-1.688 0-2.531 0h-4.09c-.357 0-.715.005-1.072 0-.534-.013-.903-.37-.909-.909-.005-.305-.005-.615-.005-.92-.035.006-.076.006-.112.006h-.076c-1.594.023-3.193 0-4.787 0h-7.12c-1.757 0-3.556.111-5.255-.434a9.959 9.959 0 0 1-2.93-1.506 9.037 9.037 0 0 1-.879-.755v22.16c0 .164-.005.328.006.492a2.977 2.977 0 0 0 2.93 2.766c.38.005.756 0 1.137 0h44.707c1.71-.006 3-1.354 3.006-3.047v-2.069Zm-.012-29.396V16.95a2.972 2.972 0 0 0-2.924-2.765H40.084V9.809c0-.891-.252-1.735-.897-2.38-.603-.609-1.417-.89-2.267-.896H23.402c-.146 0-.293-.006-.433 0a3.098 3.098 0 0 0-3.047 3.047c-.035 1.53-.018 3.07-.006 4.606H7.131c-.785 0-1.518.27-2.098.808-.562.527-.861 1.248-.908 2.004v4.066c0 .176 0 .346.012.522.006.123.017.24.029.363 0 .018.006.035.006.053.03.17.053.34.088.504a8.663 8.663 0 0 0 .369 1.219c0 .005 0 .005.006.011.006.012.006.018.011.03.036.082.077.164.118.246.076.152.152.299.234.445.012.023.023.047.041.064.111.188.229.375.357.551.053.076.112.14.159.217l-.018-.035c.012.017.018.03.03.041.099.123.204.246.316.363.17.182.351.358.539.528.076.07.152.134.234.199.012.011.03.023.047.035.1.064.14.088.147.094-.006 0-.036-.024-.077-.047.123.082.24.176.364.258.328.21.668.398 1.02.562.34.106.157.065.046.024.012.005.018.005.03.011.099.036.193.076.292.106.188.064.375.123.563.176.205.052.41.1.621.14l.21.035c.042.006.083.006.118.012.522.047 1.049.035 1.57.035h13.565c.04 0 .082 0 .123.006V26.42c0-.41-.059-.85.275-1.154.287-.264.662-.223 1.02-.223h7.307c.456.023.779.34.837.78.006.023.006.046.006.07v1.945c.041-.006.082-.006.123-.006h.077c1.552-.03 3.105 0 4.652 0h9.656c.252 0 .498-.012.75-.035l.147-.018c.058-.011.123-.017.181-.029.205-.041.416-.082.621-.14.205-.053.405-.118.604-.188l.275-.106a8.52 8.52 0 0 0 1.365-.785l.164-.123.006-.006c.006-.006.018-.011.018-.017.082-.065.158-.135.234-.2.188-.163.364-.34.54-.527.11-.117.216-.234.316-.363.006-.012.017-.018.023-.03.047-.076.111-.152.164-.222.112-.158.217-.322.31-.486.018-.035.042-.07.06-.1a7.44 7.44 0 0 0 .251-.48c.035-.077.076-.159.112-.235a8.21 8.21 0 0 0 .363-1.19c.03-.128.053-.263.076-.392v-.03c0-.005 0-.01.006-.017.006-.058.018-.134.023-.181.012-.106.018-.217.024-.323l.017-.51v-1.16a28.229 28.229 0 0 1-.017-.972ZM37.17 9.604c0 .005 0 .011.007.011v.006c.006.03.012.047 0 .018-.006.006-.018-.006-.024-.018.03 1.524.018 3.047.006 4.57H22.846V9.627c-.018.023-.03.03-.035.023-.012.018-.012-.017-.006-.058-.03.035-.047.04 0-.012 0-.023.006-.04.011-.064.006-.012.006-.03.012-.041-.04 0-.03-.012.006-.018.006-.03.018-.04.018-.006.011 0 .023-.006.04-.006v-.011.005c.024-.005.042-.005.065-.011.023-.024.035-.03.041-.035l-.035.035c.047-.006.082-.006.064.006.006.005 0 .017-.023.035H36.51c.175 0 .346-.006.521 0-.011-.006-.017-.006-.023-.012-.041-.023-.03-.03 0-.035-.018-.012-.012-.012.006 0h.023c-.023-.018-.035-.03-.04-.035 0 0 .017.011.046.035.023 0 .047.006.07.006.012 0 .018.006.03.006 0-.012 0-.018.005-.018 0 0 .006.006.006.018.053.011.076.023 0 .029v.03c.018.005.03.01.035.01-.005 0-.023 0-.035-.005v.006c.006.006.018.012.03.023-.006 0-.012-.005-.024-.011 0 .011.006.017.006.029a.276.276 0 0 0 .059.059c-.018-.012-.035-.03-.053-.041v.04Z" fill="#39D24E"/>
</svg><svg fill="none" viewBox="0 0 60 60" id="nav-contact" xmlns="http://www.w3.org/2000/svg">
    <path d="M31.25 8.75a22.5 22.5 0 1 0 15.91 38.41 2.5 2.5 0 0 0-3.535-3.535A17.5 17.5 0 1 1 48.75 31.25a3.75 3.75 0 0 1-7.5 0 10 10 0 1 0-10 10 9.718 9.718 0 0 0 7.703-3.7 8.732 8.732 0 0 0 14.797-6.3 22.489 22.489 0 0 0-22.5-22.5Zm0 27.453a4.924 4.924 0 0 1-5-4.953 5 5 0 1 1 10 0 4.925 4.925 0 0 1-5 4.953Z" fill="#39D24E"/>
</svg><svg fill="none" viewBox="0 0 60 60" id="nav-docs" xmlns="http://www.w3.org/2000/svg">
    <path d="M29.685 54.95c.1.04.21.05.32.05.11 0 .21-.02.32-.05 10.63-3.57 18.05-14.82 18.05-27.35V10.93c0-.31-.14-.6-.39-.79-.24-.19-.56-.25-.86-.18-.11.03-10.85 2.65-16.32-4.56-.19-.25-.49-.4-.8-.4-.31 0-.61.15-.8.4-5.48 7.21-16.23 4.59-16.33 4.56-.3-.07-.62-.01-.86.18-.25.19-.39.48-.39.79V27.6c0 6.18 1.72 12.06 4.98 17.02 3.29 4.99 7.81 8.56 13.08 10.33Zm.31-34.32c3.18 0 5.76 2.58 5.76 5.75 0 1.88-.92 3.61-2.44 4.68l.87 4.11c.07.29-.01.6-.2.84-.19.23-.47.37-.77.37h-6.43c-.3 0-.59-.14-.78-.37-.19-.24-.26-.55-.2-.84l.88-4.11a5.714 5.714 0 0 1-2.44-4.68c0-3.17 2.58-5.75 5.75-5.75Z" fill="#39D24E"/>
</svg><svg fill="none" viewBox="0 0 60 60" id="nav-link" xmlns="http://www.w3.org/2000/svg">
    <g clip-path="url(#boa)">
        <path d="M25.58 25.578a12.5 12.5 0 0 1 17.225-.43l.453.43 7.07 7.072a12.5 12.5 0 0 1-17.225 18.108l-.45-.43-5.305-5.306a2.5 2.5 0 0 1 3.3-3.742l.235.207 5.305 5.305a7.5 7.5 0 0 0 10.942-10.25l-.337-.357-7.07-7.07a7.5 7.5 0 0 0-10.608 0 2.5 2.5 0 0 1-3.535-3.537ZM9.67 9.668a12.5 12.5 0 0 1 17.225-.43l.453.43 5.302 5.307a2.5 2.5 0 0 1-3.3 3.743l-.235-.208-5.302-5.303A7.5 7.5 0 0 0 12.868 23.45l.337.36 7.073 7.073a7.5 7.5 0 0 0 10.605 0 2.5 2.5 0 1 1 3.537 3.534 12.5 12.5 0 0 1-17.225.43l-.455-.43-7.07-7.072a12.5 12.5 0 0 1 0-17.678Z" fill="#39D24E"/>
    </g>
    <defs>
        <clipPath id="boa">
            <path fill="#fff" d="M0 0h60v60H0z"/>
        </clipPath>
    </defs>
</svg><svg fill="none" viewBox="0 0 60 60" id="nav-plugins" xmlns="http://www.w3.org/2000/svg">
    <path d="M31.146 11.46v6.792h-1.2a2.479 2.479 0 0 0-2.484 2.472 2.479 2.479 0 0 0 2.484 2.472h1.2v5.172h3.36c.54-2.1 2.46-3.672 4.728-3.672s4.188 1.572 4.728 3.672h4.548v-3.936a3.672 3.672 0 0 0 3.672-3.672 3.682 3.682 0 0 0-3.672-3.684V11.46h-4.416c-.059.12.335 5.328-4.872 5.328-5.194 0-4.825-5.208-4.884-5.328h-3.192Z" fill="#39D24E"/>
    <path d="M20.658 7.752a3.69 3.69 0 0 0-3.684 3.672H11.37v4.428c.12.057 5.436-.514 5.436 4.872 0 5.355-5.316 4.826-5.436 4.884v4.416h5.604c0 2.018 1.653 3.672 3.684 3.672a3.672 3.672 0 0 0 3.672-3.672h5.592l.024-5.628a3.682 3.682 0 0 1-3.684-3.672 3.682 3.682 0 0 1 3.684-3.672v-5.628H24.33a3.672 3.672 0 0 0-3.672-3.672ZM29.946 30.024h-.024v.024h.024v-.024Z" fill="#39D24E"/>
    <path d="M15.774 48.168c.712-2.775 1.396-4.956 4.872-4.956 4.89 0 4.82 4.836 4.884 4.956h4.416v-5.616a3.675 3.675 0 0 0 3.672-3.684 3.678 3.678 0 0 0-3.672-3.672v-3.972h-4.56a4.89 4.89 0 0 1-4.728 3.672 4.89 4.89 0 0 1-4.74-3.672h-4.572v3.972a3.672 3.672 0 0 0-3.672 3.672 3.69 3.69 0 0 0 3.672 3.684v5.616h4.428Z" fill="#39D24E"/>
    <path d="M42.906 48.168h5.616v-4.416c-.12-.059-5.328.31-5.328-4.884 0-5.208 5.208-4.813 5.328-4.872v-4.428h-5.616a3.672 3.672 0 1 0-7.344 0h-4.416v4.572c2.004.508 3.672 2.37 3.672 4.728 0 2.28-1.56 4.2-3.672 4.728v4.572h4.416a3.672 3.672 0 0 0 3.672 3.672c1.979 0 3.672-1.605 3.672-3.672Z" fill="#39D24E"/>
    <path d="M50.706 43.248c.66 0 1.2-.528 1.2-1.2v-1.356l6.876-.708v-2.22l-6.876-.708v-1.368c0-.66-.54-1.2-1.2-1.2h-1.008v.708c-.12.014-5.304-.629-5.304 3.672 0 4.48 5.095 3.62 5.304 3.684v.696h1.008Zm-33.24 8.676h1.368l.708 6.876h2.22l.708-6.876h1.356c.672 0 1.2-.54 1.2-1.2v-1.008h-.696v-1.62a3.681 3.681 0 0 0-3.684-3.684 3.675 3.675 0 0 0-3.672 3.684v1.62h-.708v1.008c0 .66.54 1.2 1.2 1.2Zm-8.16-35.58c-.672 0-1.2.54-1.2 1.2v1.368l-6.888.708v2.22l6.888.708v1.356c0 .672.528 1.2 1.2 1.2h.996v-.696c.122-.014 5.304.64 5.304-3.684 0-4.462-5.103-3.61-5.304-3.672v-.708h-.996Zm34.296-6.06v-.996c0-.672-.54-1.2-1.2-1.2h-1.368L40.326 1.2h-2.22l-.708 6.888h-1.356c-.672 0-1.2.528-1.2 1.2v.996h.696c.014.122-.64 5.304 3.684 5.304 4.462 0 3.61-5.103 3.672-5.304h.708Z" fill="#39D24E"/>
</svg><svg fill="none" viewBox="0 0 60 60" id="nav-security" xmlns="http://www.w3.org/2000/svg">
    <path d="M29.685 54.95c.1.04.21.05.32.05.11 0 .21-.02.32-.05 10.63-3.57 18.05-14.82 18.05-27.35V10.93c0-.31-.14-.6-.39-.79-.24-.19-.56-.25-.86-.18-.11.03-10.85 2.65-16.32-4.56-.19-.25-.49-.4-.8-.4-.31 0-.61.15-.8.4-5.48 7.21-16.23 4.59-16.33 4.56-.3-.07-.62-.01-.86.18-.25.19-.39.48-.39.79V27.6c0 6.18 1.72 12.06 4.98 17.02 3.29 4.99 7.81 8.56 13.08 10.33Zm.31-34.32c3.18 0 5.76 2.58 5.76 5.75 0 1.88-.92 3.61-2.44 4.68l.87 4.11c.07.29-.01.6-.2.84-.19.23-.47.37-.77.37h-6.43c-.3 0-.59-.14-.78-.37-.19-.24-.26-.55-.2-.84l.88-4.11a5.714 5.714 0 0 1-2.44-4.68c0-3.17 2.58-5.75 5.75-5.75Z" fill="#39D24E"/>
</svg><svg fill="none" viewBox="0 0 70 70" id="nav-terminal" xmlns="http://www.w3.org/2000/svg">
    <path d="M56.548 22.519h-10.03v-6.288a2.933 2.933 0 0 0-2.93-2.93h-2.88V8.506c0-.944-.765-1.709-1.709-1.709H18.491c-.944 0-1.709.765-1.709 1.71v4.796h-2.88a2.933 2.933 0 0 0-2.93 2.93V59.59a2.933 2.933 0 0 0 2.93 2.93h29.687a2.933 2.933 0 0 0 2.93-2.93v-6.993h10.029a3.168 3.168 0 0 0 3.164-3.164v-23.75a3.168 3.168 0 0 0-3.164-3.164Zm-20.283 28.02V47.12h3.418v3.418h-3.418Zm3.418 3.28v3.418h-3.418V53.82h3.418Zm-3.418-9.98v-3.418h3.418v3.418h-3.418Zm-18.457-7.99V25.595h21.875V35.85H17.808Zm9.228 14.69V47.12h3.418v3.418h-3.418Zm3.418 3.28v3.418h-3.418V53.82h3.418Zm-3.418-9.98v-3.418h3.418v3.418h-3.418Zm-9.228 6.7V47.12h3.418v3.418h-3.418Zm3.418 3.28v3.418h-3.418V53.82h3.418Zm-3.418-9.98v-3.418h3.418v3.418h-3.418ZM20.2 10.214h17.09v7.52h3.076v2.05H17.124v-2.05H20.2v-7.52ZM56.294 49.18h-9.775V25.937h3.719v18.115h3.418V25.937h2.638v23.242Z" fill="#39D24E"/>
</svg><svg fill="none" viewBox="0 0 66 66" id="nav-wallet" xmlns="http://www.w3.org/2000/svg">
    <path d="M54.223 26.544v-6.772a2.868 2.868 0 0 0-2.865-2.864h-.357V13.49a3.747 3.747 0 0 0-3.744-3.742H12.332a4.862 4.862 0 0 0-4.863 5.119.848.848 0 0 0-.007.109V47.31c0 4.18 3.4 7.582 7.581 7.582h36.315a2.868 2.868 0 0 0 2.865-2.864v-6.773a5.128 5.128 0 0 0 4.638-5.097v-8.517c0-2.66-2.04-4.853-4.638-5.098ZM10.685 14.617a1.643 1.643 0 0 1 1.647-1.647h34.925c.287 0 .52.233.52.52v2.774H12.333a1.648 1.648 0 0 1-1.647-1.647Zm6.336 30.06h-2.578V27.124h2.578v17.551Zm38.617-4.518a1.892 1.892 0 0 1-1.417 1.836c-.153.04-.314.061-.48.061H42.851c-.392 0-.776-.036-1.148-.107-.052-.01-.105-.02-.158-.032a6.35 6.35 0 0 1-.95-.288 3.024 3.024 0 0 1-.08-.032l-.06-.025a5.945 5.945 0 0 1-.984-.526 5.798 5.798 0 0 1-.649-.491 6.141 6.141 0 0 1-2.127-4.655 6.135 6.135 0 0 1 2.593-5.02 6.27 6.27 0 0 1 1.226-.676 6.143 6.143 0 0 1 2.336-.46h10.89c.166 0 .327.022.48.062l.067.02c.044.012.088.027.131.044l.064.025a1.868 1.868 0 0 1 .599.406c.343.343.556.817.556 1.341v8.517Z" fill="#39D24E"/>
    <path d="M42.526 38.294a2.394 2.394 0 1 0 0-4.787 2.394 2.394 0 0 0 0 4.787Z" fill="#39D24E"/>
</svg><svg fill="none" viewBox="0 0 68 68" id="note" xmlns="http://www.w3.org/2000/svg">
    <path d="M56.844 58.079V16.555c0-.073 0-.14-.007-.206-.1-1.554-1.002-3.041-2.45-3.692-.784-.358-1.574-.438-2.41-.438h-5.313c0-.664 0-1.415-.013-2.119v-.112c-.02-.452-.18-.87-.498-1.196a1.538 1.538 0 0 0-.718-.418c-.04-.013-.08-.02-.12-.027-.079-.013-.165-.04-.245-.04-.007 0-.013 0-.013-.006 0-.007-.007-.013-.007-.02-.026-.027-.06.026-.086-.04h-5.611a7.986 7.986 0 0 0-.12-1.129c-.312-1.567-1.46-2.988-2.908-3.646-1.535-.69-3.241-.664-4.742.1-1.268.644-2.238 1.846-2.63 3.2a6.063 6.063 0 0 0-.206 1.475h-3.552c-.67 0-1.355.007-2.026.027-.982.033-1.72.777-1.746 1.753-.007.219-.02.458-.02.684v1.534c-1.926 0-3.865-.007-5.804 0a4.379 4.379 0 0 0-4.37 4.336c-.006.319.014.63.014.95v40.959c0 1.448-.173 3.048.544 4.363.804 1.467 2.358 2.238 3.985 2.238h35.261c.472 0 .95-.02 1.422-.02 2.045-.007 3.97-1.428 4.33-3.5.172-1.129.059-2.35.059-3.486ZM32.154 8.095c0-.033.007-.06.007-.093.006-.06.013-.12.026-.18l.02-.079c0-.007.007-.013.007-.02.007-.013-.007-.026-.007-.046.007-.02 0-.04 0-.06h.02c0-.007.014-.013.014-.02 0-.007.006-.007.006-.013.007-.014.007-.027.013-.034.007-.02.014-.033.02-.053 0-.006 0-.006.007-.006 0-.007-.013-.007-.013-.014.006-.013-.007-.02-.007-.026 0-.007.02-.007.02-.007.007-.006.013-.013.02-.026 0-.007.006-.007.013-.014 0 0 0-.006.007-.006 0-.007.007-.007.007-.007.006-.007.006-.02.013-.027 0 0 0-.006.006-.006.007-.007.007-.02.014-.027.006-.006.006-.013.013-.02.007-.013.02-.033.026-.046l.02-.04.04-.06a.296.296 0 0 1 .053-.073c.02-.02.034-.046.053-.066l.007-.007c.02-.02.033-.046.053-.066.02-.027.047-.047.067-.073.212-.213.458-.352.73-.445.014-.007.02-.007.033-.013.014 0 .02-.007.034-.007h.006c.047-.013.1-.02.146-.033.014 0 .02.013.033.006.107-.026.22-.013.333-.013.1 0 .199-.007.285.013.027.007.053-.013.073-.013.007 0 .02.013.027.02.013.007.026-.02.04.046.12 0 .232.047.345.093.013.007.026.007.04.007.192.086.372.2.518.352l.046.046c.027.027.047.054.073.08.186.226.306.485.372.77.013.04.027.08.033.127.007.033.014.066.02.106 0 .007.02.013.02.02 0 .013.02.02.02.033v.126c0 .02-.013.04-.013.06 0 .02-.007.033-.007.053 0 .02-.006.033-.006.053 0 .007-.007.013-.007.013v.014c0 .013-.007.026-.007.04-.006.033-.013.06-.02.093-.006.013-.006.026-.013.04-.007.033-.02.06-.027.086-.006.026-.013.046-.02.073-.006.013-.006.033-.013.046 0 .007 0 .014-.006.02 0 .007.006.013 0 .02v.027c0 .02-.027.04-.034.053a.014.014 0 0 1-.013.013l-.02.04c-.013.027-.026.06-.04.086a.49.49 0 0 1-.046.08l-.02.033c-.02.04-.046.073-.073.113a.174.174 0 0 1-.033.04c-.034.046-.08.086-.12.126-.026.033-.026.066-.093.1h.014c0 .026-.047.046-.074.073-.026.02-.046.04-.073.06l-.006.006a.96.96 0 0 1-.087.06c-.006.007-.02.013-.026.02-.013.013-.033.02-.047.033a1.429 1.429 0 0 1-.219.113c-.013.007-.026.013-.046.02h-.014c-.006 0-.013.006-.02.006-.006 0-.013.007-.02.007-.013.007-.033.013-.046.02-.013.007-.033.013-.053.02-.013.007-.027.007-.04.013-.172.06-.365.087-.558.08h-.112c-.014 0-.027 0-.04-.007H33.8c-.007 0-.02 0-.026-.006-.014 0-.02 0-.034-.007-.02 0-.033-.007-.053-.007-.013 0-.026-.006-.033-.006-.066-.014-.133-.027-.193-.047-.02-.006-.033-.026-.053-.033-.026-.007-.046-.04-.073-.04l-.006.013c-.007 0-.014.007-.02.007v.007h-.007c-.007-.007-.013-.007-.027-.007-.006 0-.006-.007-.013-.007-.006 0-.006-.006-.013-.006-.007 0-.013-.007-.02-.007-.013-.006-.02-.006-.033-.013-.014-.007-.027-.013-.034-.02-.006-.007-.013-.007-.026-.013-.007-.007-.013-.007-.027-.014-.013-.006-.02-.013-.033-.02-.006-.006-.013-.006-.02-.013a.144.144 0 0 1-.033-.02c-.007-.006-.013-.006-.02-.013-.006 0-.013-.007-.013-.007-.007 0-.007-.006-.013-.006l-.007-.007s-.007 0-.007-.007c-.013-.006-.02-.013-.033-.02-.006-.006-.013-.006-.02-.013a1.55 1.55 0 0 1-.192-.152l-.027-.027c-.007-.007-.02-.013-.026-.027l-.014-.013-.013-.013-.033-.033-.007-.007-.006-.007-.007-.006-.007-.007-.02-.02c-.006-.013-.02-.02-.026-.033a.293.293 0 0 1-.053-.073c-.014-.02-.034-.04-.047-.06a.84.84 0 0 1-.1-.166.307.307 0 0 1-.033-.066.05.05 0 0 1-.013-.033c-.007-.02-.02-.034-.027-.054-.013-.026-.02-.053-.033-.08-.006-.006-.006-.02-.013-.026-.007-.026-.02-.046-.027-.073a.122.122 0 0 1-.013-.046c0-.007-.007-.014-.007-.027-.006-.013-.006-.027-.006-.04-.007-.013-.007-.026-.007-.04-.007-.013-.007-.033-.013-.046-.007-.02-.007-.04-.013-.06-.007-.033-.007-.06-.014-.093v-.013c0-.007-.006-.013-.006-.02 0-.027-.014-.047-.014-.073 0-.033.007-.06.007-.093.047-.033.053-.066.053-.093Zm-6.182 44.499h-6.037c-1.148 0-2.005-.917-2.051-2.026-.054-1.109.982-2.025 2.051-2.025h6.037c1.149 0 2.005.916 2.052 2.025.053 1.11-.977 2.026-2.052 2.026Zm22.936-3.898-1.049 1.049c-1.494 1.5-2.995 2.995-4.489 4.496l-2.829 2.829c-.783.783-2.118.783-2.902 0a2117.258 2117.258 0 0 0-3.851-3.845c-.81-.81-.75-2.079 0-2.902.75-.817 2.145-.75 2.902.006l2.397 2.398c1.361-1.368 2.73-2.743 4.09-4.104l2.83-2.83c.81-.81 2.085-.75 2.901 0 .817.745.764 2.14 0 2.903Zm-.776-8.547c-.014 0-.034.014-.047.014-1.142.026-2.291.02-3.44.02h-24.71c-1.148 0-2.005-.957-2.051-2.066-.054-1.109.982-2.065 2.051-2.065.014 0 .034.007.047.007 1.142-.027 2.29.006 3.44.006h24.716c1.149 0 2.006.93 2.052 2.046.047 1.102-.983 2.038-2.058 2.038Zm0-12.51c-.014 0-.034-.007-.047-.007-1.142.02-2.291-.007-3.44-.007h-24.71c-1.148 0-2.005-.936-2.051-2.045-.054-1.11.982-2.052 2.051-2.052.014 0 .034-.007.047-.007 1.142-.026 2.29-.013 3.44-.013h24.716c1.149 0 2.006.95 2.052 2.065.047 1.11-.983 2.065-2.058 2.065Z" fill="#39D24E"/>
</svg><svg fill="none" viewBox="0 0 158 31" id="opencart" xmlns="http://www.w3.org/2000/svg">
    <g clip-path="url(#bua)">
        <path d="M15.661 16.23c0 2.37-.701 4.367-2.11 5.984-1.47 1.694-3.38 2.544-5.717 2.544-2.344 0-4.248-.85-5.718-2.544C.707 20.597 0 18.6 0 16.229c0-2.377.707-4.373 2.116-5.984 1.486-1.678 3.396-2.517 5.718-2.517 2.338 0 4.247.839 5.717 2.517 1.409 1.61 2.11 3.607 2.11 5.984Zm-4.654 0c0-1.075-.256-1.98-.768-2.714-.574-.833-1.376-1.247-2.405-1.247-1.03 0-1.832.414-2.406 1.247-.517.733-.773 1.64-.773 2.713 0 1.068.256 1.986.773 2.74.574.833 1.376 1.248 2.406 1.248 1.03 0 1.831-.415 2.405-1.247.512-.755.768-1.673.768-2.74Zm21.485 0c0 2.214-.635 4.15-1.91 5.805-1.364 1.811-3.123 2.723-5.261 2.723-1.51 0-2.79-.442-3.836-1.314 0 .2.022.688.067 1.466.044.782.066 1.42.066 1.923 0 2.78-.824 4.167-2.471 4.167-.674 0-1.225-.24-1.665-.716-.434-.48-.652-1.058-.652-1.74v-18.08c0-.66.223-1.232.669-1.712a2.177 2.177 0 0 1 1.653-.716c.99 0 1.715.497 2.171 1.488.975-1.197 2.305-1.796 3.992-1.796 2.144 0 3.897.895 5.267 2.69 1.27 1.662 1.91 3.597 1.91 5.811Zm-4.655 0c0-1.075-.261-1.98-.773-2.714-.574-.833-1.376-1.247-2.406-1.247-1.03 0-1.831.414-2.405 1.247-.512.733-.768 1.64-.768 2.713 0 1.068.256 1.986.768 2.74.574.833 1.375 1.248 2.405 1.248 1.03 0 1.832-.415 2.406-1.247.512-.755.773-1.673.773-2.74Zm21.59-.503c0 .782-.183 1.319-.55 1.621-.368.296-.941.447-1.715.447H38.76c0 .895.418 1.583 1.253 2.063.674.376 1.498.566 2.472.566.758 0 1.665-.252 2.728-.75 1.064-.503 1.748-.75 2.044-.75.54 0 .996.196 1.375.6.372.397.562.877.562 1.431 0 1.28-.952 2.277-2.857 2.993-1.452.536-2.928.81-4.436.81-2.428 0-4.387-.81-5.885-2.427-1.498-1.616-2.25-3.646-2.25-6.102 0-2.338.78-4.334 2.339-6 1.553-1.668 3.485-2.5 5.79-2.5 2.143 0 3.936.788 5.373 2.365 1.436 1.578 2.16 3.456 2.16 5.633Zm-4.653-1.176c-.023-.716-.351-1.364-.986-1.952-.635-.587-1.308-.877-2.021-.877-.735 0-1.42.29-2.054.877-.635.588-.953 1.236-.953 1.952h6.014Zm20.293 7.444c0 .683-.218 1.258-.651 1.74-.44.475-.992.716-1.665.716-1.626 0-2.44-1.298-2.44-3.887 0-.498.035-1.28.101-2.36.073-1.074.106-1.863.106-2.36 0-2.747-.885-4.122-2.65-4.122s-2.645 1.375-2.645 4.121c0 .498.028 1.287.078 2.36a50.93 50.93 0 0 1 .084 2.36c0 2.59-.802 3.888-2.405 3.888-.674 0-1.225-.24-1.66-.716-.44-.482-.656-1.057-.656-1.74V10.458c0-.678.217-1.253.657-1.717.434-.47.99-.705 1.665-.705 1.113 0 1.887.497 2.32 1.488.753-1.197 2.083-1.796 3.987-1.796 1.765 0 3.168.47 4.198 1.404 1.052 1.002 1.576 2.377 1.576 4.128v8.735Zm14.602-.497c0 1.057-.683 1.895-2.053 2.511a8.241 8.241 0 0 1-3.457.75c-2.345 0-4.249-.851-5.719-2.545-1.408-1.617-2.115-3.614-2.115-5.985 0-2.377.718-4.384 2.16-6.029 1.442-1.65 3.33-2.472 5.674-2.472 1.352 0 2.516.201 3.485.599 1.352.537 2.025 1.375 2.025 2.516a2.36 2.36 0 0 1-.534 1.527c-.356.436-.813.66-1.37.66-.378 0-.924-.128-1.636-.38-.712-.258-1.28-.38-1.697-.38-1.109 0-1.972.397-2.59 1.19-.573.717-.863 1.634-.863 2.77 0 1.067.257 1.974.775 2.706.572.856 1.38 1.28 2.41 1.28.457 0 1.08-.133 1.876-.408.796-.267 1.37-.407 1.726-.407.518 0 .963.223 1.342.66.373.441.561.916.561 1.437Zm16.92.497c0 .683-.216 1.258-.651 1.74-.44.475-.996.716-1.67.716-1.014 0-1.737-.498-2.172-1.488-.974 1.197-2.305 1.795-3.991 1.795-2.16 0-3.93-.912-5.301-2.723-1.247-1.656-1.875-3.591-1.875-5.806 0-2.214.628-4.15 1.875-5.81 1.393-1.796 3.157-2.69 5.3-2.69 1.688 0 3.019.598 3.992 1.795.435-.991 1.158-1.488 2.171-1.488.658 0 1.21.24 1.655.716.444.48.667 1.046.667 1.706v11.537Zm-4.654-5.766c0-1.073-.256-1.98-.768-2.713-.596-.833-1.398-1.247-2.405-1.247-1.03 0-1.832.414-2.406 1.247-.517.733-.773 1.64-.773 2.713 0 1.068.25 1.986.745 2.74.591.833 1.404 1.248 2.434 1.248 1.03 0 1.83-.415 2.405-1.247.512-.755.768-1.673.768-2.74Zm16.53-6.08c0 1.002-.484 1.69-1.453 2.064-.896.303-1.788.61-2.678.929-.975.56-1.459 1.6-1.459 3.11v5.743c0 .683-.223 1.258-.656 1.74-.441.475-.998.716-1.671.716-.679 0-1.236-.24-1.67-.716-.44-.482-.657-1.057-.657-1.74V10.458c0-.678.216-1.253.65-1.717.44-.47.998-.705 1.672-.705 1.113 0 1.886.497 2.321 1.488.997-1.197 2.066-1.796 3.218-1.796.657 0 1.219.24 1.687.716.462.48.696 1.051.696 1.706Zm12.142.213c0 1.04-.406 1.695-1.212 1.975-.397.14-1.227.212-2.49.212v9.446c0 .683-.223 1.258-.656 1.74-.441.475-.998.716-1.671.716-.656 0-1.214-.24-1.66-.716-.444-.482-.667-1.057-.667-1.74v-9.446c-.958 0-1.654-.123-2.093-.363-.601-.336-.898-.945-.898-1.824 0-.877.307-1.476.925-1.795.417-.235 1.108-.358 2.066-.358V6.207c0-2.354.773-3.529 2.327-3.529 1.548 0 2.327 1.175 2.327 3.53v2.001c1.263 0 2.093.073 2.49.212.806.28 1.212.93 1.212 1.941ZM158 7.522c-.013-1.435-2.653-2.087-9.489-2.087-16.039 0-20.109-.688-24.463-5.291 1.831 2.764 2.834 7.948 19.787 7.69 17.688-.274 6.897 4.582 3.758 10.067 5.661-5.077 10.39-8.423 10.407-10.358v-.02Zm-22.539 14.742c0 .645-.255 1.264-.709 1.72a2.419 2.419 0 0 1-1.713.712 2.43 2.43 0 0 1-2.427-2.432 2.45 2.45 0 0 1 .711-1.725 2.424 2.424 0 0 1 1.716-.714 2.43 2.43 0 0 1 2.422 2.439Zm11.046 0a2.44 2.44 0 0 1-.71 1.72 2.416 2.416 0 0 1-1.712.712 2.43 2.43 0 0 1-2.427-2.432 2.448 2.448 0 0 1 .71-1.725 2.428 2.428 0 0 1 1.717-.714 2.43 2.43 0 0 1 2.422 2.439Z" fill="#A7BED3"/>
    </g>
    <defs>
        <clipPath id="bua">
            <path fill="#fff" d="M0 0h158v31H0z"/>
        </clipPath>
    </defs>
</svg><svg fill="none" viewBox="0 0 68 68" id="percent" xmlns="http://www.w3.org/2000/svg">
    <path d="M28.13 24.863c0 .013 0 .02-.007.033 0-.02-.013.04-.013.113-.02.12-.047.232-.08.352a3.821 3.821 0 0 1-.12.391c-.013.04-.026.073-.04.113-.072.06-.132.28-.185.366a3.238 3.238 0 0 1-.266.424c.027-.026.04-.033-.033.047l-.026.026c-.007.007-.007.014-.007.014v-.007a5.395 5.395 0 0 1-.578.584c-.026.02-.046.04-.073.06-.212.133-.412.273-.637.392-.04.02-.08.033-.113.053-.1.033-.2.08-.293.113a5.3 5.3 0 0 1-.71.18h-.007c-.013 0-.026 0-.046.006l-.319.02c-.12.007-.239 0-.365 0-.06 0-.12-.007-.18-.013-.033 0-.166-.027-.179-.027h.007c-.047-.007-.086-.02-.1-.02a5.42 5.42 0 0 1-.352-.086c-.1-.033-.206-.06-.305-.1a.893.893 0 0 1-.12-.046.05.05 0 0 0-.033-.014c-.192-.1-.385-.199-.571-.318l-.12-.08v.007-.007c-.013-.007-.026-.013-.033-.02-.093-.06-.066-.066-.026-.04-.073-.066-.193-.14-.226-.172a8.311 8.311 0 0 1-.471-.498c-.02-.034-.054-.073-.074-.107-.08-.12-.152-.239-.219-.358-.053-.093-.1-.193-.152-.286-.007-.02-.02-.033-.027-.046l-.02-.06a4.257 4.257 0 0 1-.2-.704c-.006-.02-.012-.073-.026-.12.014.054-.02-.199-.026-.245a4.953 4.953 0 0 1 .013-.77c0-.02 0-.034.007-.047v-.007c.026-.12.046-.239.073-.358.053-.22.16-.432.219-.651.02-.033.033-.073.053-.106.046-.1.1-.193.16-.286.06-.1.126-.199.192-.292.027-.04.086-.113.1-.126.159-.186.332-.359.51-.518.027-.02.047-.04.074-.06.053-.013.319-.219.345-.232.093-.053.186-.113.286-.16.026-.013.086-.053.14-.086h.006c.192-.106.451-.153.65-.206.107-.026.207-.046.313-.066.02-.007.04-.007.053-.007.259 0 .511-.02.77-.007.027 0 .087.007.146.007.014 0 .04 0 .087.007.06.013.12.02.179.026a5.289 5.289 0 0 1 .764.22h.006c.093.053.193.092.292.145.113.06.22.127.32.193l.119.08v-.007s0 .007.006.007c.107.073.1.086.067.066.08.067.192.146.219.166.086.08.166.16.246.24.08.079.152.165.225.252.02.026.034.04.047.053.02.033.04.073.06.1.08.119.152.238.219.358.026.046.08.126.12.2 0 .012.006.032.02.072l.079.22c.046.132.08.258.113.398.026.12.053.239.073.358.007.027.007.04.013.053v.087c.013.245.007.505-.013.764Zm19.105 19.085c0 .013 0 .02-.007.033 0-.013-.013.04-.013.12-.02.119-.047.232-.08.351a3.846 3.846 0 0 1-.12.392c-.013.04-.026.08-.04.113-.072.06-.132.279-.185.365a6.43 6.43 0 0 1-.22.359l-.046.06c.027-.027.04-.034-.033.046l-.026.027c-.007.006-.007.013-.007.013v-.007c-.093.113-.193.22-.292.32-.093.092-.186.178-.286.265-.02.02-.046.04-.066.06-.213.132-.412.272-.638.391-.04.02-.08.033-.113.053-.1.034-.199.08-.292.113-.232.08-.465.133-.71.18h-.007a.13.13 0 0 0-.046.006l-.32.02h-.364c-.06 0-.12-.007-.18-.013-.033 0-.166-.027-.179-.027h.007c-.047-.006-.087-.02-.107-.02a5.47 5.47 0 0 1-.352-.086 2.335 2.335 0 0 1-.305-.1c-.04-.013-.08-.033-.12-.046a.05.05 0 0 0-.033-.013c-.192-.1-.385-.2-.57-.32l-.12-.079c-.014-.006-.02-.013-.034-.02-.093-.06-.06-.066-.02-.04-.073-.066-.192-.139-.225-.172a8.372 8.372 0 0 1-.472-.498c-.026-.033-.046-.067-.073-.106-.08-.12-.153-.24-.219-.36-.053-.092-.1-.192-.153-.285a.379.379 0 0 1-.026-.046l-.02-.06a4.263 4.263 0 0 1-.2-.704c-.006-.02-.013-.073-.026-.12.013.054-.02-.199-.027-.245a4.977 4.977 0 0 1 .014-.77c0-.02 0-.033.006-.047v-.007c.027-.119.047-.238.073-.358.053-.22.16-.432.22-.65.02-.04.033-.074.053-.107.053-.1.1-.193.16-.286.059-.1.119-.192.185-.285.026-.033.086-.12.106-.133a5.394 5.394 0 0 1 .585-.584c.053-.014.318-.22.345-.233.093-.06.186-.113.286-.16a2.58 2.58 0 0 0 .146-.085c.192-.1.451-.153.65-.2.107-.026.206-.06.313-.08.02-.006.033-.02.053-.02.259 0 .51-.026.77-.006.026 0 .086.007.146.007.007 0 .02.006.033.006.067 0 .12.007.133.027a.633.633 0 0 1-.106-.02c.006 0 .013 0 .026.007.06.013.12.026.18.033.239.053.471.12.703.206.02.006.047.02.067.026.093.053.192.093.292.146.106.06.22.127.319.193l.12.08v-.007s0 .007.006.007c.1.073.1.086.073.073.08.066.186.14.213.166.086.08.166.159.245.239.08.08.153.166.226.252.02.027.033.04.047.053.02.033.04.073.06.093.079.12.152.24.218.359.027.046.08.126.12.199 0 .013.007.033.02.073l.08.22c.046.132.08.258.113.39.026.12.053.24.073.36.006.026.006.04.013.053v.086c0 .246 0 .505-.02.764Z" fill="#39D24E"/>
    <path d="M63.2 24.55a30.403 30.403 0 0 0-4.171-8.294 31.135 31.135 0 0 0-6.408-6.634 30.595 30.595 0 0 0-8.075-4.436 30.576 30.576 0 0 0-9.377-1.84 30.957 30.957 0 0 0-9.556 1.136 30.686 30.686 0 0 0-15.26 9.98 30.882 30.882 0 0 0-4.768 7.963 30.523 30.523 0 0 0-2.171 9.204 30.813 30.813 0 0 0 .783 9.676 30.644 30.644 0 0 0 9.41 15.612 30.905 30.905 0 0 0 7.73 5.033 30.908 30.908 0 0 0 9.15 2.53c3.221.372 6.495.226 9.676-.418a30.544 30.544 0 0 0 8.779-3.254 30.914 30.914 0 0 0 7.238-5.605 30.782 30.782 0 0 0 5.28-7.497 30.269 30.269 0 0 0 2.855-8.965c.239-1.567.365-3.147.365-4.728V34a31.017 31.017 0 0 0-1.48-9.45Zm-44.898-1.666c.657-2.65 2.988-4.49 5.658-4.762 2.537-.252 5.153 1.262 6.215 3.573 1.116 2.424.678 5.26-1.182 7.192-.013.02-.033.033-.046.053l-.06.06c-2.105 2.012-5.465 2.417-7.916.763-2.23-1.514-3.32-4.243-2.669-6.88ZM30.879 39l-6.03 6.03c-.83.83-1.666 1.667-2.496 2.504-.525.524-1.348.484-1.88 0-.53-.485-.491-1.388 0-1.88l.04-.04c.996-1.042 2.039-2.038 3.062-3.06 2.091-2.093 4.19-4.191 6.282-6.283L37.128 29l6.03-6.03 2.497-2.497c.524-.524 1.348-.485 1.879 0 .531.485.491 1.388 0 1.88a7.467 7.467 0 0 0-.04.04c-.996 1.042-2.038 2.038-3.061 3.06l-6.282 6.283L30.879 39Zm17.22 8.978c-.014.02-.034.034-.047.054l-.06.06c-2.105 2.011-5.465 2.417-7.915.763-2.232-1.514-3.327-4.243-2.67-6.88.658-2.65 2.988-4.489 5.658-4.754 2.537-.253 5.153 1.261 6.216 3.572 1.108 2.418.67 5.253-1.183 7.185Z" fill="#39D24E"/>
</svg><svg fill="none" viewBox="0 0 110 110" id="php" xmlns="http://www.w3.org/2000/svg">
    <path d="M55 25.208C24.159 25.208 0 38.294 0 55c0 16.706 24.159 29.792 55 29.792S110 71.706 110 55c0-16.706-24.159-29.792-55-29.792Zm-5.71 9.167h6.003l-1.906 9.167h5.362c3.401 0 5.684.476 6.985 1.663 1.27 1.174 1.655 3.099 1.146 5.72l-2.383 10.95h-6.105l2.195-10.125c.266-1.388.16-2.355-.307-2.864-.463-.509-1.485-.761-3.016-.761h-4.808l-2.901 13.75h-6.013l5.747-27.5Zm-26.373 9.167h12.219c5.825 0 9.354 3.905 7.975 9.73-1.604 6.77-5.894 8.603-13.796 8.603h-3.777l-1.196 6.875H18.27l4.648-25.208Zm48.125 0H83.26c5.825 0 9.354 3.905 7.975 9.73-1.604 6.77-5.899 8.603-13.796 8.603h-3.777l-1.196 6.875h-6.073l4.648-25.208Zm-42.923 4.583-1.728 9.167h3.919c3.391 0 6.545-.385 7.072-5.44.197-1.962-.62-3.727-4.538-3.727H28.12Zm48.125 0-1.728 9.167h3.919c3.391 0 6.545-.385 7.072-5.44.197-1.962-.615-3.727-4.538-3.727h-4.725Z" fill="#A7BED3"/>
</svg><svg fill="none" viewBox="0 0 10 10" id="plus" xmlns="http://www.w3.org/2000/svg">
    <path d="M9 5.665H5.666V9a.667.667 0 0 1-1.333 0V5.665H1a.667.667 0 1 1 0-1.333h3.333V.999a.667.667 0 0 1 1.333 0v3.333H9a.667.667 0 1 1 0 1.333Z" fill="#fff"/>
</svg><svg fill="none" viewBox="0 0 60 60" id="polygon" xmlns="http://www.w3.org/2000/svg">
    <g clip-path="url(#bya)">
        <path d="M30 0C13.43 0 0 13.43 0 30s13.43 30 30 30 30-13.43 30-30S46.57 0 30 0Zm-9.33 12.535a2.69 2.69 0 0 1 1.71.283l8.37 4.867A2.327 2.327 0 0 1 32 19.802v3.28l-3.904 2.327v-3.383a2.543 2.543 0 0 0-1.27-2.12l-4.551-2.54a2.69 2.69 0 0 0-2.54 0l-4.55 2.54a2.331 2.331 0 0 0-1.27 2.119v5.285a2.542 2.542 0 0 0 1.27 2.119l4.55 2.648a2.7 2.7 0 0 0 2.54 0L28 28.69l4-2.223 5.725-3.385a2.7 2.7 0 0 1 2.54 0l8.465 4.864A2.328 2.328 0 0 1 50 30.063v9.844a2.54 2.54 0 0 1-1.26 2.114l-8.464 4.868a2.694 2.694 0 0 1-2.542 0l-8.465-4.866A2.33 2.33 0 0 1 28 39.905V36.52l3.8-2.22v3.398a2.54 2.54 0 0 0 1.27 2.116l4.55 2.54a2.69 2.69 0 0 0 2.54 0l4.55-2.644a2.329 2.329 0 0 0 1.27-2.116v-5.186a2.54 2.54 0 0 0-1.27-2.119l-4.55-2.539a2.7 2.7 0 0 0-2.54 0l-5.705 3.27L28 33.349l-5.725 3.281a2.7 2.7 0 0 1-2.54 0L11.27 31.75A2.328 2.328 0 0 1 10 29.643v-9.84a2.16 2.16 0 0 1 1.375-2.119l8.464-4.867c.26-.138.54-.234.831-.282Z" fill="#A7BED3"/>
    </g>
    <defs>
        <clipPath id="bya">
            <path fill="#fff" d="M0 0h60v60H0z"/>
        </clipPath>
    </defs>
</svg><svg fill="none" viewBox="0 0 130 24" id="prestashop" xmlns="http://www.w3.org/2000/svg">
    <path d="M25.755 12.25c-.028-.164-.028-.3-.028-.464 0-1.337.437-2.401 1.337-3.165a4.431 4.431 0 0 1 2.974-1.118c1.418 0 2.428.518 2.974 1.61l-7.258 3.137Zm10.394-1.937a4.861 4.861 0 0 0-1.8-3.874c-1.174-.983-2.674-1.501-4.448-1.501-1.118 0-2.237.246-3.219.764-1.037.546-1.937 1.337-2.564 2.346a6.497 6.497 0 0 0-1.037 3.683c0 2.02.655 3.629 1.991 4.856a6.862 6.862 0 0 0 4.775 1.856c2.128 0 3.956-.819 5.51-2.428l-1.609-1.801a4.472 4.472 0 0 1-3.628 1.719c-1.474 0-2.62-.519-3.492-1.555l9.521-4.01v-.055ZM19.916 5.784a5.886 5.886 0 0 0-1.828 2.018V5.156H15.36v13.068h2.755v-5.593c0-1.5.355-2.673 1.037-3.574.682-.9 1.692-1.336 3.056-1.336h.136V4.965c-.873.027-1.719.3-2.428.819ZM46.025 11.595c-.382-.273-.818-.491-1.255-.682a8.98 8.98 0 0 0-1.2-.437c-.41-.136-.873-.245-1.392-.382a9.633 9.633 0 0 1-1.255-.409c-.409-.136-.654-.518-.654-.955a1.11 1.11 0 0 1 .627-1.064 3.532 3.532 0 0 1 1.582-.355c1.255 0 2.456.355 3.493 1.064l1.036-2.046a7.509 7.509 0 0 0-4.283-1.337c-1.528 0-2.728.355-3.683 1.119a3.413 3.413 0 0 0-1.391 2.92c0 1.718 1.364 2.946 4.065 3.682.054.028.163.055.3.082 1.718.518 2.592 1.119 2.592 1.774 0 .436-.191.845-.519 1.09-.436.3-.955.465-1.473.437-1.419 0-2.892-.573-4.42-1.719l-1.337 2.156a9.363 9.363 0 0 0 2.729 1.446c.954.327 1.964.49 2.973.518 1.42 0 2.565-.382 3.492-1.118a3.726 3.726 0 0 0 1.365-3.002c-.082-1.309-.519-2.21-1.392-2.782ZM9.576 9.658c-.573.627-1.691.927-3.301.927H2.919V3.71h2.947c1.555 0 2.728.246 3.492.737.736.49 1.118 1.337 1.118 2.51-.027 1.146-.327 2.073-.9 2.7Zm2.046-7.094c-1.2-.982-3.11-1.5-5.702-1.5H0v17.188h2.92v-5.075h3.055c2.537 0 4.392-.491 5.62-1.446 1.228-.982 1.855-2.483 1.855-4.583-.027-2.074-.627-3.602-1.828-4.584ZM53.773 16.042a1.772 1.772 0 0 1-1.391-.546 2.26 2.26 0 0 1-.491-1.5v-6.63h3.465v-2.21H51.89V1.064h-2.756v12.904c0 1.392.41 2.456 1.255 3.301a4.253 4.253 0 0 0 3.001 1.228c1.173 0 2.237-.436 3.192-1.31l-1.118-1.937c-.519.519-1.092.792-1.692.792ZM66.405 14.787a3.583 3.583 0 0 1-2.755 1.2 3.983 3.983 0 0 1-2.838-1.173c-.818-.791-1.2-1.828-1.2-3.056-.028-1.145.382-2.291 1.173-3.137a3.819 3.819 0 0 1 2.837-1.255c1.064-.027 2.074.437 2.783 1.255.764.818 1.119 1.883 1.119 3.137a4.388 4.388 0 0 1-1.119 3.029Zm1.091-7.366c-1.118-1.637-2.537-2.456-4.256-2.456a6.137 6.137 0 0 0-4.474 1.828c-1.255 1.228-1.883 2.837-1.883 4.856 0 2.02.628 3.683 1.856 4.938a5.818 5.818 0 0 0 4.338 1.856c.845 0 1.691-.219 2.455-.6.791-.41 1.5-.983 1.992-1.72v2.156h2.755V5.21h-2.783v2.21ZM111.039 14.787a4.267 4.267 0 0 1-5.948 0c-.791-.819-1.173-1.828-1.173-3.083 0-1.255.382-2.292 1.173-3.083a4.267 4.267 0 0 1 5.948 0c.791.818 1.173 1.828 1.173 3.083 0 1.255-.382 2.291-1.173 3.083Zm-2.947-9.822c-1.964 0-3.628.655-4.938 1.964-2.619 2.647-2.619 6.93 0 9.576 1.31 1.31 2.947 1.965 4.938 1.965 1.992 0 3.602-.655 4.938-1.964 2.62-2.647 2.62-6.93 0-9.577-1.336-1.31-2.973-1.964-4.938-1.964ZM126.017 14.787c-.737.764-1.773 1.173-2.837 1.173a3.544 3.544 0 0 1-2.756-1.2c-.764-.819-1.119-1.828-1.119-3.056s.355-2.292 1.119-3.11a3.745 3.745 0 0 1 2.783-1.255c1.091 0 2.101.436 2.837 1.255.791.845 1.228 1.991 1.173 3.137 0 1.255-.409 2.292-1.2 3.056Zm2.101-7.994a6.2 6.2 0 0 0-4.502-1.828c-1.746 0-3.165.819-4.256 2.483V5.183h-2.756v17.843h2.756v-6.739c1.31 1.446 2.783 2.156 4.447 2.156 1.664 0 3.083-.628 4.338-1.883S130 13.668 130 11.622s-.655-3.628-1.882-4.829ZM94.778 4.965c-.9 0-1.8.246-2.564.682A4.375 4.375 0 0 0 90.44 7.53V0h-2.756v18.224h2.756v-7.066c0-1.227.354-2.155 1.064-2.755a3.676 3.676 0 0 1 2.482-.955c1.992 0 3.001 1.2 3.001 3.628v7.176h2.756v-8.049c0-1.691-.464-3.028-1.364-3.928-.9-.873-2.128-1.31-3.602-1.31ZM84.384 9.958c-.9-.764-2.21-1.364-3.983-1.801-1.773-.437-2.92-.818-3.465-1.2a1.916 1.916 0 0 1-.819-1.583 1.713 1.713 0 0 1 .819-1.555 3.91 3.91 0 0 1 2.073-.518c.873 0 1.746.136 2.565.436a6.35 6.35 0 0 1 2.073 1.119l1.555-2.183a8.28 8.28 0 0 0-2.81-1.528C81.328.791 80.237.6 79.12.627c-1.692 0-3.138.437-4.284 1.282-1.146.846-1.719 2.101-1.719 3.683 0 1.583.519 2.756 1.528 3.547.519.41 1.119.764 1.746.982.928.328 1.91.628 2.892.819 1.255.3 2.128.655 2.674 1.01.518.354.791.927.791 1.554.027.628-.3 1.228-.818 1.583-.546.382-1.283.6-2.237.6-1.856 0-3.656-.764-5.402-2.264l-1.828 2.182c2.073 1.855 4.474 2.783 7.148 2.783 1.855 0 3.328-.464 4.447-1.392 1.09-.873 1.718-2.237 1.691-3.655-.027-1.5-.49-2.565-1.364-3.383Z" fill="#A7BED3"/>
</svg><svg fill="none" viewBox="0 0 60 60" id="privacy" xmlns="http://www.w3.org/2000/svg">
    <path d="M52.5 5h-15C36 5 35 6 35 7.5s1 2.5 2.5 2.5H50v12.5c0 1.5 1 2.5 2.5 2.5s2.5-1 2.5-2.5v-15C55 6 54 5 52.5 5Zm-45 20C9 25 10 24 10 22.5V10h12.5C24 10 25 9 25 7.5S24 5 22.5 5h-15C6 5 5 6 5 7.5v15C5 24 6 25 7.5 25Zm15 25H10V37.5C10 36 9 35 7.5 35S5 36 5 37.5v15C5 54 6 55 7.5 55h15c1.5 0 2.5-1 2.5-2.5S24 50 22.5 50Zm30-15C51 35 50 36 50 37.5V50H37.5C36 50 35 51 35 52.5s1 2.5 2.5 2.5h15c1.5 0 2.5-1 2.5-2.5v-15c0-1.5-1-2.5-2.5-2.5ZM30 15c-4.25 0-7.5 3.25-7.5 7.5V25c-2.75 0-5 2.25-5 5v10c0 2.75 2.25 5 5 5h15c2.75 0 5-2.25 5-5V30c0-2.75-2.25-5-5-5v-2.5c0-4.25-3.25-7.5-7.5-7.5Zm2.5 10h-5v-2.5c0-1.5 1-2.5 2.5-2.5s2.5 1 2.5 2.5V25Z" fill="#39D24E"/>
</svg><svg fill="none" viewBox="0 0 30 30" id="reddit" xmlns="http://www.w3.org/2000/svg">
    <path d="M28.429 14.698a3.098 3.098 0 0 0-3.095-3.094c-.739 0-1.43.27-1.988.743l-.054.033c-2.012-1.287-4.68-2.109-7.632-2.22l1.762-5.01 4.397 1.051a2.529 2.529 0 0 0 2.526 2.52 2.53 2.53 0 0 0 2.526-2.526 2.53 2.53 0 0 0-2.526-2.527 2.526 2.526 0 0 0-2.338 1.578l-5.21-1.245-2.163 6.147c-3.078.058-5.867.89-7.954 2.221a3.058 3.058 0 0 0-2.015-.765 3.097 3.097 0 0 0-3.093 3.094c0 1.056.544 2.03 1.427 2.598-.057.31-.086.623-.088.937 0 4.466 5.413 8.1 12.065 8.1 6.654 0 12.068-3.634 12.068-8.1a5.438 5.438 0 0 0-.082-.91 3.095 3.095 0 0 0 1.467-2.625Zm-9.35 4.006a1.902 1.902 0 1 1 0-3.804 1.902 1.902 0 0 1 0 3.804Zm.379 3.242c-.057.058-1.42 1.446-4.503 1.446-3.1 0-4.339-1.406-4.39-1.467a.487.487 0 0 1 .405-.8c.127.01.246.069.331.165.028.031 1.062 1.131 3.654 1.131 2.635 0 3.792-1.14 3.804-1.15a.486.486 0 0 1 .699.675ZM9.243 16.803a1.901 1.901 0 1 1 3.801-.066 1.901 1.901 0 0 1-3.801.066Z" fill="#fff"/>
</svg><svg fill="none" viewBox="0 0 20 20" id="search" xmlns="http://www.w3.org/2000/svg">
    <path d="M15.054 9.104a5.908 5.908 0 0 0-1.742-4.2 5.95 5.95 0 0 0-8.422 8.4 5.948 5.948 0 0 0 7.89.464l3.164 3.166 1-1-3.168-3.148a5.901 5.901 0 0 0 1.278-3.682Zm-5.95 4.55a4.518 4.518 0 0 1-3.212-1.328 4.55 4.55 0 0 1 6.428-6.44 4.55 4.55 0 0 1 0 6.428 4.52 4.52 0 0 1-3.216 1.34Z" fill="#fff"/>
</svg><svg fill="none" viewBox="0 0 135 109" id="server-node" xmlns="http://www.w3.org/2000/svg">
    <path d="M66.72 96.227c-.443 0-.886-.128-1.287-.341l-4.05-2.427c-.612-.34-.317-.468-.106-.532.802-.277.97-.34 1.835-.852.085-.042.211-.021.296.022l3.122 1.873a.4.4 0 0 0 .38 0l12.192-7.11a.404.404 0 0 0 .19-.341v-14.2c0-.15-.064-.277-.19-.34l-12.193-7.09a.4.4 0 0 0-.38 0l-12.191 7.09c-.127.063-.19.212-.19.34v14.2c0 .127.084.255.19.32l3.332 1.936c1.814.916 2.932-.17 2.932-1.234V73.51c0-.191.148-.362.359-.362h1.54c.19 0 .358.15.358.362v14.03c0 2.448-1.307 3.832-3.607 3.832-.696 0-1.265 0-2.805-.767l-3.206-1.852c-.78-.468-1.287-1.32-1.287-2.235v-14.2c0-.916.485-1.788 1.287-2.235l12.192-7.111c.78-.447 1.793-.447 2.552 0l12.192 7.11c.78.469 1.287 1.32 1.287 2.236v14.2c0 .915-.485 1.788-1.287 2.235l-12.192 7.11a2.32 2.32 0 0 1-1.266.363Zm9.85-14.009c0-2.66-1.772-3.363-5.526-3.874-3.797-.511-4.177-.767-4.177-1.66 0-.746.317-1.725 3.122-1.725 2.51 0 3.438.553 3.818 2.256.042.17.169.277.337.277h1.583c.105 0 .19-.042.253-.106.063-.085.105-.17.084-.277-.253-2.938-2.173-4.3-6.075-4.3-3.48 0-5.548 1.49-5.548 3.96 0 2.703 2.068 3.427 5.4 3.767 3.987.405 4.303.98 4.303 1.767 0 1.384-1.096 1.96-3.67 1.96-3.227 0-3.944-.81-4.176-2.428-.021-.17-.17-.298-.359-.298h-1.582a.357.357 0 0 0-.359.362c0 2.065 1.118 4.535 6.455 4.535 3.903 0 6.117-1.533 6.117-4.216Zm11.496-10.666c0 1.3-1.054 2.364-2.341 2.364-1.287 0-2.341-1.065-2.341-2.364a2.36 2.36 0 0 1 2.341-2.363c1.266-.02 2.341 1.022 2.341 2.364Zm-.38 0c0-1.107-.885-1.98-1.982-1.98a1.967 1.967 0 0 0-1.962 1.98c0 1.108.886 2.002 1.962 2.002 1.097-.022 1.983-.916 1.983-2.002Zm-.949 1.32h-.548a30.812 30.812 0 0 1-.105-.83c-.043-.149-.085-.234-.275-.234h-.464v1.064h-.506v-2.66h.907c.317 0 .928 0 .928.702 0 .49-.316.596-.506.66.359.021.38.255.443.596.021.213.063.575.126.703ZM86.147 71c0-.362-.253-.362-.38-.362h-.422v.745h.401c.338 0 .4-.234.4-.383ZM28.962 40.662a1.55 1.55 0 0 0-.78-1.362L15.25 31.785a1.657 1.657 0 0 0-.717-.213h-.127c-.253 0-.485.085-.717.213L.78 39.3c-.485.276-.78.809-.78 1.362l.021 20.225c0 .276.148.532.38.681a.737.737 0 0 0 .78 0l7.678-4.45c.486-.297.78-.808.78-1.362v-9.452c0-.554.296-1.086.781-1.363l3.27-1.895a1.49 1.49 0 0 1 .78-.212c.274 0 .549.063.78.212l3.27 1.895c.486.277.78.81.78 1.363v9.452c0 .554.296 1.086.781 1.363l7.678 4.449a.737.737 0 0 0 .78 0c.233-.128.38-.404.38-.681l.043-20.225Zm70.706-22.077V56.14c0 .554-.295 1.086-.78 1.363l-12.931 7.536a1.571 1.571 0 0 1-1.56 0l-12.931-7.536a1.576 1.576 0 0 1-.78-1.363V41.067c0-.554.294-1.086.78-1.363l12.93-7.536a1.57 1.57 0 0 1 1.561 0l3.227 1.873c.359.213.823-.064.823-.468V13.56c0-.596.633-.98 1.16-.681l7.7 4.343c.485.255.801.788.801 1.362Zm-9.703 27.442a.404.404 0 0 0-.19-.34l-4.43-2.598a.443.443 0 0 0-.4 0l-4.43 2.597c-.127.064-.19.192-.19.341V51.2c0 .15.084.277.19.34l4.43 2.577a.4.4 0 0 0 .38 0l4.429-2.576c.126-.064.19-.192.19-.34v-5.174h.02Zm44.255-.15c.485-.276.78-.808.78-1.362v-3.64c0-.553-.295-1.086-.78-1.362l-12.847-7.537a1.571 1.571 0 0 0-1.561 0l-12.93 7.537c-.485.276-.78.809-.78 1.362v15.073c0 .575.295 1.085.78 1.362l12.846 7.388a1.532 1.532 0 0 0 1.54 0l7.762-4.365a.784.784 0 0 0 0-1.362l-13.014-7.537a.787.787 0 0 1-.401-.68v-4.727c0-.277.147-.532.401-.681l4.05-2.363a.736.736 0 0 1 .78 0l4.05 2.363c.232.149.401.404.401.681v3.704c0 .596.654.98 1.181.681l7.742-4.534Zm-16.306.746c-.084.064-.148.15-.148.256v2.895c0 .106.064.213.148.255l2.489 1.448a.251.251 0 0 0 .295 0l2.49-1.448c.084-.064.147-.149.147-.255v-2.895a.296.296 0 0 0-.147-.256l-2.49-1.448a.25.25 0 0 0-.295 0l-2.489 1.448Zm-53.62 9.26V40.897c0-.553-.338-1.085-.823-1.362L50.583 32.04a1.57 1.57 0 0 0-1.561 0l-12.888 7.494c-.486.277-.823.788-.823 1.362v14.988c0 .596.4 1.107.844 1.362l12.91 7.494a1.52 1.52 0 0 0 1.56 0l12.867-7.494a1.58 1.58 0 0 0 .76-1 1.89 1.89 0 0 0 .042-.362ZM48.62 29.294l-.169.107h.232l-.063-.106Zm16.074 27.72-.085-.15v.192l.085-.043Z" fill="#A7BED3"/>
</svg><svg fill="none" viewBox="0 0 116 116" id="server-php" xmlns="http://www.w3.org/2000/svg">
    <path d="M58 26.583c-32.523 0-58 13.8-58 31.417 0 17.618 25.477 31.417 58 31.417 32.523 0 58-13.8 58-31.417S90.523 26.583 58 26.583Zm-6.022 9.667h6.331l-2.01 9.667h5.655c3.586 0 5.993.502 7.366 1.754 1.339 1.237 1.745 3.267 1.208 6.032L68.015 65.25h-6.438l2.315-10.677c.28-1.464.169-2.484-.324-3.02-.488-.537-1.566-.803-3.18-.803h-5.07l-3.06 14.5h-6.341l6.06-29Zm-27.811 9.667h12.885c6.144 0 9.865 4.118 8.41 10.26-1.691 7.14-6.215 9.073-14.548 9.073h-3.983L25.67 72.5h-6.404l4.9-26.583Zm50.75 0h12.885c6.143 0 9.865 4.118 8.41 10.26-1.691 7.14-6.22 9.073-14.548 9.073h-3.983L76.42 72.5h-6.404l4.9-26.583ZM29.653 50.75l-1.823 9.667h4.133c3.576 0 6.902-.406 7.458-5.738.208-2.068-.653-3.929-4.785-3.929h-4.984Zm50.75 0-1.823 9.667h4.133c3.577 0 6.902-.406 7.458-5.738.207-2.068-.648-3.929-4.785-3.929h-4.983Z" fill="#A7BED3"/>
</svg><svg fill="none" viewBox="0 0 206 61" id="server-python" xmlns="http://www.w3.org/2000/svg">
    <path d="M73.355 24.637c0-5.792-1.65-8.768-4.951-8.93a9.286 9.286 0 0 0-3.842.631c-.996.357-1.666.71-2.018 1.066v13.829c2.11 1.326 3.986 1.942 5.619 1.846 3.459-.229 5.19-3.04 5.19-8.442h.002Zm4.07.24c0 2.944-.69 5.387-2.076 7.329-1.546 2.198-3.688 3.33-6.426 3.393-2.064.066-4.192-.582-6.378-1.94v12.568l-3.54-1.264V17.067c.58-.713 1.328-1.326 2.235-1.846 2.107-1.229 4.669-1.861 7.681-1.892l.05.05c2.754-.035 4.876 1.098 6.366 3.393 1.39 2.106 2.088 4.806 2.088 8.104v.002ZM99.066 33.127c0 3.948-.395 6.68-1.185 8.203-.794 1.52-2.305 2.734-4.534 3.638-1.809.713-3.765 1.1-5.865 1.167l-.585-2.234c2.134-.29 3.637-.581 4.51-.872 1.716-.582 2.893-1.474 3.54-2.668.52-.973.775-2.83.775-5.581v-.923a18.176 18.176 0 0 1-7.61 1.648c-1.743 0-3.28-.547-4.606-1.648-1.487-1.199-2.23-2.719-2.23-4.56v-14.75l3.54-1.215V28.18c0 1.586.511 2.808 1.534 3.665 1.022.856 2.347 1.267 3.97 1.236 1.623-.035 3.362-.663 5.21-1.892V13.867h3.54v19.258l-.004.002ZM112.894 35.407c-.422.034-.809.05-1.166.05-2.002 0-3.563-.477-4.677-1.435-1.111-.958-1.669-2.28-1.669-3.966v-13.96h-2.425v-2.23h2.425v-5.92l3.536-1.26v7.18h3.978v2.23h-3.978v13.865c0 1.33.356 2.272 1.069 2.823.612.453 1.584.713 2.909.78v1.845l-.002-.002ZM134.313 35.116h-3.54V21.435c0-1.392-.325-2.59-.972-3.59-.748-1.133-1.786-1.7-3.118-1.7-1.623 0-3.653.858-6.088 2.572v16.398h-3.54V2.414l3.54-1.117v14.895c2.262-1.649 4.733-2.475 7.419-2.475 1.875 0 3.393.633 4.554 1.893 1.166 1.26 1.747 2.83 1.747 4.706v14.795l-.002.005ZM153.149 24.08c0-2.225-.422-4.061-1.263-5.517-.999-1.772-2.552-2.707-4.653-2.804-3.881.225-5.818 3.01-5.818 8.346 0 2.447.403 4.492 1.217 6.131 1.038 2.09 2.595 3.121 4.673 3.087 3.897-.031 5.845-3.11 5.845-9.242h-.001Zm3.877.024c0 3.168-.809 5.804-2.424 7.909-1.778 2.357-4.232 3.54-7.368 3.54-3.106 0-5.527-1.183-7.276-3.54-1.584-2.106-2.374-4.743-2.374-7.91 0-2.977.856-5.481 2.568-7.522 1.809-2.164 4.188-3.25 7.125-3.25 2.94 0 5.333 1.086 7.176 3.25 1.712 2.04 2.568 4.543 2.568 7.523h.005ZM177.31 35.116h-3.54V20.66c0-1.586-.477-2.823-1.43-3.715-.953-.888-2.223-1.318-3.807-1.283-1.681.03-3.281.581-4.8 1.648v17.807h-3.541V16.87c2.038-1.485 3.913-2.454 5.623-2.908 1.616-.422 3.041-.632 4.268-.632.841 0 1.631.082 2.374.245 1.391.321 2.522.918 3.393 1.795.973.97 1.457 2.133 1.457 3.494v16.25l.003.001ZM24.046 2.545c-1.822.009-3.561.164-5.09.436-4.511.797-5.33 2.466-5.33 5.545v4.066H24.28v1.355H9.63c-3.097 0-5.81 1.863-6.656 5.407-.979 4.061-1.022 6.6 0 10.84.757 3.158 2.566 5.407 5.662 5.407H12.3v-4.874c0-3.52 3.043-6.628 6.656-6.628h10.642c2.962 0 5.328-2.441 5.328-5.418V8.525c0-2.891-2.435-5.06-5.328-5.546a33.21 33.21 0 0 0-5.552-.435v.001Zm-5.762 3.27c1.1 0 1.999.915 1.999 2.039 0 1.12-.899 2.026-2 2.026-1.104 0-1.998-.905-1.998-2.026 0-1.124.894-2.039 1.999-2.039Z" fill="#A7BED3"/>
    <path d="M36.253 13.944v4.738c0 3.672-3.11 6.763-6.657 6.763H18.956c-2.915 0-5.329 2.497-5.329 5.418V41.02c0 2.89 2.511 4.59 5.329 5.418 3.372.993 6.608 1.173 10.642 0 2.682-.777 5.328-2.342 5.328-5.418v-4.066H24.284V35.6h15.971c3.095 0 4.251-2.162 5.328-5.406 1.112-3.342 1.065-6.557 0-10.841-.765-3.086-2.227-5.407-5.329-5.407h-3.997l-.004-.001Zm-5.985 25.723c1.104 0 2 .906 2 2.027 0 1.124-.896 2.039-2 2.039-1.1 0-2-.915-2-2.04 0-1.12.9-2.026 2-2.026ZM184.224 10.706h.621V6.808h1.47v-.464h-3.561v.464h1.47v3.898Zm2.642 0h.53v-3.56l1.15 3.56h.591l1.199-3.548v3.548h.579v-4.36h-.766l-1.31 3.736-1.118-3.737h-.855v4.36Z" fill="#A7BED3"/>
</svg><svg fill="none" viewBox="0 0 48 48" id="slide-arrow-left" xmlns="http://www.w3.org/2000/svg">
    <path d="M28 14 18 24l10 10" stroke="#fff" stroke-width="2" stroke-linecap="round" stroke-linejoin="round"/>
</svg><svg fill="none" viewBox="0 0 48 48" id="slide-arrow-right" xmlns="http://www.w3.org/2000/svg">
    <path d="m20 14 10 10-10 10" stroke="#fff" stroke-width="2" stroke-linecap="round" stroke-linejoin="round"/>
</svg><svg fill="none" viewBox="0 0 22 22" id="social-copy" xmlns="http://www.w3.org/2000/svg">
    <path d="M12.992 19.696H4.417a1.646 1.646 0 0 1-1.23-.492c-.325-.33-.5-.781-.485-1.248V9.261c-.016-.466.16-.918.485-1.248.325-.33.77-.507 1.23-.491h3.43V4.043c-.016-.466.16-.917.485-1.247.325-.33.77-.508 1.23-.492h8.575c.46-.016.905.162 1.23.492.325.33.5.781.485 1.247v8.696c.016.466-.16.918-.485 1.247-.325.33-.77.508-1.23.492h-3.43v3.478c.016.466-.16.918-.485 1.248-.325.33-.77.508-1.23.492ZM4.417 9.26v8.695h8.575v-3.478h-3.43a1.647 1.647 0 0 1-1.23-.492c-.325-.33-.5-.78-.485-1.247V9.261h-3.43Zm5.145-5.218v8.696h8.575V4.043H9.562Z" fill="#EDEDED"/>
</svg><svg fill="none" viewBox="0 0 7 14" id="social-facebook" xmlns="http://www.w3.org/2000/svg">
    <path d="M6.48 3.078H5.375c-.865 0-1.032.458-1.032 1.13v1.48h2.063l-.001 2.319H4.344v5.95H2.192v-5.95h-1.8v-2.32h1.8V3.979c0-1.984 1.089-3.065 2.68-3.065L6.48.916v2.162Z" fill="#EDEDED"/>
</svg><svg fill="none" viewBox="0 0 17 16" id="social-linkedIn" xmlns="http://www.w3.org/2000/svg">
    <path d="M8.942 13.87H6.296V6.044h2.646v1.304a3.07 3.07 0 0 1 2.331-1.15c1.64.01 2.964 1.326 2.96 2.943v4.729h-2.646V9.467A1.492 1.492 0 0 0 10.101 8.2c-.326.01-.635.15-.853.39-.22.24-.33.556-.306.877v4.403Zm-3.968 0H2.328V6.044h2.646v7.826ZM3.65 4.74c-.73 0-1.323-.585-1.323-1.305S2.92 2.13 3.651 2.13c.73 0 1.323.584 1.323 1.305 0 .346-.14.678-.388.922a1.332 1.332 0 0 1-.935.382Z" fill="#EDEDED"/>
</svg><svg fill="none" viewBox="0 0 18 18" id="social-twitter" xmlns="http://www.w3.org/2000/svg">
    <path d="M14.437 5.15c.64-.388 1.12-1 1.348-1.72a6.086 6.086 0 0 1-1.947.755 3.042 3.042 0 0 0-3.683-.607A3.132 3.132 0 0 0 8.61 7.022a8.666 8.666 0 0 1-6.32-3.25c-.812 1.422-.397 3.239.95 4.152a3.023 3.023 0 0 1-1.389-.39v.04c0 1.48 1.03 2.756 2.46 3.049a3.031 3.031 0 0 1-1.385.054 3.078 3.078 0 0 0 2.865 2.16 6.099 6.099 0 0 1-4.541 1.287 8.592 8.592 0 0 0 4.701 1.398 8.605 8.605 0 0 0 6.188-2.574 8.852 8.852 0 0 0 2.537-6.275c0-.135-.003-.269-.01-.402.601-.44 1.12-.986 1.531-1.61a6.063 6.063 0 0 1-1.76.49Z" fill="#EDEDED"/>
</svg><svg fill="none" viewBox="0 0 60 60" id="ssl" xmlns="http://www.w3.org/2000/svg">
    <path d="M56.25 4.95H3.75a1.88 1.88 0 0 0-1.875 1.875v46.35A1.88 1.88 0 0 0 3.75 55.05h52.5a1.88 1.88 0 0 0 1.875-1.875V6.825A1.88 1.88 0 0 0 56.25 4.95ZM16.444 34.556h2.475c2.4 0 4.35 1.969 4.35 4.369V41.4c0 2.4-1.95 4.35-4.35 4.35h-2.475c-2.4 0-4.35-1.95-4.35-4.35 0-1.031.825-1.875 1.875-1.875a1.88 1.88 0 0 1 1.875 1.875c0 .319.262.6.6.6h2.475c.337 0 .6-.281.6-.6v-2.475a.608.608 0 0 0-.6-.619h-2.475c-2.4 0-4.35-1.95-4.35-4.35v-2.475c0-2.4 1.95-4.35 4.35-4.35h2.475c2.4 0 4.35 1.95 4.35 4.35a1.88 1.88 0 0 1-1.875 1.875 1.88 1.88 0 0 1-1.875-1.875c0-.337-.263-.6-.6-.6h-2.475c-.338 0-.6.263-.6.6v2.475c0 .338.262.6.6.6Zm13.125 0h2.475c2.4 0 4.35 1.969 4.35 4.369V41.4c0 2.4-1.95 4.35-4.35 4.35h-2.475c-2.4 0-4.35-1.95-4.35-4.35 0-1.031.825-1.875 1.875-1.875a1.88 1.88 0 0 1 1.875 1.875c0 .319.262.6.6.6h2.475c.337 0 .6-.281.6-.6v-2.475a.608.608 0 0 0-.6-.619h-2.475c-2.4 0-4.35-1.95-4.35-4.35v-2.475c0-2.4 1.95-4.35 4.35-4.35h2.475c2.4 0 4.35 1.95 4.35 4.35a1.88 1.88 0 0 1-1.875 1.875 1.88 1.88 0 0 1-1.875-1.875c0-.337-.263-.6-.6-.6h-2.475c-.338 0-.6.263-.6.6v2.475c0 .338.262.6.6.6ZM46.03 45.75H40.22a1.868 1.868 0 0 1-1.875-1.875V29.006c0-1.031.825-1.875 1.875-1.875a1.88 1.88 0 0 1 1.875 1.875V42h3.937c1.05 0 1.875.844 1.875 1.875a1.868 1.868 0 0 1-1.875 1.875Zm8.344-27.919H5.625V8.7h48.75v9.131Z" fill="#39D24E"/>
    <path d="M11.25 15.15a1.875 1.875 0 1 0 0-3.75 1.875 1.875 0 0 0 0 3.75ZM18.75 15.15a1.875 1.875 0 1 0 0-3.75 1.875 1.875 0 0 0 0 3.75ZM25.844 15.15a1.875 1.875 0 1 0 0-3.75 1.875 1.875 0 0 0 0 3.75Z" fill="#39D24E"/>
</svg><svg fill="none" viewBox="0 0 48 48" id="tabler_share" xmlns="http://www.w3.org/2000/svg">
    <path d="m17.4 21.4 13.2-6.8m-13.2 12 13.2 6.8M6 24a6 6 0 1 0 12 0 6 6 0 0 0-12 0Zm24-12a6 6 0 1 0 12 0 6 6 0 0 0-12 0Zm0 24a6 6 0 1 0 12 0 6 6 0 0 0-12 0Z" stroke="#fff" stroke-width="2" stroke-linecap="round" stroke-linejoin="round"/>
</svg><svg fill="none" viewBox="0 0 30 30" id="telegram" xmlns="http://www.w3.org/2000/svg">
    <path d="M25.831 4.646 3.67 13.193c-1.513.607-1.504 1.45-.278 1.827l5.69 1.775 13.165-8.306c.623-.379 1.192-.175.724.24l-10.666 9.626H12.3l.003.001-.393 5.865c.575 0 .829-.264 1.152-.575l2.763-2.687 5.749 4.246c1.06.584 1.821.284 2.085-.981l3.774-17.785c.386-1.549-.591-2.25-1.603-1.793Z" fill="#39D24E"/>
</svg><svg fill="none" viewBox="0 0 60 60" id="tron-trx" xmlns="http://www.w3.org/2000/svg">
    <g clip-path="url(#cpa)">
        <path d="M57.703 18.075C54.891 15.478 51 11.512 47.831 8.7l-.187-.131a3.58 3.58 0 0 0-1.04-.582C38.961 6.563 3.403-.083 2.708 0c-.194.027-.38.098-.543.206l-.178.14a2.09 2.09 0 0 0-.488.788l-.047.122v.769c4.003 11.147 19.81 47.663 22.922 56.231.188.581.544 1.688 1.21 1.744h.15c.356 0 1.874-2.006 1.874-2.006s27.15-32.925 29.897-36.431c.356-.432.67-.897.938-1.388a2.26 2.26 0 0 0-.74-2.1Zm-23.128 3.834L46.162 12.3l6.797 6.262-18.384 3.347Zm-4.5-.628-19.95-16.35 32.278 5.953-12.328 10.397Zm1.8 4.285 20.419-3.291L28.95 50.4l2.925-24.834ZM7.415 6.563l20.991 17.812-3.037 26.044L7.416 6.563Z" fill="#A7BED3"/>
    </g>
    <defs>
        <clipPath id="cpa">
            <path fill="#fff" d="M0 0h60v60H0z"/>
        </clipPath>
    </defs>
</svg><svg fill="none" viewBox="0 0 92 55" id="trusted-slide-decor" xmlns="http://www.w3.org/2000/svg">
    <path d="M35.6 54.2H.6L23 .6h23L35.6 54.2Zm45.4 0H46.2L68.6.6h22.8L81 54.2Z" fill="#39D24E"/>
</svg><svg fill="none" viewBox="0 0 30 30" id="twitter" xmlns="http://www.w3.org/2000/svg">
    <path d="M24.994 8.36a5.375 5.375 0 0 0 2.358-2.968 10.738 10.738 0 0 1-3.406 1.302 5.375 5.375 0 0 0-9.145 4.894A15.23 15.23 0 0 1 3.746 5.982a5.375 5.375 0 0 0 1.66 7.163 5.346 5.346 0 0 1-2.428-.672v.067c0 2.554 1.8 4.754 4.303 5.26a5.376 5.376 0 0 1-2.422.092 5.375 5.375 0 0 0 5.011 3.726 10.762 10.762 0 0 1-6.662 2.296c-.429 0-.856-.024-1.282-.074a15.184 15.184 0 0 0 8.224 2.41 15.159 15.159 0 0 0 15.263-15.264c0-.232-.006-.463-.017-.694 1.05-.759 1.957-1.7 2.678-2.777-.979.434-2.017.719-3.08.845Z" fill="#fff"/>
</svg><svg fill="none" viewBox="0 0 48 48" id="uil_link" xmlns="http://www.w3.org/2000/svg">
    <path d="m20 35.1-3.54 3.44a4.95 4.95 0 1 1-7-7l9.08-9.1a4.92 4.92 0 0 1 6.78-.18l.24.2a2.001 2.001 0 1 0 2.8-2.86 5.535 5.535 0 0 0-.36-.42 8.92 8.92 0 0 0-12.18.44l-9.2 9.1a8.96 8.96 0 0 0 12.66 12.66L22.74 38A2 2 0 0 0 20 35.1ZM41.38 6.62a8.98 8.98 0 0 0-12.66 0L25.26 10A2 2 0 0 0 28 12.9l3.46-3.44a4.95 4.95 0 1 1 7 7l-9.08 9.1a4.92 4.92 0 0 1-6.78.18l-.24-.2a2.001 2.001 0 0 0-2.8 2.86c.145.149.299.289.46.42a8.94 8.94 0 0 0 12.18-.44l9.1-9.1a8.98 8.98 0 0 0 .08-12.66Z" fill="#fff"/>
</svg><svg fill="none" viewBox="0 0 60 60" id="usdt" xmlns="http://www.w3.org/2000/svg">
    <g clip-path="url(#cta)">
        <path fill-rule="evenodd" clip-rule="evenodd" d="M30 60C13.43 60 0 46.57 0 30S13.43 0 30 0s30 13.43 30 30-13.43 30-30 30Zm3.604-34.138v-4.436h10.151V14.66h-27.64v6.765h10.152v4.434c-8.25.379-14.454 2.014-14.454 3.971 0 1.958 6.204 3.59 14.454 3.972v14.216h7.337v-14.22c8.237-.379 14.426-2.012 14.426-3.968 0-1.955-6.19-3.588-14.426-3.97Zm0 6.731v-.004c-.206.015-1.27.08-3.642.08-1.893 0-3.226-.057-3.695-.08v.006c-7.29-.32-12.731-1.59-12.731-3.109 0-1.517 5.44-2.786 12.73-3.112v4.957c.477.034 1.842.115 3.728.115 2.264 0 3.398-.094 3.61-.113v-4.955c7.275.324 12.703 1.593 12.703 3.108 0 1.519-5.428 2.785-12.703 3.107Z" fill="#A7BED3"/>
    </g>
    <defs>
        <clipPath id="cta">
            <path fill="#fff" d="M0 0h60v60H0z"/>
        </clipPath>
    </defs>
</svg><svg fill="none" viewBox="0 0 24 24" id="user" xmlns="http://www.w3.org/2000/svg">
    <g clip-path="url(#cua)">
        <mask id="cub" style="mask-type:luminance" maskUnits="userSpaceOnUse" x="0" y="0" width="24" height="24">
            <path d="M0 0h24v24H0V0Z" fill="#fff"/>
        </mask>
        <g mask="url(#cub)">
            <mask id="cuc" style="mask-type:luminance" maskUnits="userSpaceOnUse" x="0" y="0" width="24" height="24">
                <path d="M0 0h24v24H0V0Z" fill="#fff"/>
            </mask>
            <g mask="url(#cuc)" fill="#fff">
                <path d="M18.899 4.76a9.977 9.977 0 0 0-7.139-2.759 9.931 9.931 0 0 0-6.999 3.1 9.977 9.977 0 0 0-2.76 7.139 9.931 9.931 0 0 0 3.1 6.999 9.913 9.913 0 0 0 6.889 2.76h.25a9.931 9.931 0 0 0 6.999-3.1 9.96 9.96 0 0 0 2.76-7.14 9.972 9.972 0 0 0-3.1-6.998ZM12.21 20.499a8.37 8.37 0 0 1-5.49-1.85 3.255 3.255 0 0 1 3.04-2.139h4.5c1.37 0 2.58.88 3.04 2.13a8.47 8.47 0 0 1-5.09 1.86Zm6.219-2.95c-.81-1.519-2.4-2.539-4.18-2.539H9.75c-1.78 0-3.38 1.02-4.179 2.55a8.39 8.39 0 0 1-2.06-5.35c-.06-2.269.77-4.429 2.34-6.068a8.445 8.445 0 0 1 5.95-2.63h.209c2.19 0 4.26.83 5.86 2.35a8.445 8.445 0 0 1 2.629 5.949c.05 2.11-.69 4.14-2.07 5.739Z"/>
                <path d="M12.25 5.001h-.5c-1.79 0-3.249 1.46-3.249 3.25v2c0 1.789 1.46 3.249 3.25 3.249h2.999c.41 0 .75-.34.75-.75v-4.5c0-1.79-1.46-3.249-3.25-3.249ZM14 12h-2.25c-.96 0-1.75-.79-1.75-1.75v-2c0-.96.79-1.75 1.75-1.75h.5c.96 0 1.75.78 1.75 1.75V12Z"/>
            </g>
        </g>
    </g>
    <defs>
        <clipPath id="cua">
            <path fill="#fff" d="M0 0h24v24H0z"/>
        </clipPath>
    </defs>
</svg><svg fill="none" viewBox="0 0 80 80" id="wallet" xmlns="http://www.w3.org/2000/svg">
    <path d="M65.725 32.175v-8.209a3.476 3.476 0 0 0-3.473-3.472h-.434v-4.143c0-2.501-2.036-4.536-4.537-4.536H14.947a5.893 5.893 0 0 0-5.894 6.204v.001a1.028 1.028 0 0 0-.008.13v39.197c0 5.067 4.122 9.19 9.189 9.19h44.018a3.476 3.476 0 0 0 3.473-3.472v-8.209a6.216 6.216 0 0 0 5.62-6.179V38.354a6.216 6.216 0 0 0-5.62-6.179ZM12.95 17.717a1.992 1.992 0 0 1 1.996-1.996h42.334c.348 0 .631.283.631.63v3.362H14.947c-1.1 0-1.996-.895-1.996-1.996Zm7.68 36.436h-3.125V32.878h3.125v21.275Zm46.808-5.476a2.293 2.293 0 0 1-1.014 1.907 2.277 2.277 0 0 1-1.285.393H51.941a7.485 7.485 0 0 1-2.833-.557l-.072-.03a7.198 7.198 0 0 1-1.193-.638 6.97 6.97 0 0 1-.58-.422 8.647 8.647 0 0 1-.206-.173c-.044-.04-.09-.079-.133-.119a7.444 7.444 0 0 1-2.445-5.523 7.437 7.437 0 0 1 2.855-5.87 7.065 7.065 0 0 1 .737-.51 7.261 7.261 0 0 1 1.037-.524 7.445 7.445 0 0 1 2.832-.557H65.14c.201 0 .396.026.582.075l.082.023c.053.015.106.033.158.053a2.263 2.263 0 0 1 .803.523c.417.416.674.99.674 1.626v10.323Z" fill="#39D24E"/>
    <path d="M51.547 46.417a2.901 2.901 0 1 0 0-5.803 2.901 2.901 0 0 0 0 5.803Z" fill="#39D24E"/>
</svg><svg fill="none" viewBox="0 0 82 82" id="woocommerce-wordmark" xmlns="http://www.w3.org/2000/svg">
    <path d="M7.752 65.6H6.278a3.308 3.308 0 0 1-3.331-3.331 3.445 3.445 0 0 1 3.46-3.46h1.345v-2.69H5.958C2.69 56.119 0 58.809 0 62.077a6.59 6.59 0 0 0 6.598 6.598h1.154V65.6Zm66.496 0h-1.473a3.308 3.308 0 0 1-3.331-3.331 3.445 3.445 0 0 1 3.46-3.46h1.344v-2.69h-1.857c-3.268 0-5.958 2.69-5.958 5.958a6.59 6.59 0 0 0 6.598 6.598h1.153V65.6h.064Zm-60.09-9.481c-2.883 0-5.19 2.818-5.19 6.278 0 3.46 2.307 6.278 5.19 6.278 2.883 0 5.189-2.819 5.189-6.278 0-3.46-2.306-6.278-5.19-6.278Zm0 10.186c-1.281 0-2.242-1.73-2.242-3.844s1.025-3.844 2.242-3.844c1.281 0 2.242 1.73 2.242 3.844s-1.025 3.844-2.242 3.844Zm5.189 2.37 1.986-12.556h4.164l1.217 6.278 1.602-6.278h3.843l1.858 12.556h-3.203l-1.025-8.52-1.73 8.52h-2.178l-2.37-8.392-1.09 8.392h-3.074Zm15.375 0 1.986-12.556h4.164l1.153 6.278 1.602-6.278h3.907l1.858 12.556H46.19l-1.089-8.52-1.73 8.52h-2.114l-2.434-8.392-1.025 8.392h-3.075Zm15.183 0V56.119h6.534v2.434h-3.267v2.69h2.883v2.307h-3.267v2.434h3.651v2.69h-6.534Zm25.56 0V56.119H82v2.434h-3.267v2.69h2.883v2.307h-3.268v2.434H82v2.69h-6.534Z" fill="#A7BED3"/>
    <path d="M64.063 62.845a1.927 1.927 0 0 0 1.921-1.922V59.77a3.65 3.65 0 0 0-3.651-3.651h-4.74v12.556h2.946v-5.894l3.203 5.894h3.268l-2.947-5.83Zm-2.499-1.089h-1.089v-3.075h1.217c.833 0 1.474.64 1.474 1.474-.064.897-.769 1.601-1.602 1.601ZM47.663 24.152c-1.218-.129-3.46.512-4.485 5.509 0 3.075.705 4.869 1.858 5.51 2.114.64 4.612-2.179 4.612-5.254.065-1.986.193-4.612-1.985-5.765Zm16.4 0c-1.218-.129-3.46.512-4.485 5.509 0 3.075.705 4.869 1.858 5.51 2.114.64 4.613-2.179 4.613-5.254.128-1.986.192-4.612-1.986-5.765Z" fill="#A7BED3"/>
    <path d="M66.625 13.325H15.567c-4.1 0-7.495 3.331-7.495 7.495v17.553c0 4.1 3.331 7.496 7.495 7.496h51.058c4.1 0 7.495-3.331 7.495-7.496V20.756c0-4.1-3.395-7.431-7.495-7.431ZM30.814 41.128s-3.523-4.676-4.42-8.2c-.897-3.523-1.025-1.922-1.025-1.922s-2.82 6.342-5.766 10.378c-2.947 4.036-4.42-1.986-4.42-1.986-1.025-1.217-3.972-19.154-3.972-19.154 1.665-4.549 4.484-.833 4.484-.833l2.883 14.606s4.42-8.969 5.83-11.21c1.473-2.307 3.972-1.666 4.164.704.192 2.37 2.626 8.969 2.626 8.969.192-6.855 3.011-13.39 3.46-14.478.448-1.09 4.997-2.307 4.164 2.05-1.986 4.868-3.972 15.182-3.46 20.82-1.28 4.292-4.548.256-4.548.256Zm18.45-2.306c-1.345.64-6.342 4.036-9.866-3.652-2.242-7.751 2.691-13.453 2.691-13.453s6.47-5.51 10.89 1.794c3.524 8.008-2.37 14.67-3.715 15.31Zm16.464 0c-1.345.64-6.342 4.036-9.866-3.652-2.242-7.751 2.691-13.453 2.691-13.453s6.47-5.51 10.89 1.794c3.524 8.008-2.37 14.67-3.715 15.31Z" fill="#A7BED3"/>
    <path d="m39.719 45.805 11.467 6.726-2.37-6.726-6.599-1.858-2.498 1.858Z" fill="#A7BED3"/>
</svg><svg fill="none" viewBox="0 0 60 60" id="works-arrow" xmlns="http://www.w3.org/2000/svg">
    <path d="m17.5 48.477 4.023 4.023 22.5-22.5-22.5-22.5-4.023 4.023L35.977 30 17.5 48.477Z" fill="#fff"/>
</svg></svg>