<svg width="542" height="573" viewBox="0 0 542 573" fill="none" xmlns="http://www.w3.org/2000/svg">
<path d="M378.113 110.027C374.599 132.172 354.173 147.825 332.491 144.993C310.808 142.158 296.078 121.909 299.592 99.7649C303.105 77.621 323.531 61.9664 345.214 64.8011C366.896 67.6334 381.626 87.8826 378.113 110.027Z" fill="#455A64"/>
<path d="M368.769 108.807C366.092 125.681 350.527 137.611 334.002 135.451C317.48 133.291 306.255 117.86 308.932 100.986C311.61 84.1104 327.175 72.1807 343.698 74.3403C360.221 76.501 371.447 91.9314 368.769 108.807Z" fill="#6A7B83"/>
<path d="M368.862 108.12C368.679 108.103 368.764 106.734 368.653 104.311C368.529 101.901 368.155 98.3895 366.677 94.4152C365.939 92.4358 364.931 90.3507 363.582 88.2956C362.216 86.2564 360.534 84.23 358.468 82.4342C357.44 81.5321 356.33 80.6715 355.123 79.9074C353.921 79.1365 352.647 78.4182 351.284 77.828C349.926 77.2329 348.506 76.7045 347.018 76.3205C345.532 75.9338 343.994 75.6514 342.419 75.4854C340.84 75.3407 339.269 75.3161 337.723 75.4035C336.174 75.4892 334.657 75.7283 333.183 76.0428C331.705 76.3544 330.282 76.8065 328.917 77.3241C327.547 77.8345 326.249 78.4588 325.02 79.1376C322.555 80.4879 320.405 82.1372 318.564 83.86C316.734 85.601 315.228 87.439 314.011 89.2257C311.576 92.814 310.332 96.1654 309.606 98.4917C308.892 100.832 308.631 102.185 308.448 102.165C308.312 102.154 308.264 100.767 308.726 98.2911C309.199 95.8344 310.248 92.246 312.639 88.3378C313.834 86.3923 315.354 84.3793 317.246 82.4618C319.15 80.5618 321.403 78.7378 324.021 77.234C325.326 76.4784 326.71 75.7831 328.176 75.2107C329.637 74.6311 331.166 74.1258 332.755 73.7723C334.343 73.4152 335.981 73.1464 337.651 73.0449C339.321 72.941 341.017 72.9647 342.719 73.1213C344.418 73.2995 346.077 73.6076 347.678 74.0344C349.281 74.4586 350.811 75.0409 352.27 75.6974C353.732 76.3506 355.097 77.1417 356.376 77.9927C357.661 78.8363 358.838 79.7842 359.921 80.7741C362.097 82.7508 363.838 84.9682 365.219 87.1919C366.582 89.4289 367.563 91.6902 368.241 93.8191C369.594 98.0964 369.717 101.799 369.564 104.289C369.392 106.792 368.997 108.134 368.862 108.12Z" fill="#455A64"/>
<g clip-path="url(#clip0_311_13650)">
<path d="M342.312 118.353L341.343 122.224C341.299 122.421 341.197 122.577 341.035 122.69C340.873 122.804 340.699 122.852 340.512 122.836L340.394 122.807C340.322 122.809 340.234 122.798 340.13 122.776C340.026 122.754 339.895 122.732 339.737 122.711C339.579 122.69 339.405 122.657 339.215 122.612C339.025 122.566 338.824 122.516 338.612 122.46C338.401 122.405 338.167 122.339 337.913 122.263C337.658 122.187 337.402 122.105 337.143 122.018C336.885 121.931 336.613 121.828 336.326 121.709C336.039 121.591 335.759 121.466 335.487 121.336C332.131 119.734 329.669 117.374 328.101 114.254C326.533 111.135 326.095 107.733 326.787 104.047L324.743 103.072C324.557 102.983 324.429 102.836 324.362 102.631C324.294 102.426 324.307 102.228 324.401 102.037L325.625 99.541C325.718 99.3495 325.868 99.2164 326.073 99.1416C326.277 99.0668 326.473 99.0738 326.66 99.1628L328.079 99.8406C328.462 98.9877 328.848 98.2181 329.238 97.532L327.796 96.8439C327.596 96.7481 327.463 96.6031 327.399 96.409C327.335 96.2149 327.353 96.0147 327.454 95.8086L328.689 93.291C328.79 93.0848 328.937 92.9463 329.132 92.8754C329.326 92.8045 329.523 92.817 329.724 92.9128L331.832 93.9192C334.309 91.286 337.275 89.6313 340.73 88.955C344.185 88.2787 347.519 88.7073 350.732 90.2408C352.195 90.9391 353.503 91.7725 354.656 92.7409C354.793 92.8604 354.882 93.0393 354.924 93.2776C354.931 93.4806 354.866 93.6676 354.729 93.8384L352.082 96.9084C351.945 97.0792 351.775 97.1748 351.57 97.1952C351.365 97.2156 351.184 97.1519 351.027 97.004L350.951 96.9408C350.901 96.8987 350.828 96.841 350.731 96.7675L350.393 96.5105L349.946 96.2022L349.42 95.8689L348.823 95.5159L348.199 95.1909C346.392 94.3283 344.54 94.0259 342.644 94.2836C340.748 94.5413 339.037 95.3235 337.511 96.6302L347.579 101.436C347.809 101.546 347.945 101.719 347.987 101.958C348.044 102.203 348 102.418 347.856 102.604L346.106 104.875C345.846 105.224 345.523 105.305 345.136 105.121L334.638 100.109C334.327 100.634 333.948 101.407 333.501 102.428L343.375 107.142C343.59 107.244 343.726 107.418 343.783 107.663C343.825 107.902 343.771 108.121 343.62 108.321L341.891 110.548C341.783 110.697 341.637 110.795 341.454 110.844C341.27 110.893 341.1 110.88 340.942 110.804L332.617 106.83C332.461 108.881 332.863 110.759 333.824 112.462C334.786 114.166 336.177 115.452 337.998 116.321C338.257 116.445 338.52 116.557 338.789 116.658C339.058 116.759 339.311 116.848 339.548 116.925C339.784 117.001 340.012 117.069 340.231 117.128C340.45 117.187 340.644 117.234 340.812 117.269C340.981 117.304 341.13 117.335 341.259 117.36L341.55 117.417L341.679 117.424C341.901 117.44 342.081 117.543 342.216 117.735C342.338 117.921 342.37 118.126 342.312 118.353Z" fill="#455A64"/>
</g>
<path d="M149.339 178.614C146.708 195.191 131.417 206.911 115.185 204.789C98.9527 202.667 87.9265 187.509 90.5569 170.93C93.1859 154.352 108.477 142.634 124.71 144.756C140.942 146.877 151.968 162.036 149.339 178.614Z" fill="#455A64"/>
<path d="M142.342 177.7C140.338 190.333 128.685 199.263 116.315 197.646C103.946 196.029 95.5422 184.478 97.5468 171.845C99.5514 159.212 111.204 150.28 123.573 151.897C135.943 153.515 144.347 165.067 142.342 177.7Z" fill="#6A7B83"/>
<path d="M142.417 177.186C142.279 177.173 142.344 176.148 142.261 174.335C142.168 172.53 141.887 169.902 140.781 166.927C140.228 165.445 139.474 163.884 138.462 162.346C137.441 160.819 136.18 159.303 134.634 157.958C133.864 157.283 133.033 156.639 132.13 156.066C131.231 155.489 130.277 154.952 129.256 154.508C128.239 154.063 127.177 153.667 126.063 153.379C124.95 153.09 123.799 152.878 122.62 152.754C121.438 152.646 120.261 152.628 119.103 152.693C117.944 152.756 116.809 152.936 115.704 153.171C114.598 153.404 113.534 153.742 112.511 154.13C111.486 154.513 110.515 154.981 109.594 155.488C107.748 156.499 106.139 157.733 104.761 159.024C103.391 160.328 102.262 161.704 101.352 163.041C99.5288 165.728 98.5975 168.236 98.0543 169.978C97.5198 171.731 97.3251 172.742 97.1872 172.727C97.0854 172.719 97.0497 171.681 97.3952 169.828C97.7491 167.989 98.5338 165.303 100.324 162.377C101.219 160.921 102.357 159.414 103.773 157.978C105.198 156.556 106.885 155.191 108.846 154.064C109.823 153.498 110.859 152.978 111.956 152.55C113.051 152.116 114.194 151.737 115.385 151.473C116.574 151.206 117.799 151.005 119.05 150.929C120.299 150.852 121.569 150.87 122.843 150.987C124.115 151.121 125.357 151.351 126.556 151.67C127.757 151.988 128.902 152.424 129.993 152.915C131.088 153.405 132.109 153.996 133.067 154.634C134.029 155.265 134.91 155.975 135.721 156.717C137.349 158.196 138.654 159.856 139.687 161.521C140.707 163.196 141.441 164.888 141.949 166.483C142.961 169.686 143.054 172.458 142.939 174.321C142.813 176.192 142.518 177.197 142.417 177.186Z" fill="#455A64"/>
<path d="M120.339 188.722L119.767 192.706L116.294 192.302L116.851 188.427C113.443 187.814 110.301 186.329 108.61 184.577L111.143 180.459C112.692 181.977 115.054 183.228 117.52 183.767L118.374 177.827C114.657 176.42 110.538 174.603 111.269 169.516C111.811 165.746 114.951 162.821 120.531 162.819L121.099 158.87L124.574 159.273L124.016 163.151C126.59 163.666 129.024 164.672 130.756 166.139L128.39 170.312C126.767 169.075 125.047 168.26 123.341 167.845L122.472 173.892C126.195 175.263 130.244 177.073 129.524 182.086C128.989 185.785 125.89 188.679 120.339 188.722ZM119.125 172.598L119.85 167.548C117.948 167.76 117.071 168.708 116.902 169.882C116.723 171.126 117.668 171.923 119.125 172.598ZM123.868 181.864C124.047 180.618 123.137 179.826 121.72 179.118L121.015 184.026C122.808 183.838 123.705 183.001 123.868 181.864Z" fill="#455A64"/>
<path d="M395.116 328.538L335.717 522.843C332.467 533.475 321.448 539.69 311.107 536.724L36.5573 457.986C26.2152 455.02 20.4674 443.996 23.7176 433.364L83.1167 239.059C86.3672 228.426 97.3858 222.212 107.727 225.177L382.276 303.916C392.617 306.882 398.366 317.905 395.116 328.538Z" fill="#39D24E"/>
<path d="M395.108 328.454C395.108 328.454 395.159 328.213 395.273 327.742C395.373 327.269 395.607 326.577 395.71 325.626C396.014 323.758 396.208 320.853 395.271 317.294C394.78 315.534 394.029 313.611 392.809 311.731C391.582 309.865 389.917 308.032 387.755 306.533C387.223 306.149 386.625 305.839 386.047 305.479C385.446 305.158 384.803 304.891 384.166 304.586C383.495 304.358 382.814 304.125 382.12 303.889C381.411 303.687 380.691 303.482 379.958 303.273C377.028 302.438 373.908 301.549 370.603 300.607C344.165 293.054 305.919 282.127 258.66 268.626C235.03 261.866 209.15 254.462 181.365 246.514C167.474 242.538 153.106 238.425 138.306 234.19C130.907 232.072 123.398 229.923 115.789 227.744C113.887 227.199 111.977 226.653 110.062 226.104C108.136 225.576 106.253 224.937 104.263 224.803C102.284 224.642 100.268 224.754 98.2918 225.195C96.3248 225.667 94.4142 226.433 92.6374 227.467C90.8471 228.484 89.2528 229.856 87.8536 231.392C86.4569 232.936 85.2686 234.698 84.4277 236.623C83.5629 238.526 83.0214 240.597 82.3825 242.64C81.7568 244.685 81.1303 246.737 80.5012 248.793C77.9852 257.021 75.4412 265.344 72.8694 273.754C67.7252 290.577 62.4728 307.753 57.1259 325.238C46.4296 360.209 35.3549 396.416 24.0108 433.5C22.6174 438.078 22.8847 443.073 24.7617 447.321C26.6008 451.582 30.018 455.062 34.2013 456.873C36.2758 457.781 38.5527 458.303 40.7599 458.964C42.9785 459.6 45.1928 460.234 47.4028 460.868C51.8238 462.135 56.2298 463.397 60.6183 464.656C78.1754 469.689 95.4757 474.649 112.475 479.522C146.472 489.27 179.266 498.674 210.504 507.632C241.741 516.595 271.425 525.111 299.205 533.081C302.678 534.077 306.121 535.065 309.533 536.045C311.242 536.551 312.925 536.992 314.671 537.144C316.409 537.254 318.17 537.234 319.881 536.861C320.748 536.745 321.575 536.434 322.417 536.217C323.224 535.88 324.067 535.633 324.833 535.203C326.423 534.472 327.854 533.436 329.194 532.329C331.814 530.029 333.883 527.103 335.029 523.862C339.194 510.656 343.022 497.883 346.77 485.745C361.678 437.148 373.742 397.822 382.081 370.638C386.261 357.056 389.507 346.509 391.71 339.351C392.815 335.78 393.659 333.057 394.228 331.219C394.801 329.388 395.108 328.454 395.108 328.454C395.108 328.454 394.84 329.399 394.289 331.236C393.732 333.078 392.908 335.807 391.826 339.385C389.647 346.549 386.437 357.106 382.302 370.701C374.006 397.897 362.002 437.241 347.169 485.859C343.431 498.012 339.627 510.753 335.456 524.012C334.286 527.328 332.171 530.327 329.49 532.684C328.118 533.819 326.653 534.88 325.027 535.629C324.243 536.07 323.381 536.325 322.555 536.67C321.692 536.894 320.845 537.212 319.958 537.332C318.205 537.715 316.401 537.738 314.62 537.625C312.838 537.474 311.085 537.015 309.394 536.514C305.981 535.538 302.538 534.552 299.064 533.559C271.278 525.606 241.589 517.107 210.346 508.164C179.103 499.216 146.307 489.824 112.307 480.086C95.307 475.216 78.0054 470.26 60.4476 465.229C56.0577 463.971 51.6528 462.709 47.2314 461.443C45.0214 460.81 42.8061 460.175 40.5886 459.539C38.3827 458.877 36.1203 458.366 33.9564 457.421C29.6466 455.555 26.124 451.969 24.2305 447.58C22.2962 443.207 22.0198 438.054 23.457 433.341C34.8042 396.258 45.8832 360.052 56.5828 325.082C61.934 307.598 67.191 290.423 72.3392 273.602C74.9134 265.192 77.4614 256.871 79.9796 248.643C80.6089 246.586 81.2374 244.536 81.863 242.491C82.5016 240.457 83.0406 238.382 83.938 236.403C84.8037 234.424 86.026 232.611 87.4626 231.026C88.901 229.445 90.5413 228.037 92.3821 226.992C94.2083 225.93 96.1719 225.144 98.1936 224.661C100.223 224.208 102.297 224.093 104.331 224.26L105.848 224.449L107.332 224.784C108.323 225.007 109.26 225.32 110.224 225.583C112.139 226.131 114.048 226.68 115.95 227.225C123.559 229.408 131.066 231.561 138.463 233.684C153.26 237.93 167.625 242.051 181.513 246.036C209.291 254.01 235.164 261.438 258.786 268.219C306.021 281.798 344.249 292.786 370.674 300.383C373.976 301.334 377.093 302.232 380.021 303.076C380.753 303.287 381.472 303.494 382.18 303.698C382.88 303.94 383.567 304.176 384.242 304.408C384.885 304.719 385.533 304.991 386.138 305.317C386.721 305.682 387.323 305.996 387.858 306.386C390.035 307.907 391.706 309.762 392.934 311.647C394.155 313.546 394.902 315.486 395.387 317.26C396.31 320.846 396.093 323.764 395.77 325.635C395.656 326.587 395.413 327.279 395.304 327.75C395.178 328.218 395.108 328.454 395.108 328.454Z" fill="#263238"/>
<path d="M385.777 324.043C385.825 323.882 387.32 324.179 389.117 324.706C390.913 325.234 392.33 325.792 392.282 325.953C392.234 326.113 390.739 325.817 388.943 325.289C387.146 324.763 385.729 324.204 385.777 324.043Z" fill="#263238"/>
<path d="M359.214 316.178C359.262 316.017 362.273 316.763 365.937 317.843C369.604 318.924 372.536 319.931 372.488 320.092C372.441 320.252 369.43 319.507 365.764 318.427C362.099 317.347 359.166 316.34 359.214 316.178Z" fill="#263238"/>
<path d="M332.652 308.313C332.7 308.152 335.711 308.898 339.375 309.978C343.041 311.059 345.974 312.066 345.926 312.226C345.878 312.387 342.868 311.642 339.201 310.561C335.536 309.482 332.603 308.475 332.652 308.313Z" fill="#263238"/>
<path d="M306.088 300.448C306.136 300.286 309.147 301.032 312.813 302.113C316.479 303.194 319.411 304.201 319.363 304.362C319.316 304.522 316.306 303.777 312.639 302.696C308.973 301.617 306.04 300.61 306.088 300.448Z" fill="#263238"/>
<path d="M279.525 292.583C279.573 292.421 282.584 293.167 286.248 294.248C289.914 295.328 292.847 296.336 292.799 296.496C292.751 296.657 289.741 295.912 286.074 294.831C282.41 293.752 279.477 292.744 279.525 292.583Z" fill="#263238"/>
<path d="M252.962 284.718C253.01 284.556 256.021 285.302 259.685 286.383C263.352 287.464 266.284 288.471 266.236 288.631C266.189 288.792 263.178 288.047 259.512 286.966C255.846 285.887 252.914 284.879 252.962 284.718Z" fill="#263238"/>
<path d="M226.399 276.853C226.447 276.691 229.458 277.437 233.122 278.517C236.788 279.598 239.721 280.605 239.673 280.766C239.625 280.926 236.615 280.182 232.948 279.101C229.284 278.022 226.351 277.014 226.399 276.853Z" fill="#263238"/>
<path d="M199.836 268.988C199.884 268.826 202.895 269.572 206.561 270.653C210.227 271.733 213.159 272.741 213.111 272.901C213.064 273.062 210.054 272.317 206.387 271.236C202.721 270.157 199.788 269.149 199.836 268.988Z" fill="#263238"/>
<path d="M173.275 261.123C173.323 260.961 176.334 261.707 179.999 262.788C183.666 263.868 186.598 264.876 186.55 265.036C186.502 265.197 183.492 264.452 179.825 263.371C176.159 262.291 173.227 261.284 173.275 261.123Z" fill="#263238"/>
<path d="M146.71 253.257C146.758 253.096 149.769 253.842 153.433 254.922C157.1 256.003 160.032 257.01 159.984 257.17C159.937 257.331 156.926 256.586 153.26 255.505C149.595 254.426 146.662 253.419 146.71 253.257Z" fill="#263238"/>
<path d="M120.149 245.392C120.197 245.231 123.208 245.977 126.872 247.057C130.538 248.138 133.471 249.145 133.423 249.305C133.375 249.466 130.365 248.721 126.698 247.64C123.034 246.561 120.101 245.554 120.149 245.392Z" fill="#263238"/>
<path d="M98.4188 246.125C98.2648 246.081 99.0459 243.089 100.162 239.444C100.895 239.03 100.367 239.33 100.531 239.237L100.533 239.238L100.539 239.239L100.549 239.242L100.57 239.248L100.611 239.26L100.694 239.284L100.858 239.331L101.184 239.425C101.399 239.488 101.61 239.551 101.821 239.612C102.229 239.735 102.627 239.855 103.02 239.974C103.715 240.196 104.387 240.411 105.041 240.619C106.187 241.004 106.883 241.281 106.859 241.36C106.834 241.439 106.095 241.305 104.917 241.024C104.251 240.855 103.567 240.682 102.858 240.502C102.462 240.394 102.06 240.285 101.649 240.173C101.438 240.114 101.225 240.056 101.01 239.995L100.683 239.903L100.519 239.856L100.436 239.832L100.394 239.82L100.374 239.814L100.363 239.811L100.358 239.81L100.356 239.809C100.518 239.717 99.9881 240.015 100.72 239.602C99.6032 243.248 98.5729 246.169 98.4188 246.125Z" fill="#263238"/>
<path d="M91.2066 270.378C91.0554 270.334 91.7446 267.571 92.7446 264.21C93.7449 260.847 94.6785 258.158 94.8286 258.202C94.9798 258.246 94.2909 261.008 93.2905 264.371C92.2916 267.733 91.3577 270.423 91.2066 270.378Z" fill="#263238"/>
<path d="M83.9986 294.719C83.8474 294.675 84.5367 291.912 85.5366 288.551C86.5369 285.188 87.4705 282.498 87.6206 282.543C87.7718 282.587 87.0829 285.349 86.0825 288.712C85.0833 292.075 84.1497 294.764 83.9986 294.719Z" fill="#263238"/>
<path d="M76.7906 319.061C76.6394 319.017 77.3286 316.254 78.3286 312.893C79.3289 309.53 80.2625 306.841 80.4126 306.885C80.5638 306.929 79.8748 309.691 78.8745 313.054C77.8756 316.416 76.9417 319.106 76.7906 319.061Z" fill="#263238"/>
<path d="M69.5845 343.403C69.4333 343.358 70.1226 340.595 71.1226 337.234C72.1229 333.871 73.0564 331.182 73.2065 331.226C73.3577 331.27 72.6688 334.032 71.6685 337.395C70.6692 340.758 69.7357 343.447 69.5845 343.403Z" fill="#263238"/>
<path d="M62.3765 367.744C62.2253 367.7 62.9143 364.938 63.9146 361.576C64.9149 358.213 65.8484 355.524 65.9985 355.568C66.1497 355.612 65.4608 358.374 64.4605 361.737C63.4615 365.099 62.5277 367.789 62.3765 367.744Z" fill="#263238"/>
<path d="M55.1704 392.085C55.0193 392.041 55.7085 389.278 56.7085 385.917C57.7088 382.554 58.6424 379.864 58.7925 379.909C58.9437 379.953 58.2547 382.715 57.2544 386.078C56.2552 389.441 55.3216 392.13 55.1704 392.085Z" fill="#263238"/>
<path d="M47.9624 416.427C47.8113 416.383 48.5005 413.62 49.5005 410.259C50.5008 406.896 51.4344 404.206 51.5845 404.251C51.7357 404.295 51.0467 407.057 50.0464 410.42C49.0475 413.782 48.1136 416.472 47.9624 416.427Z" fill="#263238"/>
<path d="M48.858 437.031C48.8095 437.189 45.8969 436.494 42.3516 435.479C41.9697 434.746 42.2467 435.274 42.161 435.109L42.162 435.106L42.1637 435.101L42.167 435.09L42.1734 435.069L42.1866 435.026L42.2125 434.941L42.2644 434.772L42.3682 434.436C42.437 434.215 42.5058 433.998 42.5733 433.782C42.7077 433.362 42.839 432.952 42.9687 432.547C43.21 431.831 43.4439 431.139 43.671 430.466C44.0872 429.285 44.3828 428.567 44.4598 428.589C44.5368 428.611 44.3803 429.369 44.0647 430.579C43.8761 431.263 43.6829 431.967 43.4822 432.694C43.3632 433.102 43.2426 433.515 43.1189 433.938C43.0536 434.155 42.989 434.373 42.9224 434.595L42.8207 434.931L42.7688 435.1L42.7429 435.185L42.7297 435.228L42.7233 435.249L42.72 435.26L42.7183 435.265L42.7173 435.269C42.6323 435.105 42.9072 435.637 42.526 434.905C46.0725 435.921 48.9065 436.872 48.858 437.031Z" fill="#263238"/>
<path d="M75.1273 444.776C75.0792 444.938 72.1117 444.205 68.4994 443.14C64.8861 442.075 61.9974 441.08 62.0451 440.92C62.0928 440.759 65.0596 441.491 68.6729 442.556C72.2855 443.62 75.1753 444.615 75.1273 444.776Z" fill="#263238"/>
<path d="M101.305 452.528C101.257 452.689 98.2895 451.956 94.6772 450.891C91.0639 449.826 88.1741 448.831 88.2218 448.671C88.2695 448.51 91.2374 449.243 94.8507 450.308C98.4633 451.371 101.353 452.366 101.305 452.528Z" fill="#263238"/>
<path d="M127.482 460.279C127.434 460.441 124.466 459.707 120.854 458.642C117.241 457.577 114.352 456.583 114.4 456.423C114.447 456.262 117.414 456.994 121.027 458.059C124.64 459.123 127.53 460.117 127.482 460.279Z" fill="#263238"/>
<path d="M153.661 468.03C153.613 468.192 150.646 467.459 147.034 466.394C143.42 465.329 140.532 464.334 140.579 464.174C140.627 464.013 143.594 464.745 147.207 465.81C150.82 466.874 153.709 467.869 153.661 468.03Z" fill="#263238"/>
<path d="M179.838 475.781C179.79 475.943 176.823 475.21 173.21 474.145C169.597 473.08 166.707 472.085 166.755 471.925C166.803 471.764 169.77 472.496 173.384 473.561C176.997 474.625 179.886 475.62 179.838 475.781Z" fill="#263238"/>
<path d="M206.018 483.533C205.97 483.694 203.002 482.961 199.39 481.896C195.777 480.831 192.887 479.836 192.935 479.676C192.982 479.515 195.949 480.247 199.564 481.313C203.176 482.376 206.066 483.371 206.018 483.533Z" fill="#263238"/>
<path d="M232.197 491.284C232.149 491.445 229.181 490.712 225.569 489.647C221.955 488.582 219.067 487.588 219.114 487.427C219.162 487.267 222.129 487.999 225.742 489.064C229.355 490.128 232.245 491.122 232.197 491.284Z" fill="#263238"/>
<path d="M258.374 499.035C258.326 499.197 255.359 498.464 251.747 497.399C248.133 496.334 245.243 495.339 245.291 495.179C245.339 495.018 248.307 495.75 251.92 496.815C255.533 497.879 258.423 498.874 258.374 499.035Z" fill="#263238"/>
<path d="M284.553 506.787C284.505 506.948 281.538 506.215 277.925 505.15C274.312 504.085 271.422 503.09 271.47 502.93C271.518 502.769 274.484 503.501 278.099 504.567C281.711 505.63 284.601 506.625 284.553 506.787Z" fill="#263238"/>
<path d="M310.73 514.537C310.682 514.699 307.714 513.966 304.102 512.901C300.489 511.836 297.599 510.841 297.647 510.681C297.694 510.52 300.661 511.252 304.276 512.317C307.888 513.381 310.778 514.376 310.73 514.537Z" fill="#263238"/>
<path d="M330.332 520.342C330.284 520.503 328.789 520.206 326.992 519.678C325.196 519.151 323.779 518.592 323.827 518.432C323.875 518.272 325.37 518.568 327.166 519.095C328.963 519.622 330.38 520.18 330.332 520.342Z" fill="#263238"/>
<g opacity="0.3">
<path d="M156.847 378.02C156.847 378.02 153.543 389.148 148.24 394.923C142.937 400.697 141.056 402.964 133.415 403.567C125.774 404.171 35.8339 388.873 35.8339 388.873L45.0094 358.646L156.847 378.02Z" fill="black"/>
</g>
<g opacity="0.3">
<path d="M167.028 337.607C167.028 337.607 171.459 326.515 145.034 314.241C114.81 300.202 68.0967 280.18 68.0967 280.18L61.5937 301.72L167.028 337.607Z" fill="black"/>
</g>
<path d="M44.6705 369.426L134.257 395.139C142.759 397.58 151.818 392.465 154.491 383.715L167.097 342.446C169.77 333.695 165.044 324.623 156.542 322.183L66.9554 296.47C58.4529 294.029 49.3948 299.145 46.7219 307.895L34.116 349.165C31.442 357.915 36.1681 366.986 44.6705 369.426Z" fill="#39D24E"/>
<path d="M44.6712 369.437C44.6712 369.437 44.3594 369.351 43.7576 369.154C43.1503 368.975 42.2756 368.611 41.1965 368.012C40.1048 367.432 38.8707 366.499 37.6065 365.2C36.3579 363.89 35.1359 362.124 34.3011 359.88C33.4861 357.648 32.9816 354.928 33.3886 351.98C33.5362 350.502 34.0274 349.009 34.4793 347.484C34.9438 345.952 35.4252 344.362 35.9249 342.715C37.9262 336.123 40.2037 328.619 42.7202 320.325C43.9929 316.179 45.273 311.833 46.7059 307.308C48.2189 302.769 51.8445 298.639 56.6362 296.795C59.0035 295.857 61.6187 295.413 64.2032 295.697C65.4918 295.813 66.7821 296.134 68.0114 296.497C69.2548 296.853 70.5068 297.211 71.7674 297.572C76.8131 299.014 82.0058 300.501 87.331 302.024C108.631 308.129 132.045 314.839 156.623 321.882C158.177 322.363 159.664 323.031 161.018 323.916C162.348 324.833 163.544 325.931 164.568 327.177C165.56 328.45 166.365 329.861 166.976 331.356C167.569 332.862 167.911 334.46 168.07 336.072C168.209 337.691 168.069 339.323 167.777 340.919C167.408 342.516 166.906 344.014 166.45 345.535C165.522 348.569 164.601 351.577 163.69 354.56C161.865 360.525 160.072 366.385 158.317 372.123C157.439 374.992 156.569 377.83 155.71 380.637C155.256 382.041 154.909 383.434 154.373 384.824C154.153 385.53 153.78 386.173 153.481 386.842C153.108 387.473 152.765 388.125 152.329 388.71C148.994 393.542 143.272 396.255 137.918 395.982C137.243 395.999 136.59 395.845 135.929 395.785C135.281 395.658 134.635 395.501 134.003 395.342C132.761 394.984 131.529 394.629 130.305 394.277C127.859 393.572 125.452 392.878 123.085 392.197C113.619 389.467 104.801 386.924 96.7491 384.601C80.6634 379.944 67.6443 376.174 58.628 373.563C54.1425 372.251 50.6556 371.23 48.2732 370.533C47.1026 370.184 46.2056 369.916 45.5851 369.73C44.9759 369.546 44.6712 369.437 44.6712 369.437C44.6712 369.437 44.9881 369.506 45.5997 369.671C46.2244 369.843 47.1275 370.091 48.3054 370.416C50.6964 371.089 54.1937 372.072 58.6935 373.338C67.7222 375.904 80.7613 379.612 96.8707 384.192C104.929 386.492 113.754 389.012 123.228 391.716C125.596 392.394 128.005 393.081 130.453 393.781C132.919 394.421 135.346 395.411 137.952 395.454C143.135 395.71 148.672 393.073 151.889 388.397C153.602 386.111 154.322 383.294 155.182 380.484C156.038 377.677 156.904 374.837 157.779 371.967C159.53 366.228 161.319 360.367 163.139 354.401C164.05 351.419 164.969 348.409 165.895 345.375C166.35 343.858 166.858 342.331 167.207 340.815C167.486 339.275 167.622 337.702 167.487 336.14C167.333 334.586 167.003 333.046 166.432 331.592C165.842 330.15 165.064 328.789 164.109 327.562C163.12 326.361 161.968 325.303 160.687 324.419C159.381 323.566 157.948 322.924 156.448 322.457C131.876 315.398 108.466 308.672 87.1701 302.555C81.8475 301.023 76.6569 299.53 71.6139 298.078C70.3529 297.715 69.1016 297.354 67.8599 296.997C66.613 296.626 65.4001 296.324 64.1403 296.205C61.6368 295.924 59.1005 296.351 56.8019 297.255C52.1479 299.036 48.6194 303.036 47.1352 307.445C45.7006 311.938 44.4013 316.301 43.1173 320.438C40.5696 328.723 38.2642 336.218 36.2381 342.803C35.7309 344.448 35.242 346.037 34.771 347.567C34.3079 349.101 33.8207 350.555 33.668 352.007C33.2501 354.902 33.7294 357.583 34.5165 359.792C35.3237 362.011 36.5138 363.766 37.7361 365.075C38.9738 366.372 40.1856 367.313 41.2593 367.906C42.3204 368.518 43.1833 368.898 43.7812 369.096C44.3702 369.312 44.6712 369.437 44.6712 369.437Z" fill="#263238"/>
<path d="M115.881 382.013C130.04 386.068 145.132 377.55 149.59 362.988C154.048 348.425 146.185 333.333 132.026 329.279C117.867 325.224 102.776 333.742 98.3173 348.305C93.859 362.867 101.723 377.959 115.881 382.013Z" fill="#263238"/>
<path d="M124.331 379.096C124.31 378.936 127.156 379.152 131.377 377.573C133.474 376.795 135.863 375.509 138.163 373.596C140.46 371.694 142.622 369.113 144.141 366.002C145.617 362.869 146.274 359.571 146.316 356.596C146.365 353.613 145.868 350.953 145.158 348.838C143.738 344.575 141.782 342.507 141.92 342.422C141.935 342.408 142.053 342.534 142.264 342.787C142.463 343.048 142.803 343.401 143.139 343.931C143.867 344.951 144.776 346.551 145.544 348.691C146.316 350.824 146.869 353.532 146.848 356.585C146.835 359.63 146.177 363.022 144.657 366.248C143.093 369.451 140.858 372.091 138.489 374.014C136.117 375.949 133.656 377.223 131.504 377.965C129.351 378.713 127.529 379.016 126.275 379.093C125.65 379.164 125.16 379.124 124.831 379.132C124.502 379.129 124.33 379.116 124.331 379.096Z" fill="#FAFAFA"/>
<path d="M401.222 204.937C397.311 223.199 379.676 235.27 361.832 231.902C343.988 228.533 332.692 210.999 336.602 192.737C340.511 174.475 358.146 162.403 375.991 165.773C393.835 169.141 405.131 186.676 401.222 204.937Z" fill="#39D24E"/>
<g opacity="0.3">
<path d="M393.657 202.957C393.506 202.935 393.638 201.799 393.654 199.777C393.659 197.765 393.507 194.824 392.46 191.446C391.936 189.764 391.194 187.981 390.167 186.207C389.126 184.444 387.822 182.68 386.189 181.088C385.377 180.289 384.496 179.52 383.529 178.827C382.566 178.129 381.542 177.471 380.439 176.916C379.339 176.357 378.185 175.85 376.969 175.461C375.754 175.07 374.491 174.763 373.192 174.55C371.89 174.356 370.588 174.262 369.302 174.262C368.014 174.261 366.745 174.389 365.508 174.581C364.269 174.772 363.069 175.082 361.914 175.448C360.755 175.81 359.651 176.269 358.601 176.776C356.496 177.785 354.639 179.056 353.034 180.405C351.438 181.769 350.107 183.228 349.017 184.659C346.836 187.532 345.654 190.264 344.948 192.166C344.25 194.081 343.974 195.195 343.823 195.169C343.711 195.153 343.734 193.997 344.228 191.957C344.73 189.934 345.761 186.997 347.919 183.855C348.998 182.292 350.349 180.686 352.004 179.179C353.668 177.687 355.619 176.274 357.857 175.144C358.974 174.576 360.153 174.062 361.394 173.654C362.632 173.24 363.922 172.891 365.257 172.672C366.589 172.449 367.96 172.302 369.349 172.296C370.738 172.288 372.144 172.387 373.547 172.597C374.948 172.825 376.31 173.159 377.62 173.589C378.93 174.017 380.172 174.573 381.353 175.187C382.536 175.8 383.632 176.522 384.655 177.29C385.683 178.052 386.616 178.896 387.469 179.772C389.185 181.519 390.53 183.447 391.575 185.362C392.605 187.288 393.316 189.217 393.783 191.021C394.713 194.645 394.649 197.734 394.411 199.799C394.155 201.877 393.768 202.976 393.657 202.957Z" fill="black"/>
</g>
<g opacity="0.3">
<path d="M368.508 214.359L367.636 218.75L363.815 218.083L364.665 213.812C360.929 212.918 357.541 211.072 355.775 209.02L358.826 204.603C360.449 206.387 362.989 207.923 365.686 208.677L366.987 202.129C362.956 200.335 358.506 198.059 359.621 192.453C360.447 188.298 364.098 185.243 370.275 185.589L371.141 181.237L374.962 181.902L374.112 186.176C376.931 186.91 379.565 188.178 381.393 189.916L378.525 194.405C376.801 192.93 374.947 191.917 373.084 191.349L371.759 198.014C375.797 199.77 380.17 202.033 379.072 207.559C378.261 211.636 374.656 214.658 368.508 214.359ZM368.133 196.368L369.239 190.801C367.12 190.919 366.092 191.917 365.835 193.211C365.562 194.582 366.56 195.527 368.133 196.368ZM372.827 206.96C373.099 205.587 372.14 204.65 370.613 203.775L369.538 209.184C371.534 209.086 372.578 208.213 372.827 206.96Z" fill="black"/>
</g>
<path d="M344.304 193.972C344.311 193.973 344.306 194.045 344.29 194.183C344.27 194.344 344.244 194.545 344.212 194.795C344.173 195.073 344.126 195.403 344.072 195.787C344.017 196.178 343.934 196.628 343.928 197.141C343.754 199.178 343.785 202.178 344.667 205.687C345.081 207.449 345.824 209.285 346.755 211.172C347.02 211.625 347.29 212.087 347.564 212.555C347.705 212.786 347.831 213.031 347.987 213.258C348.148 213.481 348.311 213.705 348.474 213.931C348.809 214.376 349.116 214.856 349.486 215.292C349.865 215.72 350.249 216.155 350.639 216.595C352.273 218.269 354.163 219.879 356.402 221.103C358.634 222.325 361.125 223.251 363.784 223.785C366.458 224.248 369.137 224.289 371.695 223.963C374.26 223.638 376.66 222.83 378.85 221.87C379.388 221.603 379.919 221.34 380.444 221.08C380.962 220.81 381.441 220.477 381.931 220.186C382.174 220.036 382.414 219.887 382.654 219.739C382.889 219.586 383.105 219.405 383.329 219.242C383.773 218.907 384.208 218.578 384.638 218.255C386.263 216.845 387.694 215.417 388.79 213.937C391.027 211.011 392.271 208.249 392.935 206.305C393.138 205.828 393.243 205.383 393.351 205.001C393.457 204.627 393.547 204.305 393.624 204.034C393.695 203.792 393.753 203.597 393.799 203.441C393.841 203.307 393.865 203.24 393.872 203.241C393.879 203.242 393.867 203.313 393.838 203.449C393.802 203.607 393.757 203.805 393.7 204.052C393.634 204.326 393.555 204.651 393.463 205.031C393.367 205.417 393.272 205.869 393.079 206.351C392.455 208.321 391.241 211.126 389.006 214.107C387.911 215.614 386.476 217.072 384.838 218.51C384.405 218.841 383.965 219.177 383.518 219.518C383.292 219.686 383.075 219.87 382.837 220.026C382.595 220.177 382.352 220.329 382.107 220.483C381.612 220.781 381.128 221.121 380.603 221.397C380.072 221.663 379.535 221.932 378.99 222.205C376.774 223.189 374.339 224.015 371.735 224.352C369.138 224.688 366.417 224.649 363.702 224.179C361.002 223.637 358.472 222.694 356.209 221.447C353.94 220.201 352.025 218.56 350.375 216.854C349.982 216.406 349.594 215.963 349.212 215.526C348.839 215.082 348.529 214.595 348.193 214.141C348.029 213.911 347.865 213.682 347.703 213.456C347.547 213.225 347.42 212.977 347.279 212.741C347.004 212.265 346.734 211.795 346.468 211.334C345.537 209.416 344.801 207.552 344.4 205.766C343.542 202.207 343.556 199.178 343.778 197.132C343.795 196.616 343.89 196.165 343.959 195.773C344.027 195.389 344.086 195.06 344.136 194.782C344.183 194.534 344.221 194.334 344.252 194.175C344.28 194.04 344.297 193.971 344.304 193.972Z" fill="#263238"/>
<path d="M457.678 384.94C446.793 397.107 428.562 398.294 416.955 387.592C405.349 376.888 404.765 358.348 415.65 346.181C426.534 334.014 444.766 332.827 456.371 343.53C467.977 354.233 468.562 372.773 457.678 384.94Z" fill="#39D24E"/>
<g opacity="0.3">
<path d="M453.109 379.981C453.008 379.895 453.602 379.091 454.5 377.559C455.385 376.03 456.562 373.723 457.274 370.675C457.629 369.156 457.866 367.462 457.891 365.645C457.901 363.83 457.719 361.895 457.222 359.941C456.977 358.964 456.669 357.979 456.265 357.012C455.865 356.043 455.404 355.078 454.84 354.153C454.28 353.229 453.657 352.318 452.937 351.469C452.219 350.619 451.429 349.811 450.571 349.06C449.703 348.32 448.791 347.656 447.85 347.073C446.908 346.488 445.923 346.007 444.933 345.593C443.943 345.175 442.928 344.865 441.922 344.62C440.916 344.369 439.906 344.216 438.915 344.126C436.933 343.937 435.018 344.061 433.252 344.359C431.486 344.672 429.873 345.178 428.449 345.773C425.595 346.97 423.533 348.511 422.183 349.639C420.834 350.781 420.145 351.502 420.044 351.415C419.969 351.352 420.492 350.482 421.747 349.154C423 347.842 425.041 346.074 427.997 344.663C429.472 343.964 431.163 343.355 433.035 342.96C434.906 342.58 436.953 342.391 439.086 342.548C440.151 342.623 441.239 342.767 442.326 343.021C443.414 343.267 444.511 343.589 445.584 344.027C446.657 344.463 447.724 344.974 448.745 345.6C449.765 346.225 450.75 346.938 451.686 347.736C452.612 348.546 453.461 349.419 454.232 350.341C455.003 351.262 455.669 352.251 456.264 353.254C456.862 354.258 457.348 355.306 457.76 356.355C458.178 357.402 458.492 358.47 458.733 359.523C459.223 361.631 459.364 363.71 459.288 365.644C459.198 367.578 458.875 369.369 458.426 370.954C457.519 374.136 456.12 376.458 455.041 377.921C453.947 379.385 453.181 380.046 453.109 379.981Z" fill="black"/>
</g>
<g opacity="0.3">
<path d="M429.517 377.227L426.942 380.189L424.424 377.934L426.93 375.052C424.575 372.661 422.894 369.7 422.498 367.322L426.689 365.334C427.098 367.441 428.29 369.777 429.944 371.587L433.785 367.169C431.608 363.953 429.336 360.178 432.626 356.396C435.064 353.592 439.096 352.922 443.489 356.009L446.042 353.072L448.561 355.327L446.055 358.211C447.806 360.06 449.185 362.235 449.765 364.4L445.676 366.527C445.058 364.61 444.139 362.987 443.018 361.701L439.108 366.198C441.306 369.388 443.528 373.118 440.285 376.846C437.893 379.597 433.909 380.264 429.517 377.227ZM437.164 363.282L440.429 359.526C438.819 358.648 437.622 358.942 436.863 359.815C436.059 360.741 436.377 361.92 437.164 363.282ZM435.954 373.534C436.759 372.608 436.465 371.452 435.727 370.085L432.554 373.735C434.067 374.572 435.217 374.381 435.954 373.534Z" fill="black"/>
</g>
<path d="M420.639 350.664C420.685 350.704 420.035 351.464 419.015 352.932C418.011 354.407 416.735 356.703 415.859 359.762C415.398 361.286 415.145 363.012 415.004 364.862C414.962 366.713 415.029 368.701 415.481 370.72C415.944 372.724 416.621 374.795 417.718 376.73C418.812 378.661 420.221 380.485 421.923 382.09C423.668 383.648 425.597 384.887 427.601 385.799C429.608 386.712 431.706 387.187 433.716 387.453C435.74 387.706 437.696 387.573 439.505 387.342C441.303 387.014 442.969 386.584 444.415 385.964C447.325 384.769 449.446 383.25 450.789 382.086C452.124 380.908 452.803 380.175 452.847 380.217C452.861 380.231 452.702 380.421 452.384 380.773C452.051 381.109 451.618 381.672 450.936 382.259C449.624 383.488 447.508 385.086 444.56 386.354C443.095 387.01 441.401 387.475 439.566 387.83C437.719 388.088 435.717 388.242 433.641 387.998C431.579 387.742 429.422 387.265 427.358 386.336C425.299 385.409 423.313 384.138 421.523 382.539C419.776 380.892 418.331 379.015 417.215 377.029C416.097 375.039 415.412 372.91 414.953 370.852C414.504 368.779 414.453 366.743 414.52 364.85C414.683 362.96 414.967 361.201 415.463 359.656C416.407 356.55 417.76 354.252 418.831 352.801C419.337 352.052 419.845 351.558 420.142 351.188C420.453 350.831 420.623 350.65 420.639 350.664Z" fill="#263238"/>
<path d="M300.628 194.545C295.226 228.572 263.841 252.627 230.529 248.278C197.214 243.925 174.586 212.813 179.988 178.785C185.388 144.759 216.773 120.702 250.087 125.055C283.401 129.405 306.03 160.519 300.628 194.545Z" fill="#39D24E"/>
<g opacity="0.3">
<path d="M286.423 191.618C286.141 191.592 286.272 189.489 286.102 185.766C285.911 182.062 285.336 176.668 283.067 170.56C281.932 167.519 280.384 164.315 278.311 161.157C276.211 158.024 273.628 154.91 270.454 152.151C268.873 150.766 267.168 149.443 265.314 148.269C263.467 147.084 261.51 145.981 259.416 145.074C257.329 144.16 255.147 143.348 252.861 142.758C250.578 142.164 248.215 141.73 245.794 141.475C243.369 141.252 240.954 141.215 238.579 141.349C236.2 141.481 233.868 141.848 231.603 142.332C229.333 142.811 227.146 143.505 225.048 144.301C222.944 145.085 220.95 146.044 219.061 147.087C215.273 149.162 211.97 151.695 209.142 154.344C206.329 157.019 204.015 159.843 202.145 162.589C198.403 168.103 196.492 173.252 195.377 176.827C194.279 180.423 193.88 182.502 193.597 182.47C193.388 182.454 193.315 180.324 194.024 176.519C194.752 172.744 196.362 167.231 200.036 161.226C201.873 158.237 204.209 155.143 207.116 152.197C210.041 149.277 213.503 146.475 217.527 144.163C219.532 143.001 221.658 141.933 223.91 141.053C226.155 140.163 228.504 139.386 230.947 138.843C233.387 138.294 235.902 137.881 238.469 137.725C241.035 137.565 243.641 137.602 246.255 137.842C248.866 138.116 251.415 138.589 253.876 139.245C256.34 139.897 258.69 140.791 260.931 141.8C263.178 142.804 265.274 144.019 267.239 145.327C269.214 146.623 271.023 148.079 272.686 149.6C276.029 152.638 278.705 156.044 280.826 159.461C282.921 162.898 284.427 166.373 285.469 169.644C287.547 176.216 287.737 181.908 287.502 185.731C287.238 189.578 286.632 191.641 286.423 191.618Z" fill="black"/>
</g>
<path d="M194.368 180.325C194.381 180.327 194.381 180.458 194.366 180.715C194.344 181.016 194.318 181.389 194.284 181.849C194.239 182.367 194.188 182.979 194.127 183.688C194.065 184.415 193.957 185.251 193.997 186.196C193.88 189.961 194.239 195.478 196.219 201.841C197.16 205.04 198.715 208.338 200.623 211.713C201.158 212.52 201.702 213.341 202.255 214.173C202.538 214.584 202.795 215.022 203.105 215.422C203.425 215.816 203.748 216.212 204.073 216.61C204.735 217.394 205.35 218.244 206.076 219.009C206.819 219.759 207.572 220.517 208.334 221.286C211.519 224.197 215.17 226.962 219.425 228.979C223.667 230.994 228.36 232.439 233.321 233.147C238.306 233.72 243.254 233.517 247.945 232.651C252.649 231.788 257 230.052 260.948 228.06C261.915 227.514 262.87 226.975 263.811 226.443C264.742 225.892 265.592 225.231 266.468 224.645C266.902 224.344 267.332 224.045 267.759 223.749C268.179 223.443 268.56 223.088 268.956 222.764C269.741 222.103 270.514 221.452 271.274 220.812C274.136 218.052 276.636 215.275 278.514 212.439C282.355 206.824 284.38 201.614 285.414 197.969C285.743 197.072 285.892 196.241 286.054 195.528C286.212 194.829 286.349 194.229 286.463 193.721C286.572 193.27 286.659 192.904 286.731 192.611C286.795 192.36 286.835 192.234 286.847 192.235C286.86 192.237 286.846 192.367 286.807 192.62C286.755 192.918 286.692 193.288 286.613 193.745C286.517 194.258 286.405 194.865 286.274 195.572C286.134 196.293 286.007 197.134 285.698 198.043C284.744 201.733 282.782 207.023 278.951 212.743C277.079 215.631 274.572 218.465 271.689 221.283C270.923 221.937 270.143 222.603 269.352 223.278C268.952 223.608 268.567 223.97 268.142 224.284C267.711 224.587 267.276 224.894 266.839 225.201C265.954 225.803 265.095 226.477 264.152 227.041C263.2 227.585 262.232 228.138 261.253 228.696C257.255 230.738 252.839 232.514 248.061 233.402C243.295 234.293 238.263 234.505 233.198 233.92C228.157 233.202 223.388 231.729 219.082 229.67C214.764 227.61 211.062 224.789 207.843 221.819C207.073 221.035 206.313 220.261 205.562 219.498C204.829 218.718 204.209 217.853 203.542 217.053C203.216 216.647 202.891 216.244 202.57 215.842C202.257 215.434 202 214.989 201.715 214.57C201.16 213.721 200.614 212.886 200.077 212.064C198.165 208.63 196.62 205.274 195.702 202.028C193.765 195.566 193.491 189.987 193.699 186.2C193.68 185.248 193.812 184.408 193.899 183.681C193.988 182.97 194.065 182.357 194.13 181.84C194.194 181.381 194.245 181.01 194.287 180.711C194.329 180.452 194.355 180.324 194.368 180.325Z" fill="#263238"/>
<g clip-path="url(#clip1_311_13650)">
<path d="M256.725 202.255L258.715 207.909C258.824 208.192 258.818 208.472 258.697 208.75C258.576 209.027 258.383 209.233 258.119 209.369L257.935 209.431C257.84 209.494 257.713 209.555 257.554 209.614C257.395 209.673 257.201 209.755 256.971 209.861C256.741 209.967 256.479 210.071 256.185 210.173C255.891 210.275 255.578 210.38 255.246 210.488C254.915 210.595 254.545 210.708 254.138 210.825C253.731 210.943 253.317 211.055 252.896 211.162C252.475 211.27 252.022 211.369 251.535 211.46C251.049 211.551 250.567 211.629 250.09 211.694C244.218 212.496 238.902 211.6 234.143 209.007C229.383 206.415 225.901 202.523 223.697 197.333L220.121 197.821C219.795 197.866 219.499 197.788 219.234 197.588C218.969 197.389 218.818 197.13 218.781 196.812L218.303 192.666C218.266 192.348 218.354 192.056 218.565 191.791C218.777 191.527 219.046 191.372 219.372 191.327L221.857 190.988C221.646 189.601 221.51 188.315 221.45 187.131L218.928 187.475C218.577 187.523 218.275 187.452 218.024 187.263C217.773 187.073 217.628 186.808 217.588 186.465L217.106 182.282C217.066 181.94 217.147 181.643 217.347 181.392C217.548 181.141 217.824 180.992 218.175 180.944L221.864 180.441C222.953 175.075 225.531 170.524 229.6 166.789C233.668 163.053 238.512 160.802 244.134 160.035C246.693 159.686 249.16 159.635 251.533 159.882C251.818 159.918 252.09 160.067 252.35 160.33C252.531 160.578 252.603 160.867 252.564 161.195L251.618 167.25C251.579 167.578 251.431 167.84 251.174 168.037C250.916 168.234 250.618 168.305 250.281 168.252L250.126 168.236C250.023 168.225 249.875 168.214 249.683 168.203L249.009 168.165L248.147 168.152L247.156 168.175L246.054 168.233L244.939 168.347C241.777 168.779 239.032 169.949 236.703 171.857C234.374 173.764 232.74 176.174 231.801 179.084L249.417 176.68C249.819 176.626 250.15 176.73 250.409 176.992C250.694 177.252 250.818 177.558 250.783 177.91L250.362 182.216C250.309 182.869 249.945 183.242 249.267 183.335L230.898 185.841C230.927 186.757 231.075 188.041 231.342 189.694L248.62 187.336C248.996 187.285 249.327 187.389 249.611 187.648C249.871 187.911 249.984 188.23 249.952 188.608L249.522 192.84C249.503 193.116 249.391 193.361 249.186 193.575C248.981 193.79 248.741 193.916 248.465 193.953L233.898 195.941C235.432 198.639 237.57 200.651 240.31 201.979C243.05 203.307 246.014 203.754 249.201 203.319C249.653 203.257 250.102 203.177 250.55 203.079C250.997 202.981 251.412 202.88 251.796 202.778C252.179 202.676 252.543 202.571 252.887 202.462C253.231 202.353 253.532 202.25 253.788 202.152C254.045 202.055 254.27 201.969 254.466 201.892L254.905 201.721L255.084 201.622C255.396 201.455 255.725 201.435 256.071 201.561C256.392 201.691 256.61 201.923 256.725 202.255Z" fill="#289337"/>
</g>
<defs>
<clipPath id="clip0_311_13650">
<rect width="24.5618" height="34.4371" fill="white" transform="matrix(0.89689 0.428117 -0.442704 0.902963 334.081 82.2927)"/>
</clipPath>
<clipPath id="clip1_311_13650">
<rect width="38.4425" height="52.6279" fill="white" transform="matrix(1.00266 -0.136832 0.113183 0.981599 214.999 164.011)"/>
</clipPath>
</defs>
</svg>
