<svg width="421" height="540" viewBox="0 0 421 540" fill="none" xmlns="http://www.w3.org/2000/svg">
<path d="M226.727 146.267C223.438 154.239 204.119 153.704 183.864 145.349C163.608 136.993 149.853 123.757 153.142 115.786C153.904 113.938 156.03 107.038 158.308 106.077C165.857 102.894 180.212 110.063 195.772 116.481C210.255 122.455 226.807 126.295 229.378 134.163C230.935 138.935 227.664 143.995 226.727 146.267Z" fill="#39D24E"/>
<path opacity="0.2" d="M229.383 134.162C230.613 140.417 227.903 143.412 226.726 146.265C225.515 149.208 222.127 150.986 217.326 151.647C216.748 151.742 216.14 151.8 215.517 151.848C212.298 152.087 208.565 151.9 204.501 151.273C203.979 151.209 203.464 151.111 202.934 151.019C198.959 150.332 194.71 149.235 190.327 147.776C189.853 147.619 189.375 147.446 188.898 147.274C187.239 146.69 185.547 146.056 183.864 145.355C182.187 144.669 180.556 143.935 178.963 143.173C178.504 142.963 178.054 142.735 177.61 142.521C173.62 140.542 169.997 138.397 166.807 136.188C166.386 135.905 165.993 135.611 165.59 135.336C162.27 132.919 159.472 130.426 157.362 127.99C156.994 127.579 156.658 127.173 156.336 126.763C153.138 122.713 151.88 118.858 153.144 115.789C153.964 113.803 155.757 107.044 158.3 106.073C160.847 105.116 164.126 105.249 167.921 106.057C168.41 106.164 168.915 106.279 169.427 106.409C176.922 108.306 186.211 112.539 195.765 116.481C207.033 121.131 220.359 125.952 226.882 131.526C227.289 131.861 227.652 132.212 228.003 132.565C228.535 133.096 228.986 133.62 229.383 134.162Z" fill="black"/>
<g opacity="0.2">
<path d="M170.115 105.168L169.425 106.409L157.362 127.99C156.994 127.579 156.658 127.173 156.336 126.763L167.919 106.058L168.816 104.452L170.115 105.168Z" fill="black"/>
</g>
<g opacity="0.2">
<path d="M179.235 113.957L166.806 136.19C166.386 135.906 165.992 135.612 165.59 135.337L177.949 113.222L179.235 113.957Z" fill="black"/>
</g>
<g opacity="0.2">
<path d="M202.094 126.728L190.325 147.775C189.851 147.617 189.373 147.445 188.896 147.272L200.793 125.995L202.094 126.728Z" fill="black"/>
</g>
<g opacity="0.2">
<path d="M191.467 120.792L178.961 143.174C178.502 142.965 178.052 142.736 177.608 142.522L190.166 120.061L191.467 120.792Z" fill="black"/>
</g>
<g opacity="0.2">
<path d="M215.955 130.796L204.499 151.273C203.978 151.209 203.462 151.111 202.932 151.019L214.654 130.065L215.955 130.796Z" fill="black"/>
</g>
<path d="M229.293 139.256C226.005 147.228 206.919 146.916 186.663 138.56C166.408 130.205 152.653 116.97 155.941 108.998C159.229 101.025 178.315 101.337 198.571 109.693C218.826 118.05 232.581 131.285 229.293 139.256Z" fill="#39D24E"/>
<path opacity="0.2" d="M222.407 136.415C220.084 142.048 205.206 141.253 189.175 134.64C173.145 128.027 162.034 118.102 164.357 112.469C166.68 106.836 181.558 107.631 197.589 114.244C213.619 120.857 224.73 130.783 222.407 136.415Z" fill="white"/>
<path d="M329.103 74.1675C334.384 80.9856 324.31 97.4797 306.987 110.896C289.664 124.312 271.34 129.661 266.059 122.845C264.835 121.264 259.906 115.988 260.206 113.534C261.2 105.401 274.559 96.5141 287.866 86.2083C300.253 76.6155 311.817 64.1662 319.922 65.8492C324.836 66.8697 327.598 72.2246 329.103 74.1675Z" fill="#39D24E"/>
<path opacity="0.2" d="M319.922 65.8419C325.96 67.8859 327.209 71.7271 329.099 74.1677C331.049 76.6825 330.907 80.506 329.093 84.9993C328.888 85.549 328.635 86.103 328.366 86.669C326.972 89.5804 324.953 92.7265 322.388 95.9409C322.073 96.3613 321.731 96.7609 321.388 97.1738C318.815 100.28 315.751 103.421 312.303 106.498C311.93 106.831 311.544 107.159 311.156 107.489C309.825 108.638 308.432 109.789 306.988 110.901C305.558 112.015 304.111 113.063 302.658 114.066C302.248 114.36 301.827 114.636 301.42 114.916C297.718 117.393 294.055 119.468 290.552 121.138C290.096 121.362 289.646 121.557 289.208 121.769C285.46 123.448 281.906 124.636 278.743 125.253C278.204 125.369 277.684 125.458 277.169 125.532C272.065 126.291 268.094 125.467 266.061 122.843C264.745 121.144 259.774 116.226 260.196 113.537C260.633 110.852 262.378 108.074 264.967 105.183C265.302 104.813 265.655 104.43 266.022 104.051C271.395 98.4929 279.688 92.5393 287.861 86.2129C297.498 78.7487 308.309 69.5881 316.39 66.7005C316.883 66.5148 317.368 66.3722 317.85 66.2459C318.575 66.0484 319.255 65.9162 319.922 65.8419Z" fill="black"/>
<g opacity="0.2">
<path d="M265.29 102.838L266.024 104.053L278.745 125.253C278.206 125.368 277.686 125.458 277.17 125.532L264.969 105.185L264.023 103.607L265.29 102.838Z" fill="black"/>
</g>
<g opacity="0.2">
<path d="M277.451 99.2965L290.555 121.137C290.099 121.361 289.649 121.555 289.211 121.768L276.172 100.047L277.451 99.2965Z" fill="black"/>
</g>
<g opacity="0.2">
<path d="M299.901 85.8179L312.305 106.496C311.932 106.829 311.546 107.157 311.159 107.487L298.619 86.5829L299.901 85.8179Z" fill="black"/>
</g>
<g opacity="0.2">
<path d="M289.463 92.0848L302.66 114.066C302.25 114.36 301.828 114.636 301.421 114.916L288.181 92.8498L289.463 92.0848Z" fill="black"/>
</g>
<g opacity="0.2">
<path d="M310.323 75.8177L322.389 95.9407C322.074 96.3611 321.732 96.7607 321.389 97.1736L309.041 76.5827L310.323 75.8177Z" fill="black"/>
</g>
<path d="M302.481 105.087C319.804 91.6708 329.567 75.2682 324.287 68.4509C319.007 61.6336 300.684 66.9832 283.361 80.3995C266.038 93.8158 256.275 110.218 261.555 117.036C266.834 123.853 285.158 118.503 302.481 105.087Z" fill="#39D24E"/>
<path opacity="0.2" d="M318.409 73.015C322.138 77.8322 314.049 90.3439 300.34 100.962C286.631 111.579 272.493 116.281 268.761 111.464C265.032 106.646 273.12 94.1347 286.83 83.5169C300.54 72.8991 314.677 68.1978 318.409 73.015Z" fill="white"/>
<path d="M257.39 42.225C255.651 52.0005 233.784 56.1478 208.942 51.7272C184.101 47.3051 165.373 35.7961 167.112 26.0191C167.517 23.7523 168.212 15.4667 170.538 13.8268C178.247 8.39016 196.16 12.9281 215.242 16.3238C233.003 19.4847 252.569 19.7373 257.393 27.9576C260.322 32.9411 257.886 39.4384 257.39 42.225Z" fill="#455A64"/>
<path opacity="0.2" d="M257.403 27.9533C260.324 34.6882 258.012 38.7226 257.388 42.2223C256.75 45.8304 253.375 48.663 248.137 50.5867C247.51 50.8362 246.842 51.0501 246.151 51.2566C242.588 52.3157 238.342 53.0227 233.616 53.3169C233.014 53.3733 232.41 53.3896 231.79 53.4164C227.15 53.6214 222.101 53.4312 216.81 52.8668C216.238 52.8059 215.658 52.7301 215.078 52.6529C213.068 52.4048 211.008 52.1062 208.944 51.7304C206.889 51.3695 204.874 50.9461 202.896 50.4812C202.328 50.3579 201.765 50.2123 201.213 50.0801C196.238 48.8354 191.635 47.3113 187.502 45.6105C186.959 45.3936 186.445 45.1604 185.925 44.9495C181.595 43.0482 177.835 40.9314 174.864 38.7078C174.349 38.3364 173.871 37.9621 173.409 37.5789C168.816 33.8089 166.453 29.7819 167.119 26.0178C167.553 23.5818 167.911 15.5382 170.533 13.8211C173.164 12.1188 176.883 11.4622 181.351 11.4385C181.926 11.4385 182.525 11.4444 183.132 11.4637C192.03 11.7564 203.521 14.234 215.238 16.3225C229.058 18.7824 245.235 20.9318 253.942 25.599C254.483 25.8767 254.978 26.1812 255.459 26.4947C256.187 26.9626 256.824 27.4409 257.403 27.9533Z" fill="black"/>
<g opacity="0.2">
<path d="M183.601 9.90252L183.131 11.4667L174.863 38.7107C174.348 38.3394 173.87 37.965 173.408 37.5818L181.35 11.4414L181.965 9.41382L183.601 9.90252Z" fill="black"/>
</g>
<g opacity="0.2">
<path d="M196.02 17.5477L187.501 45.6132C186.958 45.3964 186.444 45.1631 185.924 44.9522L194.392 17.0353L196.02 17.5477Z" fill="black"/>
</g>
<g opacity="0.2">
<path d="M224.875 26.2969L216.808 52.868C216.236 52.8071 215.657 52.7314 215.076 52.6541L223.231 25.7933L224.875 26.2969Z" fill="black"/>
</g>
<g opacity="0.2">
<path d="M211.462 22.2301L202.894 50.4828C202.327 50.3595 201.764 50.2139 201.211 50.0817L209.818 21.7266L211.462 22.2301Z" fill="black"/>
</g>
<g opacity="0.2">
<path d="M241.469 27.4676L233.614 53.3183C233.013 53.3747 232.408 53.3911 231.789 53.4178L239.826 26.964L241.469 27.4676Z" fill="black"/>
</g>
<path d="M258.539 33.7093C260.279 23.9334 241.552 12.4248 216.711 8.00409C191.869 3.5834 170.321 7.92466 168.582 17.7005C166.842 27.4764 185.569 38.985 210.41 43.4057C235.252 47.8264 256.8 43.4852 258.539 33.7093Z" fill="#455A64"/>
<path opacity="0.2" d="M250.11 32.2029C248.88 39.1101 231.948 41.873 212.288 38.3733C192.629 34.8737 177.69 26.438 178.918 19.5308C180.147 12.6236 197.08 9.86073 216.74 13.3589C236.399 16.86 251.34 25.2957 250.11 32.2029Z" fill="white"/>
<path d="M387.075 291.758L234.214 300.651C228.795 300.966 223.476 302.264 218.523 304.482L52.4804 378.809C46.4526 381.507 43.1193 387.973 44.4696 394.348L71.9409 524.086C73.8259 532.988 83.75 537.674 91.9985 533.555L255.885 451.742L407.21 446.626C415.16 446.357 421.093 439.249 419.832 431.506L399.577 307.267C398.531 300.85 393.663 291.563 387.075 291.758Z" fill="#39D24E"/>
<path opacity="0.1" d="M387.075 291.758L234.214 300.651C228.795 300.966 223.476 302.264 218.523 304.482L52.4804 378.809C46.4526 381.507 43.1193 387.973 44.4696 394.348L71.9409 524.086C73.8259 532.988 83.75 537.674 91.9985 533.555L255.885 451.742L407.21 446.626C415.16 446.357 421.093 439.249 419.832 431.506L399.577 307.267C398.531 300.85 393.663 291.563 387.075 291.758Z" fill="black"/>
<path d="M80.2246 207.302L0.000488281 281.242L143.941 437.417L224.165 363.477L80.2246 207.302Z" fill="#39D24E"/>
<path opacity="0.5" d="M224.183 363.466L143.96 437.406L0.0175781 281.241L52.6623 232.712L80.2405 207.288L84.8394 212.273L224.183 363.466Z" fill="#FAFAFA"/>
<path d="M80.7467 216.852L9.95508 282.098L144.601 428.188L215.393 362.942L80.7467 216.852Z" stroke="#39D24E" stroke-miterlimit="10"/>
<path d="M128.638 339.776C136.754 332.294 135.728 317.977 126.344 307.797C116.961 297.618 102.774 295.432 94.6575 302.914C86.5405 310.396 87.5671 324.713 96.9505 334.893C106.334 345.072 120.521 347.259 128.638 339.776Z" fill="#39D24E"/>
<path opacity="0.1" d="M143.105 374.03L114.6 383.877L52.6621 232.712L80.2404 207.288L84.8392 212.273L143.105 374.03Z" fill="black"/>
<path d="M148.636 146.106L46.0674 183.288L118.452 382.961L221.02 345.779L148.636 146.106Z" fill="#39D24E"/>
<path opacity="0.5" d="M148.636 146.106L46.0674 183.288L118.452 382.961L221.02 345.779L148.636 146.106Z" fill="#FAFAFA"/>
<path d="M145.426 155.114L54.917 187.925L122.627 374.705L213.136 341.894L145.426 155.114Z" stroke="#39D24E" stroke-miterlimit="10"/>
<path d="M142.033 286.995C152.411 283.232 156.999 269.632 152.281 256.618C147.563 243.603 135.325 236.103 124.948 239.865C114.57 243.627 109.982 257.227 114.7 270.241C119.418 283.256 131.655 290.757 142.033 286.995Z" fill="#39D24E"/>
<path d="M388.071 297.032L237.301 305.526C231.957 305.827 226.712 307.111 221.834 309.314L58.2313 383.175C52.2926 385.856 49.0202 392.31 50.369 398.685L77.8047 528.431C79.6882 537.334 89.489 542.043 97.6157 537.948L259.07 456.597L408.335 451.877C416.177 451.629 422.012 444.539 420.746 436.797L400.443 312.567C399.396 306.15 394.57 296.854 388.071 297.032Z" fill="#39D24E"/>
<path opacity="0.2" d="M243.435 328.262L372.794 320.29" stroke="black" stroke-width="2" stroke-miterlimit="10" stroke-linecap="round" stroke-linejoin="round"/>
<path opacity="0.2" d="M227.938 331.604L251.576 440.158" stroke="black" stroke-width="2" stroke-miterlimit="10" stroke-linecap="round" stroke-linejoin="round"/>
<path opacity="0.2" d="M70.3691 429.606L87.034 513.11C87.034 513.11 99.8101 479.975 70.3691 429.606Z" fill="#FAFAFA"/>
<path opacity="0.2" d="M72.5562 430.588C73.128 432.11 220.584 368.799 220.584 368.799C220.584 368.799 224.315 414.311 179.94 439.202C135.565 464.091 72.5562 430.588 72.5562 430.588Z" fill="#FAFAFA"/>
<path d="M170.504 433.049C174.032 433.049 176.891 430.19 176.891 426.662C176.891 423.134 174.032 420.275 170.504 420.275C166.976 420.275 164.117 423.134 164.117 426.662C164.117 430.19 166.976 433.049 170.504 433.049Z" fill="#39D24E"/>
<path opacity="0.2" d="M220.661 368.799C220.661 368.799 238.95 396.313 234.526 443.203L220.661 368.799Z" fill="black"/>
<g opacity="0.2">
<path d="M63.3135 396.809L66.7106 395.308" stroke="#FAFAFA" stroke-linecap="round" stroke-linejoin="round"/>
<path d="M73.7725 392.187L211.471 331.323" stroke="#FAFAFA" stroke-linecap="round" stroke-linejoin="round" stroke-dasharray="5.2 5.2"/>
<path d="M215.001 329.762L218.397 328.262" stroke="#FAFAFA" stroke-linecap="round" stroke-linejoin="round"/>
</g>
<path opacity="0.2" d="M247.773 352.661L377.133 344.689" stroke="black" stroke-width="2" stroke-miterlimit="10" stroke-linecap="round" stroke-linejoin="round"/>
<path opacity="0.2" d="M253.595 383.093L382.954 375.122" stroke="black" stroke-width="2" stroke-miterlimit="10" stroke-linecap="round" stroke-linejoin="round"/>
<path d="M363.112 195.65L331.751 304.779C329.536 312.493 322.875 317.715 315.378 318.462C313.048 318.69 310.626 318.497 308.22 317.809L248.199 300.56C238.108 297.652 232.274 287.117 235.169 277.03L266.542 167.883C268.228 162.045 272.456 157.626 277.701 155.511C281.496 153.97 285.823 153.643 290.077 154.866L350.094 172.1C360.184 175.01 366.018 185.544 363.112 195.65Z" fill="#182125"/>
<path opacity="0.2" d="M363.112 195.65L331.751 304.779C329.536 312.493 322.875 317.715 315.378 318.462C313.048 318.69 310.626 318.497 308.22 317.809L248.199 300.56C238.108 297.652 232.274 287.117 235.169 277.03L266.542 167.883C268.228 162.045 272.456 157.626 277.701 155.511C281.496 153.97 285.823 153.643 290.077 154.866L350.094 172.1C360.184 175.01 366.018 185.544 363.112 195.65Z" fill="black"/>
<path d="M357.894 196.948L326.532 306.077C324.849 311.929 320.607 316.351 315.378 318.464C313.048 318.691 310.626 318.498 308.22 317.81L248.199 300.561C238.108 297.653 232.274 287.118 235.169 277.031L266.542 167.884C268.228 162.046 272.456 157.627 277.701 155.512C280.031 155.285 282.452 155.478 284.859 156.165L344.876 173.399C354.966 176.308 360.799 186.842 357.894 196.948Z" fill="#182125"/>
<path opacity="0.5" d="M357.894 196.948L326.532 306.077C324.849 311.929 320.607 316.351 315.378 318.464C313.048 318.691 310.626 318.498 308.22 317.81L248.199 300.561C238.108 297.653 232.274 287.118 235.169 277.031L266.542 167.884C268.228 162.046 272.456 157.627 277.701 155.512C280.031 155.285 282.452 155.478 284.859 156.165L344.876 173.399C354.966 176.308 360.799 186.842 357.894 196.948Z" fill="#FAFAFA"/>
<path d="M273.571 206.197L267.149 204.387L244.051 286.361L250.474 288.171L273.571 206.197Z" fill="#FAFAFA"/>
<path d="M259.666 290.802L253.252 288.959L276.344 207.001L282.758 208.844L259.666 290.802Z" fill="#FAFAFA"/>
<path d="M268.998 293.485L262.585 291.642L285.677 209.684L292.091 211.527L268.998 293.485Z" fill="#FAFAFA"/>
<path opacity="0.5" d="M329.482 222.256L323.06 220.446L299.962 302.42L306.384 304.23L329.482 222.256Z" fill="black"/>
<path d="M328.639 199.1L325.445 210.226L321.643 209.156C317.81 208.072 315.582 204.091 316.652 200.259L318.731 192.876L326.411 195.074C328.134 195.579 329.129 197.377 328.639 199.1Z" fill="#FAFAFA"/>
<path d="M326.811 193.649L319.132 191.45L321.434 183.31C322.504 179.478 326.499 177.25 330.332 178.319L334.283 179.433L330.837 191.421C330.347 193.158 328.549 194.154 326.811 193.649Z" fill="#FAFAFA"/>
<path d="M334.09 197.288L341.814 199.501L339.764 206.765C338.695 210.597 334.714 212.84 330.881 211.756L326.871 210.627L330.064 199.516C330.554 197.793 332.352 196.798 334.09 197.288Z" fill="#FAFAFA"/>
<path d="M344.548 189.816L342.215 198.075L334.491 195.862C332.768 195.357 331.773 193.559 332.263 191.836L335.709 179.849L339.557 180.933C343.389 182.003 345.617 185.984 344.548 189.816Z" fill="#FAFAFA"/>
</svg>
