<svg width="463" height="392" viewBox="0 0 463 392" fill="none" xmlns="http://www.w3.org/2000/svg">
<path d="M349.925 360.648C349.925 360.648 343.773 347.227 350.802 333.996C357.83 320.765 359.867 317.649 355.387 314.939C350.907 312.229 348.852 325.523 348.852 325.523C348.852 325.523 345.075 316.377 348.194 306.805C351.312 297.233 353.267 281.643 349.008 279.97C344.75 278.299 348.195 299.419 344.5 306.619C344.5 306.619 341.396 298.604 340.886 290.916C340.375 283.228 341.173 270.951 337.809 267.803C334.446 264.654 332.292 266.833 335.597 283.798C338.902 300.765 338.877 314.556 338.877 314.556C338.877 314.556 331.578 292.3 326.678 291.651C321.78 291.002 321.786 298.21 325.979 304.461C330.172 310.712 338.26 321.913 339.587 327.674C339.587 327.674 331.574 310.926 324.367 316.059C317.16 321.192 330.64 331.308 336.649 334.965C342.658 338.62 346.83 361.535 346.83 361.535L349.925 360.648Z" fill="#39D24E"/>
<path opacity="0.2" d="M349.925 360.648C349.925 360.648 343.773 347.227 350.802 333.996C357.83 320.765 359.867 317.649 355.387 314.939C350.907 312.229 348.852 325.523 348.852 325.523C348.852 325.523 345.075 316.377 348.194 306.805C351.312 297.233 353.267 281.643 349.008 279.97C344.75 278.299 348.195 299.419 344.5 306.619C344.5 306.619 341.396 298.604 340.886 290.916C340.375 283.228 341.173 270.951 337.809 267.803C334.446 264.654 332.292 266.833 335.597 283.798C338.902 300.765 338.877 314.556 338.877 314.556C338.877 314.556 331.578 292.3 326.678 291.651C321.78 291.002 321.786 298.21 325.979 304.461C330.172 310.712 338.26 321.913 339.587 327.674C339.587 327.674 331.574 310.926 324.367 316.059C317.16 321.192 330.64 331.308 336.649 334.965C342.658 338.62 346.83 361.535 346.83 361.535L349.925 360.648Z" fill="black"/>
<path d="M345.07 366.153C345.07 366.153 351.06 352.641 343.874 339.516C336.688 326.39 334.613 323.305 339.06 320.528C343.508 317.751 345.722 331.014 345.722 331.014C345.722 331.014 349.389 321.812 346.156 312.289C342.923 302.764 340.78 287.204 345.019 285.469C349.257 283.732 346.065 304.904 349.847 312.048C349.847 312.048 352.854 303.987 353.272 296.293C353.691 288.597 352.746 276.334 356.071 273.136C359.396 269.936 361.576 272.084 358.475 289.098C355.374 306.112 355.564 319.902 355.564 319.902C355.564 319.902 362.596 297.539 367.486 296.817C372.377 296.095 372.458 303.301 368.339 309.616C364.221 315.929 356.269 327.248 355.013 333.03C355.013 333.03 362.823 316.164 370.092 321.189C377.36 326.214 364.002 336.531 358.038 340.276C352.074 344.02 348.177 366.995 348.177 366.995L345.07 366.153Z" fill="#39D24E"/>
<path d="M372.696 356.52H323.215L327.219 391.929H368.692L372.696 356.52Z" fill="#263238"/>
<path d="M459.756 238.443H198.239C196.539 238.443 195.161 237.065 195.161 235.365V3.07767C195.161 1.37737 196.539 0 198.239 0H459.756C461.455 0 462.833 1.37737 462.833 3.07767V235.365C462.833 237.064 461.455 238.443 459.756 238.443Z" fill="#39D24E"/>
<path opacity="0.6" d="M195.161 21.2258V235.365C195.161 237.064 196.304 238.443 197.713 238.443H460.281C461.691 238.443 462.833 237.066 462.833 235.365V21.2258H195.161Z" fill="white"/>
<path d="M459.659 33.8506H198.334V222.966H459.659V33.8506Z" fill="white"/>
<path opacity="0.6" d="M454.091 13.7573C456.257 13.7573 458.013 12.0784 458.013 10.0073C458.013 7.93626 456.257 6.25732 454.091 6.25732C451.925 6.25732 450.169 7.93626 450.169 10.0073C450.169 12.0784 451.925 13.7573 454.091 13.7573Z" fill="white"/>
<path opacity="0.6" d="M441.235 13.7573C443.401 13.7573 445.157 12.0784 445.157 10.0073C445.157 7.93626 443.401 6.25732 441.235 6.25732C439.069 6.25732 437.312 7.93626 437.312 10.0073C437.312 12.0784 439.069 13.7573 441.235 13.7573Z" fill="white"/>
<path opacity="0.6" d="M432.3 10.0073C432.3 12.0783 430.543 13.7573 428.377 13.7573C426.211 13.7573 424.455 12.0783 424.455 10.0073C424.455 7.93636 426.211 6.25732 428.377 6.25732C430.543 6.25732 432.3 7.93636 432.3 10.0073Z" fill="white"/>
<path d="M254.011 55.9272V104.711L241.464 119.839H213.686V55.9272H254.011Z" fill="#39D24E"/>
<path opacity="0.7" d="M254.011 55.9272V104.711L241.464 119.839H213.686V55.9272H254.011Z" fill="white"/>
<path opacity="0.3" d="M254.011 104.71L241.464 119.839V104.71H254.011Z" fill="#39D24E"/>
<path opacity="0.3" d="M247.761 65.144H219.937V66.976H247.761V65.144Z" fill="#39D24E"/>
<path opacity="0.3" d="M247.761 72.0857H219.937V73.9176H247.761V72.0857Z" fill="#39D24E"/>
<path opacity="0.3" d="M247.761 79.0271H219.937V80.8591H247.761V79.0271Z" fill="#39D24E"/>
<path opacity="0.3" d="M247.761 85.9688H219.937V87.8007H247.761V85.9688Z" fill="#39D24E"/>
<path opacity="0.3" d="M240.565 92.9114H219.937V94.7433H240.565V92.9114Z" fill="#39D24E"/>
<path d="M317.972 55.9272V104.711L305.425 119.839H277.646V55.9272H317.972Z" fill="#39D24E"/>
<path opacity="0.7" d="M317.972 55.9272V104.711L305.425 119.839H277.646V55.9272H317.972Z" fill="white"/>
<path opacity="0.3" d="M317.971 104.71L305.425 119.839V104.71H317.971Z" fill="#39D24E"/>
<path opacity="0.3" d="M311.722 65.144H283.897V66.976H311.722V65.144Z" fill="#39D24E"/>
<path opacity="0.3" d="M311.722 72.0857H283.897V73.9176H311.722V72.0857Z" fill="#39D24E"/>
<path opacity="0.3" d="M311.722 79.0271H283.897V80.8591H311.722V79.0271Z" fill="#39D24E"/>
<path opacity="0.3" d="M311.722 85.9688H283.897V87.8007H311.722V85.9688Z" fill="#39D24E"/>
<path opacity="0.3" d="M304.526 92.9114H283.897V94.7433H304.526V92.9114Z" fill="#39D24E"/>
<path d="M381.932 55.9272V104.711L369.385 119.839H341.606V55.9272H381.932Z" fill="#39D24E"/>
<path opacity="0.7" d="M381.932 55.9272V104.711L369.385 119.839H341.606V55.9272H381.932Z" fill="white"/>
<path opacity="0.3" d="M381.931 104.71L369.385 119.839V104.71H381.931Z" fill="#39D24E"/>
<path opacity="0.3" d="M375.681 65.144H347.856V66.976H375.681V65.144Z" fill="#39D24E"/>
<path opacity="0.3" d="M375.681 72.0857H347.856V73.9176H375.681V72.0857Z" fill="#39D24E"/>
<path opacity="0.3" d="M375.681 79.0271H347.856V80.8591H375.681V79.0271Z" fill="#39D24E"/>
<path opacity="0.3" d="M375.681 85.9688H347.856V87.8007H375.681V85.9688Z" fill="#39D24E"/>
<path opacity="0.3" d="M368.485 92.9114H347.856V94.7433H368.485V92.9114Z" fill="#39D24E"/>
<path d="M445.893 55.9272V104.711L433.345 119.839H405.567V55.9272H445.893Z" fill="#39D24E"/>
<path opacity="0.7" d="M445.893 55.9272V104.711L433.345 119.839H405.567V55.9272H445.893Z" fill="white"/>
<path opacity="0.3" d="M445.893 104.71L433.345 119.839V104.71H445.893Z" fill="#39D24E"/>
<path opacity="0.3" d="M439.642 65.144H411.817V66.976H439.642V65.144Z" fill="#39D24E"/>
<path opacity="0.3" d="M439.642 72.0857H411.817V73.9176H439.642V72.0857Z" fill="#39D24E"/>
<path opacity="0.3" d="M439.642 79.0271H411.817V80.8591H439.642V79.0271Z" fill="#39D24E"/>
<path opacity="0.3" d="M439.642 85.9688H411.817V87.8007H439.642V85.9688Z" fill="#39D24E"/>
<path opacity="0.3" d="M432.446 92.9114H411.817V94.7433H432.446V92.9114Z" fill="#39D24E"/>
<path d="M254.011 140.383V189.167L241.464 204.295H213.686V140.383H254.011Z" fill="#39D24E"/>
<path opacity="0.7" d="M254.011 140.383V189.167L241.464 204.295H213.686V140.383H254.011Z" fill="white"/>
<path opacity="0.3" d="M254.011 189.167L241.464 204.295V189.167H254.011Z" fill="#39D24E"/>
<path opacity="0.3" d="M247.761 149.6H219.937V151.432H247.761V149.6Z" fill="#39D24E"/>
<path opacity="0.3" d="M247.761 156.542H219.937V158.374H247.761V156.542Z" fill="#39D24E"/>
<path opacity="0.3" d="M247.761 163.483H219.937V165.315H247.761V163.483Z" fill="#39D24E"/>
<path opacity="0.3" d="M247.761 170.425H219.937V172.257H247.761V170.425Z" fill="#39D24E"/>
<path opacity="0.3" d="M240.565 177.367H219.937V179.199H240.565V177.367Z" fill="#39D24E"/>
<path d="M317.972 140.383V189.167L305.425 204.295H277.646V140.383H317.972Z" fill="#39D24E"/>
<path opacity="0.7" d="M317.972 140.383V189.167L305.425 204.295H277.646V140.383H317.972Z" fill="white"/>
<path opacity="0.3" d="M317.971 189.167L305.425 204.295V189.167H317.971Z" fill="#39D24E"/>
<path opacity="0.3" d="M311.722 149.6H283.897V151.432H311.722V149.6Z" fill="#39D24E"/>
<path opacity="0.3" d="M311.722 156.542H283.897V158.374H311.722V156.542Z" fill="#39D24E"/>
<path opacity="0.3" d="M311.722 163.483H283.897V165.315H311.722V163.483Z" fill="#39D24E"/>
<path opacity="0.3" d="M311.722 170.425H283.897V172.257H311.722V170.425Z" fill="#39D24E"/>
<path opacity="0.3" d="M304.526 177.367H283.897V179.199H304.526V177.367Z" fill="#39D24E"/>
<path d="M381.932 140.383V189.167L369.385 204.295H341.606V140.383H381.932Z" fill="#39D24E"/>
<path opacity="0.7" d="M381.932 140.383V189.167L369.385 204.295H341.606V140.383H381.932Z" fill="white"/>
<path opacity="0.3" d="M381.931 189.167L369.385 204.295V189.167H381.931Z" fill="#39D24E"/>
<path opacity="0.3" d="M375.681 149.6H347.856V151.432H375.681V149.6Z" fill="#39D24E"/>
<path opacity="0.3" d="M375.681 156.542H347.856V158.374H375.681V156.542Z" fill="#39D24E"/>
<path opacity="0.3" d="M375.681 163.483H347.856V165.315H375.681V163.483Z" fill="#39D24E"/>
<path opacity="0.3" d="M375.681 170.425H347.856V172.257H375.681V170.425Z" fill="#39D24E"/>
<path opacity="0.3" d="M368.485 177.367H347.856V179.199H368.485V177.367Z" fill="#39D24E"/>
<path d="M445.893 140.383V189.167L433.345 204.295H405.567V140.383H445.893Z" fill="#39D24E"/>
<path opacity="0.7" d="M445.893 140.383V189.167L433.345 204.295H405.567V140.383H445.893Z" fill="white"/>
<path opacity="0.3" d="M445.893 189.167L433.345 204.295V189.167H445.893Z" fill="#39D24E"/>
<path opacity="0.3" d="M439.642 149.6H411.817V151.432H439.642V149.6Z" fill="#39D24E"/>
<path opacity="0.3" d="M439.642 156.542H411.817V158.374H439.642V156.542Z" fill="#39D24E"/>
<path opacity="0.3" d="M439.642 163.483H411.817V165.315H439.642V163.483Z" fill="#39D24E"/>
<path opacity="0.3" d="M439.642 170.425H411.817V172.257H439.642V170.425Z" fill="#39D24E"/>
<path opacity="0.3" d="M432.446 177.367H411.817V179.199H432.446V177.367Z" fill="#39D24E"/>
<path opacity="0.1" d="M346.805 159.026H282.439C279.455 159.026 277.034 156.606 277.034 153.621V105.381C277.034 102.397 279.454 99.9761 282.439 99.9761H346.805C349.789 99.9761 352.21 102.395 352.21 105.381V153.621C352.21 156.606 349.789 159.026 346.805 159.026Z" fill="black"/>
<g opacity="0.1">
<path d="M342.206 97.2276H334.754V89.1682C334.754 78.5802 326.139 69.9657 315.55 69.9657C304.962 69.9657 296.348 78.5802 296.348 89.1682V97.2276H288.896V89.1682C288.896 74.4704 300.852 62.5137 315.55 62.5137C330.248 62.5137 342.206 74.4716 342.206 89.1682V97.2276Z" fill="black"/>
</g>
<path d="M315.755 156.542H251.39C248.405 156.542 245.984 154.122 245.984 151.136V102.897C245.984 99.9126 248.404 97.4919 251.39 97.4919H315.755C318.739 97.4919 321.16 99.9114 321.16 102.897V151.136C321.16 154.122 318.739 156.542 315.755 156.542Z" fill="#263238"/>
<path opacity="0.2" d="M302.161 156.542H251.39C248.405 156.542 245.984 154.122 245.984 151.136V102.897C245.984 99.9126 248.404 97.4919 251.39 97.4919H302.161C305.146 97.4919 307.566 99.9114 307.566 102.897V151.136C307.566 154.122 305.146 156.542 302.161 156.542Z" fill="white"/>
<path d="M280.55 119.645C280.55 115.574 278.072 112.274 275.014 112.274C271.958 112.274 269.479 115.574 269.479 119.645C269.479 122.742 270.914 125.387 272.945 126.479L271.92 141.876H278.105L277.081 126.479C279.115 125.388 280.55 122.742 280.55 119.645Z" fill="#263238"/>
<path d="M311.156 94.7434H303.704V86.6841C303.704 76.0961 295.09 67.4815 284.5 67.4815C273.912 67.4815 265.298 76.0961 265.298 86.6841V94.7434H257.846V86.6841C257.846 71.9863 269.802 60.0295 284.5 60.0295C299.198 60.0295 311.156 71.9875 311.156 86.6841V94.7434Z" fill="#263238"/>
<g opacity="0.4">
<path d="M311.156 94.7434H303.704V86.6841C303.704 76.0961 295.09 67.4815 284.5 67.4815C273.912 67.4815 265.298 76.0961 265.298 86.6841V94.7434H257.846V86.6841C257.846 71.9863 269.802 60.0295 284.5 60.0295C299.198 60.0295 311.156 71.9875 311.156 86.6841V94.7434Z" fill="white"/>
</g>
<path opacity="0.2" d="M311.152 86.6853V94.7459H306.097V85.7662C306.097 72.3154 295.192 61.423 281.741 61.423C276.662 61.423 271.954 63.0004 268.092 65.7079C272.625 62.1558 278.326 60.032 284.499 60.032C299.192 60.032 311.152 71.98 311.152 86.6853Z" fill="white"/>
<path d="M205.84 229.491H175.731V228.329H182.531C183.477 228.329 184.278 227.641 184.442 226.716L187.482 208.606L188.078 205.042H198.392L207.616 226.809C208.151 228.083 207.217 229.491 205.84 229.491Z" fill="#39D24E"/>
<path opacity="0.4" d="M205.84 229.491H175.731V228.329H182.531C183.477 228.329 184.278 227.641 184.442 226.716L187.482 208.606L188.078 205.042H198.392L207.616 226.809C208.151 228.083 207.217 229.491 205.84 229.491Z" fill="white"/>
<path opacity="0.2" d="M205.882 228.331H182.533C183.478 228.331 184.279 227.643 184.443 226.717L187.484 208.608H198.29L206.509 227.376C206.704 227.816 206.375 228.331 205.882 228.331Z" fill="black"/>
<path d="M222.031 211.716H161.809C161.208 211.716 160.812 211.228 160.926 210.627L169.481 165.379C169.595 164.777 170.175 164.289 170.776 164.289H230.998C231.599 164.289 231.996 164.777 231.881 165.379L223.326 210.627C223.212 211.228 222.632 211.716 222.031 211.716Z" fill="#39D24E"/>
<path opacity="0.4" d="M222.031 211.716H161.809C161.208 211.716 160.812 211.228 160.926 210.627L169.481 165.379C169.595 164.777 170.175 164.289 170.776 164.289H230.998C231.599 164.289 231.996 164.777 231.881 165.379L223.326 210.627C223.212 211.228 222.632 211.716 222.031 211.716Z" fill="white"/>
<path d="M220.789 211.716H160.567C159.966 211.716 159.569 211.228 159.684 210.627L168.239 165.379C168.353 164.777 168.933 164.289 169.534 164.289H229.756C230.357 164.289 230.753 164.777 230.639 165.379L222.084 210.627C221.97 211.228 221.39 211.716 220.789 211.716Z" fill="#263238"/>
<path d="M219.99 208.942H162.415L170.333 167.064H227.908L219.99 208.942Z" fill="#39D24E"/>
<path d="M119.633 229.49V228.078L142.816 223.393H188.153C189.836 223.393 191.199 224.757 191.199 226.44C191.199 228.123 189.836 229.487 188.153 229.487L119.633 229.49Z" fill="#39D24E"/>
<path opacity="0.4" d="M191.195 226.444C191.195 227.276 190.86 228.046 190.313 228.593C189.754 229.139 188.997 229.487 188.152 229.487H119.631V228.083L142.819 223.389H188.152C189.841 223.389 191.195 224.755 191.195 226.444Z" fill="white"/>
<path opacity="0.4" d="M191.195 226.444C191.195 227.276 190.86 228.046 190.313 228.593C189.754 229.139 188.997 229.487 188.152 229.487H160.617V228.083L183.805 223.389H188.152C189.841 223.389 191.195 224.755 191.195 226.444Z" fill="white"/>
<path d="M207.77 391.929H213.972L225.119 236.752H216.888L207.77 391.929Z" fill="#263238"/>
<path opacity="0.1" d="M207.766 391.929H213.973L224.575 244.46L225.121 237.002H216.889L216.443 244.46L207.766 391.929Z" fill="white"/>
<path opacity="0.2" d="M216.443 244.09H224.575L225.121 237.002H216.889L216.443 244.09Z" fill="black"/>
<path d="M162.244 391.929H168.448L169.46 236.752H161.23L162.244 391.929Z" fill="#263238"/>
<path opacity="0.1" d="M161.227 237.002L161.388 262.038L162.239 391.929H168.446L169.297 262.038L169.459 237.002H161.227Z" fill="white"/>
<path opacity="0.2" d="M161.227 237.002L161.388 262.317H169.297L169.459 237.002H161.227Z" fill="black"/>
<path d="M96.3838 391.929H102.588L113.733 236.752H105.504L96.3838 391.929Z" fill="#263238"/>
<path opacity="0.1" d="M96.3799 391.929H102.587L113.189 244.46L113.736 237.002H105.504L105.058 244.46L96.3799 391.929Z" fill="white"/>
<path opacity="0.2" d="M105.058 244.09H113.189L113.735 237.002H105.504L105.058 244.09Z" fill="black"/>
<path d="M278.736 391.929H284.938L275.819 236.752H267.59L278.736 391.929Z" fill="#263238"/>
<path opacity="0.1" d="M267.591 237.002L268.137 244.46L278.739 391.929H284.937L276.269 244.46L275.823 237.002H267.591Z" fill="white"/>
<path opacity="0.2" d="M275.823 237.002H267.591L268.137 244.09H276.269L275.823 237.002Z" fill="black"/>
<path d="M101.665 240.639H279.657C281.14 240.639 282.342 239.436 282.342 237.953V232.866H98.9795V237.953C98.9795 239.436 100.182 240.639 101.665 240.639Z" fill="#39D24E"/>
<path opacity="0.4" d="M101.665 240.639H279.657C281.14 240.639 282.342 239.436 282.342 237.953V232.866H98.9795V237.953C98.9795 239.436 100.182 240.639 101.665 240.639Z" fill="white"/>
<path opacity="0.2" d="M98.9801 236.752L282.343 236.752V232.866L98.9801 232.866V236.752Z" fill="black"/>
<path d="M95.134 233.88H286.187C287.397 233.88 288.377 232.9 288.377 231.69C288.377 230.482 287.397 229.5 286.187 229.5H95.134C93.9243 229.5 92.9443 230.48 92.9443 231.69C92.9456 232.899 93.9255 233.88 95.134 233.88Z" fill="#39D24E"/>
<path opacity="0.4" d="M95.134 233.88H286.187C287.397 233.88 288.377 232.9 288.377 231.69C288.377 230.482 287.397 229.5 286.187 229.5H95.134C93.9243 229.5 92.9443 230.48 92.9443 231.69C92.9456 232.899 93.9255 233.88 95.134 233.88Z" fill="white"/>
<path opacity="0.3" d="M173.531 190.524C172.976 190.524 172.455 190.279 172.103 189.851C171.749 189.421 171.608 188.863 171.714 188.318L172.489 184.352C172.705 183.242 173.683 182.437 174.814 182.437H207.113C207.669 182.437 208.189 182.682 208.542 183.11C208.896 183.54 209.036 184.098 208.931 184.643L208.157 188.609C207.941 189.719 206.963 190.524 205.832 190.524H173.531Z" fill="white"/>
<path d="M205.831 189.902H173.531C172.757 189.902 172.176 189.197 172.324 188.436L173.098 184.47C173.258 183.649 173.977 183.057 174.813 183.057H207.112C207.886 183.057 208.467 183.763 208.319 184.523L207.546 188.49C207.385 189.311 206.666 189.902 205.831 189.902Z" fill="white"/>
<path d="M179.399 186.48C179.197 187.516 178.273 188.357 177.335 188.357C176.397 188.357 175.8 187.517 176.002 186.48C176.205 185.444 177.129 184.604 178.066 184.604C179.005 184.604 179.602 185.444 179.399 186.48Z" fill="#263238"/>
<path d="M184.448 186.48C184.245 187.516 183.321 188.357 182.383 188.357C181.446 188.357 180.85 187.517 181.051 186.48C181.253 185.444 182.177 184.604 183.115 184.604C184.053 184.604 184.649 185.444 184.448 186.48Z" fill="#263238"/>
<path d="M189.496 186.48C189.293 187.516 188.369 188.357 187.432 188.357C186.494 188.357 185.897 187.517 186.099 186.48C186.301 185.444 187.225 184.604 188.163 184.604C189.102 184.604 189.698 185.444 189.496 186.48Z" fill="#263238"/>
<path d="M194.544 186.48C194.341 187.516 193.417 188.357 192.48 188.357C191.542 188.357 190.944 187.517 191.147 186.48C191.349 185.444 192.273 184.604 193.211 184.604C194.149 184.604 194.745 185.444 194.544 186.48Z" fill="#263238"/>
<path d="M199.591 186.48C199.389 187.516 198.465 188.357 197.527 188.357C196.589 188.357 195.993 187.517 196.194 186.48C196.397 185.444 197.321 184.604 198.259 184.604C199.197 184.604 199.794 185.444 199.591 186.48Z" fill="#263238"/>
<path d="M204.64 186.48C204.438 187.516 203.514 188.357 202.576 188.357C201.638 188.357 201.041 187.517 201.244 186.48C201.446 185.444 202.37 184.604 203.308 184.604C204.245 184.604 204.843 185.444 204.64 186.48Z" fill="#263238"/>
<path opacity="0.3" d="M210.343 190.524C209.905 190.524 209.506 190.34 209.242 190.021C208.976 189.697 208.873 189.259 208.962 188.818L209.94 183.901C210.103 183.08 210.878 182.436 211.704 182.436H216.621C217.058 182.436 217.459 182.62 217.721 182.939C217.987 183.263 218.09 183.702 218.002 184.143L217.023 189.06C216.861 189.881 216.086 190.524 215.26 190.524H210.343Z" fill="white"/>
<path d="M210.342 189.902H215.259C215.792 189.902 216.309 189.471 216.414 188.938L217.392 184.021C217.497 183.488 217.152 183.057 216.619 183.057H211.702C211.169 183.057 210.653 183.488 210.547 184.021L209.568 188.938C209.464 189.471 209.809 189.902 210.342 189.902Z" fill="#263238"/>
<path d="M212.865 188.654C212.785 188.654 212.712 188.624 212.664 188.563C212.567 188.441 212.605 188.245 212.751 188.123L214.72 186.48L213.405 184.837C213.308 184.715 213.347 184.519 213.492 184.397C213.637 184.276 213.834 184.276 213.932 184.397L215.423 186.26C215.52 186.382 215.482 186.578 215.337 186.7L213.103 188.563C213.03 188.623 212.944 188.654 212.865 188.654Z" fill="#39D24E"/>
<path d="M215.098 186.791H211.741C211.57 186.791 211.458 186.652 211.493 186.48C211.526 186.309 211.694 186.17 211.865 186.17H215.222C215.394 186.17 215.506 186.309 215.471 186.48C215.436 186.65 215.27 186.791 215.098 186.791Z" fill="#39D24E"/>
<path d="M106.248 110.959H133.019C135.847 110.959 138.14 108.666 138.14 105.838V79.0668C138.14 76.2388 135.847 73.946 133.019 73.946H106.248C103.42 73.946 101.127 76.2388 101.127 79.0668V105.838C101.127 108.666 103.42 110.959 106.248 110.959Z" fill="#39D24E"/>
<path d="M116.739 109.576L119.634 122.024L122.528 109.576H116.739Z" fill="#39D24E"/>
<path opacity="0.3" d="M119.31 103.555C108.405 96.8933 108.605 85.6048 108.609 85.4918L108.621 85.0943L119.634 80.4045L130.647 85.0943L130.66 85.4918C130.663 85.6048 130.863 96.8933 119.958 103.555L119.634 103.753L119.31 103.555Z" fill="white"/>
<path opacity="0.6" d="M119.635 81.0789L130.039 85.5103C130.039 85.5103 130.358 96.4747 119.635 103.026V81.0789Z" fill="white"/>
<path opacity="0.4" d="M119.635 81.0789L109.23 85.5103C109.23 85.5103 108.911 96.4747 119.635 103.026V81.0789Z" fill="white"/>
<path d="M109.636 221.394L118.316 222.694C118.316 222.694 121.265 221.72 124.376 221.394C127.487 221.066 131.091 221.394 131.091 221.394C131.091 221.394 135.022 222.868 135.022 226.635C135.022 226.635 125.85 229.092 122.329 227.617L109.636 226.635V221.394Z" fill="#E4897B"/>
<path opacity="0.2" d="M109.636 221.394L118.316 222.694C118.316 222.694 121.265 221.72 124.376 221.394C127.487 221.066 131.091 221.394 131.091 221.394C131.091 221.394 135.022 222.868 135.022 226.635C135.022 226.635 125.85 229.092 122.329 227.617L109.636 226.635V221.394Z" fill="black"/>
<path d="M134.56 160.204C134.227 161.008 133.631 161.524 133.229 161.358C132.826 161.191 132.772 160.405 133.104 159.602C133.437 158.798 134.033 158.281 134.435 158.448C134.837 158.614 134.893 159.401 134.56 160.204Z" fill="#263238"/>
<path d="M136.607 156.97C136.607 156.97 134.042 155.413 131.761 156.576" stroke="#263238" stroke-width="0.7247" stroke-miterlimit="10" stroke-linecap="round" stroke-linejoin="round"/>
<path d="M128.747 169.439C128.468 169.788 128.18 170.123 127.875 170.431C126.068 172.304 123.795 173.491 121.426 173.972C120.805 174.102 120.172 174.183 119.541 174.217C116.209 174.385 112.883 173.194 110.553 170.621C109.593 169.581 108.793 168.291 108.242 166.773C106.027 160.813 108.285 156.111 111.463 147.859C112.122 146.07 113.18 144.458 114.575 143.169C119.451 138.603 127.106 138.867 131.662 143.739C138.098 150.525 133.767 162.985 128.747 169.439Z" fill="#E4897B"/>
<path opacity="0.2" d="M121.427 173.972C120.806 174.102 120.174 174.183 119.543 174.216C116.211 174.385 112.885 173.194 110.555 170.621C111.824 169.322 113.227 168.541 113.227 168.541C113.227 168.541 118.368 169.974 121.427 173.972Z" fill="black"/>
<path d="M94.6533 174.281C95.4668 180.101 108.182 182.273 108.182 182.273C108.182 182.273 114.458 185.131 114.715 182.64C112.12 179.635 111.831 177.016 112.727 174.717C113.25 173.379 114.179 172.157 115.285 171.025C115.859 170.423 116.494 169.858 117.137 169.316L113.258 153.389C110.463 159.442 100.913 173.419 94.6533 174.281Z" fill="#E4897B"/>
<path d="M130.942 139.234C130.942 139.234 133.657 138.896 135.74 143.961C137.495 148.23 133.365 149.153 133.543 153.692C133.72 158.232 129.577 160.747 129.577 160.747C129.577 160.747 126.091 163.751 123.127 162.122C123.127 162.122 119.25 164.023 118.229 167.342C117.208 170.661 111.209 164.667 105.804 165.575C105.804 165.575 102.149 162.158 102.42 153.86C102.598 148.384 105.023 143.456 105.023 143.456C105.023 143.456 106.6 138.514 112.779 135.754C118.961 132.993 129.778 135.092 130.942 139.234Z" fill="#263238"/>
<path d="M122.385 159.678C122.074 161.645 122.456 163.366 123.447 164.463C124.771 165.899 126.891 164.077 127.748 161.552C128.493 159.308 128.748 155.788 126.814 155.393C124.879 154.998 122.792 157.256 122.385 159.678Z" fill="#E4897B"/>
<path d="M123.747 179.088C121.971 184.031 120.381 188.8 118.978 193.371C118.083 196.202 117.264 198.972 116.506 201.642C115.873 203.89 115.289 206.064 114.742 208.175C114.481 209.194 114.221 210.2 113.972 211.193C112.606 216.671 111.501 221.663 110.631 226.06C108.023 239.151 107.415 247.013 107.415 247.013L58.666 240.914C60.3551 232.543 61.6717 225.228 63.5098 217.341C64.5283 213.019 65.6833 208.523 67.1737 203.592C68.217 200.053 69.4342 196.289 70.8749 192.203C75.7684 178.168 80.2768 174.281 80.2768 174.281C99.031 171.275 123.747 179.088 123.747 179.088Z" fill="#263238"/>
<path d="M139.956 222.298L148.636 223.598C148.636 223.598 151.585 222.625 154.696 222.298C157.809 221.97 161.412 222.298 161.412 222.298C161.412 222.298 165.343 223.772 165.343 227.539C165.343 227.539 156.17 229.996 152.649 228.522L139.956 227.539V222.298Z" fill="#E4897B"/>
<path d="M86.1455 382.854L95.2233 383.018L99.7442 362.083L90.6776 361.93L86.1455 382.854Z" fill="#EBB376"/>
<path opacity="0.2" d="M90.6773 361.93L99.7438 362.094L97.1568 374.059L88.1709 373.458L90.6773 361.93Z" fill="black"/>
<path d="M115.315 331.608C109.33 354.361 102.093 370.655 102.093 370.655L85.5284 369.39C85.5284 369.39 92.3259 342.844 94.7875 318.533C96.3127 303.526 96.1761 291.106 91.7844 290.146C89.0185 289.536 82.5476 289.558 74.2598 289.751V258.856C97.5212 263.633 120.668 272.644 122.431 279.87C124.891 290.043 120.589 311.577 115.315 331.608Z" fill="#39D24E"/>
<path d="M83.7695 370.164L103.492 371.475L106.395 362.95L84.6663 361.932L83.7695 370.164Z" fill="#39D24E"/>
<path opacity="0.2" d="M83.7695 370.164L103.492 371.475L106.395 362.95L84.6663 361.932L83.7695 370.164Z" fill="white"/>
<path d="M96.5859 382.566C96.5859 382.576 96.7735 382.579 96.776 382.589C96.7859 382.623 96.9784 382.653 97.0045 382.675C97.0194 382.695 97.0206 382.723 97.043 382.738C97.0691 382.746 97.0952 382.741 97.12 382.732C97.8888 382.973 98.6812 383.131 99.4835 383.2C100.082 383.307 100.697 383.187 101.21 382.861C101.535 382.571 101.662 382.119 101.539 381.7C101.508 381.427 101.332 381.188 101.083 381.069C100.501 380.802 99.455 381.137 98.5694 381.532C99.1283 380.837 99.5432 380.021 99.4624 379.459C99.4065 379.091 99.0625 378.809 98.6924 378.773C98.3657 378.713 97.941 378.799 97.6839 379.01C96.7387 379.826 96.5859 382.391 96.5859 382.55C96.5859 382.552 96.5859 382.555 96.5859 382.557V382.56V382.566ZM97.5609 382.04C97.4914 382.079 97.433 382.111 97.3746 382.143C97.4094 381.284 97.5708 379.851 98.1409 379.369C98.2651 379.252 98.4328 379.192 98.603 379.205L98.706 379.219C99.0054 379.272 99.0749 379.425 99.0849 379.549C99.137 380.164 98.331 381.376 97.5609 382.04ZM97.6913 382.49C98.7843 381.888 100.338 381.223 100.916 381.491C101.039 381.549 101.122 381.667 101.134 381.802C101.204 382.066 101.128 382.348 100.937 382.543C100.482 382.933 99.2898 382.91 97.6913 382.49Z" fill="#39D24E"/>
<path d="M96.3681 381.458L86.206 380.824C85.8533 380.786 85.5353 381.042 85.4968 381.396C85.4968 381.399 85.4956 381.403 85.4956 381.406L84.4983 389.423C84.4436 390.3 85.1044 391.056 85.98 391.122C89.5296 391.286 91.2324 391.186 95.7061 391.43C98.4509 391.594 103.861 392.178 107.649 391.811C111.437 391.445 110.973 387.71 109.337 387.531C105.458 387.09 100.32 384.239 97.8933 382.076C97.4672 381.707 96.9307 381.489 96.3681 381.458Z" fill="#263238"/>
<path opacity="0.2" d="M115.316 331.608C109.128 327.689 101.89 323.083 94.7866 318.532C96.3117 303.525 96.1751 291.105 91.7834 290.145C89.0175 289.535 82.5467 289.557 74.2588 289.75V258.855C97.5202 263.632 120.667 272.642 122.43 279.868C124.891 290.043 120.589 311.577 115.316 331.608Z" fill="black"/>
<path d="M139.216 382.854L148.294 383.018L152.814 362.083L143.748 361.93L139.216 382.854Z" fill="#EBB376"/>
<path opacity="0.2" d="M143.748 361.93L152.815 362.094L150.228 374.059L141.243 373.458L143.748 361.93Z" fill="black"/>
<path d="M106.252 255.82L107.713 244.09L60.302 236.285C60.302 236.285 44.7969 267.006 52.3868 282.062C59.3482 295.874 133.448 287.646 144.855 290.14C156.377 292.659 138.599 369.386 138.599 369.386L155.164 370.65C155.164 370.65 180.759 301.595 175.496 279.873C173.2 270.396 134.139 257.848 106.252 255.82Z" fill="#39D24E"/>
<path d="M136.84 370.164L156.564 371.475L159.465 362.95L137.737 361.932L136.84 370.164Z" fill="#39D24E"/>
<path opacity="0.2" d="M136.84 370.164L156.564 371.475L159.465 362.95L137.737 361.932L136.84 370.164Z" fill="white"/>
<path d="M149.656 382.566C149.656 382.576 149.844 382.579 149.846 382.589C149.856 382.623 150.049 382.653 150.075 382.675C150.09 382.695 150.091 382.723 150.113 382.738C150.139 382.746 150.165 382.741 150.19 382.732C150.959 382.973 151.752 383.131 152.554 383.2C153.151 383.307 153.767 383.187 154.28 382.861C154.606 382.571 154.734 382.119 154.609 381.7C154.578 381.427 154.402 381.188 154.154 381.069C153.571 380.802 152.525 381.137 151.64 381.532C152.199 380.837 152.613 380.021 152.533 379.459C152.477 379.091 152.133 378.809 151.763 378.773C151.436 378.713 151.011 378.799 150.754 379.01C149.809 379.826 149.656 382.391 149.656 382.55C149.656 382.552 149.656 382.555 149.656 382.557V382.56V382.566ZM150.631 382.04C150.563 382.079 150.503 382.111 150.445 382.143C150.48 381.284 150.641 379.851 151.211 379.369C151.335 379.252 151.503 379.192 151.673 379.205L151.776 379.219C152.076 379.272 152.145 379.425 152.155 379.549C152.207 380.164 151.401 381.376 150.631 382.04ZM150.762 382.49C151.856 381.888 153.408 381.223 153.986 381.491C154.109 381.549 154.192 381.667 154.204 381.802C154.274 382.066 154.198 382.348 154.007 382.543C153.554 382.933 152.361 382.91 150.762 382.49Z" fill="#39D24E"/>
<path d="M149.439 381.458L139.277 380.824C138.925 380.786 138.607 381.042 138.568 381.396C138.568 381.399 138.567 381.403 138.567 381.406L137.57 389.423C137.515 390.3 138.176 391.056 139.051 391.122C142.601 391.286 144.304 391.186 148.777 391.43C151.522 391.594 156.932 392.178 160.72 391.811C164.509 391.445 164.044 387.71 162.408 387.531C158.53 387.09 153.391 384.239 150.965 382.076C150.54 381.707 150.002 381.489 149.439 381.458Z" fill="#263238"/>
<path d="M58.5635 241.625L80.5307 244.504L81.2412 241.266L59.2354 238.064L58.5635 241.625Z" fill="black"/>
<path d="M83.0695 241.284L82.8037 244.504L103.105 247.296V244.114L83.0695 241.284Z" fill="black"/>
<path d="M104.364 244.29V247.296L107.31 247.689V244.783L104.364 244.29Z" fill="black"/>
<path opacity="0.2" d="M118.978 193.371C118.084 196.202 117.264 198.972 116.506 201.642C115.873 203.89 115.289 206.064 114.743 208.175C113.215 199.854 115.985 189.918 115.985 189.918L118.978 193.371Z" fill="black"/>
<path d="M123.743 179.081C127.709 179.884 129.018 210.675 129.182 213.95C129.346 217.226 148.637 223.6 148.637 223.6V228.088C148.637 228.088 127.965 226.642 123.14 224.668C118.315 222.693 117.135 194.132 117.135 194.132L123.743 179.081Z" fill="#E4897B"/>
<path d="M123.743 179.081C127.381 180.212 129.182 200.521 129.182 200.521L117.933 205.053L115.141 193.759C115.141 193.759 114.343 191.467 115.916 186.619C118.189 179.618 123.743 179.081 123.743 179.081Z" fill="#263238"/>
<path d="M139.368 295.357H29.9854V290.103C29.9854 284.675 34.3845 280.276 39.8121 280.276H129.542C134.969 280.276 139.368 284.675 139.368 290.103V295.357Z" fill="#39D24E"/>
<path d="M68.9932 242.935H129.217C132.314 242.935 134.606 245.818 133.908 248.836L123.141 295.36H120.654L129.828 254.586C130.504 251.576 128.215 248.714 125.13 248.714H70.2227L68.9932 242.935Z" fill="#263238"/>
<path d="M91.7847 296.987V336.296C91.7847 337.563 90.7538 338.582 89.4994 338.582H79.8615C78.5946 338.582 77.5762 337.563 77.5762 336.296V296.987H91.7847Z" fill="#263238"/>
<path d="M38.5851 387.754C38.5851 385.447 36.7147 383.577 34.4083 383.577C32.1019 383.577 30.2314 385.446 30.2314 387.754C30.2314 390.06 32.1019 391.93 34.4083 391.93C36.7147 391.929 38.5851 390.06 38.5851 387.754Z" fill="#263238"/>
<path opacity="0.2" d="M36.4959 387.754C36.4959 386.6 35.5607 385.666 34.4081 385.666C33.2555 385.666 32.3203 386.601 32.3203 387.754C32.3203 388.906 33.2555 389.841 34.4081 389.841C35.5619 389.841 36.4959 388.906 36.4959 387.754Z" fill="white"/>
<path d="M139.121 387.754C139.121 385.447 137.251 383.577 134.944 383.577C132.638 383.577 130.768 385.446 130.768 387.754C130.768 390.06 132.637 391.93 134.944 391.93C137.252 391.93 139.121 390.06 139.121 387.754Z" fill="#263238"/>
<path opacity="0.2" d="M137.033 387.754C137.033 386.6 136.098 385.666 134.945 385.666C133.791 385.666 132.857 386.601 132.857 387.754C132.857 388.906 133.793 389.841 134.945 389.841C136.098 389.841 137.033 388.906 137.033 387.754Z" fill="white"/>
<path d="M88.1326 369.428V324.497H81.2221V369.428C54.3142 370.117 37.9645 379.524 34.6918 381.586C34.3106 381.827 34.082 382.248 34.082 382.699V386.432C34.082 387.161 34.6732 387.752 35.4023 387.752C35.8767 387.752 36.3151 387.498 36.5499 387.085L38.1459 384.286C38.1459 384.286 56.6541 377.687 81.2209 377.153V384.538C81.2209 385.482 81.986 386.247 82.9299 386.247H86.4224C87.3663 386.247 88.1314 385.482 88.1314 384.538V377.153C112.698 377.686 131.206 384.286 131.206 384.286L132.802 387.085C133.037 387.498 133.476 387.752 133.95 387.752C134.679 387.752 135.272 387.161 135.272 386.432V382.699C135.272 382.248 135.044 381.827 134.662 381.586C131.39 379.524 115.041 370.117 88.1326 369.428Z" fill="#263238"/>
<path d="M86.9434 383.577H82.4102V391.929H86.9434V383.577Z" fill="#263238"/>
<path opacity="0.2" d="M91.7847 296.987H77.5762V313.319H91.7847V296.987Z" fill="black"/>
<path d="M142.359 292.938V297.633C142.359 298.962 141.278 300.03 139.949 300.03H29.399C28.0701 300.03 27.002 298.962 27.002 297.633V292.938C27.002 291.622 28.0701 290.541 29.399 290.541H139.949C141.278 290.541 142.359 291.622 142.359 292.938Z" fill="#263238"/>
<path d="M91.4998 295.36H27.0028C27.0028 295.36 6.50977 261.279 6.50977 204.967V184.288C6.50977 175.793 13.4029 168.899 21.9106 168.899H49.2594C57.5932 168.899 64.4118 175.519 64.6478 183.853C65.4427 212.866 69.7152 275.699 91.4998 295.36Z" fill="#263238"/>
<path opacity="0.2" d="M77.3105 295.36H29.917C28.0851 295.36 26.4034 294.35 25.5601 292.723C20.8951 283.726 6.50781 252.151 6.50781 204.967V184.288C6.50781 175.789 13.3972 168.899 21.8962 168.899H45.5315C53.8653 168.899 60.6839 175.519 60.9198 183.853C61.6303 209.774 65.1153 262.688 81.3855 287.694C83.5342 290.995 81.2501 295.36 77.3105 295.36Z" fill="white"/>
<path opacity="0.2" d="M142.359 292.938V297.633C142.359 298.957 141.286 300.03 139.962 300.03H90.4184C88.6287 300.03 87.1768 298.579 87.1768 296.788V293.781C87.1768 291.992 88.6274 290.54 90.4184 290.54H139.949C141.278 290.541 142.359 291.622 142.359 292.938Z" fill="black"/>
<path d="M26.9834 167.073L31.0783 161.703C31.0783 161.703 48.588 162.499 49.0041 168.898C49.4214 175.298 26.9834 167.073 26.9834 167.073Z" fill="#39D24E"/>
<path d="M15.481 183.128C15.481 183.128 16.5492 211.562 15.481 284.979C15.445 287.455 6.21324 287.373 5.5761 284.979C3.35043 276.627 5.5761 209.876 5.5761 209.876" fill="#39D24E"/>
<path d="M5.75781 285.348L15.1858 285.669V290.376L5.75781 289.893V285.348Z" fill="#39D24E"/>
<path opacity="0.2" d="M15.481 183.128C15.481 183.128 16.5492 211.562 15.481 284.979C15.445 287.455 6.21324 287.373 5.5761 284.979C3.35043 276.627 5.5761 209.876 5.5761 209.876" fill="white"/>
<path d="M1.10163 269.962C0.594896 256.431 -1.26065 194.213 6.50806 173.59C6.50806 173.59 13.8272 164.298 38.5839 164.298C63.3407 164.298 70.789 181.868 70.789 181.868C70.789 181.868 71.8571 210.303 70.789 283.72C70.753 286.195 61.5212 286.113 60.8841 283.72C58.6584 275.367 60.8841 208.616 60.8841 208.616L55.9285 269.341C55.8577 270.203 55.0715 270.825 54.217 270.694C46.4085 269.492 11.958 264.622 2.88639 270.833C2.14367 271.345 1.13517 270.865 1.10163 269.962Z" fill="#39D24E"/>
<path d="M61.0684 284.089L70.4951 284.411V289.118L61.0684 288.635V284.089Z" fill="#39D24E"/>
<path d="M54.6778 270.766L53.9326 275.724C53.9326 275.724 15.5188 267.343 3.07147 276.269L2.33496 270.767C2.33496 270.767 11.9456 261.905 54.6778 270.766Z" fill="#39D24E"/>
<path opacity="0.4" d="M1.10163 269.962C0.594896 256.431 -1.26065 194.213 6.50806 173.59C6.50806 173.59 13.8272 164.298 38.5839 164.298C63.3407 164.298 70.789 181.868 70.789 181.868C70.789 181.868 71.8571 210.303 70.789 283.72C70.753 286.195 61.5212 286.113 60.8841 283.72C58.6584 275.367 60.8841 208.616 60.8841 208.616L55.9285 269.341C55.8577 270.203 55.0715 270.825 54.217 270.694C46.4085 269.492 11.958 264.622 2.88639 270.833C2.14367 271.345 1.13517 270.865 1.10163 269.962Z" fill="white"/>
<path opacity="0.2" d="M60.8856 208.617C60.8856 208.617 61.4321 189.338 70.7906 181.87C70.7906 181.87 59.0847 186.906 60.8856 208.617Z" fill="black"/>
<path opacity="0.2" d="M32.7152 166.52C32.7152 166.52 21.4142 172.676 19.6133 257.351C19.6133 257.351 14.6987 171.991 32.7152 166.52Z" fill="black"/>
</svg>
