<svg width="461" height="496" viewBox="0 0 461 496" fill="none" xmlns="http://www.w3.org/2000/svg">
<path d="M460.887 350.439H0V402.615H460.887V350.439Z" fill="#39D24E"/>
<path opacity="0.3" d="M460.888 350.439H362.025V402.615H460.888V350.439Z" fill="black"/>
<path d="M50.8789 402.617H0V495.73H50.8789V402.617Z" fill="#39D24E"/>
<path opacity="0.3" d="M0 402.617V407.821L36.0389 418.703V495.73H50.8789V402.617H0Z" fill="black"/>
<path d="M460.886 402.617H410.007V495.73H460.886V402.617Z" fill="#39D24E"/>
<path opacity="0.2" d="M460.886 402.617H410.007V495.73H460.886V402.617Z" fill="black"/>
<path opacity="0.3" d="M410.007 402.617V407.821L446.046 418.703V495.73H460.886V402.617H410.007Z" fill="black"/>
<path d="M362.023 402.617H311.145V495.73H362.023V402.617Z" fill="#39D24E"/>
<path opacity="0.3" d="M311.145 402.617V407.821L347.185 418.703V495.73H362.025V402.617H311.145Z" fill="black"/>
<path d="M149.74 402.617H98.8613V495.73H149.74V402.617Z" fill="#39D24E"/>
<path opacity="0.2" d="M149.74 402.617H98.8613V495.73H149.74V402.617Z" fill="black"/>
<path opacity="0.3" d="M98.8613 402.617V407.821L134.902 418.703V495.73H149.742V402.617H98.8613Z" fill="black"/>
<path d="M397.357 340.176H115.586C111.836 340.176 108.961 337.108 109.199 333.358L120.808 149.2C121.044 145.45 124.306 142.382 128.054 142.382H409.825C413.575 142.382 416.449 145.45 416.212 149.2L404.602 333.358C404.368 337.107 401.106 340.176 397.357 340.176Z" fill="#263238"/>
<path opacity="0.6" d="M397.357 340.176H115.586C111.836 340.176 108.961 337.108 109.199 333.358L120.808 149.2C121.044 145.45 124.306 142.382 128.054 142.382H409.825C413.575 142.382 416.449 145.45 416.212 149.2L404.602 333.358C404.368 337.107 401.106 340.176 397.357 340.176Z" fill="black"/>
<path d="M395.254 340.176H113.483C109.733 340.176 106.858 337.108 107.096 333.358L118.705 149.2C118.941 145.45 122.203 142.382 125.951 142.382H407.721C411.472 142.382 414.346 145.45 414.109 149.2L402.499 333.358C402.265 337.107 399.003 340.176 395.254 340.176Z" fill="#263238"/>
<path d="M394.897 342.494H59.6152C56.3741 342.494 53.5605 344.382 52.265 347.088C51.52 348.645 52.6597 350.439 54.4168 350.439H400.097C401.852 350.439 402.993 348.645 402.247 347.088C400.95 344.38 398.138 342.494 394.897 342.494Z" fill="#263238"/>
<path opacity="0.6" d="M394.897 342.494H347.216C343.975 342.494 341.163 344.382 339.866 347.088C339.121 348.645 340.26 350.439 342.016 350.439H400.095C401.851 350.439 402.992 348.645 402.246 347.088C400.95 344.38 398.138 342.494 394.897 342.494Z" fill="black"/>
<path d="M365.332 348.307H353.027C352.432 348.307 351.945 347.82 351.945 347.225C351.945 346.63 352.432 346.143 353.027 346.143H365.332C365.928 346.143 366.414 346.63 366.414 347.225C366.414 347.82 365.928 348.307 365.332 348.307Z" fill="#39D24E"/>
<path opacity="0.7" d="M206.948 348.307H194.643C194.048 348.307 193.561 347.82 193.561 347.225C193.561 346.63 194.048 346.143 194.643 346.143H206.948C207.543 346.143 208.03 346.63 208.03 347.225C208.03 347.82 207.543 348.307 206.948 348.307Z" fill="white"/>
<path d="M378.074 348.307H370.027C369.535 348.307 369.135 347.906 369.135 347.415V347.035C369.135 346.544 369.535 346.143 370.027 346.143H378.074C378.566 346.143 378.966 346.545 378.966 347.035V347.415C378.966 347.905 378.566 348.307 378.074 348.307Z" fill="#39D24E"/>
<path d="M113.449 326.698L124.218 155.858C124.31 154.398 125.58 153.204 127.041 153.204H405.267C406.727 153.204 407.846 154.398 407.754 155.858L396.985 326.698C396.893 328.158 395.622 329.353 394.162 329.353H115.937C114.477 329.353 113.357 328.158 113.449 326.698Z" fill="white"/>
<path opacity="0.1" d="M271.728 147.943L179.052 324.094H110.684C109.215 324.094 108.102 322.906 108.191 321.437L118.965 150.599C119.054 149.145 120.33 147.943 121.784 147.943H271.728Z" fill="#39D24E"/>
<path opacity="0.1" d="M352.888 147.943L260.212 324.094H238.605L331.281 147.943H352.888Z" fill="#39D24E"/>
<path opacity="0.1" d="M402.498 150.599L391.724 321.437C391.635 322.906 390.359 324.094 388.904 324.094H283.585L376.261 147.943H400.005C401.474 147.943 402.587 149.145 402.498 150.599Z" fill="#39D24E"/>
<path opacity="0.4" d="M268.475 148.091C268.405 149.194 267.454 150.089 266.351 150.089C265.247 150.089 264.41 149.194 264.479 148.091C264.548 146.987 265.499 146.094 266.602 146.094C267.706 146.092 268.545 146.987 268.475 148.091Z" fill="white"/>
<path d="M222.501 107.154C214.389 116.442 209.698 144.913 215.713 158.929C221.728 172.944 151.979 186.96 209.526 209.714C267.073 232.469 313.077 206.087 296.423 182.508C279.77 158.929 298.216 119.665 278.942 109.752C261.512 100.79 238.771 88.522 222.501 107.154Z" fill="#263238"/>
<path d="M205.305 221.815C202.257 232.267 199.024 242.641 195.67 252.994C192.285 263.342 188.827 273.648 185.13 283.969L183.722 287.85L183.007 289.797L182.786 290.383L182.435 291.25C182.219 291.809 181.877 292.431 181.576 293.008C180.304 295.374 178.04 297.852 175.333 299.33C172.623 300.81 169.833 301.325 167.547 301.376C162.905 301.446 159.528 300.332 156.433 299.192C153.374 297.978 150.66 296.559 148.075 295.062C137.865 288.941 129.51 281.699 121.54 273.611L127.937 266.071C130.095 267.445 132.38 268.914 134.62 270.296C136.875 271.688 139.169 273.007 141.431 274.332C145.981 276.929 150.57 279.39 155.099 281.328C157.35 282.295 159.598 283.12 161.68 283.658C163.713 284.233 165.721 284.429 166.526 284.218C166.947 284.141 166.861 283.983 166.517 284.118C166.155 284.226 165.803 284.63 165.784 284.589C165.766 284.551 165.776 284.587 165.776 284.502C165.778 284.472 165.782 284.444 165.789 284.417L165.902 284.042L166.472 282.125L167.603 278.266L176.682 247.102C179.764 236.711 182.918 226.323 186.208 216L205.305 221.815Z" fill="#B65B52"/>
<path d="M127.489 265.804L110.298 259.396L117.147 277.609C117.147 277.609 129.307 279.366 134.026 272.964L130.181 267.82C129.495 266.903 128.56 266.203 127.489 265.804Z" fill="#B55B52"/>
<path d="M95.0234 264.723L101.583 279.661L117.147 277.609L110.298 259.396L95.0234 264.723Z" fill="#B55B52"/>
<path d="M192.714 194.943C184.828 196.95 179.312 229.403 179.312 229.403L201.043 244.18C201.043 244.18 221.879 211.442 215.812 202.772C209.493 193.744 204.222 192.013 192.714 194.943Z" fill="#39D24E"/>
<path opacity="0.5" d="M192.714 194.943C184.828 196.95 179.312 229.403 179.312 229.403L201.043 244.18C201.043 244.18 221.879 211.442 215.812 202.772C209.493 193.744 204.222 192.013 192.714 194.943Z" fill="white"/>
<path opacity="0.2" d="M192 206.739L208.88 210.649L210.499 227.151C206.084 236.254 201.039 244.179 201.039 244.179L187.858 235.223C188.426 227.635 189.855 211.869 192 206.739Z" fill="black"/>
<path d="M192.713 194.943C192.713 194.943 183.599 198.153 201.858 310.423C232.694 310.423 264.561 310.423 279.566 310.423C278.262 278.796 278.225 259.295 293.341 194.388C293.341 194.388 277.058 190.845 260.342 190.039C247.265 189.409 236.552 188.992 225.056 190.041C209.901 191.426 192.713 194.943 192.713 194.943Z" fill="#39D24E"/>
<path opacity="0.5" d="M192.713 194.943C192.713 194.943 183.599 198.153 201.858 310.423C232.694 310.423 264.561 310.423 279.566 310.423C278.262 278.796 278.225 259.295 293.341 194.388C293.341 194.388 277.058 190.845 260.342 190.039C247.265 189.409 236.552 188.992 225.056 190.041C209.901 191.426 192.713 194.943 192.713 194.943Z" fill="white"/>
<path opacity="0.2" d="M275.058 224.523L285.085 233.058C282.941 244.41 281.51 253.869 280.586 262.278C278.716 253.849 273.943 230.977 275.058 224.523Z" fill="black"/>
<path d="M256.846 150.308C254.62 161.662 252.399 182.465 260.343 190.041C260.343 190.041 252.972 207.051 233.258 207.051C213.546 207.051 225.056 190.042 225.056 190.042C237.716 187.02 237.39 177.626 235.184 168.803L256.846 150.308Z" fill="#B55B52"/>
<path d="M257.815 185.795C255.948 189.582 249.931 198.243 233.092 201.315C232.632 201.399 232.135 201.321 231.752 201.054C228.595 198.851 226.65 194.214 228.028 188.831C228.408 187.35 226.979 186.041 225.567 186.628C223.897 187.321 222.495 188.178 221.852 188.597C221.591 188.768 221.386 188.996 221.239 189.272C220.015 191.592 215.03 202.922 230.073 209.909C230.311 210.018 230.571 210.082 230.833 210.087C239.667 210.272 255.3 208.527 265.142 190.771C265.502 190.121 265.437 189.306 264.977 188.725C263.891 187.352 261.905 185.976 260.427 185.064C259.507 184.495 258.295 184.825 257.815 185.795Z" fill="#FAFAFA"/>
<path d="M261.95 232.513L241.916 231.933C241.031 231.908 240.365 231.164 240.433 230.283L240.626 227.815C240.696 226.933 241.475 226.231 242.359 226.258L262.393 226.838C263.278 226.864 263.944 227.607 263.876 228.489L263.683 230.956C263.613 231.838 262.834 232.54 261.95 232.513Z" fill="#FAFAFA"/>
<path opacity="0.2" d="M248.015 157.854L235.195 168.793C235.725 170.881 236.136 172.999 236.283 175.057C241.119 174.358 247.764 169.048 248.276 163.985C248.533 161.459 248.428 159.031 248.015 157.854Z" fill="black"/>
<path d="M271.806 128.86C268.223 147.508 267.105 155.477 256.364 163.899C240.208 176.566 218.087 168.087 216.026 148.744C214.171 131.334 220.343 103.763 239.709 98.6592C258.789 93.6314 275.39 110.211 271.806 128.86Z" fill="#B55B52"/>
<path d="M261.185 115.028C258.878 126.711 258.333 142.234 269.092 142.234C279.851 142.234 288.172 124.018 278.941 109.752C269.711 95.4878 262.546 108.14 261.185 115.028Z" fill="#263238"/>
<path d="M279.687 116.47C279.691 129.167 263.692 122.888 256.601 117.413C249.511 111.937 249.121 112.538 236.073 112.514C223.026 112.49 220.327 111.607 216.452 105.342C212.577 99.0762 212.926 94.9537 221.655 96.2729C230.385 97.5922 223.047 88.6882 229.56 83.742C236.073 78.7959 243.753 80.0454 252.645 91.3268C261.536 102.605 279.678 94.455 279.687 116.47Z" fill="#263238"/>
<path d="M274.96 145.42C276.643 139.678 274.992 134.139 271.272 133.049C267.552 131.958 263.172 135.729 261.489 141.471C259.805 147.213 261.457 152.752 265.177 153.842C268.897 154.933 273.277 151.162 274.96 145.42Z" fill="white"/>
<path d="M245.217 159.781C241.825 159.781 238.434 159.097 235.211 157.728C234.929 157.608 234.797 157.282 234.917 156.998C235.037 156.715 235.362 156.584 235.646 156.703C241.732 159.285 248.447 159.321 254.549 156.804C260.515 154.345 265.131 149.734 267.546 143.819C272.044 131.076 276.543 115.154 271.281 105.287C269.239 101.455 265.796 98.8937 261.047 97.6723C260.75 97.5952 260.571 97.2924 260.647 96.9956C260.724 96.6988 261.018 96.5178 261.325 96.595C266.387 97.8979 270.069 100.646 272.263 104.763C277.73 115.014 273.169 131.231 268.586 144.215C266.048 150.433 261.216 155.26 254.973 157.834C251.824 159.132 248.521 159.781 245.217 159.781Z" fill="white"/>
<path opacity="0.6" d="M274.448 145.475C273.126 149.988 270.091 153.07 267.67 152.361C265.25 151.651 264.361 147.418 265.683 142.906C267.006 138.395 270.04 135.311 272.461 136.02C274.881 136.728 275.772 140.962 274.448 145.475Z" fill="#39D24E"/>
<path d="M236.034 159.279L230.229 158.159C229.21 157.963 228.537 156.967 228.733 155.948L228.795 155.623C228.993 154.603 229.987 153.931 231.007 154.127L236.812 155.247C237.832 155.443 238.504 156.439 238.308 157.458L238.246 157.783C238.048 158.803 237.054 159.475 236.034 159.279Z" fill="white"/>
<path d="M229.219 130.381C229.219 130.381 225.77 136.635 222.5 139.444C224.277 141.591 227.825 141.173 227.825 141.173L229.219 130.381Z" fill="#A02724"/>
<path d="M232.497 149.152C232.532 149.176 232.574 149.191 232.62 149.197C237.793 149.841 241.801 146.49 241.971 146.346C242.092 146.242 242.107 146.06 242.003 145.938C241.899 145.816 241.718 145.803 241.595 145.905C241.557 145.938 237.605 149.234 232.691 148.622C232.532 148.602 232.388 148.714 232.369 148.873C232.354 148.989 232.408 149.094 232.497 149.152Z" fill="#263238"/>
<path d="M249.463 123.047C249.635 123.126 249.84 123.119 250.011 123.012C250.281 122.841 250.363 122.485 250.193 122.215C247.617 118.118 243.607 118.006 243.438 118.002C243.119 117.997 242.858 118.25 242.852 118.569C242.846 118.886 243.1 119.15 243.418 119.158C243.562 119.161 246.982 119.28 249.214 122.829C249.276 122.929 249.364 123.001 249.463 123.047Z" fill="#263238"/>
<path d="M240.969 130.639C240.708 132.171 239.685 133.274 238.685 133.103C237.685 132.932 237.086 131.554 237.345 130.022C237.606 128.492 238.629 127.388 239.629 127.559C240.629 127.731 241.229 129.109 240.969 130.639Z" fill="#263238"/>
<path d="M223.665 127.694C223.404 129.224 222.382 130.328 221.382 130.157C220.381 129.986 219.782 128.608 220.042 127.076C220.303 125.545 221.325 124.442 222.325 124.613C223.327 124.785 223.927 126.164 223.665 127.694Z" fill="#263238"/>
<path d="M222.753 124.775L219.256 123.089C219.256 123.089 220.654 126.281 222.753 124.775Z" fill="#263238"/>
<path d="M240.056 127.72L236.56 126.035C236.56 126.035 237.958 129.227 240.056 127.72Z" fill="#263238"/>
<path d="M217.787 117.361C217.976 117.447 218.203 117.427 218.38 117.294C221.705 114.743 224.955 115.822 225.092 115.869C225.393 115.972 225.722 115.814 225.828 115.513C225.933 115.212 225.768 114.879 225.475 114.778C225.314 114.722 221.514 113.433 217.676 116.378C217.422 116.573 217.375 116.935 217.569 117.189C217.629 117.264 217.706 117.322 217.787 117.361Z" fill="#263238"/>
<path d="M198.913 329.353C198.913 329.353 198.702 318.719 201.858 310.423C208.642 310.423 279.566 310.423 279.566 310.423C279.566 310.423 286.552 321.706 288.365 329.353C279.626 329.353 198.913 329.353 198.913 329.353Z" fill="#39D24E"/>
<path d="M280.73 305.863L281.35 312.818C281.622 313.358 280.983 313.908 280.084 313.908H201.474C200.773 313.908 200.193 313.565 200.149 313.124L199.448 306.168C199.399 305.686 200.006 305.278 200.773 305.278H279.465C280.043 305.28 280.555 305.516 280.73 305.863Z" fill="#39D24E"/>
<path opacity="0.3" d="M280.73 305.863L281.35 312.818C281.622 313.358 280.983 313.908 280.084 313.908H201.474C200.773 313.908 200.193 313.565 200.149 313.124L199.448 306.168C199.399 305.686 200.006 305.278 200.773 305.278H279.465C280.043 305.28 280.555 305.516 280.73 305.863Z" fill="#FAFAFA"/>
<path d="M270.161 314.661H272.268C272.688 314.661 273.007 314.445 272.979 314.18L271.991 305.143C271.961 304.879 271.594 304.662 271.174 304.662H269.067C268.647 304.662 268.328 304.879 268.356 305.143L269.345 314.18C269.374 314.445 269.741 314.661 270.161 314.661Z" fill="#39D24E"/>
<path d="M207.396 314.661H209.503C209.923 314.661 210.242 314.445 210.214 314.18L209.226 305.143C209.196 304.879 208.83 304.662 208.41 304.662H206.302C205.882 304.662 205.563 304.879 205.592 305.143L206.58 314.18C206.61 314.445 206.976 314.661 207.396 314.661Z" fill="#39D24E"/>
<path d="M238.778 314.661H240.886C241.306 314.661 241.625 314.445 241.597 314.18L240.608 305.143C240.579 304.879 240.212 304.662 239.792 304.662H237.685C237.265 304.662 236.946 304.879 236.974 305.143L237.962 314.18C237.992 314.445 238.358 314.661 238.778 314.661Z" fill="#39D24E"/>
<path d="M299.987 216.315C303.404 227.398 306.684 238.559 309.825 249.726L314.555 266.445L316.915 274.748L317.514 276.797L317.814 277.823L317.884 278.063L317.897 278.121C317.906 278.176 317.904 278.159 317.9 278.177L317.657 277.811C317.459 277.544 317.142 277.069 316.29 276.416C315.491 275.77 313.863 275.047 312.314 275.009C310.771 274.948 309.713 275.367 309.169 275.629C308.101 276.202 308.205 276.343 308.288 276.239C308.417 276.146 308.69 275.868 308.98 275.51C309.57 274.792 310.245 273.804 310.898 272.755C312.215 270.63 313.495 268.218 314.721 265.755C317.234 260.826 319.519 255.6 321.815 250.36C324.079 245.1 326.304 239.78 328.484 234.43C330.738 229.113 332.839 223.686 335.034 218.366L344.509 221.193C342.053 232.767 339.172 244.127 335.635 255.462C333.888 261.139 331.943 266.767 329.707 272.47C328.548 275.316 327.316 278.162 325.79 281.12C325.013 282.605 324.177 284.112 323.061 285.752C322.497 286.572 321.859 287.434 320.985 288.395C320.064 289.335 319.06 290.462 316.677 291.67C315.478 292.241 313.699 292.855 311.425 292.763C309.144 292.706 306.819 291.674 305.446 290.586C304.019 289.488 303.235 288.442 302.638 287.568C302.046 286.676 301.705 285.967 301.384 285.271C301.246 284.95 301.095 284.603 300.988 284.312L300.715 283.579L300.328 282.531L299.553 280.437C298.546 277.653 297.528 274.887 296.584 272.109C294.683 266.555 292.785 261.021 291.001 255.456C287.367 244.343 283.988 233.191 280.831 221.934L299.987 216.315Z" fill="#B65B52"/>
<path d="M293.341 194.388C301.126 196.755 313.043 227.31 313.043 227.31L282.839 248.905C282.839 248.905 269.257 222.78 272.529 212.715C275.937 202.237 284.458 191.687 293.341 194.388Z" fill="#39D24E"/>
<path opacity="0.5" d="M293.341 194.388C301.126 196.755 313.043 227.31 313.043 227.31L282.839 248.905C282.839 248.905 269.257 222.78 272.529 212.715C275.937 202.237 284.458 191.687 293.341 194.388Z" fill="white"/>
<path d="M335.366 222.401L331.225 204.142L348.433 213.223C348.433 213.223 348.65 225.507 341.706 229.385L335.366 222.401Z" fill="#B55B52"/>
<path d="M338.428 189.658L349.411 197.442L348.433 213.223L331.225 204.142L338.428 189.658Z" fill="#B55B52"/>
<path d="M30.1134 97.7927H150.317C160.112 97.7927 167.634 105.806 167.035 115.601L163.703 170.013C163.104 179.807 154.599 187.821 144.804 187.821H130.884L136.571 206.5L109.371 187.821H24.6004C14.806 187.821 7.28357 179.807 7.8831 170.013L11.2147 115.601C11.8142 105.806 20.319 97.7927 30.1134 97.7927Z" fill="#39D24E"/>
<path d="M139.302 126.294H37.6387C35.7941 126.294 34.3769 124.785 34.4897 122.941C34.6025 121.096 36.2052 119.587 38.0498 119.587H139.713C141.557 119.587 142.975 121.096 142.862 122.941C142.749 124.785 141.148 126.294 139.302 126.294Z" fill="white"/>
<path d="M79.13 146.162H36.4219C34.5773 146.162 33.1601 144.653 33.2729 142.808C33.3857 140.964 34.9884 139.455 36.833 139.455H79.541C81.3856 139.455 82.8029 140.964 82.6901 142.808C82.5773 144.652 80.9761 146.162 79.13 146.162Z" fill="white"/>
<path d="M115.629 166.028H35.2066C33.362 166.028 31.9448 164.519 32.0576 162.675C32.1703 160.83 33.7731 159.321 35.6177 159.321H116.04C117.885 159.321 119.302 160.83 119.189 162.675C119.076 164.519 117.474 166.028 115.629 166.028Z" fill="white"/>
<path d="M110.397 146.162H93.5963C91.7517 146.162 90.3344 144.653 90.4472 142.808C90.56 140.964 92.1627 139.455 94.0073 139.455H110.808C112.652 139.455 114.07 140.964 113.957 142.808C113.842 144.652 112.241 146.162 110.397 146.162Z" fill="white"/>
<path d="M197.486 0H131.95C124.328 0 117.711 6.23576 117.245 13.8561L114.652 56.1961C114.186 63.8179 120.039 70.0522 127.661 70.0522H138.493L132.288 84.5865L155.232 70.0522H193.196C200.816 70.0522 207.435 63.8165 207.901 56.1961L210.494 13.8561C210.961 6.23428 205.107 0 197.486 0Z" fill="#39D24E"/>
<g opacity="0.5">
<path d="M197.486 0H131.95C124.328 0 117.711 6.23576 117.245 13.8561L114.652 56.1961C114.186 63.8179 120.039 70.0522 127.661 70.0522H138.493L132.288 84.5865L155.232 70.0522H193.196C200.816 70.0522 207.435 63.8165 207.901 56.1961L210.494 13.8561C210.961 6.23428 205.107 0 197.486 0Z" fill="#FAFAFA"/>
</g>
<path d="M165.886 41.9555C165.478 43.8714 163.667 45.2411 161.731 45.2411H157.863C157.911 44.14 157.942 43.4692 157.957 43.2288C158.108 40.7461 158.644 38.7041 159.563 37.1014C160.481 35.5002 162.234 33.6971 164.82 31.6952C167.406 29.6933 168.958 28.3814 169.477 27.7611C170.277 26.7802 170.715 25.6983 170.788 24.5171C170.889 22.8758 170.317 21.4689 169.078 20.2966C167.837 19.1257 166.106 18.5395 163.884 18.5395C161.741 18.5395 159.911 19.1509 158.395 20.3723C157.515 21.0816 156.773 22.0061 156.169 23.1473C155.314 24.7634 153.616 25.7755 151.859 25.5559C149.146 25.216 147.695 22.2451 149.129 19.8083C149.973 18.3718 151.107 17.0585 152.527 15.8668C155.513 13.3633 159.309 12.1123 163.915 12.1123C168.762 12.1123 172.539 13.3796 175.247 15.9114C177.955 18.4445 179.206 21.3932 179 24.7575C178.886 26.6199 178.252 28.3814 177.099 30.0435C175.946 31.7056 173.56 33.9687 169.94 36.8313C168.067 38.3138 166.888 39.504 166.402 40.4062C166.196 40.7921 166.024 41.3085 165.886 41.9555ZM157.412 52.6092L157.441 52.1417C157.576 49.9395 159.469 48.1542 161.671 48.1542H162.139C164.341 48.1542 166.017 49.9395 165.881 52.1417L165.853 52.6092C165.718 54.8114 163.825 56.5967 161.622 56.5967H161.155C158.953 56.5952 157.277 54.81 157.412 52.6092Z" fill="white"/>
</svg>
