<svg width="388" height="358" viewBox="0 0 388 358" fill="none" xmlns="http://www.w3.org/2000/svg">
<path d="M193.889 357.322C300.971 357.322 387.778 352.253 387.778 345.999C387.778 339.746 300.971 334.676 193.889 334.676C86.8071 334.676 0 339.746 0 345.999C0 352.253 86.8071 357.322 193.889 357.322Z" fill="#060912"/>
<path d="M29.3649 222.282L17.0619 8.21692C16.8159 3.94092 20.0829 0.474915 24.3589 0.474915H268.492C272.768 0.474915 276.433 3.94092 276.679 8.21692L288.983 222.282C289.229 226.558 285.962 230.024 281.686 230.024H37.5519C33.2759 230.024 29.6109 226.558 29.3649 222.282Z" fill="#263238"/>
<path d="M281.684 230.498H37.5511C33.0351 230.498 29.1501 226.824 28.8901 222.309L16.5861 8.24394C16.4601 6.04194 17.2011 3.97094 18.6731 2.41194C20.1421 0.855942 22.1611 -6.10352e-05 24.3581 -6.10352e-05H268.491C273.007 -6.10352e-05 276.892 3.67394 277.152 8.18894L289.456 222.253C289.582 224.455 288.841 226.526 287.37 228.085C285.901 229.642 283.882 230.498 281.684 230.498ZM29.8381 222.254C30.0691 226.276 33.5291 229.549 37.5511 229.549H281.684C283.618 229.549 285.392 228.798 286.679 227.435C287.97 226.068 288.619 224.247 288.508 222.309L276.204 8.24394C275.973 4.22194 272.513 0.948944 268.491 0.948944H24.3581C22.4241 0.948944 20.6511 1.69994 19.3631 3.06294C18.0731 4.42994 17.4231 6.25094 17.5341 8.18894L29.8381 222.254Z" fill="#263238"/>
<path d="M32.3551 222.282L20.0521 8.21692C19.8061 3.94092 23.0731 0.474915 27.3491 0.474915H271.482C275.758 0.474915 279.423 3.94092 279.669 8.21692L291.973 222.282C292.219 226.558 288.952 230.024 284.676 230.024H40.5421C36.2671 230.024 32.6011 226.558 32.3551 222.282Z" fill="white"/>
<path d="M284.675 230.498H40.5415C36.0255 230.498 32.1405 226.824 31.8805 222.309L19.5765 8.24394C19.4495 6.04194 20.1915 3.97094 21.6625 2.41194C23.1315 0.855942 25.1495 -6.10352e-05 27.3475 -6.10352e-05H271.481C275.997 -6.10352e-05 279.882 3.67394 280.142 8.18894L292.446 222.253C292.572 224.455 291.831 226.526 290.36 228.085C288.891 229.642 286.872 230.498 284.675 230.498ZM27.3485 0.948944C25.4155 0.948944 23.6415 1.69994 22.3545 3.06294C21.0635 4.42994 20.4145 6.25094 20.5255 8.18894L32.8285 222.254C33.0595 226.276 36.5195 229.549 40.5415 229.549H284.674C286.608 229.549 288.382 228.798 289.669 227.435C290.96 226.068 291.609 224.247 291.498 222.309L279.194 8.24394C278.962 4.22194 275.502 0.948944 271.481 0.948944H27.3485Z" fill="#263238"/>
<path d="M114.423 31.3879H46.1966C43.6706 31.3879 41.4846 29.3209 41.3396 26.7939C41.1946 24.2679 43.1426 22.2009 45.6686 22.2009H113.895C116.421 22.2009 118.607 24.2679 118.752 26.7939C118.898 29.3199 116.949 31.3879 114.423 31.3879Z" fill="#39D24E"/>
<path d="M101.88 47.303H47.1107C44.5847 47.303 42.3987 45.236 42.2537 42.709C42.1087 40.183 44.0567 38.116 46.5827 38.116H101.352C103.878 38.116 106.064 40.183 106.209 42.709C106.355 45.236 104.407 47.303 101.88 47.303Z" fill="#39D24E"/>
<path d="M128.677 67.839H46.6635C45.0255 67.839 43.6204 66.511 43.5264 64.872C43.4324 63.234 44.6844 61.905 46.3224 61.905H128.336C129.974 61.905 131.379 63.233 131.473 64.872C131.567 66.511 130.315 67.839 128.677 67.839Z" fill="#E0E0E0"/>
<path d="M143.47 77.2989H56.2357C54.5977 77.2989 53.1927 75.9709 53.0987 74.3319C53.0047 72.6939 54.2567 71.3649 55.8947 71.3649H143.129C144.768 71.3649 146.172 72.6929 146.266 74.3319C146.36 75.9709 145.109 77.2989 143.47 77.2989Z" fill="#E0E0E0"/>
<path d="M128.043 86.7599H56.7806C55.1426 86.7599 53.7376 85.4319 53.6436 83.7929C53.5496 82.1549 54.8016 80.8259 56.4396 80.8259H127.702C129.34 80.8259 130.745 82.1539 130.839 83.7929C130.933 85.4319 129.681 86.7599 128.043 86.7599Z" fill="#E0E0E0"/>
<path d="M120.539 96.2209H57.3236C55.6856 96.2209 54.2806 94.8929 54.1866 93.2539C54.0926 91.6159 55.3446 90.2869 56.9826 90.2869H120.198C121.836 90.2869 123.241 91.6149 123.335 93.2539C123.429 94.8919 122.177 96.2209 120.539 96.2209Z" fill="#E0E0E0"/>
<path d="M100.389 111.614H49.181C47.543 111.614 46.138 110.286 46.044 108.647C45.95 107.008 47.202 105.68 48.84 105.68H100.048C101.686 105.68 103.091 107.008 103.185 108.647C103.28 110.286 102.028 111.614 100.389 111.614Z" fill="#E0E0E0"/>
<path d="M114.91 134.063H59.4982C57.8602 134.063 56.6082 135.391 56.7022 137.03C56.7962 138.669 58.2012 139.997 59.8392 139.997H115.251C116.889 139.997 118.141 138.669 118.047 137.03C117.953 135.391 116.548 134.063 114.91 134.063Z" fill="#E0E0E0"/>
<path d="M103.85 124.602H58.9553C57.3173 124.602 56.0653 125.93 56.1593 127.569C56.2533 129.207 57.6583 130.536 59.2963 130.536H104.191C105.829 130.536 107.081 129.208 106.987 127.569C106.893 125.93 105.489 124.602 103.85 124.602Z" fill="#E0E0E0"/>
<path d="M108.459 115.142H58.4123C56.7743 115.142 55.5223 116.47 55.6163 118.109C55.7103 119.748 57.1153 121.076 58.7533 121.076H108.8C110.438 121.076 111.69 119.748 111.596 118.109C111.502 116.47 110.097 115.142 108.459 115.142Z" fill="#E0E0E0"/>
<path d="M104.536 183.771H53.3275C51.6895 183.771 50.2845 182.443 50.1905 180.804C50.0965 179.166 51.3485 177.837 52.9865 177.837H104.195C105.834 177.837 107.238 179.165 107.332 180.804C107.426 182.443 106.174 183.771 104.536 183.771Z" fill="#E0E0E0"/>
<path d="M119.059 206.22H63.6467C62.0087 206.22 60.7567 207.548 60.8507 209.187C60.9447 210.825 62.3497 212.154 63.9877 212.154H119.4C121.038 212.154 122.29 210.826 122.196 209.187C122.102 207.548 120.698 206.22 119.059 206.22Z" fill="#E0E0E0"/>
<path d="M107.999 196.759H63.1037C61.4657 196.759 60.2137 198.087 60.3077 199.726C60.4017 201.364 61.8067 202.693 63.4447 202.693H108.34C109.978 202.693 111.23 201.365 111.136 199.726C111.042 198.088 109.637 196.759 107.999 196.759Z" fill="#E0E0E0"/>
<path d="M112.606 187.299H62.5588C60.9208 187.299 59.6688 188.627 59.7628 190.266C59.8568 191.904 61.2618 193.233 62.8998 193.233H112.947C114.585 193.233 115.837 191.905 115.743 190.266C115.649 188.627 114.244 187.299 112.606 187.299Z" fill="#E0E0E0"/>
<path d="M116.541 162.444H61.1291C59.4911 162.444 58.2391 163.772 58.3331 165.411C58.4271 167.049 59.8321 168.378 61.4701 168.378H116.882C118.521 168.378 119.772 167.05 119.678 165.411C119.584 163.773 118.179 162.444 116.541 162.444Z" fill="#E0E0E0"/>
<path d="M105.481 152.984H60.5861C58.9481 152.984 57.6961 154.312 57.7901 155.951C57.8841 157.589 59.2891 158.918 60.9271 158.918H105.822C107.46 158.918 108.712 157.59 108.618 155.951C108.524 154.312 107.119 152.984 105.481 152.984Z" fill="#E0E0E0"/>
<path d="M110.09 143.523H60.0432C58.4042 143.523 57.1532 144.851 57.2472 146.49C57.3412 148.128 58.7462 149.457 60.3842 149.457H110.431C112.069 149.457 113.321 148.129 113.227 146.49C113.133 144.851 111.728 143.523 110.09 143.523Z" fill="#E0E0E0"/>
<path d="M203.95 65.861H179.217C165.557 65.861 153.848 54.788 153.063 41.128C152.278 27.468 162.715 16.395 176.374 16.395C190.034 16.395 201.743 27.468 202.528 41.128L203.95 65.861Z" fill="#39D24E"/>
<path d="M178.971 61.577C167.678 61.577 157.996 52.422 157.347 41.128C156.698 29.835 165.327 20.679 176.62 20.679C187.913 20.679 197.595 29.834 198.244 41.128C198.893 52.421 190.264 61.577 178.971 61.577Z" fill="white"/>
<path d="M180.232 32.848L181.184 49.407H176.608L175.984 38.556C175.276 39.119 174.586 39.574 173.914 39.922C173.242 40.27 172.393 40.603 171.367 40.921L171.154 37.212C172.666 36.716 173.827 36.12 174.639 35.424C175.45 34.728 176.067 33.869 176.49 32.847L180.232 32.848Z" fill="#263238"/>
<path d="M219.214 115.327H243.947C257.607 115.327 268.043 104.254 267.258 90.5939C266.473 76.9339 254.763 65.861 241.104 65.861C227.444 65.861 217.008 76.9339 217.793 90.5939L219.214 115.327Z" fill="#39D24E"/>
<path d="M243.701 111.042C254.994 111.042 263.623 101.887 262.974 90.593C262.325 79.299 252.644 70.144 241.35 70.144C230.057 70.144 221.428 79.299 222.077 90.593C222.727 101.887 232.408 111.042 243.701 111.042Z" fill="white"/>
<path d="M250.225 98.873H236.653C236.732 97.533 237.131 96.272 237.852 95.091C238.573 93.91 239.972 92.516 242.049 90.909C243.318 89.924 244.122 89.176 244.463 88.666C244.804 88.155 244.961 87.67 244.935 87.211C244.906 86.715 244.699 86.291 244.312 85.939C243.925 85.587 243.454 85.411 242.899 85.411C242.321 85.411 241.86 85.592 241.514 85.955C241.168 86.318 240.959 86.958 240.886 87.876L236.334 87.509C236.438 86.236 236.707 85.241 237.14 84.527C237.573 83.812 238.21 83.265 239.05 82.883C239.891 82.502 241.074 82.311 242.599 82.311C244.191 82.311 245.44 82.492 246.345 82.855C247.251 83.218 247.979 83.775 248.529 84.527C249.079 85.278 249.381 86.121 249.435 87.054C249.492 88.046 249.256 88.994 248.727 89.897C248.198 90.8 247.198 91.792 245.727 92.874C244.853 93.503 244.269 93.944 243.976 94.196C243.683 94.448 243.341 94.777 242.95 95.184H250.013L250.225 98.873Z" fill="#263238"/>
<g opacity="0.4">
<path d="M209.636 164.792H184.903C171.243 164.792 159.534 153.719 158.749 140.059C157.964 126.4 168.401 115.326 182.06 115.326C195.72 115.326 207.429 126.399 208.214 140.059L209.636 164.792Z" fill="#39D24E"/>
</g>
<path d="M184.656 160.508C173.363 160.508 163.681 151.353 163.032 140.059C162.383 128.765 171.012 119.61 182.305 119.61C193.598 119.61 203.28 128.765 203.929 140.059C204.578 151.353 195.95 160.508 184.656 160.508Z" fill="white"/>
<path d="M181.08 136.628L176.76 135.862C177.037 134.5 177.66 133.456 178.629 132.73C179.598 132.004 181.008 131.642 182.859 131.642C184.984 131.642 186.543 132.038 187.536 132.83C188.529 133.622 189.06 134.618 189.129 135.817C189.169 136.52 189.014 137.157 188.661 137.727C188.309 138.297 187.756 138.797 187.003 139.226C187.641 139.382 188.133 139.563 188.478 139.77C189.038 140.103 189.483 140.542 189.814 141.086C190.145 141.63 190.332 142.28 190.376 143.035C190.431 143.983 190.235 144.892 189.789 145.762C189.343 146.632 188.667 147.302 187.761 147.772C186.855 148.242 185.643 148.477 184.125 148.477C182.644 148.477 181.466 148.303 180.591 147.955C179.716 147.607 178.983 147.098 178.393 146.428C177.803 145.758 177.33 144.916 176.976 143.901L181.462 143.301C181.692 144.212 182.004 144.843 182.398 145.195C182.792 145.547 183.278 145.722 183.855 145.722C184.462 145.722 184.955 145.5 185.333 145.056C185.711 144.612 185.879 144.02 185.836 143.279C185.793 142.524 185.565 141.939 185.152 141.524C184.74 141.109 184.2 140.902 183.534 140.902C183.179 140.902 182.695 140.991 182.083 141.169L182.13 137.937C182.384 137.974 182.581 137.992 182.722 137.992C183.314 137.992 183.798 137.803 184.172 137.426C184.546 137.048 184.719 136.6 184.689 136.082C184.66 135.586 184.49 135.19 184.176 134.894C183.863 134.598 183.447 134.45 182.929 134.45C182.396 134.45 181.972 134.611 181.657 134.933C181.342 135.255 181.152 135.821 181.08 136.628Z" fill="#263238"/>
<path d="M224.9 214.258H249.633C263.293 214.258 273.729 203.185 272.944 189.525C272.159 175.866 260.449 164.792 246.79 164.792C233.13 164.792 222.694 175.865 223.479 189.525L224.9 214.258Z" fill="#E0E0E0"/>
<path d="M249.387 209.974C260.681 209.974 269.309 200.819 268.66 189.526C268.011 178.233 258.33 169.078 247.036 169.078C235.743 169.078 227.114 178.233 227.763 189.526C228.412 200.819 238.093 209.974 249.387 209.974Z" fill="white"/>
<path d="M249.299 194.762H241.058L240.844 191.042L248.522 181.246H252.465L253.04 191.253H255.084L255.286 194.762H253.242L253.417 197.805H249.474L249.299 194.762ZM249.097 191.252L248.803 186.128L244.743 191.252H249.097Z" fill="#E0E0E0"/>
<path d="M215.845 165.668C215.384 165.668 214.998 165.309 214.971 164.842L209.285 65.91C209.257 65.428 209.626 65.014 210.11 64.985C210.589 64.947 211.007 65.326 211.035 65.81L216.721 164.742C216.749 165.224 216.38 165.638 215.896 165.667C215.88 165.668 215.863 165.668 215.845 165.668Z" fill="#39D24E"/>
<path d="M218.689 215.134C218.228 215.134 217.842 214.775 217.815 214.308L214.972 164.842C214.944 164.36 215.313 163.946 215.797 163.917C216.271 163.886 216.694 164.258 216.722 164.742L219.565 214.208C219.593 214.69 219.224 215.105 218.74 215.133C218.723 215.134 218.706 215.134 218.689 215.134Z" fill="#E0E0E0"/>
<path d="M212.011 65.861C212.07 66.883 211.289 67.711 210.267 67.711C209.245 67.711 208.369 66.883 208.31 65.861C208.251 64.839 209.032 64.011 210.054 64.011C211.076 64.011 211.952 64.839 212.011 65.861Z" fill="white"/>
<path d="M210.265 68.587C208.789 68.587 207.519 67.387 207.434 65.911C207.391 65.173 207.642 64.476 208.14 63.95C208.637 63.424 209.316 63.134 210.054 63.134C211.531 63.134 212.801 64.334 212.886 65.81C212.928 66.548 212.678 67.245 212.18 67.771C211.682 68.298 211.003 68.587 210.265 68.587ZM210.053 64.887C209.803 64.887 209.576 64.982 209.414 65.154C209.251 65.326 209.169 65.559 209.184 65.811C209.216 66.366 209.711 66.835 210.265 66.835C210.515 66.835 210.742 66.74 210.904 66.568C211.067 66.396 211.149 66.162 211.134 65.91C211.103 65.356 210.608 64.887 210.053 64.887Z" fill="#39D24E"/>
<path d="M214.855 115.327C214.914 116.349 214.132 117.177 213.11 117.177C212.088 117.177 211.213 116.349 211.154 115.327C211.095 114.305 211.876 113.477 212.898 113.477C213.92 113.476 214.796 114.305 214.855 115.327Z" fill="white"/>
<path d="M213.11 118.053C211.633 118.053 210.363 116.853 210.278 115.376C210.236 114.639 210.486 113.941 210.984 113.415C211.481 112.889 212.16 112.6 212.897 112.6C214.373 112.6 215.643 113.8 215.728 115.276V115.277C215.77 116.015 215.52 116.712 215.023 117.238C214.527 117.764 213.847 118.053 213.11 118.053ZM212.897 114.352C212.647 114.352 212.42 114.447 212.258 114.619C212.095 114.792 212.013 115.025 212.028 115.277C212.06 115.832 212.555 116.301 213.11 116.301C213.36 116.301 213.587 116.206 213.749 116.034C213.912 115.862 213.994 115.628 213.979 115.376C213.947 114.822 213.452 114.352 212.897 114.352Z" fill="#39D24E"/>
<path d="M217.698 164.792C217.757 165.814 216.976 166.642 215.954 166.642C214.932 166.642 214.056 165.814 213.997 164.792C213.938 163.77 214.719 162.942 215.741 162.942C216.763 162.942 217.639 163.771 217.698 164.792Z" fill="white"/>
<path d="M215.954 167.519C214.477 167.519 213.207 166.319 213.122 164.842C213.079 164.105 213.329 163.408 213.827 162.882C214.324 162.356 215.003 162.067 215.741 162.067C217.218 162.067 218.487 163.267 218.572 164.742C218.615 165.48 218.364 166.178 217.867 166.704C217.371 167.23 216.691 167.519 215.954 167.519ZM215.741 163.819C215.491 163.819 215.264 163.914 215.102 164.086C214.939 164.258 214.858 164.491 214.873 164.742C214.905 165.298 215.4 165.767 215.955 165.767C216.205 165.767 216.432 165.672 216.594 165.5C216.757 165.328 216.838 165.094 216.823 164.843V164.842C216.791 164.287 216.296 163.819 215.741 163.819Z" fill="#E0E0E0"/>
<path d="M220.54 214.258C220.599 215.28 219.818 216.108 218.796 216.108C217.774 216.108 216.898 215.28 216.839 214.258C216.78 213.236 217.561 212.408 218.583 212.408C219.605 212.408 220.481 213.236 220.54 214.258Z" fill="white"/>
<path d="M218.796 216.985C217.32 216.985 216.049 215.785 215.964 214.309C215.921 213.571 216.172 212.873 216.67 212.347C217.167 211.821 217.846 211.532 218.583 211.532C220.06 211.532 221.33 212.732 221.415 214.209C221.457 214.946 221.207 215.644 220.709 216.17C220.212 216.696 219.533 216.985 218.796 216.985ZM218.583 213.283C218.333 213.283 218.106 213.378 217.944 213.55C217.781 213.723 217.699 213.956 217.714 214.208C217.746 214.763 218.241 215.232 218.796 215.232C219.046 215.232 219.272 215.137 219.434 214.965C219.597 214.792 219.679 214.559 219.664 214.307C219.633 213.753 219.138 213.283 218.583 213.283Z" fill="#E0E0E0"/>
<path d="M367.441 84.278C368.112 85.323 368.654 86.211 369.196 87.192C369.737 88.152 370.256 89.116 370.761 90.088C371.776 92.029 372.689 94.018 373.552 96.032C375.248 100.073 376.671 104.255 377.698 108.584L378.046 110.221L378.219 111.039L378.262 111.244L378.333 111.658C378.38 111.939 378.394 112.194 378.414 112.461C378.482 114.529 377.952 115.992 377.423 117.254C376.322 119.753 374.931 121.6 373.491 123.364C370.576 126.84 367.402 129.708 363.886 132.358L360.69 129C363.144 125.799 365.615 122.449 367.609 119.149C368.586 117.511 369.471 115.802 369.884 114.393C370.091 113.709 370.104 113.098 370.041 113.068C370.029 113.076 370.032 113.068 370.024 113.093C370.022 113.103 370.021 113.113 370.023 113.122L369.971 112.947L369.764 112.243L369.351 110.837C368.166 107.099 366.696 103.409 365.024 99.795C364.198 97.983 363.29 96.205 362.387 94.429C361.93 93.544 361.46 92.666 360.976 91.803C360.5 90.957 359.985 90.041 359.551 89.31L367.441 84.278Z" fill="#FF8B7B"/>
<path d="M362.973 127.209L355.453 127.519L358.48 133.976C358.48 133.976 363.831 133.672 365.838 130.427L362.973 127.209Z" fill="#FF8B7B"/>
<path d="M353.592 130.424L355.45 136.202L358.48 133.976L355.453 127.519L353.592 130.424Z" fill="#FF8B7B"/>
<path d="M348.96 337.218C349.806 337.218 350.732 337.043 351.382 336.89C351.467 336.87 351.532 336.802 351.548 336.717C351.564 336.632 351.528 336.546 351.457 336.498C351.147 336.291 348.392 334.497 347.32 334.98C347.151 335.056 346.937 335.224 346.88 335.589C346.805 336.074 346.92 336.462 347.223 336.741C347.608 337.097 348.256 337.218 348.96 337.218ZM350.772 336.58C349.174 336.899 347.977 336.844 347.519 336.42C347.324 336.24 347.255 335.988 347.308 335.649C347.336 335.466 347.421 335.406 347.492 335.374C348.058 335.117 349.649 335.895 350.772 336.58Z" fill="#39D24E"/>
<path d="M351.33 336.896C351.368 336.896 351.406 336.886 351.439 336.867C351.506 336.828 351.548 336.757 351.549 336.68C351.55 336.568 351.575 333.933 350.592 333.052C350.331 332.817 350.023 332.72 349.678 332.762C349.134 332.828 348.982 333.169 348.94 333.366C348.719 334.398 350.356 336.373 351.222 336.867C351.257 336.887 351.294 336.896 351.33 336.896ZM349.824 333.186C350.002 333.186 350.159 333.248 350.301 333.376C350.887 333.902 351.071 335.381 351.109 336.258C350.248 335.563 349.231 334.08 349.366 333.451C349.388 333.348 349.449 333.225 349.726 333.192C349.76 333.188 349.792 333.186 349.824 333.186Z" fill="#39D24E"/>
<path d="M279.684 333.138C279.761 333.143 279.836 333.109 279.879 333.047C279.931 332.973 279.927 332.875 279.87 332.802C279.588 332.443 277.128 329.352 275.797 329.266C275.767 329.264 275.739 329.264 275.711 329.265C275.459 329.275 275.254 329.394 275.12 329.611C274.896 329.973 274.864 330.342 275.024 330.707C275.554 331.918 278.144 332.747 279.641 333.133C279.655 333.135 279.67 333.137 279.684 333.138ZM275.79 329.689C276.523 329.736 278.06 331.294 279.109 332.547C277.086 331.959 275.73 331.228 275.433 330.549C275.329 330.311 275.352 330.077 275.504 329.832C275.563 329.736 275.635 329.693 275.739 329.688C275.755 329.688 275.773 329.688 275.79 329.689Z" fill="#39D24E"/>
<path d="M279.684 333.138C279.7 333.139 279.716 333.138 279.733 333.136C279.81 333.125 279.875 333.075 279.902 333.005C279.94 332.91 280.814 330.659 280.166 329.318C279.968 328.908 279.649 328.621 279.218 328.467C278.637 328.258 278.343 328.452 278.199 328.649C277.592 329.484 278.731 332.154 279.526 333.06C279.566 333.107 279.624 333.134 279.684 333.138ZM278.81 328.804C278.877 328.808 278.962 328.826 279.071 328.865C279.39 328.979 279.617 329.183 279.765 329.49C280.191 330.371 279.83 331.797 279.617 332.472C278.881 331.397 278.2 329.399 278.565 328.898C278.586 328.867 278.64 328.793 278.81 328.804Z" fill="#39D24E"/>
<path d="M345.575 53.098C344.54 58.545 342.215 70.429 346.038 73.976C346.038 73.976 344.584 79.509 334.484 79.708C323.378 79.926 329.145 74.308 329.145 74.308C335.198 72.744 335.016 68.258 333.936 64.062L345.575 53.098Z" fill="#FF8B7B"/>
<path d="M347.547 68.8999C346.97 67.3949 345.317 66.6389 343.784 67.1349C340.291 68.2669 336.069 68.9069 333.094 69.0669C331.783 69.1369 330.606 69.8889 329.959 71.0299L325.668 78.5939L350.13 75.6329L347.547 68.8999Z" fill="#39D24E"/>
<path d="M323.207 44.07C323.271 44.056 323.333 44.027 323.387 43.983C323.575 43.832 323.607 43.558 323.459 43.372C321.976 41.506 319.984 41.691 319.9 41.7C319.662 41.723 319.487 41.939 319.508 42.177C319.53 42.415 319.739 42.588 319.976 42.564C320.042 42.558 321.596 42.43 322.779 43.919C322.884 44.051 323.051 44.103 323.207 44.07Z" fill="#263238"/>
<path d="M320.931 49.4279C320.931 49.4279 319.94 52.7169 318.691 54.3759C319.734 55.1919 321.349 54.6209 321.349 54.6209L320.931 49.4279Z" fill="#FF5652"/>
<path d="M321.486 48.1009C321.545 48.8379 321.204 49.4709 320.724 49.5169C320.244 49.5619 319.807 49.0019 319.747 48.2659C319.688 47.5299 320.029 46.8959 320.509 46.8499C320.99 46.8039 321.427 47.3639 321.486 48.1009Z" fill="#263238"/>
<path d="M320.725 46.8699L318.92 46.5269C318.92 46.5269 319.936 47.8229 320.725 46.8699Z" fill="#263238"/>
<path d="M288.416 338.915L279.551 335.858L285.805 316.131L294.671 319.188L288.416 338.915Z" fill="#FF8B7B"/>
<path d="M361.566 336.957H352.413L351.584 315.761H360.737L361.566 336.957Z" fill="#FF8B7B"/>
<path d="M352.115 335.62H362.398C362.772 335.62 363.072 335.88 363.12 336.245L364.178 344.381C364.288 345.225 363.551 346.023 362.688 346.009C359.104 345.947 357.379 345.737 352.857 345.737C350.075 345.737 346.007 346.026 342.165 346.026C338.407 346.026 338.171 342.227 339.776 341.883C346.97 340.34 348.133 338.213 350.578 336.183C351.018 335.816 351.568 335.62 352.115 335.62Z" fill="#263238"/>
<path d="M280.708 332.257L290.222 336.73C290.568 336.893 290.736 337.253 290.626 337.596L288.175 345.237C287.921 346.029 286.902 346.414 286.11 346.025C282.82 344.411 281.313 343.475 277.128 341.508C274.554 340.298 269.104 338.048 265.549 336.377C262.072 334.743 263.456 331.287 265.085 331.682C272.392 333.45 275.929 332.813 279.046 332.086C279.61 331.954 280.201 332.019 280.708 332.257Z" fill="#263238"/>
<path opacity="0.2" d="M285.805 316.137L282.453 326.705L291.449 329.363L294.674 319.195L285.805 316.137Z" fill="black"/>
<path opacity="0.2" d="M360.739 315.767H351.582L352.013 326.692H361.17L360.739 315.767Z" fill="black"/>
<path d="M363.941 75.1329C367.751 75.8909 371.894 89.4779 371.894 89.4779L361.2 101.11C361.2 101.11 352.199 88.4499 353.99 83.6939C355.856 78.7409 359.438 74.2369 363.941 75.1329Z" fill="#39D24E"/>
<path opacity="0.4" d="M363.941 75.1329C367.751 75.8909 371.894 89.4779 371.894 89.4779L361.2 101.11C361.2 101.11 352.199 88.4499 353.99 83.6939C355.856 78.7409 359.438 74.2369 363.941 75.1329Z" fill="white"/>
<path opacity="0.4" d="M357.96 83.949C356.025 82.229 354.727 82.779 353.849 84.193C352.997 88.272 358.23 96.674 360.337 99.854C361.277 95.992 362.335 87.859 357.96 83.949Z" fill="#39D24E"/>
<path d="M315.043 78.2859C314.355 82.2909 314.206 94.4819 320.46 131.448L357.663 130.718C356.952 115.615 356.881 106.294 363.94 75.1319C363.94 75.1319 356.135 73.5919 348.13 73.3639C341.868 73.1859 336.737 73.0869 331.237 73.6959C325.832 74.2949 319.891 75.4709 317.215 76.0309C316.092 76.2659 315.237 77.1569 315.043 78.2859Z" fill="#39D24E"/>
<path opacity="0.4" d="M315.043 78.2859C314.355 82.2909 314.206 94.4819 320.46 131.448L357.663 130.718C356.952 115.615 356.881 106.294 363.94 75.1319C363.94 75.1319 356.135 73.5919 348.13 73.3639C341.868 73.1859 336.737 73.0869 331.237 73.6959C325.832 74.2949 319.891 75.4709 317.215 76.0309C316.092 76.2659 315.237 77.1569 315.043 78.2859Z" fill="white"/>
<path d="M345.977 43.237C346.152 52.334 346.419 56.179 342.238 61.252C335.948 68.884 324.776 67.26 321.896 58.434C319.304 50.491 319.454 36.948 327.993 32.513C336.406 28.144 345.802 34.139 345.977 43.237Z" fill="#FF8B7B"/>
<path d="M320.725 40.8719C327.946 39.4279 337.438 36.9829 339.331 31.7049C341.223 26.4279 319.822 22.3029 320.725 40.8719Z" fill="#263238"/>
<path d="M326.279 43.2609C325.258 42.7509 323.39 39.5759 324.557 34.0569C325.724 28.5379 334.446 23.5939 341.279 27.4829C334.057 30.2609 326.279 43.2609 326.279 43.2609Z" fill="#39D24E"/>
<path d="M325.667 37.539C324.445 42.65 325.71 46.303 327.659 48.183C327.659 48.183 322.616 81.125 347.694 77.539C372.772 73.953 358.127 36.5 352.281 31.055C346.436 25.611 330.723 22.855 325.667 37.539Z" fill="#263238"/>
<path d="M325.822 45.4939C324.578 47.4489 324.35 49.5669 324.457 50.9829C324.641 53.4219 326.546 53.4239 327.95 51.9659C329.213 50.6539 330.579 47.4989 329.873 45.6369C329.176 43.8029 326.934 43.7459 325.822 45.4939Z" fill="#FF8B7B"/>
<path d="M330.285 131.256C330.285 131.256 335.961 193.916 341.68 229.18C346.299 257.663 350.206 324.299 350.206 324.299H362.688C362.688 324.299 366.758 259.258 364.335 231.044C358.203 159.651 369.25 152.984 357.664 130.719L330.285 131.256Z" fill="#39D24E"/>
<path opacity="0.4" d="M342.983 152.204C339.729 156.984 335.387 162.49 333.988 168.316C335.109 178.885 336.423 190.575 337.844 201.815C341.268 192.357 347.152 173.468 342.983 152.204Z" fill="black"/>
<path d="M320.46 131.449C320.46 131.449 305.551 198.871 300.445 226.345C295.133 254.922 282.803 319.679 282.803 319.679L295.248 326.081C295.248 326.081 318.258 248.113 321.333 233.703C329.447 203.64 355.452 130.803 355.452 130.803L320.46 131.449Z" fill="#39D24E"/>
<path d="M280.221 322.351L295.355 328.377L298.291 323.108L282.099 316.642L280.221 322.351Z" fill="#263238"/>
<path d="M348.495 324.546H364.393L365.306 318.969L348.49 318.4L348.495 324.546Z" fill="#263238"/>
<path d="M358.208 128.529L359.905 131.821C360.037 132.076 359.732 132.345 359.302 132.354L320.286 133.119C319.95 133.126 319.672 132.967 319.649 132.757L319.294 129.439C319.269 129.209 319.559 129.009 319.926 129.001L357.6 128.262C357.877 128.256 358.123 128.364 358.208 128.529Z" fill="#263238"/>
<path d="M353.172 132.833L354.181 132.813C354.382 132.809 354.534 132.703 354.52 132.577L354.022 128.267C354.007 128.141 353.831 128.041 353.63 128.045L352.621 128.065C352.42 128.069 352.268 128.175 352.282 128.301L352.78 132.611C352.795 132.737 352.971 132.837 353.172 132.833Z" fill="#39D24E"/>
<path d="M328.715 133.313L329.724 133.293C329.925 133.289 330.077 133.183 330.063 133.056L329.565 128.746C329.55 128.62 329.374 128.52 329.173 128.524L328.164 128.544C327.963 128.548 327.811 128.654 327.825 128.781L328.323 133.091C328.338 133.217 328.514 133.317 328.715 133.313Z" fill="#39D24E"/>
<path d="M321.25 86.9179C319.163 91.3179 316.883 95.3849 314.306 99.4359C313.024 101.453 311.704 103.456 310.233 105.391C309.526 106.37 308.743 107.323 307.988 108.283C307.175 109.222 306.392 110.167 305.505 111.079C304.716 111.96 303.582 113.04 302.544 113.849C301.476 114.684 300.386 115.416 299.286 116.071C297.093 117.4 294.838 118.426 292.583 119.35C288.034 121.145 283.484 122.395 278.701 123.205L277.498 118.728C281.587 117.007 285.727 115.06 289.527 112.924C291.435 111.861 293.253 110.697 294.907 109.476C295.736 108.865 296.5 108.217 297.191 107.559C297.915 106.879 298.416 106.322 299.112 105.436C301.756 102.177 304.128 98.4029 306.41 94.5999C307.555 92.6929 308.613 90.7179 309.697 88.7599C310.775 86.8179 311.827 84.7709 312.809 82.8729L321.25 86.9179Z" fill="#FF8B7B"/>
<path d="M317.764 75.8929C308.975 77.7939 306.01 90.6529 306.01 90.6529L317.234 100.319C317.234 100.319 328.652 88.5829 328.255 81.5299C327.96 76.2919 322.555 74.8569 317.764 75.8929Z" fill="#39D24E"/>
<path opacity="0.4" d="M317.764 75.8929C308.975 77.7939 306.01 90.6529 306.01 90.6529L317.234 100.319C317.234 100.319 328.652 88.5829 328.255 81.5299C327.96 76.2919 322.555 74.8569 317.764 75.8929Z" fill="white"/>
<path d="M282.057 122.503L273.165 127.015L269.869 119.413C269.869 119.413 277.734 117.595 281.115 119.287L282.057 122.503Z" fill="#FF8B7B"/>
<path d="M269.784 128.57L266.334 123.42L269.87 119.412L273.166 127.014L269.784 128.57Z" fill="#FF8B7B"/>
</svg>
