<svg width="60" height="60" viewBox="0 0 60 60" fill="none" xmlns="http://www.w3.org/2000/svg">
<path d="M52.5 45H49.93C49.8575 44.6891 49.7059 44.4021 49.49 44.167C49.2741 43.9318 49.0011 43.7563 48.6975 43.6575C43.8516 42.125 38.6509 42.125 33.805 43.6575C33.5014 43.7563 33.2284 43.9318 33.0125 44.167C32.7966 44.4021 32.645 44.6891 32.5725 45H27.43C27.3575 44.6891 27.2059 44.4021 26.99 44.167C26.7741 43.9318 26.5011 43.7563 26.1975 43.6575C21.3516 42.125 16.1509 42.125 11.305 43.6575C11.0012 43.7559 10.728 43.9312 10.512 44.1665C10.296 44.4017 10.1446 44.6889 10.0725 45H7.5C6.83696 45 6.20107 45.2634 5.73223 45.7322C5.26339 46.2011 5 46.837 5 47.5C5 48.163 5.26339 48.7989 5.73223 49.2678C6.20107 49.7366 6.83696 50 7.5 50H10V50.5025C10 53.585 12.275 56.1825 15.41 56.685L19.9925 57.415C20.9326 57.5699 21.8951 57.518 22.8131 57.2628C23.731 57.0077 24.5823 56.5554 25.3075 55.9375C25.992 55.3594 26.5426 54.6395 26.9212 53.8275C27.2997 53.0155 27.4972 52.1309 27.5 51.235V50H32.5V51.235C32.5 53.035 33.2975 54.7475 34.6925 55.9375C35.4179 56.5551 36.2692 57.0072 37.1871 57.2623C38.105 57.5175 39.0674 57.5696 40.0075 57.415L44.59 56.685C47.725 56.185 50 53.585 50 50.5025V50H52.5C53.163 50 53.7989 49.7366 54.2678 49.2678C54.7366 48.7989 55 48.163 55 47.5C55 46.837 54.7366 46.2011 54.2678 45.7322C53.7989 45.2634 53.163 45 52.5 45ZM42.5 18.4175V14.8375C42.5 12.455 41.3 10.2775 39.2875 9.0075C38.3055 8.38314 37.18 8.02044 36.0182 7.95393C34.8564 7.88741 33.6969 8.11929 32.65 8.6275L31.875 8.85C31.875 6.7275 30.15 5 28.03 5H24.375C22.5505 5.00331 20.8018 5.73042 19.5129 7.02172C18.2239 8.31301 17.5 10.063 17.5 11.8875V18.4175C7.18 20 0 23.465 0 27.5C0 33.0225 13.4325 37.5 30 37.5C46.5675 37.5 60 33.0225 60 27.5C60 23.465 52.82 20 42.5 18.4175Z" fill="#39D24E"/>
</svg>
