<svg width="60" height="60" viewBox="0 0 60 60" fill="none" xmlns="http://www.w3.org/2000/svg">
<path d="M25.7467 29.6732H4.54077C2.77659 29.6732 1.34375 28.2403 1.34375 26.4762C1.3434 26.0562 1.42585 25.6403 1.58639 25.2523C1.74693 24.8643 1.98241 24.5117 2.27935 24.2147C2.57629 23.9178 2.92886 23.6823 3.3169 23.5218C3.70494 23.3612 4.12083 23.2788 4.54077 23.2792H22.1915L25.7467 29.6732ZM58.6572 26.4762C58.6572 28.2538 57.2064 29.6732 55.4602 29.6732H34.5497C34.9385 28.9365 35.1387 28.115 35.1325 27.2821C35.1262 26.4492 34.9137 25.6308 34.5139 24.9L33.6094 23.2792H55.4602C57.2243 23.2792 58.6572 24.712 58.6572 26.4762ZM32.9467 25.7687L23.687 9.11199C22.8444 7.56273 20.8697 7.01109 19.3348 7.86721C17.7945 8.71796 17.2393 10.6702 18.099 12.2194L27.3497 28.8672C28.153 30.3932 30.1518 30.986 31.693 30.1299C33.2154 29.3311 33.8082 27.3323 32.9467 25.7687ZM30.3408 27.2678C30.1561 27.4192 29.9193 27.4916 29.6816 27.4695C29.4438 27.4474 29.2244 27.3324 29.0709 27.1496C28.9957 27.06 28.939 26.9563 28.9041 26.8446C28.8692 26.7329 28.8568 26.6154 28.8676 26.4989C28.8784 26.3824 28.9123 26.2691 28.9671 26.1658C29.022 26.0624 29.0969 25.971 29.1873 25.8968L29.207 25.8815C29.2978 25.805 29.4029 25.7472 29.5162 25.7116C29.6295 25.676 29.7487 25.6633 29.867 25.6743C29.9852 25.6852 30.1001 25.7195 30.205 25.7753C30.3098 25.8311 30.4026 25.9071 30.4777 25.9991C30.5529 26.091 30.6091 26.1969 30.6429 26.3108C30.6768 26.4246 30.6876 26.544 30.6749 26.6621C30.6621 26.7802 30.626 26.8945 30.5687 26.9985C30.5113 27.1025 30.4338 27.194 30.3408 27.2678ZM32.9467 31.4642C32.1205 32.0189 31.1479 32.315 30.1527 32.315C29.1576 32.315 28.1849 32.0189 27.3587 31.4642H5.74972L9.84226 50.3418C10.1378 51.6135 11.284 52.5359 12.5736 52.5359H47.4273C48.7169 52.5359 49.8632 51.6135 50.1587 50.3329L54.2512 31.4642H32.9467ZM15.8709 49.0021L13.4082 35.1081L15.1706 34.7947L17.6342 48.6896L15.8709 49.0021ZM22.4844 48.9251L21.2521 35.0302L23.036 34.8726L24.2691 48.7666L22.4844 48.9251ZM30.896 48.8463H29.1049V34.9514H30.896V48.8463ZM37.5157 48.9251L35.7318 48.7666L36.9632 34.8726L38.747 35.0302L37.5157 48.9251ZM44.1291 49.0021L42.3658 48.6887L44.8294 34.7947L46.5936 35.1081L44.1291 49.0021Z" fill="#39D24E"/>
</svg>
