<svg width="60" height="60" viewBox="0 0 60 60" fill="none" xmlns="http://www.w3.org/2000/svg">
<path d="M36.7226 25.6746C35.7925 29.3949 30.0021 27.5047 28.202 26.9947L29.8521 20.4542C31.7122 20.9943 37.6827 21.7743 36.7226 25.6746ZM27.3919 30.3549L25.5918 37.5855C27.812 38.1555 34.6825 40.3457 35.7025 36.2654C36.7826 32.0051 29.6121 30.895 27.3919 30.3549ZM59.1042 37.2554C55.0839 53.3366 38.8228 63.1173 22.7416 59.097C6.66048 55.0767 -3.11122 38.8155 0.900068 22.7344C1.85306 18.9124 3.54965 15.3156 5.89293 12.1494C8.23621 8.98313 11.1803 6.30955 14.557 4.28129C17.9337 2.25304 21.6769 0.909865 25.5728 0.328471C29.4686 -0.252923 33.4409 -0.0611406 37.2626 0.892864C53.3138 4.91315 63.0945 21.1743 59.1042 37.2554ZM36.6326 18.1441L37.9827 12.7437L34.6825 11.9936L33.3624 17.184C32.4923 16.974 31.6222 16.764 30.7222 16.584L32.0423 11.2736L28.772 10.4935L27.4219 15.8639C26.7019 15.6839 25.9818 15.5339 25.3218 15.3539L20.7915 14.2138L19.8914 17.7241C19.8914 17.7241 22.3516 18.2941 22.2916 18.3241C23.6417 18.6541 23.8817 19.4942 23.8217 20.2442L20.1314 35.0353C19.9814 35.4553 19.5014 35.9953 18.6313 35.8453C18.6613 35.8753 16.2312 35.2453 16.2312 35.2453L14.611 38.9956L18.8713 40.0756C19.6814 40.2856 20.4615 40.4957 21.2415 40.6757L19.8614 46.1361L23.1616 46.9761L24.5117 41.5457C25.4118 41.7858 26.2819 41.9958 27.1219 42.2358L25.7718 47.6062L29.0721 48.4462L30.4522 42.9858C36.0026 44.0359 40.2629 43.6159 42.003 38.5455C43.5031 34.4952 42.003 32.0951 39.0028 30.565C41.1629 29.9949 42.783 28.6448 43.2331 25.7046C43.8331 21.7143 40.7729 19.5842 36.6326 18.1441Z" fill="#A7BED3"/>
</svg>
