<svg width="24" height="24" viewBox="0 0 24 24" fill="none" xmlns="http://www.w3.org/2000/svg">
<g clip-path="url(#clip0_465_782)">
<mask id="mask0_465_782" style="mask-type:luminance" maskUnits="userSpaceOnUse" x="0" y="0" width="24" height="24">
<path d="M0 0H24V24H0V0Z" fill="white"/>
</mask>
<g mask="url(#mask0_465_782)">
<mask id="mask1_465_782" style="mask-type:luminance" maskUnits="userSpaceOnUse" x="0" y="0" width="24" height="24">
<path d="M0 0H24V24H0V0Z" fill="white"/>
</mask>
<g mask="url(#mask1_465_782)">
<path d="M19.2494 4.00139H16.7497V2.75157C16.7497 2.34165 16.4098 2.00171 15.9999 2.00171C15.59 2.00171 15.25 2.34165 15.25 2.75157V4.00139H8.75101V2.75157C8.75101 2.34165 8.41107 2.00171 8.00115 2.00171C7.59123 2.00171 7.25125 2.34165 7.25125 2.75157V4.00139H4.75165C3.79184 4.00139 3.00195 4.79128 3.00195 5.75109V19.249C3.00195 20.2088 3.79184 20.9987 4.75165 20.9987H19.2494C20.2092 20.9987 20.9991 20.2088 20.9991 19.249V5.75109C20.9991 4.79128 20.2092 4.00139 19.2494 4.00139ZM4.7516 5.50115H19.2494C19.3894 5.50115 19.4994 5.61112 19.4994 5.75109V8.00075H4.50171V5.75109C4.50171 5.61112 4.61163 5.50115 4.7516 5.50115ZM19.2493 19.4989H4.75165C4.61168 19.4989 4.50171 19.3889 4.50171 19.2489V9.50051H19.4993V19.2489C19.4993 19.3889 19.3893 19.4989 19.2493 19.4989H19.2493Z" fill="white"/>
<path d="M8.00082 12C7.45093 12 7.00098 12.4499 7.00098 12.9998C7.00098 13.5497 7.45093 13.9997 8.00082 13.9997H8.0108C8.56074 13.9997 9.01064 13.5497 9.01064 12.9998C9.00066 12.4499 8.55075 12 8.00082 12ZM12.0002 12C11.4403 12 11.0003 12.4499 11.0003 12.9998C11.0003 13.5497 11.4502 13.9997 12.0002 13.9997C12.5501 13.9997 13 13.5497 13 12.9998C13 12.4499 12.5601 12 12.0002 12ZM15.9995 12C15.4396 12 14.9997 12.4499 14.9997 12.9998C14.9997 13.5497 15.4496 13.9997 15.9995 13.9997C16.5494 13.9997 16.9994 13.5497 16.9994 12.9998C16.9994 12.4499 16.5494 12 15.9995 12ZM8.00082 15.4994C7.45093 15.4994 7.00098 15.9493 7.00098 16.4993C7.00098 17.0492 7.45093 17.4991 8.00082 17.4991H8.0108C8.56074 17.4991 9.01064 17.0492 9.01064 16.4993C9.00066 15.9493 8.55075 15.4994 8.00082 15.4994ZM12.0002 15.4994C11.4403 15.4994 11.0003 15.9493 11.0003 16.4993C11.0003 17.0492 11.4502 17.4991 12.0002 17.4991C12.5501 17.4991 13 17.0492 13 16.4993C13 15.9493 12.5601 15.4994 12.0002 15.4994Z" fill="white"/>
</g>
</g>
</g>
<defs>
<clipPath id="clip0_465_782">
<rect width="24" height="24" fill="white"/>
</clipPath>
</defs>
</svg>
