<svg width="24" height="24" viewBox="0 0 24 24" fill="none" xmlns="http://www.w3.org/2000/svg">
<path fill-rule="evenodd" clip-rule="evenodd" d="M20.2321 5.14502C20.3444 5.24121 20.4365 5.35858 20.5034 5.49041C20.5702 5.62224 20.6105 5.76596 20.6217 5.91334C20.633 6.06072 20.6152 6.20889 20.5691 6.34936C20.5231 6.48983 20.4499 6.61986 20.3536 6.73202L11.3536 17.232C11.2527 17.3497 11.1286 17.4453 10.989 17.5128C10.8494 17.5803 10.6973 17.6181 10.5424 17.6241C10.3875 17.63 10.233 17.6038 10.0886 17.5472C9.94429 17.4905 9.81321 17.4047 9.70362 17.295L4.45362 12.045C4.24879 11.8327 4.13553 11.5485 4.13823 11.2535C4.14093 10.9586 4.25938 10.6765 4.46806 10.468C4.67675 10.2595 4.95897 10.1413 5.25394 10.1389C5.54892 10.1365 5.83304 10.25 6.04512 10.455L10.4371 14.8455L18.6466 5.26802C18.8408 5.0418 19.1169 4.90193 19.4142 4.87915C19.7115 4.85636 20.0057 4.95103 20.2321 5.14502Z" fill="white"/>
</svg>
