<svg width="24" height="24" viewBox="0 0 24 24" fill="none" xmlns="http://www.w3.org/2000/svg">
<g clip-path="url(#clip0_465_729)">
<mask id="mask0_465_729" style="mask-type:luminance" maskUnits="userSpaceOnUse" x="0" y="0" width="24" height="24">
<path d="M0 0H24V24H0V0Z" fill="white"/>
</mask>
<g mask="url(#mask0_465_729)">
<mask id="mask1_465_729" style="mask-type:luminance" maskUnits="userSpaceOnUse" x="0" y="0" width="24" height="24">
<path d="M0 0H24V24H0V0Z" fill="white"/>
</mask>
<g mask="url(#mask1_465_729)">
<path d="M19.0713 4.92825C15.1717 1.02878 8.82681 1.02882 4.92734 4.92825C3.03835 6.81724 1.99805 9.32879 1.99805 12.0002C1.99805 14.6717 3.03835 17.1832 4.92734 19.0722C6.8771 21.0219 9.43824 21.9968 11.9993 21.9968C14.5604 21.9968 17.1215 21.0219 19.0713 19.0722C20.9603 17.1832 22.0006 14.6717 22.0006 12.0002C22.0006 9.32879 20.9603 6.81724 19.0713 4.92825ZM18.0089 18.0098C14.6952 21.3235 9.30345 21.3236 5.98973 18.0098C4.38451 16.4046 3.50045 14.2703 3.50045 12.0002C3.50045 9.73012 4.38451 7.59585 5.98973 5.99063C7.64659 4.33377 9.82291 3.50534 11.9993 3.50534C14.1757 3.50534 16.352 4.33377 18.0089 5.99063C19.6141 7.59585 20.4982 9.73012 20.4982 12.0002C20.4982 14.2703 19.6141 16.4046 18.0089 18.0098Z" fill="white"/>
<path d="M12.7524 11.6913V7.79246C12.7524 7.3776 12.4161 7.04126 12.0012 7.04126C11.5863 7.04126 11.25 7.3776 11.25 7.79246V12.0031C11.25 12.2141 11.3373 12.4044 11.4774 12.5409L15.72 16.7838C15.7897 16.8537 15.8725 16.9091 15.9637 16.9468C16.0548 16.9846 16.1525 17.004 16.2512 17.0039C16.4435 17.0039 16.6357 16.9306 16.7824 16.7839C17.0758 16.4905 17.0758 16.0149 16.7824 15.7215L12.7524 11.6913Z" fill="white"/>
</g>
</g>
</g>
<defs>
<clipPath id="clip0_465_729">
<rect width="24" height="24" fill="white"/>
</clipPath>
</defs>
</svg>
