<svg width="60" height="60" viewBox="0 0 60 60" fill="none" xmlns="http://www.w3.org/2000/svg">
<g clip-path="url(#clip0_523_1388)">
<path d="M40 20H52.5V32.5H40V20ZM5 57.5C7.7575 57.5 10 55.26 10 52.5V7.5H5C2.24 7.5 0 9.7425 0 12.5V52.5C0 54.4275 0.7525 56.17 1.95 57.5H5Z" fill="#39D24E"/>
<path d="M55 0H17.5C14.74 0 12.5 2.2425 12.5 5V52.5C12.4957 54.2688 11.8659 55.979 10.7221 57.3283C9.57833 58.6775 7.99422 59.5787 6.25 59.8725C6.66 59.9425 7.0725 60 7.5 60H55C56.3261 60 57.5979 59.4732 58.5355 58.5355C59.4732 57.5979 60 56.3261 60 55V5C60 2.2425 57.76 0 55 0ZM40 10H52.5C52.8315 10 53.1495 10.1317 53.3839 10.3661C53.6183 10.6005 53.75 10.9185 53.75 11.25C53.75 11.5815 53.6183 11.8995 53.3839 12.1339C53.1495 12.3683 52.8315 12.5 52.5 12.5H40C39.6685 12.5 39.3505 12.3683 39.1161 12.1339C38.8817 11.8995 38.75 11.5815 38.75 11.25C38.75 10.9185 38.8817 10.6005 39.1161 10.3661C39.3505 10.1317 39.6685 10 40 10ZM32.5 50H20C19.6685 50 19.3505 49.8683 19.1161 49.6339C18.8817 49.3995 18.75 49.0815 18.75 48.75C18.75 48.4185 18.8817 48.1005 19.1161 47.8661C19.3505 47.6317 19.6685 47.5 20 47.5H32.5C33.1875 47.5 33.75 48.0625 33.75 48.75C33.75 49.4375 33.1875 50 32.5 50ZM32.5 42.5H20C19.6685 42.5 19.3505 42.3683 19.1161 42.1339C18.8817 41.8995 18.75 41.5815 18.75 41.25C18.75 40.9185 18.8817 40.6005 19.1161 40.3661C19.3505 40.1317 19.6685 40 20 40H32.5C33.1875 40 33.75 40.5625 33.75 41.25C33.75 41.9375 33.1875 42.5 32.5 42.5ZM32.5 35H20C19.6685 35 19.3505 34.8683 19.1161 34.6339C18.8817 34.3995 18.75 34.0815 18.75 33.75C18.75 33.4185 18.8817 33.1005 19.1161 32.8661C19.3505 32.6317 19.6685 32.5 20 32.5H32.5C33.1875 32.5 33.75 33.0625 33.75 33.75C33.75 34.4375 33.1875 35 32.5 35ZM32.5 27.5H20C19.6685 27.5 19.3505 27.3683 19.1161 27.1339C18.8817 26.8995 18.75 26.5815 18.75 26.25C18.75 25.9185 18.8817 25.6005 19.1161 25.3661C19.3505 25.1317 19.6685 25 20 25H32.5C32.8315 25 33.1495 25.1317 33.3839 25.3661C33.6183 25.6005 33.75 25.9185 33.75 26.25C33.75 26.5815 33.6183 26.8995 33.3839 27.1339C33.1495 27.3683 32.8315 27.5 32.5 27.5ZM32.5 20H20C19.6685 20 19.3505 19.8683 19.1161 19.6339C18.8817 19.3995 18.75 19.0815 18.75 18.75C18.75 18.4185 18.8817 18.1005 19.1161 17.8661C19.3505 17.6317 19.6685 17.5 20 17.5H32.5C32.8315 17.5 33.1495 17.6317 33.3839 17.8661C33.6183 18.1005 33.75 18.4185 33.75 18.75C33.75 19.0815 33.6183 19.3995 33.3839 19.6339C33.1495 19.8683 32.8315 20 32.5 20ZM32.5 12.5H20C19.6685 12.5 19.3505 12.3683 19.1161 12.1339C18.8817 11.8995 18.75 11.5815 18.75 11.25C18.75 10.9185 18.8817 10.6005 19.1161 10.3661C19.3505 10.1317 19.6685 10 20 10H32.5C32.8315 10 33.1495 10.1317 33.3839 10.3661C33.6183 10.6005 33.75 10.9185 33.75 11.25C33.75 11.5815 33.6183 11.8995 33.3839 12.1339C33.1495 12.3683 32.8315 12.5 32.5 12.5ZM52.5 50H40C39.3125 50 38.75 49.4375 38.75 48.75C38.75 48.0625 39.3125 47.5 40 47.5H52.5C53.1875 47.5 53.75 48.0625 53.75 48.75C53.75 49.4375 53.1875 50 52.5 50ZM52.5 42.5H40C39.3125 42.5 38.75 41.9375 38.75 41.25C38.75 40.5625 39.3125 40 40 40H52.5C53.1875 40 53.75 40.5625 53.75 41.25C53.75 41.9375 53.1875 42.5 52.5 42.5ZM55 33.75C55 34.4375 54.4375 35 53.75 35H38.75C38.4187 34.9993 38.1011 34.8674 37.8668 34.6332C37.6326 34.3989 37.5007 34.0813 37.5 33.75V18.75C37.5 18.4185 37.6317 18.1005 37.8661 17.8661C38.1005 17.6317 38.4185 17.5 38.75 17.5H53.75C54.0815 17.5 54.3995 17.6317 54.6339 17.8661C54.8683 18.1005 55 18.4185 55 18.75V33.75Z" fill="#39D24E"/>
</g>
<defs>
<clipPath id="clip0_523_1388">
<rect width="60" height="60" fill="white"/>
</clipPath>
</defs>
</svg>
