<svg width="60" height="60" viewBox="0 0 60 60" fill="none" xmlns="http://www.w3.org/2000/svg">
<path d="M48.3809 44.7715H49.1484C51.6621 44.7715 53.7187 42.7148 53.7187 40.2012V28.1953C53.7187 25.6816 51.6621 23.625 49.1484 23.625H48.3809C45.8672 23.625 43.8105 25.6816 43.8105 28.1953V40.2012C43.8105 42.7148 45.8672 44.7715 48.3809 44.7715Z" fill="#39D24E"/>
<path d="M48.3809 45.3574C48.7852 45.3574 49.1895 45.375 49.5938 45.334C50.3145 45.2637 51 45.0645 51.6328 44.7129C52.8574 44.0391 53.7832 42.8555 54.1348 41.502C54.2871 40.9277 54.3047 40.3477 54.3047 39.7559V28.2949C54.3047 25.8691 52.6406 23.6484 50.2207 23.1445C49.6816 23.0332 49.1426 23.0273 48.5977 23.0273C48.0059 23.0273 47.4199 23.0801 46.8516 23.2617C45.5273 23.6836 44.3731 24.6445 43.7637 25.9043C43.1367 27.1934 43.2246 28.5469 43.2246 29.9297V39.8789C43.2246 40.5937 43.2891 41.3027 43.5469 41.9766C44.0449 43.2715 45.0293 44.3496 46.3066 44.9063C46.9688 45.1992 47.6602 45.3516 48.3809 45.3574C49.1367 45.3633 49.1367 44.1914 48.3809 44.1855C46.166 44.168 44.4023 42.3516 44.3965 40.1484V36.7031C44.3965 33.8672 44.373 31.0371 44.3965 28.2012C44.4023 27.0762 44.877 26.0156 45.7031 25.2539C46.5293 24.498 47.5547 24.2168 48.6504 24.2168C49.1426 24.2168 49.623 24.2109 50.1035 24.334C50.6543 24.4746 51.1758 24.7266 51.6211 25.0781C52.5703 25.8398 53.1211 26.9824 53.1328 28.2012C53.1562 30.9844 53.1328 33.7617 53.1328 36.5449V40.125C53.1328 40.9805 52.8984 41.7832 52.4063 42.4922C51.75 43.4473 50.6309 44.0977 49.4707 44.1797C49.1074 44.2031 48.7441 44.1914 48.3809 44.1914C47.625 44.1855 47.625 45.3574 48.3809 45.3574ZM10.8574 44.7715H11.625C14.1387 44.7715 16.1953 42.7148 16.1953 40.2012V28.1953C16.1953 25.6816 14.1387 23.625 11.625 23.625H10.8574C8.34375 23.625 6.28711 25.6816 6.28711 28.1953V40.2012C6.28711 42.7148 8.34375 44.7715 10.8574 44.7715Z" fill="#39D24E"/>
<path d="M10.8577 45.3574C11.262 45.3574 11.6663 45.375 12.0706 45.334C12.7913 45.2637 13.4769 45.0645 14.1097 44.7129C15.3343 44.0391 16.2601 42.8555 16.6116 41.502C16.764 40.9277 16.7816 40.3477 16.7816 39.7559V28.2949C16.7816 25.8691 15.1175 23.6484 12.6976 23.1445C12.1585 23.0332 11.6194 23.0273 11.0745 23.0273C10.4827 23.0273 9.89679 23.0801 9.32843 23.2617C8.00421 23.6836 6.84992 24.6445 6.24054 25.9043C5.61359 27.1934 5.70148 28.5469 5.70148 29.9297V39.8789C5.70148 40.5937 5.76593 41.3027 6.02375 41.9766C6.52179 43.2715 7.50617 44.3496 8.78351 44.9063C9.44562 45.1992 10.137 45.3516 10.8577 45.3574C11.6136 45.3633 11.6136 44.1914 10.8577 44.1855C8.64289 44.168 6.87921 42.3516 6.87336 40.1484V36.7031C6.87336 33.8672 6.84992 31.0371 6.87336 28.2012C6.87921 27.0762 7.35382 26.0156 8.18 25.2539C9.00617 24.498 10.0316 24.2168 11.1273 24.2168C11.6194 24.2168 12.0999 24.2109 12.5804 24.334C13.1312 24.4746 13.6527 24.7266 14.098 25.0781C15.0472 25.8398 15.598 26.9824 15.6097 28.2012C15.6331 30.9844 15.6097 33.7617 15.6097 36.5449V40.125C15.6097 40.9805 15.3753 41.7832 14.8831 42.4922C14.2269 43.4473 13.1077 44.0977 11.9476 44.1797C11.5843 44.2031 11.221 44.1914 10.8577 44.1914C10.1019 44.1855 10.1019 45.3574 10.8577 45.3574Z" fill="#39D24E"/>
<path d="M9.2168 40.2012V26.3496C9.2168 25.0664 9.24609 23.7891 9.42188 22.5117C9.39844 22.6699 9.38086 22.8223 9.35742 22.9805C9.62695 21.0117 10.1543 19.0899 10.9277 17.2617L10.752 17.6836C11.1973 16.6348 11.7246 15.6152 12.3223 14.6426C12.6152 14.168 12.9199 13.7109 13.248 13.2598C13.3301 13.1426 13.418 13.0313 13.5 12.9199C13.5293 12.8789 13.5645 12.8379 13.5938 12.7969C13.7812 12.5449 13.3125 13.1543 13.5059 12.9082C13.6816 12.6856 13.8574 12.4629 14.0449 12.252C14.7656 11.3965 15.5566 10.5938 16.3945 9.85548C16.5996 9.6797 16.8047 9.50392 17.0156 9.32814C17.1152 9.24611 17.2148 9.16407 17.3145 9.0879C17.4141 9.00587 17.666 8.82423 17.2031 9.16993C17.2676 9.12306 17.3262 9.07618 17.3906 9.02931C17.8418 8.68946 18.3105 8.36134 18.791 8.05665C19.8633 7.37111 20.9883 6.77931 22.1602 6.28126L21.7383 6.45704C23.5664 5.6836 25.4883 5.15626 27.457 4.88673C27.2988 4.91017 27.1465 4.92775 26.9883 4.95118C28.9863 4.68165 31.0195 4.68165 33.0176 4.95118C32.8594 4.92775 32.707 4.91017 32.5488 4.88673C34.5176 5.15626 36.4395 5.6836 38.2676 6.45704L37.8457 6.28126C38.8945 6.72657 39.9141 7.25392 40.8867 7.85157C41.3613 8.14454 41.8184 8.44923 42.2695 8.77736C42.3867 8.85939 42.498 8.94728 42.6094 9.02931C42.6504 9.05861 42.6914 9.09376 42.7324 9.12306C42.9844 9.31056 42.375 8.84181 42.6211 9.03517C42.8438 9.21095 43.0664 9.38673 43.2773 9.57423C44.1328 10.2949 44.9355 11.0859 45.6738 11.9238C45.8496 12.1289 46.0254 12.334 46.2012 12.5449C46.2832 12.6445 46.3652 12.7442 46.4414 12.8438C46.5234 12.9434 46.7051 13.1953 46.3594 12.7324C46.4062 12.7969 46.4531 12.8555 46.5 12.9199C46.8398 13.3711 47.168 13.8399 47.4727 14.3203C48.1582 15.3926 48.75 16.5176 49.248 17.6895L49.0723 17.2676C49.8457 19.0957 50.373 21.0176 50.6426 22.9863C50.6191 22.8281 50.6016 22.6758 50.5781 22.5176C50.7539 23.8301 50.7832 25.1426 50.7832 26.4609V41.2852C50.7832 42.4102 50.8301 43.5586 50.6836 44.6777C50.707 44.5195 50.7246 44.3672 50.748 44.209C50.6191 45.1231 50.373 46.0195 50.0215 46.875L50.1973 46.4531C49.9277 47.0977 49.5938 47.7129 49.207 48.293C49.1133 48.4336 49.0137 48.5684 48.9199 48.7031C48.7031 49.0078 49.1777 48.3867 48.9844 48.6211C48.9375 48.6797 48.8906 48.7442 48.8379 48.8027C48.6152 49.0723 48.3867 49.3242 48.1406 49.5703C47.8945 49.8164 47.6367 50.0508 47.373 50.2676C47.3145 50.3145 47.2559 50.3672 47.1914 50.4141C46.9512 50.6074 47.5371 50.1563 47.3027 50.3262C47.1562 50.4317 47.0098 50.5371 46.8633 50.6367C46.2832 51.0234 45.668 51.3574 45.0234 51.627L45.4453 51.4512C44.5898 51.8027 43.6992 52.0488 42.7793 52.1777C42.9375 52.1543 43.0898 52.1367 43.248 52.1133C42.2988 52.2422 41.3379 52.2129 40.3828 52.2129H35.9121C34.9922 52.2129 34.1133 53.0215 34.1543 53.9707C34.1953 54.9258 34.9277 55.7285 35.9121 55.7285H40.3828C40.9453 55.7285 41.5137 55.7402 42.0762 55.7227C43.7227 55.6817 45.293 55.3008 46.7988 54.6621C49.459 53.5313 51.7441 51.3574 52.998 48.75C53.7129 47.2734 54.1289 45.7383 54.2695 44.1035C54.3047 43.6699 54.3047 43.2363 54.3047 42.8027V25.5117C54.2988 22.6348 53.7949 19.7285 52.7637 17.0391C51.7148 14.2969 50.2207 11.7891 48.2988 9.56837C46.4883 7.47657 44.2793 5.68361 41.8652 4.32423C39.4043 2.94142 36.6797 1.96876 33.8848 1.53517C30.8613 1.07228 27.8203 1.13087 24.8203 1.7754C22.0781 2.3672 19.4062 3.47462 17.0449 4.98048C14.6426 6.51564 12.5273 8.44337 10.7871 10.6992C9.0293 12.9727 7.68164 15.5215 6.81445 18.2637C6.06445 20.625 5.70117 23.1211 5.70117 25.5938V40.1777C5.70117 41.0977 6.50977 41.9766 7.45898 41.9356C8.4082 41.918 9.2168 41.1856 9.2168 40.2012Z" fill="#39D24E"/>
<path d="M35.9062 53.9766C35.9062 55.9688 34.2773 57.5977 32.2852 57.5977H28.3477C27.3516 57.5977 26.4492 57.1934 25.793 56.5371C25.1367 55.8809 24.7324 54.9609 24.7324 53.9648C24.7324 51.9727 26.3613 50.332 28.3535 50.332H32.2852C33.2813 50.332 34.1836 50.7539 34.8398 51.4102C35.4961 52.0664 35.9062 52.9805 35.9062 53.9766Z" fill="#39D24E"/>
<path d="M34.7336 53.9766C34.7336 54.0586 34.7336 54.1406 34.7277 54.2227C34.7277 54.252 34.7219 54.2754 34.7219 54.3047C34.7101 54.4336 34.7101 54.4102 34.7336 54.2285C34.757 54.2402 34.6633 54.5801 34.6515 54.6152C34.6398 54.6504 34.5637 54.9785 34.5285 54.9844C34.5461 54.9375 34.5695 54.8906 34.5871 54.8496C34.5637 54.8965 34.5461 54.9434 34.5226 54.9902C34.4875 55.0605 34.4523 55.125 34.4113 55.1953C34.3703 55.2598 34.3351 55.3242 34.2883 55.3887C34.2765 55.4121 34.259 55.4297 34.2472 55.4531C34.1887 55.5352 34.1887 55.5352 34.2472 55.459C34.2648 55.4414 34.2765 55.418 34.2941 55.4004C34.2648 55.4414 34.2297 55.4766 34.1945 55.5176C34.1418 55.5762 34.0949 55.6289 34.0422 55.6875C33.9543 55.7812 33.8547 55.8633 33.7609 55.9453C33.5734 56.1094 33.9308 55.8516 33.7844 55.9219C33.7082 55.9629 33.6379 56.0215 33.5617 56.0684C33.4504 56.1328 33.339 56.1914 33.2219 56.25C32.9816 56.373 33.4738 56.168 33.216 56.25C33.1515 56.2676 33.0929 56.291 33.0344 56.3145C32.8937 56.3555 32.759 56.3848 32.6125 56.4141C32.384 56.4668 32.6887 56.4023 32.6887 56.4082C32.6769 56.4375 32.4015 56.4316 32.3664 56.4316C32.1906 56.4375 32.0207 56.4316 31.8449 56.4316H28.259C28.1769 56.4316 28.1008 56.4199 28.0187 56.4199C27.9308 56.4082 27.9543 56.4141 28.0949 56.4316C28.0363 56.4199 27.9719 56.4082 27.9133 56.3965C27.7609 56.3672 27.6203 56.3203 27.4679 56.2734C27.1808 56.1855 27.6789 56.3906 27.4094 56.2559C27.3449 56.2207 27.2746 56.1914 27.2101 56.1504C27.0754 56.0742 26.9054 55.9922 26.7941 55.8809C26.9758 56.0566 26.8586 55.9336 26.8234 55.8984C26.7355 55.8164 26.6476 55.7402 26.5656 55.6523C26.5129 55.5996 26.466 55.541 26.4133 55.4824C26.2902 55.3535 26.5597 55.7109 26.4015 55.4707C26.3195 55.3418 26.2375 55.2187 26.1672 55.084C26.1262 55.0078 26.0793 54.9258 26.05 54.8379C26.1496 55.1191 26.0558 54.8203 26.0383 54.7793C25.9855 54.6152 25.9035 54.4102 25.9094 54.2402C25.9035 54.4922 25.9211 54.334 25.9152 54.2695C25.9152 54.1758 25.9035 54.0762 25.9035 53.9824C25.9035 53.9414 25.8918 53.5957 25.9269 53.5781C25.9211 53.6309 25.9152 53.6777 25.9035 53.7305C25.9094 53.6777 25.9211 53.625 25.9328 53.5723C25.9445 53.5195 25.9562 53.4668 25.968 53.4199C25.9855 53.3437 26.009 53.2676 26.0324 53.1973C26.0441 53.1621 26.1262 52.8574 26.0793 53.0449C26.0383 53.2207 26.0969 53.0098 26.1144 52.9746C26.1496 52.9043 26.1847 52.8398 26.2258 52.7695C26.2492 52.7227 26.4015 52.4414 26.4367 52.4473C26.4074 52.4883 26.3781 52.5234 26.3488 52.5645C26.3781 52.5234 26.4133 52.4883 26.4484 52.4473C26.4836 52.4062 26.5129 52.3711 26.548 52.3359C26.6535 52.2246 26.7648 52.125 26.882 52.0254C27.0812 51.8496 26.6652 52.166 26.8879 52.0254C26.9523 51.9844 27.0168 51.9375 27.0812 51.9023C27.1926 51.8379 27.3039 51.7793 27.4211 51.7207C27.6437 51.6035 27.2336 51.7676 27.3918 51.7324C27.4504 51.7207 27.5148 51.6855 27.5734 51.668C27.7258 51.6211 27.8781 51.5859 28.0304 51.5566C28.3 51.498 27.7551 51.5742 28.0363 51.5566C28.089 51.5508 28.1418 51.5508 28.1945 51.5449C28.2531 51.5449 28.3176 51.5391 28.3762 51.5391H32.3488C32.4308 51.5391 32.507 51.5449 32.589 51.5508C32.7238 51.5625 32.7121 51.5625 32.5597 51.5449C32.6183 51.5566 32.6828 51.5684 32.7414 51.5801C32.8937 51.6152 33.1457 51.6387 33.2687 51.7383C33.1105 51.6152 33.1633 51.6855 33.2394 51.7266C33.3449 51.7793 33.4562 51.832 33.5558 51.8965C33.6203 51.9375 33.6847 51.9785 33.7433 52.0195C33.9894 52.1895 33.6613 51.9258 33.8254 52.084C33.9543 52.207 34.0832 52.3359 34.2062 52.4648C34.4113 52.6758 34.0832 52.2656 34.2414 52.5117C34.2883 52.5879 34.341 52.6582 34.3879 52.7402C34.4347 52.8164 34.4758 52.8984 34.5168 52.9805C34.5578 53.0566 34.6926 53.2266 34.5461 53.0332C34.6398 53.1562 34.6691 53.4082 34.7043 53.5605C34.716 53.625 34.8156 53.8945 34.7219 53.6191C34.7512 53.707 34.7336 53.8652 34.7336 53.9766C34.7394 54.5918 35.2668 55.1777 35.9054 55.1484C36.5324 55.1191 37.0832 54.6328 37.0773 53.9766C37.0539 52.2012 36.0402 50.4551 34.4055 49.6875C33.7199 49.3652 33.0168 49.1895 32.2551 49.1836H28.8859C27.8781 49.1836 26.923 49.2891 26.0207 49.7871C24.6437 50.543 23.7707 51.9492 23.589 53.4902C23.3781 55.2715 24.2805 57.0117 25.757 57.9961C26.7004 58.623 27.7726 58.7637 28.8683 58.7637H31.4523C32.5363 58.7637 33.5558 58.7109 34.5461 58.1953C36.0988 57.3809 37.0597 55.7109 37.0773 53.9707C37.0832 53.3555 36.5324 52.7695 35.9054 52.7988C35.2668 52.834 34.7394 53.3203 34.7336 53.9766Z" fill="#39D24E"/>
</svg>
