<svg width="60" height="60" viewBox="0 0 60 60" fill="none" xmlns="http://www.w3.org/2000/svg">
<path d="M56.6367 34.6992C56.918 33.1054 59.2969 31.664 59.2969 29.9999C59.2969 28.3359 56.918 26.8945 56.6367 25.3007C56.3555 23.6718 58.0898 21.5039 57.5391 19.9804C56.9766 18.4335 54.2461 17.8945 53.4258 16.4765C52.6055 15.0585 53.4961 12.4218 52.4414 11.1679C51.3867 9.91401 48.6328 10.3359 47.3789 9.2812C46.125 8.22651 46.0664 5.44917 44.6484 4.61714C43.2422 3.79682 40.8047 5.13276 39.2461 4.57026C37.7227 4.01948 36.7148 1.41792 35.0859 1.13667C33.4922 0.855418 31.6641 2.95307 30 2.95307C28.3359 2.95307 26.4961 0.867137 24.9141 1.13667C23.2852 1.41792 22.2773 4.01948 20.7539 4.57026C19.207 5.13276 16.7695 3.79682 15.3516 4.61714C13.9336 5.43745 13.875 8.22651 12.6211 9.2812C11.3672 10.3359 8.61328 9.91401 7.55859 11.1679C6.50391 12.4218 7.39453 15.0585 6.57422 16.4765C5.75391 17.8828 3.02344 18.4218 2.46094 19.9804C1.91016 21.5039 3.64453 23.6718 3.36328 25.3007C3.08203 26.8945 0.703125 28.3359 0.703125 29.9999C0.703125 31.664 3.08203 33.1054 3.36328 34.6992C3.64453 36.3281 1.91016 38.496 2.46094 40.0195C3.02344 41.5664 5.75391 42.1054 6.57422 43.5234C7.39453 44.9414 6.50391 47.5781 7.55859 48.832C8.61328 50.0859 11.3672 49.664 12.6211 50.7187C13.875 51.7734 13.9336 54.5507 15.3516 55.3828C16.7578 56.2031 19.1953 54.8671 20.7539 55.4296C22.2773 55.9804 23.2852 58.582 24.9141 58.8632C26.5078 59.1445 28.3359 57.0468 30 57.0468C31.6641 57.0468 33.5039 59.1328 35.0859 58.8632C36.7148 58.582 37.7227 55.9804 39.2461 55.4296C40.793 54.8671 43.2305 56.2031 44.6484 55.3828C46.0664 54.5625 46.125 51.7734 47.3789 50.7187C48.6328 49.664 51.3867 50.0859 52.4414 48.832C53.4961 47.5781 52.6055 44.9414 53.4258 43.5234C54.2461 42.1171 56.9766 41.5781 57.5391 40.0195C58.0898 38.496 56.3555 36.3281 56.6367 34.6992ZM42.375 23.5781L24.9961 39.7031C24.6445 40.0195 24.1172 40.0429 23.7539 39.7382L17.6602 34.6757C17.2617 34.3476 17.2031 33.75 17.543 33.3515L19.207 31.3593C19.5352 30.9609 20.1328 30.9023 20.5312 31.2421L24.2344 34.3242L39.3281 20.3203C39.7031 19.9687 40.3008 19.9921 40.6523 20.3671L42.4219 22.2656C42.7734 22.6289 42.7617 23.2265 42.375 23.5781Z" fill="#39D24E"/>
</svg>
