<svg width="60" height="60" viewBox="0 0 60 60" fill="none" xmlns="http://www.w3.org/2000/svg">
<path d="M32.0152 3.28131C17.3902 3.37506 5.48395 15.3751 5.43707 30.0001C5.43707 34.6876 6.65582 39.1407 8.81207 42.9376C8.2027 44.2969 7.40582 45.6094 6.37457 46.8282C5.71832 47.5313 4.96832 48.2344 4.0777 48.8438C3.23395 49.4532 2.29645 49.9219 1.31207 50.3438C0.983946 50.4844 1.17145 50.6719 1.35895 50.7657C1.68707 50.9063 2.0152 51.0938 2.3902 51.2344C3.09332 51.5157 3.79645 51.7501 4.49957 51.9376C5.71832 52.3126 7.0777 52.4532 8.3902 52.5001C9.74957 52.5469 11.1558 52.4063 12.5152 52.2188C13.7339 51.9844 14.9058 51.7501 16.0777 51.3751C20.5308 54.7501 26.1558 56.7657 32.2027 56.7657C46.9683 56.7657 58.9214 44.8126 58.9214 30.0469C58.9214 15.1876 46.8277 3.18756 32.0152 3.28131ZM32.0621 45.4688C30.5621 45.4688 29.2964 44.2032 29.2964 42.7032C29.2964 41.1563 30.5621 39.9376 32.0621 39.9376C33.6089 39.8907 34.8277 41.1094 34.8746 42.6563C34.8746 44.2032 33.7027 45.4688 32.0621 45.4688ZM36.9371 30.4219C35.9996 31.2657 34.9214 32.0626 34.8277 33.4688C34.7339 34.5001 34.6871 35.5313 34.6871 36.5626C34.7339 37.1251 34.4996 37.3126 33.9371 37.2657C33.2808 37.2188 32.6246 37.2657 32.0152 37.2657C31.3121 37.2657 30.5621 37.2657 29.8589 37.2657C29.4839 37.2657 29.2964 37.1251 29.2964 36.7032C29.2496 34.6876 29.2027 32.0157 30.0933 30.1876C31.1714 27.7969 33.7964 27.0469 35.2964 24.9844C39.0464 19.8751 29.6246 16.4532 27.7027 22.7813C27.4214 23.7188 27.3746 23.7188 26.3902 23.5782C25.1714 23.4376 23.9527 23.2501 22.7339 23.1094C22.2652 23.0626 22.0777 22.8751 22.1246 22.4063C22.8746 14.4376 34.1246 12.1407 39.5621 16.9219C41.2027 18.3282 42.2808 20.4376 42.2808 22.5938C42.2339 26.0626 39.1871 28.3594 36.9371 30.4219Z" fill="#39D24E"/>
</svg>
