<svg width="30" height="30" viewBox="0 0 30 30" fill="none" xmlns="http://www.w3.org/2000/svg">
<g clip-path="url(#clip0_118_5694)">
<path d="M27.0019 0H2.99813C2.20404 0.00345368 1.44346 0.320436 0.881946 0.881946C0.320436 1.44346 0.00345368 2.20404 0 2.99813V27.0019C0.00345368 27.796 0.320436 28.5565 0.881946 29.1181C1.44346 29.6796 2.20404 29.9965 2.99813 30H27.0019C27.796 29.9965 28.5565 29.6796 29.1181 29.1181C29.6796 28.5565 29.9965 27.796 30 27.0019V2.99813C29.9965 2.20404 29.6796 1.44346 29.1181 0.881946C28.5565 0.320436 27.796 0.00345368 27.0019 0V0ZM8.80875 18.0806C9.1236 18.2244 9.46368 18.3046 9.80957 18.3169C10.1555 18.3291 10.5004 18.2731 10.8246 18.152C11.1488 18.0309 11.446 17.8471 11.6992 17.6111C11.9523 17.3751 12.1565 17.0915 12.3 16.7766H14.3756C13.0819 22.0744 5.28375 21.1369 5.28375 15.6825C5.28375 10.2234 13.0819 9.28594 14.3756 14.5884H12.3C11.5378 12.9141 9.33656 12.5128 8.03719 13.8169C6.73312 15.1153 7.13344 17.3175 8.80875 18.0797V18.0806ZM22.9884 19.1353C22.5956 19.4752 22.1459 19.7431 21.66 19.9266C20.9681 20.1942 20.2216 20.2904 19.4844 20.2072C18.7472 20.1239 18.0411 19.8636 17.4262 19.4484V19.9266H15.5363V6.71344H17.4113V11.85C18.0808 11.3973 18.8564 11.1263 19.6622 11.0634H19.9988C24.2663 11.0541 26.2294 16.3659 22.9875 19.1344L22.9884 19.1353ZM22.71 15.6788C22.7166 16.0282 22.6535 16.3755 22.5243 16.7002C22.3951 17.025 22.2025 17.3208 21.9577 17.5702C21.7129 17.8197 21.4209 18.0179 21.0986 18.1531C20.7763 18.2884 20.4303 18.3581 20.0808 18.3581C19.7313 18.3581 19.3853 18.2884 19.063 18.1531C18.7407 18.0179 18.4486 17.8197 18.2038 17.5702C17.959 17.3208 17.7664 17.025 17.6373 16.7002C17.5081 16.3755 17.445 16.0282 17.4516 15.6788C17.5247 12.2513 22.6322 12.2513 22.71 15.6788Z" fill="white"/>
</g>
<defs>
<clipPath id="clip0_118_5694">
<rect width="30" height="30" fill="white"/>
</clipPath>
</defs>
</svg>
