<svg width="66" height="66" viewBox="0 0 66 66" fill="none" xmlns="http://www.w3.org/2000/svg">
<path d="M33.4125 44.4125C34.925 44.4125 36.2202 44.0577 37.2982 43.3482C38.3762 42.6387 38.9143 41.5268 38.9125 40.0125C38.9125 38.6833 38.3515 37.6063 37.2295 36.7812C36.1075 35.9562 34.1018 35.0167 31.2125 33.9625C28.5083 33 26.5265 31.8542 25.267 30.525C24.0075 29.1958 23.3768 27.4542 23.375 25.3C23.375 23.4208 24.0286 21.714 25.3357 20.1795C26.6429 18.645 28.4185 17.6477 30.6625 17.1875V16.1562C30.6625 15.5146 30.9036 14.9536 31.3857 14.4733C31.8679 13.9929 32.4289 13.7518 33.0687 13.75C33.7104 13.75 34.2723 13.9911 34.7545 14.4733C35.2367 14.9554 35.4768 15.5164 35.475 16.1562V17.1875C36.8042 17.2792 38.0307 17.7265 39.1545 18.5295C40.2783 19.3325 41.1831 20.306 41.8687 21.45C42.1896 21.9542 42.2125 22.4932 41.9375 23.067C41.6625 23.6408 41.2042 24.0414 40.5625 24.2687C39.9667 24.4979 39.3708 24.5208 38.775 24.3375C38.1792 24.1542 37.6979 23.8104 37.3312 23.3063C36.8729 22.7563 36.3 22.3098 35.6125 21.967C34.925 21.6242 34.1 21.4518 33.1375 21.45C31.5333 21.45 30.3068 21.7938 29.458 22.4813C28.6092 23.1688 28.1857 24.1083 28.1875 25.3C28.1875 26.4917 28.7146 27.4313 29.7687 28.1188C30.8229 28.8063 32.725 29.6083 35.475 30.525C38.775 31.7167 40.975 33.1146 42.075 34.7188C43.175 36.3229 43.725 38.0875 43.725 40.0125C43.725 41.3417 43.4958 42.5104 43.0375 43.5187C42.5792 44.5271 41.9714 45.3869 41.2142 46.0983C40.4589 46.8078 39.5771 47.3797 38.5687 47.8142C37.5604 48.2487 36.4833 48.5815 35.3375 48.8125V49.8438C35.3375 50.4854 35.0973 51.0473 34.617 51.5295C34.1367 52.0117 33.5747 52.2518 32.9312 52.25C32.2896 52.25 31.7286 52.0098 31.2482 51.5295C30.7679 51.0492 30.5268 50.4873 30.525 49.8438V48.675C28.7833 48.3083 27.2937 47.6208 26.0562 46.6125C24.8187 45.6042 23.8333 44.3208 23.1 42.7625C22.825 42.1208 22.8369 41.5021 23.1357 40.9062C23.4346 40.3104 23.9039 39.8979 24.5437 39.6688C25.1396 39.4396 25.7354 39.4506 26.3312 39.7018C26.9271 39.9529 27.3854 40.3544 27.7062 40.9062C28.3479 42.0979 29.1619 42.9798 30.1482 43.5518C31.1346 44.1237 32.2227 44.4107 33.4125 44.4125ZM33 63.25C27.8667 63.25 23.1458 62.0812 18.8375 59.7438C14.5292 57.4062 11 54.2896 8.25 50.3938V55C8.25 55.7792 7.986 56.4327 7.458 56.9607C6.93 57.4887 6.27733 57.7518 5.5 57.75C4.72083 57.75 4.06817 57.486 3.542 56.958C3.01583 56.43 2.75183 55.7773 2.75 55V44C2.75 43.2208 3.014 42.5682 3.542 42.042C4.07 41.5158 4.72267 41.2518 5.5 41.25H16.5C17.2792 41.25 17.9327 41.514 18.4607 42.042C18.9887 42.57 19.2518 43.2227 19.25 44C19.25 44.7792 18.986 45.4327 18.458 45.9607C17.93 46.4887 17.2773 46.7518 16.5 46.75H12.4437C14.6437 50.05 17.5432 52.7083 21.142 54.725C24.7408 56.7417 28.6935 57.75 33 57.75C39.4625 57.75 45.0202 55.5958 49.6732 51.2875C54.3262 46.9792 56.9727 41.6854 57.6125 35.4062C57.7042 34.6729 58.025 34.0881 58.575 33.6518C59.125 33.2154 59.7667 32.9982 60.5 33C61.2792 33 61.9437 33.2411 62.4937 33.7232C63.0437 34.2054 63.2729 34.7893 63.1812 35.475C62.8604 39.3708 61.8521 43.0027 60.1562 46.3705C58.4604 49.7383 56.2604 52.6717 53.5562 55.1705C50.8521 57.6693 47.7473 59.6402 44.242 61.083C40.7367 62.5258 36.9893 63.2482 33 63.25ZM33 8.25C26.5375 8.25 20.9807 10.4042 16.3295 14.7125C11.6783 19.0208 9.031 24.3146 8.3875 30.5938C8.29583 31.3271 7.975 31.9119 7.425 32.3482C6.875 32.7846 6.23333 33.0018 5.5 33C4.72083 33 4.05625 32.7598 3.50625 32.2795C2.95625 31.7992 2.72708 31.2143 2.81875 30.525C3.13958 26.6292 4.14792 22.9973 5.84375 19.6295C7.53958 16.2617 9.73958 13.3283 12.4437 10.8295C15.1479 8.33067 18.2536 6.35983 21.7607 4.917C25.2679 3.47417 29.0143 2.75183 33 2.75C38.1333 2.75 42.8542 3.91875 47.1625 6.25625C51.4708 8.59375 55 11.7104 57.75 15.6063V11C57.75 10.2208 58.014 9.56817 58.542 9.042C59.07 8.51583 59.7227 8.25183 60.5 8.25C61.2792 8.25 61.9327 8.514 62.4607 9.042C62.9887 9.57 63.2518 10.2227 63.25 11V22C63.25 22.7792 62.986 23.4328 62.458 23.9608C61.93 24.4888 61.2773 24.7518 60.5 24.75H49.5C48.7208 24.75 48.0682 24.486 47.542 23.958C47.0158 23.43 46.7518 22.7773 46.75 22C46.75 21.2208 47.014 20.5682 47.542 20.042C48.07 19.5158 48.7227 19.2518 49.5 19.25H53.5562C51.3562 15.95 48.4577 13.2917 44.8607 11.275C41.2637 9.25833 37.3102 8.25 33 8.25Z" fill="#39D24E"/>
</svg>
