<svg width="60" height="60" viewBox="0 0 60 60" fill="none" xmlns="http://www.w3.org/2000/svg">
<path d="M10 22.3075H50V13.4625C50 13.0775 49.84 12.725 49.52 12.405C49.1983 12.0833 48.8458 11.9225 48.4625 11.9225H11.5375C11.1542 11.9225 10.8017 12.0833 10.48 12.405C10.16 12.725 10 13.0775 10 13.4625V22.3075ZM10 35.1925H50V24.8075H10V35.1925ZM11.5375 48.0775H48.4625C48.8458 48.0775 49.1983 47.9167 49.52 47.595C49.84 47.275 50 46.9225 50 46.5375V37.6925H10V46.5375C10 46.9225 10.16 47.275 10.48 47.595C10.8017 47.9167 11.1542 48.0775 11.5375 48.0775ZM14.425 19.135V15.095H18.465V19.135H14.425ZM14.425 32.02V27.98H18.465V32.02H14.425ZM14.425 44.905V40.865H18.465V44.905H14.425Z" fill="#39D24E"/>
</svg>
