<svg width="30" height="30" viewBox="0 0 30 30" fill="none" xmlns="http://www.w3.org/2000/svg">
<g clip-path="url(#clip0_118_5700)">
<path d="M25.3962 5.61497C23.4837 4.75247 21.4337 4.11497 19.29 3.75247C19.2709 3.7488 19.2511 3.75116 19.2334 3.75923C19.2157 3.76729 19.201 3.78065 19.1912 3.79747C18.9287 4.25872 18.6362 4.85997 18.4312 5.33497C16.1576 4.99526 13.8461 4.99526 11.5725 5.33497C11.3442 4.80854 11.0867 4.29525 10.8012 3.79747C10.7916 3.78045 10.7769 3.76678 10.7593 3.75829C10.7416 3.74981 10.7218 3.7469 10.7025 3.74997C8.55999 4.11247 6.50999 4.74997 4.59624 5.61372C4.57978 5.62062 4.56582 5.6324 4.55624 5.64747C0.66624 11.3662 -0.40001 16.9437 0.12374 22.4512C0.125198 22.4647 0.129385 22.4778 0.136047 22.4896C0.142708 22.5014 0.151705 22.5117 0.16249 22.52C2.43298 24.173 4.96541 25.4322 7.65374 26.245C7.67248 26.2507 7.69253 26.2507 7.71126 26.2449C7.72999 26.2391 7.74654 26.2278 7.75874 26.2125C8.33723 25.4388 8.84986 24.618 9.29124 23.7587C9.29737 23.747 9.3009 23.734 9.30159 23.7208C9.30229 23.7076 9.30013 23.6944 9.29527 23.682C9.29042 23.6697 9.28296 23.6586 9.27343 23.6494C9.26389 23.6402 9.25249 23.6331 9.23999 23.6287C8.4325 23.3246 7.6501 22.9577 6.89999 22.5312C6.88651 22.5235 6.87515 22.5126 6.86694 22.4994C6.85872 22.4863 6.8539 22.4713 6.85291 22.4558C6.85192 22.4403 6.85478 22.4248 6.86126 22.4107C6.86773 22.3966 6.8776 22.3843 6.88999 22.375C7.04749 22.2587 7.20499 22.1375 7.35499 22.0162C7.36849 22.0053 7.38476 21.9984 7.40197 21.9962C7.41919 21.994 7.43667 21.9966 7.45249 22.0037C12.3612 24.2087 17.6775 24.2087 22.5287 22.0037C22.5446 21.9961 22.5623 21.9932 22.5797 21.9952C22.5972 21.9972 22.6137 22.004 22.6275 22.015C22.7775 22.1375 22.9337 22.2587 23.0925 22.375C23.105 22.3841 23.115 22.3962 23.1217 22.4102C23.1284 22.4242 23.1315 22.4396 23.1308 22.4551C23.13 22.4706 23.1254 22.4856 23.1175 22.4989C23.1095 22.5122 23.0983 22.5233 23.085 22.5312C22.3375 22.9612 21.56 23.325 20.7437 23.6275C20.7312 23.632 20.7198 23.6392 20.7102 23.6485C20.7007 23.6578 20.6933 23.6691 20.6884 23.6815C20.6836 23.6939 20.6814 23.7072 20.6821 23.7205C20.6828 23.7339 20.6864 23.7469 20.6925 23.7587C21.1425 24.6175 21.6575 25.435 22.2237 26.2112C22.2355 26.2271 22.2519 26.2391 22.2707 26.2453C22.2895 26.2516 22.3098 26.2519 22.3287 26.2462C25.0217 25.4358 27.5582 24.1759 29.8312 22.52C29.8423 22.5122 29.8516 22.5022 29.8585 22.4905C29.8654 22.4789 29.8698 22.4659 29.8712 22.4525C30.4962 16.085 28.8237 10.5525 25.435 5.64997C25.4267 5.63404 25.4129 5.62162 25.3962 5.61497ZM10.025 19.0975C8.54749 19.0975 7.32874 17.7612 7.32874 16.1225C7.32874 14.4825 8.52374 13.1475 10.025 13.1475C11.5375 13.1475 12.745 14.4937 12.7212 16.1225C12.7212 17.7625 11.5262 19.0975 10.025 19.0975ZM19.9937 19.0975C18.515 19.0975 17.2975 17.7612 17.2975 16.1225C17.2975 14.4825 18.4912 13.1475 19.9937 13.1475C21.5062 13.1475 22.7137 14.4937 22.69 16.1225C22.69 17.7625 21.5075 19.0975 19.9937 19.0975Z" fill="white"/>
</g>
<defs>
<clipPath id="clip0_118_5700">
<rect width="30" height="30" fill="white"/>
</clipPath>
</defs>
</svg>
