<svg width="60" height="60" viewBox="0 0 60 60" fill="none" xmlns="http://www.w3.org/2000/svg">
<g clip-path="url(#clip0_115_5472)">
<path d="M30.72 19.77H26.4325V28.22H33.175V31.7575H26.4325V40.2075H30.93C32.085 40.2075 40.415 40.3375 40.4025 30.375C40.39 20.415 32.3225 19.77 30.72 19.77ZM30 0C13.4325 0 0 13.4325 0 30C0 46.5675 13.4325 60 30 60C46.5675 60 60 46.5675 60 30C60 13.4325 46.5675 0 30 0ZM31.18 46.2025H20.315V31.7575H16.485V28.22H20.315V13.7775H29.64C31.845 13.7775 46.4575 13.32 46.4575 30.2625C46.455 47.4825 31.18 46.2025 31.18 46.2025Z" fill="#A7BED3"/>
</g>
<defs>
<clipPath id="clip0_115_5472">
<rect width="60" height="60" fill="white"/>
</clipPath>
</defs>
</svg>
