<svg width="60" height="60" viewBox="0 0 60 60" fill="none" xmlns="http://www.w3.org/2000/svg">
<g clip-path="url(#clip0_115_5464)">
<path d="M41.56 34.8L48.355 41.59L29.9725 59.9725L11.59 41.5925L18.3825 34.8L29.9725 46.45L41.56 34.8ZM53.1525 23.21L60 30L53.2125 36.79L46.42 30L53.1525 23.21ZM29.9725 23.21L36.7625 29.94L29.97 36.7325L23.18 30L29.9725 23.21ZM6.79 23.21L13.525 30L6.795 36.73L0 30L6.79 23.21ZM29.975 0.0300293L48.35 18.35L41.5575 25.1375L29.975 13.55L18.385 25.2L11.5925 18.41L29.975 0.0300293Z" fill="#A7BED3"/>
</g>
<defs>
<clipPath id="clip0_115_5464">
<rect width="60" height="60" fill="white"/>
</clipPath>
</defs>
</svg>
