<svg width="60" height="60" viewBox="0 0 60 60" fill="none" xmlns="http://www.w3.org/2000/svg">
<path d="M11.25 6.3125V5C11.25 4.66848 11.1183 4.35054 10.8839 4.11612C10.6495 3.8817 10.3315 3.75 10 3.75H5C4.66848 3.75 4.35054 3.8817 4.11612 4.11612C3.8817 4.35054 3.75 4.66848 3.75 5V55C3.75 55.3315 3.8817 55.6495 4.11612 55.8839C4.35054 56.1183 4.66848 56.25 5 56.25H10C10.3315 56.25 10.6495 56.1183 10.8839 55.8839C11.1183 55.6495 11.25 55.3315 11.25 55V6.3125ZM55.525 7.6125C55.3102 7.51329 55.0717 7.47707 54.8371 7.50805C54.6026 7.53902 54.3817 7.63593 54.2 7.7875C47.2875 13.55 40.3375 10.6625 32.95 7.6C26.7125 5 20.275 2.3375 13.75 5V39C19.7 36.0125 25.7125 38.5 32.025 41.125C36.45 42.975 40.95 44.875 45.525 44.875C49.3126 44.8679 52.9669 43.4764 55.8 40.9625C55.9411 40.845 56.0546 40.6978 56.1324 40.5314C56.2101 40.3651 56.2503 40.1836 56.25 40V8.75C56.2506 8.51092 56.1826 8.27668 56.0541 8.07506C55.9256 7.87345 55.742 7.71291 55.525 7.6125Z" fill="#39D24E"/>
</svg>
