<svg width="30" height="29" viewBox="0 0 30 29" fill="none" xmlns="http://www.w3.org/2000/svg">
<g opacity="0.6" clip-path="url(#clip0_17_31)">
<path d="M15.1757 28.8177C8.62109 28.8005 2.90992 24.7713 1.04688 18.7616C-0.509101 13.7258 0.499678 9.12294 3.9994 5.10047C6.15081 2.62856 8.9252 1.11343 12.1868 0.465046C14.0112 0.102947 15.8905 0.0879863 17.7208 0.420991C17.9255 0.457384 17.9274 0.511017 17.8477 0.671916C16.9475 2.49544 16.0516 4.32151 15.1599 6.15014C15.1378 6.20733 15.0969 6.25575 15.0434 6.28782C14.99 6.31988 14.9271 6.33378 14.8647 6.32732C12.9893 6.37398 11.1839 7.02964 9.73558 8.18998C8.28729 9.35031 7.27938 10.9487 6.87221 12.7307C5.97366 16.6258 8.13884 20.655 11.9594 22.083C14.9917 23.216 17.8133 22.7649 20.38 20.8283C20.5109 20.7326 20.565 20.7134 20.6585 20.8714C21.6427 22.5475 22.6354 24.2203 23.6366 25.89C23.7242 26.0365 23.6927 26.1026 23.5628 26.1907C21.6295 27.5217 19.3931 28.3762 17.0456 28.6808C16.4252 28.7586 15.8011 28.8044 15.1757 28.8177Z" fill="#39D24E"/>
<path d="M25.3579 24.6707C25.2772 24.6286 25.2546 24.5424 25.2133 24.4725C24.0939 22.5889 22.9785 20.7035 21.8671 18.8161C21.8293 18.7388 21.7676 18.6749 21.6907 18.6333C21.6137 18.5918 21.5254 18.5746 21.438 18.5843C19.2157 18.591 16.9944 18.5843 14.7722 18.5843H14.4956C14.4936 18.5013 14.5246 18.4206 14.5822 18.3593C15.7107 16.4515 16.8399 14.5437 17.9697 12.6359C17.9997 12.5728 18.0493 12.5204 18.1114 12.486C18.1735 12.4517 18.2451 12.4371 18.3162 12.4443C20.5909 12.4501 22.865 12.4501 25.1385 12.4443C25.2091 12.4371 25.2803 12.4518 25.342 12.4861C25.4036 12.5205 25.4526 12.5729 25.4819 12.6359C26.6164 14.5596 27.756 16.4808 28.901 18.3995C28.9392 18.4487 28.9607 18.5082 28.9625 18.5699C28.9643 18.6315 28.9462 18.6921 28.9108 18.7433C27.7606 20.676 26.6147 22.6068 25.4731 24.5357C25.4426 24.5845 25.4288 24.6516 25.3579 24.6707Z" fill="#39D24E"/>
<path d="M20.567 4.41079C20.1596 4.01429 19.7797 3.63503 19.386 3.26151C19.264 3.14658 19.3496 3.06134 19.4017 2.97419C19.8522 2.21086 20.5857 1.64411 21.4518 1.3901C21.9766 1.22155 22.5319 1.16175 23.0819 1.21453C23.6319 1.26731 24.1645 1.43151 24.6454 1.69658C26.4169 2.62845 26.2585 4.79005 25.2359 5.76694C24.8483 6.13021 24.4091 6.43757 23.9319 6.67966C23.4398 6.93441 22.9477 7.1748 22.4655 7.44584C22.0649 7.66899 21.7529 7.97738 21.6083 8.42368C21.5492 8.60374 21.5846 8.65067 21.7825 8.64875C23.0835 8.64109 24.3856 8.64875 25.6877 8.64109C25.8845 8.64109 25.9583 8.67748 25.9504 8.88627C25.9327 9.33353 25.9396 9.78175 25.9504 10.2271C25.9504 10.3688 25.9101 10.4186 25.7605 10.4186C23.6681 10.4148 21.5764 10.4148 19.4854 10.4186C19.387 10.4186 19.2954 10.4186 19.2945 10.2798C19.2945 8.86999 19.5622 7.55694 20.6959 6.55132C21.236 6.08592 21.8423 5.69883 22.496 5.40204C22.8542 5.23156 23.2164 5.06875 23.5294 4.82165C23.803 4.60521 23.9919 4.34279 24.0116 3.98843C24.0411 3.4339 23.5904 3.02208 22.9093 2.97898C21.9301 2.91098 21.2234 3.34004 20.7294 4.13688C20.6802 4.21541 20.6349 4.29586 20.567 4.41079Z" fill="#39D24E"/>
<path d="M25.5568 26.6781V26.2175H25.3875V26.1217H25.8412V26.2175H25.6699V26.6781H25.5568ZM25.914 26.6781V26.1236H26.0862L26.1847 26.5019L26.2831 26.1236H26.4563V26.6781H26.3589V26.2414L26.2457 26.6781H26.1345L26.0223 26.2414V26.6781H25.914Z" fill="#39D24E"/>
</g>
<defs>
<clipPath id="clip0_17_31">
<rect width="29" height="29" fill="white" transform="translate(0.149719 -0.000244141)"/>
</clipPath>
</defs>
</svg>
