<svg width="20" height="20" viewBox="0 0 20 20" fill="none" xmlns="http://www.w3.org/2000/svg">
<g clip-path="url(#clip0_571_2038)">
<path fill-rule="evenodd" clip-rule="evenodd" d="M9.99992 4.58334C8.98231 4.58357 7.98535 4.87044 7.12325 5.4111C6.26115 5.95175 5.56878 6.72432 5.12547 7.64029C4.68216 8.55626 4.50584 9.57858 4.6167 10.5901C4.72756 11.6017 5.12113 12.5615 5.75231 13.3598C6.3835 14.158 7.22676 14.7622 8.1855 15.1033C9.14424 15.4444 10.1797 15.5085 11.1732 15.2884C12.1667 15.0682 13.0781 14.5726 13.8029 13.8583C14.5278 13.1441 15.0368 12.2402 15.2716 11.25H10.8333C10.5017 11.25 10.1838 11.1183 9.94937 10.8839C9.71495 10.6495 9.58325 10.3315 9.58325 10C9.58325 9.66849 9.71495 9.35055 9.94937 9.11613C10.1838 8.88171 10.5017 8.75001 10.8333 8.75001H16.6666C16.9981 8.75001 17.316 8.88171 17.5505 9.11613C17.7849 9.35055 17.9166 9.66849 17.9166 10C17.9166 11.8306 17.2822 13.6047 16.1213 15.0202C14.9604 16.4357 13.3449 17.4051 11.5497 17.7635C9.75451 18.1218 7.89058 17.847 6.27523 16.9857C4.65987 16.1244 3.39292 14.7299 2.69005 13.0396C1.98717 11.3493 1.89181 9.46764 2.4202 7.71493C2.94859 5.96222 4.06807 4.4468 5.58808 3.42661C7.10809 2.40643 8.93468 1.94455 10.7569 2.1196C12.5792 2.29465 14.2844 3.0958 15.5824 4.38668C15.6988 4.50246 15.7912 4.64003 15.8545 4.79154C15.9177 4.94304 15.9504 5.10552 15.9509 5.26969C15.9513 5.43385 15.9194 5.59649 15.8569 5.74833C15.7945 5.90016 15.7028 6.03821 15.587 6.15459C15.4712 6.27098 15.3336 6.36342 15.1821 6.42663C15.0306 6.48985 14.8682 6.52261 14.704 6.52303C14.3724 6.52389 14.0541 6.39301 13.8191 6.15918C13.3172 5.65851 12.7216 5.26164 12.0663 4.99125C11.411 4.72086 10.7088 4.58225 9.99992 4.58334Z" fill="#0C1220"/>
</g>
<defs>
<clipPath id="clip0_571_2038">
<rect width="20" height="20" fill="white"/>
</clipPath>
</defs>
</svg>
