<svg width="10" height="10" viewBox="0 0 10 10" fill="none" xmlns="http://www.w3.org/2000/svg">
<path fill-rule="evenodd" clip-rule="evenodd" d="M8.43042 2.14377C8.47718 2.18385 8.51559 2.23275 8.54344 2.28768C8.5713 2.34261 8.58806 2.40249 8.59276 2.4639C8.59746 2.52531 8.59001 2.58705 8.57084 2.64558C8.55168 2.70411 8.52116 2.75829 8.48104 2.80502L4.73104 7.18002C4.689 7.22907 4.63727 7.2689 4.5791 7.29701C4.52093 7.32512 4.45758 7.3409 4.39303 7.34336C4.32847 7.34583 4.2641 7.33492 4.20396 7.31133C4.14382 7.28774 4.0892 7.25197 4.04354 7.20627L1.85604 5.01877C1.7707 4.93032 1.7235 4.81189 1.72463 4.68899C1.72575 4.56608 1.77511 4.44854 1.86206 4.36167C1.94901 4.2748 2.0666 4.22555 2.18951 4.22454C2.31241 4.22353 2.4308 4.27084 2.51917 4.35627L4.34917 6.18564L7.76979 2.19502C7.85072 2.10076 7.96576 2.04248 8.08963 2.03299C8.2135 2.0235 8.33607 2.06294 8.43042 2.14377Z" fill="white"/>
</svg>
