<svg width="68" height="68" viewBox="0 0 68 68" fill="none" xmlns="http://www.w3.org/2000/svg">
<path d="M31.1122 9.22699C24.5422 13.087 17.5422 15.327 10.2822 15.917C11.2822 37.467 18.2222 51.297 30.9222 57.027C31.6722 56.627 32.4022 56.207 33.1122 55.757C32.6822 54.267 32.4522 52.677 32.4522 51.047C32.4522 41.717 39.9122 34.087 49.1822 33.827C49.6222 32.367 50.0222 30.847 50.3722 29.257C51.1022 25.537 51.5322 22.967 51.7322 20.947C51.9222 19.277 52.0722 17.537 52.1822 15.747C44.2322 15.027 37.1522 12.837 31.1122 9.22699ZM35.1722 37.657C35.2622 38.097 34.9222 38.517 34.4722 38.517H28.0022C27.5522 38.517 27.2122 38.097 27.3022 37.657L28.4322 32.087C27.1722 31.217 26.3522 29.757 26.3522 28.097C26.3522 25.397 28.5422 23.207 31.2522 23.217C33.9322 23.217 36.2622 25.687 36.1122 28.357C36.0322 29.907 35.2422 31.257 34.0422 32.087L35.1722 37.657Z" fill="#39D24E"/>
<path d="M56.5617 9.39695C54.7817 9.31699 53.0517 9.16697 51.3817 8.947C48.8617 8.64695 46.1417 8.02696 43.2717 7.18699C39.4017 5.98698 35.9117 4.32694 32.7817 2.24699C31.8117 1.59697 30.5317 1.567 29.5517 2.197C22.2217 6.88694 14.3917 9.36698 6.03171 9.507C4.37168 9.53697 3.05167 10.8969 3.09171 12.557C3.74167 39.987 12.6317 57.257 29.9917 64.057C30.7417 64.357 31.6017 64.317 32.3217 63.967C33.6717 63.307 34.9817 62.597 36.2617 61.817C35.2517 60.5769 34.4117 59.187 33.7917 57.687C33.0217 58.157 32.2317 58.597 31.4217 59.017C31.3717 59.047 31.3317 59.067 31.2817 59.077C31.1717 59.117 31.0617 59.127 30.9617 59.127C30.8017 59.127 30.6417 59.097 30.5017 59.027C16.6317 53.027 9.12169 38.207 8.24168 15.017C8.22172 14.477 8.6417 14.017 9.18168 13.987C16.6617 13.537 23.8717 11.257 30.6017 7.20696C30.9217 7.01696 31.3217 7.01696 31.6417 7.21697C37.7717 10.987 45.0517 13.217 53.3117 13.8269C53.8517 13.877 54.2617 14.337 54.2317 14.877C54.1217 17.047 53.9517 19.167 53.7217 21.167C53.5117 23.237 53.0817 25.867 52.3217 29.667C52.0017 31.127 51.6417 32.537 51.2417 33.8869C52.9117 34.037 54.5217 34.427 56.0217 35.037C56.4817 33.477 56.9017 31.847 57.2817 30.147C59.0517 21.217 58.9317 19.357 59.3917 12.997C59.4017 12.817 59.4017 12.647 59.4117 12.467C59.4717 10.8369 58.1917 9.46696 56.5617 9.39695Z" fill="#39D24E"/>
<path d="M49.6825 35.8172C41.2749 35.8172 34.4561 42.6361 34.4561 51.0436C34.4561 59.4396 41.2749 66.2585 49.6825 66.2585C58.0901 66.2585 64.9089 59.4396 64.9089 51.0436C64.9089 42.6498 58.103 35.8172 49.6825 35.8172ZM55.2759 48.2671L48.3189 55.2227C48.1235 55.418 47.8677 55.5156 47.6118 55.5156C47.356 55.5156 47.1001 55.418 46.9048 55.2227L44.0894 52.4077C43.6987 52.0176 43.6987 51.3843 44.0894 50.9937C44.48 50.603 45.1128 50.603 45.5034 50.9937L47.6118 53.1016L53.8618 46.853C54.2525 46.4624 54.8853 46.4624 55.2759 46.853C55.6665 47.2437 55.6665 47.877 55.2759 48.2671Z" fill="#39D24E"/>
</svg>
