<svg width="15" height="15" viewBox="0 0 15 15" fill="none" xmlns="http://www.w3.org/2000/svg">
<path fill-rule="evenodd" clip-rule="evenodd" d="M12.6449 3.21559C12.715 3.27571 12.7727 3.34906 12.8144 3.43146C12.8562 3.51385 12.8814 3.60368 12.8884 3.69579C12.8955 3.78791 12.8843 3.88051 12.8555 3.9683C12.8268 4.0561 12.781 4.13737 12.7208 4.20747L7.09583 10.77C7.03276 10.8435 6.95517 10.9033 6.86792 10.9455C6.78067 10.9876 6.68564 11.0113 6.58881 11.015C6.49197 11.0187 6.39542 11.0023 6.30521 10.9669C6.215 10.9315 6.13307 10.8779 6.06458 10.8093L2.78333 7.52809C2.65531 7.39542 2.58452 7.21777 2.58621 7.03342C2.5879 6.84906 2.66193 6.67274 2.79236 6.54244C2.92278 6.41213 3.09917 6.33827 3.28353 6.33676C3.46789 6.33524 3.64547 6.4062 3.77802 6.53434L6.52302 9.2784L11.654 3.29247C11.7753 3.15108 11.9479 3.06366 12.1337 3.04942C12.3195 3.03518 12.5034 3.09435 12.6449 3.21559Z" fill="#0C1220"/>
</svg>
