<svg width="22" height="22" viewBox="0 0 22 22" fill="none" xmlns="http://www.w3.org/2000/svg">
<path d="M15.5834 8.25001V6.41668C15.5834 3.85001 13.5667 1.83334 11.0001 1.83334C8.43341 1.83334 6.41675 3.85001 6.41675 6.41668V8.25001C4.85841 8.25001 3.66675 9.44168 3.66675 11V17.4167C3.66675 18.975 4.85841 20.1667 6.41675 20.1667H15.5834C17.1417 20.1667 18.3334 18.975 18.3334 17.4167V11C18.3334 9.44168 17.1417 8.25001 15.5834 8.25001ZM8.25008 6.41668C8.25008 4.85834 9.44175 3.66668 11.0001 3.66668C12.5584 3.66668 13.7501 4.85834 13.7501 6.41668V8.25001H8.25008V6.41668Z" fill="#3C4B6D"/>
</svg>
