<svg width="22" height="22" viewBox="0 0 22 22" fill="none" xmlns="http://www.w3.org/2000/svg">
<path d="M9.70302 9.70474C9.35925 10.0486 9.16617 10.515 9.16626 11.0012C9.16635 11.4875 9.35959 11.9538 9.70347 12.2975C10.0474 12.6413 10.5137 12.8344 11 12.8343C11.4862 12.8342 11.9525 12.641 12.2963 12.2971" stroke="#3C4B6D" stroke-width="2" stroke-linecap="round" stroke-linejoin="round"/>
<path d="M15.2909 15.2836C14.0051 16.0881 12.5168 16.51 11 16.5C7.7 16.5 4.95 14.6667 2.75 11C3.916 9.05667 5.236 7.6285 6.71 6.7155M9.33167 5.665C9.88078 5.55384 10.4397 5.49856 11 5.5C14.3 5.5 17.05 7.33333 19.25 11C18.6395 12.0175 17.9859 12.8948 17.2902 13.6308M2.75 2.75L19.25 19.25" stroke="#3C4B6D" stroke-width="2" stroke-linecap="round" stroke-linejoin="round"/>
</svg>
