<svg width="60" height="60" viewBox="0 0 60 60" fill="none" xmlns="http://www.w3.org/2000/svg">
<path d="M1.5 30.1071C1.5 14.3076 14.3076 1.5 30.1071 1.5C45.9066 1.5 58.7143 14.3076 58.7143 30.1071C58.7143 45.9066 45.9066 58.7143 30.1071 58.7143C14.3076 58.7143 1.5 45.9066 1.5 30.1071Z" fill="#A7BED3"/>
<path d="M34.5416 11.0357C32.8361 15.463 31.1305 20.2309 29.0838 24.9987C29.0838 24.9987 29.0838 25.6798 29.766 25.6798H43.7517C43.7517 25.6798 43.7517 26.0204 44.0929 26.361L23.626 49.1786C23.2848 48.838 23.2848 48.4974 23.2848 48.1569L30.4483 32.8316V31.4694H16.1214V30.1071L33.5183 11.0357H34.5416Z" fill="#0C1220"/>
</svg>
