<svg width="60" height="60" viewBox="0 0 60 60" fill="none" xmlns="http://www.w3.org/2000/svg">
<g clip-path="url(#clip0_115_5479)">
<path d="M30 0C24.0666 0 18.2664 1.75947 13.3329 5.05591C8.39943 8.35235 4.55426 13.0377 2.28363 18.5195C0.0129986 24.0013 -0.581102 30.0333 0.576455 35.8527C1.73401 41.6721 4.59123 47.0176 8.78681 51.2132C12.9824 55.4088 18.3279 58.266 24.1473 59.4236C29.9667 60.5811 35.9987 59.987 41.4805 57.7164C46.9623 55.4458 51.6477 51.6006 54.9441 46.6671C58.2405 41.7336 60 35.9334 60 30C60 22.0435 56.8393 14.4129 51.2132 8.7868C45.5871 3.16071 37.9565 0 30 0ZM29.345 9.195H35.805C35.9372 9.19517 36.0675 9.22587 36.1858 9.28472C36.3041 9.34356 36.4072 9.42896 36.4871 9.53424C36.567 9.63952 36.6214 9.76183 36.6462 9.89163C36.671 10.0214 36.6655 10.1552 36.63 10.2825L31.555 27.5775L36.3175 26.1225L35.2975 29.585L30.4875 30.985L27.3675 41.52H44.0575C44.1898 41.5207 44.3201 41.552 44.4383 41.6115C44.5564 41.6709 44.6593 41.7569 44.7387 41.8627C44.8181 41.9685 44.8719 42.0913 44.896 42.2213C44.9201 42.3514 44.9138 42.4853 44.8775 42.6125L43.4225 47.6125C43.3529 47.8504 43.208 48.0593 43.0098 48.208C42.8115 48.3567 42.5704 48.4372 42.3225 48.4375H16.8325L21.14 33.8825L16.375 35.3325L17.425 31.93L22.2 30.48L28.255 10.03C28.3214 9.79087 28.464 9.57994 28.6612 9.42924C28.8584 9.27854 29.0993 9.19629 29.3475 9.195" fill="#A7BED3"/>
</g>
<defs>
<clipPath id="clip0_115_5479">
<rect width="60" height="60" fill="white"/>
</clipPath>
</defs>
</svg>
