<svg width="30" height="30" viewBox="0 0 30 30" fill="none" xmlns="http://www.w3.org/2000/svg">
<path d="M5.465 9.08C5.48032 8.92783 5.4598 8.77419 5.40511 8.63137C5.35041 8.48855 5.26304 8.36051 5.15 8.2575L2.815 5.42375V5H10.0625L15.665 17.3812L20.59 5H27.5V5.42375L25.5037 7.35C25.4192 7.41531 25.3539 7.50237 25.3149 7.60188C25.276 7.70139 25.2648 7.80962 25.2825 7.915V22.0825C25.2648 22.1879 25.276 22.2961 25.3149 22.3956C25.3539 22.4951 25.4192 22.5822 25.5037 22.6475L27.4537 24.575V25H17.6488V24.5762L19.6687 22.6012C19.8675 22.4012 19.8675 22.3425 19.8675 22.0375V10.585L14.2525 24.9525H13.495L6.9575 10.585V20.215C6.90375 20.6188 7.0375 21.0275 7.32 21.32L9.94625 24.53V24.9525H2.5V24.53L5.125 21.32C5.26389 21.1751 5.36697 20.9997 5.426 20.8078C5.48504 20.6159 5.49839 20.4129 5.465 20.215V9.08Z" fill="white"/>
</svg>
