<svg width="60" height="60" viewBox="0 0 60 60" fill="none" xmlns="http://www.w3.org/2000/svg">
<path d="M25.7463 29.6732H4.54028C2.7761 29.6732 1.34326 28.2403 1.34326 26.4762C1.34291 26.0562 1.42536 25.6403 1.5859 25.2523C1.74644 24.8643 1.98192 24.5117 2.27886 24.2147C2.5758 23.9178 2.92838 23.6823 3.31642 23.5218C3.70445 23.3612 4.12034 23.2788 4.54028 23.2792H22.191L25.7463 29.6732ZM58.6567 26.4762C58.6567 28.2538 57.206 29.6732 55.4597 29.6732H34.5492C34.938 28.9365 35.1382 28.115 35.132 27.2821C35.1257 26.4492 34.9132 25.6308 34.5134 24.9L33.6089 23.2792H55.4597C57.2239 23.2792 58.6567 24.712 58.6567 26.4762ZM32.9462 25.7687L23.6865 9.11199C22.8439 7.56273 20.8692 7.01109 19.3343 7.86721C17.794 8.71796 17.2388 10.6702 18.0985 12.2194L27.3492 28.8672C28.1525 30.3932 30.1513 30.986 31.6925 30.1299C33.2149 29.3311 33.8077 27.3323 32.9462 25.7687ZM30.3403 27.2678C30.1556 27.4192 29.9188 27.4916 29.6811 27.4695C29.4434 27.4474 29.224 27.3324 29.0704 27.1496C28.9952 27.06 28.9385 26.9563 28.9036 26.8446C28.8687 26.7329 28.8563 26.6154 28.8671 26.4989C28.8779 26.3824 28.9118 26.2691 28.9667 26.1658C29.0215 26.0624 29.0964 25.971 29.1868 25.8968L29.2065 25.8815C29.2973 25.805 29.4024 25.7472 29.5157 25.7116C29.629 25.676 29.7483 25.6633 29.8665 25.6743C29.9848 25.6852 30.0997 25.7195 30.2045 25.7753C30.3094 25.8311 30.4021 25.9071 30.4773 25.9991C30.5524 26.091 30.6086 26.1969 30.6424 26.3108C30.6763 26.4246 30.6871 26.544 30.6744 26.6621C30.6616 26.7802 30.6255 26.8945 30.5682 26.9985C30.5108 27.1025 30.4333 27.194 30.3403 27.2678ZM32.9462 31.4642C32.12 32.0189 31.1474 32.315 30.1522 32.315C29.1571 32.315 28.1844 32.0189 27.3582 31.4642H5.74923L9.84177 50.3418C10.1373 51.6135 11.2836 52.5359 12.5731 52.5359H47.4268C48.7164 52.5359 49.8627 51.6135 50.1582 50.3329L54.2507 31.4642H32.9462ZM15.8704 49.0021L13.4077 35.1081L15.1701 34.7947L17.6337 48.6896L15.8704 49.0021ZM22.4839 48.9251L21.2516 35.0302L23.0355 34.8726L24.2686 48.7666L22.4839 48.9251ZM30.8955 48.8463H29.1045V34.9514H30.8955V48.8463ZM37.5152 48.9251L35.7313 48.7666L36.9627 34.8726L38.7465 35.0302L37.5152 48.9251ZM44.1286 49.0021L42.3654 48.6887L44.8289 34.7947L46.5931 35.1081L44.1286 49.0021Z" fill="#39D24E"/>
</svg>
