<svg width="60" height="60" viewBox="0 0 60 60" fill="none" xmlns="http://www.w3.org/2000/svg">
<path d="M29.685 54.95C29.785 54.99 29.895 55 30.005 55C30.115 55 30.215 54.98 30.325 54.95C40.955 51.38 48.375 40.13 48.375 27.6V10.93C48.375 10.62 48.235 10.33 47.985 10.14C47.745 9.94995 47.425 9.88995 47.125 9.95996C47.015 9.98999 36.275 12.61 30.805 5.39996C30.615 5.14996 30.315 5 30.005 5C29.695 5 29.395 5.14996 29.205 5.39996C23.725 12.61 12.975 9.98999 12.875 9.95996C12.575 9.88995 12.255 9.94995 12.015 10.14C11.765 10.33 11.625 10.62 11.625 10.93V27.6C11.625 33.78 13.345 39.66 16.605 44.62C19.895 49.61 24.415 53.18 29.685 54.95ZM29.995 20.63C33.175 20.63 35.755 23.21 35.755 26.38C35.755 28.26 34.835 29.99 33.315 31.06L34.185 35.17C34.255 35.46 34.175 35.77 33.985 36.01C33.795 36.24 33.515 36.38 33.215 36.38H26.785C26.485 36.38 26.195 36.24 26.005 36.01C25.815 35.77 25.745 35.46 25.805 35.17L26.685 31.06C25.165 29.99 24.245 28.26 24.245 26.38C24.245 23.21 26.825 20.63 29.995 20.63Z" fill="#39D24E"/>
</svg>
