<svg width="70" height="70" viewBox="0 0 70 70" fill="none" xmlns="http://www.w3.org/2000/svg">
<path d="M65.1568 21.8853L58.6004 28.4416L52.0434 21.8853H57.2332V19.6882C57.2332 16.61 54.7292 14.106 51.651 14.106H45.0209V11.3716H51.651C56.2366 11.3716 59.9676 15.1026 59.9676 19.6882V21.8853H65.1568ZM58.891 37.126C55.7854 34.0204 51.6565 32.3101 47.2644 32.3101C42.8723 32.3101 38.7434 34.0204 35.6378 37.126C32.533 40.2315 30.8226 44.3605 30.8226 48.7519C30.8226 53.1439 32.533 57.2729 35.6378 60.3784C38.7434 63.484 42.8723 65.1943 47.2644 65.1943C51.6565 65.1943 55.7854 63.484 58.891 60.3784C61.9965 57.2729 63.7069 53.1439 63.7069 48.7519C63.7069 44.3605 61.9965 40.2315 58.891 37.126ZM53.9349 45.461C53.9349 46.7783 53.3416 47.9596 52.4084 48.7525C53.3416 49.5441 53.9349 50.7254 53.9349 52.0427V52.1247C53.9349 54.505 51.999 56.4409 49.6187 56.4409H49.0766V58.4288H47.0258V56.4409H45.3975V58.3755H43.3467V56.4409H41.6193V54.3901H43.3467V43.1143H41.6193V41.0635H43.3467V39.0756H45.3975V41.0635H47.0258V39.0756H49.0766V41.0635H49.6187C51.999 41.0635 53.9349 42.9994 53.9349 45.3797V45.461ZM22.7357 37.6899C27.1278 37.6899 31.2567 35.9796 34.3623 32.874C37.4671 29.7685 39.1775 25.6395 39.1775 21.2481C39.1775 16.8561 37.4671 12.7271 34.3623 9.62158C31.2567 6.51602 27.1278 4.80566 22.7357 4.80566C18.3436 4.80566 14.2147 6.51602 11.1091 9.62158C8.00356 12.7271 6.29321 16.8561 6.29321 21.2481C6.29321 25.6395 8.00356 29.7685 11.1091 32.874C14.2147 35.9796 18.3436 37.6899 22.7357 37.6899ZM18.3956 14.8449C19.2371 14.0328 20.3541 13.5857 21.5394 13.5857H21.7103V11.5979H23.7611V13.5857H23.932C26.2453 13.5857 28.1279 15.4178 28.1279 17.6702H26.0771C26.0771 16.5491 25.1146 15.6365 23.932 15.6365H21.5394C20.8879 15.6365 20.2768 15.8799 19.8195 16.3208C19.3717 16.7528 19.1256 17.3243 19.1256 17.9293C19.1256 19.1939 20.2084 20.2221 21.5394 20.2221H23.932C25.1173 20.2221 26.2336 20.6698 27.0758 21.4819C27.9276 22.3036 28.3965 23.3987 28.3965 24.5663C28.3965 26.9609 26.3936 28.9099 23.932 28.9099H23.7611V30.8978H21.7103V28.9099H21.5394C19.2254 28.9099 17.3435 27.0771 17.3435 24.8247H19.3943C19.3943 25.9465 20.3561 26.8591 21.5394 26.8591H23.932C25.2629 26.8591 26.3458 25.8303 26.3458 24.5663C26.3458 23.9606 26.099 23.3892 25.6519 22.9578C25.1946 22.5162 24.5834 22.2729 23.932 22.2729H21.5394C19.0778 22.2729 17.0749 20.3246 17.0749 17.9293C17.0749 16.7624 17.5438 15.6673 18.3956 14.8449ZM21.0711 55.894H27.7013V58.6284H21.0711C16.4856 58.6284 12.7545 54.8974 12.7545 50.3118V48.1147H7.56538L14.1217 41.5584L20.6788 48.1147H15.4889V50.3118C15.4889 53.39 17.9929 55.894 21.0711 55.894Z" fill="#39D24E"/>
<path d="M51.8841 45.3797V45.461C51.8841 46.7106 50.8683 47.7265 49.6187 47.7265H45.3975V43.1143H49.6187C50.8683 43.1143 51.8841 44.1301 51.8841 45.3797ZM51.8841 52.0427V52.1247C51.8841 53.3736 50.8683 54.3901 49.6187 54.3901H45.3975V49.7772H49.6187C50.8683 49.7772 51.8841 50.7937 51.8841 52.0427Z" fill="#39D24E"/>
</svg>
