<svg width="70" height="70" viewBox="0 0 70 70" fill="none" xmlns="http://www.w3.org/2000/svg">
<path d="M56.5476 22.519H46.5186V16.2313C46.5186 14.616 45.204 13.3015 43.5887 13.3015H40.708V8.50537C40.708 7.56133 39.9431 6.79639 38.999 6.79639H18.4912C17.5472 6.79639 16.7822 7.56133 16.7822 8.50537V13.3015H13.9016C12.2862 13.3015 10.9717 14.616 10.9717 16.2313V59.5903C10.9717 61.2057 12.2862 62.5202 13.9016 62.5202H43.5887C45.204 62.5202 46.5186 61.2057 46.5186 59.5903V52.5972H56.5476C58.2921 52.5972 59.7119 51.1773 59.7119 49.4328V25.6834C59.7119 23.9382 58.2921 22.519 56.5476 22.519ZM36.2646 50.5382V47.1202H39.6826V50.5382H36.2646ZM39.6826 53.8194V57.2374H36.2646V53.8194H39.6826ZM36.2646 43.839V40.421H39.6826V43.839H36.2646ZM17.8076 35.8491V25.5952H39.6826V35.8491H17.8076ZM27.0361 50.5382V47.1202H30.4541V50.5382H27.0361ZM30.4541 53.8194V57.2374H27.0361V53.8194H30.4541ZM27.0361 43.839V40.421H30.4541V43.839H27.0361ZM17.8076 50.5382V47.1202H21.2256V50.5382H17.8076ZM21.2256 53.8194V57.2374H17.8076V53.8194H21.2256ZM17.8076 43.839V40.421H21.2256V43.839H17.8076ZM20.2002 10.2144H37.29V17.7339H40.3662V19.7847H17.124V17.7339H20.2002V10.2144ZM56.2939 49.1792H46.5186V25.937H50.238V44.0522H53.656V25.937H56.2939V49.1792Z" fill="#39D24E"/>
</svg>
