<svg width="60" height="60" viewBox="0 0 60 60" fill="none" xmlns="http://www.w3.org/2000/svg">
<path d="M31.2501 8.75C27.5499 8.75004 23.9069 9.66259 20.6437 11.4068C17.3805 13.1511 14.5978 15.6732 12.5421 18.7498C10.4865 21.8263 9.22125 25.3624 8.85859 29.0447C8.49592 32.727 9.04699 36.4419 10.463 39.8604C11.879 43.2789 14.1162 46.2954 16.9764 48.6427C19.8366 50.9901 23.2316 52.5958 26.8607 53.3177C30.4897 54.0395 34.2408 53.8553 37.7816 52.7812C41.3224 51.7071 44.5437 49.7764 47.1601 47.16C47.6155 46.6885 47.8674 46.057 47.8617 45.4015C47.856 44.746 47.5931 44.119 47.1296 43.6555C46.6661 43.1919 46.039 42.929 45.3836 42.9233C44.7281 42.9176 44.0966 43.1696 43.6251 43.625C40.7623 46.488 36.9955 48.2698 32.9663 48.6669C28.9371 49.064 24.8949 48.0517 21.5284 45.8025C18.1619 43.5534 15.6794 40.2065 14.5039 36.3322C13.3284 32.4579 13.5326 28.2959 15.0818 24.5553C16.6309 20.8147 19.4291 17.7269 22.9996 15.8182C26.5701 13.9094 30.692 13.2977 34.663 14.0873C38.6339 14.8769 42.2083 17.0189 44.777 20.1484C47.3457 23.278 48.7498 27.2013 48.7501 31.25C48.7501 32.2446 48.355 33.1984 47.6517 33.9017C46.9484 34.6049 45.9946 35 45.0001 35C44.0055 35 43.0517 34.6049 42.3484 33.9017C41.6451 33.1984 41.2501 32.2446 41.2501 31.25C41.2501 29.2722 40.6636 27.3388 39.5648 25.6943C38.4659 24.0498 36.9042 22.7681 35.0769 22.0112C33.2496 21.2543 31.239 21.0563 29.2992 21.4422C27.3593 21.828 25.5775 22.7804 24.179 24.1789C22.7805 25.5775 21.8281 27.3593 21.4422 29.2991C21.0563 31.2389 21.2544 33.2496 22.0113 35.0768C22.7681 36.9041 24.0499 38.4659 25.6944 39.5647C27.3388 40.6635 29.2722 41.25 31.2501 41.25C32.731 41.261 34.1949 40.9333 35.5298 40.2921C36.8648 39.6508 38.0355 38.7129 38.9526 37.55C40.1868 38.7415 41.7446 39.543 43.4316 39.8546C45.1185 40.1662 46.8599 39.9739 48.4383 39.3019C50.0167 38.6299 51.3622 37.5079 52.3068 36.076C53.2515 34.644 53.7535 32.9655 53.7501 31.25C53.7517 28.2948 53.1708 25.3682 52.0407 22.6377C50.9105 19.9071 49.2533 17.4261 47.1636 15.3364C45.074 13.2468 42.5929 11.5895 39.8624 10.4594C37.1318 9.32922 34.2053 8.74836 31.2501 8.75ZM31.2501 36.2025C30.5946 36.2128 29.9437 36.0921 29.3355 35.8475C28.7273 35.6029 28.1741 35.2392 27.7084 34.7779C27.2426 34.3166 26.8737 33.7669 26.6233 33.1611C26.3729 32.5553 26.246 31.9055 26.2501 31.25C26.2501 29.9239 26.7768 28.6522 27.7145 27.7145C28.6522 26.7768 29.924 26.25 31.2501 26.25C32.5761 26.25 33.8479 26.7768 34.7856 27.7145C35.7233 28.6522 36.2501 29.9239 36.2501 31.25C36.2541 31.9055 36.1272 32.5553 35.8768 33.1611C35.6264 33.7669 35.2575 34.3166 34.7917 34.7779C34.326 35.2392 33.7728 35.6029 33.1646 35.8475C32.5564 36.0921 31.9055 36.2128 31.2501 36.2025Z" fill="#39D24E"/>
</svg>
