<svg width="60" height="60" viewBox="0 0 60 60" fill="none" xmlns="http://www.w3.org/2000/svg">
<path d="M55.8926 48.3633V28.0313C55.6172 28.3008 55.3184 28.5586 55.0137 28.793C54.7324 29.0098 54.4395 29.209 54.1348 29.3965C53.1328 30.0059 52.0195 30.4219 50.8535 30.6036C49.2832 30.8438 47.6602 30.75 46.0723 30.75H34.8457C34.8047 30.75 34.7637 30.75 34.7227 30.7442V31.4707C34.7227 31.5586 34.7285 31.6407 34.7227 31.7286C34.6992 32.2032 34.3477 32.5547 33.873 32.5782C33.0352 32.6192 32.1855 32.5782 31.3418 32.5782H27.252C26.8945 32.5782 26.5371 32.584 26.1797 32.5782C25.6465 32.5664 25.2773 32.209 25.2715 31.67C25.2656 31.3653 25.2656 31.0547 25.2656 30.75C25.2305 30.7559 25.1895 30.7559 25.1543 30.7559H25.0781C23.4844 30.7793 21.8848 30.7559 20.291 30.7559H13.1719C11.4141 30.7559 9.61523 30.8672 7.91602 30.3223C7.20703 30.0938 6.51562 29.7832 5.86523 29.4024C5.56055 29.2207 5.26758 29.0274 4.98633 28.8164C4.67578 28.5821 4.38281 28.3301 4.10742 28.0606V50.2207C4.10742 50.3848 4.10156 50.5489 4.11328 50.7129C4.23047 52.2598 5.49023 53.4551 7.04297 53.4786C7.42383 53.4844 7.79883 53.4786 8.17969 53.4786H52.8867C54.5977 53.4727 55.8867 52.125 55.8926 50.4317V48.3633ZM55.8809 18.9668V16.9512C55.7695 15.4161 54.5156 14.209 52.957 14.1856H40.084V9.80863C40.084 8.91801 39.832 8.07426 39.1875 7.42973C38.584 6.82035 37.7695 6.5391 36.9199 6.53324H23.4023C23.2559 6.53324 23.1094 6.52738 22.9688 6.53324C21.2871 6.5684 19.9629 7.89848 19.9219 9.58012C19.8867 11.1094 19.9043 12.6504 19.916 14.1856H7.13086C6.3457 14.1856 5.61328 14.4551 5.0332 14.9942C4.4707 15.5215 4.17188 16.2422 4.125 16.9981V21.0645C4.125 21.2403 4.125 21.4102 4.13672 21.586C4.14258 21.709 4.1543 21.8262 4.16602 21.9493C4.16602 21.9668 4.17187 21.9844 4.17187 22.002C4.20117 22.1719 4.22461 22.3418 4.25977 22.5059C4.34766 22.9161 4.47656 23.3204 4.62305 23.7129C4.62305 23.7188 4.62305 23.7188 4.62891 23.7246C4.62891 23.7305 4.62891 23.7305 4.63477 23.7364C4.64063 23.7481 4.64063 23.7539 4.64648 23.7657C4.68164 23.8477 4.72266 23.9297 4.76367 24.0118C4.83984 24.1641 4.91602 24.3106 4.99805 24.4571C5.00977 24.4805 5.02148 24.5039 5.03906 24.5215C5.15039 24.709 5.26758 24.8965 5.39648 25.0723C5.44922 25.1485 5.50781 25.2129 5.55469 25.2891L5.53711 25.2539C5.54883 25.2715 5.55469 25.2832 5.56641 25.295C5.66602 25.418 5.77148 25.5411 5.88281 25.6582C6.05273 25.8399 6.23438 26.0157 6.42188 26.1856C6.49805 26.2559 6.57422 26.3204 6.65625 26.3848C6.66797 26.3965 6.68555 26.4082 6.70313 26.42C6.80273 26.4844 6.84375 26.5079 6.84961 26.5137C6.84375 26.5137 6.81445 26.4903 6.77344 26.4668C6.89648 26.5489 7.01367 26.6426 7.13672 26.7246C7.46484 26.9356 7.80469 27.1231 8.15625 27.2871C8.49609 27.3926 8.31445 27.3516 8.20312 27.3106C8.21484 27.3164 8.2207 27.3164 8.23242 27.3223C8.33203 27.3575 8.42578 27.3985 8.52539 27.4278C8.71289 27.4922 8.90039 27.5508 9.08789 27.6036C9.29297 27.6563 9.49805 27.7032 9.70898 27.7442L9.91992 27.7793C9.96094 27.7852 10.002 27.7852 10.0371 27.7911C10.5586 27.8379 11.0859 27.8262 11.6074 27.8262H25.1719C25.2129 27.8262 25.2539 27.8262 25.2949 27.8321V26.42C25.2949 26.0098 25.2363 25.5704 25.5703 25.2657C25.8574 25.002 26.2324 25.043 26.5898 25.043H33.8965C34.3535 25.0664 34.6758 25.3829 34.7344 25.8223C34.7402 25.8457 34.7402 25.8692 34.7402 25.8926V27.8379C34.7812 27.8321 34.8223 27.8321 34.8633 27.8321H34.9395C36.4922 27.8028 38.0449 27.8321 39.5918 27.8321H49.248C49.5 27.8321 49.7461 27.8204 49.998 27.7969C50.0449 27.7911 50.0977 27.7852 50.1445 27.7793C50.2031 27.7676 50.2676 27.7618 50.3262 27.75C50.5312 27.709 50.7422 27.668 50.9473 27.6094C51.1523 27.5567 51.3516 27.4922 51.5508 27.4219C51.6445 27.3868 51.7324 27.3516 51.8262 27.3164C52.1895 27.1465 52.5352 26.9649 52.8691 26.7481C52.9805 26.6778 53.0859 26.6075 53.1914 26.5313C53.2207 26.5079 53.3144 26.4375 53.3555 26.4082L53.3613 26.4024C53.3672 26.3965 53.3789 26.3907 53.3789 26.3848C53.4609 26.3204 53.5371 26.25 53.6133 26.1856C53.8008 26.0215 53.9766 25.8457 54.1523 25.6582C54.2637 25.5411 54.3691 25.4239 54.4687 25.295C54.4746 25.2832 54.4863 25.2774 54.4922 25.2657C54.5391 25.1895 54.6035 25.1133 54.6562 25.043C54.7676 24.8848 54.873 24.7207 54.9668 24.5567C54.9844 24.5215 55.0078 24.4864 55.0254 24.4571C55.1133 24.2989 55.2012 24.1407 55.2773 23.9766C55.3125 23.9004 55.3535 23.8184 55.3887 23.7422C55.5352 23.3555 55.6641 22.9629 55.752 22.5528C55.7812 22.4239 55.8047 22.2891 55.8281 22.1602V22.1309C55.8281 22.125 55.8281 22.1192 55.834 22.1133C55.8398 22.0547 55.8516 21.9786 55.8574 21.9317C55.8691 21.8262 55.875 21.7149 55.8809 21.6094L55.8984 21.0997V19.9395C55.8867 19.5938 55.8809 19.2832 55.8809 18.9668ZM37.1719 9.60356C37.1719 9.60942 37.1719 9.61528 37.1777 9.61528V9.62113C37.1836 9.65043 37.1895 9.66801 37.1777 9.63871C37.1719 9.64457 37.1602 9.63285 37.1543 9.62113C37.1836 11.1446 37.1719 12.668 37.1602 14.1914H22.8457V9.62699C22.8281 9.65043 22.8164 9.65629 22.8105 9.65043C22.7988 9.66801 22.7988 9.63285 22.8047 9.59184C22.7754 9.62699 22.7578 9.63285 22.8047 9.58012C22.8047 9.55668 22.8105 9.5391 22.8164 9.51567C22.8223 9.50395 22.8223 9.48637 22.8281 9.47465C22.7871 9.47465 22.7988 9.46293 22.834 9.45707C22.8398 9.42777 22.8516 9.41606 22.8516 9.45121C22.8633 9.45121 22.875 9.44535 22.8926 9.44535V9.43363V9.43949C22.916 9.43363 22.9336 9.43363 22.957 9.42777C22.9805 9.40434 22.9922 9.39848 22.998 9.39262L22.9629 9.42777C23.0098 9.42192 23.0449 9.42192 23.0273 9.43363C23.0332 9.43949 23.0273 9.45121 23.0039 9.46879H36.5098C36.6855 9.46879 36.8555 9.46293 37.0312 9.46879C37.0195 9.46293 37.0137 9.46293 37.0078 9.45707C36.9668 9.43363 36.9785 9.42778 37.0078 9.42192C36.9902 9.4102 36.9961 9.4102 37.0137 9.42192H37.0371C37.0137 9.40434 37.002 9.39262 36.9961 9.38676C36.9961 9.38676 37.0137 9.39848 37.043 9.42192C37.0664 9.42192 37.0898 9.42777 37.1133 9.42777C37.125 9.42777 37.1309 9.43363 37.1426 9.43363C37.1426 9.42192 37.1426 9.41606 37.1484 9.41606C37.1484 9.41606 37.1543 9.42192 37.1543 9.43363C37.207 9.44535 37.2305 9.45707 37.1543 9.46293V9.49223C37.1719 9.49809 37.1836 9.50395 37.1895 9.50395C37.1836 9.50395 37.166 9.50395 37.1543 9.49809V9.50395C37.1602 9.50981 37.1719 9.51567 37.1836 9.52738C37.1777 9.52738 37.1719 9.52152 37.1602 9.51567C37.1602 9.52738 37.166 9.53324 37.166 9.54496C37.1836 9.5684 37.207 9.59184 37.2246 9.60356C37.207 9.59184 37.1895 9.57426 37.1719 9.56254V9.60356Z" fill="#39D24E"/>
</svg>
