<svg width="60" height="60" viewBox="0 0 60 60" fill="none" xmlns="http://www.w3.org/2000/svg">
<path d="M11.25 45H23.586C23.2331 46.7546 22.1797 48.5529 20.3662 50.3662C20.1914 50.541 20.0724 50.7637 20.0242 51.0062C19.976 51.2486 20.0007 51.4999 20.0953 51.7283C20.1899 51.9567 20.3501 52.1519 20.5556 52.2893C20.7612 52.4266 21.0028 52.5 21.25 52.5H38.75C38.9972 52.5 39.2389 52.4266 39.4444 52.2893C39.65 52.1519 39.8102 51.9567 39.9047 51.7283C39.9993 51.4999 40.0241 51.2486 39.9759 51.0062C39.9277 50.7637 39.8086 50.541 39.6338 50.3662C37.8205 48.5529 36.767 46.7546 36.4141 45H48.75C50.1902 44.9984 51.5857 44.5001 52.7013 43.5893C53.8168 42.6784 54.5841 41.4107 54.8737 40H5.12634C5.41597 41.4107 6.18326 42.6784 7.2988 43.5893C8.41434 44.5001 9.80987 44.9984 11.25 45ZM33.75 17.5H31.25V22.5H33.75C34.4131 22.5 35.049 22.2366 35.5178 21.7678C35.9866 21.2989 36.25 20.663 36.25 20C36.25 19.337 35.9866 18.7011 35.5178 18.2322C35.049 17.7634 34.4131 17.5 33.75 17.5Z" fill="#39D24E"/>
<path d="M48.75 7.5H11.25C9.59293 7.50174 8.00423 8.16078 6.8325 9.3325C5.66078 10.5042 5.00174 12.0929 5 13.75V37.5H55V13.75C54.9983 12.0929 54.3392 10.5042 53.1675 9.3325C51.9958 8.16078 50.4071 7.50174 48.75 7.5ZM26.25 28.75C26.25 29.0815 26.1183 29.3995 25.8839 29.6339C25.6495 29.8683 25.3315 30 25 30C24.6685 30 24.3505 29.8683 24.1161 29.6339C23.8817 29.3995 23.75 29.0815 23.75 28.75V25H18.75V28.75C18.75 29.0815 18.6183 29.3995 18.3839 29.6339C18.1495 29.8683 17.8315 30 17.5 30C17.1685 30 16.8505 29.8683 16.6161 29.6339C16.3817 29.3995 16.25 29.0815 16.25 28.75V20C16.25 18.6739 16.7768 17.4021 17.7145 16.4645C18.6521 15.5268 19.9239 15 21.25 15C22.5761 15 23.8479 15.5268 24.7855 16.4645C25.7232 17.4021 26.25 18.6739 26.25 20V28.75ZM33.75 25H31.25V28.75C31.25 29.0815 31.1183 29.3995 30.8839 29.6339C30.6495 29.8683 30.3315 30 30 30C29.6685 30 29.3505 29.8683 29.1161 29.6339C28.8817 29.3995 28.75 29.0815 28.75 28.75V16.25C28.7499 16.0858 28.7822 15.9232 28.8449 15.7715C28.9077 15.6198 28.9998 15.482 29.1159 15.3659C29.232 15.2498 29.3698 15.1577 29.5215 15.095C29.6732 15.0322 29.8358 14.9999 30 15H33.75C35.0761 15 36.3479 15.5268 37.2855 16.4645C38.2232 17.4021 38.75 18.6739 38.75 20C38.75 21.3261 38.2232 22.5979 37.2855 23.5355C36.3479 24.4732 35.0761 25 33.75 25ZM43.75 28.75C43.75 29.0815 43.6183 29.3995 43.3839 29.6339C43.1495 29.8683 42.8315 30 42.5 30C42.1685 30 41.8505 29.8683 41.6161 29.6339C41.3817 29.3995 41.25 29.0815 41.25 28.75V16.25C41.25 15.9185 41.3817 15.6005 41.6161 15.3661C41.8505 15.1317 42.1685 15 42.5 15C42.8315 15 43.1495 15.1317 43.3839 15.3661C43.6183 15.6005 43.75 15.9185 43.75 16.25V28.75Z" fill="#39D24E"/>
<path d="M21.25 17.5C20.5872 17.5007 19.9517 17.7643 19.483 18.233C19.0143 18.7017 18.7507 19.3372 18.75 20V22.5H23.75V20C23.7493 19.3372 23.4857 18.7017 23.017 18.233C22.5483 17.7643 21.9128 17.5007 21.25 17.5Z" fill="#39D24E"/>
</svg>
