<svg width="66" height="66" viewBox="0 0 66 66" fill="none" xmlns="http://www.w3.org/2000/svg">
<path d="M54.2231 26.5444V19.7724C54.2231 18.1933 52.938 16.9081 51.3582 16.9081H51.0005V13.4895C51.0005 11.4263 49.3208 9.74731 47.2571 9.74731H12.3318C9.84975 9.74731 7.7692 11.6049 7.49334 14.067C7.47272 14.2494 7.4624 14.4343 7.4624 14.6167C7.4624 14.7005 7.46434 14.783 7.46885 14.8655C7.46885 14.8662 7.46885 14.8668 7.46885 14.8668C7.46434 14.9023 7.4624 14.9377 7.4624 14.9745V47.3112C7.4624 51.4917 10.8629 54.8929 15.0434 54.8929H51.3582C52.938 54.8929 54.2231 53.6077 54.2231 52.0286V45.2565C56.8206 45.0122 58.8605 42.8189 58.8605 40.1589V31.642C58.8605 28.9821 56.8206 26.7887 54.2231 26.5444ZM10.6851 14.6167C10.6851 14.5555 10.6883 14.4924 10.6954 14.4279C10.7888 13.5971 11.492 12.97 12.3318 12.97H47.2571C47.5439 12.97 47.7778 13.2033 47.7778 13.4895V16.2635H12.3318C11.4237 16.2635 10.6851 15.5249 10.6851 14.6167ZM17.0208 44.6764H14.4427V27.1245H17.0208V44.6764ZM55.6379 40.1589C55.6379 40.748 55.3691 41.2746 54.947 41.6226C54.9005 41.6613 54.8516 41.698 54.8013 41.7322C54.6498 41.8347 54.4829 41.9152 54.3044 41.9706C54.2773 41.9797 54.2489 41.9874 54.2212 41.9945C54.0678 42.0351 53.9067 42.0564 53.7404 42.0564H42.8523C42.4598 42.0564 42.0763 42.0196 41.7044 41.9494C41.6516 41.9391 41.5987 41.9288 41.5459 41.9172C41.4054 41.8869 41.2668 41.8514 41.1301 41.8121C40.9484 41.7592 40.7698 41.698 40.5952 41.6291C40.5681 41.6187 40.5417 41.6078 40.5153 41.5968C40.4953 41.5891 40.4759 41.5807 40.456 41.5723C40.2832 41.4995 40.115 41.4189 39.9506 41.3306C39.8959 41.301 39.8417 41.2713 39.7882 41.2404C39.6806 41.1792 39.5755 41.1141 39.4718 41.0458C39.3686 40.9781 39.2674 40.9072 39.1688 40.8331C39.1095 40.7886 39.0509 40.7435 38.9935 40.6971C38.9362 40.6507 38.8794 40.603 38.8234 40.5546C38.7866 40.5224 38.7492 40.4895 38.7131 40.4566C37.4744 39.3307 36.6964 37.7058 36.6964 35.8998C36.6964 34.2002 37.3854 32.6617 38.4992 31.5479C38.5514 31.4957 38.6049 31.4442 38.6584 31.3939C38.7125 31.3436 38.7673 31.294 38.8234 31.2457C38.8981 31.1812 38.9742 31.1187 39.0515 31.0574C39.1289 30.9962 39.2081 30.9376 39.2887 30.8802C39.4092 30.7945 39.533 30.7133 39.66 30.6359C39.745 30.5844 39.8308 30.5347 39.9178 30.4877C40.1111 30.3826 40.3103 30.2879 40.5153 30.2041H40.5159C40.5881 30.1738 40.6616 30.1454 40.7357 30.1184C41.3957 29.8767 42.1085 29.7445 42.8523 29.7445H53.7404C53.9067 29.7445 54.0678 29.7658 54.2212 29.8064C54.2438 29.8122 54.2657 29.8187 54.2882 29.8251C54.3321 29.838 54.3759 29.8528 54.4191 29.8696C54.4404 29.878 54.4616 29.8863 54.4829 29.8954C54.6234 29.9547 54.7549 30.0314 54.8754 30.1216C54.9121 30.1487 54.9476 30.177 54.9818 30.2073C55.0159 30.2376 55.0494 30.2685 55.0817 30.3008C55.4252 30.6437 55.6379 31.118 55.6379 31.642V40.1589Z" fill="#39D24E"/>
<path d="M42.5261 38.2942C43.8482 38.2942 44.9199 37.2224 44.9199 35.9004C44.9199 34.5783 43.8482 33.5066 42.5261 33.5066C41.2041 33.5066 40.1323 34.5783 40.1323 35.9004C40.1323 37.2224 41.2041 38.2942 42.5261 38.2942Z" fill="#39D24E"/>
</svg>
