<svg width="60" height="60" viewBox="0 0 60 60" fill="none" xmlns="http://www.w3.org/2000/svg">
<path d="M31.1459 11.46V18.252H29.9459C28.5779 18.252 27.4619 19.356 27.4619 20.724C27.4619 22.092 28.5779 23.196 29.9459 23.196H31.1459V28.368H34.5059C35.0459 26.268 36.9659 24.696 39.2339 24.696C41.5019 24.696 43.4219 26.268 43.9619 28.368H48.5099V24.432C50.5379 24.432 52.1819 22.788 52.1819 20.76C52.1819 18.732 50.5379 17.076 48.5099 17.076V11.46H44.0939C44.0352 11.58 44.4292 16.788 39.2219 16.788C34.0284 16.788 34.3966 11.58 34.338 11.46H31.1459Z" fill="#39D24E"/>
<path d="M20.6581 7.752C18.6301 7.752 16.9861 9.396 16.9741 11.424H11.3701V15.852C11.4901 15.9095 16.8061 15.338 16.8061 20.724C16.8061 26.0786 11.4902 25.5504 11.3701 25.608V30.024H16.9741C16.9741 32.0422 18.6274 33.696 20.6581 33.696C22.6861 33.696 24.3301 32.052 24.3301 30.024H29.9221C29.9249 29.3657 29.9476 24.0727 29.9461 24.396C27.9181 24.396 26.2621 22.752 26.2621 20.724C26.2621 18.696 27.9181 17.052 29.9461 17.052V11.424H24.3301C24.3301 9.396 22.6861 7.752 20.6581 7.752Z" fill="#39D24E"/>
<path d="M29.9461 30.024H29.9221V30.048H29.9461V30.024Z" fill="#39D24E"/>
<path d="M15.7741 48.168C16.4863 45.393 17.1704 43.212 20.6461 43.212C25.5366 43.212 25.4669 48.0479 25.5301 48.168H29.9461V42.552C31.9741 42.552 33.6181 40.908 33.6181 38.868C33.6181 36.85 31.9746 35.196 29.9461 35.196V31.224H25.3861C24.8461 33.336 22.9261 34.896 20.6581 34.896C18.315 34.896 16.4469 33.2804 15.9181 31.224H11.3461V35.196C9.31807 35.196 7.67407 36.84 7.67407 38.868C7.67407 40.896 9.31807 42.54 11.3461 42.552V48.168H15.7741Z" fill="#39D24E"/>
<path d="M42.906 48.168H48.522V43.752C48.402 43.6933 43.194 44.0617 43.194 38.868C43.194 33.6605 48.402 34.0547 48.522 33.996V29.568H42.906C42.906 27.54 41.262 25.896 39.234 25.896C37.206 25.896 35.562 27.54 35.562 29.568H31.146V34.14C33.1504 34.6483 34.818 36.51 34.818 38.868C34.818 41.148 33.258 43.068 31.146 43.596V48.168H35.562C35.562 50.196 37.206 51.84 39.234 51.84C41.2128 51.84 42.906 50.2349 42.906 48.168Z" fill="#39D24E"/>
<path d="M50.706 43.248C51.366 43.248 51.906 42.72 51.906 42.048V40.692L58.782 39.984V37.764L51.906 37.056V35.688C51.906 35.028 51.366 34.488 50.706 34.488H49.698V35.196C49.578 35.2097 44.394 34.567 44.394 38.868C44.394 43.3483 49.4885 42.4871 49.698 42.552V43.248H50.706ZM17.466 51.924H18.834L19.542 58.8H21.762L22.47 51.924H23.826C24.498 51.924 25.026 51.384 25.026 50.724V49.716H24.33V48.096C24.33 46.0148 22.6378 44.412 20.646 44.412C18.618 44.412 16.974 46.0561 16.974 48.096V49.716H16.266V50.724C16.266 51.384 16.806 51.924 17.466 51.924ZM9.30602 16.344C8.63402 16.344 8.10602 16.884 8.10602 17.544V18.912L1.21802 19.62V21.84L8.10602 22.548V23.904C8.10602 24.576 8.63402 25.104 9.30602 25.104H10.302V24.408C10.4241 24.394 15.606 25.0478 15.606 20.724C15.606 16.2617 10.5027 17.1142 10.302 17.052V16.344H9.30602ZM43.602 10.284V9.288C43.602 8.616 43.062 8.088 42.402 8.088H41.034L40.326 1.2H38.106L37.398 8.088H36.042C35.37 8.088 34.842 8.616 34.842 9.288V10.284H35.538C35.5521 10.406 34.8984 15.588 39.2219 15.588C43.6842 15.588 42.8317 10.4845 42.8939 10.284H43.602Z" fill="#39D24E"/>
</svg>
