<svg width="60" height="60" viewBox="0 0 60 60" fill="none" xmlns="http://www.w3.org/2000/svg">
<path d="M52.5 7.5H17.5C16 7.5 15 8.5 15 10V17.5H7.5C6 17.5 5 18.5 5 20V45C5 49.25 8.25 52.5 12.5 52.5H45C50.5 52.5 55 48 55 42.5V10C55 8.5 54 7.5 52.5 7.5ZM15 45C15 46.5 14 47.5 12.5 47.5C11 47.5 10 46.5 10 45V22.5H15V45ZM30 42.5H27.5C26 42.5 25 41.5 25 40C25 38.5 26 37.5 27.5 37.5H30C31.5 37.5 32.5 38.5 32.5 40C32.5 41.5 31.5 42.5 30 42.5ZM30 32.5H27.5C26 32.5 25 31.5 25 30C25 28.5 26 27.5 27.5 27.5H30C31.5 27.5 32.5 28.5 32.5 30C32.5 31.5 31.5 32.5 30 32.5ZM42.5 42.5H40C38.5 42.5 37.5 41.5 37.5 40C37.5 38.5 38.5 37.5 40 37.5H42.5C44 37.5 45 38.5 45 40C45 41.5 44 42.5 42.5 42.5ZM42.5 32.5H40C38.5 32.5 37.5 31.5 37.5 30C37.5 28.5 38.5 27.5 40 27.5H42.5C44 27.5 45 28.5 45 30C45 31.5 44 32.5 42.5 32.5ZM42.5 22.5H27.5C26 22.5 25 21.5 25 20C25 18.5 26 17.5 27.5 17.5H42.5C44 17.5 45 18.5 45 20C45 21.5 44 22.5 42.5 22.5Z" fill="#39D24E"/>
</svg>
