<svg width="60" height="60" viewBox="0 0 60 60" fill="none" xmlns="http://www.w3.org/2000/svg">
<g clip-path="url(#clip0_201_101)">
<path d="M25.5801 25.5775C27.8479 23.3098 30.9006 22.0005 34.1067 21.9205C37.3127 21.8405 40.4269 22.9958 42.8051 25.1475L43.2576 25.5775L50.3276 32.65C52.6302 34.9566 53.9408 38.0714 53.98 41.3304C54.0193 44.5894 52.7841 47.7349 50.5377 50.0963C48.2913 52.4578 45.2115 53.8485 41.9546 53.972C38.6977 54.0955 35.5213 52.942 33.1026 50.7575L32.6526 50.3275L27.3476 45.0225C26.8992 44.5726 26.6389 43.9689 26.6195 43.334C26.6001 42.6991 26.8231 42.0807 27.2432 41.6043C27.6633 41.1278 28.249 40.8292 28.8813 40.769C29.5136 40.7087 30.1451 40.8914 30.6476 41.2799L30.8826 41.4874L36.1876 46.7924C37.5628 48.1757 39.4227 48.9687 41.3729 49.0034C43.3231 49.0381 45.21 48.3117 46.6335 46.9783C48.0571 45.6448 48.9051 43.8093 48.9978 41.861C49.0905 39.9128 48.4206 38.005 47.1301 36.5424L46.7926 36.1849L39.7226 29.115C39.0261 28.4184 38.1993 27.8658 37.2893 27.4888C36.3792 27.1118 35.4039 26.9178 34.4188 26.9178C33.4338 26.9178 32.4584 27.1118 31.5484 27.4888C30.6384 27.8658 29.8115 28.4184 29.1151 29.115C28.646 29.5837 28.0099 29.8469 27.3467 29.8467C26.6835 29.8465 26.0476 29.5828 25.5788 29.1137C25.1101 28.6446 24.8468 28.0085 24.8471 27.3453C24.8473 26.6821 25.111 26.0462 25.5801 25.5775ZM9.67008 9.66745C11.9379 7.39978 14.9906 6.09052 18.1967 6.01049C21.4027 5.93045 24.5169 7.08576 26.8951 9.23745L27.3476 9.66745L32.6501 14.975C33.0985 15.4248 33.3588 16.0285 33.3782 16.6634C33.3975 17.2983 33.1745 17.9167 32.7545 18.3931C32.3344 18.8696 31.7487 19.1682 31.1164 19.2284C30.4841 19.2887 29.8526 19.106 29.3501 18.7175L29.1151 18.51L23.8126 13.2075C22.435 11.8388 20.5803 11.0579 18.6387 11.0289C16.697 10.9999 14.8198 11.7251 13.402 13.0519C11.9841 14.3788 11.1362 16.2038 11.0365 18.1431C10.9369 20.0824 11.5932 21.9847 12.8676 23.45L13.2051 23.81L20.2776 30.8825C21.684 32.2885 23.5914 33.0784 25.5801 33.0784C27.5688 33.0784 29.4761 32.2885 30.8826 30.8825C31.1147 30.6502 31.3903 30.4659 31.6936 30.3401C31.9969 30.2144 32.3221 30.1496 32.6504 30.1494C32.9788 30.1493 33.304 30.2139 33.6074 30.3394C33.9108 30.465 34.1866 30.6491 34.4188 30.8812C34.6511 31.1133 34.8354 31.3889 34.9612 31.6922C35.0869 31.9956 35.1517 32.3207 35.1518 32.6491C35.152 32.9774 35.0874 33.3026 34.9618 33.606C34.8363 33.9095 34.6522 34.1852 34.4201 34.4174C32.1523 36.6851 29.0996 37.9944 25.8935 38.0744C22.6874 38.1544 19.5732 36.9991 17.1951 34.8475L16.7401 34.4174L9.67008 27.3449C7.3267 25.0009 6.01025 21.822 6.01025 18.5075C6.01025 15.1929 7.3267 12.0115 9.67008 9.66745Z" fill="#39D24E"/>
</g>
<defs>
<clipPath id="clip0_201_101">
<rect width="60" height="60" fill="white"/>
</clipPath>
</defs>
</svg>
