<svg width="70" height="70" viewBox="0 0 70 70" fill="none" xmlns="http://www.w3.org/2000/svg">
<path d="M60.6348 12.248H9.36523C8.42119 12.248 7.65625 13.013 7.65625 13.957V25.5781C7.65625 26.5222 8.42119 27.2871 9.36523 27.2871H19.9391V53.6485C19.9391 55.5346 21.473 57.0686 23.3591 57.0686H46.6409C48.527 57.0686 50.0609 55.5346 50.0609 53.6485V27.2871H60.6348C61.5788 27.2871 62.3438 26.5222 62.3438 25.5781V13.957C62.3438 13.013 61.5788 12.248 60.6348 12.248ZM32.1275 47.406C32.1275 49.2619 30.6229 50.7672 28.7663 50.7672C26.9104 50.7672 25.4051 49.2619 25.4051 47.406C25.4051 46.3546 25.8877 45.4167 26.6431 44.8008C25.8877 44.1842 25.4051 43.2463 25.4051 42.1956C25.4051 40.339 26.9104 38.8344 28.7663 38.8344C30.6229 38.8344 32.1275 40.339 32.1275 42.1956C32.1275 43.2463 31.6456 44.1842 30.8902 44.8008C31.6456 45.4167 32.1275 46.3546 32.1275 47.406ZM27.7867 21.4766V25.1816H25.7359V21.4766H27.7867ZM31.7974 29.8923H29.7466V21.4766H31.7974V29.8923ZM37.9449 21.4766H43.2216V55.0178H37.9449V21.4766ZM58.9258 23.8691H50.0609V21.4766H53.1152V18.0586H16.8848V21.4766H19.9391V23.8691H11.0742V15.666H58.9258V23.8691Z" fill="#39D24E"/>
</svg>
