<svg width="68" height="68" viewBox="0 0 68 68" fill="none" xmlns="http://www.w3.org/2000/svg">
<path d="M56.844 58.0789V16.5551C56.844 16.4821 56.844 16.4157 56.8374 16.3492C56.7378 14.7953 55.8346 13.3078 54.387 12.6571C53.6034 12.2985 52.8132 12.2188 51.9764 12.2188H46.6639C46.6639 11.5547 46.6639 10.8043 46.6507 10.1004V9.98752C46.6307 9.53596 46.4714 9.1176 46.1526 8.79221C45.9335 8.57307 45.6944 8.44026 45.4354 8.37385C45.3956 8.36057 45.3557 8.35393 45.3159 8.34729C45.2362 8.33401 45.1499 8.30745 45.0702 8.30745C45.0635 8.30745 45.0569 8.30745 45.0569 8.30081C45.0569 8.29417 45.0503 8.28753 45.0503 8.28088C45.0237 8.25432 44.9905 8.30745 44.9639 8.24104H39.3526C39.3393 7.90901 39.3061 7.49729 39.2331 7.11213C38.921 5.54495 37.7721 4.12385 36.3245 3.46643C34.7905 2.77581 33.0839 2.80237 31.5831 3.56604C30.3147 4.21018 29.3452 5.41213 28.9534 6.76682C28.8139 7.25159 28.7608 7.7762 28.7475 8.24104H25.1948C24.5241 8.24104 23.8401 8.24768 23.1694 8.2676C22.1866 8.30081 21.4495 9.04456 21.4229 10.0207C21.4163 10.2399 21.403 10.4789 21.403 10.7047V12.2387C19.4772 12.2387 17.5382 12.2321 15.5991 12.2387C13.1952 12.252 11.2628 14.1645 11.2296 16.575C11.2229 16.8938 11.2428 17.2059 11.2428 17.5246V58.484C11.2428 59.9317 11.0702 61.5321 11.7874 62.8469C12.5909 64.3145 14.1448 65.0848 15.7718 65.0848H51.0335C51.505 65.0848 51.9831 65.0649 52.4546 65.0649C54.4999 65.0582 56.4257 63.6371 56.7842 61.5653C56.9569 60.4364 56.844 59.2145 56.844 58.0789ZM32.1542 8.09495C32.1542 8.06174 32.1608 8.03518 32.1608 8.00198C32.1675 7.94221 32.1741 7.88245 32.1874 7.82268L32.2073 7.74299C32.2073 7.73635 32.2139 7.72971 32.2139 7.72307C32.2206 7.70979 32.2073 7.69651 32.2073 7.67659C32.2139 7.65667 32.2073 7.63674 32.2073 7.61682H32.2272C32.2272 7.61018 32.2405 7.60354 32.2405 7.5969C32.2405 7.59026 32.2471 7.59026 32.2471 7.58362C32.2538 7.57034 32.2538 7.55706 32.2604 7.55042C32.2671 7.53049 32.2737 7.51721 32.2803 7.49729C32.2803 7.49065 32.2803 7.49065 32.287 7.49065C32.287 7.48401 32.2737 7.48401 32.2737 7.47737C32.2803 7.46409 32.2671 7.45745 32.2671 7.45081C32.2671 7.44417 32.287 7.44417 32.287 7.44417C32.2936 7.43753 32.3003 7.43088 32.3069 7.4176C32.3069 7.41096 32.3135 7.41096 32.3202 7.40432C32.3202 7.40432 32.3202 7.39768 32.3268 7.39768C32.3268 7.39104 32.3335 7.39104 32.3335 7.39104C32.3401 7.3844 32.3401 7.37112 32.3468 7.36448C32.3468 7.36448 32.3468 7.35784 32.3534 7.35784C32.36 7.3512 32.36 7.33792 32.3667 7.33128C32.3733 7.32463 32.3733 7.31799 32.38 7.31135C32.3866 7.29807 32.3999 7.27815 32.4065 7.26487L32.4264 7.22503L32.4663 7.16526C32.4796 7.1387 32.4995 7.11213 32.5194 7.09221C32.5393 7.07229 32.5526 7.04573 32.5725 7.02581L32.5792 7.01917C32.5991 6.99924 32.6124 6.97268 32.6323 6.95276C32.6522 6.9262 32.6788 6.90628 32.6987 6.87971C32.9112 6.66721 33.1569 6.52776 33.4292 6.43479C33.4425 6.42815 33.4491 6.42815 33.4624 6.42151C33.4757 6.42151 33.4823 6.41487 33.4956 6.41487H33.5022C33.5487 6.40159 33.6018 6.39495 33.6483 6.38167C33.6616 6.38167 33.6682 6.39495 33.6815 6.38831C33.7878 6.36174 33.9007 6.37503 34.0135 6.37503C34.1132 6.37503 34.2128 6.36838 34.2991 6.38831C34.3257 6.39495 34.3522 6.37503 34.3721 6.37503C34.3788 6.37503 34.3921 6.38831 34.3987 6.39495C34.412 6.40159 34.4253 6.37503 34.4385 6.44143C34.5581 6.44143 34.671 6.48792 34.7839 6.5344C34.7971 6.54104 34.8104 6.54104 34.8237 6.54104C35.0163 6.62737 35.1956 6.74026 35.3417 6.89299L35.3882 6.93948C35.4147 6.96604 35.4346 6.9926 35.4612 7.01917C35.6471 7.24495 35.7667 7.50393 35.8331 7.78948C35.8464 7.82932 35.8596 7.86917 35.8663 7.91565C35.8729 7.94885 35.8796 7.98206 35.8862 8.0219C35.8862 8.02854 35.9061 8.03518 35.9061 8.04182C35.9061 8.0551 35.926 8.06174 35.926 8.07503V8.2012C35.926 8.22112 35.9128 8.24104 35.9128 8.26096C35.9128 8.28088 35.9061 8.29417 35.9061 8.31409C35.9061 8.33401 35.8995 8.34729 35.8995 8.36721C35.8995 8.37385 35.8928 8.38049 35.8928 8.38049V8.39378C35.8928 8.40706 35.8862 8.42034 35.8862 8.43362C35.8796 8.46682 35.8729 8.49338 35.8663 8.52659C35.8596 8.53987 35.8596 8.55315 35.853 8.56643C35.8464 8.59963 35.8331 8.6262 35.8264 8.65276C35.8198 8.67932 35.8132 8.69924 35.8065 8.72581C35.7999 8.73909 35.7999 8.75901 35.7932 8.77229C35.7932 8.77893 35.7932 8.78557 35.7866 8.79221C35.7866 8.79885 35.7932 8.80549 35.7866 8.81213V8.8387C35.7866 8.85862 35.76 8.87854 35.7534 8.89182C35.7534 8.89846 35.7468 8.9051 35.7401 8.9051L35.7202 8.94495C35.7069 8.97151 35.6936 9.00471 35.6803 9.03128C35.6671 9.05784 35.6538 9.0844 35.6339 9.11096C35.6272 9.12424 35.6206 9.13088 35.6139 9.14417C35.594 9.18401 35.5675 9.21721 35.5409 9.25706C35.5343 9.27034 35.521 9.28362 35.5077 9.2969C35.4745 9.34338 35.428 9.38323 35.3882 9.42307C35.3616 9.45627 35.3616 9.48948 35.2952 9.52268H35.3085C35.3085 9.54924 35.262 9.56917 35.2354 9.59573C35.2089 9.61565 35.1889 9.63557 35.1624 9.65549L35.1557 9.66213C35.1292 9.68206 35.1026 9.70198 35.0694 9.7219C35.0628 9.72854 35.0495 9.73518 35.0428 9.74182C35.0296 9.7551 35.0096 9.76174 34.9964 9.77502C34.9432 9.80823 34.8835 9.84143 34.8237 9.86799C34.8104 9.87464 34.7971 9.88127 34.7772 9.88792C34.7639 9.89456 34.7507 9.9012 34.7307 9.90784H34.7175C34.7108 9.90784 34.7042 9.91448 34.6975 9.91448C34.6909 9.91448 34.6843 9.92112 34.6776 9.92112C34.6643 9.92776 34.6444 9.9344 34.6311 9.94104C34.6178 9.94768 34.5979 9.95432 34.578 9.96096C34.5647 9.9676 34.5514 9.9676 34.5382 9.97424C34.3655 10.034 34.1729 10.0606 33.9803 10.0539H33.8675C33.8542 10.0539 33.8409 10.0539 33.8276 10.0473H33.801C33.7944 10.0473 33.7811 10.0473 33.7745 10.0406C33.7612 10.0406 33.7546 10.0407 33.7413 10.034C33.7214 10.034 33.7081 10.0274 33.6882 10.0274C33.6749 10.0274 33.6616 10.0207 33.655 10.0207C33.5885 10.0074 33.5221 9.99417 33.4624 9.97424C33.4425 9.9676 33.4292 9.94768 33.4093 9.94104C33.3827 9.9344 33.3628 9.9012 33.3362 9.9012L33.3296 9.91448C33.3229 9.91448 33.3163 9.92112 33.3096 9.92112V9.92776H33.303C33.2964 9.92112 33.2897 9.92112 33.2764 9.92112C33.2698 9.92112 33.2698 9.91448 33.2632 9.91448C33.2565 9.91448 33.2565 9.90784 33.2499 9.90784C33.2432 9.90784 33.2366 9.9012 33.23 9.9012C33.2167 9.89456 33.21 9.89456 33.1968 9.88792C33.1835 9.88127 33.1702 9.87464 33.1635 9.86799C33.1569 9.86135 33.1503 9.86135 33.137 9.85471C33.1303 9.84807 33.1237 9.84807 33.1104 9.84143C33.0971 9.83479 33.0905 9.82815 33.0772 9.82151C33.0706 9.81487 33.0639 9.81487 33.0573 9.80823C33.044 9.80159 33.0307 9.79495 33.0241 9.78831C33.0175 9.78167 33.0108 9.78167 33.0042 9.77502C32.9975 9.77502 32.9909 9.76838 32.9909 9.76838C32.9843 9.76838 32.9843 9.76174 32.9776 9.76174L32.971 9.7551C32.971 9.7551 32.9643 9.7551 32.9643 9.74846C32.951 9.74182 32.9444 9.73518 32.9311 9.72854C32.9245 9.7219 32.9178 9.7219 32.9112 9.71526C32.8714 9.6887 32.8249 9.65549 32.785 9.62229C32.7585 9.60237 32.7385 9.58245 32.7186 9.56253L32.6921 9.53596C32.6854 9.52932 32.6721 9.52268 32.6655 9.5094L32.6522 9.49612L32.6389 9.48284L32.6057 9.44964L32.5991 9.44299L32.5925 9.43635L32.5858 9.42971L32.5792 9.42307L32.5592 9.40315C32.5526 9.38987 32.5393 9.38323 32.5327 9.36995C32.5128 9.35003 32.4928 9.32346 32.4796 9.2969C32.4663 9.27698 32.4464 9.25706 32.4331 9.23713C32.3932 9.18401 32.36 9.13089 32.3335 9.07112C32.3202 9.0512 32.3069 9.02463 32.3003 9.00471C32.2936 8.99807 32.287 8.98479 32.287 8.97151C32.2803 8.95159 32.2671 8.93831 32.2604 8.91839C32.2471 8.89182 32.2405 8.86526 32.2272 8.8387C32.2206 8.83206 32.2206 8.81878 32.2139 8.81213C32.2073 8.78557 32.194 8.76565 32.1874 8.73909C32.1807 8.72581 32.1741 8.70588 32.1741 8.6926C32.1741 8.68596 32.1675 8.67932 32.1675 8.66604C32.1608 8.65276 32.1608 8.63948 32.1608 8.6262C32.1542 8.61292 32.1542 8.59963 32.1542 8.58635C32.1475 8.57307 32.1475 8.55315 32.1409 8.53987C32.1343 8.51995 32.1343 8.50003 32.1276 8.4801C32.121 8.4469 32.121 8.42034 32.1143 8.38714V8.37385C32.1143 8.36721 32.1077 8.36057 32.1077 8.35393C32.1077 8.32737 32.0944 8.30745 32.0944 8.28088C32.0944 8.24768 32.101 8.22112 32.101 8.18792C32.1475 8.15471 32.1542 8.12151 32.1542 8.09495ZM25.9718 52.5938H19.9354C18.7866 52.5938 17.93 51.6774 17.8835 50.5684C17.8303 49.4594 18.8663 48.543 19.9354 48.543H25.9718C27.1206 48.543 27.9772 49.4594 28.0237 50.5684C28.0768 51.6774 27.0475 52.5938 25.9718 52.5938ZM48.9085 48.6957L47.8593 49.7449C46.3651 51.2457 44.8643 52.7399 43.3702 54.2407L40.5413 57.0696C39.7577 57.8532 38.4229 57.8532 37.6393 57.0696C36.3577 55.7879 35.076 54.5063 33.7878 53.2246C32.9776 52.4145 33.0374 51.1461 33.7878 50.3227C34.5382 49.5059 35.9327 49.5723 36.6897 50.3293L39.087 52.7266C40.4483 51.3586 41.8163 49.984 43.1776 48.6227L46.0065 45.7938C46.8167 44.9836 48.0917 45.0434 48.9085 45.7938C49.7253 46.5375 49.6721 47.9321 48.9085 48.6957ZM48.1315 40.1492C48.1182 40.1492 48.0983 40.1625 48.085 40.1625C46.9428 40.1891 45.794 40.1824 44.6452 40.1824H19.9354C18.7866 40.1824 17.93 39.2262 17.8835 38.1172C17.8303 37.0082 18.8663 36.052 19.9354 36.052C19.9487 36.052 19.9686 36.0586 19.9819 36.0586C21.1241 36.0321 22.2729 36.0653 23.4218 36.0653H48.1382C49.287 36.0653 50.1436 36.9949 50.1901 38.1106C50.2366 39.2129 49.2073 40.1492 48.1315 40.1492ZM48.1315 27.6383C48.1182 27.6383 48.0983 27.6317 48.085 27.6317C46.9428 27.6516 45.794 27.625 44.6452 27.625H19.9354C18.7866 27.625 17.93 26.6887 17.8835 25.5797C17.8303 24.4707 18.8663 23.5278 19.9354 23.5278C19.9487 23.5278 19.9686 23.5211 19.9819 23.5211C21.1241 23.4946 22.2729 23.5078 23.4218 23.5078H48.1382C49.287 23.5078 50.1436 24.4574 50.1901 25.5731C50.2366 26.6821 49.2073 27.6383 48.1315 27.6383Z" fill="#39D24E"/>
</svg>
