<svg width="158" height="31" viewBox="0 0 158 31" fill="none" xmlns="http://www.w3.org/2000/svg">
<g clip-path="url(#clip0_219_716)">
<path d="M15.6614 16.2294C15.6614 18.6003 14.9597 20.5973 13.5513 22.2139C12.0814 23.9078 10.1716 24.7581 7.83365 24.7581C5.48957 24.7581 3.58586 23.9078 2.11603 22.2139C0.706988 20.5973 0 18.6003 0 16.2294C0 13.852 0.706988 11.8556 2.11603 10.2448C3.60221 8.56681 5.5121 7.72826 7.83365 7.72826C10.1716 7.72826 12.0814 8.56681 13.5513 10.2448C14.9597 11.8556 15.6614 13.852 15.6614 16.2294ZM11.0066 16.2294C11.0066 15.1555 10.7508 14.2491 10.2385 13.5163C9.66547 12.6833 8.86343 12.2694 7.83365 12.2694C6.80357 12.2694 6.00184 12.6833 5.42816 13.5163C4.91065 14.2491 4.65452 15.1555 4.65452 16.2294C4.65452 17.2973 4.91065 18.2146 5.42816 18.9695C6.00184 19.8024 6.80357 20.2169 7.83365 20.2169C8.86343 20.2169 9.66547 19.8024 10.2385 18.9695C10.7508 18.2146 11.0066 17.2973 11.0066 16.2294ZM32.4918 16.2294C32.4918 18.444 31.8571 20.3791 30.5819 22.0345C29.218 23.8464 27.4587 24.7581 25.3207 24.7581C23.8117 24.7581 22.5317 24.3164 21.4849 23.444C21.4849 23.6449 21.5071 24.1316 21.5519 24.9097C21.5963 25.6918 21.6182 26.3295 21.6182 26.8329C21.6182 29.6133 20.7943 31 19.1467 31C18.4727 31 17.9219 30.7594 17.4818 30.2839C17.0476 29.8034 16.8304 29.2261 16.8304 28.5448V10.4631C16.8304 9.80309 17.0532 9.23238 17.4985 8.75188C17.9438 8.27634 18.4953 8.0364 19.1523 8.0364C20.1428 8.0364 20.8668 8.53302 21.3235 9.52378C22.2978 8.32687 23.6284 7.72826 25.3152 7.72826C27.4587 7.72826 29.2124 8.62261 30.5819 10.4184C31.8515 12.0797 32.4918 14.0147 32.4918 16.2294ZM27.837 16.2294C27.837 15.1555 27.5759 14.2491 27.0637 13.5163C26.4897 12.6833 25.6883 12.2694 24.6582 12.2694C23.6284 12.2694 22.8267 12.6833 22.253 13.5163C21.7407 14.2491 21.4849 15.1555 21.4849 16.2294C21.4849 17.2973 21.7407 18.2146 22.253 18.9695C22.8267 19.8024 23.6284 20.2169 24.6582 20.2169C25.6883 20.2169 26.4897 19.8024 27.0637 18.9695C27.5759 18.2146 27.837 17.2973 27.837 16.2294ZM49.4278 15.7266C49.4278 16.5087 49.2438 17.0456 48.8763 17.3482C48.5091 17.6442 47.9357 17.7952 47.1618 17.7952H38.7603C38.7603 18.6902 39.1781 19.3777 40.0132 19.8582C40.6869 20.2337 41.5108 20.4243 42.485 20.4243C43.2426 20.4243 44.1499 20.1717 45.2133 19.6747C46.2767 19.171 46.9612 18.9245 47.2568 18.9245C47.7965 18.9245 48.253 19.1204 48.6316 19.5231C49.0044 19.9206 49.1942 20.4014 49.1942 20.9553C49.1942 22.2353 48.2422 23.232 46.3375 23.9475C44.8847 24.4841 43.4093 24.7581 41.9009 24.7581C39.4735 24.7581 37.5136 23.9475 36.016 22.3314C34.5181 20.7148 33.7669 18.6846 33.7669 16.2294C33.7669 13.8911 34.5461 11.8947 36.1049 10.2287C37.658 8.56123 39.5904 7.72826 41.895 7.72826C44.0385 7.72826 45.8311 8.5169 47.2679 10.0939C48.7038 11.6715 49.4278 13.5504 49.4278 15.7266ZM44.7736 14.5514C44.751 13.8353 44.4227 13.1867 43.7879 12.599C43.1531 12.0121 42.4798 11.7217 41.7669 11.7217C41.0322 11.7217 40.3471 12.0121 39.7126 12.599C39.0782 13.1867 38.7603 13.8353 38.7603 14.5514H44.7736ZM65.0667 21.9948C65.0667 22.6777 64.8494 23.2534 64.4156 23.7345C63.9755 24.2103 63.4243 24.4509 62.7507 24.4509C61.125 24.4509 60.3119 23.1532 60.3119 20.5638C60.3119 20.066 60.3455 19.2832 60.4122 18.2038C60.4847 17.1296 60.5183 16.3413 60.5183 15.8434C60.5183 13.0968 59.633 11.7217 57.8681 11.7217C56.103 11.7217 55.2235 13.0968 55.2235 15.8434C55.2235 16.3413 55.2512 17.1296 55.3012 18.2038C55.3571 19.2832 55.3849 20.066 55.3849 20.5638C55.3849 23.1532 54.5831 24.4509 52.98 24.4509C52.306 24.4509 51.7552 24.2103 51.3207 23.7345C50.8809 23.2534 50.6637 22.6777 50.6637 21.9948V10.4581C50.6637 9.78015 50.8809 9.2051 51.3207 8.74072C51.7552 8.27076 52.3119 8.0364 52.9855 8.0364C54.099 8.0364 54.8726 8.53302 55.3068 9.52378C56.0585 8.32687 57.3889 7.72826 59.2932 7.72826C61.0581 7.72826 62.4612 8.1976 63.491 9.13163C64.5433 10.1335 65.0667 11.5087 65.0667 13.2596V21.9948ZM79.6693 21.4978C79.6693 22.5546 78.9861 23.3932 77.6157 24.0091C76.5305 24.5062 75.3511 24.7617 74.1585 24.7581C71.8141 24.7581 69.9104 23.9078 68.4405 22.2139C67.0321 20.5973 66.3251 18.6003 66.3251 16.2294C66.3251 13.852 67.0432 11.8447 68.485 10.2002C69.927 8.55069 71.8141 7.72826 74.1585 7.72826C75.5114 7.72826 76.6751 7.92945 77.644 8.32687C78.996 8.86379 79.6693 9.70234 79.6693 10.8434C79.6693 11.4191 79.4922 11.9281 79.1352 12.3702C78.7794 12.8064 78.3223 13.0302 77.7659 13.0302C77.3867 13.0302 76.8414 12.9015 76.1288 12.6504C75.4166 12.3925 74.8491 12.2694 74.4316 12.2694C73.3234 12.2694 72.4603 12.6666 71.8425 13.4605C71.2685 14.1766 70.9793 15.0939 70.9793 16.2294C70.9793 17.2973 71.2355 18.2038 71.7536 18.9363C72.3264 19.7922 73.1339 20.2169 74.1637 20.2169C74.6208 20.2169 75.2438 20.0827 76.0397 19.808C76.8364 19.5405 77.4101 19.4007 77.7659 19.4007C78.2844 19.4007 78.7287 19.6239 79.108 20.0604C79.4811 20.5021 79.6693 20.977 79.6693 21.4978ZM96.5892 21.9948C96.5892 22.6777 96.3726 23.2534 95.9378 23.7345C95.4983 24.2103 94.9419 24.4509 94.2671 24.4509C93.2539 24.4509 92.5309 23.9527 92.0964 22.9629C91.1225 24.1601 89.7915 24.7581 88.1048 24.7581C85.9452 24.7581 84.1745 23.8464 82.804 22.0345C81.557 20.3791 80.929 18.444 80.929 16.2294C80.929 14.0147 81.557 12.0797 82.804 10.4184C84.1967 8.62261 85.9613 7.72826 88.1048 7.72826C89.7915 7.72826 91.1225 8.32687 92.0964 9.52378C92.5309 8.53302 93.2539 8.0364 94.2671 8.0364C94.9247 8.0364 95.4761 8.27634 95.922 8.75188C96.3664 9.23238 96.5892 9.79751 96.5892 10.4581V21.9948ZM91.935 16.2294C91.935 15.1555 91.6792 14.2491 91.1669 13.5163C90.571 12.6833 89.7693 12.2694 88.7621 12.2694C87.7317 12.2694 86.9302 12.6833 86.3563 13.5163C85.8394 14.2491 85.5832 15.1555 85.5832 16.2294C85.5832 17.2973 85.8329 18.2146 86.3282 18.9695C86.9191 19.8024 87.7317 20.2169 88.7621 20.2169C89.7915 20.2169 90.5929 19.8024 91.1669 18.9695C91.6792 18.2146 91.935 17.2973 91.935 16.2294ZM108.465 10.1497C108.465 11.1507 107.981 11.8385 107.012 12.213C106.116 12.5156 105.224 12.8237 104.334 13.1415C103.359 13.7013 102.875 14.7414 102.875 16.2517V21.9948C102.875 22.6777 102.652 23.2534 102.219 23.7345C101.778 24.2103 101.221 24.4509 100.548 24.4509C99.8693 24.4509 99.3116 24.2103 98.8781 23.7345C98.4374 23.2534 98.2208 22.6777 98.2208 21.9948V10.4581C98.2208 9.78015 98.4374 9.2051 98.8719 8.74072C99.3116 8.27076 99.8693 8.0364 100.543 8.0364C101.656 8.0364 102.429 8.53302 102.864 9.52378C103.861 8.32687 104.93 7.72826 106.082 7.72826C106.739 7.72826 107.301 7.9682 107.769 8.44374C108.231 8.92486 108.465 9.49526 108.465 10.1497ZM120.607 10.3623C120.607 11.4024 120.201 12.0568 119.395 12.337C118.998 12.4765 118.168 12.5491 116.905 12.5491V21.9948C116.905 22.6777 116.682 23.2534 116.249 23.7345C115.808 24.2103 115.251 24.4509 114.578 24.4509C113.922 24.4509 113.364 24.2103 112.918 23.7345C112.474 23.2534 112.251 22.6777 112.251 21.9948V12.5491C111.293 12.5491 110.597 12.426 110.158 12.1861C109.557 11.8503 109.26 11.2406 109.26 10.3623C109.26 9.48472 109.567 8.88611 110.185 8.56681C110.602 8.33183 111.293 8.20938 112.251 8.20938V6.20709C112.251 3.85264 113.024 2.67836 114.578 2.67836C116.126 2.67836 116.905 3.85264 116.905 6.20709V8.20938C118.168 8.20938 118.998 8.28192 119.395 8.42142C120.201 8.70104 120.607 9.35049 120.607 10.3623ZM158 7.52242C157.987 6.08681 155.347 5.43519 148.511 5.43519C132.472 5.43519 128.402 4.74699 124.048 0.143799C125.879 2.90776 126.882 8.09189 143.835 7.83397C161.523 7.56024 150.732 12.4155 147.593 17.9009C153.254 12.8243 157.983 9.47821 158 7.54319V7.52242ZM135.461 22.2638C135.461 22.909 135.206 23.5276 134.752 23.9838C134.297 24.4399 133.682 24.6963 133.039 24.6964C131.697 24.6964 130.612 23.6065 130.612 22.2638C130.612 21.9436 130.675 21.6264 130.797 21.3305C130.918 21.0345 131.097 20.7656 131.323 20.5392C131.548 20.3127 131.816 20.1331 132.11 20.0106C132.405 19.8881 132.721 19.8252 133.039 19.8254C134.377 19.8254 135.461 20.9157 135.461 22.2638ZM146.507 22.2638C146.507 22.909 146.251 23.5276 145.797 23.9838C145.343 24.4399 144.727 24.6963 144.085 24.6964C142.744 24.6964 141.658 23.6065 141.658 22.2638C141.658 21.9436 141.72 21.6265 141.842 21.3305C141.964 21.0346 142.143 20.7657 142.368 20.5393C142.594 20.3128 142.861 20.1332 143.156 20.0107C143.45 19.8882 143.766 19.8252 144.085 19.8254C145.422 19.8254 146.507 20.9157 146.507 22.2638Z" fill="#A7BED3"/>
</g>
<defs>
<clipPath id="clip0_219_716">
<rect width="158" height="31" fill="white"/>
</clipPath>
</defs>
</svg>
