<svg width="68" height="68" viewBox="0 0 68 68" fill="none" xmlns="http://www.w3.org/2000/svg">
<path d="M28.1298 24.8625C28.1298 24.8758 28.1298 24.8824 28.1232 24.8957C28.1232 24.8758 28.1099 24.9356 28.1099 25.0086C28.09 25.1281 28.0634 25.241 28.0302 25.3606C27.997 25.4934 27.9572 25.6262 27.9107 25.7524C27.8974 25.7922 27.8841 25.8254 27.8708 25.8652C27.7978 25.925 27.738 26.1442 27.6849 26.2305C27.6185 26.3567 27.5454 26.4762 27.4658 26.5891C27.4591 26.5957 27.4392 26.6223 27.4193 26.6555C27.4458 26.6289 27.4591 26.6223 27.3861 26.702C27.3794 26.7086 27.3661 26.7219 27.3595 26.7285C27.3529 26.7352 27.3529 26.7418 27.3529 26.7418V26.7352C27.2599 26.8481 27.1603 26.9543 27.0607 27.0539C26.9677 27.1469 26.8747 27.2332 26.7751 27.3195C26.7486 27.3395 26.7286 27.3594 26.7021 27.3793C26.4896 27.5121 26.2904 27.6516 26.0646 27.7711C26.0247 27.791 25.9849 27.8043 25.9517 27.8242C25.8521 27.8574 25.7525 27.9039 25.6595 27.9371C25.4271 28.0168 25.188 28.0699 24.949 28.1164H24.9423C24.929 28.1164 24.9158 28.1164 24.8958 28.1231C24.7896 28.1297 24.6833 28.1363 24.5771 28.143C24.4576 28.1496 24.338 28.143 24.2118 28.143C24.1521 28.143 24.0923 28.1363 24.0326 28.1297C23.9993 28.1297 23.8665 28.1031 23.8533 28.1031C23.8533 28.1031 23.8533 28.1031 23.8599 28.1031C23.8134 28.0965 23.7736 28.0832 23.7603 28.0832C23.6408 28.0567 23.5212 28.0301 23.4083 27.9969C23.3087 27.9637 23.2025 27.9371 23.1029 27.8973C23.063 27.884 23.0232 27.8707 22.9833 27.8508C22.9767 27.8442 22.9634 27.8375 22.9501 27.8375C22.7576 27.7379 22.565 27.6383 22.379 27.5188C22.3392 27.4922 22.2993 27.4656 22.2595 27.4391C22.2595 27.4391 22.2595 27.4391 22.2595 27.4457V27.4391C22.2462 27.4324 22.2329 27.4258 22.2263 27.4192C22.1333 27.3594 22.1599 27.3527 22.1997 27.3793C22.1267 27.3129 22.0072 27.2399 21.974 27.2067C21.8079 27.0473 21.6552 26.8813 21.5025 26.7086C21.4826 26.6754 21.4493 26.6356 21.4294 26.6024C21.3497 26.4828 21.2767 26.3633 21.2103 26.2438C21.1572 26.1508 21.1107 26.0512 21.0576 25.9582C21.0509 25.9383 21.0376 25.925 21.031 25.9117C21.0243 25.8918 21.0177 25.8719 21.0111 25.852C20.9247 25.6262 20.8583 25.3871 20.8118 25.1481C20.8052 25.1281 20.7986 25.075 20.7853 25.0285C20.7986 25.0817 20.7654 24.8293 20.7587 24.7828C20.7454 24.5238 20.7454 24.2649 20.772 24.0125C20.772 23.9926 20.772 23.9793 20.7786 23.966V23.9594C20.8052 23.8399 20.8251 23.7203 20.8517 23.6008C20.9048 23.3817 21.0111 23.1692 21.0708 22.95C21.0908 22.9168 21.104 22.877 21.124 22.8438C21.1704 22.7442 21.2236 22.6512 21.2833 22.5582C21.3431 22.4586 21.4095 22.359 21.4759 22.266C21.5025 22.2262 21.5622 22.1531 21.5755 22.1399C21.7349 21.9539 21.9076 21.7813 22.0868 21.6219C22.1134 21.602 22.1333 21.582 22.1599 21.5621C22.213 21.5488 22.4786 21.343 22.5052 21.3297C22.5982 21.2766 22.6911 21.2168 22.7908 21.1703C22.8173 21.157 22.8771 21.1172 22.9302 21.084C22.9302 21.084 22.9302 21.084 22.9368 21.084C23.1294 20.9777 23.3884 20.9313 23.5876 20.8781C23.6939 20.8516 23.7935 20.8317 23.8997 20.8117C23.9197 20.8051 23.9396 20.8051 23.9529 20.8051C24.2118 20.8051 24.4642 20.7852 24.7232 20.7984C24.7497 20.7984 24.8095 20.8051 24.8693 20.8051C24.8826 20.8051 24.9091 20.8051 24.9556 20.8117C25.0154 20.825 25.0751 20.8317 25.1349 20.8383C25.374 20.8914 25.6064 20.9512 25.8388 21.0375C25.8587 21.0442 25.8786 21.0508 25.8986 21.0574H25.9052C25.9982 21.1106 26.0978 21.1504 26.1974 21.2035C26.3103 21.2633 26.4165 21.3297 26.5161 21.3961C26.556 21.4227 26.5958 21.4492 26.6357 21.4758V21.4692C26.6357 21.4692 26.6357 21.4758 26.6423 21.4758C26.7486 21.5488 26.7419 21.5621 26.7087 21.5422C26.7884 21.6086 26.9013 21.6883 26.9279 21.7082C27.0142 21.7879 27.0939 21.8676 27.1736 21.9473C27.2533 22.027 27.3263 22.1133 27.3993 22.1996C27.4193 22.2262 27.4326 22.2395 27.4458 22.2527C27.4658 22.2859 27.4857 22.3258 27.5056 22.3524C27.5853 22.4719 27.6583 22.5914 27.7247 22.7109C27.7513 22.7574 27.8044 22.8371 27.8443 22.9102C27.8443 22.9234 27.8509 22.9434 27.8642 22.9832C27.8908 23.0563 27.9173 23.1293 27.9439 23.2024C27.9904 23.3352 28.0236 23.4613 28.0568 23.6008C28.0833 23.7203 28.1099 23.8399 28.1298 23.9594C28.1365 23.9859 28.1365 23.9992 28.1431 24.0125C28.1431 24.0524 28.1431 24.0922 28.1431 24.0988C28.1564 24.3445 28.1497 24.6035 28.1298 24.8625ZM47.2349 43.9477C47.2349 43.9609 47.2349 43.9676 47.2283 43.9809C47.2283 43.9676 47.215 44.0207 47.215 44.1004C47.1951 44.2199 47.1685 44.3328 47.1353 44.4524C47.1021 44.5852 47.0622 44.718 47.0158 44.8442C47.0025 44.884 46.9892 44.9238 46.9759 44.957C46.9029 45.0168 46.8431 45.2359 46.79 45.3223C46.7236 45.4418 46.6439 45.568 46.5708 45.6809C46.5642 45.6875 46.5443 45.7141 46.5243 45.7406C46.5509 45.7141 46.5642 45.7074 46.4911 45.7871C46.4845 45.7938 46.4712 45.807 46.4646 45.8137C46.4579 45.8203 46.4579 45.827 46.4579 45.827C46.4579 45.827 46.4579 45.827 46.4579 45.8203C46.365 45.9332 46.2654 46.0395 46.1658 46.1391C46.0728 46.232 45.9798 46.3184 45.8802 46.4047C45.8603 46.4246 45.8337 46.4445 45.8138 46.4645C45.6013 46.5973 45.4021 46.7367 45.1763 46.8563C45.1365 46.8762 45.0966 46.8895 45.0634 46.9094C44.9638 46.9426 44.8642 46.9891 44.7712 47.0223C44.5388 47.102 44.3064 47.1551 44.0607 47.2016H44.054C44.0408 47.2016 44.0275 47.2016 44.0076 47.2082C43.9013 47.2149 43.7951 47.2215 43.6888 47.2281C43.5693 47.2281 43.4497 47.2281 43.3236 47.2281C43.2638 47.2281 43.204 47.2215 43.1443 47.2149C43.1111 47.2149 42.9783 47.1883 42.965 47.1883C42.965 47.1883 42.965 47.1883 42.9716 47.1883C42.9251 47.1817 42.8853 47.1684 42.8654 47.1684C42.7458 47.1418 42.6263 47.1152 42.5134 47.082C42.4072 47.0555 42.3076 47.0223 42.2079 46.9824C42.1681 46.9692 42.1283 46.9492 42.0884 46.9359C42.0818 46.9293 42.0685 46.9227 42.0552 46.9227C41.8626 46.8231 41.6701 46.7234 41.4841 46.6039C41.4443 46.5774 41.4044 46.5508 41.3646 46.5242C41.3513 46.5176 41.3447 46.5109 41.3314 46.5043C41.2384 46.4445 41.2716 46.4379 41.3115 46.4645C41.2384 46.3981 41.1189 46.325 41.0857 46.2918C40.9197 46.1324 40.7669 45.9664 40.6142 45.7938C40.5876 45.7606 40.5677 45.7274 40.5411 45.6875C40.4615 45.568 40.3884 45.4484 40.322 45.3289C40.2689 45.2359 40.2224 45.1363 40.1693 45.0434C40.156 45.0234 40.1493 45.0102 40.1427 44.9969C40.1361 44.977 40.1294 44.957 40.1228 44.9371C40.0365 44.7113 39.9701 44.4723 39.9236 44.2332C39.9169 44.2133 39.9103 44.1602 39.897 44.1137C39.9103 44.1668 39.8771 43.9145 39.8704 43.868C39.8572 43.609 39.8572 43.35 39.8837 43.0977C39.8837 43.0777 39.8837 43.0645 39.8904 43.0512V43.0445C39.9169 42.925 39.9368 42.8055 39.9634 42.6859C40.0165 42.4668 40.1228 42.2543 40.1826 42.0352C40.2025 41.9953 40.2158 41.9621 40.2357 41.9289C40.2888 41.8293 40.3353 41.7363 40.3951 41.6434C40.4548 41.5438 40.5146 41.4508 40.581 41.3578C40.6075 41.3246 40.6673 41.2383 40.6872 41.225C40.8466 41.0391 41.0193 40.8664 41.1986 40.707C41.2251 40.6871 41.2451 40.6672 41.2716 40.6406C41.3247 40.6274 41.5904 40.4215 41.6169 40.4082C41.7099 40.3484 41.8029 40.2953 41.9025 40.2488C41.929 40.2356 41.9954 40.1957 42.0486 40.1625C42.2411 40.0629 42.5001 40.0098 42.6993 39.9633C42.8056 39.9367 42.9052 39.9035 43.0115 39.8836C43.0314 39.877 43.0447 39.8637 43.0646 39.8637C43.3236 39.8637 43.5759 39.8371 43.8349 39.857C43.8615 39.857 43.9212 39.8637 43.981 39.8637C43.9876 39.8637 44.0009 39.8703 44.0142 39.8703C44.0806 39.8703 44.1337 39.877 44.147 39.8969C44.1404 39.8969 44.0872 39.8902 44.0408 39.877C44.0474 39.877 44.054 39.877 44.0673 39.8836C44.1271 39.8969 44.1868 39.9102 44.2466 39.9168C44.4857 39.9699 44.7181 40.0363 44.9505 40.1227C44.9704 40.1293 44.997 40.1426 45.0169 40.1492C45.1099 40.2024 45.2095 40.2422 45.3091 40.2953C45.4154 40.3551 45.5283 40.4215 45.6279 40.4879C45.6677 40.5145 45.7076 40.541 45.7474 40.5676V40.5609C45.7474 40.5609 45.7474 40.5676 45.754 40.5676C45.8536 40.6406 45.8536 40.6539 45.8271 40.6406C45.9068 40.707 46.013 40.7801 46.0396 40.8067C46.1259 40.8863 46.2056 40.966 46.2853 41.0457C46.365 41.1254 46.438 41.2117 46.5111 41.2981C46.531 41.3246 46.5443 41.3379 46.5576 41.3512C46.5775 41.3844 46.5974 41.4242 46.6173 41.4442C46.697 41.5637 46.7701 41.6832 46.8365 41.8027C46.863 41.8492 46.9161 41.9289 46.956 42.002C46.956 42.0152 46.9626 42.0352 46.9759 42.075C47.0025 42.1481 47.029 42.2211 47.0556 42.2942C47.1021 42.427 47.1353 42.5531 47.1685 42.6859C47.1951 42.8055 47.2216 42.925 47.2415 43.0445C47.2482 43.0711 47.2482 43.0844 47.2548 43.0977C47.2548 43.1375 47.2548 43.1774 47.2548 43.184C47.2548 43.4297 47.2548 43.6887 47.2349 43.9477Z" fill="#39D24E"/>
<path d="M63.1992 24.5504C62.243 21.5953 60.8352 18.7863 59.0289 16.2563C57.2293 13.7328 55.0778 11.5082 52.6207 9.62228C50.1703 7.74299 47.441 6.24885 44.5457 5.18635C41.5442 4.084 38.3633 3.46643 35.1692 3.34689C31.9551 3.22736 28.7078 3.60588 25.6133 4.48244C22.6383 5.3258 19.7762 6.634 17.193 8.334C14.6231 10.0207 12.3055 12.0926 10.3531 14.4633C8.36759 16.8672 6.7672 19.5434 5.58517 22.4254C4.38322 25.3539 3.65939 28.475 3.41368 31.6293C3.16134 34.8633 3.42697 38.1504 4.19728 41.3047C4.93439 44.3195 6.14298 47.2348 7.75001 49.8844C9.33712 52.5008 11.3227 54.8848 13.607 56.9168C15.918 58.9688 18.5277 60.6754 21.3367 61.9504C24.2453 63.2653 27.3199 64.1086 30.4875 64.4805C33.7082 64.8524 36.982 64.7063 40.1629 64.0621C43.2309 63.4446 46.2059 62.3289 48.9418 60.8082C51.6113 59.3141 54.0684 57.4149 56.1801 55.2035C58.2985 52.9856 60.0914 50.4488 61.4594 47.7063C62.8672 44.884 63.8434 41.8559 64.3149 38.7414C64.5539 37.1742 64.6801 35.5938 64.6801 34.0133V34C64.6735 30.7992 64.182 27.5918 63.1992 24.5504ZM18.302 22.8836C18.9594 20.234 21.2902 18.3945 23.9598 18.1223C26.4965 17.8699 29.1129 19.384 30.1754 21.6949C31.291 24.1188 30.8527 26.9543 28.9934 28.8867C28.9801 28.9067 28.9602 28.9199 28.9469 28.9399C28.927 28.9598 28.907 28.9797 28.8871 28.9996C26.782 31.0117 23.4219 31.4168 20.9715 29.7633C18.7402 28.2492 17.6512 25.5199 18.302 22.8836ZM30.8793 39.0004C28.8672 41.0125 26.8617 43.018 24.8496 45.0301C24.0195 45.8602 23.1828 46.6969 22.3527 47.5336C21.8281 48.0582 21.0047 48.0184 20.4734 47.5336C19.9422 47.0488 19.982 46.1457 20.4734 45.6543C20.4867 45.641 20.5 45.6278 20.5133 45.6145C21.5094 44.5719 22.552 43.5758 23.5746 42.5531C25.6664 40.4613 27.7649 38.3629 29.8567 36.2711C32.2805 33.8473 34.7043 31.4235 37.1281 28.9996C39.1402 26.9875 41.1457 24.982 43.1578 22.9699C43.9879 22.1399 44.8246 21.3031 45.6547 20.4731C46.1793 19.9485 47.0027 19.9883 47.534 20.4731C48.0652 20.9578 48.0254 21.861 47.534 22.3524C47.5207 22.3656 47.5074 22.3789 47.4942 22.3922C46.4981 23.4348 45.4555 24.4309 44.4328 25.4535C42.341 27.5453 40.2426 29.6438 38.1508 31.7356L30.8793 39.0004ZM48.0984 47.9785C48.0852 47.9985 48.0652 48.0117 48.052 48.0317C48.032 48.0516 48.0121 48.0715 47.9922 48.0914C45.8871 50.1035 42.527 50.5086 40.0766 48.8551C37.8453 47.341 36.7496 44.6117 37.407 41.9754C38.0645 39.3258 40.3953 37.4863 43.0649 37.2207C45.6016 36.9684 48.218 38.4824 49.2805 40.7934C50.3895 43.2106 49.9512 46.0461 48.0984 47.9785Z" fill="#39D24E"/>
</svg>
