<svg width="110" height="110" viewBox="0 0 110 110" fill="none" xmlns="http://www.w3.org/2000/svg">
<path d="M55 25.2083C24.1588 25.2083 0 38.2937 0 54.9999C0 71.7062 24.1588 84.7916 55 84.7916C85.8413 84.7916 110 71.7062 110 54.9999C110 38.2937 85.8413 25.2083 55 25.2083ZM49.2892 34.3749H55.2933L53.3867 43.5416H58.7492C62.15 43.5416 64.4325 44.0182 65.7342 45.2053C67.0038 46.3787 67.3888 48.3037 66.88 50.9253L64.4967 61.8749H58.3917L60.5871 51.7503C60.8529 50.3616 60.7475 49.3945 60.28 48.8858C59.8171 48.377 58.795 48.1249 57.2642 48.1249H52.4562L49.555 61.8749H43.5417L49.2892 34.3749ZM22.9167 43.5416H35.1358C40.9613 43.5416 44.4904 47.4466 43.1108 53.272C41.5067 60.0416 37.2167 61.8749 29.315 61.8749H25.5383L24.3421 68.7499H18.2692L22.9167 43.5416ZM71.0417 43.5416H83.2608C89.0863 43.5416 92.6154 47.4466 91.2358 53.272C89.6317 60.0416 85.3371 61.8749 77.44 61.8749H73.6633L72.4671 68.7499H66.3942L71.0417 43.5416ZM28.1188 48.1249L26.3908 57.2916H30.3096C33.7013 57.2916 36.8546 56.9066 37.3817 51.8512C37.5788 49.8895 36.7629 48.1249 32.8442 48.1249H28.1188ZM76.2438 48.1249L74.5158 57.2916H78.4346C81.8263 57.2916 84.9796 56.9066 85.5067 51.8512C85.7038 49.8895 84.8925 48.1249 80.9692 48.1249H76.2438Z" fill="#A7BED3"/>
</svg>
