<svg width="10" height="10" viewBox="0 0 10 10" fill="none" xmlns="http://www.w3.org/2000/svg">
<path d="M8.99967 5.66536H5.66634V8.9987C5.66634 9.17551 5.5961 9.34508 5.47108 9.4701C5.34605 9.59513 5.17649 9.66536 4.99967 9.66536C4.82286 9.66536 4.65329 9.59513 4.52827 9.4701C4.40325 9.34508 4.33301 9.17551 4.33301 8.9987V5.66536H0.999674C0.822863 5.66536 0.653294 5.59513 0.52827 5.4701C0.403246 5.34508 0.333008 5.17551 0.333008 4.9987C0.333008 4.82189 0.403246 4.65232 0.52827 4.52729C0.653294 4.40227 0.822863 4.33203 0.999674 4.33203H4.33301V0.998698C4.33301 0.821887 4.40325 0.652317 4.52827 0.527293C4.65329 0.402269 4.82286 0.332031 4.99967 0.332031C5.17649 0.332031 5.34605 0.402269 5.47108 0.527293C5.5961 0.652317 5.66634 0.821887 5.66634 0.998698V4.33203H8.99967C9.17649 4.33203 9.34606 4.40227 9.47108 4.52729C9.5961 4.65232 9.66634 4.82189 9.66634 4.9987C9.66634 5.17551 9.5961 5.34508 9.47108 5.4701C9.34606 5.59513 9.17649 5.66536 8.99967 5.66536Z" fill="white"/>
</svg>
