<svg width="60" height="60" viewBox="0 0 60 60" fill="none" xmlns="http://www.w3.org/2000/svg">
<g clip-path="url(#clip0_115_5481)">
<path d="M30 0C13.4306 0 0 13.4306 0 30C0 46.5694 13.4306 60 30 60C46.5694 60 60 46.5694 60 30C60 13.4306 46.5694 0 30 0ZM20.67 12.5353C21.2552 12.4383 21.8561 12.5375 22.3791 12.8175L30.7509 17.6845C31.1362 17.8858 31.4575 18.1909 31.6782 18.5654C31.8989 18.9399 32.0103 19.3687 31.9997 19.8033V23.0822L28.0955 25.4095V22.0266C28.0814 21.5944 27.9574 21.1731 27.7351 20.8022C27.5128 20.4314 27.1996 20.1234 26.8252 19.9073L22.275 17.3672C21.8844 17.158 21.4482 17.0486 21.0052 17.0486C20.5621 17.0486 20.1259 17.158 19.7353 17.3672L15.1852 19.9069C14.7961 20.1055 14.4706 20.4094 14.2459 20.784C14.0212 21.1586 13.9063 21.5889 13.9144 22.0256V27.3108C13.9284 27.7429 14.0525 28.1643 14.2747 28.5351C14.497 28.9059 14.8102 29.2139 15.1847 29.43L19.7353 32.078C20.1262 32.2863 20.5623 32.3952 21.0052 32.3952C21.4481 32.3952 21.8841 32.2863 22.275 32.078L28.0003 28.6903L31.9997 26.4675L37.725 23.0817C38.1159 22.8734 38.5519 22.7645 38.9948 22.7645C39.4377 22.7645 39.8738 22.8734 40.2647 23.0817L48.7298 27.9459C49.1189 28.144 49.4444 28.4476 49.6692 28.8219C49.8939 29.1963 50.0087 29.6263 50.0006 30.0628V39.9066C49.987 40.3369 49.8642 40.7567 49.6438 41.1266C49.4234 41.4965 49.1126 41.8043 48.7406 42.0211L40.2759 46.8891C39.885 47.0982 39.4485 47.2077 39.0052 47.2077C38.5618 47.2077 38.1253 47.0982 37.7344 46.8891L29.2692 42.0234C28.8804 41.8247 28.5552 41.5207 28.3308 41.1461C28.1065 40.7714 27.9919 40.3413 28.0003 39.9047V36.5203L31.8 34.2994V37.6978C31.8143 38.1294 31.9385 38.5503 32.1607 38.9205C32.383 39.2908 32.6961 39.5982 33.0703 39.8137L37.6209 42.3534C38.0115 42.5626 38.4477 42.6721 38.8908 42.6721C39.3338 42.6721 39.7701 42.5626 40.1606 42.3534L44.7108 39.7097C45.0993 39.5113 45.4242 39.2077 45.6486 38.8336C45.8729 38.4595 45.9876 38.0299 45.9797 37.5938V32.408C45.9659 31.976 45.8421 31.5548 45.6201 31.184C45.398 30.8133 45.0851 30.5053 44.7108 30.2892L40.1606 27.75C39.7698 27.5417 39.3337 27.4328 38.8908 27.4328C38.4479 27.4328 38.0118 27.5417 37.6209 27.75L31.9153 31.0205L28.0003 33.3478L22.275 36.6291C21.8841 36.8374 21.4481 36.9463 21.0052 36.9463C20.5623 36.9463 20.1262 36.8374 19.7353 36.6291L11.2702 31.7503C10.8826 31.5528 10.5582 31.2507 10.3336 30.8782C10.109 30.5057 9.99319 30.0777 9.99938 29.6428V19.8028C9.97727 19.35 10.0982 18.9017 10.345 18.5214C10.5919 18.1412 10.9521 17.8482 11.3747 17.6841L19.8394 12.8175C20.0989 12.6786 20.3795 12.5833 20.67 12.5353Z" fill="#A7BED3"/>
</g>
<defs>
<clipPath id="clip0_115_5481">
<rect width="60" height="60" fill="white"/>
</clipPath>
</defs>
</svg>
