<svg width="130" height="24" viewBox="0 0 130 24" fill="none" xmlns="http://www.w3.org/2000/svg">
<path d="M25.7545 12.2496C25.7272 12.0859 25.7272 11.9495 25.7272 11.7858C25.7272 10.449 26.1637 9.385 27.064 8.62109C27.8825 7.88447 28.9465 7.50252 30.0378 7.50252C31.4565 7.50252 32.4659 8.02088 33.0116 9.11217L25.7545 12.2496ZM36.149 10.3126C36.1763 8.81207 35.5215 7.39339 34.3484 6.43851C33.1753 5.45635 31.6747 4.93799 29.9014 4.93799C28.7828 4.93799 27.6642 5.18353 26.6821 5.70189C25.6453 6.24753 24.745 7.03872 24.1175 8.04817C23.4082 9.13946 23.0535 10.4217 23.0808 11.7313C23.0808 13.7502 23.7356 15.3598 25.0724 16.5875C26.3547 17.7879 28.0735 18.47 29.8468 18.4427C31.9748 18.4427 33.8027 17.6242 35.3578 16.0146L33.7482 14.214C32.8751 15.3325 31.5383 15.96 30.1196 15.9327C28.6464 15.9327 27.5005 15.4144 26.6275 14.3777L36.149 10.3672V10.3126Z" fill="#A7BED3"/>
<path d="M19.916 5.78356C19.1521 6.30192 18.5246 7.01126 18.0881 7.80244V5.15606H15.3599V18.2243H18.1154V12.6314C18.1154 11.1309 18.47 9.95774 19.1521 9.05743C19.8342 8.15711 20.8436 7.72059 22.2077 7.72059H22.3441V4.96509C21.4711 4.99237 20.6253 5.26519 19.916 5.78356Z" fill="#A7BED3"/>
<path d="M46.0252 11.5947C45.6433 11.3219 45.2068 11.1037 44.7703 10.9127C44.3883 10.749 43.9791 10.5853 43.5698 10.4762C43.1606 10.3398 42.6968 10.2306 42.1784 10.0942C41.7419 9.98509 41.3327 9.84868 40.9235 9.68499C40.5142 9.54857 40.2687 9.16662 40.2687 8.73011C40.2414 8.29359 40.4869 7.85707 40.8962 7.6661C41.3873 7.42056 41.9329 7.31142 42.4785 7.31142C43.7335 7.31142 44.9339 7.6661 45.9707 8.37544L47.0074 6.32927C45.7524 5.45624 44.2519 4.99243 42.7241 4.99243C41.1963 4.99243 39.9959 5.3471 39.041 6.11101C38.1134 6.79306 37.595 7.88436 37.6496 9.03021C37.6496 10.749 39.0137 11.9767 41.7146 12.7133C41.7692 12.7406 41.8783 12.7679 42.0147 12.7952C43.7335 13.3135 44.6066 13.9137 44.6066 14.5685C44.6066 15.005 44.4156 15.4143 44.0882 15.6598C43.6517 15.9599 43.1333 16.1236 42.615 16.0963C41.1963 16.0963 39.723 15.5234 38.1952 14.3775L36.8584 16.5328C37.6769 17.1603 38.6045 17.6514 39.5866 17.9788C40.5415 18.3062 41.5509 18.4699 42.5604 18.4972C43.9791 18.4972 45.1249 18.1152 46.0525 17.3786C46.9528 16.642 47.4439 15.5507 47.4166 14.3775C47.3348 13.068 46.8983 12.1677 46.0252 11.5947Z" fill="#A7BED3"/>
<path d="M9.57608 9.65764C9.00315 10.2851 7.88458 10.5852 6.27492 10.5852H2.9192V3.7101H5.86569C7.42078 3.7101 8.59391 3.95564 9.35782 4.44672C10.0944 4.9378 10.4764 5.78356 10.4764 6.95669C10.4491 8.10255 10.149 9.03014 9.57608 9.65764ZM11.6222 2.56425C10.4218 1.58208 8.51207 1.06372 5.92025 1.06372H0V18.2516H2.9192V13.177H5.97482C8.51207 13.177 10.3673 12.686 11.595 11.7311C12.8227 10.7489 13.4502 9.24841 13.4502 7.14767C13.4229 5.07422 12.8227 3.54641 11.6222 2.56425Z" fill="#A7BED3"/>
<path d="M53.7732 16.0417C53.2549 16.069 52.7365 15.878 52.3818 15.496C52.0545 15.0868 51.8635 14.5412 51.8908 13.9955V7.36593H55.3556V5.15606H51.8908V1.06372H49.1353V13.9682C49.1353 15.3596 49.5445 16.4236 50.3902 17.2694C51.1814 18.0606 52.2727 18.4971 53.3913 18.4971C54.5644 18.4971 55.6284 18.0606 56.5833 17.1875L55.4647 15.2505C54.9464 15.7689 54.3734 16.0417 53.7732 16.0417Z" fill="#A7BED3"/>
<path d="M66.4051 14.7868C65.6957 15.578 64.6863 16.0145 63.6495 15.9872C62.5855 15.9872 61.5761 15.578 60.8122 14.8141C59.9937 14.0229 59.6118 12.9862 59.6118 11.7585C59.5845 10.6126 59.9937 9.46675 60.7849 8.621C61.4942 7.82981 62.531 7.36601 63.6223 7.36601C64.6863 7.33873 65.6957 7.80253 66.4051 8.621C67.169 9.43947 67.5236 10.5035 67.5236 11.7585C67.5509 12.877 67.1417 13.9683 66.4051 14.7868ZM67.4964 7.42058C66.3778 5.78364 64.9591 4.96518 63.2403 4.96518C61.5761 4.93789 59.9392 5.59266 58.766 6.79308C57.511 8.02078 56.8835 9.63044 56.8835 11.6493C56.8835 13.6682 57.511 15.3324 58.7387 16.5874C59.8573 17.7878 61.4397 18.4699 63.0766 18.4426C63.9224 18.4426 64.7681 18.2244 65.532 17.8424C66.3232 17.4332 67.0325 16.8602 67.5236 16.1236V18.2789H70.2791V5.21071H67.4964V7.42058Z" fill="#A7BED3"/>
<path d="M111.039 14.7867C109.375 16.3964 106.756 16.3964 105.091 14.7867C104.3 13.9682 103.918 12.9588 103.918 11.7038C103.918 10.4488 104.3 9.4121 105.091 8.62091C106.756 7.01126 109.375 7.01126 111.039 8.62091C111.83 9.43938 112.212 10.4488 112.212 11.7038C112.212 12.9588 111.83 13.9955 111.039 14.7867ZM108.092 4.96509C106.128 4.96509 104.464 5.61986 103.154 6.92941C100.535 9.57579 100.535 13.8591 103.154 16.5055C104.464 17.815 106.101 18.4698 108.092 18.4698C110.084 18.4698 111.694 17.815 113.03 16.5055C115.65 13.8591 115.65 9.57579 113.03 6.92941C111.694 5.61986 110.057 4.96509 108.092 4.96509Z" fill="#A7BED3"/>
<path d="M126.017 14.7868C125.28 15.5507 124.244 15.9599 123.18 15.9599C122.116 15.9872 121.133 15.5507 120.424 14.7595C119.66 13.941 119.305 12.9316 119.305 11.7039C119.305 10.4762 119.66 9.41218 120.424 8.59371C121.133 7.80253 122.143 7.33873 123.207 7.33873C124.298 7.33873 125.308 7.77525 126.044 8.59371C126.835 9.43946 127.272 10.5853 127.217 11.7312C127.217 12.9862 126.808 14.0229 126.017 14.7868ZM128.118 6.79308C126.917 5.59266 125.308 4.93789 123.616 4.96518C121.87 4.96518 120.451 5.78364 119.36 7.44785V5.18343H116.604V23.026H119.36V16.2873C120.67 17.7333 122.143 18.4426 123.807 18.4426C125.471 18.4426 126.89 17.8151 128.145 16.5601C129.4 15.3052 130 13.6682 130 11.622C130 9.57588 129.345 7.9935 128.118 6.79308Z" fill="#A7BED3"/>
<path d="M94.7784 4.96513C93.8781 4.96513 92.9778 5.21067 92.2139 5.64719C91.45 6.08371 90.8225 6.73848 90.4406 7.52966V-0.000244141H87.6851V18.2243H90.4406V11.1582C90.4406 9.9305 90.7952 9.0029 91.5046 8.40269C92.1866 7.7752 93.0869 7.44781 93.9873 7.44781C95.9789 7.44781 96.9883 8.64824 96.9883 11.0764V18.2516H99.7438V10.2033C99.7438 8.51182 99.28 7.17499 98.3797 6.27468C97.4794 5.40165 96.2517 4.96513 94.7784 4.96513Z" fill="#A7BED3"/>
<path d="M84.384 9.95762C83.4837 9.19372 82.1742 8.5935 80.4008 8.15699C78.6275 7.72047 77.4816 7.33852 76.936 6.95657C76.4176 6.6019 76.1175 6.00169 76.1175 5.3742C76.0902 4.74671 76.3903 4.14649 76.936 3.81911C77.5635 3.46444 78.2728 3.27346 79.0094 3.30075C79.8824 3.30075 80.7555 3.43716 81.5739 3.73726C82.3379 3.9828 83.0472 4.36475 83.6474 4.85583L85.2025 2.67325C84.384 1.9912 83.4291 1.47283 82.3924 1.14544C81.3284 0.790775 80.2371 0.599801 79.1185 0.627083C77.427 0.627083 75.9811 1.0636 74.8352 1.90935C73.6894 2.7551 73.1164 4.01008 73.1164 5.59246C73.1164 7.17483 73.6348 8.34796 74.6443 9.13915C75.1626 9.54838 75.7628 9.90306 76.3903 10.1213C77.3179 10.4487 78.3001 10.7488 79.2822 10.9398C80.5372 11.2399 81.4103 11.5946 81.9559 11.9492C82.4743 12.3039 82.7471 12.8768 82.7471 13.5043C82.7744 14.1318 82.447 14.732 81.9286 15.0867C81.383 15.4686 80.6464 15.6869 79.6915 15.6869C77.8363 15.6869 76.0357 14.923 74.2896 13.4225L72.4617 15.6051C74.5351 17.4602 76.936 18.3878 79.6096 18.3878C81.4648 18.3878 82.9381 17.924 84.0566 16.9964C85.1479 16.1234 85.7754 14.7593 85.7481 13.3406C85.7209 11.8401 85.2571 10.7761 84.384 9.95762Z" fill="#A7BED3"/>
</svg>
