<svg width="60" height="60" viewBox="0 0 60 60" fill="none" xmlns="http://www.w3.org/2000/svg">
<path d="M52.5 5H37.5C36 5 35 6 35 7.5C35 9 36 10 37.5 10H50V22.5C50 24 51 25 52.5 25C54 25 55 24 55 22.5V7.5C55 6 54 5 52.5 5ZM7.5 25C9 25 10 24 10 22.5V10H22.5C24 10 25 9 25 7.5C25 6 24 5 22.5 5H7.5C6 5 5 6 5 7.5V22.5C5 24 6 25 7.5 25ZM22.5 50H10V37.5C10 36 9 35 7.5 35C6 35 5 36 5 37.5V52.5C5 54 6 55 7.5 55H22.5C24 55 25 54 25 52.5C25 51 24 50 22.5 50ZM52.5 35C51 35 50 36 50 37.5V50H37.5C36 50 35 51 35 52.5C35 54 36 55 37.5 55H52.5C54 55 55 54 55 52.5V37.5C55 36 54 35 52.5 35ZM30 15C25.75 15 22.5 18.25 22.5 22.5V25C19.75 25 17.5 27.25 17.5 30V40C17.5 42.75 19.75 45 22.5 45H37.5C40.25 45 42.5 42.75 42.5 40V30C42.5 27.25 40.25 25 37.5 25V22.5C37.5 18.25 34.25 15 30 15ZM32.5 25H27.5V22.5C27.5 21 28.5 20 30 20C31.5 20 32.5 21 32.5 22.5V25Z" fill="#39D24E"/>
</svg>
