<svg width="120" height="28" viewBox="0 0 120 28" fill="none" xmlns="http://www.w3.org/2000/svg">
<g opacity="0.6" clip-path="url(#clip0_17_36)">
<path d="M27.9862 13.8765C27.9862 21.5399 21.7544 27.7531 14.068 27.7531C6.38056 27.7531 0.149719 21.5399 0.149719 13.8765C0.149719 6.21208 6.38103 -0.00012207 14.068 -0.00012207C21.7544 -0.00012207 27.9862 6.21256 27.9862 13.8765Z" fill="#39D24E"/>
<path d="M15.9234 13.8765H11.9802V9.71355H15.9234C16.1976 9.71355 16.4691 9.76739 16.7224 9.872C16.9757 9.9766 17.2058 10.1299 17.3997 10.3232C17.5935 10.5165 17.7473 10.746 17.8522 10.9985C17.9572 11.251 18.0112 11.5217 18.0112 11.795C18.0112 12.0684 17.9572 12.3391 17.8522 12.5916C17.7473 12.8441 17.5935 13.0736 17.3997 13.2669C17.2058 13.4602 16.9757 13.6135 16.7224 13.7181C16.4691 13.8227 16.1976 13.8765 15.9234 13.8765ZM15.9234 6.93823H9.19659V20.8148H11.9802V16.6519H15.9234C18.6138 16.6519 20.7948 14.4774 20.7948 11.795C20.7948 9.11274 18.6138 6.93823 15.9234 6.93823Z" fill="#010502"/>
<path d="M42.6075 12.1803C42.6075 11.4167 42.0192 10.954 41.2547 10.954H39.2055V13.3924H41.2552C42.0197 13.3924 42.6075 12.9296 42.6075 12.1803ZM37.2649 18.5016V9.25073H41.5275C43.5095 9.25073 44.5882 10.5862 44.5882 12.1803C44.5882 13.7606 43.4957 15.0956 41.5275 15.0956H39.2055V18.5016H37.2649ZM45.7696 18.5016V11.7574H47.5037V12.643C47.982 12.0707 48.7889 11.5942 49.609 11.5942V13.2832C49.4852 13.2562 49.3353 13.2429 49.1306 13.2429C48.5566 13.2429 47.7907 13.5694 47.5037 13.9927V18.5016H45.7696ZM55.4467 15.041C55.4467 14.0193 54.844 13.1337 53.7512 13.1337C52.6711 13.1337 52.0709 14.0193 52.0709 15.0415C52.0709 16.0766 52.6711 16.9621 53.7512 16.9621C54.844 16.9621 55.4467 16.0766 55.4467 15.041ZM50.2664 15.041C50.2664 13.175 51.5782 11.5942 53.7512 11.5942C55.9379 11.5942 57.2498 13.1745 57.2498 15.041C57.2498 16.9075 55.9379 18.5016 53.7512 18.5016C51.5782 18.5016 50.2664 16.9075 50.2664 15.041ZM63.0893 16.2128V13.8831C62.8023 13.4465 62.174 13.1337 61.5994 13.1337C60.6027 13.1337 59.9192 13.9101 59.9192 15.0415C59.9192 16.1852 60.6027 16.9621 61.5994 16.9621C62.174 16.9621 62.8023 16.6494 63.0893 16.2128ZM63.0893 18.5016V17.4936C62.5695 18.1471 61.8598 18.5016 61.053 18.5016C59.3998 18.5016 58.1289 17.2488 58.1289 15.041C58.1289 12.9026 59.3727 11.5942 61.053 11.5942C61.8317 11.5942 62.5695 11.9216 63.0893 12.6022V9.25073H64.8381V18.5016H63.0893ZM71.0195 18.5016V17.5069C70.5692 17.9976 69.7766 18.5016 68.6966 18.5016C67.2486 18.5016 66.5656 17.7115 66.5656 16.4306V11.7574H68.3001V15.7496C68.3001 16.6627 68.7785 16.9621 69.5163 16.9621C70.1855 16.9621 70.7191 16.5943 71.0195 16.2123V11.7574H72.755V18.5016H71.0195ZM74.0583 15.041C74.0583 13.025 75.5339 11.5942 77.5569 11.5942C78.9097 11.5942 79.7293 12.1803 80.1668 12.7797L79.032 13.8418C78.7183 13.3786 78.2399 13.1337 77.6387 13.1337C76.5863 13.1337 75.849 13.8968 75.849 15.0415C75.849 16.1852 76.5863 16.9621 77.6387 16.9621C78.2399 16.9621 78.7183 16.6897 79.032 16.2398L80.1668 17.3029C79.7293 17.9023 78.9097 18.5016 77.5569 18.5016C75.5339 18.5016 74.0583 17.0713 74.0583 15.041ZM81.659 16.6897V13.2699H80.5661V11.7574H81.659V9.9588H83.395V11.7574H84.733V13.2699H83.395V16.2265C83.395 16.6489 83.6125 16.9621 83.9957 16.9621C84.2547 16.9621 84.5022 16.8667 84.5964 16.7581L84.9663 18.0788C84.7069 18.3113 84.2418 18.5016 83.5173 18.5016C82.3012 18.5016 81.659 17.8752 81.659 16.6897ZM95.8495 18.5016V14.5095H91.5446V18.5016H89.6054V9.25073H91.5446V12.82H95.8495V9.25121H97.8035V18.5016H95.8495ZM104.014 18.5016V17.5069C103.563 17.9976 102.771 18.5016 101.691 18.5016C100.243 18.5016 99.5595 17.7115 99.5595 16.4306V11.7574H101.294V15.7496C101.294 16.6627 101.772 16.9621 102.511 16.9621C103.18 16.9621 103.714 16.5943 104.014 16.2123V11.7574H105.749V18.5016H104.014ZM111.929 18.5016V14.3605C111.929 13.4474 111.452 13.1342 110.713 13.1342C110.03 13.1342 109.511 13.5157 109.21 13.8973V18.5021H107.475V11.7574H109.21V12.6022C109.634 12.112 110.454 11.5942 111.519 11.5942C112.982 11.5942 113.679 12.4114 113.679 13.6918V18.5016H111.929H111.929ZM115.746 16.6897V13.2699H114.654V11.7574H115.747V9.9588H117.483V11.7574H118.821V13.2699H117.483V16.2265C117.483 16.6489 117.701 16.9621 118.083 16.9621C118.343 16.9621 118.59 16.8667 118.685 16.7581L119.054 18.0788C118.795 18.3113 118.329 18.5016 117.605 18.5016C116.389 18.5016 115.746 17.8752 115.746 16.6897Z" fill="#39D24E"/>
</g>
<defs>
<clipPath id="clip0_17_36">
<rect width="119" height="28" fill="white" transform="translate(0.149719 -0.00012207)"/>
</clipPath>
</defs>
</svg>
