<svg width="30" height="30" viewBox="0 0 30 30" fill="none" xmlns="http://www.w3.org/2000/svg">
<path d="M28.4286 14.6984C28.4286 12.992 27.0396 11.6042 25.3341 11.6042C24.5952 11.6042 23.904 11.8745 23.3463 12.3473C23.3283 12.3584 23.3097 12.3689 23.292 12.3803C21.2799 11.093 18.6117 10.271 15.6603 10.1594L17.4219 5.14997L21.8187 6.20117C21.8223 7.59107 22.953 8.72117 24.3447 8.72117C25.7373 8.72117 26.8713 7.58807 26.8713 6.19487C26.8713 4.80107 25.7373 3.66797 24.3447 3.66797C23.286 3.66797 22.3815 4.32257 22.0065 5.24597L16.7973 4.00097L14.634 10.148C11.5563 10.2059 8.76722 11.0387 6.68012 12.3692C6.11822 11.8817 5.41712 11.6039 4.66472 11.6039C2.95862 11.6039 1.57172 12.992 1.57172 14.6981C1.57172 15.7535 2.11622 16.7285 2.99852 17.2961C2.94218 17.6052 2.91277 17.9187 2.91062 18.233C2.91062 22.6988 8.32352 26.3321 14.9763 26.3321C21.6303 26.3321 27.0435 22.6988 27.0435 18.233C27.0419 17.9277 27.0146 17.6231 26.9619 17.3225C27.8679 16.7591 28.4286 15.77 28.4286 14.6984ZM19.0794 18.7043C18.8298 18.7043 18.5826 18.6551 18.3519 18.5596C18.1213 18.464 17.9117 18.324 17.7353 18.1474C17.5588 17.9708 17.4188 17.7612 17.3234 17.5305C17.228 17.2998 17.179 17.0525 17.1792 16.8029C17.1793 16.4268 17.2908 16.0593 17.4998 15.7467C17.7088 15.434 18.0058 15.1904 18.3532 15.0466C18.7007 14.9028 19.0829 14.8652 19.4517 14.9387C19.8205 15.0122 20.1592 15.1933 20.425 15.4593C20.6908 15.7253 20.8718 16.0641 20.945 16.4329C21.0182 16.8018 20.9805 17.184 20.8364 17.5314C20.6924 17.8787 20.4486 18.1756 20.1358 18.3843C19.8231 18.5931 19.4554 18.7044 19.0794 18.7043ZM19.4577 21.9461C19.4007 22.0043 18.0378 23.3924 14.955 23.3924C11.8551 23.3924 10.6161 21.9857 10.5642 21.9251C10.4808 21.827 10.4395 21.6999 10.4495 21.5716C10.4595 21.4432 10.52 21.3241 10.6176 21.2402C10.7153 21.1573 10.8417 21.116 10.9695 21.1254C11.0973 21.1347 11.2163 21.1938 11.301 21.29C11.3286 21.3212 12.363 22.4213 14.955 22.4213C17.5902 22.4213 18.7467 21.2819 18.759 21.2708C18.8494 21.1818 18.9709 21.1316 19.0978 21.131C19.2246 21.1304 19.3466 21.1794 19.4378 21.2676C19.529 21.3557 19.5821 21.476 19.5858 21.6028C19.5896 21.7295 19.5436 21.8527 19.4577 21.9461ZM9.24272 16.8029C9.23835 16.5504 9.28432 16.2996 9.37794 16.0651C9.47157 15.8306 9.61096 15.6171 9.788 15.4371C9.96503 15.257 10.1762 15.1141 10.4091 15.0165C10.6419 14.919 10.8919 14.8688 11.1444 14.8689C11.3969 14.869 11.6469 14.9194 11.8797 15.0172C12.1125 15.115 12.3235 15.2582 12.5003 15.4384C12.6772 15.6186 12.8164 15.8322 12.9098 16.0668C13.0032 16.3014 13.0489 16.5522 13.0443 16.8047C13.0352 17.3029 12.8309 17.7777 12.4752 18.1268C12.1195 18.4759 11.641 18.6713 11.1426 18.6711C10.6443 18.6709 10.1659 18.475 9.8106 18.1255C9.45526 17.7761 9.25133 17.3011 9.24272 16.8029Z" fill="white"/>
</svg>
