<svg width="20" height="20" viewBox="0 0 20 20" fill="none" xmlns="http://www.w3.org/2000/svg">
<path d="M15.0542 9.10401C15.0556 8.32361 14.9023 7.5507 14.6033 6.82985C14.3043 6.10901 13.8655 5.45446 13.3122 4.90401C12.1876 3.84028 10.6925 3.25668 9.14468 3.27713C7.59677 3.29764 6.11785 3.92061 5.02168 5.0138C3.92558 6.10703 3.29868 7.5843 3.27418 9.1323C3.24968 10.6803 3.82933 12.1766 4.89013 13.304C5.92028 14.3342 7.29263 14.9504 8.74697 15.036C10.2013 15.1214 11.6365 14.6703 12.7801 13.7679L15.9441 16.9339L16.9441 15.9339L13.7761 12.7859C14.6068 11.7387 15.0574 10.4406 15.0541 9.10393L15.0542 9.10401ZM9.10418 13.654C8.50763 13.6557 7.91668 13.5392 7.36535 13.3113C6.81402 13.0834 6.3134 12.7485 5.89217 12.326C5.05838 11.4694 4.59517 10.3192 4.60272 9.12387C4.6102 7.92855 5.0878 6.7842 5.93227 5.9382C6.77673 5.0922 7.92027 4.61241 9.1156 4.60265C10.311 4.59295 11.4621 5.05401 12.3203 5.88618C13.1715 6.73918 13.6496 7.89518 13.6496 9.10018C13.6496 10.3052 13.1715 11.4612 12.3203 12.3142C11.8995 12.7392 11.3987 13.0765 10.8466 13.3065C10.2946 13.5365 9.7023 13.6547 9.10423 13.6541L9.10418 13.654Z" fill="white"/>
</svg>
