<svg width="206" height="61" viewBox="0 0 206 61" fill="none" xmlns="http://www.w3.org/2000/svg">
<path d="M73.3553 24.6374C73.3553 18.845 71.7054 15.8693 68.404 15.7062C67.0911 15.6441 65.8088 15.8535 64.5618 16.3383C63.5664 16.6951 62.8964 17.048 62.5439 17.4045V31.2329C64.6548 32.5593 66.5296 33.1755 68.1628 33.0788C71.6216 32.8501 73.3526 30.0387 73.3526 24.637L73.3553 24.6374ZM77.4245 24.8778C77.4245 27.8209 76.735 30.2643 75.3486 32.2057C73.8032 34.4045 71.6613 35.5367 68.923 35.5988C66.8586 35.6647 64.7307 35.0172 62.5451 33.6598V46.2271L59.0049 44.9628V17.0673C59.5858 16.354 60.3333 15.7409 61.2397 15.2213C63.3466 13.9921 65.9089 13.3599 68.921 13.3289L68.9714 13.3793C71.7252 13.3444 73.8472 14.4765 75.3373 16.7724C76.7278 18.878 77.4252 21.5781 77.4252 24.8761L77.4245 24.8778Z" fill="#A7BED3"/>
<path d="M99.0663 33.127C99.0663 37.0746 98.6713 39.8065 97.881 41.3302C97.087 42.8503 95.5762 44.064 93.3469 44.9675C91.538 45.6808 89.5821 46.0687 87.4816 46.1347L86.8967 43.9013C89.031 43.6105 90.5339 43.3197 91.4069 43.0289C93.1228 42.4473 94.3002 41.5553 94.9471 40.3611C95.4661 39.3876 95.7216 37.5305 95.7216 34.7796V33.8566C93.3008 34.9578 90.7624 35.5048 88.1119 35.5048C86.369 35.5048 84.8311 34.9582 83.5063 33.8566C82.0189 32.6583 81.2754 31.1383 81.2754 29.2975V14.5461L84.8156 13.3324V28.1792C84.8156 29.7654 85.327 30.9867 86.3495 31.8436C87.3719 32.7005 88.6968 33.1115 90.3197 33.0804C91.9426 33.0455 93.6815 32.4173 95.5293 31.188V13.8666H99.0695V33.1254L99.0663 33.127Z" fill="#A7BED3"/>
<path d="M112.894 35.4065C112.472 35.4414 112.085 35.4569 111.728 35.4569C109.726 35.4569 108.165 34.9799 107.051 34.0224C105.94 33.0644 105.382 31.7424 105.382 30.0556V16.0959H102.957V13.8661H105.382V7.94646L108.918 6.68614V13.8669H112.896V16.0967H108.918V29.961C108.918 31.2909 109.274 32.2333 109.987 32.7839C110.599 33.2375 111.571 33.4972 112.896 33.5633V35.4092L112.894 35.4065Z" fill="#A7BED3"/>
<path d="M134.313 35.1161H130.773V21.4349C130.773 20.0429 130.448 18.8446 129.801 17.8441C129.053 16.7119 128.015 16.1458 126.683 16.1458C125.06 16.1458 123.03 17.0027 120.595 18.7165V35.1149H117.055V2.4136L120.595 1.29691V16.1915C122.857 14.5433 125.328 13.7174 128.014 13.7174C129.889 13.7174 131.407 14.3496 132.568 15.6099C133.734 16.8702 134.315 18.4404 134.315 20.3162V35.1113L134.313 35.1161Z" fill="#A7BED3"/>
<path d="M153.149 24.0804C153.149 21.8546 152.727 20.0186 151.886 18.5626C150.887 16.7906 149.334 15.8562 147.233 15.7591C143.352 15.984 141.415 18.7682 141.415 24.1055C141.415 26.5521 141.818 28.5969 142.632 30.236C143.67 32.3262 145.227 33.3573 147.305 33.3227C151.202 33.2917 153.15 30.2129 153.15 24.0812L153.149 24.0804ZM157.026 24.1037C157.026 27.2716 156.217 29.908 154.602 32.0125C152.824 34.37 150.37 35.5527 147.234 35.5527C144.128 35.5527 141.707 34.37 139.958 32.0125C138.374 29.9068 137.584 27.2704 137.584 24.1037C137.584 21.1256 138.44 18.6216 140.152 16.5808C141.961 14.417 144.34 13.3313 147.277 13.3313C150.217 13.3313 152.61 14.417 154.453 16.5808C156.165 18.6204 157.021 21.124 157.021 24.1037H157.026Z" fill="#A7BED3"/>
<path d="M177.31 35.1161H173.77V20.6591C173.77 19.073 173.293 17.8361 172.34 16.9442C171.387 16.0563 170.117 15.6258 168.533 15.6608C166.852 15.6918 165.252 16.2424 163.733 17.309V35.1157H160.192V16.8714C162.23 15.3863 164.105 14.4168 165.815 13.9633C167.431 13.5408 168.856 13.3311 170.083 13.3311C170.924 13.3311 171.714 13.4126 172.457 13.5755C173.848 13.8973 174.979 14.4944 175.85 15.3708C176.823 16.3403 177.307 17.5036 177.307 18.8646V35.1157L177.31 35.1161Z" fill="#A7BED3"/>
<path d="M24.0456 2.5453C22.224 2.55377 20.4847 2.70928 18.9552 2.98052C14.445 3.77816 13.6264 5.44704 13.6264 8.52622V12.592H24.2801V13.947H13.6264H9.6288C6.53244 13.947 3.81915 15.8104 2.97274 19.3535C1.9944 23.4153 1.95109 25.9534 2.97274 30.1942C3.73014 33.3522 5.539 35.6007 8.63536 35.6007H12.2988V30.7273C12.2988 27.2065 15.3415 24.0995 18.9548 24.0995H29.5966C32.559 24.0995 34.9254 21.6577 34.9254 18.6811V8.52462C34.9254 5.63402 32.4895 3.46428 29.5966 2.97893C27.7663 2.67391 25.8672 2.53535 24.0452 2.54371L24.0456 2.5453ZM18.2837 5.81503C19.3844 5.81503 20.2829 6.72963 20.2829 7.85389C20.2829 8.97417 19.384 9.88042 18.2837 9.88042C17.1793 9.88041 16.2845 8.97457 16.2845 7.85389C16.2845 6.72963 17.1793 5.81503 18.2837 5.81503Z" fill="#A7BED3"/>
<path d="M36.2526 13.9438V18.6819C36.2526 22.3542 33.1427 25.445 29.5965 25.445H18.9548C16.0396 25.445 13.626 27.9425 13.626 30.8633V41.0198C13.626 43.9104 16.137 45.6108 18.9548 46.4382C22.3273 47.4312 25.5632 47.6106 29.5965 46.4382C32.2788 45.6609 34.9254 44.0958 34.9254 41.0198V36.9541H24.2836V35.5991H34.9254H40.2542C43.3505 35.5991 44.5061 33.4369 45.583 30.1926C46.6953 26.8513 46.648 23.6364 45.583 19.3519C44.8176 16.2659 43.3561 13.9454 40.2542 13.9454H36.2566L36.2526 13.9438ZM30.2681 39.6672C31.3724 39.6672 32.2673 40.5731 32.2673 41.6938C32.2673 42.818 31.3724 43.7326 30.2681 43.7326C29.1674 43.7326 28.2689 42.818 28.2689 41.6938C28.2689 40.5735 29.1678 39.6672 30.2681 39.6672Z" fill="#A7BED3"/>
<path d="M184.224 10.7055H184.845V6.8084H186.315V6.34373H182.754V6.8084H184.224V10.7055ZM186.866 10.7055H187.396V7.14615L188.546 10.7051H189.137L190.336 7.15808V10.7055H190.915V6.34533H190.149L188.839 10.0821L187.721 6.34533H186.866V10.7055Z" fill="#A7BED3"/>
</svg>
