<svg width="135" height="109" viewBox="0 0 135 109" fill="none" xmlns="http://www.w3.org/2000/svg">
<path d="M66.7195 96.2266C66.2766 96.2266 65.8336 96.0988 65.4328 95.8859L61.3828 93.459C60.7711 93.1184 61.0664 92.9906 61.2773 92.9268C62.0789 92.65 62.2477 92.5861 63.1125 92.0752C63.1969 92.0326 63.3234 92.0539 63.4078 92.0965L66.5297 93.9699C66.6352 94.0338 66.8039 94.0338 66.9094 93.9699L79.1016 86.8594C79.207 86.7955 79.2914 86.6678 79.2914 86.5188V72.319C79.2914 72.1699 79.2281 72.0422 79.1016 71.9783L66.9094 64.8891C66.8039 64.8252 66.6562 64.8252 66.5297 64.8891L54.3375 71.9783C54.2109 72.0422 54.1477 72.1912 54.1477 72.319V86.5188C54.1477 86.6465 54.232 86.7742 54.3375 86.8381L57.6703 88.7754C59.4844 89.6908 60.6023 88.6051 60.6023 87.5406V73.5111C60.6023 73.3195 60.75 73.1492 60.9609 73.1492H62.5008C62.6906 73.1492 62.8594 73.2982 62.8594 73.5111V87.5406C62.8594 89.9889 61.5516 91.3727 59.2523 91.3727C58.5562 91.3727 57.9867 91.3727 56.4469 90.6063L53.2406 88.7541C52.4602 88.2857 51.9539 87.4342 51.9539 86.5188V72.319C51.9539 71.4035 52.4391 70.5307 53.2406 70.0836L65.4328 62.973C66.2133 62.526 67.2258 62.526 67.9852 62.973L80.1773 70.0836C80.9578 70.552 81.4641 71.4035 81.4641 72.319V86.5188C81.4641 87.4342 80.9789 88.307 80.1773 88.7541L67.9852 95.8647C67.6266 96.0988 67.1836 96.2266 66.7195 96.2266ZM76.5703 82.2184C76.5703 79.5572 74.7984 78.8547 71.0437 78.3438C67.2469 77.8328 66.8672 77.5774 66.8672 76.6832C66.8672 75.9381 67.1836 74.9588 69.9891 74.9588C72.4992 74.9588 73.4273 75.5123 73.807 77.2154C73.8492 77.3857 73.9758 77.4922 74.1445 77.4922H75.7266C75.832 77.4922 75.9164 77.4496 75.9797 77.3857C76.043 77.3006 76.0852 77.2154 76.0641 77.109C75.8109 74.1711 73.8914 72.8086 69.9891 72.8086C66.5086 72.8086 64.4414 74.2988 64.4414 76.7684C64.4414 79.4721 66.5086 80.1959 69.8414 80.5365C73.8281 80.941 74.1445 81.5158 74.1445 82.3035C74.1445 83.6873 73.0477 84.2621 70.4742 84.2621C67.2469 84.2621 66.5297 83.4531 66.2977 81.8352C66.2766 81.6648 66.1289 81.5371 65.9391 81.5371H64.357C64.1672 81.5371 63.9984 81.6861 63.9984 81.899C63.9984 83.9641 65.1164 86.4336 70.4531 86.4336C74.3555 86.4336 76.5703 84.9008 76.5703 82.2184ZM88.0664 71.5525C88.0664 72.8512 87.0117 73.9156 85.725 73.9156C84.4383 73.9156 83.3836 72.8512 83.3836 71.5525C83.3836 70.2113 84.4805 69.1895 85.725 69.1895C86.9906 69.1682 88.0664 70.2113 88.0664 71.5525ZM87.6867 71.5525C87.6867 70.4455 86.8008 69.5727 85.7039 69.5727C84.6281 69.5727 83.7422 70.4455 83.7422 71.5525C83.7422 72.6596 84.6281 73.5537 85.7039 73.5537C86.8008 73.5324 87.6867 72.6383 87.6867 71.5525ZM86.7375 72.8725H86.1891C86.168 72.7447 86.0836 72.0635 86.0836 72.0422C86.0414 71.8932 85.9992 71.808 85.8094 71.808H85.3453V72.8725H84.8391V70.2113H85.7461C86.0625 70.2113 86.6742 70.2113 86.6742 70.9139C86.6742 71.4035 86.3578 71.51 86.168 71.5738C86.5266 71.5951 86.5477 71.8293 86.6109 72.1699C86.632 72.3828 86.6742 72.7447 86.7375 72.8725ZM86.1469 70.999C86.1469 70.6371 85.8938 70.6371 85.7672 70.6371H85.3453V71.3822H85.7461C86.0836 71.3822 86.1469 71.1481 86.1469 70.999ZM28.9617 40.6621C28.9617 40.0873 28.6664 39.5764 28.1813 39.2996L15.2508 31.7846C15.0398 31.6568 14.7867 31.593 14.5336 31.5717H14.407C14.1539 31.5717 13.9219 31.6568 13.6898 31.7846L0.780469 39.2996C0.295313 39.5764 0 40.1086 0 40.6621L0.0210938 60.8867C0.0210938 61.1635 0.16875 61.419 0.400781 61.568C0.632812 61.717 0.928125 61.717 1.18125 61.568L8.85938 57.1186C9.34453 56.8205 9.63984 56.3096 9.63984 55.7561V46.3037C9.63984 45.7502 9.93516 45.218 10.4203 44.9412L13.6898 43.0465C13.943 42.8975 14.1961 42.8336 14.4703 42.8336C14.7445 42.8336 15.0188 42.8975 15.2508 43.0465L18.5203 44.9412C19.0055 45.218 19.3008 45.7502 19.3008 46.3037V55.7561C19.3008 56.3096 19.5961 56.8418 20.0812 57.1186L27.7594 61.568C27.9914 61.717 28.3078 61.717 28.5398 61.568C28.7719 61.4402 28.9195 61.1635 28.9195 60.8867L28.9617 40.6621ZM99.668 18.5854V56.1393C99.668 56.6928 99.3727 57.225 98.8875 57.5018L85.957 65.0381C85.4719 65.3148 84.8812 65.3148 84.3961 65.0381L71.4656 57.5018C70.9805 57.225 70.6852 56.6928 70.6852 56.1393V41.0666C70.6852 40.5131 70.9805 39.9809 71.4656 39.7041L84.3961 32.1678C84.8812 31.891 85.4719 31.891 85.957 32.1678L89.1844 34.0412C89.543 34.2541 90.007 33.9773 90.007 33.5729V13.5611C90.007 12.965 90.6398 12.5818 91.1672 12.8799L98.8664 17.2229C99.3516 17.4783 99.668 18.0106 99.668 18.5854ZM89.9648 46.027C89.9648 45.8779 89.8805 45.7502 89.775 45.6863L85.3453 43.0891C85.2188 43.0252 85.0711 43.0252 84.9445 43.0891L80.5148 45.6863C80.3883 45.7502 80.325 45.8779 80.325 46.027V51.2002C80.325 51.3492 80.4094 51.477 80.5148 51.5408L84.9445 54.1168C85.0711 54.1807 85.2188 54.1807 85.3242 54.1168L89.7539 51.5408C89.8805 51.477 89.9437 51.3492 89.9437 51.2002V46.027H89.9648ZM134.22 45.8779C134.705 45.6012 135 45.069 135 44.5154V40.875C135 40.3215 134.705 39.7893 134.22 39.5125L121.373 31.9762C120.888 31.6994 120.298 31.6994 119.812 31.9762L106.882 39.5125C106.397 39.7893 106.102 40.3215 106.102 40.875V55.9477C106.102 56.5225 106.397 57.0334 106.882 57.3102L119.728 64.6975C120.192 64.9742 120.783 64.9742 121.268 64.6975L129.03 60.3332C129.558 60.0352 129.558 59.2688 129.03 58.9707L116.016 51.4344C115.762 51.2854 115.615 51.0299 115.615 50.7531V46.027C115.615 45.7502 115.762 45.4947 116.016 45.3457L120.066 42.9826C120.298 42.8336 120.614 42.8336 120.846 42.9826L124.896 45.3457C125.128 45.4947 125.297 45.7502 125.297 46.027V49.7313C125.297 50.3274 125.951 50.7106 126.478 50.4125L134.22 45.8779ZM117.914 46.6231C117.83 46.6869 117.766 46.7721 117.766 46.8785V49.7738C117.766 49.8803 117.83 49.9867 117.914 50.0293L120.403 51.477C120.487 51.5408 120.614 51.5408 120.698 51.477L123.188 50.0293C123.272 49.9654 123.335 49.8803 123.335 49.7738V46.8785C123.335 46.7721 123.272 46.6656 123.188 46.6231L120.698 45.1754C120.614 45.1115 120.487 45.1115 120.403 45.1754L117.914 46.6231ZM64.2937 55.8838V40.8963C64.2937 40.3428 63.9562 39.8106 63.4711 39.5338L50.5828 32.04C50.1398 31.7846 49.5281 31.742 49.0219 32.04L36.1336 39.5338C35.6484 39.8106 35.3109 40.3215 35.3109 40.8963V55.8838C35.3109 56.4799 35.7117 56.9908 36.1547 57.2463L49.0641 64.74C49.5703 65.0381 50.1609 65.0168 50.625 64.74L63.4922 57.2463C63.8719 57.0334 64.1461 56.6715 64.2516 56.2457C64.2727 56.1393 64.2937 56.0115 64.2937 55.8838ZM48.6211 29.2938L48.4523 29.4002H48.6844L48.6211 29.2938ZM64.6945 57.0121L64.6102 56.8631V57.0547L64.6945 57.0121Z" fill="#A7BED3"/>
</svg>
