<svg width="116" height="116" viewBox="0 0 116 116" fill="none" xmlns="http://www.w3.org/2000/svg">
<path d="M58 26.5833C25.4765 26.5833 0 40.3825 0 58C0 75.6175 25.4765 89.4167 58 89.4167C90.5235 89.4167 116 75.6175 116 58C116 40.3825 90.5235 26.5833 58 26.5833ZM51.9777 36.25H58.3093L56.2987 45.9167H61.9537C65.54 45.9167 67.947 46.4193 69.3197 47.6712C70.6585 48.9085 71.0645 50.9385 70.528 53.7032L68.0147 65.25H61.5767L63.8918 54.5732C64.1722 53.1087 64.061 52.0888 63.568 51.5523C63.0798 51.0158 62.002 50.75 60.3877 50.75H55.3175L52.258 65.25H45.9167L51.9777 36.25ZM24.1667 45.9167H37.0523C43.1955 45.9167 46.9172 50.0347 45.4623 56.1778C43.7707 63.3167 39.2467 65.25 30.914 65.25H26.9313L25.6698 72.5H19.2657L24.1667 45.9167ZM74.9167 45.9167H87.8023C93.9455 45.9167 97.6672 50.0347 96.2123 56.1778C94.5207 63.3167 89.9918 65.25 81.664 65.25H77.6813L76.4198 72.5H70.0157L74.9167 45.9167ZM29.6525 50.75L27.8303 60.4167H31.9628C35.5395 60.4167 38.8648 60.0107 39.4207 54.6795C39.6285 52.6108 38.7682 50.75 34.6357 50.75H29.6525ZM80.4025 50.75L78.5803 60.4167H82.7128C86.2895 60.4167 89.6148 60.0107 90.1707 54.6795C90.3785 52.6108 89.523 50.75 85.3857 50.75H80.4025Z" fill="#A7BED3"/>
</svg>
