<svg width="18" height="18" viewBox="0 0 18 18" fill="none" xmlns="http://www.w3.org/2000/svg">
<path d="M14.4367 5.15056C15.0773 4.76221 15.5566 4.15073 15.7851 3.43027C15.1832 3.79244 14.5247 4.04757 13.8379 4.18461C12.8858 3.16326 11.3773 2.9147 10.1553 3.57784C8.9333 4.24098 8.30034 5.65163 8.6101 7.02157C6.14455 6.89604 3.84745 5.71499 2.29042 3.77229C1.47783 5.19361 1.89308 7.01054 3.23937 7.92447C2.75254 7.9086 2.2765 7.77493 1.85096 7.53461C1.85096 7.54766 1.85096 7.5607 1.85096 7.57374C1.85124 9.05429 2.88021 10.3296 4.31123 10.623C3.85967 10.7476 3.38601 10.7659 2.92639 10.6766C3.32884 11.9428 4.47955 12.8102 5.79111 12.8361C4.70484 13.7006 3.36333 14.1695 1.98244 14.1672C1.73768 14.1676 1.49311 14.1533 1.25 14.1245C2.65227 15.0383 4.28434 15.5233 5.95118 15.5216C8.27014 15.5377 10.4987 14.6106 12.1385 12.9477C13.7782 11.2847 14.6922 9.02465 14.6761 6.67302C14.6761 6.53824 14.673 6.40418 14.6668 6.27085C15.2674 5.8307 15.7857 5.28545 16.1974 4.6607C15.6379 4.9122 15.0445 5.07731 14.4367 5.15056Z" fill="#EDEDED"/>
</svg>
