<svg width="17" height="16" viewBox="0 0 17 16" fill="none" xmlns="http://www.w3.org/2000/svg">
<path d="M8.94172 13.8696H6.29628V6.04354H8.94172V7.34788C9.50562 6.64044 10.3608 6.21869 11.273 6.1981C12.9136 6.20708 14.2374 7.52357 14.2326 9.14136V13.8696H11.5872V9.46745C11.4814 8.73873 10.8476 8.19804 10.1011 8.19962C9.77456 8.2098 9.46634 8.35078 9.24756 8.59003C9.02878 8.82928 8.91834 9.14612 8.94172 9.46745V13.8696ZM4.97356 13.8696H2.32812V6.04354H4.97356V13.8696ZM3.65084 4.73919C2.92033 4.73919 2.32812 4.15521 2.32812 3.43484C2.32812 2.71447 2.92033 2.13049 3.65084 2.13049C4.38136 2.13049 4.97356 2.71447 4.97356 3.43484C4.97356 3.78078 4.83421 4.11254 4.58615 4.35715C4.33809 4.60177 4.00165 4.73919 3.65084 4.73919Z" fill="#EDEDED"/>
</svg>
