<svg width="22" height="22" viewBox="0 0 22 22" fill="none" xmlns="http://www.w3.org/2000/svg">
<path d="M12.992 19.6957H4.41715C3.9576 19.7119 3.51205 19.5338 3.1869 19.2041C2.86176 18.8744 2.6862 18.4226 2.70217 17.9565V9.26088C2.6862 8.79486 2.86176 8.34303 3.1869 8.01331C3.51205 7.68358 3.9576 7.50556 4.41715 7.52175H7.8471V4.04349C7.83113 3.57747 8.00668 3.12564 8.33183 2.79592C8.65698 2.46619 9.10253 2.28817 9.56208 2.30436H18.137C18.5965 2.28817 19.0421 2.46619 19.3672 2.79592C19.6924 3.12564 19.8679 3.57747 19.8519 4.04349V12.7391C19.8676 13.2051 19.692 13.6568 19.3669 13.9864C19.0418 14.3161 18.5964 14.4942 18.137 14.4783H14.707V17.9565C14.7227 18.4225 14.5471 18.8742 14.222 19.2038C13.8969 19.5335 13.4515 19.7116 12.992 19.6957ZM4.41715 9.26088V17.9565H12.992V14.4783H9.56208C9.1026 14.4942 8.6572 14.3161 8.33211 13.9864C8.00702 13.6568 7.83139 13.2051 7.8471 12.7391V9.26088H4.41715ZM9.56208 4.04349V12.7391H18.137V4.04349H9.56208Z" fill="#EDEDED"/>
</svg>
