<svg width="60" height="60" viewBox="0 0 60 60" fill="none" xmlns="http://www.w3.org/2000/svg">
<path d="M56.25 4.94995H3.75C2.71877 4.94995 1.875 5.79361 1.875 6.82495V53.1749C1.875 54.2061 2.71877 55.0499 3.75 55.0499H56.25C57.2812 55.0499 58.125 54.2061 58.125 53.1749V6.82495C58.125 5.79363 57.2812 4.94995 56.25 4.94995ZM16.4438 34.5562H18.9188C21.3188 34.5562 23.2687 36.5249 23.2687 38.9249V41.3999C23.2687 43.7999 21.3188 45.7499 18.9188 45.7499H16.4438C14.0437 45.7499 12.0938 43.7999 12.0938 41.3999C12.0938 40.3686 12.9188 39.5249 13.9688 39.5249C15 39.5249 15.8438 40.3686 15.8438 41.3999C15.8438 41.7187 16.1063 41.9999 16.4438 41.9999H18.9188C19.2563 41.9999 19.5187 41.7187 19.5187 41.3999V38.9249C19.5187 38.5874 19.2563 38.3062 18.9188 38.3062H16.4438C14.0437 38.3062 12.0938 36.3562 12.0938 33.9561V31.4811C12.0938 29.0812 14.0437 27.1311 16.4438 27.1311H18.9188C21.3188 27.1311 23.2687 29.0812 23.2687 31.4811C23.2687 32.5124 22.4251 33.3561 21.3937 33.3561C20.3625 33.3561 19.5187 32.5124 19.5187 31.4811C19.5187 31.1436 19.2563 30.8811 18.9188 30.8811H16.4438C16.1063 30.8811 15.8438 31.1436 15.8438 31.4811V33.9561C15.8438 34.2936 16.1063 34.5562 16.4438 34.5562ZM29.5688 34.5562H32.0438C34.4438 34.5562 36.3937 36.5249 36.3937 38.9249V41.3999C36.3937 43.7999 34.4438 45.7499 32.0438 45.7499H29.5688C27.1687 45.7499 25.2188 43.7999 25.2188 41.3999C25.2188 40.3686 26.0438 39.5249 27.0938 39.5249C28.125 39.5249 28.9688 40.3686 28.9688 41.3999C28.9688 41.7187 29.2313 41.9999 29.5688 41.9999H32.0438C32.3813 41.9999 32.6437 41.7187 32.6437 41.3999V38.9249C32.6437 38.5874 32.3813 38.3062 32.0438 38.3062H29.5688C27.1687 38.3062 25.2188 36.3562 25.2188 33.9561V31.4811C25.2188 29.0812 27.1687 27.1311 29.5688 27.1311H32.0438C34.4438 27.1311 36.3937 29.0812 36.3937 31.4811C36.3937 32.5124 35.5501 33.3561 34.5187 33.3561C33.4875 33.3561 32.6437 32.5124 32.6437 31.4811C32.6437 31.1436 32.3813 30.8811 32.0438 30.8811H29.5688C29.2313 30.8811 28.9688 31.1436 28.9688 31.4811V33.9561C28.9688 34.2936 29.2313 34.5562 29.5688 34.5562ZM46.0312 45.7499H40.2188C39.1688 45.7499 38.3438 44.9062 38.3438 43.8749V29.0061C38.3438 27.9749 39.1688 27.1311 40.2188 27.1311C41.25 27.1311 42.0938 27.9749 42.0938 29.0061V41.9999H46.0312C47.0812 41.9999 47.9062 42.8436 47.9062 43.8749C47.9062 44.9062 47.0812 45.7499 46.0312 45.7499ZM54.375 17.8312H5.625V8.69995H54.375V17.8312Z" fill="#39D24E"/>
<path d="M11.25 15.1499C12.2855 15.1499 13.125 14.3104 13.125 13.2749C13.125 12.2394 12.2855 11.3999 11.25 11.3999C10.2145 11.3999 9.375 12.2394 9.375 13.2749C9.375 14.3104 10.2145 15.1499 11.25 15.1499Z" fill="#39D24E"/>
<path d="M18.75 15.1499C19.7855 15.1499 20.625 14.3104 20.625 13.2749C20.625 12.2394 19.7855 11.3999 18.75 11.3999C17.7145 11.3999 16.875 12.2394 16.875 13.2749C16.875 14.3104 17.7145 15.1499 18.75 15.1499Z" fill="#39D24E"/>
<path d="M25.8438 15.1499C26.8793 15.1499 27.7188 14.3104 27.7188 13.2749C27.7188 12.2394 26.8793 11.3999 25.8438 11.3999C24.8082 11.3999 23.9688 12.2394 23.9688 13.2749C23.9688 14.3104 24.8082 15.1499 25.8438 15.1499Z" fill="#39D24E"/>
</svg>
