<svg width="48" height="48" viewBox="0 0 48 48" fill="none" xmlns="http://www.w3.org/2000/svg">
<path d="M17.4 21.4L30.6 14.6M17.4 26.6L30.6 33.4M6 24C6 25.5913 6.63214 27.1174 7.75736 28.2426C8.88258 29.3679 10.4087 30 12 30C13.5913 30 15.1174 29.3679 16.2426 28.2426C17.3679 27.1174 18 25.5913 18 24C18 22.4087 17.3679 20.8826 16.2426 19.7574C15.1174 18.6321 13.5913 18 12 18C10.4087 18 8.88258 18.6321 7.75736 19.7574C6.63214 20.8826 6 22.4087 6 24ZM30 12C30 13.5913 30.6321 15.1174 31.7574 16.2426C32.8826 17.3679 34.4087 18 36 18C37.5913 18 39.1174 17.3679 40.2426 16.2426C41.3679 15.1174 42 13.5913 42 12C42 10.4087 41.3679 8.88258 40.2426 7.75736C39.1174 6.63214 37.5913 6 36 6C34.4087 6 32.8826 6.63214 31.7574 7.75736C30.6321 8.88258 30 10.4087 30 12ZM30 36C30 37.5913 30.6321 39.1174 31.7574 40.2426C32.8826 41.3679 34.4087 42 36 42C37.5913 42 39.1174 41.3679 40.2426 40.2426C41.3679 39.1174 42 37.5913 42 36C42 34.4087 41.3679 32.8826 40.2426 31.7574C39.1174 30.6321 37.5913 30 36 30C34.4087 30 32.8826 30.6321 31.7574 31.7574C30.6321 32.8826 30 34.4087 30 36Z" stroke="white" stroke-width="2" stroke-linecap="round" stroke-linejoin="round"/>
</svg>
