<svg width="60" height="60" viewBox="0 0 60 60" fill="none" xmlns="http://www.w3.org/2000/svg">
<g clip-path="url(#clip0_115_5483)">
<path d="M57.7031 18.075C54.8906 15.4781 51 11.5125 47.8313 8.7L47.6437 8.56875C47.3318 8.31823 46.98 8.12176 46.6031 7.9875C38.9625 6.5625 3.40313 -0.0843723 2.70938 2.72953e-06C2.51498 0.0272278 2.32917 0.0977077 2.16562 0.206253L1.9875 0.346878C1.76817 0.569628 1.60158 0.838731 1.5 1.13438L1.45312 1.25625V1.92188V2.025C5.45625 13.1719 21.2625 49.6875 24.375 58.2563C24.5625 58.8375 24.9188 59.9438 25.5844 60H25.7344C26.0906 60 27.6094 57.9938 27.6094 57.9938C27.6094 57.9938 54.7594 25.0688 57.5063 21.5625C57.8618 21.1306 58.1757 20.666 58.4438 20.175C58.5122 19.7908 58.4799 19.3954 58.3501 19.0274C58.2203 18.6594 57.9974 18.3313 57.7031 18.075ZM34.575 21.9094L46.1625 12.3L52.9594 18.5625L34.575 21.9094ZM30.075 21.2813L10.125 4.93125L42.4031 10.8844L30.075 21.2813ZM31.875 25.5656L52.2938 22.275L28.95 50.4L31.875 25.5656ZM7.41562 6.5625L28.4062 24.375L25.3687 50.4188L7.41562 6.5625Z" fill="#A7BED3"/>
</g>
<defs>
<clipPath id="clip0_115_5483">
<rect width="60" height="60" fill="white"/>
</clipPath>
</defs>
</svg>
