<svg width="30" height="30" viewBox="0 0 30 30" fill="none" xmlns="http://www.w3.org/2000/svg">
<path d="M24.9938 8.35999C26.1143 7.6901 26.9527 6.63528 27.3525 5.39249C26.2996 6.01724 25.1476 6.45733 23.9463 6.69374C22.2807 4.9319 19.6419 4.50314 17.5043 5.64706C15.3666 6.79097 14.2594 9.22435 14.8013 11.5875C10.4883 11.371 6.46998 9.33363 3.74627 5.98249C2.32482 8.43426 3.05121 11.5685 5.40627 13.145C4.55466 13.1176 3.72193 12.887 2.97752 12.4725C2.97752 12.495 2.97752 12.5175 2.97752 12.54C2.97801 15.0939 4.77798 17.2938 7.28127 17.8C6.49135 18.0149 5.66278 18.0465 4.85877 17.8925C5.56277 20.0766 7.57571 21.5728 9.87002 21.6175C7.96981 23.1089 5.62311 23.9177 3.20752 23.9137C2.77936 23.9144 2.35153 23.8897 1.92627 23.84C4.37926 25.4163 7.23423 26.2529 10.15 26.25C14.2066 26.2778 18.1051 24.6786 20.9734 21.81C23.8418 18.9414 25.4407 15.0428 25.4125 10.9862C25.4125 10.7537 25.4071 10.5225 25.3963 10.2925C26.4468 9.53324 27.3535 8.59267 28.0738 7.51499C27.095 7.94881 26.0569 8.23364 24.9938 8.35999Z" fill="white"/>
</svg>
