<svg width="48" height="48" viewBox="0 0 48 48" fill="none" xmlns="http://www.w3.org/2000/svg">
<path d="M20.0002 35.1L16.4602 38.54C15.5319 39.4683 14.2729 39.9898 12.9602 39.9898C11.6474 39.9898 10.3884 39.4683 9.46016 38.54C8.5319 37.6118 8.01041 36.3528 8.01041 35.04C8.01041 33.7273 8.5319 32.4683 9.46016 31.54L18.5402 22.44C19.4314 21.5459 20.6322 21.0286 21.8942 20.9951C23.1562 20.9616 24.3828 21.4144 25.3202 22.26L25.5602 22.46C25.9394 22.8313 26.4506 23.0367 26.9814 23.0311C27.5121 23.0255 28.0189 22.8093 28.3902 22.43C28.7615 22.0507 28.9669 21.5395 28.9613 21.0088C28.9556 20.4781 28.7394 19.9713 28.3602 19.6C28.2473 19.4541 28.1271 19.3139 28.0002 19.18C26.2929 17.6946 24.0848 16.9137 21.8233 16.9954C19.5618 17.0771 17.4158 18.0153 15.8202 19.62L6.62016 28.72C5.05687 30.4216 4.2114 32.6613 4.26031 34.9715C4.30922 37.2817 5.24872 39.4836 6.88263 41.1175C8.51653 42.7514 10.7185 43.6909 13.0287 43.7399C15.3388 43.7888 17.5786 42.9433 19.2802 41.38L22.7402 38C23.0818 37.6273 23.2696 37.139 23.2658 36.6335C23.262 36.1279 23.0668 35.6425 22.7196 35.275C22.3724 34.9075 21.8988 34.6852 21.3943 34.6527C20.8898 34.6202 20.3916 34.7801 20.0002 35.1ZM41.3802 6.62001C39.6977 4.94802 37.4221 4.00958 35.0502 4.00958C32.6782 4.00958 30.4026 4.94802 28.7202 6.62001L25.2602 10C24.9185 10.3727 24.7307 10.861 24.7345 11.3665C24.7384 11.8721 24.9335 12.3575 25.2807 12.725C25.628 13.0925 26.1015 13.3148 26.606 13.3473C27.1106 13.3798 27.6087 13.22 28.0002 12.9L31.4602 9.46001C32.3884 8.53175 33.6474 8.01026 34.9602 8.01026C36.2729 8.01026 37.5319 8.53175 38.4602 9.46001C39.3884 10.3883 39.9099 11.6473 39.9099 12.96C39.9099 14.2728 39.3884 15.5317 38.4602 16.46L29.3802 25.56C28.4889 26.4541 27.2881 26.9714 26.0261 27.005C24.7641 27.0385 23.5376 26.5856 22.6002 25.74L22.3602 25.54C21.9809 25.1687 21.4697 24.9633 20.9389 24.9689C20.4082 24.9745 19.9015 25.1907 19.5302 25.57C19.1589 25.9493 18.9534 26.4605 18.959 26.9912C18.9647 27.5219 19.1809 28.0287 19.5602 28.4C19.7054 28.5486 19.859 28.6888 20.0202 28.82C21.7295 30.3009 23.9366 31.0789 26.1968 30.9973C28.4569 30.9156 30.6021 29.9804 32.2002 28.38L41.3002 19.28C42.9828 17.6082 43.9357 15.3385 43.9507 12.9665C43.9656 10.5945 43.0416 8.31299 41.3802 6.62001Z" fill="white"/>
</svg>
