<svg width="24" height="24" viewBox="0 0 24 24" fill="none" xmlns="http://www.w3.org/2000/svg">
<g clip-path="url(#clip0_465_761)">
<mask id="mask0_465_761" style="mask-type:luminance" maskUnits="userSpaceOnUse" x="0" y="0" width="24" height="24">
<path d="M0 0H24V24H0V0Z" fill="white"/>
</mask>
<g mask="url(#mask0_465_761)">
<mask id="mask1_465_761" style="mask-type:luminance" maskUnits="userSpaceOnUse" x="0" y="0" width="24" height="24">
<path d="M0 0H24V24H0V0Z" fill="white"/>
</mask>
<g mask="url(#mask1_465_761)">
<path d="M18.8989 4.76094C16.9592 2.92125 14.4296 1.94142 11.7601 2.00138C9.0905 2.06138 6.60088 3.17118 4.76119 5.10088C2.92149 7.04056 1.94167 9.57016 2.00162 12.2397C2.06162 14.9093 3.17143 17.3989 5.10112 19.2386C6.9808 21.0283 9.41042 21.9982 11.99 21.9982H12.2399C14.9095 21.9382 17.3991 20.8284 19.2388 18.8987C21.0785 16.969 22.0583 14.4294 21.9983 11.7598C21.9284 9.09026 20.8286 6.60064 18.8989 4.76094H18.8989ZM12.21 20.4984C10.2003 20.5484 8.27061 19.8985 6.72088 18.6487C7.18077 17.3889 8.39061 16.509 9.76039 16.509H14.2597C15.6294 16.509 16.8392 17.3889 17.2992 18.6387C15.8494 19.7985 14.0797 20.4484 12.21 20.4984ZM18.429 17.5489C17.6191 16.0291 16.0294 15.0093 14.2496 15.0093H9.75036C7.97066 15.0093 6.37092 16.0291 5.57104 17.5589C4.28128 16.0691 3.55135 14.1994 3.51136 12.2098C3.45136 9.9401 4.28128 7.78043 5.85098 6.1407C7.42077 4.50098 9.53042 3.56114 11.8001 3.51112H12.01C14.1997 3.51112 16.2693 4.34104 17.8691 5.86072C19.5088 7.43051 20.4486 9.54016 20.4987 11.8098C20.5486 13.9194 19.8088 15.9491 18.429 17.5489Z" fill="white"/>
<path d="M12.2504 5.00098H11.7504C9.96075 5.00098 8.50098 6.46075 8.50098 8.25048V10.2502C8.50098 12.0398 9.96075 13.4996 11.7504 13.4996H14.75C15.1599 13.4996 15.4999 13.1597 15.4999 12.7498V8.25048C15.4999 6.46075 14.0401 5.00098 12.2504 5.00098H12.2504ZM14.0001 11.9999H11.7504C10.7906 11.9999 10.0007 11.21 10.0007 10.2502V8.25048C10.0007 7.29062 10.7906 6.50074 11.7504 6.50074H12.2504C13.2102 6.50074 14.0001 7.28059 14.0001 8.25048V11.9999Z" fill="white"/>
</g>
</g>
</g>
<defs>
<clipPath id="clip0_465_761">
<rect width="24" height="24" fill="white"/>
</clipPath>
</defs>
</svg>
