<svg width="80" height="80" viewBox="0 0 80 80" fill="none" xmlns="http://www.w3.org/2000/svg">
<path d="M65.7246 32.175V23.9664C65.7246 22.0523 64.1668 20.4945 62.252 20.4945H61.8184V16.3508C61.8184 13.85 59.7824 11.8148 57.2809 11.8148H14.9473C11.9387 11.8148 9.4168 14.0664 9.08242 17.0508C9.05742 17.2719 9.04492 17.4961 9.04492 17.7172C9.04492 17.8187 9.04727 17.9187 9.05273 18.0187C9.05273 18.0195 9.05273 18.0203 9.05273 18.0203C9.04727 18.0633 9.04492 18.1062 9.04492 18.1508V57.3468C9.04492 62.414 13.1668 66.5367 18.234 66.5367H62.252C64.1668 66.5367 65.7246 64.9789 65.7246 63.0648V54.8562C68.873 54.5601 71.3457 51.9015 71.3457 48.6773V38.3539C71.3457 35.1297 68.873 32.4711 65.7246 32.175ZM12.9512 17.7172C12.9512 17.6429 12.9551 17.5664 12.9637 17.4883C13.077 16.4812 13.9293 15.7211 14.9473 15.7211H57.2809C57.6285 15.7211 57.9121 16.0039 57.9121 16.3508V19.7133H14.9473C13.8465 19.7133 12.9512 18.8179 12.9512 17.7172ZM20.6309 54.1531H17.5059V32.8781H20.6309V54.1531ZM67.4394 48.6773C67.4394 49.3914 67.1137 50.0297 66.602 50.4515C66.5457 50.4984 66.4863 50.5429 66.4254 50.5843C66.2418 50.7086 66.0395 50.8062 65.823 50.8734C65.7902 50.8843 65.7559 50.8937 65.7223 50.9023C65.5363 50.9515 65.341 50.9773 65.1395 50.9773H51.9418C51.466 50.9773 51.0012 50.9328 50.5504 50.8476C50.4863 50.8351 50.4223 50.8226 50.3582 50.8086C50.1879 50.7718 50.0199 50.7289 49.8543 50.6812C49.634 50.6172 49.4176 50.5429 49.2059 50.4594C49.173 50.4468 49.141 50.4336 49.109 50.4203C49.0848 50.4109 49.0613 50.4008 49.0371 50.3906C48.8277 50.3023 48.6238 50.2047 48.4246 50.0976C48.3582 50.0617 48.2926 50.0258 48.2277 49.9883C48.0973 49.914 47.9699 49.8351 47.8441 49.7523C47.7191 49.6703 47.5965 49.5844 47.477 49.4945C47.4051 49.4406 47.334 49.3859 47.2645 49.3297C47.1949 49.2734 47.1262 49.2156 47.0582 49.157C47.0137 49.1179 46.9684 49.0781 46.9246 49.0383C45.423 47.6734 44.4801 45.7039 44.4801 43.5148C44.4801 41.4547 45.3152 39.5898 46.6652 38.2398C46.7285 38.1765 46.7934 38.114 46.8582 38.0531C46.9238 37.9922 46.9902 37.932 47.0582 37.8734C47.1488 37.7953 47.241 37.7195 47.3348 37.6453C47.4285 37.5711 47.5246 37.5 47.6223 37.4304C47.7684 37.3265 47.9184 37.2281 48.0723 37.1343C48.1754 37.0718 48.2793 37.0117 48.3848 36.9547C48.6191 36.8273 48.8605 36.7125 49.109 36.6109H49.1098C49.1973 36.5742 49.2863 36.5398 49.3762 36.507C50.1762 36.214 51.0402 36.0539 51.9418 36.0539H65.1395C65.341 36.0539 65.5363 36.0797 65.7223 36.1289C65.7496 36.1359 65.7762 36.1437 65.8035 36.1515C65.8566 36.1672 65.9098 36.1851 65.9621 36.2054C65.9879 36.2156 66.0137 36.2258 66.0395 36.2367C66.2098 36.3086 66.3691 36.4015 66.5152 36.5109C66.5598 36.5437 66.6027 36.5781 66.6441 36.6148C66.6855 36.6515 66.7262 36.689 66.7652 36.7281C67.1816 37.1437 67.4394 37.7187 67.4394 38.3539V48.6773Z" fill="#39D24E"/>
<path d="M51.5471 46.4171C53.1496 46.4171 54.4486 45.1181 54.4486 43.5156C54.4486 41.9131 53.1496 40.614 51.5471 40.614C49.9446 40.614 48.6455 41.9131 48.6455 43.5156C48.6455 45.1181 49.9446 46.4171 51.5471 46.4171Z" fill="#39D24E"/>
</svg>
