<svg width="82" height="82" viewBox="0 0 82 82" fill="none" xmlns="http://www.w3.org/2000/svg">
<path d="M7.75156 65.5999H6.27813C4.42031 65.5999 2.94687 64.1265 2.94687 62.2687C2.94687 60.3468 4.48438 58.8093 6.40625 58.8093H7.75156V56.1187H5.95781C2.69063 56.1187 0 58.8093 0 62.0765C0 65.728 2.94688 68.6749 6.59844 68.6749H7.75156V65.5999ZM74.2484 65.5999H72.775C70.9172 65.5999 69.4437 64.1265 69.4437 62.2687C69.4437 60.3468 70.9813 58.8093 72.9031 58.8093H74.2484V56.1187H72.3906C69.1234 56.1187 66.4328 58.8093 66.4328 62.0765C66.4328 65.728 69.3797 68.6749 73.0312 68.6749H74.1844V65.5999H74.2484ZM14.1578 56.1187C11.275 56.1187 8.96875 58.9374 8.96875 62.3968C8.96875 65.8562 11.275 68.6749 14.1578 68.6749C17.0406 68.6749 19.3469 65.8562 19.3469 62.3968C19.3469 58.9374 17.0406 56.1187 14.1578 56.1187ZM14.1578 66.3046C12.8766 66.3046 11.9156 64.5749 11.9156 62.4608C11.9156 60.3468 12.9406 58.6171 14.1578 58.6171C15.4391 58.6171 16.4 60.3468 16.4 62.4608C16.4 64.5749 15.375 66.3046 14.1578 66.3046ZM19.3469 68.6749L21.3328 56.1187H25.4969L26.7141 62.3968L28.3156 56.1187H32.1594L34.0172 68.6749H30.8141L29.7891 60.1546L28.0594 68.6749H25.8813L23.5109 60.2827L22.4219 68.6749H19.3469ZM34.7219 68.6749L36.7078 56.1187H40.8719L42.025 62.3968L43.6266 56.1187H47.5344L49.3922 68.6749H46.1891L45.1 60.1546L43.3703 68.6749H41.2563L38.8219 60.2827L37.7969 68.6749H34.7219ZM49.9047 68.6749V56.1187H56.4391V58.553H53.1719V61.2437H56.0547V63.5499H52.7875V65.9843H56.4391V68.6749H49.9047ZM75.4656 68.6749V56.1187H82V58.553H78.7328V61.2437H81.6156V63.5499H78.3484V65.9843H82V68.6749H75.4656Z" fill="#A7BED3"/>
<path d="M64.0626 62.8453C65.0876 62.8453 65.9845 62.0125 65.9845 60.9235V59.7703C65.9845 57.7203 64.3188 56.1188 62.3329 56.1188H57.5923V68.675H60.5392V62.7813L63.7423 68.675H67.0095L64.0626 62.8453ZM61.5642 61.7563H60.4751V58.6813H61.6923C62.5251 58.6813 63.1657 59.3219 63.1657 60.1547C63.1017 61.0516 62.397 61.7563 61.5642 61.7563ZM47.6626 24.1516C46.4454 24.0235 44.2032 24.6641 43.1782 29.661C43.1782 32.736 43.8829 34.5297 45.036 35.1703C47.1501 35.811 49.6485 32.9922 49.6485 29.9172C49.7126 27.9313 49.8407 25.3047 47.6626 24.1516ZM64.0626 24.1516C62.8454 24.0235 60.6032 24.6641 59.5782 29.661C59.5782 32.736 60.2829 34.5297 61.436 35.1703C63.5501 35.811 66.0485 32.9922 66.0485 29.9172C66.1767 27.9313 66.2407 25.3047 64.0626 24.1516Z" fill="#A7BED3"/>
<path d="M66.6249 13.325H15.5671C11.4671 13.325 8.07178 16.6562 8.07178 20.8203V38.3734C8.07178 42.4734 11.403 45.8687 15.5671 45.8687H66.6249C70.7249 45.8687 74.1202 42.5375 74.1202 38.3734V20.7562C74.1202 16.6562 70.7249 13.325 66.6249 13.325ZM30.814 41.1281C30.814 41.1281 27.2905 36.4515 26.3937 32.9281C25.4968 29.4046 25.3687 31.0062 25.3687 31.0062C25.3687 31.0062 22.5499 37.3484 19.603 41.3843C16.6562 45.4203 15.1827 39.3984 15.1827 39.3984C14.1577 38.1812 11.2108 20.2437 11.2108 20.2437C12.8765 15.6953 15.6952 19.4109 15.6952 19.4109L18.578 34.0171C18.578 34.0171 22.9983 25.0484 24.4077 22.8062C25.8812 20.5 28.3796 21.1406 28.5718 23.5109C28.764 25.8812 31.1983 32.4796 31.1983 32.4796C31.3905 25.625 34.2093 19.0906 34.6577 18.0015C35.1062 16.9125 39.6546 15.6953 38.8218 20.0515C36.8358 24.9203 34.8499 35.2343 35.3624 40.8718C34.0812 45.164 30.814 41.1281 30.814 41.1281ZM49.264 38.8218C47.9187 39.4625 42.9218 42.8578 39.3983 35.1703C37.1562 27.4187 42.089 21.7171 42.089 21.7171C42.089 21.7171 48.5593 16.2078 52.9796 23.5109C56.503 31.5187 50.6093 38.1812 49.264 38.8218ZM65.728 38.8218C64.3827 39.4625 59.3858 42.8578 55.8624 35.1703C53.6202 27.4187 58.553 21.7171 58.553 21.7171C58.553 21.7171 65.0233 16.2078 69.4437 23.5109C72.9671 31.5187 67.0733 38.1812 65.728 38.8218Z" fill="#A7BED3"/>
<path d="M39.7188 45.8046L51.1859 52.5312L48.8156 45.8046L42.2172 43.9468L39.7188 45.8046Z" fill="#A7BED3"/>
</svg>
